%TF.GenerationSoftware,KiCad,Pcbnew,(7.0.0)*%
%TF.CreationDate,2023-06-13T01:41:44+01:00*%
%TF.ProjectId,flintandsteel,666c696e-7461-46e6-9473-7465656c2e6b,rev?*%
%TF.SameCoordinates,Original*%
%TF.FileFunction,Drillmap*%
%TF.FilePolarity,Positive*%
%FSLAX45Y45*%
G04 Gerber Fmt 4.5, Leading zero omitted, Abs format (unit mm)*
G04 Created by KiCad (PCBNEW (7.0.0)) date 2023-06-13 01:41:44*
%MOMM*%
%LPD*%
G01*
G04 APERTURE LIST*
%ADD10C,0.050000*%
%ADD11C,0.200000*%
%ADD12C,0.060000*%
%ADD13C,0.320000*%
G04 APERTURE END LIST*
D10*
X10907000Y-12499830D02*
X14680000Y-12500000D01*
X10906700Y-6700000D02*
G75*
G03*
X10600000Y-7006800I0J-306700D01*
G01*
X14700300Y-6700000D02*
X10906700Y-6700000D01*
X15000000Y-12180000D02*
X15000300Y-7000000D01*
X10600300Y-12193130D02*
G75*
G03*
X10907000Y-12499830I306700J0D01*
G01*
X14680000Y-12500000D02*
G75*
G03*
X15000000Y-12180000I0J320000D01*
G01*
X15000300Y-7000000D02*
G75*
G03*
X14700300Y-6700000I-300000J0D01*
G01*
X10600000Y-7006800D02*
X10600300Y-12193130D01*
D11*
D12*
X11801600Y-7301000D02*
X11861600Y-7361000D01*
X11861600Y-7301000D02*
X11801600Y-7361000D01*
X12379600Y-7301000D02*
X12439600Y-7361000D01*
X12439600Y-7301000D02*
X12379600Y-7361000D01*
D13*
X14840000Y-12180000D02*
G75*
G03*
X14840000Y-12180000I-160000J0D01*
G01*
D11*
X10845119Y-12795976D02*
X10845119Y-12595976D01*
X10845119Y-12595976D02*
X10892738Y-12595976D01*
X10892738Y-12595976D02*
X10921310Y-12605500D01*
X10921310Y-12605500D02*
X10940357Y-12624548D01*
X10940357Y-12624548D02*
X10949881Y-12643595D01*
X10949881Y-12643595D02*
X10959405Y-12681690D01*
X10959405Y-12681690D02*
X10959405Y-12710262D01*
X10959405Y-12710262D02*
X10949881Y-12748357D01*
X10949881Y-12748357D02*
X10940357Y-12767405D01*
X10940357Y-12767405D02*
X10921310Y-12786452D01*
X10921310Y-12786452D02*
X10892738Y-12795976D01*
X10892738Y-12795976D02*
X10845119Y-12795976D01*
X11045119Y-12795976D02*
X11045119Y-12662643D01*
X11045119Y-12700738D02*
X11054643Y-12681690D01*
X11054643Y-12681690D02*
X11064167Y-12672167D01*
X11064167Y-12672167D02*
X11083214Y-12662643D01*
X11083214Y-12662643D02*
X11102262Y-12662643D01*
X11168929Y-12795976D02*
X11168929Y-12662643D01*
X11168929Y-12595976D02*
X11159405Y-12605500D01*
X11159405Y-12605500D02*
X11168929Y-12615024D01*
X11168929Y-12615024D02*
X11178452Y-12605500D01*
X11178452Y-12605500D02*
X11168929Y-12595976D01*
X11168929Y-12595976D02*
X11168929Y-12615024D01*
X11292738Y-12795976D02*
X11273690Y-12786452D01*
X11273690Y-12786452D02*
X11264167Y-12767405D01*
X11264167Y-12767405D02*
X11264167Y-12595976D01*
X11397500Y-12795976D02*
X11378452Y-12786452D01*
X11378452Y-12786452D02*
X11368928Y-12767405D01*
X11368928Y-12767405D02*
X11368928Y-12595976D01*
X11593690Y-12795976D02*
X11593690Y-12595976D01*
X11593690Y-12595976D02*
X11660357Y-12738833D01*
X11660357Y-12738833D02*
X11727024Y-12595976D01*
X11727024Y-12595976D02*
X11727024Y-12795976D01*
X11907976Y-12795976D02*
X11907976Y-12691214D01*
X11907976Y-12691214D02*
X11898452Y-12672167D01*
X11898452Y-12672167D02*
X11879405Y-12662643D01*
X11879405Y-12662643D02*
X11841309Y-12662643D01*
X11841309Y-12662643D02*
X11822262Y-12672167D01*
X11907976Y-12786452D02*
X11888928Y-12795976D01*
X11888928Y-12795976D02*
X11841309Y-12795976D01*
X11841309Y-12795976D02*
X11822262Y-12786452D01*
X11822262Y-12786452D02*
X11812738Y-12767405D01*
X11812738Y-12767405D02*
X11812738Y-12748357D01*
X11812738Y-12748357D02*
X11822262Y-12729309D01*
X11822262Y-12729309D02*
X11841309Y-12719786D01*
X11841309Y-12719786D02*
X11888928Y-12719786D01*
X11888928Y-12719786D02*
X11907976Y-12710262D01*
X12003214Y-12662643D02*
X12003214Y-12862643D01*
X12003214Y-12672167D02*
X12022262Y-12662643D01*
X12022262Y-12662643D02*
X12060357Y-12662643D01*
X12060357Y-12662643D02*
X12079405Y-12672167D01*
X12079405Y-12672167D02*
X12088928Y-12681690D01*
X12088928Y-12681690D02*
X12098452Y-12700738D01*
X12098452Y-12700738D02*
X12098452Y-12757881D01*
X12098452Y-12757881D02*
X12088928Y-12776928D01*
X12088928Y-12776928D02*
X12079405Y-12786452D01*
X12079405Y-12786452D02*
X12060357Y-12795976D01*
X12060357Y-12795976D02*
X12022262Y-12795976D01*
X12022262Y-12795976D02*
X12003214Y-12786452D01*
X12184167Y-12776928D02*
X12193690Y-12786452D01*
X12193690Y-12786452D02*
X12184167Y-12795976D01*
X12184167Y-12795976D02*
X12174643Y-12786452D01*
X12174643Y-12786452D02*
X12184167Y-12776928D01*
X12184167Y-12776928D02*
X12184167Y-12795976D01*
X12184167Y-12672167D02*
X12193690Y-12681690D01*
X12193690Y-12681690D02*
X12184167Y-12691214D01*
X12184167Y-12691214D02*
X12174643Y-12681690D01*
X12174643Y-12681690D02*
X12184167Y-12672167D01*
X12184167Y-12672167D02*
X12184167Y-12691214D01*
D12*
X10537500Y-13112500D02*
X10597500Y-13172500D01*
X10597500Y-13112500D02*
X10537500Y-13172500D01*
D11*
X10883214Y-13015976D02*
X10902262Y-13015976D01*
X10902262Y-13015976D02*
X10921310Y-13025500D01*
X10921310Y-13025500D02*
X10930833Y-13035024D01*
X10930833Y-13035024D02*
X10940357Y-13054071D01*
X10940357Y-13054071D02*
X10949881Y-13092167D01*
X10949881Y-13092167D02*
X10949881Y-13139786D01*
X10949881Y-13139786D02*
X10940357Y-13177881D01*
X10940357Y-13177881D02*
X10930833Y-13196928D01*
X10930833Y-13196928D02*
X10921310Y-13206452D01*
X10921310Y-13206452D02*
X10902262Y-13215976D01*
X10902262Y-13215976D02*
X10883214Y-13215976D01*
X10883214Y-13215976D02*
X10864167Y-13206452D01*
X10864167Y-13206452D02*
X10854643Y-13196928D01*
X10854643Y-13196928D02*
X10845119Y-13177881D01*
X10845119Y-13177881D02*
X10835595Y-13139786D01*
X10835595Y-13139786D02*
X10835595Y-13092167D01*
X10835595Y-13092167D02*
X10845119Y-13054071D01*
X10845119Y-13054071D02*
X10854643Y-13035024D01*
X10854643Y-13035024D02*
X10864167Y-13025500D01*
X10864167Y-13025500D02*
X10883214Y-13015976D01*
X11035595Y-13196928D02*
X11045119Y-13206452D01*
X11045119Y-13206452D02*
X11035595Y-13215976D01*
X11035595Y-13215976D02*
X11026071Y-13206452D01*
X11026071Y-13206452D02*
X11035595Y-13196928D01*
X11035595Y-13196928D02*
X11035595Y-13215976D01*
X11216548Y-13015976D02*
X11178452Y-13015976D01*
X11178452Y-13015976D02*
X11159405Y-13025500D01*
X11159405Y-13025500D02*
X11149881Y-13035024D01*
X11149881Y-13035024D02*
X11130833Y-13063595D01*
X11130833Y-13063595D02*
X11121310Y-13101690D01*
X11121310Y-13101690D02*
X11121310Y-13177881D01*
X11121310Y-13177881D02*
X11130833Y-13196928D01*
X11130833Y-13196928D02*
X11140357Y-13206452D01*
X11140357Y-13206452D02*
X11159405Y-13215976D01*
X11159405Y-13215976D02*
X11197500Y-13215976D01*
X11197500Y-13215976D02*
X11216548Y-13206452D01*
X11216548Y-13206452D02*
X11226071Y-13196928D01*
X11226071Y-13196928D02*
X11235595Y-13177881D01*
X11235595Y-13177881D02*
X11235595Y-13130262D01*
X11235595Y-13130262D02*
X11226071Y-13111214D01*
X11226071Y-13111214D02*
X11216548Y-13101690D01*
X11216548Y-13101690D02*
X11197500Y-13092167D01*
X11197500Y-13092167D02*
X11159405Y-13092167D01*
X11159405Y-13092167D02*
X11140357Y-13101690D01*
X11140357Y-13101690D02*
X11130833Y-13111214D01*
X11130833Y-13111214D02*
X11121310Y-13130262D01*
X11359405Y-13015976D02*
X11378452Y-13015976D01*
X11378452Y-13015976D02*
X11397500Y-13025500D01*
X11397500Y-13025500D02*
X11407024Y-13035024D01*
X11407024Y-13035024D02*
X11416548Y-13054071D01*
X11416548Y-13054071D02*
X11426071Y-13092167D01*
X11426071Y-13092167D02*
X11426071Y-13139786D01*
X11426071Y-13139786D02*
X11416548Y-13177881D01*
X11416548Y-13177881D02*
X11407024Y-13196928D01*
X11407024Y-13196928D02*
X11397500Y-13206452D01*
X11397500Y-13206452D02*
X11378452Y-13215976D01*
X11378452Y-13215976D02*
X11359405Y-13215976D01*
X11359405Y-13215976D02*
X11340357Y-13206452D01*
X11340357Y-13206452D02*
X11330833Y-13196928D01*
X11330833Y-13196928D02*
X11321309Y-13177881D01*
X11321309Y-13177881D02*
X11311786Y-13139786D01*
X11311786Y-13139786D02*
X11311786Y-13092167D01*
X11311786Y-13092167D02*
X11321309Y-13054071D01*
X11321309Y-13054071D02*
X11330833Y-13035024D01*
X11330833Y-13035024D02*
X11340357Y-13025500D01*
X11340357Y-13025500D02*
X11359405Y-13015976D01*
X11549881Y-13015976D02*
X11568929Y-13015976D01*
X11568929Y-13015976D02*
X11587976Y-13025500D01*
X11587976Y-13025500D02*
X11597500Y-13035024D01*
X11597500Y-13035024D02*
X11607024Y-13054071D01*
X11607024Y-13054071D02*
X11616548Y-13092167D01*
X11616548Y-13092167D02*
X11616548Y-13139786D01*
X11616548Y-13139786D02*
X11607024Y-13177881D01*
X11607024Y-13177881D02*
X11597500Y-13196928D01*
X11597500Y-13196928D02*
X11587976Y-13206452D01*
X11587976Y-13206452D02*
X11568929Y-13215976D01*
X11568929Y-13215976D02*
X11549881Y-13215976D01*
X11549881Y-13215976D02*
X11530833Y-13206452D01*
X11530833Y-13206452D02*
X11521309Y-13196928D01*
X11521309Y-13196928D02*
X11511786Y-13177881D01*
X11511786Y-13177881D02*
X11502262Y-13139786D01*
X11502262Y-13139786D02*
X11502262Y-13092167D01*
X11502262Y-13092167D02*
X11511786Y-13054071D01*
X11511786Y-13054071D02*
X11521309Y-13035024D01*
X11521309Y-13035024D02*
X11530833Y-13025500D01*
X11530833Y-13025500D02*
X11549881Y-13015976D01*
X11702262Y-13215976D02*
X11702262Y-13082643D01*
X11702262Y-13101690D02*
X11711786Y-13092167D01*
X11711786Y-13092167D02*
X11730833Y-13082643D01*
X11730833Y-13082643D02*
X11759405Y-13082643D01*
X11759405Y-13082643D02*
X11778452Y-13092167D01*
X11778452Y-13092167D02*
X11787976Y-13111214D01*
X11787976Y-13111214D02*
X11787976Y-13215976D01*
X11787976Y-13111214D02*
X11797500Y-13092167D01*
X11797500Y-13092167D02*
X11816548Y-13082643D01*
X11816548Y-13082643D02*
X11845119Y-13082643D01*
X11845119Y-13082643D02*
X11864167Y-13092167D01*
X11864167Y-13092167D02*
X11873690Y-13111214D01*
X11873690Y-13111214D02*
X11873690Y-13215976D01*
X11968929Y-13215976D02*
X11968929Y-13082643D01*
X11968929Y-13101690D02*
X11978452Y-13092167D01*
X11978452Y-13092167D02*
X11997500Y-13082643D01*
X11997500Y-13082643D02*
X12026071Y-13082643D01*
X12026071Y-13082643D02*
X12045119Y-13092167D01*
X12045119Y-13092167D02*
X12054643Y-13111214D01*
X12054643Y-13111214D02*
X12054643Y-13215976D01*
X12054643Y-13111214D02*
X12064167Y-13092167D01*
X12064167Y-13092167D02*
X12083214Y-13082643D01*
X12083214Y-13082643D02*
X12111786Y-13082643D01*
X12111786Y-13082643D02*
X12130833Y-13092167D01*
X12130833Y-13092167D02*
X12140357Y-13111214D01*
X12140357Y-13111214D02*
X12140357Y-13215976D01*
X12498452Y-13006452D02*
X12327024Y-13263595D01*
X12723214Y-13015976D02*
X12742262Y-13015976D01*
X12742262Y-13015976D02*
X12761310Y-13025500D01*
X12761310Y-13025500D02*
X12770833Y-13035024D01*
X12770833Y-13035024D02*
X12780357Y-13054071D01*
X12780357Y-13054071D02*
X12789881Y-13092167D01*
X12789881Y-13092167D02*
X12789881Y-13139786D01*
X12789881Y-13139786D02*
X12780357Y-13177881D01*
X12780357Y-13177881D02*
X12770833Y-13196928D01*
X12770833Y-13196928D02*
X12761310Y-13206452D01*
X12761310Y-13206452D02*
X12742262Y-13215976D01*
X12742262Y-13215976D02*
X12723214Y-13215976D01*
X12723214Y-13215976D02*
X12704167Y-13206452D01*
X12704167Y-13206452D02*
X12694643Y-13196928D01*
X12694643Y-13196928D02*
X12685119Y-13177881D01*
X12685119Y-13177881D02*
X12675595Y-13139786D01*
X12675595Y-13139786D02*
X12675595Y-13092167D01*
X12675595Y-13092167D02*
X12685119Y-13054071D01*
X12685119Y-13054071D02*
X12694643Y-13035024D01*
X12694643Y-13035024D02*
X12704167Y-13025500D01*
X12704167Y-13025500D02*
X12723214Y-13015976D01*
X12875595Y-13196928D02*
X12885119Y-13206452D01*
X12885119Y-13206452D02*
X12875595Y-13215976D01*
X12875595Y-13215976D02*
X12866071Y-13206452D01*
X12866071Y-13206452D02*
X12875595Y-13196928D01*
X12875595Y-13196928D02*
X12875595Y-13215976D01*
X13008929Y-13015976D02*
X13027976Y-13015976D01*
X13027976Y-13015976D02*
X13047024Y-13025500D01*
X13047024Y-13025500D02*
X13056548Y-13035024D01*
X13056548Y-13035024D02*
X13066071Y-13054071D01*
X13066071Y-13054071D02*
X13075595Y-13092167D01*
X13075595Y-13092167D02*
X13075595Y-13139786D01*
X13075595Y-13139786D02*
X13066071Y-13177881D01*
X13066071Y-13177881D02*
X13056548Y-13196928D01*
X13056548Y-13196928D02*
X13047024Y-13206452D01*
X13047024Y-13206452D02*
X13027976Y-13215976D01*
X13027976Y-13215976D02*
X13008929Y-13215976D01*
X13008929Y-13215976D02*
X12989881Y-13206452D01*
X12989881Y-13206452D02*
X12980357Y-13196928D01*
X12980357Y-13196928D02*
X12970833Y-13177881D01*
X12970833Y-13177881D02*
X12961310Y-13139786D01*
X12961310Y-13139786D02*
X12961310Y-13092167D01*
X12961310Y-13092167D02*
X12970833Y-13054071D01*
X12970833Y-13054071D02*
X12980357Y-13035024D01*
X12980357Y-13035024D02*
X12989881Y-13025500D01*
X12989881Y-13025500D02*
X13008929Y-13015976D01*
X13151786Y-13035024D02*
X13161310Y-13025500D01*
X13161310Y-13025500D02*
X13180357Y-13015976D01*
X13180357Y-13015976D02*
X13227976Y-13015976D01*
X13227976Y-13015976D02*
X13247024Y-13025500D01*
X13247024Y-13025500D02*
X13256548Y-13035024D01*
X13256548Y-13035024D02*
X13266071Y-13054071D01*
X13266071Y-13054071D02*
X13266071Y-13073119D01*
X13266071Y-13073119D02*
X13256548Y-13101690D01*
X13256548Y-13101690D02*
X13142262Y-13215976D01*
X13142262Y-13215976D02*
X13266071Y-13215976D01*
X13332738Y-13015976D02*
X13456548Y-13015976D01*
X13456548Y-13015976D02*
X13389881Y-13092167D01*
X13389881Y-13092167D02*
X13418452Y-13092167D01*
X13418452Y-13092167D02*
X13437500Y-13101690D01*
X13437500Y-13101690D02*
X13447024Y-13111214D01*
X13447024Y-13111214D02*
X13456548Y-13130262D01*
X13456548Y-13130262D02*
X13456548Y-13177881D01*
X13456548Y-13177881D02*
X13447024Y-13196928D01*
X13447024Y-13196928D02*
X13437500Y-13206452D01*
X13437500Y-13206452D02*
X13418452Y-13215976D01*
X13418452Y-13215976D02*
X13361310Y-13215976D01*
X13361310Y-13215976D02*
X13342262Y-13206452D01*
X13342262Y-13206452D02*
X13332738Y-13196928D01*
X13627976Y-13015976D02*
X13589881Y-13015976D01*
X13589881Y-13015976D02*
X13570833Y-13025500D01*
X13570833Y-13025500D02*
X13561310Y-13035024D01*
X13561310Y-13035024D02*
X13542262Y-13063595D01*
X13542262Y-13063595D02*
X13532738Y-13101690D01*
X13532738Y-13101690D02*
X13532738Y-13177881D01*
X13532738Y-13177881D02*
X13542262Y-13196928D01*
X13542262Y-13196928D02*
X13551786Y-13206452D01*
X13551786Y-13206452D02*
X13570833Y-13215976D01*
X13570833Y-13215976D02*
X13608929Y-13215976D01*
X13608929Y-13215976D02*
X13627976Y-13206452D01*
X13627976Y-13206452D02*
X13637500Y-13196928D01*
X13637500Y-13196928D02*
X13647024Y-13177881D01*
X13647024Y-13177881D02*
X13647024Y-13130262D01*
X13647024Y-13130262D02*
X13637500Y-13111214D01*
X13637500Y-13111214D02*
X13627976Y-13101690D01*
X13627976Y-13101690D02*
X13608929Y-13092167D01*
X13608929Y-13092167D02*
X13570833Y-13092167D01*
X13570833Y-13092167D02*
X13551786Y-13101690D01*
X13551786Y-13101690D02*
X13542262Y-13111214D01*
X13542262Y-13111214D02*
X13532738Y-13130262D01*
X13723214Y-13015976D02*
X13723214Y-13054071D01*
X13799405Y-13015976D02*
X13799405Y-13054071D01*
X14062262Y-13292167D02*
X14052738Y-13282643D01*
X14052738Y-13282643D02*
X14033691Y-13254071D01*
X14033691Y-13254071D02*
X14024167Y-13235024D01*
X14024167Y-13235024D02*
X14014643Y-13206452D01*
X14014643Y-13206452D02*
X14005119Y-13158833D01*
X14005119Y-13158833D02*
X14005119Y-13120738D01*
X14005119Y-13120738D02*
X14014643Y-13073119D01*
X14014643Y-13073119D02*
X14024167Y-13044548D01*
X14024167Y-13044548D02*
X14033691Y-13025500D01*
X14033691Y-13025500D02*
X14052738Y-12996928D01*
X14052738Y-12996928D02*
X14062262Y-12987405D01*
X14128929Y-13035024D02*
X14138452Y-13025500D01*
X14138452Y-13025500D02*
X14157500Y-13015976D01*
X14157500Y-13015976D02*
X14205119Y-13015976D01*
X14205119Y-13015976D02*
X14224167Y-13025500D01*
X14224167Y-13025500D02*
X14233691Y-13035024D01*
X14233691Y-13035024D02*
X14243214Y-13054071D01*
X14243214Y-13054071D02*
X14243214Y-13073119D01*
X14243214Y-13073119D02*
X14233691Y-13101690D01*
X14233691Y-13101690D02*
X14119405Y-13215976D01*
X14119405Y-13215976D02*
X14243214Y-13215976D01*
X14448929Y-13215976D02*
X14448929Y-13015976D01*
X14534643Y-13215976D02*
X14534643Y-13111214D01*
X14534643Y-13111214D02*
X14525119Y-13092167D01*
X14525119Y-13092167D02*
X14506072Y-13082643D01*
X14506072Y-13082643D02*
X14477500Y-13082643D01*
X14477500Y-13082643D02*
X14458452Y-13092167D01*
X14458452Y-13092167D02*
X14448929Y-13101690D01*
X14658452Y-13215976D02*
X14639405Y-13206452D01*
X14639405Y-13206452D02*
X14629881Y-13196928D01*
X14629881Y-13196928D02*
X14620357Y-13177881D01*
X14620357Y-13177881D02*
X14620357Y-13120738D01*
X14620357Y-13120738D02*
X14629881Y-13101690D01*
X14629881Y-13101690D02*
X14639405Y-13092167D01*
X14639405Y-13092167D02*
X14658452Y-13082643D01*
X14658452Y-13082643D02*
X14687024Y-13082643D01*
X14687024Y-13082643D02*
X14706072Y-13092167D01*
X14706072Y-13092167D02*
X14715595Y-13101690D01*
X14715595Y-13101690D02*
X14725119Y-13120738D01*
X14725119Y-13120738D02*
X14725119Y-13177881D01*
X14725119Y-13177881D02*
X14715595Y-13196928D01*
X14715595Y-13196928D02*
X14706072Y-13206452D01*
X14706072Y-13206452D02*
X14687024Y-13215976D01*
X14687024Y-13215976D02*
X14658452Y-13215976D01*
X14839405Y-13215976D02*
X14820357Y-13206452D01*
X14820357Y-13206452D02*
X14810833Y-13187405D01*
X14810833Y-13187405D02*
X14810833Y-13015976D01*
X14991786Y-13206452D02*
X14972738Y-13215976D01*
X14972738Y-13215976D02*
X14934643Y-13215976D01*
X14934643Y-13215976D02*
X14915595Y-13206452D01*
X14915595Y-13206452D02*
X14906072Y-13187405D01*
X14906072Y-13187405D02*
X14906072Y-13111214D01*
X14906072Y-13111214D02*
X14915595Y-13092167D01*
X14915595Y-13092167D02*
X14934643Y-13082643D01*
X14934643Y-13082643D02*
X14972738Y-13082643D01*
X14972738Y-13082643D02*
X14991786Y-13092167D01*
X14991786Y-13092167D02*
X15001310Y-13111214D01*
X15001310Y-13111214D02*
X15001310Y-13130262D01*
X15001310Y-13130262D02*
X14906072Y-13149309D01*
X15077500Y-13206452D02*
X15096548Y-13215976D01*
X15096548Y-13215976D02*
X15134643Y-13215976D01*
X15134643Y-13215976D02*
X15153691Y-13206452D01*
X15153691Y-13206452D02*
X15163214Y-13187405D01*
X15163214Y-13187405D02*
X15163214Y-13177881D01*
X15163214Y-13177881D02*
X15153691Y-13158833D01*
X15153691Y-13158833D02*
X15134643Y-13149309D01*
X15134643Y-13149309D02*
X15106072Y-13149309D01*
X15106072Y-13149309D02*
X15087024Y-13139786D01*
X15087024Y-13139786D02*
X15077500Y-13120738D01*
X15077500Y-13120738D02*
X15077500Y-13111214D01*
X15077500Y-13111214D02*
X15087024Y-13092167D01*
X15087024Y-13092167D02*
X15106072Y-13082643D01*
X15106072Y-13082643D02*
X15134643Y-13082643D01*
X15134643Y-13082643D02*
X15153691Y-13092167D01*
X15229881Y-13292167D02*
X15239405Y-13282643D01*
X15239405Y-13282643D02*
X15258453Y-13254071D01*
X15258453Y-13254071D02*
X15267976Y-13235024D01*
X15267976Y-13235024D02*
X15277500Y-13206452D01*
X15277500Y-13206452D02*
X15287024Y-13158833D01*
X15287024Y-13158833D02*
X15287024Y-13120738D01*
X15287024Y-13120738D02*
X15277500Y-13073119D01*
X15277500Y-13073119D02*
X15267976Y-13044548D01*
X15267976Y-13044548D02*
X15258453Y-13025500D01*
X15258453Y-13025500D02*
X15239405Y-12996928D01*
X15239405Y-12996928D02*
X15229881Y-12987405D01*
X15559405Y-13292167D02*
X15549881Y-13282643D01*
X15549881Y-13282643D02*
X15530833Y-13254071D01*
X15530833Y-13254071D02*
X15521310Y-13235024D01*
X15521310Y-13235024D02*
X15511786Y-13206452D01*
X15511786Y-13206452D02*
X15502262Y-13158833D01*
X15502262Y-13158833D02*
X15502262Y-13120738D01*
X15502262Y-13120738D02*
X15511786Y-13073119D01*
X15511786Y-13073119D02*
X15521310Y-13044548D01*
X15521310Y-13044548D02*
X15530833Y-13025500D01*
X15530833Y-13025500D02*
X15549881Y-12996928D01*
X15549881Y-12996928D02*
X15559405Y-12987405D01*
X15635595Y-13082643D02*
X15635595Y-13215976D01*
X15635595Y-13101690D02*
X15645119Y-13092167D01*
X15645119Y-13092167D02*
X15664167Y-13082643D01*
X15664167Y-13082643D02*
X15692738Y-13082643D01*
X15692738Y-13082643D02*
X15711786Y-13092167D01*
X15711786Y-13092167D02*
X15721310Y-13111214D01*
X15721310Y-13111214D02*
X15721310Y-13215976D01*
X15845119Y-13215976D02*
X15826072Y-13206452D01*
X15826072Y-13206452D02*
X15816548Y-13196928D01*
X15816548Y-13196928D02*
X15807024Y-13177881D01*
X15807024Y-13177881D02*
X15807024Y-13120738D01*
X15807024Y-13120738D02*
X15816548Y-13101690D01*
X15816548Y-13101690D02*
X15826072Y-13092167D01*
X15826072Y-13092167D02*
X15845119Y-13082643D01*
X15845119Y-13082643D02*
X15873691Y-13082643D01*
X15873691Y-13082643D02*
X15892738Y-13092167D01*
X15892738Y-13092167D02*
X15902262Y-13101690D01*
X15902262Y-13101690D02*
X15911786Y-13120738D01*
X15911786Y-13120738D02*
X15911786Y-13177881D01*
X15911786Y-13177881D02*
X15902262Y-13196928D01*
X15902262Y-13196928D02*
X15892738Y-13206452D01*
X15892738Y-13206452D02*
X15873691Y-13215976D01*
X15873691Y-13215976D02*
X15845119Y-13215976D01*
X15968929Y-13082643D02*
X16045119Y-13082643D01*
X15997500Y-13015976D02*
X15997500Y-13187405D01*
X15997500Y-13187405D02*
X16007024Y-13206452D01*
X16007024Y-13206452D02*
X16026072Y-13215976D01*
X16026072Y-13215976D02*
X16045119Y-13215976D01*
X16231786Y-13082643D02*
X16231786Y-13282643D01*
X16231786Y-13092167D02*
X16250833Y-13082643D01*
X16250833Y-13082643D02*
X16288929Y-13082643D01*
X16288929Y-13082643D02*
X16307976Y-13092167D01*
X16307976Y-13092167D02*
X16317500Y-13101690D01*
X16317500Y-13101690D02*
X16327024Y-13120738D01*
X16327024Y-13120738D02*
X16327024Y-13177881D01*
X16327024Y-13177881D02*
X16317500Y-13196928D01*
X16317500Y-13196928D02*
X16307976Y-13206452D01*
X16307976Y-13206452D02*
X16288929Y-13215976D01*
X16288929Y-13215976D02*
X16250833Y-13215976D01*
X16250833Y-13215976D02*
X16231786Y-13206452D01*
X16441310Y-13215976D02*
X16422262Y-13206452D01*
X16422262Y-13206452D02*
X16412738Y-13187405D01*
X16412738Y-13187405D02*
X16412738Y-13015976D01*
X16603214Y-13215976D02*
X16603214Y-13111214D01*
X16603214Y-13111214D02*
X16593691Y-13092167D01*
X16593691Y-13092167D02*
X16574643Y-13082643D01*
X16574643Y-13082643D02*
X16536548Y-13082643D01*
X16536548Y-13082643D02*
X16517500Y-13092167D01*
X16603214Y-13206452D02*
X16584167Y-13215976D01*
X16584167Y-13215976D02*
X16536548Y-13215976D01*
X16536548Y-13215976D02*
X16517500Y-13206452D01*
X16517500Y-13206452D02*
X16507976Y-13187405D01*
X16507976Y-13187405D02*
X16507976Y-13168357D01*
X16507976Y-13168357D02*
X16517500Y-13149309D01*
X16517500Y-13149309D02*
X16536548Y-13139786D01*
X16536548Y-13139786D02*
X16584167Y-13139786D01*
X16584167Y-13139786D02*
X16603214Y-13130262D01*
X16669881Y-13082643D02*
X16746072Y-13082643D01*
X16698453Y-13015976D02*
X16698453Y-13187405D01*
X16698453Y-13187405D02*
X16707976Y-13206452D01*
X16707976Y-13206452D02*
X16727024Y-13215976D01*
X16727024Y-13215976D02*
X16746072Y-13215976D01*
X16888929Y-13206452D02*
X16869881Y-13215976D01*
X16869881Y-13215976D02*
X16831786Y-13215976D01*
X16831786Y-13215976D02*
X16812738Y-13206452D01*
X16812738Y-13206452D02*
X16803215Y-13187405D01*
X16803215Y-13187405D02*
X16803215Y-13111214D01*
X16803215Y-13111214D02*
X16812738Y-13092167D01*
X16812738Y-13092167D02*
X16831786Y-13082643D01*
X16831786Y-13082643D02*
X16869881Y-13082643D01*
X16869881Y-13082643D02*
X16888929Y-13092167D01*
X16888929Y-13092167D02*
X16898453Y-13111214D01*
X16898453Y-13111214D02*
X16898453Y-13130262D01*
X16898453Y-13130262D02*
X16803215Y-13149309D01*
X17069881Y-13215976D02*
X17069881Y-13015976D01*
X17069881Y-13206452D02*
X17050834Y-13215976D01*
X17050834Y-13215976D02*
X17012738Y-13215976D01*
X17012738Y-13215976D02*
X16993691Y-13206452D01*
X16993691Y-13206452D02*
X16984167Y-13196928D01*
X16984167Y-13196928D02*
X16974643Y-13177881D01*
X16974643Y-13177881D02*
X16974643Y-13120738D01*
X16974643Y-13120738D02*
X16984167Y-13101690D01*
X16984167Y-13101690D02*
X16993691Y-13092167D01*
X16993691Y-13092167D02*
X17012738Y-13082643D01*
X17012738Y-13082643D02*
X17050834Y-13082643D01*
X17050834Y-13082643D02*
X17069881Y-13092167D01*
X17146072Y-13292167D02*
X17155596Y-13282643D01*
X17155596Y-13282643D02*
X17174643Y-13254071D01*
X17174643Y-13254071D02*
X17184167Y-13235024D01*
X17184167Y-13235024D02*
X17193691Y-13206452D01*
X17193691Y-13206452D02*
X17203215Y-13158833D01*
X17203215Y-13158833D02*
X17203215Y-13120738D01*
X17203215Y-13120738D02*
X17193691Y-13073119D01*
X17193691Y-13073119D02*
X17184167Y-13044548D01*
X17184167Y-13044548D02*
X17174643Y-13025500D01*
X17174643Y-13025500D02*
X17155596Y-12996928D01*
X17155596Y-12996928D02*
X17146072Y-12987405D01*
X10597500Y-13406500D02*
G75*
G03*
X10597500Y-13406500I-100000J0D01*
G01*
X10826071Y-13279976D02*
X10949881Y-13279976D01*
X10949881Y-13279976D02*
X10883214Y-13356167D01*
X10883214Y-13356167D02*
X10911786Y-13356167D01*
X10911786Y-13356167D02*
X10930833Y-13365690D01*
X10930833Y-13365690D02*
X10940357Y-13375214D01*
X10940357Y-13375214D02*
X10949881Y-13394262D01*
X10949881Y-13394262D02*
X10949881Y-13441881D01*
X10949881Y-13441881D02*
X10940357Y-13460928D01*
X10940357Y-13460928D02*
X10930833Y-13470452D01*
X10930833Y-13470452D02*
X10911786Y-13479976D01*
X10911786Y-13479976D02*
X10854643Y-13479976D01*
X10854643Y-13479976D02*
X10835595Y-13470452D01*
X10835595Y-13470452D02*
X10826071Y-13460928D01*
X11035595Y-13460928D02*
X11045119Y-13470452D01*
X11045119Y-13470452D02*
X11035595Y-13479976D01*
X11035595Y-13479976D02*
X11026071Y-13470452D01*
X11026071Y-13470452D02*
X11035595Y-13460928D01*
X11035595Y-13460928D02*
X11035595Y-13479976D01*
X11121310Y-13299024D02*
X11130833Y-13289500D01*
X11130833Y-13289500D02*
X11149881Y-13279976D01*
X11149881Y-13279976D02*
X11197500Y-13279976D01*
X11197500Y-13279976D02*
X11216548Y-13289500D01*
X11216548Y-13289500D02*
X11226071Y-13299024D01*
X11226071Y-13299024D02*
X11235595Y-13318071D01*
X11235595Y-13318071D02*
X11235595Y-13337119D01*
X11235595Y-13337119D02*
X11226071Y-13365690D01*
X11226071Y-13365690D02*
X11111786Y-13479976D01*
X11111786Y-13479976D02*
X11235595Y-13479976D01*
X11359405Y-13279976D02*
X11378452Y-13279976D01*
X11378452Y-13279976D02*
X11397500Y-13289500D01*
X11397500Y-13289500D02*
X11407024Y-13299024D01*
X11407024Y-13299024D02*
X11416548Y-13318071D01*
X11416548Y-13318071D02*
X11426071Y-13356167D01*
X11426071Y-13356167D02*
X11426071Y-13403786D01*
X11426071Y-13403786D02*
X11416548Y-13441881D01*
X11416548Y-13441881D02*
X11407024Y-13460928D01*
X11407024Y-13460928D02*
X11397500Y-13470452D01*
X11397500Y-13470452D02*
X11378452Y-13479976D01*
X11378452Y-13479976D02*
X11359405Y-13479976D01*
X11359405Y-13479976D02*
X11340357Y-13470452D01*
X11340357Y-13470452D02*
X11330833Y-13460928D01*
X11330833Y-13460928D02*
X11321309Y-13441881D01*
X11321309Y-13441881D02*
X11311786Y-13403786D01*
X11311786Y-13403786D02*
X11311786Y-13356167D01*
X11311786Y-13356167D02*
X11321309Y-13318071D01*
X11321309Y-13318071D02*
X11330833Y-13299024D01*
X11330833Y-13299024D02*
X11340357Y-13289500D01*
X11340357Y-13289500D02*
X11359405Y-13279976D01*
X11549881Y-13279976D02*
X11568929Y-13279976D01*
X11568929Y-13279976D02*
X11587976Y-13289500D01*
X11587976Y-13289500D02*
X11597500Y-13299024D01*
X11597500Y-13299024D02*
X11607024Y-13318071D01*
X11607024Y-13318071D02*
X11616548Y-13356167D01*
X11616548Y-13356167D02*
X11616548Y-13403786D01*
X11616548Y-13403786D02*
X11607024Y-13441881D01*
X11607024Y-13441881D02*
X11597500Y-13460928D01*
X11597500Y-13460928D02*
X11587976Y-13470452D01*
X11587976Y-13470452D02*
X11568929Y-13479976D01*
X11568929Y-13479976D02*
X11549881Y-13479976D01*
X11549881Y-13479976D02*
X11530833Y-13470452D01*
X11530833Y-13470452D02*
X11521309Y-13460928D01*
X11521309Y-13460928D02*
X11511786Y-13441881D01*
X11511786Y-13441881D02*
X11502262Y-13403786D01*
X11502262Y-13403786D02*
X11502262Y-13356167D01*
X11502262Y-13356167D02*
X11511786Y-13318071D01*
X11511786Y-13318071D02*
X11521309Y-13299024D01*
X11521309Y-13299024D02*
X11530833Y-13289500D01*
X11530833Y-13289500D02*
X11549881Y-13279976D01*
X11702262Y-13479976D02*
X11702262Y-13346643D01*
X11702262Y-13365690D02*
X11711786Y-13356167D01*
X11711786Y-13356167D02*
X11730833Y-13346643D01*
X11730833Y-13346643D02*
X11759405Y-13346643D01*
X11759405Y-13346643D02*
X11778452Y-13356167D01*
X11778452Y-13356167D02*
X11787976Y-13375214D01*
X11787976Y-13375214D02*
X11787976Y-13479976D01*
X11787976Y-13375214D02*
X11797500Y-13356167D01*
X11797500Y-13356167D02*
X11816548Y-13346643D01*
X11816548Y-13346643D02*
X11845119Y-13346643D01*
X11845119Y-13346643D02*
X11864167Y-13356167D01*
X11864167Y-13356167D02*
X11873690Y-13375214D01*
X11873690Y-13375214D02*
X11873690Y-13479976D01*
X11968929Y-13479976D02*
X11968929Y-13346643D01*
X11968929Y-13365690D02*
X11978452Y-13356167D01*
X11978452Y-13356167D02*
X11997500Y-13346643D01*
X11997500Y-13346643D02*
X12026071Y-13346643D01*
X12026071Y-13346643D02*
X12045119Y-13356167D01*
X12045119Y-13356167D02*
X12054643Y-13375214D01*
X12054643Y-13375214D02*
X12054643Y-13479976D01*
X12054643Y-13375214D02*
X12064167Y-13356167D01*
X12064167Y-13356167D02*
X12083214Y-13346643D01*
X12083214Y-13346643D02*
X12111786Y-13346643D01*
X12111786Y-13346643D02*
X12130833Y-13356167D01*
X12130833Y-13356167D02*
X12140357Y-13375214D01*
X12140357Y-13375214D02*
X12140357Y-13479976D01*
X12498452Y-13270452D02*
X12327024Y-13527595D01*
X12723214Y-13279976D02*
X12742262Y-13279976D01*
X12742262Y-13279976D02*
X12761310Y-13289500D01*
X12761310Y-13289500D02*
X12770833Y-13299024D01*
X12770833Y-13299024D02*
X12780357Y-13318071D01*
X12780357Y-13318071D02*
X12789881Y-13356167D01*
X12789881Y-13356167D02*
X12789881Y-13403786D01*
X12789881Y-13403786D02*
X12780357Y-13441881D01*
X12780357Y-13441881D02*
X12770833Y-13460928D01*
X12770833Y-13460928D02*
X12761310Y-13470452D01*
X12761310Y-13470452D02*
X12742262Y-13479976D01*
X12742262Y-13479976D02*
X12723214Y-13479976D01*
X12723214Y-13479976D02*
X12704167Y-13470452D01*
X12704167Y-13470452D02*
X12694643Y-13460928D01*
X12694643Y-13460928D02*
X12685119Y-13441881D01*
X12685119Y-13441881D02*
X12675595Y-13403786D01*
X12675595Y-13403786D02*
X12675595Y-13356167D01*
X12675595Y-13356167D02*
X12685119Y-13318071D01*
X12685119Y-13318071D02*
X12694643Y-13299024D01*
X12694643Y-13299024D02*
X12704167Y-13289500D01*
X12704167Y-13289500D02*
X12723214Y-13279976D01*
X12875595Y-13460928D02*
X12885119Y-13470452D01*
X12885119Y-13470452D02*
X12875595Y-13479976D01*
X12875595Y-13479976D02*
X12866071Y-13470452D01*
X12866071Y-13470452D02*
X12875595Y-13460928D01*
X12875595Y-13460928D02*
X12875595Y-13479976D01*
X13075595Y-13479976D02*
X12961310Y-13479976D01*
X13018452Y-13479976D02*
X13018452Y-13279976D01*
X13018452Y-13279976D02*
X12999405Y-13308548D01*
X12999405Y-13308548D02*
X12980357Y-13327595D01*
X12980357Y-13327595D02*
X12961310Y-13337119D01*
X13151786Y-13299024D02*
X13161310Y-13289500D01*
X13161310Y-13289500D02*
X13180357Y-13279976D01*
X13180357Y-13279976D02*
X13227976Y-13279976D01*
X13227976Y-13279976D02*
X13247024Y-13289500D01*
X13247024Y-13289500D02*
X13256548Y-13299024D01*
X13256548Y-13299024D02*
X13266071Y-13318071D01*
X13266071Y-13318071D02*
X13266071Y-13337119D01*
X13266071Y-13337119D02*
X13256548Y-13365690D01*
X13256548Y-13365690D02*
X13142262Y-13479976D01*
X13142262Y-13479976D02*
X13266071Y-13479976D01*
X13437500Y-13279976D02*
X13399405Y-13279976D01*
X13399405Y-13279976D02*
X13380357Y-13289500D01*
X13380357Y-13289500D02*
X13370833Y-13299024D01*
X13370833Y-13299024D02*
X13351786Y-13327595D01*
X13351786Y-13327595D02*
X13342262Y-13365690D01*
X13342262Y-13365690D02*
X13342262Y-13441881D01*
X13342262Y-13441881D02*
X13351786Y-13460928D01*
X13351786Y-13460928D02*
X13361310Y-13470452D01*
X13361310Y-13470452D02*
X13380357Y-13479976D01*
X13380357Y-13479976D02*
X13418452Y-13479976D01*
X13418452Y-13479976D02*
X13437500Y-13470452D01*
X13437500Y-13470452D02*
X13447024Y-13460928D01*
X13447024Y-13460928D02*
X13456548Y-13441881D01*
X13456548Y-13441881D02*
X13456548Y-13394262D01*
X13456548Y-13394262D02*
X13447024Y-13375214D01*
X13447024Y-13375214D02*
X13437500Y-13365690D01*
X13437500Y-13365690D02*
X13418452Y-13356167D01*
X13418452Y-13356167D02*
X13380357Y-13356167D01*
X13380357Y-13356167D02*
X13361310Y-13365690D01*
X13361310Y-13365690D02*
X13351786Y-13375214D01*
X13351786Y-13375214D02*
X13342262Y-13394262D01*
X13580357Y-13279976D02*
X13599405Y-13279976D01*
X13599405Y-13279976D02*
X13618452Y-13289500D01*
X13618452Y-13289500D02*
X13627976Y-13299024D01*
X13627976Y-13299024D02*
X13637500Y-13318071D01*
X13637500Y-13318071D02*
X13647024Y-13356167D01*
X13647024Y-13356167D02*
X13647024Y-13403786D01*
X13647024Y-13403786D02*
X13637500Y-13441881D01*
X13637500Y-13441881D02*
X13627976Y-13460928D01*
X13627976Y-13460928D02*
X13618452Y-13470452D01*
X13618452Y-13470452D02*
X13599405Y-13479976D01*
X13599405Y-13479976D02*
X13580357Y-13479976D01*
X13580357Y-13479976D02*
X13561310Y-13470452D01*
X13561310Y-13470452D02*
X13551786Y-13460928D01*
X13551786Y-13460928D02*
X13542262Y-13441881D01*
X13542262Y-13441881D02*
X13532738Y-13403786D01*
X13532738Y-13403786D02*
X13532738Y-13356167D01*
X13532738Y-13356167D02*
X13542262Y-13318071D01*
X13542262Y-13318071D02*
X13551786Y-13299024D01*
X13551786Y-13299024D02*
X13561310Y-13289500D01*
X13561310Y-13289500D02*
X13580357Y-13279976D01*
X13723214Y-13279976D02*
X13723214Y-13318071D01*
X13799405Y-13279976D02*
X13799405Y-13318071D01*
X14062262Y-13556167D02*
X14052738Y-13546643D01*
X14052738Y-13546643D02*
X14033691Y-13518071D01*
X14033691Y-13518071D02*
X14024167Y-13499024D01*
X14024167Y-13499024D02*
X14014643Y-13470452D01*
X14014643Y-13470452D02*
X14005119Y-13422833D01*
X14005119Y-13422833D02*
X14005119Y-13384738D01*
X14005119Y-13384738D02*
X14014643Y-13337119D01*
X14014643Y-13337119D02*
X14024167Y-13308548D01*
X14024167Y-13308548D02*
X14033691Y-13289500D01*
X14033691Y-13289500D02*
X14052738Y-13260928D01*
X14052738Y-13260928D02*
X14062262Y-13251405D01*
X14243214Y-13479976D02*
X14128929Y-13479976D01*
X14186071Y-13479976D02*
X14186071Y-13279976D01*
X14186071Y-13279976D02*
X14167024Y-13308548D01*
X14167024Y-13308548D02*
X14147976Y-13327595D01*
X14147976Y-13327595D02*
X14128929Y-13337119D01*
X14448929Y-13479976D02*
X14448929Y-13279976D01*
X14534643Y-13479976D02*
X14534643Y-13375214D01*
X14534643Y-13375214D02*
X14525119Y-13356167D01*
X14525119Y-13356167D02*
X14506072Y-13346643D01*
X14506072Y-13346643D02*
X14477500Y-13346643D01*
X14477500Y-13346643D02*
X14458452Y-13356167D01*
X14458452Y-13356167D02*
X14448929Y-13365690D01*
X14658452Y-13479976D02*
X14639405Y-13470452D01*
X14639405Y-13470452D02*
X14629881Y-13460928D01*
X14629881Y-13460928D02*
X14620357Y-13441881D01*
X14620357Y-13441881D02*
X14620357Y-13384738D01*
X14620357Y-13384738D02*
X14629881Y-13365690D01*
X14629881Y-13365690D02*
X14639405Y-13356167D01*
X14639405Y-13356167D02*
X14658452Y-13346643D01*
X14658452Y-13346643D02*
X14687024Y-13346643D01*
X14687024Y-13346643D02*
X14706072Y-13356167D01*
X14706072Y-13356167D02*
X14715595Y-13365690D01*
X14715595Y-13365690D02*
X14725119Y-13384738D01*
X14725119Y-13384738D02*
X14725119Y-13441881D01*
X14725119Y-13441881D02*
X14715595Y-13460928D01*
X14715595Y-13460928D02*
X14706072Y-13470452D01*
X14706072Y-13470452D02*
X14687024Y-13479976D01*
X14687024Y-13479976D02*
X14658452Y-13479976D01*
X14839405Y-13479976D02*
X14820357Y-13470452D01*
X14820357Y-13470452D02*
X14810833Y-13451405D01*
X14810833Y-13451405D02*
X14810833Y-13279976D01*
X14991786Y-13470452D02*
X14972738Y-13479976D01*
X14972738Y-13479976D02*
X14934643Y-13479976D01*
X14934643Y-13479976D02*
X14915595Y-13470452D01*
X14915595Y-13470452D02*
X14906072Y-13451405D01*
X14906072Y-13451405D02*
X14906072Y-13375214D01*
X14906072Y-13375214D02*
X14915595Y-13356167D01*
X14915595Y-13356167D02*
X14934643Y-13346643D01*
X14934643Y-13346643D02*
X14972738Y-13346643D01*
X14972738Y-13346643D02*
X14991786Y-13356167D01*
X14991786Y-13356167D02*
X15001310Y-13375214D01*
X15001310Y-13375214D02*
X15001310Y-13394262D01*
X15001310Y-13394262D02*
X14906072Y-13413309D01*
X15067976Y-13556167D02*
X15077500Y-13546643D01*
X15077500Y-13546643D02*
X15096548Y-13518071D01*
X15096548Y-13518071D02*
X15106072Y-13499024D01*
X15106072Y-13499024D02*
X15115595Y-13470452D01*
X15115595Y-13470452D02*
X15125119Y-13422833D01*
X15125119Y-13422833D02*
X15125119Y-13384738D01*
X15125119Y-13384738D02*
X15115595Y-13337119D01*
X15115595Y-13337119D02*
X15106072Y-13308548D01*
X15106072Y-13308548D02*
X15096548Y-13289500D01*
X15096548Y-13289500D02*
X15077500Y-13260928D01*
X15077500Y-13260928D02*
X15067976Y-13251405D01*
X15397500Y-13556167D02*
X15387976Y-13546643D01*
X15387976Y-13546643D02*
X15368929Y-13518071D01*
X15368929Y-13518071D02*
X15359405Y-13499024D01*
X15359405Y-13499024D02*
X15349881Y-13470452D01*
X15349881Y-13470452D02*
X15340357Y-13422833D01*
X15340357Y-13422833D02*
X15340357Y-13384738D01*
X15340357Y-13384738D02*
X15349881Y-13337119D01*
X15349881Y-13337119D02*
X15359405Y-13308548D01*
X15359405Y-13308548D02*
X15368929Y-13289500D01*
X15368929Y-13289500D02*
X15387976Y-13260928D01*
X15387976Y-13260928D02*
X15397500Y-13251405D01*
X15473691Y-13346643D02*
X15473691Y-13479976D01*
X15473691Y-13365690D02*
X15483214Y-13356167D01*
X15483214Y-13356167D02*
X15502262Y-13346643D01*
X15502262Y-13346643D02*
X15530833Y-13346643D01*
X15530833Y-13346643D02*
X15549881Y-13356167D01*
X15549881Y-13356167D02*
X15559405Y-13375214D01*
X15559405Y-13375214D02*
X15559405Y-13479976D01*
X15683214Y-13479976D02*
X15664167Y-13470452D01*
X15664167Y-13470452D02*
X15654643Y-13460928D01*
X15654643Y-13460928D02*
X15645119Y-13441881D01*
X15645119Y-13441881D02*
X15645119Y-13384738D01*
X15645119Y-13384738D02*
X15654643Y-13365690D01*
X15654643Y-13365690D02*
X15664167Y-13356167D01*
X15664167Y-13356167D02*
X15683214Y-13346643D01*
X15683214Y-13346643D02*
X15711786Y-13346643D01*
X15711786Y-13346643D02*
X15730833Y-13356167D01*
X15730833Y-13356167D02*
X15740357Y-13365690D01*
X15740357Y-13365690D02*
X15749881Y-13384738D01*
X15749881Y-13384738D02*
X15749881Y-13441881D01*
X15749881Y-13441881D02*
X15740357Y-13460928D01*
X15740357Y-13460928D02*
X15730833Y-13470452D01*
X15730833Y-13470452D02*
X15711786Y-13479976D01*
X15711786Y-13479976D02*
X15683214Y-13479976D01*
X15807024Y-13346643D02*
X15883214Y-13346643D01*
X15835595Y-13279976D02*
X15835595Y-13451405D01*
X15835595Y-13451405D02*
X15845119Y-13470452D01*
X15845119Y-13470452D02*
X15864167Y-13479976D01*
X15864167Y-13479976D02*
X15883214Y-13479976D01*
X16069881Y-13346643D02*
X16069881Y-13546643D01*
X16069881Y-13356167D02*
X16088929Y-13346643D01*
X16088929Y-13346643D02*
X16127024Y-13346643D01*
X16127024Y-13346643D02*
X16146072Y-13356167D01*
X16146072Y-13356167D02*
X16155595Y-13365690D01*
X16155595Y-13365690D02*
X16165119Y-13384738D01*
X16165119Y-13384738D02*
X16165119Y-13441881D01*
X16165119Y-13441881D02*
X16155595Y-13460928D01*
X16155595Y-13460928D02*
X16146072Y-13470452D01*
X16146072Y-13470452D02*
X16127024Y-13479976D01*
X16127024Y-13479976D02*
X16088929Y-13479976D01*
X16088929Y-13479976D02*
X16069881Y-13470452D01*
X16279405Y-13479976D02*
X16260357Y-13470452D01*
X16260357Y-13470452D02*
X16250833Y-13451405D01*
X16250833Y-13451405D02*
X16250833Y-13279976D01*
X16441310Y-13479976D02*
X16441310Y-13375214D01*
X16441310Y-13375214D02*
X16431786Y-13356167D01*
X16431786Y-13356167D02*
X16412738Y-13346643D01*
X16412738Y-13346643D02*
X16374643Y-13346643D01*
X16374643Y-13346643D02*
X16355595Y-13356167D01*
X16441310Y-13470452D02*
X16422262Y-13479976D01*
X16422262Y-13479976D02*
X16374643Y-13479976D01*
X16374643Y-13479976D02*
X16355595Y-13470452D01*
X16355595Y-13470452D02*
X16346072Y-13451405D01*
X16346072Y-13451405D02*
X16346072Y-13432357D01*
X16346072Y-13432357D02*
X16355595Y-13413309D01*
X16355595Y-13413309D02*
X16374643Y-13403786D01*
X16374643Y-13403786D02*
X16422262Y-13403786D01*
X16422262Y-13403786D02*
X16441310Y-13394262D01*
X16507976Y-13346643D02*
X16584167Y-13346643D01*
X16536548Y-13279976D02*
X16536548Y-13451405D01*
X16536548Y-13451405D02*
X16546072Y-13470452D01*
X16546072Y-13470452D02*
X16565119Y-13479976D01*
X16565119Y-13479976D02*
X16584167Y-13479976D01*
X16727024Y-13470452D02*
X16707976Y-13479976D01*
X16707976Y-13479976D02*
X16669881Y-13479976D01*
X16669881Y-13479976D02*
X16650833Y-13470452D01*
X16650833Y-13470452D02*
X16641310Y-13451405D01*
X16641310Y-13451405D02*
X16641310Y-13375214D01*
X16641310Y-13375214D02*
X16650833Y-13356167D01*
X16650833Y-13356167D02*
X16669881Y-13346643D01*
X16669881Y-13346643D02*
X16707976Y-13346643D01*
X16707976Y-13346643D02*
X16727024Y-13356167D01*
X16727024Y-13356167D02*
X16736548Y-13375214D01*
X16736548Y-13375214D02*
X16736548Y-13394262D01*
X16736548Y-13394262D02*
X16641310Y-13413309D01*
X16907976Y-13479976D02*
X16907976Y-13279976D01*
X16907976Y-13470452D02*
X16888929Y-13479976D01*
X16888929Y-13479976D02*
X16850834Y-13479976D01*
X16850834Y-13479976D02*
X16831786Y-13470452D01*
X16831786Y-13470452D02*
X16822262Y-13460928D01*
X16822262Y-13460928D02*
X16812738Y-13441881D01*
X16812738Y-13441881D02*
X16812738Y-13384738D01*
X16812738Y-13384738D02*
X16822262Y-13365690D01*
X16822262Y-13365690D02*
X16831786Y-13356167D01*
X16831786Y-13356167D02*
X16850834Y-13346643D01*
X16850834Y-13346643D02*
X16888929Y-13346643D01*
X16888929Y-13346643D02*
X16907976Y-13356167D01*
X16984167Y-13556167D02*
X16993691Y-13546643D01*
X16993691Y-13546643D02*
X17012738Y-13518071D01*
X17012738Y-13518071D02*
X17022262Y-13499024D01*
X17022262Y-13499024D02*
X17031786Y-13470452D01*
X17031786Y-13470452D02*
X17041310Y-13422833D01*
X17041310Y-13422833D02*
X17041310Y-13384738D01*
X17041310Y-13384738D02*
X17031786Y-13337119D01*
X17031786Y-13337119D02*
X17022262Y-13308548D01*
X17022262Y-13308548D02*
X17012738Y-13289500D01*
X17012738Y-13289500D02*
X16993691Y-13260928D01*
X16993691Y-13260928D02*
X16984167Y-13251405D01*
M02*
