%TF.GenerationSoftware,KiCad,Pcbnew,(7.0.0)*%
%TF.CreationDate,2023-06-13T01:41:46+01:00*%
%TF.ProjectId,flintandsteel,666c696e-7461-46e6-9473-7465656c2e6b,rev?*%
%TF.SameCoordinates,Original*%
%TF.FileFunction,Copper,L2,Inr*%
%TF.FilePolarity,Positive*%
%FSLAX46Y46*%
G04 Gerber Fmt 4.6, Leading zero omitted, Abs format (unit mm)*
G04 Created by KiCad (PCBNEW (7.0.0)) date 2023-06-13 01:41:46*
%MOMM*%
%LPD*%
G01*
G04 APERTURE LIST*
G04 Aperture macros list*
%AMRoundRect*
0 Rectangle with rounded corners*
0 $1 Rounding radius*
0 $2 $3 $4 $5 $6 $7 $8 $9 X,Y pos of 4 corners*
0 Add a 4 corners polygon primitive as box body*
4,1,4,$2,$3,$4,$5,$6,$7,$8,$9,$2,$3,0*
0 Add four circle primitives for the rounded corners*
1,1,$1+$1,$2,$3*
1,1,$1+$1,$4,$5*
1,1,$1+$1,$6,$7*
1,1,$1+$1,$8,$9*
0 Add four rect primitives between the rounded corners*
20,1,$1+$1,$2,$3,$4,$5,0*
20,1,$1+$1,$4,$5,$6,$7,0*
20,1,$1+$1,$6,$7,$8,$9,0*
20,1,$1+$1,$8,$9,$2,$3,0*%
G04 Aperture macros list end*
%TA.AperFunction,ComponentPad*%
%ADD10R,1.700000X1.700000*%
%TD*%
%TA.AperFunction,ComponentPad*%
%ADD11O,1.700000X1.700000*%
%TD*%
%TA.AperFunction,ComponentPad*%
%ADD12R,2.400000X2.400000*%
%TD*%
%TA.AperFunction,ComponentPad*%
%ADD13C,2.400000*%
%TD*%
%TA.AperFunction,ComponentPad*%
%ADD14C,5.600000*%
%TD*%
%TA.AperFunction,ComponentPad*%
%ADD15O,0.900000X2.000000*%
%TD*%
%TA.AperFunction,ComponentPad*%
%ADD16O,0.900000X1.700000*%
%TD*%
%TA.AperFunction,ComponentPad*%
%ADD17RoundRect,0.250001X1.599999X-1.099999X1.599999X1.099999X-1.599999X1.099999X-1.599999X-1.099999X0*%
%TD*%
%TA.AperFunction,ComponentPad*%
%ADD18O,3.700000X2.700000*%
%TD*%
%TA.AperFunction,ViaPad*%
%ADD19C,0.450000*%
%TD*%
%TA.AperFunction,ViaPad*%
%ADD20C,0.600000*%
%TD*%
%TA.AperFunction,ViaPad*%
%ADD21C,1.000000*%
%TD*%
%TA.AperFunction,ViaPad*%
%ADD22C,0.800000*%
%TD*%
%TA.AperFunction,ViaPad*%
%ADD23C,0.700000*%
%TD*%
%TA.AperFunction,ViaPad*%
%ADD24C,0.650000*%
%TD*%
G04 APERTURE END LIST*
D10*
%TO.N,GND*%
%TO.C,BOOTJUMPER1*%
X107998999Y-93191999D03*
D11*
%TO.N,/BOOT*%
X110538999Y-93191999D03*
%TD*%
D12*
%TO.N,/DeployV*%
%TO.C,J5*%
X145883298Y-104067358D03*
D13*
%TO.N,Net-(J5-Pin_2)*%
X145883299Y-100567359D03*
%TD*%
D14*
%TO.N,GND*%
%TO.C,H3*%
X109200000Y-70200000D03*
%TD*%
D12*
%TO.N,/DeployV*%
%TO.C,J4*%
X145909698Y-94613137D03*
D13*
%TO.N,Net-(J4-Pin_2)*%
X145909699Y-91113138D03*
%TD*%
D14*
%TO.N,GND*%
%TO.C,H2*%
X109200000Y-121800000D03*
%TD*%
%TO.N,GND*%
%TO.C,H1*%
X146800000Y-70200000D03*
%TD*%
D15*
%TO.N,GND*%
%TO.C,J2*%
X125525999Y-73789999D03*
D16*
X125525999Y-69619999D03*
D15*
X116885999Y-73789999D03*
D16*
X116885999Y-69619999D03*
%TD*%
D17*
%TO.N,GND*%
%TO.C,J1*%
X108824100Y-110899999D03*
D18*
X108824099Y-106699998D03*
X108824099Y-102499998D03*
%TO.N,RBUS_uC_V*%
X108824099Y-98299998D03*
%TO.N,/DeployV*%
X114324099Y-110899998D03*
X114324099Y-106699998D03*
%TO.N,/CAN+*%
X114324099Y-102499998D03*
%TO.N,/CAN-*%
X114324099Y-98299998D03*
%TD*%
D12*
%TO.N,/DeployV*%
%TO.C,J6*%
X145868881Y-113649139D03*
D13*
%TO.N,Net-(J6-Pin_2)*%
X145868882Y-110149140D03*
%TD*%
D10*
%TO.N,GND*%
%TO.C,ENJUMPER1*%
X107997999Y-89583999D03*
D11*
%TO.N,/CHIP_PU*%
X110537999Y-89583999D03*
%TD*%
D12*
%TO.N,/DeployV*%
%TO.C,J3*%
X145883392Y-85159135D03*
D13*
%TO.N,Net-(J3-Pin_2)*%
X145883393Y-81659136D03*
%TD*%
D19*
%TO.N,VBUS*%
X108328084Y-81755834D03*
D20*
X118910000Y-78020000D03*
X118820000Y-75410000D03*
D19*
X108546000Y-85400000D03*
D20*
X120210000Y-72940000D03*
%TO.N,/Data+*%
X120690000Y-76740000D03*
X124650000Y-90840000D03*
%TO.N,/Data-*%
X123890000Y-90850000D03*
X121520000Y-76730000D03*
D19*
%TO.N,GND*%
X123801000Y-81967000D03*
D21*
X134775000Y-82325000D03*
D20*
X114988000Y-90331000D03*
D21*
X133175000Y-94750000D03*
D20*
X117580000Y-95640000D03*
D19*
X106483000Y-87164999D03*
X124100000Y-124500000D03*
X118870000Y-80020000D03*
D21*
X133400000Y-110075000D03*
D19*
X119090000Y-67490000D03*
X149520000Y-77155999D03*
X126600000Y-124500000D03*
D22*
X112715001Y-79151000D03*
D21*
X130200000Y-106425000D03*
D19*
X125724000Y-83725000D03*
X149520000Y-87156000D03*
D21*
X130925000Y-96975000D03*
X129475000Y-87525000D03*
D20*
X111747999Y-81020000D03*
D19*
X149520000Y-94656000D03*
D21*
X132100000Y-109300000D03*
D19*
X116770000Y-89890000D03*
X129090000Y-67490000D03*
X121731000Y-82581000D03*
X106483000Y-114664999D03*
X149520000Y-99656000D03*
D20*
X116102816Y-75652492D03*
D21*
X134000000Y-105550000D03*
D20*
X140933000Y-73924000D03*
D19*
X149520000Y-102156000D03*
X149517078Y-121774787D03*
X114090000Y-67490000D03*
D20*
X116044000Y-92435000D03*
D21*
X131700000Y-113750000D03*
D19*
X119680000Y-82400000D03*
D21*
X132050000Y-101200000D03*
D20*
X140900000Y-71570000D03*
D19*
X107993000Y-80591000D03*
X120324000Y-79480000D03*
X106483000Y-112164999D03*
D20*
X121480000Y-78430000D03*
D21*
X134725000Y-80700000D03*
D19*
X114100000Y-124500000D03*
D21*
X134750000Y-101225000D03*
D19*
X106483000Y-84664999D03*
X123796000Y-93722000D03*
X107974000Y-74530000D03*
D20*
X118484000Y-99766000D03*
D19*
X136590000Y-67490000D03*
D21*
X131700000Y-104150000D03*
D19*
X123806000Y-80062000D03*
D20*
X120880000Y-88280000D03*
D19*
X139100000Y-124500000D03*
X106483000Y-77164998D03*
D21*
X134750000Y-110825000D03*
D19*
X141600000Y-124500000D03*
D22*
X119922000Y-109648000D03*
D21*
X133400000Y-100475000D03*
D19*
X149520000Y-89656000D03*
X149520000Y-74655999D03*
D20*
X140864000Y-76393000D03*
D19*
X118625000Y-81725000D03*
X134100000Y-124500000D03*
D21*
X134700000Y-99600000D03*
D19*
X106483000Y-97164999D03*
D22*
X111525002Y-76191000D03*
D19*
X149520000Y-82156000D03*
X106483000Y-79664998D03*
X149520000Y-84656000D03*
X141590000Y-67490000D03*
D20*
X120860000Y-86500000D03*
D19*
X149520000Y-112301911D03*
D20*
X122630000Y-86500000D03*
D21*
X133125000Y-113800000D03*
D20*
X126417000Y-95968000D03*
D19*
X144090000Y-67490000D03*
D21*
X132125000Y-80800000D03*
D19*
X110180000Y-80823000D03*
D20*
X128000000Y-74982000D03*
D19*
X106483000Y-99664999D03*
X106483000Y-89664999D03*
X106483000Y-109664999D03*
X149520000Y-107156000D03*
D21*
X128500000Y-115500000D03*
D20*
X125650000Y-94230000D03*
D19*
X106483000Y-74665000D03*
X134090000Y-67490000D03*
X116600000Y-124500000D03*
D20*
X118963000Y-97683000D03*
D21*
X131750000Y-94700000D03*
X134700000Y-109200000D03*
X132075000Y-82300000D03*
D19*
X149520000Y-104656000D03*
X149520000Y-119656001D03*
X109086000Y-81941001D03*
X118653000Y-80842000D03*
D21*
X129500000Y-96975000D03*
X133150000Y-85300000D03*
X132050000Y-105625000D03*
D19*
X139090000Y-67490000D03*
X121730000Y-83165000D03*
D20*
X122575000Y-81487000D03*
D19*
X147600000Y-124375000D03*
D21*
X128525000Y-86250000D03*
D19*
X121600000Y-124500000D03*
X121590000Y-67490000D03*
X122379000Y-82581000D03*
D21*
X134750000Y-113775000D03*
D23*
X128800000Y-105075000D03*
D22*
X112665001Y-76191000D03*
D21*
X134750000Y-90150000D03*
D19*
X149520000Y-92156000D03*
X149520000Y-97156000D03*
D21*
X133425000Y-81575000D03*
X133450000Y-91025000D03*
D19*
X116590000Y-67490000D03*
X106483000Y-102164999D03*
D20*
X124170000Y-89760000D03*
D21*
X132150000Y-90250000D03*
X134750000Y-104175000D03*
D19*
X106483000Y-119664999D03*
X106483000Y-82164998D03*
X116301000Y-79942000D03*
D21*
X134025000Y-86650000D03*
D19*
X119100000Y-124500000D03*
X119520000Y-79610000D03*
D21*
X134050000Y-96100000D03*
X131725000Y-85250000D03*
D19*
X123802000Y-81034000D03*
D21*
X130900000Y-87525000D03*
D19*
X131590000Y-67490000D03*
X149520000Y-79655999D03*
D21*
X132100000Y-99700000D03*
D22*
X111525002Y-76191000D03*
D20*
X119877000Y-80586002D03*
D19*
X149520000Y-109801911D03*
X119075000Y-82250000D03*
X120958000Y-93400000D03*
X118855000Y-102865000D03*
D20*
X116253000Y-101199000D03*
D22*
X111495000Y-79151000D03*
D20*
X120880000Y-90030000D03*
X122640000Y-88300000D03*
D19*
X124090000Y-67490000D03*
X149520000Y-72156001D03*
D20*
X124400000Y-88290000D03*
D19*
X106483000Y-92164999D03*
X111590000Y-67490000D03*
D21*
X132100000Y-96175000D03*
D20*
X119429000Y-99803000D03*
D21*
X132100000Y-91750000D03*
D19*
X106483000Y-94664999D03*
X128406000Y-78028000D03*
X144100000Y-124500000D03*
D21*
X134000000Y-115150000D03*
X132075000Y-86725000D03*
D19*
X122964000Y-82588000D03*
X121972000Y-79479000D03*
D20*
X122620000Y-90030000D03*
D21*
X132050000Y-115225000D03*
D19*
X121730000Y-83750000D03*
X136600000Y-124500000D03*
X149520000Y-114801911D03*
D21*
X134800000Y-94725000D03*
D19*
X122992000Y-79481000D03*
D20*
X128033000Y-72054000D03*
X110091000Y-91653000D03*
D21*
X133125000Y-104200000D03*
D19*
X106483000Y-72165000D03*
D21*
X134775000Y-85275000D03*
D19*
X111600000Y-124500000D03*
D21*
X134800000Y-91775000D03*
D19*
X124358000Y-92644000D03*
X106483000Y-117164999D03*
X106483000Y-107164999D03*
D20*
X124380000Y-86530000D03*
D19*
X106483000Y-104664999D03*
X121176000Y-79478000D03*
X129100000Y-124500000D03*
X126590000Y-67490000D03*
X131600000Y-124500000D03*
D21*
X132050000Y-110800000D03*
X128625000Y-113550000D03*
D19*
X119825000Y-83450000D03*
X149520000Y-117156000D03*
D20*
%TO.N,Net-(JP1-B)*%
X118980000Y-101977000D03*
X121823000Y-101307000D03*
D22*
%TO.N,+3V3*%
X131784230Y-70076879D03*
D20*
X124685841Y-94231212D03*
D19*
X121924000Y-93441000D03*
D20*
X107245000Y-77080000D03*
X126250000Y-80390000D03*
X123920000Y-95360000D03*
D19*
X124470000Y-83020000D03*
X117400000Y-83736000D03*
D20*
X113363000Y-88625000D03*
X117900000Y-76700000D03*
D19*
X122670000Y-92720000D03*
X123520000Y-83716000D03*
D20*
X113809000Y-92510000D03*
D19*
%TO.N,/Power/LX1*%
X112714000Y-87319000D03*
X112750000Y-83850000D03*
X111563000Y-86582000D03*
X112716000Y-86566000D03*
X112280000Y-84687000D03*
X111690000Y-84687000D03*
X111559000Y-87325000D03*
%TO.N,/Power/LX2*%
X114780000Y-84690000D03*
X113771000Y-86574000D03*
X113772000Y-87315000D03*
X114216999Y-84687001D03*
X114929000Y-86570000D03*
X113700000Y-83825000D03*
X114922000Y-87321000D03*
%TO.N,/TXD*%
X126080000Y-81780000D03*
%TO.N,/RXD*%
X122400000Y-83290000D03*
%TO.N,/Cont 3*%
X125263000Y-85508000D03*
X128870000Y-72018000D03*
%TO.N,/Cont 1*%
X129289000Y-77824000D03*
X128429000Y-80570000D03*
%TO.N,/Cont 2*%
X125331000Y-87685000D03*
X128878000Y-74980000D03*
D24*
%TO.N,/DeployV*%
X116000000Y-108800000D03*
D21*
X118700000Y-113200000D03*
X117400000Y-109900000D03*
X118700000Y-111200000D03*
X144800000Y-115900000D03*
X143475000Y-112750000D03*
X118710000Y-105750000D03*
X116100000Y-113200000D03*
X118700000Y-108300000D03*
X117400000Y-107000000D03*
X143500000Y-116900000D03*
X142100000Y-115800000D03*
X143500000Y-114945911D03*
X112900000Y-113200000D03*
X148600000Y-116900000D03*
X147000000Y-115900000D03*
X148400000Y-112745911D03*
X140200000Y-116800000D03*
X148200000Y-114745911D03*
D24*
X112900000Y-108800000D03*
D19*
%TO.N,/DeployV_SNS*%
X119690000Y-92640000D03*
X123800000Y-107145000D03*
%TD*%
%TA.AperFunction,Conductor*%
%TO.N,GND*%
G36*
X147005775Y-67254655D02*
G01*
X147304850Y-67271451D01*
X147315873Y-67272693D01*
X147608459Y-67322405D01*
X147619253Y-67324868D01*
X147904444Y-67407030D01*
X147914919Y-67410696D01*
X148189093Y-67524262D01*
X148199087Y-67529075D01*
X148458834Y-67672632D01*
X148468220Y-67678530D01*
X148710257Y-67850265D01*
X148718929Y-67857180D01*
X148940220Y-68054937D01*
X148948066Y-68062784D01*
X149093067Y-68225039D01*
X149145813Y-68284062D01*
X149152727Y-68292731D01*
X149324468Y-68534777D01*
X149330368Y-68544167D01*
X149473919Y-68803904D01*
X149478736Y-68813906D01*
X149592303Y-69088079D01*
X149595970Y-69098558D01*
X149678127Y-69383730D01*
X149680597Y-69394554D01*
X149730305Y-69687119D01*
X149731548Y-69698151D01*
X149748340Y-69997175D01*
X149748496Y-70002732D01*
X149745580Y-120417733D01*
X149745503Y-121755116D01*
X149745500Y-121755125D01*
X149745500Y-121755150D01*
X149745500Y-121797227D01*
X149745344Y-121802778D01*
X149727290Y-122124239D01*
X149726047Y-122135271D01*
X149672582Y-122449949D01*
X149670112Y-122460773D01*
X149581745Y-122767499D01*
X149578078Y-122777977D01*
X149455932Y-123072866D01*
X149451115Y-123082869D01*
X149296716Y-123362231D01*
X149290810Y-123371631D01*
X149106102Y-123631954D01*
X149099180Y-123640634D01*
X148886488Y-123878637D01*
X148878637Y-123886488D01*
X148640634Y-124099180D01*
X148631954Y-124106102D01*
X148371631Y-124290810D01*
X148362231Y-124296716D01*
X148082869Y-124451115D01*
X148072866Y-124455932D01*
X147777977Y-124578078D01*
X147767499Y-124581745D01*
X147460773Y-124670112D01*
X147449949Y-124672582D01*
X147135272Y-124726047D01*
X147124240Y-124727290D01*
X146802782Y-124745342D01*
X146797227Y-124745498D01*
X109114881Y-124743806D01*
X109114879Y-124743805D01*
X109114875Y-124743804D01*
X109114861Y-124743804D01*
X109072773Y-124743804D01*
X109067222Y-124743648D01*
X108760650Y-124726431D01*
X108749618Y-124725188D01*
X108449644Y-124674221D01*
X108438820Y-124671751D01*
X108438469Y-124671650D01*
X108366749Y-124650987D01*
X108146429Y-124587514D01*
X108135950Y-124583847D01*
X107854834Y-124467405D01*
X107844832Y-124462588D01*
X107578526Y-124315405D01*
X107569126Y-124309499D01*
X107320967Y-124133421D01*
X107312287Y-124126499D01*
X107085400Y-123923741D01*
X107077562Y-123915903D01*
X106874798Y-123689010D01*
X106867883Y-123680339D01*
X106691801Y-123432175D01*
X106685894Y-123422774D01*
X106538712Y-123156467D01*
X106533895Y-123146465D01*
X106458808Y-122965189D01*
X106417451Y-122865346D01*
X106413786Y-122854871D01*
X106391633Y-122777977D01*
X106329545Y-122562465D01*
X106327082Y-122551671D01*
X106276111Y-122251679D01*
X106274869Y-122240649D01*
X106257654Y-121934123D01*
X106257498Y-121928572D01*
X106257498Y-121886452D01*
X106257498Y-121886426D01*
X106257494Y-121886417D01*
X106257493Y-121867911D01*
X144941780Y-121867911D01*
X144942174Y-121871496D01*
X144942175Y-121871509D01*
X144971074Y-122134155D01*
X144971075Y-122134165D01*
X144971470Y-122137747D01*
X144972381Y-122141232D01*
X144972383Y-122141242D01*
X145039218Y-122396890D01*
X145039220Y-122396896D01*
X145040132Y-122400384D01*
X145146303Y-122650224D01*
X145148184Y-122653306D01*
X145271196Y-122854871D01*
X145287719Y-122881944D01*
X145461368Y-123090604D01*
X145663546Y-123271757D01*
X145889947Y-123421542D01*
X146135743Y-123536767D01*
X146395697Y-123614975D01*
X146664268Y-123654500D01*
X146865974Y-123654500D01*
X146867781Y-123654500D01*
X147070740Y-123639645D01*
X147335709Y-123580621D01*
X147589261Y-123483646D01*
X147825991Y-123350786D01*
X148040853Y-123184875D01*
X148229269Y-122989447D01*
X148387223Y-122768668D01*
X148511348Y-122527244D01*
X148598998Y-122270320D01*
X148648306Y-122003371D01*
X148658220Y-121732089D01*
X148628530Y-121462253D01*
X148559868Y-121199616D01*
X148453697Y-120949776D01*
X148312281Y-120718056D01*
X148138632Y-120509396D01*
X147936454Y-120328243D01*
X147814327Y-120247445D01*
X147713072Y-120180455D01*
X147713068Y-120180453D01*
X147710053Y-120178458D01*
X147706775Y-120176921D01*
X147706771Y-120176919D01*
X147467532Y-120064768D01*
X147467528Y-120064766D01*
X147464257Y-120063233D01*
X147460806Y-120062195D01*
X147460799Y-120062192D01*
X147207768Y-119986067D01*
X147207762Y-119986065D01*
X147204303Y-119985025D01*
X147200723Y-119984498D01*
X147200718Y-119984497D01*
X146939313Y-119946027D01*
X146939312Y-119946026D01*
X146935732Y-119945500D01*
X146732219Y-119945500D01*
X146730440Y-119945630D01*
X146730418Y-119945631D01*
X146532862Y-119960091D01*
X146532857Y-119960091D01*
X146529260Y-119960355D01*
X146525737Y-119961139D01*
X146525735Y-119961140D01*
X146267821Y-120018592D01*
X146267812Y-120018594D01*
X146264291Y-120019379D01*
X146260924Y-120020666D01*
X146260913Y-120020670D01*
X146014112Y-120115063D01*
X146014101Y-120115068D01*
X146010739Y-120116354D01*
X146007592Y-120118119D01*
X146007588Y-120118122D01*
X145777159Y-120247445D01*
X145777147Y-120247452D01*
X145774009Y-120249214D01*
X145771158Y-120251414D01*
X145771145Y-120251424D01*
X145562012Y-120412912D01*
X145562006Y-120412917D01*
X145559147Y-120415125D01*
X145556636Y-120417729D01*
X145556632Y-120417733D01*
X145373249Y-120607940D01*
X145373241Y-120607949D01*
X145370731Y-120610553D01*
X145368626Y-120613494D01*
X145368622Y-120613500D01*
X145214877Y-120828395D01*
X145214869Y-120828406D01*
X145212777Y-120831332D01*
X145211132Y-120834531D01*
X145211125Y-120834543D01*
X145090307Y-121069535D01*
X145090302Y-121069546D01*
X145088652Y-121072756D01*
X145087485Y-121076174D01*
X145087483Y-121076181D01*
X145002168Y-121326259D01*
X145002164Y-121326272D01*
X145001002Y-121329680D01*
X145000346Y-121333227D01*
X145000344Y-121333238D01*
X144952351Y-121593067D01*
X144952349Y-121593079D01*
X144951694Y-121596629D01*
X144951562Y-121600234D01*
X144951561Y-121600246D01*
X144944160Y-121802778D01*
X144941780Y-121867911D01*
X106257493Y-121867911D01*
X106257200Y-116800000D01*
X139494355Y-116800000D01*
X139495077Y-116805946D01*
X139514137Y-116962925D01*
X139514138Y-116962932D01*
X139514860Y-116968872D01*
X139516982Y-116974468D01*
X139516983Y-116974471D01*
X139554908Y-117074471D01*
X139575182Y-117127930D01*
X139578579Y-117132851D01*
X139578581Y-117132855D01*
X139644207Y-117227930D01*
X139671817Y-117267929D01*
X139799148Y-117380734D01*
X139949775Y-117459790D01*
X140114944Y-117500500D01*
X140279068Y-117500500D01*
X140285056Y-117500500D01*
X140450225Y-117459790D01*
X140600852Y-117380734D01*
X140728183Y-117267929D01*
X140824818Y-117127930D01*
X140885140Y-116968872D01*
X140893503Y-116900000D01*
X142794355Y-116900000D01*
X142795077Y-116905946D01*
X142814137Y-117062925D01*
X142814138Y-117062932D01*
X142814860Y-117068872D01*
X142816982Y-117074468D01*
X142816983Y-117074471D01*
X142837257Y-117127930D01*
X142875182Y-117227930D01*
X142878579Y-117232851D01*
X142878581Y-117232855D01*
X142968414Y-117362999D01*
X142971817Y-117367929D01*
X143099148Y-117480734D01*
X143249775Y-117559790D01*
X143414944Y-117600500D01*
X143579068Y-117600500D01*
X143585056Y-117600500D01*
X143750225Y-117559790D01*
X143900852Y-117480734D01*
X144028183Y-117367929D01*
X144124818Y-117227930D01*
X144185140Y-117068872D01*
X144205645Y-116900000D01*
X147894355Y-116900000D01*
X147895077Y-116905946D01*
X147914137Y-117062925D01*
X147914138Y-117062932D01*
X147914860Y-117068872D01*
X147916982Y-117074468D01*
X147916983Y-117074471D01*
X147937257Y-117127930D01*
X147975182Y-117227930D01*
X147978579Y-117232851D01*
X147978581Y-117232855D01*
X148068414Y-117362999D01*
X148071817Y-117367929D01*
X148199148Y-117480734D01*
X148349775Y-117559790D01*
X148514944Y-117600500D01*
X148679068Y-117600500D01*
X148685056Y-117600500D01*
X148850225Y-117559790D01*
X149000852Y-117480734D01*
X149128183Y-117367929D01*
X149224818Y-117227930D01*
X149285140Y-117068872D01*
X149305645Y-116900000D01*
X149285140Y-116731128D01*
X149224818Y-116572070D01*
X149128183Y-116432071D01*
X149000852Y-116319266D01*
X148903039Y-116267929D01*
X148855528Y-116242993D01*
X148855526Y-116242992D01*
X148850225Y-116240210D01*
X148844409Y-116238776D01*
X148844408Y-116238776D01*
X148690871Y-116200933D01*
X148690868Y-116200932D01*
X148685056Y-116199500D01*
X148514944Y-116199500D01*
X148509131Y-116200932D01*
X148509128Y-116200933D01*
X148355591Y-116238776D01*
X148355587Y-116238777D01*
X148349775Y-116240210D01*
X148344476Y-116242990D01*
X148344471Y-116242993D01*
X148204451Y-116316482D01*
X148204446Y-116316485D01*
X148199148Y-116319266D01*
X148194667Y-116323234D01*
X148194665Y-116323237D01*
X148076299Y-116428099D01*
X148076293Y-116428105D01*
X148071817Y-116432071D01*
X148068417Y-116436996D01*
X148068414Y-116437000D01*
X147978581Y-116567144D01*
X147978577Y-116567151D01*
X147975182Y-116572070D01*
X147973061Y-116577660D01*
X147973060Y-116577664D01*
X147916983Y-116725528D01*
X147916981Y-116725533D01*
X147914860Y-116731128D01*
X147914139Y-116737065D01*
X147914137Y-116737074D01*
X147907219Y-116794054D01*
X147894355Y-116900000D01*
X144205645Y-116900000D01*
X144185140Y-116731128D01*
X144124818Y-116572070D01*
X144028183Y-116432071D01*
X143900852Y-116319266D01*
X143803039Y-116267929D01*
X143755528Y-116242993D01*
X143755526Y-116242992D01*
X143750225Y-116240210D01*
X143744409Y-116238776D01*
X143744408Y-116238776D01*
X143590871Y-116200933D01*
X143590868Y-116200932D01*
X143585056Y-116199500D01*
X143414944Y-116199500D01*
X143409131Y-116200932D01*
X143409128Y-116200933D01*
X143255591Y-116238776D01*
X143255587Y-116238777D01*
X143249775Y-116240210D01*
X143244476Y-116242990D01*
X143244471Y-116242993D01*
X143104451Y-116316482D01*
X143104446Y-116316485D01*
X143099148Y-116319266D01*
X143094667Y-116323234D01*
X143094665Y-116323237D01*
X142976299Y-116428099D01*
X142976293Y-116428105D01*
X142971817Y-116432071D01*
X142968417Y-116436996D01*
X142968414Y-116437000D01*
X142878581Y-116567144D01*
X142878577Y-116567151D01*
X142875182Y-116572070D01*
X142873061Y-116577660D01*
X142873060Y-116577664D01*
X142816983Y-116725528D01*
X142816981Y-116725533D01*
X142814860Y-116731128D01*
X142814139Y-116737065D01*
X142814137Y-116737074D01*
X142807219Y-116794054D01*
X142794355Y-116900000D01*
X140893503Y-116900000D01*
X140905645Y-116800000D01*
X140885140Y-116631128D01*
X140824818Y-116472070D01*
X140797208Y-116432071D01*
X140731585Y-116337000D01*
X140728183Y-116332071D01*
X140718211Y-116323237D01*
X140616191Y-116232855D01*
X140600852Y-116219266D01*
X140565922Y-116200933D01*
X140455528Y-116142993D01*
X140455526Y-116142992D01*
X140450225Y-116140210D01*
X140444409Y-116138776D01*
X140444408Y-116138776D01*
X140290871Y-116100933D01*
X140290868Y-116100932D01*
X140285056Y-116099500D01*
X140114944Y-116099500D01*
X140109131Y-116100932D01*
X140109128Y-116100933D01*
X139955591Y-116138776D01*
X139955587Y-116138777D01*
X139949775Y-116140210D01*
X139944476Y-116142990D01*
X139944471Y-116142993D01*
X139804451Y-116216482D01*
X139804446Y-116216485D01*
X139799148Y-116219266D01*
X139794667Y-116223234D01*
X139794665Y-116223237D01*
X139676299Y-116328099D01*
X139676293Y-116328105D01*
X139671817Y-116332071D01*
X139668417Y-116336996D01*
X139668414Y-116337000D01*
X139578581Y-116467144D01*
X139578577Y-116467151D01*
X139575182Y-116472070D01*
X139573061Y-116477660D01*
X139573060Y-116477664D01*
X139516983Y-116625528D01*
X139516981Y-116625533D01*
X139514860Y-116631128D01*
X139514139Y-116637065D01*
X139514137Y-116637074D01*
X139495388Y-116791487D01*
X139494355Y-116800000D01*
X106257200Y-116800000D01*
X106257142Y-115800000D01*
X141394355Y-115800000D01*
X141395077Y-115805946D01*
X141414137Y-115962925D01*
X141414138Y-115962932D01*
X141414860Y-115968872D01*
X141416982Y-115974468D01*
X141416983Y-115974471D01*
X141473060Y-116122335D01*
X141475182Y-116127930D01*
X141478579Y-116132851D01*
X141478581Y-116132855D01*
X141540968Y-116223237D01*
X141571817Y-116267929D01*
X141699148Y-116380734D01*
X141849775Y-116459790D01*
X142014944Y-116500500D01*
X142179068Y-116500500D01*
X142185056Y-116500500D01*
X142350225Y-116459790D01*
X142500852Y-116380734D01*
X142628183Y-116267929D01*
X142724818Y-116127930D01*
X142785140Y-115968872D01*
X142793503Y-115900000D01*
X144094355Y-115900000D01*
X144095077Y-115905946D01*
X144114137Y-116062925D01*
X144114138Y-116062932D01*
X144114860Y-116068872D01*
X144116982Y-116074468D01*
X144116983Y-116074471D01*
X144170840Y-116216482D01*
X144175182Y-116227930D01*
X144178579Y-116232851D01*
X144178581Y-116232855D01*
X144236305Y-116316482D01*
X144271817Y-116367929D01*
X144399148Y-116480734D01*
X144549775Y-116559790D01*
X144714944Y-116600500D01*
X144879068Y-116600500D01*
X144885056Y-116600500D01*
X145050225Y-116559790D01*
X145200852Y-116480734D01*
X145328183Y-116367929D01*
X145424818Y-116227930D01*
X145485140Y-116068872D01*
X145505645Y-115900000D01*
X145485140Y-115731128D01*
X145424818Y-115572070D01*
X145390721Y-115522673D01*
X145359654Y-115477664D01*
X145328183Y-115432071D01*
X145307604Y-115413840D01*
X145255303Y-115367505D01*
X145200852Y-115319266D01*
X145050225Y-115240210D01*
X145049111Y-115239935D01*
X145007260Y-115208749D01*
X144987385Y-115158195D01*
X144997177Y-115104764D01*
X145033687Y-115064543D01*
X145085923Y-115049640D01*
X146714077Y-115049640D01*
X146766313Y-115064543D01*
X146802823Y-115104764D01*
X146812615Y-115158195D01*
X146792740Y-115208749D01*
X146750888Y-115239935D01*
X146749775Y-115240210D01*
X146744473Y-115242992D01*
X146744472Y-115242993D01*
X146604451Y-115316482D01*
X146604446Y-115316485D01*
X146599148Y-115319266D01*
X146594667Y-115323234D01*
X146594665Y-115323237D01*
X146476299Y-115428099D01*
X146476293Y-115428105D01*
X146471817Y-115432071D01*
X146468417Y-115436996D01*
X146468414Y-115437000D01*
X146378581Y-115567144D01*
X146378577Y-115567151D01*
X146375182Y-115572070D01*
X146373061Y-115577660D01*
X146373060Y-115577664D01*
X146316983Y-115725528D01*
X146316981Y-115725533D01*
X146314860Y-115731128D01*
X146314139Y-115737065D01*
X146314137Y-115737074D01*
X146307219Y-115794054D01*
X146294355Y-115900000D01*
X146295077Y-115905946D01*
X146314137Y-116062925D01*
X146314138Y-116062932D01*
X146314860Y-116068872D01*
X146316982Y-116074468D01*
X146316983Y-116074471D01*
X146370840Y-116216482D01*
X146375182Y-116227930D01*
X146378579Y-116232851D01*
X146378581Y-116232855D01*
X146436305Y-116316482D01*
X146471817Y-116367929D01*
X146599148Y-116480734D01*
X146749775Y-116559790D01*
X146914944Y-116600500D01*
X147079068Y-116600500D01*
X147085056Y-116600500D01*
X147250225Y-116559790D01*
X147400852Y-116480734D01*
X147528183Y-116367929D01*
X147624818Y-116227930D01*
X147685140Y-116068872D01*
X147705645Y-115900000D01*
X147685140Y-115731128D01*
X147624818Y-115572070D01*
X147590721Y-115522673D01*
X147559654Y-115477664D01*
X147528183Y-115432071D01*
X147507604Y-115413840D01*
X147455303Y-115367505D01*
X147400852Y-115319266D01*
X147250225Y-115240210D01*
X147244409Y-115238776D01*
X147244408Y-115238776D01*
X147169239Y-115220249D01*
X147117360Y-115188080D01*
X147094213Y-115131595D01*
X147108598Y-115072270D01*
X147147717Y-115038911D01*
X147147113Y-115038007D01*
X147154805Y-115032867D01*
X147213434Y-114993692D01*
X147257749Y-114927371D01*
X147269382Y-114868888D01*
X147269382Y-114745911D01*
X147494355Y-114745911D01*
X147495077Y-114751857D01*
X147514137Y-114908836D01*
X147514138Y-114908843D01*
X147514860Y-114914783D01*
X147516982Y-114920379D01*
X147516983Y-114920382D01*
X147559643Y-115032867D01*
X147575182Y-115073841D01*
X147578579Y-115078762D01*
X147578581Y-115078766D01*
X147661919Y-115199500D01*
X147671817Y-115213840D01*
X147676297Y-115217809D01*
X147676299Y-115217811D01*
X147699964Y-115238776D01*
X147799148Y-115326645D01*
X147949775Y-115405701D01*
X148114944Y-115446411D01*
X148279068Y-115446411D01*
X148285056Y-115446411D01*
X148450225Y-115405701D01*
X148600852Y-115326645D01*
X148728183Y-115213840D01*
X148824818Y-115073841D01*
X148885140Y-114914783D01*
X148905645Y-114745911D01*
X148885140Y-114577039D01*
X148824818Y-114417981D01*
X148728183Y-114277982D01*
X148693035Y-114246844D01*
X148605334Y-114169148D01*
X148600852Y-114165177D01*
X148450225Y-114086121D01*
X148444409Y-114084687D01*
X148444408Y-114084687D01*
X148290871Y-114046844D01*
X148290868Y-114046843D01*
X148285056Y-114045411D01*
X148114944Y-114045411D01*
X148109131Y-114046843D01*
X148109128Y-114046844D01*
X147955591Y-114084687D01*
X147955587Y-114084688D01*
X147949775Y-114086121D01*
X147944476Y-114088901D01*
X147944471Y-114088904D01*
X147804451Y-114162393D01*
X147804446Y-114162396D01*
X147799148Y-114165177D01*
X147794667Y-114169145D01*
X147794665Y-114169148D01*
X147676299Y-114274010D01*
X147676293Y-114274016D01*
X147671817Y-114277982D01*
X147668417Y-114282907D01*
X147668414Y-114282911D01*
X147578581Y-114413055D01*
X147578577Y-114413062D01*
X147575182Y-114417981D01*
X147573061Y-114423571D01*
X147573060Y-114423575D01*
X147516983Y-114571439D01*
X147516981Y-114571444D01*
X147514860Y-114577039D01*
X147514139Y-114582976D01*
X147514137Y-114582985D01*
X147509209Y-114623575D01*
X147494355Y-114745911D01*
X147269382Y-114745911D01*
X147269382Y-112745911D01*
X147694355Y-112745911D01*
X147695077Y-112751857D01*
X147714137Y-112908836D01*
X147714138Y-112908843D01*
X147714860Y-112914783D01*
X147716982Y-112920379D01*
X147716983Y-112920382D01*
X147758983Y-113031128D01*
X147775182Y-113073841D01*
X147778579Y-113078762D01*
X147778581Y-113078766D01*
X147858160Y-113194054D01*
X147871817Y-113213840D01*
X147876297Y-113217809D01*
X147876299Y-113217811D01*
X147880915Y-113221900D01*
X147999148Y-113326645D01*
X148149775Y-113405701D01*
X148314944Y-113446411D01*
X148479068Y-113446411D01*
X148485056Y-113446411D01*
X148650225Y-113405701D01*
X148800852Y-113326645D01*
X148928183Y-113213840D01*
X149024818Y-113073841D01*
X149085140Y-112914783D01*
X149105645Y-112745911D01*
X149085140Y-112577039D01*
X149024818Y-112417981D01*
X148928183Y-112277982D01*
X148914309Y-112265691D01*
X148809950Y-112173237D01*
X148800852Y-112165177D01*
X148754629Y-112140917D01*
X148655528Y-112088904D01*
X148655526Y-112088903D01*
X148650225Y-112086121D01*
X148644409Y-112084687D01*
X148644408Y-112084687D01*
X148490871Y-112046844D01*
X148490868Y-112046843D01*
X148485056Y-112045411D01*
X148314944Y-112045411D01*
X148309131Y-112046843D01*
X148309128Y-112046844D01*
X148155591Y-112084687D01*
X148155587Y-112084688D01*
X148149775Y-112086121D01*
X148144476Y-112088901D01*
X148144471Y-112088904D01*
X148004451Y-112162393D01*
X148004446Y-112162396D01*
X147999148Y-112165177D01*
X147994667Y-112169145D01*
X147994665Y-112169148D01*
X147876299Y-112274010D01*
X147876293Y-112274016D01*
X147871817Y-112277982D01*
X147868417Y-112282907D01*
X147868414Y-112282911D01*
X147778581Y-112413055D01*
X147778577Y-112413062D01*
X147775182Y-112417981D01*
X147773061Y-112423571D01*
X147773060Y-112423575D01*
X147716983Y-112571439D01*
X147716981Y-112571444D01*
X147714860Y-112577039D01*
X147714139Y-112582976D01*
X147714137Y-112582985D01*
X147709250Y-112623237D01*
X147694355Y-112745911D01*
X147269382Y-112745911D01*
X147269382Y-112429392D01*
X147257749Y-112370909D01*
X147213434Y-112304588D01*
X147205323Y-112299168D01*
X147155222Y-112265691D01*
X147155220Y-112265690D01*
X147147113Y-112260273D01*
X147137549Y-112258370D01*
X147137548Y-112258370D01*
X147093393Y-112249587D01*
X147093388Y-112249586D01*
X147088630Y-112248640D01*
X144649134Y-112248640D01*
X144644376Y-112249586D01*
X144644370Y-112249587D01*
X144600215Y-112258370D01*
X144600212Y-112258371D01*
X144590651Y-112260273D01*
X144582545Y-112265689D01*
X144582541Y-112265691D01*
X144532440Y-112299168D01*
X144532437Y-112299170D01*
X144524330Y-112304588D01*
X144518912Y-112312695D01*
X144518910Y-112312698D01*
X144485433Y-112362799D01*
X144485431Y-112362803D01*
X144480015Y-112370909D01*
X144478113Y-112380470D01*
X144478112Y-112380473D01*
X144469329Y-112424628D01*
X144469328Y-112424634D01*
X144468382Y-112429392D01*
X144468382Y-114868888D01*
X144480015Y-114927371D01*
X144524330Y-114993692D01*
X144590651Y-115038007D01*
X144600216Y-115039909D01*
X144605936Y-115042279D01*
X144652383Y-115081889D01*
X144666767Y-115141213D01*
X144643620Y-115197696D01*
X144591742Y-115229866D01*
X144555590Y-115238776D01*
X144555584Y-115238778D01*
X144549775Y-115240210D01*
X144544476Y-115242990D01*
X144544471Y-115242993D01*
X144404451Y-115316482D01*
X144404446Y-115316485D01*
X144399148Y-115319266D01*
X144394667Y-115323234D01*
X144394665Y-115323237D01*
X144276299Y-115428099D01*
X144276293Y-115428105D01*
X144271817Y-115432071D01*
X144268417Y-115436996D01*
X144268414Y-115437000D01*
X144178581Y-115567144D01*
X144178577Y-115567151D01*
X144175182Y-115572070D01*
X144173061Y-115577660D01*
X144173060Y-115577664D01*
X144116983Y-115725528D01*
X144116981Y-115725533D01*
X144114860Y-115731128D01*
X144114139Y-115737065D01*
X144114137Y-115737074D01*
X144107219Y-115794054D01*
X144094355Y-115900000D01*
X142793503Y-115900000D01*
X142805645Y-115800000D01*
X142785140Y-115631128D01*
X142724818Y-115472070D01*
X142697208Y-115432071D01*
X142631585Y-115337000D01*
X142628183Y-115332071D01*
X142622058Y-115326645D01*
X142505334Y-115223237D01*
X142500852Y-115219266D01*
X142480814Y-115208749D01*
X142355528Y-115142993D01*
X142355526Y-115142992D01*
X142350225Y-115140210D01*
X142344409Y-115138776D01*
X142344408Y-115138776D01*
X142190871Y-115100933D01*
X142190868Y-115100932D01*
X142185056Y-115099500D01*
X142014944Y-115099500D01*
X142009131Y-115100932D01*
X142009128Y-115100933D01*
X141855591Y-115138776D01*
X141855587Y-115138777D01*
X141849775Y-115140210D01*
X141844476Y-115142990D01*
X141844471Y-115142993D01*
X141704451Y-115216482D01*
X141704446Y-115216485D01*
X141699148Y-115219266D01*
X141694667Y-115223234D01*
X141694665Y-115223237D01*
X141576299Y-115328099D01*
X141576293Y-115328105D01*
X141571817Y-115332071D01*
X141568417Y-115336996D01*
X141568414Y-115337000D01*
X141478581Y-115467144D01*
X141478577Y-115467151D01*
X141475182Y-115472070D01*
X141473061Y-115477660D01*
X141473060Y-115477664D01*
X141416983Y-115625528D01*
X141416981Y-115625533D01*
X141414860Y-115631128D01*
X141414139Y-115637065D01*
X141414137Y-115637074D01*
X141395388Y-115791487D01*
X141394355Y-115800000D01*
X106257142Y-115800000D01*
X106257093Y-114945911D01*
X142794355Y-114945911D01*
X142795077Y-114951857D01*
X142814137Y-115108836D01*
X142814138Y-115108843D01*
X142814860Y-115114783D01*
X142816982Y-115120379D01*
X142816983Y-115120382D01*
X142862806Y-115241207D01*
X142875182Y-115273841D01*
X142878579Y-115278762D01*
X142878581Y-115278766D01*
X142918778Y-115337000D01*
X142971817Y-115413840D01*
X142976297Y-115417809D01*
X142976299Y-115417811D01*
X143008582Y-115446411D01*
X143099148Y-115526645D01*
X143249775Y-115605701D01*
X143414944Y-115646411D01*
X143579068Y-115646411D01*
X143585056Y-115646411D01*
X143750225Y-115605701D01*
X143900852Y-115526645D01*
X144028183Y-115413840D01*
X144124818Y-115273841D01*
X144185140Y-115114783D01*
X144205645Y-114945911D01*
X144185140Y-114777039D01*
X144124818Y-114617981D01*
X144028183Y-114477982D01*
X143900852Y-114365177D01*
X143750225Y-114286121D01*
X143744409Y-114284687D01*
X143744408Y-114284687D01*
X143590871Y-114246844D01*
X143590868Y-114246843D01*
X143585056Y-114245411D01*
X143414944Y-114245411D01*
X143409131Y-114246843D01*
X143409128Y-114246844D01*
X143255591Y-114284687D01*
X143255587Y-114284688D01*
X143249775Y-114286121D01*
X143244476Y-114288901D01*
X143244471Y-114288904D01*
X143104451Y-114362393D01*
X143104446Y-114362396D01*
X143099148Y-114365177D01*
X143094667Y-114369145D01*
X143094665Y-114369148D01*
X142976299Y-114474010D01*
X142976293Y-114474016D01*
X142971817Y-114477982D01*
X142968417Y-114482907D01*
X142968414Y-114482911D01*
X142878581Y-114613055D01*
X142878577Y-114613062D01*
X142875182Y-114617981D01*
X142873061Y-114623571D01*
X142873060Y-114623575D01*
X142816983Y-114771439D01*
X142816981Y-114771444D01*
X142814860Y-114777039D01*
X142814139Y-114782976D01*
X142814137Y-114782985D01*
X142797455Y-114920382D01*
X142794355Y-114945911D01*
X106257093Y-114945911D01*
X106256992Y-113200000D01*
X112194355Y-113200000D01*
X112195077Y-113205946D01*
X112214137Y-113362925D01*
X112214138Y-113362932D01*
X112214860Y-113368872D01*
X112216982Y-113374468D01*
X112216983Y-113374471D01*
X112230378Y-113409790D01*
X112275182Y-113527930D01*
X112278579Y-113532851D01*
X112278581Y-113532855D01*
X112368414Y-113662999D01*
X112371817Y-113667929D01*
X112499148Y-113780734D01*
X112649775Y-113859790D01*
X112814944Y-113900500D01*
X112979068Y-113900500D01*
X112985056Y-113900500D01*
X113150225Y-113859790D01*
X113300852Y-113780734D01*
X113428183Y-113667929D01*
X113524818Y-113527930D01*
X113585140Y-113368872D01*
X113605645Y-113200000D01*
X115394355Y-113200000D01*
X115395077Y-113205946D01*
X115414137Y-113362925D01*
X115414138Y-113362932D01*
X115414860Y-113368872D01*
X115416982Y-113374468D01*
X115416983Y-113374471D01*
X115430378Y-113409790D01*
X115475182Y-113527930D01*
X115478579Y-113532851D01*
X115478581Y-113532855D01*
X115568414Y-113662999D01*
X115571817Y-113667929D01*
X115699148Y-113780734D01*
X115849775Y-113859790D01*
X116014944Y-113900500D01*
X116179068Y-113900500D01*
X116185056Y-113900500D01*
X116350225Y-113859790D01*
X116500852Y-113780734D01*
X116628183Y-113667929D01*
X116724818Y-113527930D01*
X116785140Y-113368872D01*
X116805645Y-113200000D01*
X117994355Y-113200000D01*
X117995077Y-113205946D01*
X118014137Y-113362925D01*
X118014138Y-113362932D01*
X118014860Y-113368872D01*
X118016982Y-113374468D01*
X118016983Y-113374471D01*
X118030378Y-113409790D01*
X118075182Y-113527930D01*
X118078579Y-113532851D01*
X118078581Y-113532855D01*
X118168414Y-113662999D01*
X118171817Y-113667929D01*
X118299148Y-113780734D01*
X118449775Y-113859790D01*
X118614944Y-113900500D01*
X118779068Y-113900500D01*
X118785056Y-113900500D01*
X118950225Y-113859790D01*
X119100852Y-113780734D01*
X119228183Y-113667929D01*
X119324818Y-113527930D01*
X119385140Y-113368872D01*
X119405645Y-113200000D01*
X119390326Y-113073841D01*
X119385862Y-113037074D01*
X119385861Y-113037073D01*
X119385140Y-113031128D01*
X119324818Y-112872070D01*
X119240559Y-112750000D01*
X142769355Y-112750000D01*
X142770077Y-112755946D01*
X142789137Y-112912925D01*
X142789138Y-112912932D01*
X142789860Y-112918872D01*
X142791982Y-112924468D01*
X142791983Y-112924471D01*
X142846509Y-113068246D01*
X142850182Y-113077930D01*
X142853579Y-113082851D01*
X142853581Y-113082855D01*
X142930337Y-113194054D01*
X142946817Y-113217929D01*
X143074148Y-113330734D01*
X143224775Y-113409790D01*
X143389944Y-113450500D01*
X143554068Y-113450500D01*
X143560056Y-113450500D01*
X143725225Y-113409790D01*
X143875852Y-113330734D01*
X144003183Y-113217929D01*
X144099818Y-113077930D01*
X144160140Y-112918872D01*
X144180645Y-112750000D01*
X144160140Y-112581128D01*
X144099818Y-112422070D01*
X144093595Y-112413055D01*
X144058376Y-112362031D01*
X144003183Y-112282071D01*
X143998567Y-112277982D01*
X143880334Y-112173237D01*
X143875852Y-112169266D01*
X143870548Y-112166482D01*
X143730528Y-112092993D01*
X143730526Y-112092992D01*
X143725225Y-112090210D01*
X143719409Y-112088776D01*
X143719408Y-112088776D01*
X143565871Y-112050933D01*
X143565868Y-112050932D01*
X143560056Y-112049500D01*
X143389944Y-112049500D01*
X143384131Y-112050932D01*
X143384128Y-112050933D01*
X143230591Y-112088776D01*
X143230587Y-112088777D01*
X143224775Y-112090210D01*
X143219476Y-112092990D01*
X143219471Y-112092993D01*
X143079451Y-112166482D01*
X143079446Y-112166485D01*
X143074148Y-112169266D01*
X143069667Y-112173234D01*
X143069665Y-112173237D01*
X142951299Y-112278099D01*
X142951293Y-112278105D01*
X142946817Y-112282071D01*
X142943417Y-112286996D01*
X142943414Y-112287000D01*
X142853581Y-112417144D01*
X142853577Y-112417151D01*
X142850182Y-112422070D01*
X142848061Y-112427660D01*
X142848060Y-112427664D01*
X142791983Y-112575528D01*
X142791981Y-112575533D01*
X142789860Y-112581128D01*
X142789139Y-112587065D01*
X142789137Y-112587074D01*
X142770573Y-112739965D01*
X142769355Y-112750000D01*
X119240559Y-112750000D01*
X119228183Y-112732071D01*
X119100852Y-112619266D01*
X119039516Y-112587074D01*
X118955528Y-112542993D01*
X118955526Y-112542992D01*
X118950225Y-112540210D01*
X118944409Y-112538776D01*
X118944408Y-112538776D01*
X118790871Y-112500933D01*
X118790868Y-112500932D01*
X118785056Y-112499500D01*
X118614944Y-112499500D01*
X118609131Y-112500932D01*
X118609128Y-112500933D01*
X118455591Y-112538776D01*
X118455587Y-112538777D01*
X118449775Y-112540210D01*
X118444476Y-112542990D01*
X118444471Y-112542993D01*
X118304451Y-112616482D01*
X118304446Y-112616485D01*
X118299148Y-112619266D01*
X118294667Y-112623234D01*
X118294665Y-112623237D01*
X118176299Y-112728099D01*
X118176293Y-112728105D01*
X118171817Y-112732071D01*
X118168417Y-112736996D01*
X118168414Y-112737000D01*
X118078581Y-112867144D01*
X118078577Y-112867151D01*
X118075182Y-112872070D01*
X118073061Y-112877660D01*
X118073060Y-112877664D01*
X118016983Y-113025528D01*
X118016981Y-113025533D01*
X118014860Y-113031128D01*
X118014139Y-113037065D01*
X118014137Y-113037074D01*
X117995388Y-113191487D01*
X117994355Y-113200000D01*
X116805645Y-113200000D01*
X116790326Y-113073841D01*
X116785862Y-113037074D01*
X116785861Y-113037073D01*
X116785140Y-113031128D01*
X116724818Y-112872070D01*
X116628183Y-112732071D01*
X116500852Y-112619266D01*
X116439516Y-112587074D01*
X116355528Y-112542993D01*
X116355526Y-112542992D01*
X116350225Y-112540210D01*
X116344409Y-112538776D01*
X116344408Y-112538776D01*
X116190871Y-112500933D01*
X116190868Y-112500932D01*
X116185056Y-112499500D01*
X116014944Y-112499500D01*
X116009131Y-112500932D01*
X116009128Y-112500933D01*
X115855591Y-112538776D01*
X115855587Y-112538777D01*
X115849775Y-112540210D01*
X115844476Y-112542990D01*
X115844471Y-112542993D01*
X115704451Y-112616482D01*
X115704446Y-112616485D01*
X115699148Y-112619266D01*
X115694667Y-112623234D01*
X115694665Y-112623237D01*
X115576299Y-112728099D01*
X115576293Y-112728105D01*
X115571817Y-112732071D01*
X115568417Y-112736996D01*
X115568414Y-112737000D01*
X115478581Y-112867144D01*
X115478577Y-112867151D01*
X115475182Y-112872070D01*
X115473061Y-112877660D01*
X115473060Y-112877664D01*
X115416983Y-113025528D01*
X115416981Y-113025533D01*
X115414860Y-113031128D01*
X115414139Y-113037065D01*
X115414137Y-113037074D01*
X115395388Y-113191487D01*
X115394355Y-113200000D01*
X113605645Y-113200000D01*
X113590326Y-113073841D01*
X113585862Y-113037074D01*
X113585861Y-113037073D01*
X113585140Y-113031128D01*
X113524818Y-112872070D01*
X113428183Y-112732071D01*
X113300852Y-112619266D01*
X113239516Y-112587074D01*
X113155528Y-112542993D01*
X113155526Y-112542992D01*
X113150225Y-112540210D01*
X113144409Y-112538776D01*
X113144408Y-112538776D01*
X112990871Y-112500933D01*
X112990868Y-112500932D01*
X112985056Y-112499500D01*
X112814944Y-112499500D01*
X112809131Y-112500932D01*
X112809128Y-112500933D01*
X112655591Y-112538776D01*
X112655587Y-112538777D01*
X112649775Y-112540210D01*
X112644476Y-112542990D01*
X112644471Y-112542993D01*
X112504451Y-112616482D01*
X112504446Y-112616485D01*
X112499148Y-112619266D01*
X112494667Y-112623234D01*
X112494665Y-112623237D01*
X112376299Y-112728099D01*
X112376293Y-112728105D01*
X112371817Y-112732071D01*
X112368417Y-112736996D01*
X112368414Y-112737000D01*
X112278581Y-112867144D01*
X112278577Y-112867151D01*
X112275182Y-112872070D01*
X112273061Y-112877660D01*
X112273060Y-112877664D01*
X112216983Y-113025528D01*
X112216981Y-113025533D01*
X112214860Y-113031128D01*
X112214139Y-113037065D01*
X112214137Y-113037074D01*
X112195388Y-113191487D01*
X112194355Y-113200000D01*
X106256992Y-113200000D01*
X106256863Y-110962634D01*
X112269818Y-110962634D01*
X112270298Y-110966593D01*
X112270299Y-110966600D01*
X112299511Y-111207184D01*
X112299512Y-111207192D01*
X112299993Y-111211148D01*
X112301103Y-111214982D01*
X112301104Y-111214984D01*
X112368529Y-111447766D01*
X112368531Y-111447772D01*
X112369641Y-111451603D01*
X112371349Y-111455203D01*
X112371350Y-111455205D01*
X112469949Y-111662999D01*
X112476959Y-111677771D01*
X112479223Y-111681051D01*
X112479226Y-111681056D01*
X112600676Y-111857006D01*
X112619168Y-111883796D01*
X112621933Y-111886675D01*
X112621935Y-111886677D01*
X112775778Y-112046844D01*
X112792584Y-112064340D01*
X112992715Y-112214729D01*
X113214379Y-112331068D01*
X113451834Y-112410342D01*
X113698931Y-112450499D01*
X114884580Y-112450499D01*
X114886581Y-112450499D01*
X115073627Y-112435399D01*
X115316691Y-112375489D01*
X115546997Y-112277365D01*
X115758581Y-112143567D01*
X115945962Y-111977562D01*
X116104288Y-111783649D01*
X116229457Y-111566849D01*
X116318228Y-111332779D01*
X116345335Y-111200000D01*
X117994355Y-111200000D01*
X117995077Y-111205946D01*
X118014137Y-111362925D01*
X118014138Y-111362932D01*
X118014860Y-111368872D01*
X118016982Y-111374468D01*
X118016983Y-111374471D01*
X118040347Y-111436076D01*
X118075182Y-111527930D01*
X118078579Y-111532851D01*
X118078581Y-111532855D01*
X118089702Y-111548966D01*
X118171817Y-111667929D01*
X118176297Y-111671898D01*
X118176299Y-111671900D01*
X118182926Y-111677771D01*
X118299148Y-111780734D01*
X118449775Y-111859790D01*
X118614944Y-111900500D01*
X118779068Y-111900500D01*
X118785056Y-111900500D01*
X118950225Y-111859790D01*
X119100852Y-111780734D01*
X119228183Y-111667929D01*
X119324818Y-111527930D01*
X119385140Y-111368872D01*
X119405645Y-111200000D01*
X119385140Y-111031128D01*
X119324818Y-110872070D01*
X119228183Y-110732071D01*
X119210592Y-110716487D01*
X119105334Y-110623237D01*
X119100852Y-110619266D01*
X119074509Y-110605440D01*
X118955528Y-110542993D01*
X118955526Y-110542992D01*
X118950225Y-110540210D01*
X118944409Y-110538776D01*
X118944408Y-110538776D01*
X118790871Y-110500933D01*
X118790868Y-110500932D01*
X118785056Y-110499500D01*
X118614944Y-110499500D01*
X118609131Y-110500932D01*
X118609128Y-110500933D01*
X118455591Y-110538776D01*
X118455587Y-110538777D01*
X118449775Y-110540210D01*
X118444476Y-110542990D01*
X118444471Y-110542993D01*
X118304451Y-110616482D01*
X118304446Y-110616485D01*
X118299148Y-110619266D01*
X118294667Y-110623234D01*
X118294665Y-110623237D01*
X118176299Y-110728099D01*
X118176293Y-110728105D01*
X118171817Y-110732071D01*
X118168417Y-110736996D01*
X118168414Y-110737000D01*
X118078581Y-110867144D01*
X118078577Y-110867151D01*
X118075182Y-110872070D01*
X118073061Y-110877660D01*
X118073060Y-110877664D01*
X118016983Y-111025528D01*
X118016981Y-111025533D01*
X118014860Y-111031128D01*
X118014139Y-111037065D01*
X118014137Y-111037074D01*
X117996779Y-111180039D01*
X117994355Y-111200000D01*
X116345335Y-111200000D01*
X116368302Y-111087499D01*
X116378382Y-110837364D01*
X116348207Y-110588850D01*
X116278559Y-110348395D01*
X116171241Y-110122227D01*
X116029032Y-109916202D01*
X116013470Y-109900000D01*
X116694355Y-109900000D01*
X116695077Y-109905946D01*
X116714137Y-110062925D01*
X116714138Y-110062932D01*
X116714860Y-110068872D01*
X116716982Y-110074468D01*
X116716983Y-110074471D01*
X116736460Y-110125827D01*
X116775182Y-110227930D01*
X116778579Y-110232851D01*
X116778581Y-110232855D01*
X116860981Y-110352231D01*
X116871817Y-110367929D01*
X116876297Y-110371898D01*
X116876299Y-110371900D01*
X116890419Y-110384409D01*
X116999148Y-110480734D01*
X117149775Y-110559790D01*
X117314944Y-110600500D01*
X117479068Y-110600500D01*
X117485056Y-110600500D01*
X117650225Y-110559790D01*
X117800852Y-110480734D01*
X117928183Y-110367929D01*
X118024818Y-110227930D01*
X118054699Y-110149140D01*
X144463582Y-110149140D01*
X144482748Y-110380445D01*
X144483752Y-110384409D01*
X144538721Y-110601478D01*
X144538723Y-110601485D01*
X144539725Y-110605440D01*
X144545790Y-110619266D01*
X144631316Y-110814247D01*
X144631319Y-110814252D01*
X144632958Y-110817989D01*
X144759903Y-111012293D01*
X144762671Y-111015300D01*
X144762672Y-111015301D01*
X144829134Y-111087499D01*
X144917098Y-111183053D01*
X144920326Y-111185565D01*
X144920331Y-111185570D01*
X144958123Y-111214984D01*
X145100256Y-111325610D01*
X145304379Y-111436076D01*
X145523901Y-111511438D01*
X145752833Y-111549640D01*
X145980837Y-111549640D01*
X145984931Y-111549640D01*
X146213863Y-111511438D01*
X146433385Y-111436076D01*
X146637508Y-111325610D01*
X146820666Y-111183053D01*
X146977861Y-111012293D01*
X147104806Y-110817989D01*
X147198039Y-110605440D01*
X147255016Y-110380445D01*
X147274182Y-110149140D01*
X147255016Y-109917835D01*
X147198039Y-109692840D01*
X147104806Y-109480291D01*
X146977861Y-109285987D01*
X146938282Y-109242993D01*
X146823440Y-109118240D01*
X146823437Y-109118237D01*
X146820666Y-109115227D01*
X146817438Y-109112714D01*
X146817432Y-109112709D01*
X146673264Y-109000500D01*
X146637508Y-108972670D01*
X146633912Y-108970724D01*
X146633906Y-108970720D01*
X146436985Y-108864152D01*
X146436982Y-108864151D01*
X146433385Y-108862204D01*
X146429511Y-108860874D01*
X146217730Y-108788169D01*
X146217723Y-108788167D01*
X146213863Y-108786842D01*
X146209833Y-108786169D01*
X146209831Y-108786169D01*
X145988967Y-108749313D01*
X145988961Y-108749312D01*
X145984931Y-108748640D01*
X145752833Y-108748640D01*
X145748803Y-108749312D01*
X145748796Y-108749313D01*
X145527932Y-108786169D01*
X145527928Y-108786170D01*
X145523901Y-108786842D01*
X145520042Y-108788166D01*
X145520033Y-108788169D01*
X145308252Y-108860874D01*
X145308247Y-108860875D01*
X145304379Y-108862204D01*
X145300785Y-108864148D01*
X145300778Y-108864152D01*
X145103857Y-108970720D01*
X145103846Y-108970727D01*
X145100256Y-108972670D01*
X145097025Y-108975184D01*
X145097023Y-108975186D01*
X144920331Y-109112709D01*
X144920319Y-109112719D01*
X144917098Y-109115227D01*
X144914331Y-109118231D01*
X144914323Y-109118240D01*
X144762672Y-109282978D01*
X144762666Y-109282984D01*
X144759903Y-109285987D01*
X144757672Y-109289400D01*
X144757667Y-109289408D01*
X144635192Y-109476871D01*
X144632958Y-109480291D01*
X144631321Y-109484021D01*
X144631316Y-109484032D01*
X144541366Y-109689098D01*
X144539725Y-109692840D01*
X144538724Y-109696790D01*
X144538721Y-109696801D01*
X144488770Y-109894054D01*
X144482748Y-109917835D01*
X144463582Y-110149140D01*
X118054699Y-110149140D01*
X118085140Y-110068872D01*
X118105645Y-109900000D01*
X118085140Y-109731128D01*
X118024818Y-109572070D01*
X117928183Y-109432071D01*
X117919647Y-109424509D01*
X117834978Y-109349499D01*
X117800852Y-109319266D01*
X117795548Y-109316482D01*
X117655528Y-109242993D01*
X117655526Y-109242992D01*
X117650225Y-109240210D01*
X117644409Y-109238776D01*
X117644408Y-109238776D01*
X117490871Y-109200933D01*
X117490868Y-109200932D01*
X117485056Y-109199500D01*
X117314944Y-109199500D01*
X117309131Y-109200932D01*
X117309128Y-109200933D01*
X117155591Y-109238776D01*
X117155587Y-109238777D01*
X117149775Y-109240210D01*
X117144476Y-109242990D01*
X117144471Y-109242993D01*
X117004451Y-109316482D01*
X117004446Y-109316485D01*
X116999148Y-109319266D01*
X116994667Y-109323234D01*
X116994665Y-109323237D01*
X116876299Y-109428099D01*
X116876293Y-109428105D01*
X116871817Y-109432071D01*
X116868417Y-109436996D01*
X116868414Y-109437000D01*
X116778581Y-109567144D01*
X116778577Y-109567151D01*
X116775182Y-109572070D01*
X116773061Y-109577660D01*
X116773060Y-109577664D01*
X116716983Y-109725528D01*
X116716981Y-109725533D01*
X116714860Y-109731128D01*
X116714139Y-109737065D01*
X116714137Y-109737074D01*
X116695388Y-109891487D01*
X116694355Y-109900000D01*
X116013470Y-109900000D01*
X115858372Y-109738527D01*
X115858370Y-109738525D01*
X115855616Y-109735658D01*
X115852438Y-109733270D01*
X115852436Y-109733268D01*
X115658669Y-109587662D01*
X115655485Y-109585269D01*
X115651957Y-109583417D01*
X115651955Y-109583416D01*
X115437351Y-109470782D01*
X115437343Y-109470778D01*
X115433821Y-109468930D01*
X115323415Y-109432071D01*
X115200153Y-109390920D01*
X115200149Y-109390919D01*
X115196366Y-109389656D01*
X115192434Y-109389017D01*
X115192426Y-109389015D01*
X114953206Y-109350138D01*
X114953195Y-109350137D01*
X114949269Y-109349499D01*
X113761619Y-109349499D01*
X113759648Y-109349658D01*
X113759625Y-109349659D01*
X113578553Y-109364277D01*
X113578544Y-109364278D01*
X113574573Y-109364599D01*
X113570695Y-109365554D01*
X113570694Y-109365555D01*
X113335387Y-109423553D01*
X113335385Y-109423553D01*
X113331509Y-109424509D01*
X113327845Y-109426069D01*
X113327836Y-109426073D01*
X113104872Y-109521069D01*
X113104864Y-109521073D01*
X113101203Y-109522633D01*
X113097843Y-109524757D01*
X113097831Y-109524764D01*
X112892996Y-109654295D01*
X112892991Y-109654298D01*
X112889619Y-109656431D01*
X112886633Y-109659075D01*
X112886628Y-109659080D01*
X112705224Y-109819790D01*
X112705219Y-109819794D01*
X112702238Y-109822436D01*
X112699721Y-109825518D01*
X112699713Y-109825527D01*
X112546432Y-110013262D01*
X112543912Y-110016349D01*
X112541927Y-110019785D01*
X112541920Y-110019797D01*
X112420735Y-110229697D01*
X112420730Y-110229706D01*
X112418743Y-110233149D01*
X112417333Y-110236865D01*
X112417329Y-110236875D01*
X112331387Y-110463486D01*
X112331384Y-110463494D01*
X112329972Y-110467219D01*
X112329173Y-110471128D01*
X112329172Y-110471135D01*
X112298121Y-110623237D01*
X112279898Y-110712499D01*
X112279737Y-110716483D01*
X112279737Y-110716487D01*
X112269978Y-110958644D01*
X112269978Y-110958653D01*
X112269818Y-110962634D01*
X106256863Y-110962634D01*
X106256738Y-108800000D01*
X112369965Y-108800000D01*
X112370812Y-108806433D01*
X112380960Y-108883517D01*
X112388026Y-108937183D01*
X112390507Y-108943173D01*
X112390508Y-108943176D01*
X112401917Y-108970720D01*
X112440976Y-109065018D01*
X112525209Y-109174791D01*
X112634982Y-109259024D01*
X112762817Y-109311974D01*
X112900000Y-109330035D01*
X113037183Y-109311974D01*
X113165018Y-109259024D01*
X113274791Y-109174791D01*
X113359024Y-109065018D01*
X113411974Y-108937183D01*
X113430035Y-108800000D01*
X115469965Y-108800000D01*
X115470812Y-108806433D01*
X115480960Y-108883517D01*
X115488026Y-108937183D01*
X115490507Y-108943173D01*
X115490508Y-108943176D01*
X115501917Y-108970720D01*
X115540976Y-109065018D01*
X115625209Y-109174791D01*
X115734982Y-109259024D01*
X115862817Y-109311974D01*
X116000000Y-109330035D01*
X116137183Y-109311974D01*
X116265018Y-109259024D01*
X116374791Y-109174791D01*
X116459024Y-109065018D01*
X116511974Y-108937183D01*
X116530035Y-108800000D01*
X116511974Y-108662817D01*
X116459024Y-108534983D01*
X116374791Y-108425209D01*
X116265018Y-108340976D01*
X116180447Y-108305946D01*
X116166092Y-108300000D01*
X117994355Y-108300000D01*
X117995077Y-108305946D01*
X118014137Y-108462925D01*
X118014138Y-108462932D01*
X118014860Y-108468872D01*
X118016982Y-108474468D01*
X118016983Y-108474471D01*
X118039932Y-108534983D01*
X118075182Y-108627930D01*
X118078579Y-108632851D01*
X118078581Y-108632855D01*
X118099263Y-108662817D01*
X118171817Y-108767929D01*
X118299148Y-108880734D01*
X118449775Y-108959790D01*
X118614944Y-109000500D01*
X118779068Y-109000500D01*
X118785056Y-109000500D01*
X118950225Y-108959790D01*
X119100852Y-108880734D01*
X119228183Y-108767929D01*
X119324818Y-108627930D01*
X119385140Y-108468872D01*
X119405645Y-108300000D01*
X119385140Y-108131128D01*
X119324818Y-107972070D01*
X119303314Y-107940917D01*
X119231585Y-107837000D01*
X119228183Y-107832071D01*
X119169640Y-107780207D01*
X119105334Y-107723237D01*
X119100852Y-107719266D01*
X119038760Y-107686677D01*
X118955528Y-107642993D01*
X118955526Y-107642992D01*
X118950225Y-107640210D01*
X118944409Y-107638776D01*
X118944408Y-107638776D01*
X118790871Y-107600933D01*
X118790868Y-107600932D01*
X118785056Y-107599500D01*
X118614944Y-107599500D01*
X118609131Y-107600932D01*
X118609128Y-107600933D01*
X118455591Y-107638776D01*
X118455587Y-107638777D01*
X118449775Y-107640210D01*
X118444476Y-107642990D01*
X118444471Y-107642993D01*
X118304451Y-107716482D01*
X118304446Y-107716485D01*
X118299148Y-107719266D01*
X118294667Y-107723234D01*
X118294665Y-107723237D01*
X118176299Y-107828099D01*
X118176293Y-107828105D01*
X118171817Y-107832071D01*
X118168417Y-107836996D01*
X118168414Y-107837000D01*
X118078581Y-107967144D01*
X118078577Y-107967151D01*
X118075182Y-107972070D01*
X118073061Y-107977660D01*
X118073060Y-107977664D01*
X118016983Y-108125528D01*
X118016981Y-108125533D01*
X118014860Y-108131128D01*
X118014139Y-108137065D01*
X118014137Y-108137074D01*
X117998002Y-108269965D01*
X117994355Y-108300000D01*
X116166092Y-108300000D01*
X116143176Y-108290508D01*
X116143173Y-108290507D01*
X116137183Y-108288026D01*
X116130752Y-108287179D01*
X116130751Y-108287179D01*
X116006433Y-108270812D01*
X116000000Y-108269965D01*
X115993567Y-108270812D01*
X115869248Y-108287179D01*
X115869245Y-108287179D01*
X115862817Y-108288026D01*
X115856828Y-108290506D01*
X115856823Y-108290508D01*
X115740981Y-108338491D01*
X115740977Y-108338493D01*
X115734983Y-108340976D01*
X115729839Y-108344922D01*
X115729834Y-108344926D01*
X115630357Y-108421258D01*
X115630353Y-108421261D01*
X115625209Y-108425209D01*
X115621261Y-108430353D01*
X115621258Y-108430357D01*
X115544926Y-108529834D01*
X115544922Y-108529839D01*
X115540976Y-108534983D01*
X115538493Y-108540977D01*
X115538491Y-108540981D01*
X115490508Y-108656823D01*
X115490506Y-108656828D01*
X115488026Y-108662817D01*
X115469965Y-108800000D01*
X113430035Y-108800000D01*
X113411974Y-108662817D01*
X113359024Y-108534983D01*
X113274791Y-108425209D01*
X113165018Y-108340976D01*
X113080447Y-108305946D01*
X113043176Y-108290508D01*
X113043173Y-108290507D01*
X113037183Y-108288026D01*
X113030752Y-108287179D01*
X113030751Y-108287179D01*
X112906433Y-108270812D01*
X112900000Y-108269965D01*
X112893567Y-108270812D01*
X112769248Y-108287179D01*
X112769245Y-108287179D01*
X112762817Y-108288026D01*
X112756828Y-108290506D01*
X112756823Y-108290508D01*
X112640981Y-108338491D01*
X112640977Y-108338493D01*
X112634983Y-108340976D01*
X112629839Y-108344922D01*
X112629834Y-108344926D01*
X112530357Y-108421258D01*
X112530353Y-108421261D01*
X112525209Y-108425209D01*
X112521261Y-108430353D01*
X112521258Y-108430357D01*
X112444926Y-108529834D01*
X112444922Y-108529839D01*
X112440976Y-108534983D01*
X112438493Y-108540977D01*
X112438491Y-108540981D01*
X112390508Y-108656823D01*
X112390506Y-108656828D01*
X112388026Y-108662817D01*
X112369965Y-108800000D01*
X106256738Y-108800000D01*
X106256620Y-106762634D01*
X112269818Y-106762634D01*
X112270298Y-106766593D01*
X112270299Y-106766600D01*
X112299511Y-107007184D01*
X112299512Y-107007192D01*
X112299993Y-107011148D01*
X112301103Y-107014982D01*
X112301104Y-107014984D01*
X112368529Y-107247766D01*
X112368531Y-107247772D01*
X112369641Y-107251603D01*
X112371349Y-107255203D01*
X112371350Y-107255205D01*
X112469949Y-107462999D01*
X112476959Y-107477771D01*
X112479223Y-107481051D01*
X112479226Y-107481056D01*
X112561972Y-107600933D01*
X112619168Y-107683796D01*
X112621933Y-107686675D01*
X112621935Y-107686677D01*
X112711772Y-107780207D01*
X112792584Y-107864340D01*
X112992715Y-108014729D01*
X113214379Y-108131068D01*
X113451834Y-108210342D01*
X113698931Y-108250499D01*
X114884580Y-108250499D01*
X114886581Y-108250499D01*
X115073627Y-108235399D01*
X115316691Y-108175489D01*
X115546997Y-108077365D01*
X115758581Y-107943567D01*
X115945962Y-107777562D01*
X116104288Y-107583649D01*
X116229457Y-107366849D01*
X116318228Y-107132779D01*
X116345335Y-107000000D01*
X116694355Y-107000000D01*
X116695077Y-107005946D01*
X116714137Y-107162925D01*
X116714138Y-107162932D01*
X116714860Y-107168872D01*
X116775182Y-107327930D01*
X116778579Y-107332851D01*
X116778581Y-107332855D01*
X116868414Y-107462999D01*
X116871817Y-107467929D01*
X116876297Y-107471898D01*
X116876299Y-107471900D01*
X116926268Y-107516168D01*
X116999148Y-107580734D01*
X117149775Y-107659790D01*
X117314944Y-107700500D01*
X117479068Y-107700500D01*
X117485056Y-107700500D01*
X117650225Y-107659790D01*
X117800852Y-107580734D01*
X117928183Y-107467929D01*
X118024818Y-107327930D01*
X118085140Y-107168872D01*
X118088039Y-107145000D01*
X123369196Y-107145000D01*
X123370415Y-107152696D01*
X123386650Y-107255205D01*
X123390281Y-107278126D01*
X123451472Y-107398220D01*
X123546780Y-107493528D01*
X123666874Y-107554719D01*
X123800000Y-107575804D01*
X123933126Y-107554719D01*
X124053220Y-107493528D01*
X124148528Y-107398220D01*
X124209719Y-107278126D01*
X124230804Y-107145000D01*
X124209719Y-107011874D01*
X124148528Y-106891780D01*
X124053220Y-106796472D01*
X123933126Y-106735281D01*
X123925432Y-106734062D01*
X123925431Y-106734062D01*
X123807696Y-106715415D01*
X123800000Y-106714196D01*
X123792304Y-106715415D01*
X123674568Y-106734062D01*
X123674565Y-106734062D01*
X123666874Y-106735281D01*
X123659936Y-106738815D01*
X123659933Y-106738817D01*
X123553719Y-106792936D01*
X123553717Y-106792937D01*
X123546780Y-106796472D01*
X123541276Y-106801975D01*
X123541273Y-106801978D01*
X123456978Y-106886273D01*
X123456975Y-106886276D01*
X123451472Y-106891780D01*
X123447937Y-106898717D01*
X123447936Y-106898719D01*
X123393817Y-107004933D01*
X123393815Y-107004936D01*
X123390281Y-107011874D01*
X123369196Y-107145000D01*
X118088039Y-107145000D01*
X118105645Y-107000000D01*
X118085140Y-106831128D01*
X118024818Y-106672070D01*
X117928183Y-106532071D01*
X117910592Y-106516487D01*
X117805334Y-106423237D01*
X117800852Y-106419266D01*
X117785528Y-106411223D01*
X117655528Y-106342993D01*
X117655526Y-106342992D01*
X117650225Y-106340210D01*
X117644409Y-106338776D01*
X117644408Y-106338776D01*
X117490871Y-106300933D01*
X117490868Y-106300932D01*
X117485056Y-106299500D01*
X117314944Y-106299500D01*
X117309131Y-106300932D01*
X117309128Y-106300933D01*
X117155591Y-106338776D01*
X117155587Y-106338777D01*
X117149775Y-106340210D01*
X117144476Y-106342990D01*
X117144471Y-106342993D01*
X117004451Y-106416482D01*
X117004446Y-106416485D01*
X116999148Y-106419266D01*
X116994667Y-106423234D01*
X116994665Y-106423237D01*
X116876299Y-106528099D01*
X116876293Y-106528105D01*
X116871817Y-106532071D01*
X116868417Y-106536996D01*
X116868414Y-106537000D01*
X116778581Y-106667144D01*
X116778577Y-106667151D01*
X116775182Y-106672070D01*
X116773061Y-106677660D01*
X116773060Y-106677664D01*
X116716983Y-106825528D01*
X116716981Y-106825533D01*
X116714860Y-106831128D01*
X116714139Y-106837065D01*
X116714137Y-106837074D01*
X116695388Y-106991487D01*
X116694355Y-107000000D01*
X116345335Y-107000000D01*
X116368302Y-106887499D01*
X116378382Y-106637364D01*
X116348207Y-106388850D01*
X116278559Y-106148395D01*
X116171241Y-105922227D01*
X116052361Y-105750000D01*
X118004355Y-105750000D01*
X118005077Y-105755946D01*
X118024137Y-105912925D01*
X118024138Y-105912932D01*
X118024860Y-105918872D01*
X118026982Y-105924468D01*
X118026983Y-105924471D01*
X118066890Y-106029697D01*
X118085182Y-106077930D01*
X118088579Y-106082851D01*
X118088581Y-106082855D01*
X118178414Y-106212999D01*
X118181817Y-106217929D01*
X118309148Y-106330734D01*
X118459775Y-106409790D01*
X118624944Y-106450500D01*
X118789068Y-106450500D01*
X118795056Y-106450500D01*
X118960225Y-106409790D01*
X119110852Y-106330734D01*
X119238183Y-106217929D01*
X119334818Y-106077930D01*
X119395140Y-105918872D01*
X119415645Y-105750000D01*
X119395140Y-105581128D01*
X119334818Y-105422070D01*
X119241659Y-105287107D01*
X144482799Y-105287107D01*
X144483745Y-105291865D01*
X144483746Y-105291870D01*
X144490289Y-105324764D01*
X144494432Y-105345590D01*
X144538747Y-105411911D01*
X144605068Y-105456226D01*
X144663551Y-105467859D01*
X147098189Y-105467859D01*
X147103047Y-105467859D01*
X147161530Y-105456226D01*
X147227851Y-105411911D01*
X147272166Y-105345590D01*
X147283799Y-105287107D01*
X147283799Y-102847611D01*
X147272166Y-102789128D01*
X147227851Y-102722807D01*
X147219740Y-102717387D01*
X147169639Y-102683910D01*
X147169637Y-102683909D01*
X147161530Y-102678492D01*
X147151966Y-102676589D01*
X147151965Y-102676589D01*
X147107810Y-102667806D01*
X147107805Y-102667805D01*
X147103047Y-102666859D01*
X144663551Y-102666859D01*
X144658793Y-102667805D01*
X144658787Y-102667806D01*
X144614632Y-102676589D01*
X144614629Y-102676590D01*
X144605068Y-102678492D01*
X144596962Y-102683908D01*
X144596958Y-102683910D01*
X144546857Y-102717387D01*
X144546854Y-102717389D01*
X144538747Y-102722807D01*
X144533329Y-102730914D01*
X144533327Y-102730917D01*
X144499850Y-102781018D01*
X144499848Y-102781022D01*
X144494432Y-102789128D01*
X144492530Y-102798689D01*
X144492529Y-102798692D01*
X144483746Y-102842847D01*
X144483745Y-102842853D01*
X144482799Y-102847611D01*
X144482799Y-105287107D01*
X119241659Y-105287107D01*
X119238183Y-105282071D01*
X119225440Y-105270782D01*
X119135294Y-105190920D01*
X119110852Y-105169266D01*
X119105548Y-105166482D01*
X118965528Y-105092993D01*
X118965526Y-105092992D01*
X118960225Y-105090210D01*
X118954409Y-105088776D01*
X118954408Y-105088776D01*
X118800871Y-105050933D01*
X118800868Y-105050932D01*
X118795056Y-105049500D01*
X118624944Y-105049500D01*
X118619131Y-105050932D01*
X118619128Y-105050933D01*
X118465591Y-105088776D01*
X118465587Y-105088777D01*
X118459775Y-105090210D01*
X118454476Y-105092990D01*
X118454471Y-105092993D01*
X118314451Y-105166482D01*
X118314446Y-105166485D01*
X118309148Y-105169266D01*
X118304667Y-105173234D01*
X118304665Y-105173237D01*
X118186299Y-105278099D01*
X118186293Y-105278105D01*
X118181817Y-105282071D01*
X118178417Y-105286996D01*
X118178414Y-105287000D01*
X118088581Y-105417144D01*
X118088577Y-105417151D01*
X118085182Y-105422070D01*
X118083061Y-105427660D01*
X118083060Y-105427664D01*
X118026983Y-105575528D01*
X118026981Y-105575533D01*
X118024860Y-105581128D01*
X118024139Y-105587065D01*
X118024137Y-105587074D01*
X118008809Y-105713320D01*
X118004355Y-105750000D01*
X116052361Y-105750000D01*
X116029032Y-105716202D01*
X115938968Y-105622436D01*
X115858372Y-105538527D01*
X115858370Y-105538525D01*
X115855616Y-105535658D01*
X115852438Y-105533270D01*
X115852436Y-105533268D01*
X115658669Y-105387662D01*
X115655485Y-105385269D01*
X115651957Y-105383417D01*
X115651955Y-105383416D01*
X115437351Y-105270782D01*
X115437343Y-105270778D01*
X115433821Y-105268930D01*
X115430038Y-105267667D01*
X115200153Y-105190920D01*
X115200149Y-105190919D01*
X115196366Y-105189656D01*
X115192434Y-105189017D01*
X115192426Y-105189015D01*
X114953206Y-105150138D01*
X114953195Y-105150137D01*
X114949269Y-105149499D01*
X113761619Y-105149499D01*
X113759648Y-105149658D01*
X113759625Y-105149659D01*
X113578553Y-105164277D01*
X113578544Y-105164278D01*
X113574573Y-105164599D01*
X113570695Y-105165554D01*
X113570694Y-105165555D01*
X113335387Y-105223553D01*
X113335385Y-105223553D01*
X113331509Y-105224509D01*
X113327845Y-105226069D01*
X113327836Y-105226073D01*
X113104872Y-105321069D01*
X113104864Y-105321073D01*
X113101203Y-105322633D01*
X113097843Y-105324757D01*
X113097831Y-105324764D01*
X112892996Y-105454295D01*
X112892991Y-105454298D01*
X112889619Y-105456431D01*
X112886633Y-105459075D01*
X112886628Y-105459080D01*
X112705224Y-105619790D01*
X112705219Y-105619794D01*
X112702238Y-105622436D01*
X112699721Y-105625518D01*
X112699713Y-105625527D01*
X112546432Y-105813262D01*
X112543912Y-105816349D01*
X112541927Y-105819785D01*
X112541920Y-105819797D01*
X112420735Y-106029697D01*
X112420730Y-106029706D01*
X112418743Y-106033149D01*
X112417333Y-106036865D01*
X112417329Y-106036875D01*
X112331387Y-106263486D01*
X112331384Y-106263494D01*
X112329972Y-106267219D01*
X112329173Y-106271128D01*
X112329172Y-106271135D01*
X112298121Y-106423237D01*
X112279898Y-106512499D01*
X112279737Y-106516483D01*
X112279737Y-106516487D01*
X112269978Y-106758644D01*
X112269978Y-106758653D01*
X112269818Y-106762634D01*
X106256620Y-106762634D01*
X106256378Y-102562634D01*
X112269818Y-102562634D01*
X112270298Y-102566593D01*
X112270299Y-102566600D01*
X112299511Y-102807184D01*
X112299512Y-102807192D01*
X112299993Y-102811148D01*
X112301103Y-102814982D01*
X112301104Y-102814984D01*
X112368529Y-103047766D01*
X112368531Y-103047772D01*
X112369641Y-103051603D01*
X112476959Y-103277771D01*
X112479223Y-103281051D01*
X112479226Y-103281056D01*
X112616895Y-103480503D01*
X112619168Y-103483796D01*
X112621933Y-103486675D01*
X112621935Y-103486677D01*
X112711772Y-103580207D01*
X112792584Y-103664340D01*
X112992715Y-103814729D01*
X113214379Y-103931068D01*
X113451834Y-104010342D01*
X113698931Y-104050499D01*
X114884580Y-104050499D01*
X114886581Y-104050499D01*
X115073627Y-104035399D01*
X115316691Y-103975489D01*
X115546997Y-103877365D01*
X115758581Y-103743567D01*
X115945962Y-103577562D01*
X116104288Y-103383649D01*
X116229457Y-103166849D01*
X116318228Y-102932779D01*
X116368302Y-102687499D01*
X116378382Y-102437364D01*
X116348207Y-102188850D01*
X116286844Y-101977000D01*
X118474353Y-101977000D01*
X118475361Y-101984011D01*
X118493826Y-102112443D01*
X118493827Y-102112446D01*
X118494835Y-102119457D01*
X118497777Y-102125899D01*
X118497778Y-102125902D01*
X118526526Y-102188850D01*
X118554623Y-102250373D01*
X118648872Y-102359143D01*
X118769947Y-102436953D01*
X118908039Y-102477500D01*
X119044883Y-102477500D01*
X119051961Y-102477500D01*
X119190053Y-102436953D01*
X119311128Y-102359143D01*
X119405377Y-102250373D01*
X119465165Y-102119457D01*
X119485647Y-101977000D01*
X119465165Y-101834543D01*
X119405377Y-101703627D01*
X119311128Y-101594857D01*
X119305174Y-101591030D01*
X119305171Y-101591028D01*
X119196010Y-101520875D01*
X119196008Y-101520874D01*
X119190053Y-101517047D01*
X119051961Y-101476500D01*
X118908039Y-101476500D01*
X118901248Y-101478493D01*
X118901247Y-101478494D01*
X118776740Y-101515052D01*
X118776737Y-101515053D01*
X118769947Y-101517047D01*
X118763994Y-101520872D01*
X118763989Y-101520875D01*
X118654828Y-101591028D01*
X118654822Y-101591033D01*
X118648872Y-101594857D01*
X118644236Y-101600206D01*
X118644235Y-101600208D01*
X118559263Y-101698271D01*
X118559260Y-101698275D01*
X118554623Y-101703627D01*
X118551680Y-101710070D01*
X118551678Y-101710074D01*
X118497778Y-101828097D01*
X118497776Y-101828102D01*
X118494835Y-101834543D01*
X118493827Y-101841551D01*
X118493826Y-101841556D01*
X118481351Y-101928329D01*
X118474353Y-101977000D01*
X116286844Y-101977000D01*
X116278559Y-101948395D01*
X116171241Y-101722227D01*
X116162852Y-101710074D01*
X116068875Y-101573925D01*
X116029032Y-101516202D01*
X115992813Y-101478494D01*
X115858372Y-101338527D01*
X115858370Y-101338525D01*
X115855616Y-101335658D01*
X115852438Y-101333270D01*
X115852436Y-101333268D01*
X115817479Y-101307000D01*
X121317353Y-101307000D01*
X121318361Y-101314011D01*
X121336826Y-101442443D01*
X121336827Y-101442446D01*
X121337835Y-101449457D01*
X121340777Y-101455899D01*
X121340778Y-101455902D01*
X121369820Y-101519494D01*
X121397623Y-101580373D01*
X121402262Y-101585727D01*
X121402263Y-101585728D01*
X121410173Y-101594857D01*
X121491872Y-101689143D01*
X121497826Y-101692969D01*
X121497828Y-101692971D01*
X121573049Y-101741312D01*
X121612947Y-101766953D01*
X121751039Y-101807500D01*
X121887883Y-101807500D01*
X121894961Y-101807500D01*
X122033053Y-101766953D01*
X122154128Y-101689143D01*
X122248377Y-101580373D01*
X122308165Y-101449457D01*
X122328647Y-101307000D01*
X122308165Y-101164543D01*
X122248377Y-101033627D01*
X122154128Y-100924857D01*
X122148174Y-100921030D01*
X122148171Y-100921028D01*
X122039010Y-100850875D01*
X122039008Y-100850874D01*
X122033053Y-100847047D01*
X121894961Y-100806500D01*
X121751039Y-100806500D01*
X121744248Y-100808493D01*
X121744247Y-100808494D01*
X121619740Y-100845052D01*
X121619737Y-100845053D01*
X121612947Y-100847047D01*
X121606994Y-100850872D01*
X121606989Y-100850875D01*
X121497828Y-100921028D01*
X121497822Y-100921033D01*
X121491872Y-100924857D01*
X121487236Y-100930206D01*
X121487235Y-100930208D01*
X121402263Y-101028271D01*
X121402260Y-101028275D01*
X121397623Y-101033627D01*
X121394680Y-101040070D01*
X121394678Y-101040074D01*
X121340778Y-101158097D01*
X121340776Y-101158102D01*
X121337835Y-101164543D01*
X121336827Y-101171551D01*
X121336826Y-101171556D01*
X121324243Y-101259080D01*
X121317353Y-101307000D01*
X115817479Y-101307000D01*
X115723272Y-101236208D01*
X115655485Y-101185269D01*
X115651957Y-101183417D01*
X115651955Y-101183416D01*
X115437351Y-101070782D01*
X115437343Y-101070778D01*
X115433821Y-101068930D01*
X115347387Y-101040074D01*
X115200153Y-100990920D01*
X115200149Y-100990919D01*
X115196366Y-100989656D01*
X115192434Y-100989017D01*
X115192426Y-100989015D01*
X114953206Y-100950138D01*
X114953195Y-100950137D01*
X114949269Y-100949499D01*
X113761619Y-100949499D01*
X113759648Y-100949658D01*
X113759625Y-100949659D01*
X113578553Y-100964277D01*
X113578544Y-100964278D01*
X113574573Y-100964599D01*
X113570695Y-100965554D01*
X113570694Y-100965555D01*
X113335387Y-101023553D01*
X113335385Y-101023553D01*
X113331509Y-101024509D01*
X113327845Y-101026069D01*
X113327836Y-101026073D01*
X113104872Y-101121069D01*
X113104864Y-101121073D01*
X113101203Y-101122633D01*
X113097843Y-101124757D01*
X113097831Y-101124764D01*
X112892996Y-101254295D01*
X112892991Y-101254298D01*
X112889619Y-101256431D01*
X112886633Y-101259075D01*
X112886628Y-101259080D01*
X112705224Y-101419790D01*
X112705219Y-101419794D01*
X112702238Y-101422436D01*
X112699721Y-101425518D01*
X112699713Y-101425527D01*
X112546432Y-101613262D01*
X112543912Y-101616349D01*
X112541927Y-101619785D01*
X112541920Y-101619797D01*
X112420735Y-101829697D01*
X112420730Y-101829706D01*
X112418743Y-101833149D01*
X112417333Y-101836865D01*
X112417329Y-101836875D01*
X112331387Y-102063486D01*
X112331384Y-102063494D01*
X112329972Y-102067219D01*
X112329173Y-102071128D01*
X112329172Y-102071135D01*
X112305924Y-102185013D01*
X112279898Y-102312499D01*
X112279737Y-102316483D01*
X112279737Y-102316487D01*
X112269978Y-102558644D01*
X112269978Y-102558653D01*
X112269818Y-102562634D01*
X106256378Y-102562634D01*
X106256263Y-100567359D01*
X144477999Y-100567359D01*
X144497165Y-100798664D01*
X144499654Y-100808494D01*
X144553138Y-101019697D01*
X144553140Y-101019704D01*
X144554142Y-101023659D01*
X144555783Y-101027400D01*
X144645733Y-101232466D01*
X144645736Y-101232471D01*
X144647375Y-101236208D01*
X144662318Y-101259080D01*
X144769043Y-101422436D01*
X144774320Y-101430512D01*
X144777088Y-101433519D01*
X144777089Y-101433520D01*
X144925609Y-101594857D01*
X144931515Y-101601272D01*
X144934743Y-101603784D01*
X144934748Y-101603789D01*
X145023094Y-101672550D01*
X145114673Y-101743829D01*
X145318796Y-101854295D01*
X145538318Y-101929657D01*
X145767250Y-101967859D01*
X145995254Y-101967859D01*
X145999348Y-101967859D01*
X146228280Y-101929657D01*
X146447802Y-101854295D01*
X146651925Y-101743829D01*
X146835083Y-101601272D01*
X146992278Y-101430512D01*
X147119223Y-101236208D01*
X147212456Y-101023659D01*
X147269433Y-100798664D01*
X147288599Y-100567359D01*
X147269433Y-100336054D01*
X147212456Y-100111059D01*
X147119223Y-99898510D01*
X146992278Y-99704206D01*
X146907705Y-99612335D01*
X146837857Y-99536459D01*
X146837854Y-99536456D01*
X146835083Y-99533446D01*
X146831855Y-99530933D01*
X146831849Y-99530928D01*
X146714078Y-99439265D01*
X146651925Y-99390889D01*
X146648329Y-99388943D01*
X146648323Y-99388939D01*
X146451402Y-99282371D01*
X146451399Y-99282370D01*
X146447802Y-99280423D01*
X146443928Y-99279093D01*
X146232147Y-99206388D01*
X146232140Y-99206386D01*
X146228280Y-99205061D01*
X146224250Y-99204388D01*
X146224248Y-99204388D01*
X146003384Y-99167532D01*
X146003378Y-99167531D01*
X145999348Y-99166859D01*
X145767250Y-99166859D01*
X145763220Y-99167531D01*
X145763213Y-99167532D01*
X145542349Y-99204388D01*
X145542345Y-99204389D01*
X145538318Y-99205061D01*
X145534459Y-99206385D01*
X145534450Y-99206388D01*
X145322669Y-99279093D01*
X145322664Y-99279094D01*
X145318796Y-99280423D01*
X145315202Y-99282367D01*
X145315195Y-99282371D01*
X145118274Y-99388939D01*
X145118263Y-99388946D01*
X145114673Y-99390889D01*
X145111442Y-99393403D01*
X145111440Y-99393405D01*
X144934748Y-99530928D01*
X144934736Y-99530938D01*
X144931515Y-99533446D01*
X144928748Y-99536450D01*
X144928740Y-99536459D01*
X144777089Y-99701197D01*
X144777083Y-99701203D01*
X144774320Y-99704206D01*
X144772089Y-99707619D01*
X144772084Y-99707627D01*
X144679160Y-99849859D01*
X144647375Y-99898510D01*
X144645738Y-99902240D01*
X144645733Y-99902251D01*
X144555783Y-100107317D01*
X144554142Y-100111059D01*
X144553141Y-100115009D01*
X144553138Y-100115020D01*
X144498169Y-100332089D01*
X144497165Y-100336054D01*
X144477999Y-100567359D01*
X106256263Y-100567359D01*
X106256135Y-98362634D01*
X106769818Y-98362634D01*
X106770298Y-98366593D01*
X106770299Y-98366600D01*
X106799511Y-98607184D01*
X106799512Y-98607192D01*
X106799993Y-98611148D01*
X106801103Y-98614982D01*
X106801104Y-98614984D01*
X106868529Y-98847766D01*
X106868531Y-98847772D01*
X106869641Y-98851603D01*
X106976959Y-99077771D01*
X106979223Y-99081051D01*
X106979226Y-99081056D01*
X107064821Y-99205061D01*
X107119168Y-99283796D01*
X107121933Y-99286675D01*
X107121935Y-99286677D01*
X107224449Y-99393405D01*
X107292584Y-99464340D01*
X107492715Y-99614729D01*
X107714379Y-99731068D01*
X107951834Y-99810342D01*
X108198931Y-99850499D01*
X109384580Y-99850499D01*
X109386581Y-99850499D01*
X109573627Y-99835399D01*
X109816691Y-99775489D01*
X110046997Y-99677365D01*
X110258581Y-99543567D01*
X110445962Y-99377562D01*
X110604288Y-99183649D01*
X110729457Y-98966849D01*
X110818228Y-98732779D01*
X110868302Y-98487499D01*
X110873334Y-98362634D01*
X112269818Y-98362634D01*
X112270298Y-98366593D01*
X112270299Y-98366600D01*
X112299511Y-98607184D01*
X112299512Y-98607192D01*
X112299993Y-98611148D01*
X112301103Y-98614982D01*
X112301104Y-98614984D01*
X112368529Y-98847766D01*
X112368531Y-98847772D01*
X112369641Y-98851603D01*
X112476959Y-99077771D01*
X112479223Y-99081051D01*
X112479226Y-99081056D01*
X112564821Y-99205061D01*
X112619168Y-99283796D01*
X112621933Y-99286675D01*
X112621935Y-99286677D01*
X112724449Y-99393405D01*
X112792584Y-99464340D01*
X112992715Y-99614729D01*
X113214379Y-99731068D01*
X113451834Y-99810342D01*
X113698931Y-99850499D01*
X114884580Y-99850499D01*
X114886581Y-99850499D01*
X115073627Y-99835399D01*
X115316691Y-99775489D01*
X115546997Y-99677365D01*
X115758581Y-99543567D01*
X115945962Y-99377562D01*
X116104288Y-99183649D01*
X116229457Y-98966849D01*
X116318228Y-98732779D01*
X116368302Y-98487499D01*
X116378382Y-98237364D01*
X116348207Y-97988850D01*
X116278559Y-97748395D01*
X116171241Y-97522227D01*
X116029032Y-97316202D01*
X115938968Y-97222436D01*
X115858372Y-97138527D01*
X115858370Y-97138525D01*
X115855616Y-97135658D01*
X115852438Y-97133270D01*
X115852436Y-97133268D01*
X115658669Y-96987662D01*
X115655485Y-96985269D01*
X115651957Y-96983417D01*
X115651955Y-96983416D01*
X115437351Y-96870782D01*
X115437343Y-96870778D01*
X115433821Y-96868930D01*
X115430038Y-96867667D01*
X115200153Y-96790920D01*
X115200149Y-96790919D01*
X115196366Y-96789656D01*
X115192434Y-96789017D01*
X115192426Y-96789015D01*
X114953206Y-96750138D01*
X114953195Y-96750137D01*
X114949269Y-96749499D01*
X113761619Y-96749499D01*
X113759648Y-96749658D01*
X113759625Y-96749659D01*
X113578553Y-96764277D01*
X113578544Y-96764278D01*
X113574573Y-96764599D01*
X113570695Y-96765554D01*
X113570694Y-96765555D01*
X113335387Y-96823553D01*
X113335385Y-96823553D01*
X113331509Y-96824509D01*
X113327845Y-96826069D01*
X113327836Y-96826073D01*
X113104872Y-96921069D01*
X113104864Y-96921073D01*
X113101203Y-96922633D01*
X113097843Y-96924757D01*
X113097831Y-96924764D01*
X112892996Y-97054295D01*
X112892991Y-97054298D01*
X112889619Y-97056431D01*
X112886633Y-97059075D01*
X112886628Y-97059080D01*
X112705224Y-97219790D01*
X112705219Y-97219794D01*
X112702238Y-97222436D01*
X112699721Y-97225518D01*
X112699713Y-97225527D01*
X112546432Y-97413262D01*
X112543912Y-97416349D01*
X112541927Y-97419785D01*
X112541920Y-97419797D01*
X112420735Y-97629697D01*
X112420730Y-97629706D01*
X112418743Y-97633149D01*
X112417333Y-97636865D01*
X112417329Y-97636875D01*
X112331387Y-97863486D01*
X112331384Y-97863494D01*
X112329972Y-97867219D01*
X112329173Y-97871128D01*
X112329172Y-97871135D01*
X112305924Y-97985013D01*
X112279898Y-98112499D01*
X112279737Y-98116483D01*
X112279737Y-98116487D01*
X112269978Y-98358644D01*
X112269978Y-98358653D01*
X112269818Y-98362634D01*
X110873334Y-98362634D01*
X110878382Y-98237364D01*
X110848207Y-97988850D01*
X110778559Y-97748395D01*
X110671241Y-97522227D01*
X110529032Y-97316202D01*
X110438968Y-97222436D01*
X110358372Y-97138527D01*
X110358370Y-97138525D01*
X110355616Y-97135658D01*
X110352438Y-97133270D01*
X110352436Y-97133268D01*
X110158669Y-96987662D01*
X110155485Y-96985269D01*
X110151957Y-96983417D01*
X110151955Y-96983416D01*
X109937351Y-96870782D01*
X109937343Y-96870778D01*
X109933821Y-96868930D01*
X109930038Y-96867667D01*
X109700153Y-96790920D01*
X109700149Y-96790919D01*
X109696366Y-96789656D01*
X109692434Y-96789017D01*
X109692426Y-96789015D01*
X109453206Y-96750138D01*
X109453195Y-96750137D01*
X109449269Y-96749499D01*
X108261619Y-96749499D01*
X108259648Y-96749658D01*
X108259625Y-96749659D01*
X108078553Y-96764277D01*
X108078544Y-96764278D01*
X108074573Y-96764599D01*
X108070695Y-96765554D01*
X108070694Y-96765555D01*
X107835387Y-96823553D01*
X107835385Y-96823553D01*
X107831509Y-96824509D01*
X107827845Y-96826069D01*
X107827836Y-96826073D01*
X107604872Y-96921069D01*
X107604864Y-96921073D01*
X107601203Y-96922633D01*
X107597843Y-96924757D01*
X107597831Y-96924764D01*
X107392996Y-97054295D01*
X107392991Y-97054298D01*
X107389619Y-97056431D01*
X107386633Y-97059075D01*
X107386628Y-97059080D01*
X107205224Y-97219790D01*
X107205219Y-97219794D01*
X107202238Y-97222436D01*
X107199721Y-97225518D01*
X107199713Y-97225527D01*
X107046432Y-97413262D01*
X107043912Y-97416349D01*
X107041927Y-97419785D01*
X107041920Y-97419797D01*
X106920735Y-97629697D01*
X106920730Y-97629706D01*
X106918743Y-97633149D01*
X106917333Y-97636865D01*
X106917329Y-97636875D01*
X106831387Y-97863486D01*
X106831384Y-97863494D01*
X106829972Y-97867219D01*
X106829173Y-97871128D01*
X106829172Y-97871135D01*
X106805924Y-97985013D01*
X106779898Y-98112499D01*
X106779737Y-98116483D01*
X106779737Y-98116487D01*
X106769978Y-98358644D01*
X106769978Y-98358653D01*
X106769818Y-98362634D01*
X106256135Y-98362634D01*
X106255961Y-95360000D01*
X123414353Y-95360000D01*
X123415361Y-95367011D01*
X123433826Y-95495443D01*
X123433827Y-95495446D01*
X123434835Y-95502457D01*
X123494623Y-95633373D01*
X123588872Y-95742143D01*
X123709947Y-95819953D01*
X123848039Y-95860500D01*
X123984883Y-95860500D01*
X123991961Y-95860500D01*
X124086007Y-95832886D01*
X144509199Y-95832886D01*
X144510145Y-95837644D01*
X144510146Y-95837649D01*
X144518929Y-95881804D01*
X144520832Y-95891369D01*
X144565147Y-95957690D01*
X144631468Y-96002005D01*
X144689951Y-96013638D01*
X147124589Y-96013638D01*
X147129447Y-96013638D01*
X147187930Y-96002005D01*
X147254251Y-95957690D01*
X147298566Y-95891369D01*
X147310199Y-95832886D01*
X147310199Y-93393390D01*
X147298566Y-93334907D01*
X147254251Y-93268586D01*
X147246140Y-93263166D01*
X147196039Y-93229689D01*
X147196037Y-93229688D01*
X147187930Y-93224271D01*
X147178366Y-93222368D01*
X147178365Y-93222368D01*
X147134210Y-93213585D01*
X147134205Y-93213584D01*
X147129447Y-93212638D01*
X144689951Y-93212638D01*
X144685193Y-93213584D01*
X144685187Y-93213585D01*
X144641032Y-93222368D01*
X144641029Y-93222369D01*
X144631468Y-93224271D01*
X144623362Y-93229687D01*
X144623358Y-93229689D01*
X144573257Y-93263166D01*
X144573254Y-93263168D01*
X144565147Y-93268586D01*
X144559729Y-93276693D01*
X144559727Y-93276696D01*
X144526250Y-93326797D01*
X144526248Y-93326801D01*
X144520832Y-93334907D01*
X144518930Y-93344468D01*
X144518929Y-93344471D01*
X144510146Y-93388626D01*
X144510145Y-93388632D01*
X144509199Y-93393390D01*
X144509199Y-95832886D01*
X124086007Y-95832886D01*
X124130053Y-95819953D01*
X124251128Y-95742143D01*
X124345377Y-95633373D01*
X124405165Y-95502457D01*
X124425647Y-95360000D01*
X124405165Y-95217543D01*
X124345377Y-95086627D01*
X124251128Y-94977857D01*
X124245174Y-94974030D01*
X124245171Y-94974028D01*
X124136010Y-94903875D01*
X124136008Y-94903874D01*
X124130053Y-94900047D01*
X123991961Y-94859500D01*
X123848039Y-94859500D01*
X123841248Y-94861493D01*
X123841247Y-94861494D01*
X123716740Y-94898052D01*
X123716737Y-94898053D01*
X123709947Y-94900047D01*
X123703994Y-94903872D01*
X123703989Y-94903875D01*
X123594828Y-94974028D01*
X123594822Y-94974033D01*
X123588872Y-94977857D01*
X123584236Y-94983206D01*
X123584235Y-94983208D01*
X123499263Y-95081271D01*
X123499260Y-95081275D01*
X123494623Y-95086627D01*
X123491680Y-95093070D01*
X123491678Y-95093074D01*
X123437778Y-95211097D01*
X123437776Y-95211102D01*
X123434835Y-95217543D01*
X123433827Y-95224551D01*
X123433826Y-95224556D01*
X123415361Y-95352989D01*
X123414353Y-95360000D01*
X106255961Y-95360000D01*
X106255836Y-93192000D01*
X109483417Y-93192000D01*
X109503700Y-93397934D01*
X109505111Y-93402586D01*
X109505112Y-93402590D01*
X109559252Y-93581066D01*
X109563768Y-93595954D01*
X109566062Y-93600246D01*
X109566063Y-93600248D01*
X109659023Y-93774163D01*
X109659025Y-93774166D01*
X109661315Y-93778450D01*
X109664398Y-93782207D01*
X109664399Y-93782208D01*
X109723661Y-93854420D01*
X109792590Y-93938410D01*
X109952550Y-94069685D01*
X110135046Y-94167232D01*
X110333066Y-94227300D01*
X110539000Y-94247583D01*
X110705215Y-94231212D01*
X124180194Y-94231212D01*
X124181202Y-94238223D01*
X124199667Y-94366655D01*
X124199668Y-94366658D01*
X124200676Y-94373669D01*
X124260464Y-94504585D01*
X124354713Y-94613355D01*
X124475788Y-94691165D01*
X124613880Y-94731712D01*
X124750724Y-94731712D01*
X124757802Y-94731712D01*
X124895894Y-94691165D01*
X125016969Y-94613355D01*
X125111218Y-94504585D01*
X125171006Y-94373669D01*
X125191488Y-94231212D01*
X125171006Y-94088755D01*
X125111218Y-93957839D01*
X125016969Y-93849069D01*
X125011015Y-93845242D01*
X125011012Y-93845240D01*
X124901851Y-93775087D01*
X124901849Y-93775086D01*
X124895894Y-93771259D01*
X124757802Y-93730712D01*
X124613880Y-93730712D01*
X124607089Y-93732705D01*
X124607088Y-93732706D01*
X124482581Y-93769264D01*
X124482578Y-93769265D01*
X124475788Y-93771259D01*
X124469835Y-93775084D01*
X124469830Y-93775087D01*
X124360669Y-93845240D01*
X124360663Y-93845245D01*
X124354713Y-93849069D01*
X124350077Y-93854418D01*
X124350076Y-93854420D01*
X124265104Y-93952483D01*
X124265101Y-93952487D01*
X124260464Y-93957839D01*
X124257521Y-93964282D01*
X124257519Y-93964286D01*
X124203619Y-94082309D01*
X124203617Y-94082314D01*
X124200676Y-94088755D01*
X124199668Y-94095763D01*
X124199667Y-94095768D01*
X124181202Y-94224201D01*
X124180194Y-94231212D01*
X110705215Y-94231212D01*
X110744934Y-94227300D01*
X110942954Y-94167232D01*
X111125450Y-94069685D01*
X111285410Y-93938410D01*
X111416685Y-93778450D01*
X111514232Y-93595954D01*
X111561236Y-93441000D01*
X121493196Y-93441000D01*
X121514281Y-93574126D01*
X121575472Y-93694220D01*
X121670780Y-93789528D01*
X121790874Y-93850719D01*
X121924000Y-93871804D01*
X122057126Y-93850719D01*
X122177220Y-93789528D01*
X122272528Y-93694220D01*
X122333719Y-93574126D01*
X122354804Y-93441000D01*
X122333719Y-93307874D01*
X122291121Y-93224271D01*
X122277253Y-93197053D01*
X122266658Y-93145891D01*
X122283583Y-93096460D01*
X122323313Y-93062529D01*
X122374784Y-93053548D01*
X122416399Y-93069274D01*
X122416780Y-93068528D01*
X122536874Y-93129719D01*
X122670000Y-93150804D01*
X122803126Y-93129719D01*
X122923220Y-93068528D01*
X123018528Y-92973220D01*
X123079719Y-92853126D01*
X123100804Y-92720000D01*
X123079719Y-92586874D01*
X123018528Y-92466780D01*
X122923220Y-92371472D01*
X122803126Y-92310281D01*
X122795432Y-92309062D01*
X122795431Y-92309062D01*
X122706977Y-92295052D01*
X122670000Y-92289196D01*
X122662304Y-92290415D01*
X122544568Y-92309062D01*
X122544565Y-92309062D01*
X122536874Y-92310281D01*
X122529936Y-92313815D01*
X122529933Y-92313817D01*
X122423719Y-92367936D01*
X122423717Y-92367937D01*
X122416780Y-92371472D01*
X122411276Y-92376975D01*
X122411273Y-92376978D01*
X122326978Y-92461273D01*
X122326975Y-92461276D01*
X122321472Y-92466780D01*
X122317937Y-92473717D01*
X122317936Y-92473719D01*
X122263817Y-92579933D01*
X122263815Y-92579936D01*
X122260281Y-92586874D01*
X122259062Y-92594565D01*
X122259062Y-92594568D01*
X122250648Y-92647696D01*
X122239196Y-92720000D01*
X122260281Y-92853126D01*
X122263816Y-92860065D01*
X122263817Y-92860066D01*
X122316746Y-92963946D01*
X122327341Y-93015108D01*
X122310416Y-93064538D01*
X122270687Y-93098469D01*
X122219218Y-93107451D01*
X122177600Y-93091725D01*
X122177220Y-93092472D01*
X122170454Y-93089024D01*
X122170449Y-93089022D01*
X122170278Y-93088935D01*
X122170277Y-93088934D01*
X122064066Y-93034817D01*
X122064065Y-93034816D01*
X122057126Y-93031281D01*
X122049432Y-93030062D01*
X122049431Y-93030062D01*
X121931696Y-93011415D01*
X121924000Y-93010196D01*
X121916304Y-93011415D01*
X121798568Y-93030062D01*
X121798565Y-93030062D01*
X121790874Y-93031281D01*
X121783936Y-93034815D01*
X121783933Y-93034817D01*
X121677719Y-93088936D01*
X121677717Y-93088937D01*
X121670780Y-93092472D01*
X121665276Y-93097975D01*
X121665273Y-93097978D01*
X121580978Y-93182273D01*
X121580975Y-93182276D01*
X121575472Y-93187780D01*
X121571937Y-93194717D01*
X121571936Y-93194719D01*
X121517817Y-93300933D01*
X121517815Y-93300936D01*
X121514281Y-93307874D01*
X121513062Y-93315565D01*
X121513062Y-93315568D01*
X121497501Y-93413816D01*
X121493196Y-93441000D01*
X111561236Y-93441000D01*
X111574300Y-93397934D01*
X111594583Y-93192000D01*
X111574300Y-92986066D01*
X111514232Y-92788046D01*
X111416685Y-92605550D01*
X111338270Y-92510000D01*
X113303353Y-92510000D01*
X113304361Y-92517011D01*
X113322826Y-92645443D01*
X113322827Y-92645446D01*
X113323835Y-92652457D01*
X113326777Y-92658899D01*
X113326778Y-92658902D01*
X113354681Y-92720000D01*
X113383623Y-92783373D01*
X113477872Y-92892143D01*
X113598947Y-92969953D01*
X113737039Y-93010500D01*
X113873883Y-93010500D01*
X113880961Y-93010500D01*
X114019053Y-92969953D01*
X114140128Y-92892143D01*
X114234377Y-92783373D01*
X114294165Y-92652457D01*
X114295956Y-92640000D01*
X119259196Y-92640000D01*
X119260415Y-92647696D01*
X119273085Y-92727696D01*
X119280281Y-92773126D01*
X119283816Y-92780065D01*
X119283817Y-92780066D01*
X119310876Y-92833172D01*
X119341472Y-92893220D01*
X119436780Y-92988528D01*
X119556874Y-93049719D01*
X119690000Y-93070804D01*
X119823126Y-93049719D01*
X119943220Y-92988528D01*
X120038528Y-92893220D01*
X120099719Y-92773126D01*
X120120804Y-92640000D01*
X120099719Y-92506874D01*
X120038528Y-92386780D01*
X119943220Y-92291472D01*
X119823126Y-92230281D01*
X119815432Y-92229062D01*
X119815431Y-92229062D01*
X119697696Y-92210415D01*
X119690000Y-92209196D01*
X119682304Y-92210415D01*
X119564568Y-92229062D01*
X119564565Y-92229062D01*
X119556874Y-92230281D01*
X119549936Y-92233815D01*
X119549933Y-92233817D01*
X119443719Y-92287936D01*
X119443717Y-92287937D01*
X119436780Y-92291472D01*
X119431276Y-92296975D01*
X119431273Y-92296978D01*
X119346978Y-92381273D01*
X119346975Y-92381276D01*
X119341472Y-92386780D01*
X119337937Y-92393717D01*
X119337936Y-92393719D01*
X119283817Y-92499933D01*
X119283815Y-92499936D01*
X119280281Y-92506874D01*
X119259196Y-92640000D01*
X114295956Y-92640000D01*
X114314647Y-92510000D01*
X114294165Y-92367543D01*
X114234377Y-92236627D01*
X114140128Y-92127857D01*
X114134174Y-92124030D01*
X114134171Y-92124028D01*
X114025010Y-92053875D01*
X114025008Y-92053874D01*
X114019053Y-92050047D01*
X113880961Y-92009500D01*
X113737039Y-92009500D01*
X113730248Y-92011493D01*
X113730247Y-92011494D01*
X113605740Y-92048052D01*
X113605737Y-92048053D01*
X113598947Y-92050047D01*
X113592994Y-92053872D01*
X113592989Y-92053875D01*
X113483828Y-92124028D01*
X113483822Y-92124033D01*
X113477872Y-92127857D01*
X113473236Y-92133206D01*
X113473235Y-92133208D01*
X113388263Y-92231271D01*
X113388260Y-92231275D01*
X113383623Y-92236627D01*
X113380680Y-92243070D01*
X113380678Y-92243074D01*
X113326778Y-92361097D01*
X113326776Y-92361102D01*
X113323835Y-92367543D01*
X113322827Y-92374551D01*
X113322826Y-92374556D01*
X113312072Y-92449354D01*
X113303353Y-92510000D01*
X111338270Y-92510000D01*
X111285410Y-92445590D01*
X111227573Y-92398125D01*
X111129208Y-92317399D01*
X111129207Y-92317398D01*
X111125450Y-92314315D01*
X111121166Y-92312025D01*
X111121163Y-92312023D01*
X110947248Y-92219063D01*
X110947246Y-92219062D01*
X110942954Y-92216768D01*
X110922011Y-92210415D01*
X110749590Y-92158112D01*
X110749586Y-92158111D01*
X110744934Y-92156700D01*
X110539000Y-92136417D01*
X110534157Y-92136894D01*
X110337908Y-92156223D01*
X110337907Y-92156223D01*
X110333066Y-92156700D01*
X110328415Y-92158110D01*
X110328409Y-92158112D01*
X110139706Y-92215354D01*
X110139702Y-92215355D01*
X110135046Y-92216768D01*
X110130757Y-92219060D01*
X110130751Y-92219063D01*
X109956836Y-92312023D01*
X109956828Y-92312028D01*
X109952550Y-92314315D01*
X109948796Y-92317394D01*
X109948791Y-92317399D01*
X109796354Y-92442500D01*
X109796348Y-92442505D01*
X109792590Y-92445590D01*
X109789505Y-92449348D01*
X109789500Y-92449354D01*
X109664399Y-92601791D01*
X109664394Y-92601796D01*
X109661315Y-92605550D01*
X109659028Y-92609828D01*
X109659023Y-92609836D01*
X109566063Y-92783751D01*
X109566060Y-92783757D01*
X109563768Y-92788046D01*
X109562355Y-92792702D01*
X109562354Y-92792706D01*
X109505112Y-92981409D01*
X109505110Y-92981415D01*
X109503700Y-92986066D01*
X109503223Y-92990907D01*
X109503223Y-92990908D01*
X109484375Y-93182273D01*
X109483417Y-93192000D01*
X106255836Y-93192000D01*
X106255701Y-90850000D01*
X123384353Y-90850000D01*
X123385361Y-90857011D01*
X123403826Y-90985443D01*
X123403827Y-90985446D01*
X123404835Y-90992457D01*
X123464623Y-91123373D01*
X123558872Y-91232143D01*
X123679947Y-91309953D01*
X123818039Y-91350500D01*
X123954883Y-91350500D01*
X123961961Y-91350500D01*
X124100053Y-91309953D01*
X124221128Y-91232143D01*
X124221811Y-91233206D01*
X124249414Y-91218130D01*
X124291400Y-91215124D01*
X124330834Y-91229831D01*
X124439947Y-91299953D01*
X124578039Y-91340500D01*
X124714883Y-91340500D01*
X124721961Y-91340500D01*
X124860053Y-91299953D01*
X124981128Y-91222143D01*
X125075377Y-91113373D01*
X125075484Y-91113138D01*
X144504399Y-91113138D01*
X144504737Y-91117217D01*
X144519878Y-91299953D01*
X144523565Y-91344443D01*
X144524569Y-91348407D01*
X144579538Y-91565476D01*
X144579540Y-91565483D01*
X144580542Y-91569438D01*
X144582183Y-91573179D01*
X144672133Y-91778245D01*
X144672136Y-91778250D01*
X144673775Y-91781987D01*
X144800720Y-91976291D01*
X144803488Y-91979298D01*
X144803489Y-91979299D01*
X144948564Y-92136894D01*
X144957915Y-92147051D01*
X144961143Y-92149563D01*
X144961148Y-92149568D01*
X145037759Y-92209196D01*
X145141073Y-92289608D01*
X145144671Y-92291555D01*
X145144674Y-92291557D01*
X145177021Y-92309062D01*
X145345196Y-92400074D01*
X145564718Y-92475436D01*
X145793650Y-92513638D01*
X146021654Y-92513638D01*
X146025748Y-92513638D01*
X146254680Y-92475436D01*
X146474202Y-92400074D01*
X146678325Y-92289608D01*
X146861483Y-92147051D01*
X147018678Y-91976291D01*
X147145623Y-91781987D01*
X147238856Y-91569438D01*
X147295833Y-91344443D01*
X147314999Y-91113138D01*
X147295833Y-90881833D01*
X147238856Y-90656838D01*
X147151900Y-90458600D01*
X147147264Y-90448030D01*
X147147263Y-90448029D01*
X147145623Y-90444289D01*
X147018678Y-90249985D01*
X146861483Y-90079225D01*
X146858255Y-90076712D01*
X146858249Y-90076707D01*
X146738229Y-89983293D01*
X146678325Y-89936668D01*
X146674729Y-89934722D01*
X146674723Y-89934718D01*
X146477802Y-89828150D01*
X146477799Y-89828149D01*
X146474202Y-89826202D01*
X146470328Y-89824872D01*
X146258547Y-89752167D01*
X146258540Y-89752165D01*
X146254680Y-89750840D01*
X146250650Y-89750167D01*
X146250648Y-89750167D01*
X146029784Y-89713311D01*
X146029778Y-89713310D01*
X146025748Y-89712638D01*
X145793650Y-89712638D01*
X145789620Y-89713310D01*
X145789613Y-89713311D01*
X145568749Y-89750167D01*
X145568745Y-89750168D01*
X145564718Y-89750840D01*
X145560859Y-89752164D01*
X145560850Y-89752167D01*
X145349069Y-89824872D01*
X145349064Y-89824873D01*
X145345196Y-89826202D01*
X145341602Y-89828146D01*
X145341595Y-89828150D01*
X145144674Y-89934718D01*
X145144663Y-89934725D01*
X145141073Y-89936668D01*
X145137842Y-89939182D01*
X145137840Y-89939184D01*
X144961148Y-90076707D01*
X144961136Y-90076717D01*
X144957915Y-90079225D01*
X144955148Y-90082229D01*
X144955140Y-90082238D01*
X144803489Y-90246976D01*
X144803483Y-90246982D01*
X144800720Y-90249985D01*
X144798489Y-90253398D01*
X144798484Y-90253406D01*
X144706713Y-90393873D01*
X144673775Y-90444289D01*
X144672138Y-90448019D01*
X144672133Y-90448030D01*
X144582183Y-90653096D01*
X144580542Y-90656838D01*
X144579541Y-90660788D01*
X144579538Y-90660799D01*
X144533402Y-90842989D01*
X144523565Y-90881833D01*
X144504399Y-91113138D01*
X125075484Y-91113138D01*
X125135165Y-90982457D01*
X125155647Y-90840000D01*
X125135165Y-90697543D01*
X125075377Y-90566627D01*
X124981128Y-90457857D01*
X124975174Y-90454030D01*
X124975171Y-90454028D01*
X124866010Y-90383875D01*
X124866008Y-90383874D01*
X124860053Y-90380047D01*
X124721961Y-90339500D01*
X124578039Y-90339500D01*
X124571248Y-90341493D01*
X124571247Y-90341494D01*
X124446740Y-90378052D01*
X124446737Y-90378053D01*
X124439947Y-90380047D01*
X124433994Y-90383872D01*
X124433989Y-90383875D01*
X124318872Y-90457857D01*
X124318190Y-90456796D01*
X124290560Y-90471876D01*
X124248586Y-90474873D01*
X124209162Y-90460167D01*
X124100053Y-90390047D01*
X124059201Y-90378052D01*
X123968752Y-90351494D01*
X123961961Y-90349500D01*
X123818039Y-90349500D01*
X123811248Y-90351493D01*
X123811247Y-90351494D01*
X123686740Y-90388052D01*
X123686737Y-90388053D01*
X123679947Y-90390047D01*
X123673994Y-90393872D01*
X123673989Y-90393875D01*
X123564828Y-90464028D01*
X123564822Y-90464033D01*
X123558872Y-90467857D01*
X123554236Y-90473206D01*
X123554235Y-90473208D01*
X123469263Y-90571271D01*
X123469260Y-90571275D01*
X123464623Y-90576627D01*
X123461680Y-90583070D01*
X123461678Y-90583074D01*
X123407778Y-90701097D01*
X123407776Y-90701102D01*
X123404835Y-90707543D01*
X123403827Y-90714551D01*
X123403826Y-90714556D01*
X123386799Y-90832989D01*
X123384353Y-90850000D01*
X106255701Y-90850000D01*
X106255628Y-89584000D01*
X109482417Y-89584000D01*
X109502700Y-89789934D01*
X109504111Y-89794586D01*
X109504112Y-89794590D01*
X109546619Y-89934718D01*
X109562768Y-89987954D01*
X109565062Y-89992246D01*
X109565063Y-89992248D01*
X109658023Y-90166163D01*
X109658025Y-90166166D01*
X109660315Y-90170450D01*
X109791590Y-90330410D01*
X109951550Y-90461685D01*
X110134046Y-90559232D01*
X110332066Y-90619300D01*
X110538000Y-90639583D01*
X110743934Y-90619300D01*
X110941954Y-90559232D01*
X111124450Y-90461685D01*
X111284410Y-90330410D01*
X111415685Y-90170450D01*
X111513232Y-89987954D01*
X111573300Y-89789934D01*
X111593583Y-89584000D01*
X111573300Y-89378066D01*
X111513232Y-89180046D01*
X111415685Y-88997550D01*
X111284410Y-88837590D01*
X111206805Y-88773902D01*
X111128208Y-88709399D01*
X111128207Y-88709398D01*
X111124450Y-88706315D01*
X111120166Y-88704025D01*
X111120163Y-88704023D01*
X110972322Y-88625000D01*
X112857353Y-88625000D01*
X112858361Y-88632011D01*
X112876826Y-88760443D01*
X112876827Y-88760446D01*
X112877835Y-88767457D01*
X112937623Y-88898373D01*
X113031872Y-89007143D01*
X113152947Y-89084953D01*
X113291039Y-89125500D01*
X113427883Y-89125500D01*
X113434961Y-89125500D01*
X113573053Y-89084953D01*
X113694128Y-89007143D01*
X113788377Y-88898373D01*
X113848165Y-88767457D01*
X113868647Y-88625000D01*
X113848165Y-88482543D01*
X113788377Y-88351627D01*
X113694128Y-88242857D01*
X113688174Y-88239030D01*
X113688171Y-88239028D01*
X113579010Y-88168875D01*
X113579008Y-88168874D01*
X113573053Y-88165047D01*
X113434961Y-88124500D01*
X113291039Y-88124500D01*
X113284248Y-88126493D01*
X113284247Y-88126494D01*
X113159740Y-88163052D01*
X113159737Y-88163053D01*
X113152947Y-88165047D01*
X113146994Y-88168872D01*
X113146989Y-88168875D01*
X113037828Y-88239028D01*
X113037822Y-88239033D01*
X113031872Y-88242857D01*
X113027236Y-88248206D01*
X113027235Y-88248208D01*
X112942263Y-88346271D01*
X112942260Y-88346275D01*
X112937623Y-88351627D01*
X112934680Y-88358070D01*
X112934678Y-88358074D01*
X112880778Y-88476097D01*
X112880776Y-88476102D01*
X112877835Y-88482543D01*
X112876827Y-88489551D01*
X112876826Y-88489556D01*
X112868323Y-88548700D01*
X112857353Y-88625000D01*
X110972322Y-88625000D01*
X110946248Y-88611063D01*
X110946246Y-88611062D01*
X110941954Y-88608768D01*
X110937293Y-88607354D01*
X110748590Y-88550112D01*
X110748586Y-88550111D01*
X110743934Y-88548700D01*
X110538000Y-88528417D01*
X110533157Y-88528894D01*
X110336908Y-88548223D01*
X110336907Y-88548223D01*
X110332066Y-88548700D01*
X110327415Y-88550110D01*
X110327409Y-88550112D01*
X110138706Y-88607354D01*
X110138702Y-88607355D01*
X110134046Y-88608768D01*
X110129757Y-88611060D01*
X110129751Y-88611063D01*
X109955836Y-88704023D01*
X109955828Y-88704028D01*
X109951550Y-88706315D01*
X109947796Y-88709394D01*
X109947791Y-88709399D01*
X109795354Y-88834500D01*
X109795348Y-88834505D01*
X109791590Y-88837590D01*
X109788505Y-88841348D01*
X109788500Y-88841354D01*
X109663399Y-88993791D01*
X109663394Y-88993796D01*
X109660315Y-88997550D01*
X109658028Y-89001828D01*
X109658023Y-89001836D01*
X109565063Y-89175751D01*
X109565060Y-89175757D01*
X109562768Y-89180046D01*
X109561355Y-89184702D01*
X109561354Y-89184706D01*
X109504112Y-89373409D01*
X109504110Y-89373415D01*
X109502700Y-89378066D01*
X109482417Y-89584000D01*
X106255628Y-89584000D01*
X106255497Y-87325000D01*
X111128196Y-87325000D01*
X111129415Y-87332696D01*
X111147428Y-87446431D01*
X111149281Y-87458126D01*
X111210472Y-87578220D01*
X111305780Y-87673528D01*
X111425874Y-87734719D01*
X111559000Y-87755804D01*
X111692126Y-87734719D01*
X111812220Y-87673528D01*
X111907528Y-87578220D01*
X111968719Y-87458126D01*
X111989804Y-87325000D01*
X111988854Y-87319000D01*
X112283196Y-87319000D01*
X112284415Y-87326696D01*
X112302428Y-87440431D01*
X112304281Y-87452126D01*
X112365472Y-87572220D01*
X112460780Y-87667528D01*
X112580874Y-87728719D01*
X112714000Y-87749804D01*
X112847126Y-87728719D01*
X112967220Y-87667528D01*
X113062528Y-87572220D01*
X113123719Y-87452126D01*
X113144804Y-87319000D01*
X113123719Y-87185874D01*
X113062528Y-87065780D01*
X113010252Y-87013504D01*
X112984629Y-86969123D01*
X112984629Y-86917877D01*
X113010252Y-86873496D01*
X113012252Y-86871496D01*
X113064528Y-86819220D01*
X113125719Y-86699126D01*
X113145085Y-86576848D01*
X113147675Y-86571345D01*
X113338056Y-86571345D01*
X113340647Y-86576850D01*
X113360014Y-86699126D01*
X113361281Y-86707126D01*
X113422472Y-86827220D01*
X113427977Y-86832725D01*
X113427978Y-86832726D01*
X113470248Y-86874996D01*
X113495871Y-86919377D01*
X113495871Y-86970623D01*
X113470248Y-87015004D01*
X113428978Y-87056273D01*
X113428975Y-87056276D01*
X113423472Y-87061780D01*
X113419937Y-87068717D01*
X113419936Y-87068719D01*
X113365817Y-87174933D01*
X113365815Y-87174936D01*
X113362281Y-87181874D01*
X113361062Y-87189565D01*
X113361062Y-87189568D01*
X113350826Y-87254196D01*
X113341196Y-87315000D01*
X113362281Y-87448126D01*
X113423472Y-87568220D01*
X113518780Y-87663528D01*
X113638874Y-87724719D01*
X113772000Y-87745804D01*
X113905126Y-87724719D01*
X114025220Y-87663528D01*
X114120528Y-87568220D01*
X114181719Y-87448126D01*
X114201854Y-87321000D01*
X114491196Y-87321000D01*
X114493647Y-87336472D01*
X114507869Y-87426273D01*
X114512281Y-87454126D01*
X114573472Y-87574220D01*
X114668780Y-87669528D01*
X114788874Y-87730719D01*
X114922000Y-87751804D01*
X115055126Y-87730719D01*
X115144855Y-87685000D01*
X124900196Y-87685000D01*
X124921281Y-87818126D01*
X124982472Y-87938220D01*
X125077780Y-88033528D01*
X125197874Y-88094719D01*
X125331000Y-88115804D01*
X125464126Y-88094719D01*
X125584220Y-88033528D01*
X125679528Y-87938220D01*
X125740719Y-87818126D01*
X125761804Y-87685000D01*
X125740719Y-87551874D01*
X125679528Y-87431780D01*
X125584220Y-87336472D01*
X125464126Y-87275281D01*
X125456432Y-87274062D01*
X125456431Y-87274062D01*
X125338696Y-87255415D01*
X125331000Y-87254196D01*
X125323304Y-87255415D01*
X125205568Y-87274062D01*
X125205565Y-87274062D01*
X125197874Y-87275281D01*
X125190936Y-87278815D01*
X125190933Y-87278817D01*
X125084719Y-87332936D01*
X125084717Y-87332937D01*
X125077780Y-87336472D01*
X125072276Y-87341975D01*
X125072273Y-87341978D01*
X124987978Y-87426273D01*
X124987975Y-87426276D01*
X124982472Y-87431780D01*
X124978937Y-87438717D01*
X124978936Y-87438719D01*
X124924817Y-87544933D01*
X124924815Y-87544936D01*
X124921281Y-87551874D01*
X124920062Y-87559565D01*
X124920062Y-87559568D01*
X124916236Y-87583726D01*
X124900196Y-87685000D01*
X115144855Y-87685000D01*
X115175220Y-87669528D01*
X115270528Y-87574220D01*
X115331719Y-87454126D01*
X115352804Y-87321000D01*
X115331719Y-87187874D01*
X115270528Y-87067780D01*
X115221752Y-87019004D01*
X115196129Y-86974623D01*
X115196129Y-86923377D01*
X115221752Y-86878996D01*
X115229252Y-86871496D01*
X115277528Y-86823220D01*
X115338719Y-86703126D01*
X115359804Y-86570000D01*
X115338719Y-86436874D01*
X115309172Y-86378884D01*
X144482893Y-86378884D01*
X144483839Y-86383642D01*
X144483840Y-86383647D01*
X144492623Y-86427802D01*
X144494526Y-86437367D01*
X144538841Y-86503688D01*
X144605162Y-86548003D01*
X144663645Y-86559636D01*
X147098283Y-86559636D01*
X147103141Y-86559636D01*
X147161624Y-86548003D01*
X147227945Y-86503688D01*
X147272260Y-86437367D01*
X147283893Y-86378884D01*
X147283893Y-83939388D01*
X147272260Y-83880905D01*
X147227945Y-83814584D01*
X147219834Y-83809164D01*
X147169733Y-83775687D01*
X147169731Y-83775686D01*
X147161624Y-83770269D01*
X147152060Y-83768366D01*
X147152059Y-83768366D01*
X147107904Y-83759583D01*
X147107899Y-83759582D01*
X147103141Y-83758636D01*
X144663645Y-83758636D01*
X144658887Y-83759582D01*
X144658881Y-83759583D01*
X144614726Y-83768366D01*
X144614723Y-83768367D01*
X144605162Y-83770269D01*
X144597056Y-83775685D01*
X144597052Y-83775687D01*
X144546951Y-83809164D01*
X144546948Y-83809166D01*
X144538841Y-83814584D01*
X144533423Y-83822691D01*
X144533421Y-83822694D01*
X144499944Y-83872795D01*
X144499942Y-83872799D01*
X144494526Y-83880905D01*
X144492624Y-83890466D01*
X144492623Y-83890469D01*
X144483840Y-83934624D01*
X144483839Y-83934630D01*
X144482893Y-83939388D01*
X144482893Y-86378884D01*
X115309172Y-86378884D01*
X115277528Y-86316780D01*
X115182220Y-86221472D01*
X115076916Y-86167817D01*
X115069066Y-86163817D01*
X115069065Y-86163816D01*
X115062126Y-86160281D01*
X115054432Y-86159062D01*
X115054431Y-86159062D01*
X114936696Y-86140415D01*
X114929000Y-86139196D01*
X114921304Y-86140415D01*
X114803568Y-86159062D01*
X114803565Y-86159062D01*
X114795874Y-86160281D01*
X114788936Y-86163815D01*
X114788933Y-86163817D01*
X114682719Y-86217936D01*
X114682717Y-86217937D01*
X114675780Y-86221472D01*
X114670276Y-86226975D01*
X114670273Y-86226978D01*
X114585978Y-86311273D01*
X114585975Y-86311276D01*
X114580472Y-86316780D01*
X114576937Y-86323717D01*
X114576936Y-86323719D01*
X114522817Y-86429933D01*
X114522815Y-86429936D01*
X114519281Y-86436874D01*
X114518062Y-86444565D01*
X114518062Y-86444568D01*
X114509983Y-86495577D01*
X114498196Y-86570000D01*
X114500097Y-86582000D01*
X114517428Y-86691431D01*
X114519281Y-86703126D01*
X114580472Y-86823220D01*
X114585978Y-86828726D01*
X114629248Y-86871996D01*
X114654871Y-86916377D01*
X114654871Y-86967623D01*
X114629248Y-87012004D01*
X114578978Y-87062273D01*
X114578975Y-87062276D01*
X114573472Y-87067780D01*
X114569937Y-87074717D01*
X114569936Y-87074719D01*
X114515817Y-87180933D01*
X114515815Y-87180936D01*
X114512281Y-87187874D01*
X114511062Y-87195565D01*
X114511062Y-87195568D01*
X114498630Y-87274062D01*
X114491196Y-87321000D01*
X114201854Y-87321000D01*
X114202804Y-87315000D01*
X114181719Y-87181874D01*
X114120528Y-87061780D01*
X114072752Y-87014004D01*
X114047129Y-86969623D01*
X114047129Y-86918377D01*
X114072752Y-86873996D01*
X114075252Y-86871496D01*
X114119528Y-86827220D01*
X114180719Y-86707126D01*
X114201804Y-86574000D01*
X114180719Y-86440874D01*
X114119528Y-86320780D01*
X114024220Y-86225472D01*
X113919827Y-86172281D01*
X113911066Y-86167817D01*
X113911065Y-86167816D01*
X113904126Y-86164281D01*
X113896432Y-86163062D01*
X113896431Y-86163062D01*
X113778696Y-86144415D01*
X113771000Y-86143196D01*
X113763304Y-86144415D01*
X113645568Y-86163062D01*
X113645565Y-86163062D01*
X113637874Y-86164281D01*
X113630936Y-86167815D01*
X113630933Y-86167817D01*
X113524719Y-86221936D01*
X113524717Y-86221937D01*
X113517780Y-86225472D01*
X113512276Y-86230975D01*
X113512273Y-86230978D01*
X113427978Y-86315273D01*
X113427975Y-86315276D01*
X113422472Y-86320780D01*
X113418937Y-86327717D01*
X113418936Y-86327719D01*
X113364817Y-86433933D01*
X113364815Y-86433936D01*
X113361281Y-86440874D01*
X113360062Y-86448567D01*
X113360062Y-86448569D01*
X113341914Y-86563149D01*
X113338056Y-86571345D01*
X113147675Y-86571345D01*
X113148942Y-86568653D01*
X113146352Y-86563149D01*
X113125719Y-86432874D01*
X113064528Y-86312780D01*
X112969220Y-86217472D01*
X112863916Y-86163817D01*
X112856066Y-86159817D01*
X112856065Y-86159816D01*
X112849126Y-86156281D01*
X112841432Y-86155062D01*
X112841431Y-86155062D01*
X112723696Y-86136415D01*
X112716000Y-86135196D01*
X112708304Y-86136415D01*
X112590568Y-86155062D01*
X112590565Y-86155062D01*
X112582874Y-86156281D01*
X112575936Y-86159815D01*
X112575933Y-86159817D01*
X112469719Y-86213936D01*
X112469717Y-86213937D01*
X112462780Y-86217472D01*
X112457276Y-86222975D01*
X112457273Y-86222978D01*
X112372978Y-86307273D01*
X112372975Y-86307276D01*
X112367472Y-86312780D01*
X112363937Y-86319717D01*
X112363936Y-86319719D01*
X112309817Y-86425933D01*
X112309815Y-86425936D01*
X112306281Y-86432874D01*
X112305062Y-86440565D01*
X112305062Y-86440568D01*
X112302528Y-86456568D01*
X112285196Y-86566000D01*
X112306281Y-86699126D01*
X112309816Y-86706065D01*
X112309817Y-86706066D01*
X112336876Y-86759172D01*
X112367472Y-86819220D01*
X112372978Y-86824726D01*
X112419748Y-86871496D01*
X112445371Y-86915877D01*
X112445371Y-86967123D01*
X112419748Y-87011504D01*
X112370978Y-87060273D01*
X112370975Y-87060276D01*
X112365472Y-87065780D01*
X112361937Y-87072717D01*
X112361936Y-87072719D01*
X112307817Y-87178933D01*
X112307815Y-87178936D01*
X112304281Y-87185874D01*
X112303062Y-87193565D01*
X112303062Y-87193568D01*
X112302112Y-87199568D01*
X112283196Y-87319000D01*
X111988854Y-87319000D01*
X111968719Y-87191874D01*
X111907528Y-87071780D01*
X111861252Y-87025504D01*
X111835629Y-86981123D01*
X111835629Y-86929877D01*
X111861252Y-86885496D01*
X111875252Y-86871496D01*
X111911528Y-86835220D01*
X111972719Y-86715126D01*
X111993804Y-86582000D01*
X111972719Y-86448874D01*
X111911528Y-86328780D01*
X111816220Y-86233472D01*
X111696126Y-86172281D01*
X111688432Y-86171062D01*
X111688431Y-86171062D01*
X111599977Y-86157052D01*
X111563000Y-86151196D01*
X111555304Y-86152415D01*
X111437568Y-86171062D01*
X111437565Y-86171062D01*
X111429874Y-86172281D01*
X111422936Y-86175815D01*
X111422933Y-86175817D01*
X111316719Y-86229936D01*
X111316717Y-86229937D01*
X111309780Y-86233472D01*
X111304276Y-86238975D01*
X111304273Y-86238978D01*
X111219978Y-86323273D01*
X111219975Y-86323276D01*
X111214472Y-86328780D01*
X111210937Y-86335717D01*
X111210936Y-86335719D01*
X111156817Y-86441933D01*
X111156815Y-86441936D01*
X111153281Y-86448874D01*
X111132196Y-86582000D01*
X111133415Y-86589696D01*
X111150161Y-86695431D01*
X111153281Y-86715126D01*
X111214472Y-86835220D01*
X111219978Y-86840726D01*
X111260748Y-86881496D01*
X111286371Y-86925877D01*
X111286371Y-86977123D01*
X111260748Y-87021504D01*
X111215978Y-87066273D01*
X111215975Y-87066276D01*
X111210472Y-87071780D01*
X111206937Y-87078717D01*
X111206936Y-87078719D01*
X111152817Y-87184933D01*
X111152815Y-87184936D01*
X111149281Y-87191874D01*
X111128196Y-87325000D01*
X106255497Y-87325000D01*
X106255386Y-85400000D01*
X108115196Y-85400000D01*
X108116415Y-85407696D01*
X108131082Y-85500304D01*
X108136281Y-85533126D01*
X108197472Y-85653220D01*
X108292780Y-85748528D01*
X108412874Y-85809719D01*
X108546000Y-85830804D01*
X108679126Y-85809719D01*
X108799220Y-85748528D01*
X108894528Y-85653220D01*
X108955719Y-85533126D01*
X108959699Y-85508000D01*
X124832196Y-85508000D01*
X124853281Y-85641126D01*
X124914472Y-85761220D01*
X125009780Y-85856528D01*
X125129874Y-85917719D01*
X125263000Y-85938804D01*
X125396126Y-85917719D01*
X125516220Y-85856528D01*
X125611528Y-85761220D01*
X125672719Y-85641126D01*
X125693804Y-85508000D01*
X125672719Y-85374874D01*
X125611528Y-85254780D01*
X125516220Y-85159472D01*
X125396126Y-85098281D01*
X125388432Y-85097062D01*
X125388431Y-85097062D01*
X125270696Y-85078415D01*
X125263000Y-85077196D01*
X125255304Y-85078415D01*
X125137568Y-85097062D01*
X125137565Y-85097062D01*
X125129874Y-85098281D01*
X125122936Y-85101815D01*
X125122933Y-85101817D01*
X125016719Y-85155936D01*
X125016717Y-85155937D01*
X125009780Y-85159472D01*
X125004276Y-85164975D01*
X125004273Y-85164978D01*
X124919978Y-85249273D01*
X124919975Y-85249276D01*
X124914472Y-85254780D01*
X124910937Y-85261717D01*
X124910936Y-85261719D01*
X124856817Y-85367933D01*
X124856815Y-85367936D01*
X124853281Y-85374874D01*
X124852062Y-85382565D01*
X124852062Y-85382568D01*
X124836501Y-85480816D01*
X124832196Y-85508000D01*
X108959699Y-85508000D01*
X108976804Y-85400000D01*
X108955719Y-85266874D01*
X108894528Y-85146780D01*
X108799220Y-85051472D01*
X108739172Y-85020876D01*
X108686066Y-84993817D01*
X108686065Y-84993816D01*
X108679126Y-84990281D01*
X108671432Y-84989062D01*
X108671431Y-84989062D01*
X108553696Y-84970415D01*
X108546000Y-84969196D01*
X108538304Y-84970415D01*
X108420568Y-84989062D01*
X108420565Y-84989062D01*
X108412874Y-84990281D01*
X108405936Y-84993815D01*
X108405933Y-84993817D01*
X108299719Y-85047936D01*
X108299717Y-85047937D01*
X108292780Y-85051472D01*
X108287276Y-85056975D01*
X108287273Y-85056978D01*
X108202978Y-85141273D01*
X108202975Y-85141276D01*
X108197472Y-85146780D01*
X108193937Y-85153717D01*
X108193936Y-85153719D01*
X108139817Y-85259933D01*
X108139815Y-85259936D01*
X108136281Y-85266874D01*
X108115196Y-85400000D01*
X106255386Y-85400000D01*
X106255345Y-84687000D01*
X111259196Y-84687000D01*
X111280281Y-84820126D01*
X111341472Y-84940220D01*
X111436780Y-85035528D01*
X111556874Y-85096719D01*
X111690000Y-85117804D01*
X111823126Y-85096719D01*
X111830067Y-85093182D01*
X111830071Y-85093181D01*
X111940055Y-85037141D01*
X111985000Y-85026350D01*
X112029945Y-85037141D01*
X112139928Y-85093181D01*
X112139934Y-85093183D01*
X112146874Y-85096719D01*
X112280000Y-85117804D01*
X112413126Y-85096719D01*
X112533220Y-85035528D01*
X112628528Y-84940220D01*
X112689719Y-84820126D01*
X112710804Y-84687000D01*
X112689719Y-84553874D01*
X112628528Y-84433780D01*
X112625338Y-84430590D01*
X112607087Y-84377955D01*
X112621601Y-84322341D01*
X112664566Y-84284163D01*
X112721496Y-84276289D01*
X112750000Y-84280804D01*
X112883126Y-84259719D01*
X113003220Y-84198528D01*
X113098528Y-84103220D01*
X113143159Y-84015625D01*
X113179641Y-83976160D01*
X113231369Y-83961571D01*
X113283096Y-83976160D01*
X113319578Y-84015625D01*
X113351472Y-84078220D01*
X113446780Y-84173528D01*
X113566874Y-84234719D01*
X113700000Y-84255804D01*
X113810708Y-84238269D01*
X113871137Y-84247840D01*
X113914402Y-84291104D01*
X113923974Y-84351535D01*
X113896198Y-84406052D01*
X113873980Y-84428270D01*
X113873974Y-84428277D01*
X113868471Y-84433781D01*
X113864936Y-84440718D01*
X113864935Y-84440720D01*
X113810816Y-84546934D01*
X113810814Y-84546937D01*
X113807280Y-84553875D01*
X113806061Y-84561566D01*
X113806062Y-84561568D01*
X113786195Y-84687001D01*
X113807280Y-84820127D01*
X113868471Y-84940221D01*
X113963779Y-85035529D01*
X114083873Y-85096720D01*
X114216999Y-85117805D01*
X114350125Y-85096720D01*
X114450611Y-85045519D01*
X114495556Y-85034729D01*
X114540500Y-85045518D01*
X114646874Y-85099719D01*
X114780000Y-85120804D01*
X114913126Y-85099719D01*
X115033220Y-85038528D01*
X115128528Y-84943220D01*
X115189719Y-84823126D01*
X115210804Y-84690000D01*
X115189719Y-84556874D01*
X115128528Y-84436780D01*
X115033220Y-84341472D01*
X114913126Y-84280281D01*
X114905432Y-84279062D01*
X114905431Y-84279062D01*
X114787696Y-84260415D01*
X114780000Y-84259196D01*
X114772304Y-84260415D01*
X114654568Y-84279062D01*
X114654565Y-84279062D01*
X114646874Y-84280281D01*
X114639936Y-84283815D01*
X114639933Y-84283817D01*
X114546387Y-84331481D01*
X114501442Y-84342271D01*
X114456497Y-84331481D01*
X114357065Y-84280818D01*
X114357064Y-84280817D01*
X114350125Y-84277282D01*
X114342431Y-84276063D01*
X114342430Y-84276063D01*
X114245493Y-84260710D01*
X114216999Y-84256197D01*
X114209303Y-84257416D01*
X114209302Y-84257416D01*
X114106292Y-84273731D01*
X114057269Y-84269097D01*
X114016543Y-84241419D01*
X113994189Y-84197545D01*
X113995736Y-84148328D01*
X114020803Y-84105945D01*
X114043019Y-84083729D01*
X114043018Y-84083729D01*
X114048528Y-84078220D01*
X114109719Y-83958126D01*
X114130804Y-83825000D01*
X114116708Y-83736000D01*
X116969196Y-83736000D01*
X116970415Y-83743696D01*
X116988470Y-83857696D01*
X116990281Y-83869126D01*
X117051472Y-83989220D01*
X117146780Y-84084528D01*
X117266874Y-84145719D01*
X117400000Y-84166804D01*
X117533126Y-84145719D01*
X117653220Y-84084528D01*
X117748528Y-83989220D01*
X117809719Y-83869126D01*
X117830804Y-83736000D01*
X117809719Y-83602874D01*
X117748528Y-83482780D01*
X117653220Y-83387472D01*
X117533126Y-83326281D01*
X117525432Y-83325062D01*
X117525431Y-83325062D01*
X117407696Y-83306415D01*
X117400000Y-83305196D01*
X117392304Y-83306415D01*
X117274568Y-83325062D01*
X117274565Y-83325062D01*
X117266874Y-83326281D01*
X117259936Y-83329815D01*
X117259933Y-83329817D01*
X117153719Y-83383936D01*
X117153717Y-83383937D01*
X117146780Y-83387472D01*
X117141276Y-83392975D01*
X117141273Y-83392978D01*
X117056978Y-83477273D01*
X117056975Y-83477276D01*
X117051472Y-83482780D01*
X117047937Y-83489717D01*
X117047936Y-83489719D01*
X116993817Y-83595933D01*
X116993815Y-83595936D01*
X116990281Y-83602874D01*
X116989062Y-83610565D01*
X116989062Y-83610568D01*
X116975082Y-83698839D01*
X116969196Y-83736000D01*
X114116708Y-83736000D01*
X114109719Y-83691874D01*
X114048528Y-83571780D01*
X113953220Y-83476472D01*
X113861462Y-83429719D01*
X113840066Y-83418817D01*
X113840065Y-83418816D01*
X113833126Y-83415281D01*
X113825432Y-83414062D01*
X113825431Y-83414062D01*
X113707696Y-83395415D01*
X113700000Y-83394196D01*
X113692304Y-83395415D01*
X113574568Y-83414062D01*
X113574565Y-83414062D01*
X113566874Y-83415281D01*
X113559936Y-83418815D01*
X113559933Y-83418817D01*
X113453719Y-83472936D01*
X113453717Y-83472937D01*
X113446780Y-83476472D01*
X113441276Y-83481975D01*
X113441273Y-83481978D01*
X113356978Y-83566273D01*
X113356975Y-83566276D01*
X113351472Y-83571780D01*
X113347938Y-83578714D01*
X113347934Y-83578721D01*
X113306839Y-83659374D01*
X113270357Y-83698840D01*
X113218629Y-83713428D01*
X113166902Y-83698839D01*
X113130420Y-83659372D01*
X113102065Y-83603721D01*
X113102063Y-83603719D01*
X113098528Y-83596780D01*
X113003220Y-83501472D01*
X112883126Y-83440281D01*
X112875432Y-83439062D01*
X112875431Y-83439062D01*
X112757696Y-83420415D01*
X112750000Y-83419196D01*
X112742304Y-83420415D01*
X112624568Y-83439062D01*
X112624565Y-83439062D01*
X112616874Y-83440281D01*
X112609936Y-83443815D01*
X112609933Y-83443817D01*
X112503719Y-83497936D01*
X112503717Y-83497937D01*
X112496780Y-83501472D01*
X112491276Y-83506975D01*
X112491273Y-83506978D01*
X112406978Y-83591273D01*
X112406975Y-83591276D01*
X112401472Y-83596780D01*
X112397937Y-83603717D01*
X112397936Y-83603719D01*
X112343817Y-83709933D01*
X112343815Y-83709936D01*
X112340281Y-83716874D01*
X112339062Y-83724565D01*
X112339062Y-83724568D01*
X112323521Y-83822694D01*
X112319196Y-83850000D01*
X112322225Y-83869126D01*
X112338950Y-83974726D01*
X112340281Y-83983126D01*
X112343816Y-83990065D01*
X112343817Y-83990066D01*
X112397935Y-84096280D01*
X112401472Y-84103220D01*
X112404660Y-84106408D01*
X112422912Y-84159044D01*
X112408399Y-84214657D01*
X112365435Y-84252835D01*
X112308501Y-84260710D01*
X112287697Y-84257415D01*
X112287696Y-84257415D01*
X112280000Y-84256196D01*
X112261059Y-84259196D01*
X112154568Y-84276062D01*
X112154565Y-84276062D01*
X112146874Y-84277281D01*
X112139936Y-84280815D01*
X112139933Y-84280817D01*
X112029944Y-84336859D01*
X111984999Y-84347649D01*
X111940054Y-84336859D01*
X111830066Y-84280817D01*
X111830065Y-84280816D01*
X111823126Y-84277281D01*
X111815432Y-84276062D01*
X111815431Y-84276062D01*
X111708941Y-84259196D01*
X111690000Y-84256196D01*
X111671059Y-84259196D01*
X111564568Y-84276062D01*
X111564565Y-84276062D01*
X111556874Y-84277281D01*
X111549936Y-84280815D01*
X111549933Y-84280817D01*
X111443719Y-84334936D01*
X111443717Y-84334937D01*
X111436780Y-84338472D01*
X111431276Y-84343975D01*
X111431273Y-84343978D01*
X111346978Y-84428273D01*
X111346975Y-84428276D01*
X111341472Y-84433780D01*
X111337937Y-84440717D01*
X111337936Y-84440719D01*
X111283817Y-84546933D01*
X111283817Y-84546934D01*
X111280281Y-84553874D01*
X111259196Y-84687000D01*
X106255345Y-84687000D01*
X106255264Y-83290000D01*
X121969196Y-83290000D01*
X121970415Y-83297696D01*
X121981633Y-83368528D01*
X121990281Y-83423126D01*
X121993816Y-83430065D01*
X121993817Y-83430066D01*
X122004384Y-83450804D01*
X122051472Y-83543220D01*
X122146780Y-83638528D01*
X122266874Y-83699719D01*
X122400000Y-83720804D01*
X122430331Y-83716000D01*
X123089196Y-83716000D01*
X123090415Y-83723696D01*
X123106094Y-83822694D01*
X123110281Y-83849126D01*
X123113816Y-83856065D01*
X123113817Y-83856066D01*
X123122341Y-83872795D01*
X123171472Y-83969220D01*
X123266780Y-84064528D01*
X123386874Y-84125719D01*
X123520000Y-84146804D01*
X123653126Y-84125719D01*
X123773220Y-84064528D01*
X123868528Y-83969220D01*
X123929719Y-83849126D01*
X123950804Y-83716000D01*
X123929719Y-83582874D01*
X123868528Y-83462780D01*
X123773220Y-83367472D01*
X123653126Y-83306281D01*
X123645432Y-83305062D01*
X123645431Y-83305062D01*
X123527696Y-83286415D01*
X123520000Y-83285196D01*
X123512304Y-83286415D01*
X123394568Y-83305062D01*
X123394565Y-83305062D01*
X123386874Y-83306281D01*
X123379936Y-83309815D01*
X123379933Y-83309817D01*
X123273719Y-83363936D01*
X123273717Y-83363937D01*
X123266780Y-83367472D01*
X123261276Y-83372975D01*
X123261273Y-83372978D01*
X123176978Y-83457273D01*
X123176975Y-83457276D01*
X123171472Y-83462780D01*
X123167937Y-83469717D01*
X123167936Y-83469719D01*
X123113817Y-83575933D01*
X123113815Y-83575936D01*
X123110281Y-83582874D01*
X123109062Y-83590565D01*
X123109062Y-83590568D01*
X123093501Y-83688816D01*
X123089196Y-83716000D01*
X122430331Y-83716000D01*
X122533126Y-83699719D01*
X122653220Y-83638528D01*
X122748528Y-83543220D01*
X122809719Y-83423126D01*
X122830804Y-83290000D01*
X122809719Y-83156874D01*
X122748528Y-83036780D01*
X122731748Y-83020000D01*
X124039196Y-83020000D01*
X124060281Y-83153126D01*
X124121472Y-83273220D01*
X124216780Y-83368528D01*
X124336874Y-83429719D01*
X124470000Y-83450804D01*
X124603126Y-83429719D01*
X124723220Y-83368528D01*
X124818528Y-83273220D01*
X124879719Y-83153126D01*
X124900804Y-83020000D01*
X124879719Y-82886874D01*
X124818528Y-82766780D01*
X124723220Y-82671472D01*
X124603126Y-82610281D01*
X124595432Y-82609062D01*
X124595431Y-82609062D01*
X124477696Y-82590415D01*
X124470000Y-82589196D01*
X124462304Y-82590415D01*
X124344568Y-82609062D01*
X124344565Y-82609062D01*
X124336874Y-82610281D01*
X124329936Y-82613815D01*
X124329933Y-82613817D01*
X124223719Y-82667936D01*
X124223717Y-82667937D01*
X124216780Y-82671472D01*
X124211276Y-82676975D01*
X124211273Y-82676978D01*
X124126978Y-82761273D01*
X124126975Y-82761276D01*
X124121472Y-82766780D01*
X124117937Y-82773717D01*
X124117936Y-82773719D01*
X124063817Y-82879933D01*
X124063815Y-82879936D01*
X124060281Y-82886874D01*
X124059062Y-82894565D01*
X124059062Y-82894568D01*
X124043501Y-82992816D01*
X124039196Y-83020000D01*
X122731748Y-83020000D01*
X122653220Y-82941472D01*
X122561166Y-82894568D01*
X122540066Y-82883817D01*
X122540065Y-82883816D01*
X122533126Y-82880281D01*
X122525432Y-82879062D01*
X122525431Y-82879062D01*
X122407696Y-82860415D01*
X122400000Y-82859196D01*
X122392304Y-82860415D01*
X122274568Y-82879062D01*
X122274565Y-82879062D01*
X122266874Y-82880281D01*
X122259936Y-82883815D01*
X122259933Y-82883817D01*
X122153719Y-82937936D01*
X122153717Y-82937937D01*
X122146780Y-82941472D01*
X122141276Y-82946975D01*
X122141273Y-82946978D01*
X122056978Y-83031273D01*
X122056975Y-83031276D01*
X122051472Y-83036780D01*
X122047937Y-83043717D01*
X122047936Y-83043719D01*
X121993817Y-83149933D01*
X121993815Y-83149936D01*
X121990281Y-83156874D01*
X121969196Y-83290000D01*
X106255264Y-83290000D01*
X106255175Y-81755834D01*
X107897280Y-81755834D01*
X107918365Y-81888960D01*
X107979556Y-82009054D01*
X108074864Y-82104362D01*
X108194958Y-82165553D01*
X108328084Y-82186638D01*
X108461210Y-82165553D01*
X108581304Y-82104362D01*
X108676612Y-82009054D01*
X108737803Y-81888960D01*
X108755060Y-81780000D01*
X125649196Y-81780000D01*
X125650415Y-81787696D01*
X125667552Y-81895900D01*
X125670281Y-81913126D01*
X125731472Y-82033220D01*
X125826780Y-82128528D01*
X125946874Y-82189719D01*
X126080000Y-82210804D01*
X126213126Y-82189719D01*
X126333220Y-82128528D01*
X126428528Y-82033220D01*
X126489719Y-81913126D01*
X126510804Y-81780000D01*
X126491661Y-81659136D01*
X144478093Y-81659136D01*
X144478431Y-81663215D01*
X144488745Y-81787696D01*
X144497259Y-81890441D01*
X144501055Y-81905431D01*
X144553232Y-82111474D01*
X144553234Y-82111481D01*
X144554236Y-82115436D01*
X144555877Y-82119177D01*
X144645827Y-82324243D01*
X144645830Y-82324248D01*
X144647469Y-82327985D01*
X144774414Y-82522289D01*
X144777182Y-82525296D01*
X144777183Y-82525297D01*
X144916814Y-82676978D01*
X144931609Y-82693049D01*
X144934837Y-82695561D01*
X144934842Y-82695566D01*
X145019264Y-82761273D01*
X145114767Y-82835606D01*
X145118365Y-82837553D01*
X145118368Y-82837555D01*
X145196676Y-82879933D01*
X145318890Y-82946072D01*
X145538412Y-83021434D01*
X145767344Y-83059636D01*
X145995348Y-83059636D01*
X145999442Y-83059636D01*
X146228374Y-83021434D01*
X146447896Y-82946072D01*
X146652019Y-82835606D01*
X146835177Y-82693049D01*
X146992372Y-82522289D01*
X147119317Y-82327985D01*
X147212550Y-82115436D01*
X147269527Y-81890441D01*
X147288693Y-81659136D01*
X147269527Y-81427831D01*
X147212550Y-81202836D01*
X147123930Y-81000804D01*
X147120958Y-80994028D01*
X147120957Y-80994027D01*
X147119317Y-80990287D01*
X146992372Y-80795983D01*
X146913280Y-80710066D01*
X146837951Y-80628236D01*
X146837948Y-80628233D01*
X146835177Y-80625223D01*
X146831949Y-80622710D01*
X146831943Y-80622705D01*
X146706979Y-80525443D01*
X146652019Y-80482666D01*
X146648423Y-80480720D01*
X146648417Y-80480716D01*
X146451496Y-80374148D01*
X146451493Y-80374147D01*
X146447896Y-80372200D01*
X146444022Y-80370870D01*
X146232241Y-80298165D01*
X146232234Y-80298163D01*
X146228374Y-80296838D01*
X146224344Y-80296165D01*
X146224342Y-80296165D01*
X146003478Y-80259309D01*
X146003472Y-80259308D01*
X145999442Y-80258636D01*
X145767344Y-80258636D01*
X145763314Y-80259308D01*
X145763307Y-80259309D01*
X145542443Y-80296165D01*
X145542439Y-80296166D01*
X145538412Y-80296838D01*
X145534553Y-80298162D01*
X145534544Y-80298165D01*
X145322763Y-80370870D01*
X145322758Y-80370871D01*
X145318890Y-80372200D01*
X145315296Y-80374144D01*
X145315289Y-80374148D01*
X145118368Y-80480716D01*
X145118357Y-80480723D01*
X145114767Y-80482666D01*
X145111536Y-80485180D01*
X145111534Y-80485182D01*
X144934842Y-80622705D01*
X144934830Y-80622715D01*
X144931609Y-80625223D01*
X144928842Y-80628227D01*
X144928834Y-80628236D01*
X144777183Y-80792974D01*
X144777177Y-80792980D01*
X144774414Y-80795983D01*
X144772183Y-80799396D01*
X144772178Y-80799404D01*
X144649703Y-80986867D01*
X144647469Y-80990287D01*
X144645832Y-80994017D01*
X144645827Y-80994028D01*
X144555877Y-81199094D01*
X144554236Y-81202836D01*
X144553235Y-81206786D01*
X144553232Y-81206797D01*
X144510937Y-81373817D01*
X144497259Y-81427831D01*
X144478093Y-81659136D01*
X126491661Y-81659136D01*
X126489719Y-81646874D01*
X126428528Y-81526780D01*
X126333220Y-81431472D01*
X126213126Y-81370281D01*
X126205432Y-81369062D01*
X126205431Y-81369062D01*
X126087696Y-81350415D01*
X126080000Y-81349196D01*
X126072304Y-81350415D01*
X125954568Y-81369062D01*
X125954565Y-81369062D01*
X125946874Y-81370281D01*
X125939936Y-81373815D01*
X125939933Y-81373817D01*
X125833719Y-81427936D01*
X125833717Y-81427937D01*
X125826780Y-81431472D01*
X125821276Y-81436975D01*
X125821273Y-81436978D01*
X125736978Y-81521273D01*
X125736975Y-81521276D01*
X125731472Y-81526780D01*
X125727937Y-81533717D01*
X125727936Y-81533719D01*
X125673817Y-81639933D01*
X125673815Y-81639936D01*
X125670281Y-81646874D01*
X125669062Y-81654565D01*
X125669062Y-81654568D01*
X125654242Y-81748138D01*
X125649196Y-81780000D01*
X108755060Y-81780000D01*
X108758888Y-81755834D01*
X108737803Y-81622708D01*
X108676612Y-81502614D01*
X108581304Y-81407306D01*
X108461210Y-81346115D01*
X108453516Y-81344896D01*
X108453515Y-81344896D01*
X108335780Y-81326249D01*
X108328084Y-81325030D01*
X108320388Y-81326249D01*
X108202652Y-81344896D01*
X108202649Y-81344896D01*
X108194958Y-81346115D01*
X108188020Y-81349649D01*
X108188017Y-81349651D01*
X108081803Y-81403770D01*
X108081801Y-81403771D01*
X108074864Y-81407306D01*
X108069360Y-81412809D01*
X108069357Y-81412812D01*
X107985062Y-81497107D01*
X107985059Y-81497110D01*
X107979556Y-81502614D01*
X107976021Y-81509551D01*
X107976020Y-81509553D01*
X107921901Y-81615767D01*
X107921899Y-81615770D01*
X107918365Y-81622708D01*
X107917146Y-81630399D01*
X107917146Y-81630402D01*
X107914537Y-81646874D01*
X107897280Y-81755834D01*
X106255175Y-81755834D01*
X106255096Y-80390000D01*
X125744353Y-80390000D01*
X125745361Y-80397011D01*
X125763826Y-80525443D01*
X125763827Y-80525446D01*
X125764835Y-80532457D01*
X125767777Y-80538899D01*
X125767778Y-80538902D01*
X125785495Y-80577696D01*
X125824623Y-80663373D01*
X125918872Y-80772143D01*
X125924826Y-80775969D01*
X125924828Y-80775971D01*
X126006917Y-80828726D01*
X126039947Y-80849953D01*
X126178039Y-80890500D01*
X126314883Y-80890500D01*
X126321961Y-80890500D01*
X126460053Y-80849953D01*
X126581128Y-80772143D01*
X126675377Y-80663373D01*
X126718019Y-80570000D01*
X127998196Y-80570000D01*
X127999415Y-80577696D01*
X128011963Y-80656925D01*
X128019281Y-80703126D01*
X128080472Y-80823220D01*
X128175780Y-80918528D01*
X128295874Y-80979719D01*
X128429000Y-81000804D01*
X128562126Y-80979719D01*
X128682220Y-80918528D01*
X128777528Y-80823220D01*
X128838719Y-80703126D01*
X128859804Y-80570000D01*
X128838719Y-80436874D01*
X128777528Y-80316780D01*
X128682220Y-80221472D01*
X128562126Y-80160281D01*
X128554432Y-80159062D01*
X128554431Y-80159062D01*
X128436696Y-80140415D01*
X128429000Y-80139196D01*
X128421304Y-80140415D01*
X128303568Y-80159062D01*
X128303565Y-80159062D01*
X128295874Y-80160281D01*
X128288936Y-80163815D01*
X128288933Y-80163817D01*
X128182719Y-80217936D01*
X128182717Y-80217937D01*
X128175780Y-80221472D01*
X128170276Y-80226975D01*
X128170273Y-80226978D01*
X128085978Y-80311273D01*
X128085975Y-80311276D01*
X128080472Y-80316780D01*
X128076937Y-80323717D01*
X128076936Y-80323719D01*
X128022817Y-80429933D01*
X128022815Y-80429936D01*
X128019281Y-80436874D01*
X127998196Y-80570000D01*
X126718019Y-80570000D01*
X126735165Y-80532457D01*
X126755647Y-80390000D01*
X126735165Y-80247543D01*
X126675377Y-80116627D01*
X126581128Y-80007857D01*
X126575174Y-80004030D01*
X126575171Y-80004028D01*
X126466010Y-79933875D01*
X126466008Y-79933874D01*
X126460053Y-79930047D01*
X126321961Y-79889500D01*
X126178039Y-79889500D01*
X126171248Y-79891493D01*
X126171247Y-79891494D01*
X126046740Y-79928052D01*
X126046737Y-79928053D01*
X126039947Y-79930047D01*
X126033994Y-79933872D01*
X126033989Y-79933875D01*
X125924828Y-80004028D01*
X125924822Y-80004033D01*
X125918872Y-80007857D01*
X125914236Y-80013206D01*
X125914235Y-80013208D01*
X125829263Y-80111271D01*
X125829260Y-80111275D01*
X125824623Y-80116627D01*
X125821680Y-80123070D01*
X125821678Y-80123074D01*
X125767778Y-80241097D01*
X125767776Y-80241102D01*
X125764835Y-80247543D01*
X125763827Y-80254551D01*
X125763826Y-80254556D01*
X125747103Y-80370870D01*
X125744353Y-80390000D01*
X106255096Y-80390000D01*
X106254959Y-78020000D01*
X118404353Y-78020000D01*
X118405361Y-78027011D01*
X118423826Y-78155443D01*
X118423827Y-78155446D01*
X118424835Y-78162457D01*
X118427777Y-78168899D01*
X118427778Y-78168902D01*
X118457936Y-78234937D01*
X118484623Y-78293373D01*
X118578872Y-78402143D01*
X118699947Y-78479953D01*
X118838039Y-78520500D01*
X118974883Y-78520500D01*
X118981961Y-78520500D01*
X119120053Y-78479953D01*
X119241128Y-78402143D01*
X119335377Y-78293373D01*
X119395165Y-78162457D01*
X119415647Y-78020000D01*
X119395165Y-77877543D01*
X119370712Y-77824000D01*
X128858196Y-77824000D01*
X128879281Y-77957126D01*
X128940472Y-78077220D01*
X129035780Y-78172528D01*
X129155874Y-78233719D01*
X129289000Y-78254804D01*
X129422126Y-78233719D01*
X129542220Y-78172528D01*
X129637528Y-78077220D01*
X129698719Y-77957126D01*
X129719804Y-77824000D01*
X129698719Y-77690874D01*
X129637528Y-77570780D01*
X129542220Y-77475472D01*
X129422126Y-77414281D01*
X129414432Y-77413062D01*
X129414431Y-77413062D01*
X129296696Y-77394415D01*
X129289000Y-77393196D01*
X129281304Y-77394415D01*
X129163568Y-77413062D01*
X129163565Y-77413062D01*
X129155874Y-77414281D01*
X129148936Y-77417815D01*
X129148933Y-77417817D01*
X129042719Y-77471936D01*
X129042717Y-77471937D01*
X129035780Y-77475472D01*
X129030276Y-77480975D01*
X129030273Y-77480978D01*
X128945978Y-77565273D01*
X128945975Y-77565276D01*
X128940472Y-77570780D01*
X128936937Y-77577717D01*
X128936936Y-77577719D01*
X128882817Y-77683933D01*
X128882815Y-77683936D01*
X128879281Y-77690874D01*
X128878062Y-77698565D01*
X128878062Y-77698568D01*
X128862501Y-77796816D01*
X128858196Y-77824000D01*
X119370712Y-77824000D01*
X119335377Y-77746627D01*
X119241128Y-77637857D01*
X119235174Y-77634030D01*
X119235171Y-77634028D01*
X119126010Y-77563875D01*
X119126008Y-77563874D01*
X119120053Y-77560047D01*
X119058409Y-77541947D01*
X118988752Y-77521494D01*
X118981961Y-77519500D01*
X118838039Y-77519500D01*
X118831248Y-77521493D01*
X118831247Y-77521494D01*
X118706740Y-77558052D01*
X118706737Y-77558053D01*
X118699947Y-77560047D01*
X118693994Y-77563872D01*
X118693989Y-77563875D01*
X118584828Y-77634028D01*
X118584822Y-77634033D01*
X118578872Y-77637857D01*
X118574236Y-77643206D01*
X118574235Y-77643208D01*
X118489263Y-77741271D01*
X118489260Y-77741275D01*
X118484623Y-77746627D01*
X118481680Y-77753070D01*
X118481678Y-77753074D01*
X118427778Y-77871097D01*
X118427776Y-77871102D01*
X118424835Y-77877543D01*
X118423827Y-77884551D01*
X118423826Y-77884556D01*
X118414499Y-77949431D01*
X118404353Y-78020000D01*
X106254959Y-78020000D01*
X106254905Y-77080000D01*
X106739353Y-77080000D01*
X106740361Y-77087011D01*
X106758826Y-77215443D01*
X106758827Y-77215446D01*
X106759835Y-77222457D01*
X106819623Y-77353373D01*
X106913872Y-77462143D01*
X107034947Y-77539953D01*
X107173039Y-77580500D01*
X107309883Y-77580500D01*
X107316961Y-77580500D01*
X107455053Y-77539953D01*
X107576128Y-77462143D01*
X107670377Y-77353373D01*
X107730165Y-77222457D01*
X107750647Y-77080000D01*
X107730165Y-76937543D01*
X107670377Y-76806627D01*
X107577985Y-76700000D01*
X117394353Y-76700000D01*
X117395361Y-76707011D01*
X117413826Y-76835443D01*
X117413827Y-76835446D01*
X117414835Y-76842457D01*
X117417777Y-76848899D01*
X117417778Y-76848902D01*
X117471678Y-76966925D01*
X117474623Y-76973373D01*
X117568872Y-77082143D01*
X117574826Y-77085969D01*
X117574828Y-77085971D01*
X117631113Y-77122143D01*
X117689947Y-77159953D01*
X117828039Y-77200500D01*
X117964883Y-77200500D01*
X117971961Y-77200500D01*
X118110053Y-77159953D01*
X118231128Y-77082143D01*
X118325377Y-76973373D01*
X118385165Y-76842457D01*
X118399896Y-76740000D01*
X120184353Y-76740000D01*
X120185361Y-76747011D01*
X120203826Y-76875443D01*
X120203827Y-76875446D01*
X120204835Y-76882457D01*
X120207777Y-76888899D01*
X120207778Y-76888902D01*
X120246355Y-76973373D01*
X120264623Y-77013373D01*
X120358872Y-77122143D01*
X120364826Y-77125969D01*
X120364828Y-77125971D01*
X120420808Y-77161947D01*
X120479947Y-77199953D01*
X120618039Y-77240500D01*
X120754883Y-77240500D01*
X120761961Y-77240500D01*
X120900053Y-77199953D01*
X121021128Y-77122143D01*
X121034511Y-77106696D01*
X121081434Y-77076538D01*
X121137218Y-77076535D01*
X121178237Y-77102895D01*
X121178881Y-77102153D01*
X121184042Y-77106625D01*
X121184148Y-77106693D01*
X121184230Y-77106787D01*
X121184234Y-77106790D01*
X121188872Y-77112143D01*
X121309947Y-77189953D01*
X121448039Y-77230500D01*
X121584883Y-77230500D01*
X121591961Y-77230500D01*
X121730053Y-77189953D01*
X121851128Y-77112143D01*
X121945377Y-77003373D01*
X122005165Y-76872457D01*
X122025647Y-76730000D01*
X122005165Y-76587543D01*
X121945377Y-76456627D01*
X121851128Y-76347857D01*
X121845174Y-76344030D01*
X121845171Y-76344028D01*
X121736010Y-76273875D01*
X121736008Y-76273874D01*
X121730053Y-76270047D01*
X121591961Y-76229500D01*
X121448039Y-76229500D01*
X121441248Y-76231493D01*
X121441247Y-76231494D01*
X121316740Y-76268052D01*
X121316737Y-76268053D01*
X121309947Y-76270047D01*
X121303994Y-76273872D01*
X121303989Y-76273875D01*
X121194828Y-76344028D01*
X121194822Y-76344033D01*
X121188872Y-76347857D01*
X121184239Y-76353202D01*
X121184235Y-76353207D01*
X121175484Y-76363307D01*
X121128553Y-76393464D01*
X121072769Y-76393461D01*
X121031762Y-76367103D01*
X121031119Y-76367847D01*
X121025946Y-76363364D01*
X121025843Y-76363298D01*
X121021128Y-76357857D01*
X121013894Y-76353208D01*
X120906010Y-76283875D01*
X120906008Y-76283874D01*
X120900053Y-76280047D01*
X120859201Y-76268052D01*
X120768752Y-76241494D01*
X120761961Y-76239500D01*
X120618039Y-76239500D01*
X120611248Y-76241493D01*
X120611247Y-76241494D01*
X120486740Y-76278052D01*
X120486737Y-76278053D01*
X120479947Y-76280047D01*
X120473994Y-76283872D01*
X120473989Y-76283875D01*
X120364828Y-76354028D01*
X120364822Y-76354033D01*
X120358872Y-76357857D01*
X120354236Y-76363206D01*
X120354235Y-76363208D01*
X120269263Y-76461271D01*
X120269260Y-76461275D01*
X120264623Y-76466627D01*
X120261680Y-76473070D01*
X120261678Y-76473074D01*
X120207778Y-76591097D01*
X120207776Y-76591102D01*
X120204835Y-76597543D01*
X120203827Y-76604551D01*
X120203826Y-76604556D01*
X120190412Y-76697857D01*
X120184353Y-76740000D01*
X118399896Y-76740000D01*
X118405647Y-76700000D01*
X118385165Y-76557543D01*
X118325377Y-76426627D01*
X118231128Y-76317857D01*
X118225174Y-76314030D01*
X118225171Y-76314028D01*
X118116010Y-76243875D01*
X118116008Y-76243874D01*
X118110053Y-76240047D01*
X117971961Y-76199500D01*
X117828039Y-76199500D01*
X117821248Y-76201493D01*
X117821247Y-76201494D01*
X117696740Y-76238052D01*
X117696737Y-76238053D01*
X117689947Y-76240047D01*
X117683994Y-76243872D01*
X117683989Y-76243875D01*
X117574828Y-76314028D01*
X117574822Y-76314033D01*
X117568872Y-76317857D01*
X117564236Y-76323206D01*
X117564235Y-76323208D01*
X117479263Y-76421271D01*
X117479260Y-76421275D01*
X117474623Y-76426627D01*
X117471680Y-76433070D01*
X117471678Y-76433074D01*
X117417778Y-76551097D01*
X117417776Y-76551102D01*
X117414835Y-76557543D01*
X117413827Y-76564551D01*
X117413826Y-76564556D01*
X117406135Y-76618052D01*
X117394353Y-76700000D01*
X107577985Y-76700000D01*
X107576128Y-76697857D01*
X107570174Y-76694030D01*
X107570171Y-76694028D01*
X107461010Y-76623875D01*
X107461008Y-76623874D01*
X107455053Y-76620047D01*
X107316961Y-76579500D01*
X107173039Y-76579500D01*
X107166248Y-76581493D01*
X107166247Y-76581494D01*
X107041740Y-76618052D01*
X107041737Y-76618053D01*
X107034947Y-76620047D01*
X107028994Y-76623872D01*
X107028989Y-76623875D01*
X106919828Y-76694028D01*
X106919822Y-76694033D01*
X106913872Y-76697857D01*
X106909236Y-76703206D01*
X106909235Y-76703208D01*
X106824263Y-76801271D01*
X106824260Y-76801275D01*
X106819623Y-76806627D01*
X106816680Y-76813070D01*
X106816678Y-76813074D01*
X106762778Y-76931097D01*
X106762776Y-76931102D01*
X106759835Y-76937543D01*
X106758827Y-76944551D01*
X106758826Y-76944556D01*
X106740361Y-77072989D01*
X106739353Y-77080000D01*
X106254905Y-77080000D01*
X106254809Y-75410000D01*
X118314353Y-75410000D01*
X118315361Y-75417011D01*
X118333826Y-75545443D01*
X118333827Y-75545446D01*
X118334835Y-75552457D01*
X118394623Y-75683373D01*
X118488872Y-75792143D01*
X118609947Y-75869953D01*
X118748039Y-75910500D01*
X118884883Y-75910500D01*
X118891961Y-75910500D01*
X119030053Y-75869953D01*
X119151128Y-75792143D01*
X119245377Y-75683373D01*
X119305165Y-75552457D01*
X119325647Y-75410000D01*
X119305165Y-75267543D01*
X119245377Y-75136627D01*
X119151128Y-75027857D01*
X119145174Y-75024030D01*
X119145171Y-75024028D01*
X119076662Y-74980000D01*
X128447196Y-74980000D01*
X128468281Y-75113126D01*
X128529472Y-75233220D01*
X128624780Y-75328528D01*
X128744874Y-75389719D01*
X128878000Y-75410804D01*
X129011126Y-75389719D01*
X129131220Y-75328528D01*
X129226528Y-75233220D01*
X129287719Y-75113126D01*
X129308804Y-74980000D01*
X129287719Y-74846874D01*
X129226528Y-74726780D01*
X129131220Y-74631472D01*
X129011126Y-74570281D01*
X129003432Y-74569062D01*
X129003431Y-74569062D01*
X128885696Y-74550415D01*
X128878000Y-74549196D01*
X128870304Y-74550415D01*
X128752568Y-74569062D01*
X128752565Y-74569062D01*
X128744874Y-74570281D01*
X128737936Y-74573815D01*
X128737933Y-74573817D01*
X128631719Y-74627936D01*
X128631717Y-74627937D01*
X128624780Y-74631472D01*
X128619276Y-74636975D01*
X128619273Y-74636978D01*
X128534978Y-74721273D01*
X128534975Y-74721276D01*
X128529472Y-74726780D01*
X128525937Y-74733717D01*
X128525936Y-74733719D01*
X128471817Y-74839933D01*
X128471815Y-74839936D01*
X128468281Y-74846874D01*
X128447196Y-74980000D01*
X119076662Y-74980000D01*
X119036010Y-74953875D01*
X119036008Y-74953874D01*
X119030053Y-74950047D01*
X118891961Y-74909500D01*
X118748039Y-74909500D01*
X118741248Y-74911493D01*
X118741247Y-74911494D01*
X118616740Y-74948052D01*
X118616737Y-74948053D01*
X118609947Y-74950047D01*
X118603994Y-74953872D01*
X118603989Y-74953875D01*
X118494828Y-75024028D01*
X118494822Y-75024033D01*
X118488872Y-75027857D01*
X118484236Y-75033206D01*
X118484235Y-75033208D01*
X118399263Y-75131271D01*
X118399260Y-75131275D01*
X118394623Y-75136627D01*
X118391680Y-75143070D01*
X118391678Y-75143074D01*
X118337778Y-75261097D01*
X118337776Y-75261102D01*
X118334835Y-75267543D01*
X118333827Y-75274551D01*
X118333826Y-75274556D01*
X118317777Y-75386182D01*
X118314353Y-75410000D01*
X106254809Y-75410000D01*
X106254690Y-73348196D01*
X117757592Y-73348196D01*
X117758968Y-73354820D01*
X117758969Y-73354826D01*
X117787225Y-73490801D01*
X117788604Y-73497436D01*
X117791719Y-73503448D01*
X117791720Y-73503450D01*
X117855615Y-73626763D01*
X117855618Y-73626767D01*
X117858731Y-73632775D01*
X117962772Y-73744176D01*
X118093010Y-73823375D01*
X118239786Y-73864500D01*
X118350550Y-73864500D01*
X118353927Y-73864500D01*
X118467009Y-73848957D01*
X118606818Y-73788230D01*
X118725058Y-73692034D01*
X118812961Y-73567504D01*
X118864006Y-73423877D01*
X118874408Y-73271804D01*
X118843396Y-73122564D01*
X118773269Y-72987225D01*
X118729164Y-72940000D01*
X119704353Y-72940000D01*
X119705361Y-72947011D01*
X119723826Y-73075443D01*
X119723827Y-73075446D01*
X119724835Y-73082457D01*
X119727777Y-73088899D01*
X119727778Y-73088902D01*
X119776745Y-73196123D01*
X119784623Y-73213373D01*
X119878872Y-73322143D01*
X119999947Y-73399953D01*
X120138039Y-73440500D01*
X120274883Y-73440500D01*
X120281961Y-73440500D01*
X120420053Y-73399953D01*
X120500589Y-73348196D01*
X123537592Y-73348196D01*
X123538968Y-73354820D01*
X123538969Y-73354826D01*
X123567225Y-73490801D01*
X123568604Y-73497436D01*
X123571719Y-73503448D01*
X123571720Y-73503450D01*
X123635615Y-73626763D01*
X123635618Y-73626767D01*
X123638731Y-73632775D01*
X123742772Y-73744176D01*
X123873010Y-73823375D01*
X124019786Y-73864500D01*
X124130550Y-73864500D01*
X124133927Y-73864500D01*
X124247009Y-73848957D01*
X124386818Y-73788230D01*
X124505058Y-73692034D01*
X124592961Y-73567504D01*
X124644006Y-73423877D01*
X124654408Y-73271804D01*
X124623396Y-73122564D01*
X124553269Y-72987225D01*
X124449228Y-72875824D01*
X124383815Y-72836046D01*
X124324772Y-72800141D01*
X124324771Y-72800140D01*
X124318990Y-72796625D01*
X124312476Y-72794800D01*
X124312472Y-72794798D01*
X124178733Y-72757326D01*
X124178729Y-72757325D01*
X124172214Y-72755500D01*
X124058073Y-72755500D01*
X124054739Y-72755958D01*
X124054728Y-72755959D01*
X123951695Y-72770121D01*
X123951691Y-72770122D01*
X123944991Y-72771043D01*
X123938787Y-72773737D01*
X123938782Y-72773739D01*
X123811398Y-72829069D01*
X123811392Y-72829072D01*
X123805182Y-72831770D01*
X123799932Y-72836040D01*
X123799924Y-72836046D01*
X123692193Y-72923693D01*
X123692189Y-72923697D01*
X123686942Y-72927966D01*
X123683040Y-72933493D01*
X123683037Y-72933497D01*
X123602943Y-73046964D01*
X123602940Y-73046968D01*
X123599039Y-73052496D01*
X123596772Y-73058872D01*
X123596772Y-73058874D01*
X123550262Y-73189739D01*
X123550260Y-73189744D01*
X123547994Y-73196123D01*
X123547532Y-73202877D01*
X123547531Y-73202882D01*
X123542817Y-73271804D01*
X123537592Y-73348196D01*
X120500589Y-73348196D01*
X120541128Y-73322143D01*
X120635377Y-73213373D01*
X120695165Y-73082457D01*
X120715647Y-72940000D01*
X120695165Y-72797543D01*
X120635377Y-72666627D01*
X120541128Y-72557857D01*
X120535174Y-72554030D01*
X120535171Y-72554028D01*
X120426010Y-72483875D01*
X120426008Y-72483874D01*
X120420053Y-72480047D01*
X120281961Y-72439500D01*
X120138039Y-72439500D01*
X120131248Y-72441493D01*
X120131247Y-72441494D01*
X120006740Y-72478052D01*
X120006737Y-72478053D01*
X119999947Y-72480047D01*
X119993994Y-72483872D01*
X119993989Y-72483875D01*
X119884828Y-72554028D01*
X119884822Y-72554033D01*
X119878872Y-72557857D01*
X119874236Y-72563206D01*
X119874235Y-72563208D01*
X119789263Y-72661271D01*
X119789260Y-72661275D01*
X119784623Y-72666627D01*
X119781680Y-72673070D01*
X119781678Y-72673074D01*
X119727778Y-72791097D01*
X119727776Y-72791102D01*
X119724835Y-72797543D01*
X119723827Y-72804551D01*
X119723826Y-72804556D01*
X119706083Y-72927966D01*
X119704353Y-72940000D01*
X118729164Y-72940000D01*
X118669228Y-72875824D01*
X118603815Y-72836046D01*
X118544772Y-72800141D01*
X118544771Y-72800140D01*
X118538990Y-72796625D01*
X118532476Y-72794800D01*
X118532472Y-72794798D01*
X118398733Y-72757326D01*
X118398729Y-72757325D01*
X118392214Y-72755500D01*
X118278073Y-72755500D01*
X118274739Y-72755958D01*
X118274728Y-72755959D01*
X118171695Y-72770121D01*
X118171691Y-72770122D01*
X118164991Y-72771043D01*
X118158787Y-72773737D01*
X118158782Y-72773739D01*
X118031398Y-72829069D01*
X118031392Y-72829072D01*
X118025182Y-72831770D01*
X118019932Y-72836040D01*
X118019924Y-72836046D01*
X117912193Y-72923693D01*
X117912189Y-72923697D01*
X117906942Y-72927966D01*
X117903040Y-72933493D01*
X117903037Y-72933497D01*
X117822943Y-73046964D01*
X117822940Y-73046968D01*
X117819039Y-73052496D01*
X117816772Y-73058872D01*
X117816772Y-73058874D01*
X117770262Y-73189739D01*
X117770260Y-73189744D01*
X117767994Y-73196123D01*
X117767532Y-73202877D01*
X117767531Y-73202882D01*
X117762817Y-73271804D01*
X117757592Y-73348196D01*
X106254690Y-73348196D01*
X106254613Y-72018000D01*
X128439196Y-72018000D01*
X128460281Y-72151126D01*
X128521472Y-72271220D01*
X128616780Y-72366528D01*
X128736874Y-72427719D01*
X128870000Y-72448804D01*
X129003126Y-72427719D01*
X129123220Y-72366528D01*
X129218528Y-72271220D01*
X129279719Y-72151126D01*
X129300804Y-72018000D01*
X129279719Y-71884874D01*
X129218528Y-71764780D01*
X129123220Y-71669472D01*
X129003126Y-71608281D01*
X128995432Y-71607062D01*
X128995431Y-71607062D01*
X128877696Y-71588415D01*
X128870000Y-71587196D01*
X128862304Y-71588415D01*
X128744568Y-71607062D01*
X128744565Y-71607062D01*
X128736874Y-71608281D01*
X128729936Y-71611815D01*
X128729933Y-71611817D01*
X128623719Y-71665936D01*
X128623717Y-71665937D01*
X128616780Y-71669472D01*
X128611276Y-71674975D01*
X128611273Y-71674978D01*
X128526978Y-71759273D01*
X128526975Y-71759276D01*
X128521472Y-71764780D01*
X128517937Y-71771717D01*
X128517936Y-71771719D01*
X128463817Y-71877933D01*
X128463815Y-71877936D01*
X128460281Y-71884874D01*
X128439196Y-72018000D01*
X106254613Y-72018000D01*
X106254503Y-70112831D01*
X106254503Y-70112824D01*
X106254515Y-70112794D01*
X106254502Y-70076879D01*
X131178548Y-70076879D01*
X131179395Y-70083313D01*
X131198338Y-70227205D01*
X131198339Y-70227210D01*
X131199186Y-70233641D01*
X131259694Y-70379720D01*
X131355948Y-70505161D01*
X131481389Y-70601415D01*
X131627468Y-70661923D01*
X131784230Y-70682561D01*
X131940992Y-70661923D01*
X132087071Y-70601415D01*
X132212512Y-70505161D01*
X132308766Y-70379720D01*
X132369274Y-70233641D01*
X132389912Y-70076879D01*
X132369274Y-69920117D01*
X132308766Y-69774038D01*
X132212512Y-69648597D01*
X132087071Y-69552343D01*
X132081077Y-69549860D01*
X132081075Y-69549859D01*
X131946989Y-69494319D01*
X131946988Y-69494318D01*
X131940992Y-69491835D01*
X131934561Y-69490988D01*
X131934556Y-69490987D01*
X131790664Y-69472044D01*
X131784230Y-69471197D01*
X131777796Y-69472044D01*
X131633903Y-69490987D01*
X131633896Y-69490988D01*
X131627468Y-69491835D01*
X131621473Y-69494318D01*
X131621470Y-69494319D01*
X131487384Y-69549859D01*
X131487379Y-69549861D01*
X131481389Y-69552343D01*
X131476245Y-69556290D01*
X131476240Y-69556293D01*
X131361101Y-69644642D01*
X131361096Y-69644646D01*
X131355948Y-69648597D01*
X131351997Y-69653745D01*
X131351993Y-69653750D01*
X131263644Y-69768889D01*
X131263641Y-69768894D01*
X131259694Y-69774038D01*
X131257212Y-69780028D01*
X131257210Y-69780033D01*
X131201670Y-69914119D01*
X131199186Y-69920117D01*
X131198339Y-69926545D01*
X131198338Y-69926552D01*
X131182761Y-70044875D01*
X131178548Y-70076879D01*
X106254502Y-70076879D01*
X106254500Y-70070665D01*
X106254653Y-70065178D01*
X106271780Y-69758481D01*
X106273015Y-69747483D01*
X106323912Y-69447397D01*
X106326375Y-69436591D01*
X106410555Y-69144104D01*
X106414213Y-69133640D01*
X106530619Y-68852418D01*
X106535417Y-68842447D01*
X106682592Y-68576014D01*
X106688481Y-68566636D01*
X106864560Y-68318373D01*
X106871481Y-68309693D01*
X106886624Y-68292742D01*
X107074236Y-68082729D01*
X107082076Y-68074886D01*
X107308994Y-67872038D01*
X107317649Y-67865134D01*
X107565860Y-67688971D01*
X107575239Y-67683077D01*
X107841607Y-67535824D01*
X107851594Y-67531013D01*
X108132783Y-67414515D01*
X108143238Y-67410856D01*
X108435686Y-67326584D01*
X108446505Y-67324113D01*
X108746576Y-67273119D01*
X108757575Y-67271880D01*
X109064224Y-67254656D01*
X109069777Y-67254500D01*
X109111877Y-67254500D01*
X146958123Y-67254500D01*
X147000225Y-67254500D01*
X147005775Y-67254655D01*
G37*
%TD.AperFunction*%
%TD*%
M02*
