%TF.GenerationSoftware,KiCad,Pcbnew,(7.0.0)*%
%TF.CreationDate,2023-06-13T01:41:46+01:00*%
%TF.ProjectId,flintandsteel,666c696e-7461-46e6-9473-7465656c2e6b,rev?*%
%TF.SameCoordinates,Original*%
%TF.FileFunction,Copper,L4,Bot*%
%TF.FilePolarity,Positive*%
%FSLAX46Y46*%
G04 Gerber Fmt 4.6, Leading zero omitted, Abs format (unit mm)*
G04 Created by KiCad (PCBNEW (7.0.0)) date 2023-06-13 01:41:46*
%MOMM*%
%LPD*%
G01*
G04 APERTURE LIST*
G04 Aperture macros list*
%AMRoundRect*
0 Rectangle with rounded corners*
0 $1 Rounding radius*
0 $2 $3 $4 $5 $6 $7 $8 $9 X,Y pos of 4 corners*
0 Add a 4 corners polygon primitive as box body*
4,1,4,$2,$3,$4,$5,$6,$7,$8,$9,$2,$3,0*
0 Add four circle primitives for the rounded corners*
1,1,$1+$1,$2,$3*
1,1,$1+$1,$4,$5*
1,1,$1+$1,$6,$7*
1,1,$1+$1,$8,$9*
0 Add four rect primitives between the rounded corners*
20,1,$1+$1,$2,$3,$4,$5,0*
20,1,$1+$1,$4,$5,$6,$7,0*
20,1,$1+$1,$6,$7,$8,$9,0*
20,1,$1+$1,$8,$9,$2,$3,0*%
G04 Aperture macros list end*
%TA.AperFunction,ComponentPad*%
%ADD10R,1.700000X1.700000*%
%TD*%
%TA.AperFunction,ComponentPad*%
%ADD11O,1.700000X1.700000*%
%TD*%
%TA.AperFunction,ComponentPad*%
%ADD12R,2.400000X2.400000*%
%TD*%
%TA.AperFunction,ComponentPad*%
%ADD13C,2.400000*%
%TD*%
%TA.AperFunction,ComponentPad*%
%ADD14C,5.600000*%
%TD*%
%TA.AperFunction,ComponentPad*%
%ADD15O,0.900000X2.000000*%
%TD*%
%TA.AperFunction,ComponentPad*%
%ADD16O,0.900000X1.700000*%
%TD*%
%TA.AperFunction,ComponentPad*%
%ADD17RoundRect,0.250001X1.599999X-1.099999X1.599999X1.099999X-1.599999X1.099999X-1.599999X-1.099999X0*%
%TD*%
%TA.AperFunction,ComponentPad*%
%ADD18O,3.700000X2.700000*%
%TD*%
%TA.AperFunction,SMDPad,CuDef*%
%ADD19C,1.000000*%
%TD*%
%TA.AperFunction,ViaPad*%
%ADD20C,0.450000*%
%TD*%
%TA.AperFunction,ViaPad*%
%ADD21C,0.600000*%
%TD*%
%TA.AperFunction,ViaPad*%
%ADD22C,1.000000*%
%TD*%
%TA.AperFunction,ViaPad*%
%ADD23C,0.800000*%
%TD*%
%TA.AperFunction,ViaPad*%
%ADD24C,0.700000*%
%TD*%
%TA.AperFunction,ViaPad*%
%ADD25C,0.650000*%
%TD*%
%TA.AperFunction,Conductor*%
%ADD26C,0.400000*%
%TD*%
%TA.AperFunction,Conductor*%
%ADD27C,0.250000*%
%TD*%
%TA.AperFunction,Conductor*%
%ADD28C,0.261112*%
%TD*%
%TA.AperFunction,Conductor*%
%ADD29C,0.220000*%
%TD*%
G04 APERTURE END LIST*
D10*
%TO.P,BOOTJUMPER1,1,Pin_1*%
%TO.N,GND*%
X107998999Y-93191999D03*
D11*
%TO.P,BOOTJUMPER1,2,Pin_2*%
%TO.N,/BOOT*%
X110538999Y-93191999D03*
%TD*%
D12*
%TO.P,J5,1,Pin_1*%
%TO.N,/DeployV*%
X145883298Y-104067358D03*
D13*
%TO.P,J5,2,Pin_2*%
%TO.N,Net-(J5-Pin_2)*%
X145883299Y-100567359D03*
%TD*%
D14*
%TO.P,H3,1,1*%
%TO.N,GND*%
X109200000Y-70200000D03*
%TD*%
D12*
%TO.P,J4,1,Pin_1*%
%TO.N,/DeployV*%
X145909698Y-94613137D03*
D13*
%TO.P,J4,2,Pin_2*%
%TO.N,Net-(J4-Pin_2)*%
X145909699Y-91113138D03*
%TD*%
D14*
%TO.P,H2,1,1*%
%TO.N,GND*%
X109200000Y-121800000D03*
%TD*%
%TO.P,H1,1,1*%
%TO.N,GND*%
X146800000Y-70200000D03*
%TD*%
D15*
%TO.P,J2,S1,SHIELD*%
%TO.N,GND*%
X125525999Y-73789999D03*
D16*
X125525999Y-69619999D03*
D15*
X116885999Y-73789999D03*
D16*
X116885999Y-69619999D03*
%TD*%
D17*
%TO.P,J1,1,Pin_1*%
%TO.N,GND*%
X108824100Y-110899999D03*
D18*
%TO.P,J1,2,Pin_2*%
X108824099Y-106699998D03*
%TO.P,J1,3,Pin_3*%
X108824099Y-102499998D03*
%TO.P,J1,4,Pin_4*%
%TO.N,RBUS_uC_V*%
X108824099Y-98299998D03*
%TO.P,J1,5,Pin_5*%
%TO.N,/DeployV*%
X114324099Y-110899998D03*
%TO.P,J1,6,Pin_6*%
X114324099Y-106699998D03*
%TO.P,J1,7,Pin_7*%
%TO.N,/CAN+*%
X114324099Y-102499998D03*
%TO.P,J1,8,Pin_8*%
%TO.N,/CAN-*%
X114324099Y-98299998D03*
%TD*%
D12*
%TO.P,J6,1,Pin_1*%
%TO.N,/DeployV*%
X145868881Y-113649139D03*
D13*
%TO.P,J6,2,Pin_2*%
%TO.N,Net-(J6-Pin_2)*%
X145868882Y-110149140D03*
%TD*%
D10*
%TO.P,ENJUMPER1,1,Pin_1*%
%TO.N,GND*%
X107997999Y-89583999D03*
D11*
%TO.P,ENJUMPER1,2,Pin_2*%
%TO.N,/CHIP_PU*%
X110537999Y-89583999D03*
%TD*%
D12*
%TO.P,J3,1,Pin_1*%
%TO.N,/DeployV*%
X145883392Y-85159135D03*
D13*
%TO.P,J3,2,Pin_2*%
%TO.N,Net-(J3-Pin_2)*%
X145883393Y-81659136D03*
%TD*%
D19*
%TO.P,TP10,1,1*%
%TO.N,/RXD*%
X122289000Y-84847000D03*
%TD*%
%TO.P,TP1,1,1*%
%TO.N,/Data-*%
X122630000Y-77380000D03*
%TD*%
%TO.P,TP2,1,1*%
%TO.N,/Data+*%
X119480000Y-77250000D03*
%TD*%
%TO.P,TP9,1,1*%
%TO.N,/TXD*%
X125770000Y-82720000D03*
%TD*%
D20*
%TO.N,VBUS*%
X108328084Y-81755834D03*
D21*
X118910000Y-78020000D03*
X118820000Y-75410000D03*
D20*
X108546000Y-85400000D03*
D21*
X120210000Y-72940000D03*
%TO.N,/Data+*%
X120690000Y-76740000D03*
X124650000Y-90840000D03*
%TO.N,/Data-*%
X123890000Y-90850000D03*
X121520000Y-76730000D03*
D20*
%TO.N,GND*%
X123801000Y-81967000D03*
D22*
X134775000Y-82325000D03*
D21*
X114988000Y-90331000D03*
D22*
X133175000Y-94750000D03*
D21*
X117580000Y-95640000D03*
D20*
X106483000Y-87164999D03*
X124100000Y-124500000D03*
X118870000Y-80020000D03*
D22*
X133400000Y-110075000D03*
D20*
X119090000Y-67490000D03*
X149520000Y-77155999D03*
X126600000Y-124500000D03*
D23*
X112715001Y-79151000D03*
D22*
X130200000Y-106425000D03*
D20*
X125724000Y-83725000D03*
X149520000Y-87156000D03*
D22*
X130925000Y-96975000D03*
X129475000Y-87525000D03*
D21*
X111747999Y-81020000D03*
D20*
X149520000Y-94656000D03*
D22*
X132100000Y-109300000D03*
D20*
X116770000Y-89890000D03*
X129090000Y-67490000D03*
X121731000Y-82581000D03*
X106483000Y-114664999D03*
X149520000Y-99656000D03*
D21*
X116102816Y-75652492D03*
D22*
X134000000Y-105550000D03*
D21*
X140933000Y-73924000D03*
D20*
X149520000Y-102156000D03*
X149517078Y-121774787D03*
X114090000Y-67490000D03*
D21*
X116044000Y-92435000D03*
D22*
X131700000Y-113750000D03*
D20*
X119680000Y-82400000D03*
D22*
X132050000Y-101200000D03*
D21*
X140900000Y-71570000D03*
D20*
X107993000Y-80591000D03*
X120324000Y-79480000D03*
X106483000Y-112164999D03*
D21*
X121480000Y-78430000D03*
D22*
X134725000Y-80700000D03*
D20*
X114100000Y-124500000D03*
D22*
X134750000Y-101225000D03*
D20*
X106483000Y-84664999D03*
X123796000Y-93722000D03*
X107974000Y-74530000D03*
D21*
X118484000Y-99766000D03*
D20*
X136590000Y-67490000D03*
D22*
X131700000Y-104150000D03*
D20*
X123806000Y-80062000D03*
D21*
X120880000Y-88280000D03*
D20*
X139100000Y-124500000D03*
X106483000Y-77164998D03*
D22*
X134750000Y-110825000D03*
D20*
X141600000Y-124500000D03*
D23*
X119922000Y-109648000D03*
D22*
X133400000Y-100475000D03*
D20*
X149520000Y-89656000D03*
X149520000Y-74655999D03*
D21*
X140864000Y-76393000D03*
D20*
X118625000Y-81725000D03*
X134100000Y-124500000D03*
D22*
X134700000Y-99600000D03*
D20*
X106483000Y-97164999D03*
D23*
X111525002Y-76191000D03*
D20*
X149520000Y-82156000D03*
X106483000Y-79664998D03*
X149520000Y-84656000D03*
X141590000Y-67490000D03*
D21*
X120860000Y-86500000D03*
D20*
X149520000Y-112301911D03*
D21*
X122630000Y-86500000D03*
D22*
X133125000Y-113800000D03*
D21*
X126417000Y-95968000D03*
D20*
X144090000Y-67490000D03*
D22*
X132125000Y-80800000D03*
D20*
X110180000Y-80823000D03*
D21*
X128000000Y-74982000D03*
D20*
X106483000Y-99664999D03*
X106483000Y-89664999D03*
X106483000Y-109664999D03*
X149520000Y-107156000D03*
D22*
X128500000Y-115500000D03*
D21*
X125650000Y-94230000D03*
D20*
X106483000Y-74665000D03*
X134090000Y-67490000D03*
X116600000Y-124500000D03*
D21*
X118963000Y-97683000D03*
D22*
X131750000Y-94700000D03*
X134700000Y-109200000D03*
X132075000Y-82300000D03*
D20*
X149520000Y-104656000D03*
X149520000Y-119656001D03*
X109086000Y-81941001D03*
X118653000Y-80842000D03*
D22*
X129500000Y-96975000D03*
X133150000Y-85300000D03*
X132050000Y-105625000D03*
D20*
X139090000Y-67490000D03*
X121730000Y-83165000D03*
D21*
X122575000Y-81487000D03*
D20*
X147600000Y-124375000D03*
D22*
X128525000Y-86250000D03*
D20*
X121600000Y-124500000D03*
X121590000Y-67490000D03*
X122379000Y-82581000D03*
D22*
X134750000Y-113775000D03*
D24*
X128800000Y-105075000D03*
D23*
X112665001Y-76191000D03*
D22*
X134750000Y-90150000D03*
D20*
X149520000Y-92156000D03*
X149520000Y-97156000D03*
D22*
X133425000Y-81575000D03*
X133450000Y-91025000D03*
D20*
X116590000Y-67490000D03*
X106483000Y-102164999D03*
D21*
X124170000Y-89760000D03*
D22*
X132150000Y-90250000D03*
X134750000Y-104175000D03*
D20*
X106483000Y-119664999D03*
X106483000Y-82164998D03*
X116301000Y-79942000D03*
D22*
X134025000Y-86650000D03*
D20*
X119100000Y-124500000D03*
X119520000Y-79610000D03*
D22*
X134050000Y-96100000D03*
X131725000Y-85250000D03*
D20*
X123802000Y-81034000D03*
D22*
X130900000Y-87525000D03*
D20*
X131590000Y-67490000D03*
X149520000Y-79655999D03*
D22*
X132100000Y-99700000D03*
D23*
X111525002Y-76191000D03*
D21*
X119877000Y-80586002D03*
D20*
X149520000Y-109801911D03*
X119075000Y-82250000D03*
X120958000Y-93400000D03*
X118855000Y-102865000D03*
D21*
X116253000Y-101199000D03*
D23*
X111495000Y-79151000D03*
D21*
X120880000Y-90030000D03*
X122640000Y-88300000D03*
D20*
X124090000Y-67490000D03*
X149520000Y-72156001D03*
D21*
X124400000Y-88290000D03*
D20*
X106483000Y-92164999D03*
X111590000Y-67490000D03*
D22*
X132100000Y-96175000D03*
D21*
X119429000Y-99803000D03*
D22*
X132100000Y-91750000D03*
D20*
X106483000Y-94664999D03*
X128406000Y-78028000D03*
X144100000Y-124500000D03*
D22*
X134000000Y-115150000D03*
X132075000Y-86725000D03*
D20*
X122964000Y-82588000D03*
X121972000Y-79479000D03*
D21*
X122620000Y-90030000D03*
D22*
X132050000Y-115225000D03*
D20*
X121730000Y-83750000D03*
X136600000Y-124500000D03*
X149520000Y-114801911D03*
D22*
X134800000Y-94725000D03*
D20*
X122992000Y-79481000D03*
D21*
X128033000Y-72054000D03*
X110091000Y-91653000D03*
D22*
X133125000Y-104200000D03*
D20*
X106483000Y-72165000D03*
D22*
X134775000Y-85275000D03*
D20*
X111600000Y-124500000D03*
D22*
X134800000Y-91775000D03*
D20*
X124358000Y-92644000D03*
X106483000Y-117164999D03*
X106483000Y-107164999D03*
D21*
X124380000Y-86530000D03*
D20*
X106483000Y-104664999D03*
X121176000Y-79478000D03*
X129100000Y-124500000D03*
X126590000Y-67490000D03*
X131600000Y-124500000D03*
D22*
X132050000Y-110800000D03*
X128625000Y-113550000D03*
D20*
X119825000Y-83450000D03*
X149520000Y-117156000D03*
D21*
%TO.N,Net-(JP1-B)*%
X118980000Y-101977000D03*
X121823000Y-101307000D03*
D23*
%TO.N,+3V3*%
X131784230Y-70076879D03*
D21*
X124685841Y-94231212D03*
D20*
X121924000Y-93441000D03*
D21*
X107245000Y-77080000D03*
X126250000Y-80390000D03*
X123920000Y-95360000D03*
D20*
X124470000Y-83020000D03*
X117400000Y-83736000D03*
D21*
X113363000Y-88625000D03*
X117900000Y-76700000D03*
D20*
X122670000Y-92720000D03*
X123520000Y-83716000D03*
D21*
X113809000Y-92510000D03*
D20*
%TO.N,/Power/LX1*%
X112714000Y-87319000D03*
X112750000Y-83850000D03*
X111563000Y-86582000D03*
X112716000Y-86566000D03*
X112280000Y-84687000D03*
X111690000Y-84687000D03*
X111559000Y-87325000D03*
%TO.N,/Power/LX2*%
X114780000Y-84690000D03*
X113771000Y-86574000D03*
X113772000Y-87315000D03*
X114216999Y-84687001D03*
X114929000Y-86570000D03*
X113700000Y-83825000D03*
X114922000Y-87321000D03*
%TO.N,/TXD*%
X126080000Y-81780000D03*
%TO.N,/RXD*%
X122400000Y-83290000D03*
%TO.N,/Cont 3*%
X125263000Y-85508000D03*
X128870000Y-72018000D03*
%TO.N,/Cont 1*%
X129289000Y-77824000D03*
X128429000Y-80570000D03*
%TO.N,/Cont 2*%
X125331000Y-87685000D03*
X128878000Y-74980000D03*
D25*
%TO.N,/DeployV*%
X116000000Y-108800000D03*
D22*
X118700000Y-113200000D03*
X117400000Y-109900000D03*
X118700000Y-111200000D03*
X144800000Y-115900000D03*
X143475000Y-112750000D03*
X118710000Y-105750000D03*
X116100000Y-113200000D03*
X118700000Y-108300000D03*
X117400000Y-107000000D03*
X143500000Y-116900000D03*
X142100000Y-115800000D03*
X143500000Y-114945911D03*
X112900000Y-113200000D03*
X148600000Y-116900000D03*
X147000000Y-115900000D03*
X148400000Y-112745911D03*
X140200000Y-116800000D03*
X148200000Y-114745911D03*
D25*
X112900000Y-108800000D03*
D20*
%TO.N,/DeployV_SNS*%
X119690000Y-92640000D03*
X123800000Y-107145000D03*
%TD*%
D26*
%TO.N,VBUS*%
X120210000Y-72940000D02*
X119576605Y-73573395D01*
D27*
X108546000Y-81973749D02*
X108328084Y-81755834D01*
D26*
X115030000Y-79020000D02*
X114665000Y-79385000D01*
X109598993Y-80484925D02*
X108328084Y-81755834D01*
X112890554Y-80120000D02*
X110480000Y-80120000D01*
X118910000Y-78020000D02*
X117395929Y-78040000D01*
D27*
X108546000Y-85371000D02*
X108546000Y-81973749D01*
D26*
X119576607Y-73573397D02*
G75*
G03*
X118820000Y-75400000I1826593J-1826603D01*
G01*
X110480000Y-80119991D02*
G75*
G03*
X109598993Y-80484925I0J-1245909D01*
G01*
X117395929Y-78040013D02*
G75*
G03*
X115030001Y-79020001I-29J-3345887D01*
G01*
X112890554Y-80119980D02*
G75*
G03*
X114665000Y-79385000I46J2509380D01*
G01*
D28*
%TO.N,/Data+*%
X124214160Y-91844160D02*
X124248137Y-91810183D01*
X124163366Y-91894955D02*
X124214160Y-91844160D01*
X120723708Y-77477971D02*
X120575840Y-77625840D01*
X120575840Y-77625840D02*
X119855840Y-77625840D01*
X119855840Y-77625840D02*
X119480000Y-77250000D01*
X116347844Y-82280000D02*
X116347844Y-87520000D01*
X120752458Y-92182156D02*
X123470000Y-92182156D01*
X117122949Y-89391269D02*
X119320840Y-91589160D01*
X119180000Y-78617844D02*
X118940314Y-78617844D01*
X120575840Y-77625840D02*
X119869391Y-78332289D01*
X117842552Y-79072552D02*
X117558934Y-79356170D01*
X120690000Y-76740000D02*
X120717825Y-76767825D01*
X117558927Y-79356163D02*
G75*
G03*
X116347844Y-82280000I2923873J-2923837D01*
G01*
X119180000Y-78617844D02*
G75*
G03*
X119869391Y-78332289I0J974944D01*
G01*
X123470000Y-92182159D02*
G75*
G03*
X124163365Y-91894954I0J980559D01*
G01*
X120867828Y-77130000D02*
G75*
G03*
X120717825Y-76767825I-512228J0D01*
G01*
X118940314Y-78617850D02*
G75*
G03*
X117842552Y-79072552I-14J-1552450D01*
G01*
X119320852Y-91589148D02*
G75*
G03*
X120752458Y-92182156I1431648J1431648D01*
G01*
X124248128Y-91810174D02*
G75*
G03*
X124650000Y-90840000I-970128J970174D01*
G01*
X120723716Y-77477979D02*
G75*
G03*
X120867843Y-77130000I-348016J347979D01*
G01*
X116347839Y-87520000D02*
G75*
G03*
X117122949Y-89391269I2646361J0D01*
G01*
%TO.N,/Data-*%
X123905840Y-91495840D02*
X123942746Y-91458934D01*
X121520000Y-76730000D02*
X121432677Y-76817323D01*
X117980872Y-79590872D02*
X117858965Y-79712778D01*
X123915650Y-90875649D02*
X123890000Y-90850000D01*
X118160872Y-79410872D02*
X117980872Y-79590872D01*
X117437122Y-89048803D02*
X117789160Y-89400840D01*
X121002529Y-77855791D02*
X120897660Y-77960660D01*
X120897660Y-77960660D02*
X120244160Y-78614160D01*
X120787820Y-91717844D02*
X123369875Y-91717844D01*
X122453352Y-77556648D02*
X122630000Y-77380000D01*
X116812156Y-82240000D02*
X116812156Y-87540000D01*
X119114318Y-79082156D02*
X118954462Y-79082156D01*
X121216648Y-77556648D02*
X122453352Y-77556648D01*
X117789160Y-89400840D02*
X119624160Y-91235840D01*
X124050000Y-91200000D02*
G75*
G03*
X123915649Y-90875650I-458700J0D01*
G01*
X118954462Y-79082141D02*
G75*
G03*
X118160872Y-79410872I38J-1122359D01*
G01*
X123369875Y-91717833D02*
G75*
G03*
X123905840Y-91495840I25J757933D01*
G01*
X119624154Y-91235846D02*
G75*
G03*
X120787820Y-91717844I1163646J1163646D01*
G01*
X121002537Y-77855799D02*
G75*
G03*
X121332157Y-77060000I-795837J795799D01*
G01*
X117858963Y-79712776D02*
G75*
G03*
X116812156Y-82240000I2527237J-2527224D01*
G01*
X121432668Y-76817314D02*
G75*
G03*
X121332157Y-77060000I242732J-242686D01*
G01*
X123942749Y-91458937D02*
G75*
G03*
X124050000Y-91200000I-258949J258937D01*
G01*
X116812149Y-87540000D02*
G75*
G03*
X117437123Y-89048802I2133751J0D01*
G01*
X119114318Y-79082163D02*
G75*
G03*
X120244160Y-78614160I-18J1597863D01*
G01*
D27*
%TO.N,Net-(JP1-B)*%
X120883593Y-101977000D02*
X118980000Y-101977000D01*
X121823000Y-101307000D02*
X121343500Y-101786500D01*
X120883593Y-101976996D02*
G75*
G03*
X121343499Y-101786499I7J650396D01*
G01*
%TO.N,/TXD*%
X126080000Y-81780000D02*
X126080000Y-81802599D01*
X126080000Y-81780000D02*
X126080000Y-81807036D01*
X125700000Y-82720000D02*
G75*
G03*
X126080000Y-81802599I-917400J917400D01*
G01*
%TO.N,/RXD*%
X122400000Y-83290000D02*
X122400000Y-84736000D01*
X122400000Y-84736000D02*
X122289000Y-84847000D01*
D29*
%TO.N,/Cont 3*%
X127799368Y-73088632D02*
X128870000Y-72018000D01*
X127315000Y-82923072D02*
X127315000Y-74258000D01*
X125300000Y-85508000D02*
X126912000Y-83896000D01*
X125263000Y-85508000D02*
X125300000Y-85508000D01*
X126912008Y-83896008D02*
G75*
G03*
X127315000Y-82923072I-972908J972908D01*
G01*
X127799376Y-73088640D02*
G75*
G03*
X127315000Y-74258000I1169324J-1169360D01*
G01*
D27*
%TO.N,/Cont 1*%
X129641000Y-79011518D02*
X129641000Y-78417000D01*
X129470587Y-78005588D02*
X129289000Y-77824000D01*
X128429000Y-80570000D02*
X129396000Y-79603000D01*
X129641006Y-78417000D02*
G75*
G03*
X129470586Y-78005589I-581806J0D01*
G01*
X129395995Y-79602995D02*
G75*
G03*
X129641000Y-79011518I-591495J591495D01*
G01*
D29*
%TO.N,/Cont 2*%
X128410500Y-75447500D02*
X128878000Y-74980000D01*
X127846000Y-83162038D02*
X127846000Y-76467000D01*
X125331000Y-87685000D02*
X125534500Y-87481500D01*
X128167734Y-75690267D02*
X128410500Y-75447500D01*
X126284138Y-85177863D02*
X126506500Y-84955500D01*
X125763000Y-86929853D02*
X125763000Y-86436000D01*
X126506500Y-84955500D02*
X127525000Y-83937000D01*
X127524989Y-83936989D02*
G75*
G03*
X127846000Y-83162038I-774989J774989D01*
G01*
X125534514Y-87481514D02*
G75*
G03*
X125763000Y-86929853I-551614J551614D01*
G01*
X128167727Y-75690260D02*
G75*
G03*
X127846000Y-76467000I776773J-776740D01*
G01*
X126284132Y-85177857D02*
G75*
G03*
X125763000Y-86436000I1258168J-1258143D01*
G01*
D27*
%TO.N,/DeployV_SNS*%
X121070000Y-96010000D02*
X123008040Y-97948041D01*
X119690000Y-92640000D02*
X119690000Y-93530000D01*
X123800000Y-107145000D02*
X123800000Y-99860000D01*
X120467817Y-95407818D02*
X121070000Y-96010000D01*
X119689990Y-93530000D02*
G75*
G03*
X120467818Y-95407817I2655610J0D01*
G01*
X123800004Y-99860000D02*
G75*
G03*
X123008039Y-97948042I-2703904J0D01*
G01*
%TD*%
%TA.AperFunction,Conductor*%
%TO.N,GND*%
G36*
X147005775Y-67254655D02*
G01*
X147304850Y-67271451D01*
X147315873Y-67272693D01*
X147608459Y-67322405D01*
X147619253Y-67324868D01*
X147904444Y-67407030D01*
X147914919Y-67410696D01*
X148189093Y-67524262D01*
X148199087Y-67529075D01*
X148458834Y-67672632D01*
X148468220Y-67678530D01*
X148710257Y-67850265D01*
X148718929Y-67857180D01*
X148940220Y-68054937D01*
X148948066Y-68062784D01*
X149093067Y-68225039D01*
X149145813Y-68284062D01*
X149152727Y-68292731D01*
X149324468Y-68534777D01*
X149330368Y-68544167D01*
X149473919Y-68803904D01*
X149478736Y-68813906D01*
X149592303Y-69088079D01*
X149595970Y-69098558D01*
X149678127Y-69383730D01*
X149680597Y-69394554D01*
X149730305Y-69687119D01*
X149731548Y-69698151D01*
X149748340Y-69997175D01*
X149748496Y-70002732D01*
X149745768Y-117178853D01*
X149745503Y-121755116D01*
X149745500Y-121755125D01*
X149745500Y-121755150D01*
X149745500Y-121797227D01*
X149745344Y-121802778D01*
X149727290Y-122124239D01*
X149726047Y-122135271D01*
X149672582Y-122449949D01*
X149670112Y-122460773D01*
X149581745Y-122767499D01*
X149578078Y-122777977D01*
X149455932Y-123072866D01*
X149451115Y-123082869D01*
X149296716Y-123362231D01*
X149290810Y-123371631D01*
X149106102Y-123631954D01*
X149099180Y-123640634D01*
X148886488Y-123878637D01*
X148878637Y-123886488D01*
X148640634Y-124099180D01*
X148631954Y-124106102D01*
X148371631Y-124290810D01*
X148362231Y-124296716D01*
X148082869Y-124451115D01*
X148072866Y-124455932D01*
X147777977Y-124578078D01*
X147767499Y-124581745D01*
X147460773Y-124670112D01*
X147449949Y-124672582D01*
X147135272Y-124726047D01*
X147124240Y-124727290D01*
X146802782Y-124745342D01*
X146797227Y-124745498D01*
X109114881Y-124743806D01*
X109114879Y-124743805D01*
X109114875Y-124743804D01*
X109114861Y-124743804D01*
X109072773Y-124743804D01*
X109067222Y-124743648D01*
X108760650Y-124726431D01*
X108749618Y-124725188D01*
X108449644Y-124674221D01*
X108438820Y-124671751D01*
X108438469Y-124671650D01*
X108366749Y-124650987D01*
X108146429Y-124587514D01*
X108135950Y-124583847D01*
X107854834Y-124467405D01*
X107844832Y-124462588D01*
X107578526Y-124315405D01*
X107569126Y-124309499D01*
X107320967Y-124133421D01*
X107312287Y-124126499D01*
X107085400Y-123923741D01*
X107077562Y-123915903D01*
X106874798Y-123689010D01*
X106867883Y-123680339D01*
X106691801Y-123432175D01*
X106685894Y-123422774D01*
X106538712Y-123156467D01*
X106533895Y-123146465D01*
X106458808Y-122965189D01*
X106417451Y-122865346D01*
X106413786Y-122854871D01*
X106391633Y-122777977D01*
X106329545Y-122562465D01*
X106327082Y-122551671D01*
X106276111Y-122251679D01*
X106274869Y-122240649D01*
X106257654Y-121934123D01*
X106257498Y-121928572D01*
X106257498Y-121886452D01*
X106257498Y-121886426D01*
X106257494Y-121886417D01*
X106257139Y-115743631D01*
X112144499Y-115743631D01*
X112144737Y-115746055D01*
X112144738Y-115746059D01*
X112148209Y-115781302D01*
X112148210Y-115781314D01*
X112148448Y-115783722D01*
X112148919Y-115786093D01*
X112148921Y-115786102D01*
X112156938Y-115826408D01*
X112156940Y-115826415D01*
X112157887Y-115831175D01*
X112159745Y-115835661D01*
X112159747Y-115835667D01*
X112182918Y-115891607D01*
X112188571Y-115905254D01*
X112215450Y-115945481D01*
X112216993Y-115947361D01*
X112239465Y-115974743D01*
X112239472Y-115974751D01*
X112241007Y-115976621D01*
X120406923Y-124142534D01*
X120438062Y-124168090D01*
X120478290Y-124194970D01*
X120552370Y-124225655D01*
X120599823Y-124235094D01*
X120639914Y-124239043D01*
X139267640Y-124239043D01*
X139268439Y-124239043D01*
X139282203Y-124238582D01*
X139298768Y-124237470D01*
X139312459Y-124236089D01*
X139393565Y-124225155D01*
X139420522Y-124219662D01*
X139452469Y-124210890D01*
X139478461Y-124201843D01*
X139553782Y-124169820D01*
X139566260Y-124164014D01*
X139581058Y-124156516D01*
X139593122Y-124149886D01*
X144937707Y-120975286D01*
X144995473Y-120961667D01*
X145050650Y-120983536D01*
X145083403Y-121033033D01*
X145081960Y-121092369D01*
X145002168Y-121326259D01*
X145002164Y-121326272D01*
X145001002Y-121329680D01*
X145000346Y-121333227D01*
X145000344Y-121333238D01*
X144952351Y-121593067D01*
X144952349Y-121593079D01*
X144951694Y-121596629D01*
X144951562Y-121600234D01*
X144951561Y-121600246D01*
X144944160Y-121802778D01*
X144941780Y-121867911D01*
X144942174Y-121871496D01*
X144942175Y-121871509D01*
X144971074Y-122134155D01*
X144971075Y-122134165D01*
X144971470Y-122137747D01*
X144972381Y-122141232D01*
X144972383Y-122141242D01*
X145039218Y-122396890D01*
X145039220Y-122396896D01*
X145040132Y-122400384D01*
X145146303Y-122650224D01*
X145148184Y-122653306D01*
X145271196Y-122854871D01*
X145287719Y-122881944D01*
X145461368Y-123090604D01*
X145663546Y-123271757D01*
X145889947Y-123421542D01*
X146135743Y-123536767D01*
X146395697Y-123614975D01*
X146664268Y-123654500D01*
X146865974Y-123654500D01*
X146867781Y-123654500D01*
X147070740Y-123639645D01*
X147335709Y-123580621D01*
X147589261Y-123483646D01*
X147825991Y-123350786D01*
X148040853Y-123184875D01*
X148229269Y-122989447D01*
X148387223Y-122768668D01*
X148511348Y-122527244D01*
X148598998Y-122270320D01*
X148648306Y-122003371D01*
X148658220Y-121732089D01*
X148628530Y-121462253D01*
X148559868Y-121199616D01*
X148453697Y-120949776D01*
X148312281Y-120718056D01*
X148138632Y-120509396D01*
X147936454Y-120328243D01*
X147823253Y-120253350D01*
X147713072Y-120180455D01*
X147713068Y-120180453D01*
X147710053Y-120178458D01*
X147706775Y-120176921D01*
X147706771Y-120176919D01*
X147467532Y-120064768D01*
X147467528Y-120064766D01*
X147464257Y-120063233D01*
X147460806Y-120062195D01*
X147460799Y-120062192D01*
X147207768Y-119986067D01*
X147207762Y-119986065D01*
X147204303Y-119985025D01*
X147187345Y-119982529D01*
X147158514Y-119978286D01*
X147112397Y-119958679D01*
X147081790Y-119919000D01*
X147074535Y-119869416D01*
X147092490Y-119822631D01*
X147131053Y-119790634D01*
X149106789Y-118868402D01*
X149155410Y-118836652D01*
X149207555Y-118790895D01*
X149245352Y-118746814D01*
X149269309Y-118693919D01*
X149288716Y-118627314D01*
X149296921Y-118569827D01*
X149296921Y-117179811D01*
X149296288Y-117163692D01*
X149296208Y-117162677D01*
X149296159Y-117161841D01*
X149296160Y-117150156D01*
X149296211Y-117149278D01*
X149296288Y-117148310D01*
X149296921Y-117132191D01*
X149296921Y-116977835D01*
X149297643Y-116965902D01*
X149304923Y-116905946D01*
X149305645Y-116900000D01*
X149297643Y-116834098D01*
X149296921Y-116822165D01*
X149296921Y-114826684D01*
X149296921Y-114825719D01*
X149296288Y-114809600D01*
X149296211Y-114808629D01*
X149296159Y-114807731D01*
X149296159Y-114796087D01*
X149296210Y-114795211D01*
X149296288Y-114794226D01*
X149296921Y-114778103D01*
X149296921Y-112325722D01*
X149296288Y-112309600D01*
X149296209Y-112308606D01*
X149296159Y-112307745D01*
X149296159Y-112296072D01*
X149296210Y-112295188D01*
X149296288Y-112294209D01*
X149296921Y-112278098D01*
X149296921Y-112246274D01*
X149296919Y-112246258D01*
X149296918Y-112246228D01*
X149296918Y-109821827D01*
X149296918Y-109820862D01*
X149296326Y-109805789D01*
X149296326Y-109798024D01*
X149296918Y-109782960D01*
X149296918Y-107174951D01*
X149296326Y-107159878D01*
X149296326Y-107152112D01*
X149296918Y-107137049D01*
X149296918Y-104674951D01*
X149296325Y-104659880D01*
X149296325Y-104652136D01*
X149296917Y-104637048D01*
X149296917Y-102174944D01*
X149296325Y-102159871D01*
X149296325Y-102152131D01*
X149296917Y-102137055D01*
X149296917Y-99674944D01*
X149296325Y-99659871D01*
X149296325Y-99652130D01*
X149296917Y-99637055D01*
X149296917Y-97174945D01*
X149296325Y-97159874D01*
X149296325Y-97152128D01*
X149296917Y-97137055D01*
X149296917Y-94674945D01*
X149296325Y-94659875D01*
X149296325Y-94652110D01*
X149296878Y-94638015D01*
X149296916Y-94637055D01*
X149296916Y-92174937D01*
X149296324Y-92159862D01*
X149296324Y-92152138D01*
X149296916Y-92137062D01*
X149296916Y-89674939D01*
X149296324Y-89659864D01*
X149296324Y-89652137D01*
X149296916Y-89637062D01*
X149296916Y-87174938D01*
X149296324Y-87159867D01*
X149296324Y-87152135D01*
X149296916Y-87137062D01*
X149296916Y-84674939D01*
X149296324Y-84659868D01*
X149296324Y-84652133D01*
X149296916Y-84637062D01*
X149296916Y-83927154D01*
X149295926Y-83907012D01*
X149294725Y-83894818D01*
X149291766Y-83874867D01*
X149280168Y-83816563D01*
X149268475Y-83778016D01*
X149259143Y-83755486D01*
X149244614Y-83728304D01*
X149241292Y-83722089D01*
X149241288Y-83722083D01*
X149240151Y-83719955D01*
X149210609Y-83675743D01*
X149185053Y-83644604D01*
X149167810Y-83627361D01*
X149136671Y-83601805D01*
X149101234Y-83578126D01*
X149094484Y-83573616D01*
X149094482Y-83573615D01*
X149092459Y-83572263D01*
X149090306Y-83571112D01*
X149059066Y-83554414D01*
X149059060Y-83554411D01*
X149056925Y-83553270D01*
X149054680Y-83552340D01*
X149054674Y-83552337D01*
X149036630Y-83544864D01*
X149036627Y-83544863D01*
X149034394Y-83543938D01*
X149032088Y-83543238D01*
X149032081Y-83543236D01*
X148998160Y-83532947D01*
X148998149Y-83532944D01*
X148995847Y-83532246D01*
X148993483Y-83531775D01*
X148993476Y-83531774D01*
X148938726Y-83520884D01*
X148938721Y-83520883D01*
X148937544Y-83520649D01*
X148936368Y-83520474D01*
X148936342Y-83520470D01*
X148918792Y-83517867D01*
X148918786Y-83517866D01*
X148917598Y-83517690D01*
X148916415Y-83517573D01*
X148916395Y-83517571D01*
X148906629Y-83516609D01*
X148906606Y-83516607D01*
X148905405Y-83516489D01*
X148904195Y-83516429D01*
X148904188Y-83516429D01*
X148886450Y-83515557D01*
X148886432Y-83515556D01*
X148885261Y-83515499D01*
X137547574Y-83515499D01*
X137546410Y-83515556D01*
X137546374Y-83515557D01*
X137528656Y-83516427D01*
X137528629Y-83516428D01*
X137527447Y-83516487D01*
X137526271Y-83516602D01*
X137526240Y-83516605D01*
X137516477Y-83517566D01*
X137516451Y-83517569D01*
X137515254Y-83517687D01*
X137514071Y-83517862D01*
X137514042Y-83517866D01*
X137496481Y-83520471D01*
X137496472Y-83520472D01*
X137495289Y-83520648D01*
X137494143Y-83520875D01*
X137494108Y-83520882D01*
X137439361Y-83531772D01*
X137439342Y-83531776D01*
X137436983Y-83532246D01*
X137434663Y-83532949D01*
X137434658Y-83532951D01*
X137400756Y-83543235D01*
X137400751Y-83543236D01*
X137398436Y-83543939D01*
X137396208Y-83544861D01*
X137396199Y-83544865D01*
X137378151Y-83552340D01*
X137378134Y-83552347D01*
X137375908Y-83553270D01*
X137373770Y-83554412D01*
X137373761Y-83554417D01*
X137342526Y-83571112D01*
X137342516Y-83571118D01*
X137340376Y-83572262D01*
X137338360Y-83573608D01*
X137338350Y-83573615D01*
X137298184Y-83600454D01*
X137296161Y-83601806D01*
X137294289Y-83603341D01*
X137294280Y-83603349D01*
X137266899Y-83625821D01*
X137266892Y-83625826D01*
X137265022Y-83627362D01*
X137263319Y-83629064D01*
X137263309Y-83629074D01*
X137249494Y-83642889D01*
X137249484Y-83642899D01*
X137247782Y-83644602D01*
X137246256Y-83646461D01*
X137246240Y-83646479D01*
X137223768Y-83673861D01*
X137223760Y-83673870D01*
X137222225Y-83675742D01*
X137220882Y-83677751D01*
X137220873Y-83677764D01*
X137194035Y-83717929D01*
X137194022Y-83717949D01*
X137192682Y-83719956D01*
X137191542Y-83722089D01*
X137191532Y-83722106D01*
X137174840Y-83753335D01*
X137174834Y-83753346D01*
X137173691Y-83755486D01*
X137172766Y-83757717D01*
X137172757Y-83757738D01*
X137165937Y-83774206D01*
X137164359Y-83778016D01*
X137163658Y-83780325D01*
X137163655Y-83780335D01*
X137153373Y-83814230D01*
X137153369Y-83814243D01*
X137152666Y-83816563D01*
X137152194Y-83818932D01*
X137152191Y-83818947D01*
X137141305Y-83873673D01*
X137141301Y-83873693D01*
X137141068Y-83874867D01*
X137140892Y-83876048D01*
X137140888Y-83876076D01*
X137139533Y-83885216D01*
X137138109Y-83894818D01*
X137137988Y-83896038D01*
X137137988Y-83896045D01*
X137137028Y-83905787D01*
X137137026Y-83905813D01*
X137136908Y-83907012D01*
X137135918Y-83927154D01*
X137135918Y-83928352D01*
X137135918Y-116869043D01*
X137122655Y-116918543D01*
X137086418Y-116954780D01*
X137036918Y-116968043D01*
X123556185Y-116968043D01*
X123518299Y-116960507D01*
X123486181Y-116939047D01*
X119444494Y-112897361D01*
X119423034Y-112865243D01*
X119415498Y-112827361D01*
X119415498Y-105751210D01*
X119415645Y-105750000D01*
X119415498Y-105748789D01*
X119415498Y-105653803D01*
X119414864Y-105637676D01*
X119413337Y-105618278D01*
X119411441Y-105602257D01*
X119396463Y-105507692D01*
X119388936Y-105476340D01*
X119376948Y-105439443D01*
X119364607Y-105409648D01*
X119325622Y-105333136D01*
X119308771Y-105305639D01*
X119285967Y-105274253D01*
X119265026Y-105249735D01*
X119204310Y-105189019D01*
X119202821Y-105187747D01*
X119181272Y-105169341D01*
X119181261Y-105169332D01*
X119179795Y-105168080D01*
X119148410Y-105145276D01*
X119146775Y-105144274D01*
X119146760Y-105144264D01*
X119122562Y-105129436D01*
X119120909Y-105128423D01*
X119044394Y-105089437D01*
X119042603Y-105088695D01*
X119042592Y-105088690D01*
X119016392Y-105077837D01*
X119016381Y-105077833D01*
X119014602Y-105077096D01*
X118997341Y-105071487D01*
X118979547Y-105065706D01*
X118979542Y-105065704D01*
X118977709Y-105065109D01*
X118975842Y-105064660D01*
X118975825Y-105064656D01*
X118948248Y-105058036D01*
X118948231Y-105058032D01*
X118946354Y-105057582D01*
X118944431Y-105057277D01*
X118944429Y-105057277D01*
X118852728Y-105042753D01*
X118852715Y-105042751D01*
X118851773Y-105042602D01*
X118850830Y-105042490D01*
X118850820Y-105042489D01*
X118836708Y-105040819D01*
X118836706Y-105040818D01*
X118835753Y-105040706D01*
X118834828Y-105040633D01*
X118834796Y-105040630D01*
X118817332Y-105039255D01*
X118817288Y-105039252D01*
X118816381Y-105039181D01*
X118815461Y-105039144D01*
X118815430Y-105039143D01*
X118801204Y-105038584D01*
X118801186Y-105038583D01*
X118800254Y-105038547D01*
X118799292Y-105038547D01*
X115779998Y-105038547D01*
X112760714Y-105038546D01*
X112759753Y-105038546D01*
X112758823Y-105038582D01*
X112758800Y-105038583D01*
X112744566Y-105039142D01*
X112744517Y-105039144D01*
X112743624Y-105039180D01*
X112742687Y-105039253D01*
X112742683Y-105039254D01*
X112725152Y-105040634D01*
X112725138Y-105040635D01*
X112724228Y-105040707D01*
X112723338Y-105040812D01*
X112723311Y-105040815D01*
X112709148Y-105042492D01*
X112709138Y-105042493D01*
X112708212Y-105042603D01*
X112707311Y-105042745D01*
X112707258Y-105042753D01*
X112615568Y-105057275D01*
X112615560Y-105057276D01*
X112613644Y-105057580D01*
X112611779Y-105058027D01*
X112611757Y-105058032D01*
X112584172Y-105064654D01*
X112584165Y-105064655D01*
X112582290Y-105065106D01*
X112580451Y-105065703D01*
X112580442Y-105065706D01*
X112547245Y-105076491D01*
X112547224Y-105076498D01*
X112545398Y-105077092D01*
X112543611Y-105077831D01*
X112543598Y-105077837D01*
X112517401Y-105088689D01*
X112517399Y-105088690D01*
X112515601Y-105089435D01*
X112513888Y-105090307D01*
X112513868Y-105090317D01*
X112440810Y-105127543D01*
X112440799Y-105127548D01*
X112439082Y-105128424D01*
X112437442Y-105129428D01*
X112437433Y-105129434D01*
X112413233Y-105144264D01*
X112411585Y-105145274D01*
X112410044Y-105146393D01*
X112410024Y-105146407D01*
X112381774Y-105166933D01*
X112381762Y-105166942D01*
X112380206Y-105168073D01*
X112378743Y-105169322D01*
X112378731Y-105169332D01*
X112357170Y-105187747D01*
X112357150Y-105187764D01*
X112355687Y-105189015D01*
X112354318Y-105190383D01*
X112354305Y-105190396D01*
X112296336Y-105248366D01*
X112296324Y-105248378D01*
X112294967Y-105249736D01*
X112293716Y-105251199D01*
X112293711Y-105251206D01*
X112275300Y-105272762D01*
X112274031Y-105274248D01*
X112272888Y-105275821D01*
X112272879Y-105275833D01*
X112252370Y-105304058D01*
X112252366Y-105304064D01*
X112251230Y-105305628D01*
X112250231Y-105307256D01*
X112250217Y-105307279D01*
X112235400Y-105331459D01*
X112234377Y-105333129D01*
X112233490Y-105334867D01*
X112233487Y-105334875D01*
X112196274Y-105407907D01*
X112196263Y-105407929D01*
X112195388Y-105409648D01*
X112194653Y-105411421D01*
X112194643Y-105411444D01*
X112183792Y-105437642D01*
X112183047Y-105439441D01*
X112182452Y-105441270D01*
X112182445Y-105441291D01*
X112171662Y-105474480D01*
X112171062Y-105476327D01*
X112170615Y-105478187D01*
X112170611Y-105478203D01*
X112163988Y-105505793D01*
X112163534Y-105507685D01*
X112163231Y-105509592D01*
X112163228Y-105509612D01*
X112148706Y-105601307D01*
X112148701Y-105601340D01*
X112148554Y-105602271D01*
X112148444Y-105603197D01*
X112148440Y-105603229D01*
X112146775Y-105617303D01*
X112146657Y-105618300D01*
X112146582Y-105619250D01*
X112146580Y-105619274D01*
X112145208Y-105636714D01*
X112145206Y-105636737D01*
X112145132Y-105637686D01*
X112145095Y-105638626D01*
X112145094Y-105638650D01*
X112144536Y-105652844D01*
X112144536Y-105652852D01*
X112144499Y-105653802D01*
X112144499Y-115743631D01*
X106257139Y-115743631D01*
X106256378Y-102562634D01*
X112269818Y-102562634D01*
X112270298Y-102566593D01*
X112270299Y-102566600D01*
X112299511Y-102807184D01*
X112299512Y-102807192D01*
X112299993Y-102811148D01*
X112301103Y-102814982D01*
X112301104Y-102814984D01*
X112368529Y-103047766D01*
X112368531Y-103047772D01*
X112369641Y-103051603D01*
X112476959Y-103277771D01*
X112479223Y-103281051D01*
X112479226Y-103281056D01*
X112616895Y-103480503D01*
X112619168Y-103483796D01*
X112621933Y-103486675D01*
X112621935Y-103486677D01*
X112711772Y-103580207D01*
X112792584Y-103664340D01*
X112992715Y-103814729D01*
X113214379Y-103931068D01*
X113451834Y-104010342D01*
X113698931Y-104050499D01*
X114884580Y-104050499D01*
X114886581Y-104050499D01*
X115073627Y-104035399D01*
X115316691Y-103975489D01*
X115546997Y-103877365D01*
X115758581Y-103743567D01*
X115945962Y-103577562D01*
X116104288Y-103383649D01*
X116229457Y-103166849D01*
X116318228Y-102932779D01*
X116368302Y-102687499D01*
X116378382Y-102437364D01*
X116348207Y-102188850D01*
X116286844Y-101977000D01*
X118474353Y-101977000D01*
X118475361Y-101984011D01*
X118493826Y-102112443D01*
X118493827Y-102112446D01*
X118494835Y-102119457D01*
X118497777Y-102125899D01*
X118497778Y-102125902D01*
X118545776Y-102231001D01*
X118554623Y-102250373D01*
X118648872Y-102359143D01*
X118769947Y-102436953D01*
X118908039Y-102477500D01*
X119044883Y-102477500D01*
X119051961Y-102477500D01*
X119140292Y-102451563D01*
X119156411Y-102448257D01*
X119166481Y-102447053D01*
X119612945Y-102307035D01*
X119642570Y-102302500D01*
X120912030Y-102302500D01*
X120912068Y-102302500D01*
X120912080Y-102302497D01*
X120912109Y-102302496D01*
X120960395Y-102302497D01*
X121112116Y-102278468D01*
X121258209Y-102231001D01*
X121395078Y-102161263D01*
X121519353Y-102070973D01*
X121573663Y-102016663D01*
X121584651Y-102005673D01*
X121608806Y-101987932D01*
X122023515Y-101771241D01*
X122024285Y-101770634D01*
X122028641Y-101768248D01*
X122033053Y-101766953D01*
X122154128Y-101689143D01*
X122248377Y-101580373D01*
X122308165Y-101449457D01*
X122328647Y-101307000D01*
X122308165Y-101164543D01*
X122248377Y-101033627D01*
X122154128Y-100924857D01*
X122148174Y-100921030D01*
X122148171Y-100921028D01*
X122039010Y-100850875D01*
X122039008Y-100850874D01*
X122033053Y-100847047D01*
X121894961Y-100806500D01*
X121751039Y-100806500D01*
X121744248Y-100808493D01*
X121744247Y-100808494D01*
X121619740Y-100845052D01*
X121619737Y-100845053D01*
X121612947Y-100847047D01*
X121606994Y-100850872D01*
X121606989Y-100850875D01*
X121497828Y-100921028D01*
X121497822Y-100921033D01*
X121491872Y-100924857D01*
X121487236Y-100930206D01*
X121487235Y-100930208D01*
X121402261Y-101028273D01*
X121402257Y-101028278D01*
X121397623Y-101033627D01*
X121394682Y-101040065D01*
X121394681Y-101040068D01*
X121377011Y-101078759D01*
X121364782Y-101098823D01*
X121361585Y-101102888D01*
X121361579Y-101102895D01*
X121358759Y-101106483D01*
X121356646Y-101110526D01*
X121356642Y-101110533D01*
X121142066Y-101521192D01*
X121124327Y-101545346D01*
X121117935Y-101551739D01*
X121108198Y-101560277D01*
X121056384Y-101600035D01*
X121034003Y-101612957D01*
X120994701Y-101629236D01*
X120979728Y-101635438D01*
X120954766Y-101642126D01*
X120889999Y-101650653D01*
X120877080Y-101651500D01*
X119642568Y-101651500D01*
X119612943Y-101646963D01*
X119576194Y-101635438D01*
X119355361Y-101566181D01*
X119355360Y-101566180D01*
X119355360Y-101566181D01*
X119170846Y-101508315D01*
X119170843Y-101508314D01*
X119166480Y-101506946D01*
X119161938Y-101506402D01*
X119161926Y-101506400D01*
X119156407Y-101505740D01*
X119140282Y-101502432D01*
X119058754Y-101478494D01*
X119058750Y-101478493D01*
X119051961Y-101476500D01*
X118908039Y-101476500D01*
X118901248Y-101478493D01*
X118901247Y-101478494D01*
X118776740Y-101515052D01*
X118776737Y-101515053D01*
X118769947Y-101517047D01*
X118763994Y-101520872D01*
X118763989Y-101520875D01*
X118654828Y-101591028D01*
X118654822Y-101591033D01*
X118648872Y-101594857D01*
X118644236Y-101600206D01*
X118644235Y-101600208D01*
X118559263Y-101698271D01*
X118559260Y-101698275D01*
X118554623Y-101703627D01*
X118551680Y-101710070D01*
X118551678Y-101710074D01*
X118497778Y-101828097D01*
X118497776Y-101828102D01*
X118494835Y-101834543D01*
X118493827Y-101841551D01*
X118493826Y-101841556D01*
X118478984Y-101944792D01*
X118474353Y-101977000D01*
X116286844Y-101977000D01*
X116278559Y-101948395D01*
X116171241Y-101722227D01*
X116162852Y-101710074D01*
X116056735Y-101556337D01*
X116029032Y-101516202D01*
X116026264Y-101513320D01*
X115858372Y-101338527D01*
X115858370Y-101338525D01*
X115855616Y-101335658D01*
X115852438Y-101333270D01*
X115852436Y-101333268D01*
X115658669Y-101187662D01*
X115655485Y-101185269D01*
X115651957Y-101183417D01*
X115651955Y-101183416D01*
X115437351Y-101070782D01*
X115437343Y-101070778D01*
X115433821Y-101068930D01*
X115347369Y-101040068D01*
X115200153Y-100990920D01*
X115200149Y-100990919D01*
X115196366Y-100989656D01*
X115192434Y-100989017D01*
X115192426Y-100989015D01*
X114953206Y-100950138D01*
X114953195Y-100950137D01*
X114949269Y-100949499D01*
X113761619Y-100949499D01*
X113759648Y-100949658D01*
X113759625Y-100949659D01*
X113578553Y-100964277D01*
X113578544Y-100964278D01*
X113574573Y-100964599D01*
X113570695Y-100965554D01*
X113570694Y-100965555D01*
X113335387Y-101023553D01*
X113335385Y-101023553D01*
X113331509Y-101024509D01*
X113327845Y-101026069D01*
X113327836Y-101026073D01*
X113104872Y-101121069D01*
X113104864Y-101121073D01*
X113101203Y-101122633D01*
X113097843Y-101124757D01*
X113097831Y-101124764D01*
X112892996Y-101254295D01*
X112892991Y-101254298D01*
X112889619Y-101256431D01*
X112886633Y-101259075D01*
X112886628Y-101259080D01*
X112705224Y-101419790D01*
X112705219Y-101419794D01*
X112702238Y-101422436D01*
X112699721Y-101425518D01*
X112699713Y-101425527D01*
X112550754Y-101607969D01*
X112543912Y-101616349D01*
X112541927Y-101619785D01*
X112541920Y-101619797D01*
X112420735Y-101829697D01*
X112420730Y-101829706D01*
X112418743Y-101833149D01*
X112417333Y-101836865D01*
X112417329Y-101836875D01*
X112331387Y-102063486D01*
X112331384Y-102063494D01*
X112329972Y-102067219D01*
X112329173Y-102071128D01*
X112329172Y-102071135D01*
X112296290Y-102232204D01*
X112279898Y-102312499D01*
X112279737Y-102316483D01*
X112279737Y-102316487D01*
X112269978Y-102558644D01*
X112269978Y-102558653D01*
X112269818Y-102562634D01*
X106256378Y-102562634D01*
X106256135Y-98362634D01*
X106769818Y-98362634D01*
X106770298Y-98366593D01*
X106770299Y-98366600D01*
X106799511Y-98607184D01*
X106799512Y-98607192D01*
X106799993Y-98611148D01*
X106801103Y-98614982D01*
X106801104Y-98614984D01*
X106868529Y-98847766D01*
X106868531Y-98847772D01*
X106869641Y-98851603D01*
X106976959Y-99077771D01*
X106979223Y-99081051D01*
X106979226Y-99081056D01*
X107116895Y-99280503D01*
X107119168Y-99283796D01*
X107121933Y-99286675D01*
X107121935Y-99286677D01*
X107245148Y-99414955D01*
X107292584Y-99464340D01*
X107492715Y-99614729D01*
X107714379Y-99731068D01*
X107951834Y-99810342D01*
X108198931Y-99850499D01*
X109384580Y-99850499D01*
X109386581Y-99850499D01*
X109573627Y-99835399D01*
X109816691Y-99775489D01*
X110046997Y-99677365D01*
X110258581Y-99543567D01*
X110445962Y-99377562D01*
X110604288Y-99183649D01*
X110729457Y-98966849D01*
X110818228Y-98732779D01*
X110868302Y-98487499D01*
X110873334Y-98362634D01*
X112269818Y-98362634D01*
X112270298Y-98366593D01*
X112270299Y-98366600D01*
X112299511Y-98607184D01*
X112299512Y-98607192D01*
X112299993Y-98611148D01*
X112301103Y-98614982D01*
X112301104Y-98614984D01*
X112368529Y-98847766D01*
X112368531Y-98847772D01*
X112369641Y-98851603D01*
X112476959Y-99077771D01*
X112479223Y-99081051D01*
X112479226Y-99081056D01*
X112616895Y-99280503D01*
X112619168Y-99283796D01*
X112621933Y-99286675D01*
X112621935Y-99286677D01*
X112745148Y-99414955D01*
X112792584Y-99464340D01*
X112992715Y-99614729D01*
X113214379Y-99731068D01*
X113451834Y-99810342D01*
X113698931Y-99850499D01*
X114884580Y-99850499D01*
X114886581Y-99850499D01*
X115073627Y-99835399D01*
X115316691Y-99775489D01*
X115546997Y-99677365D01*
X115758581Y-99543567D01*
X115945962Y-99377562D01*
X116104288Y-99183649D01*
X116229457Y-98966849D01*
X116318228Y-98732779D01*
X116368302Y-98487499D01*
X116378382Y-98237364D01*
X116348207Y-97988850D01*
X116278559Y-97748395D01*
X116171241Y-97522227D01*
X116029032Y-97316202D01*
X115938968Y-97222436D01*
X115858372Y-97138527D01*
X115858370Y-97138525D01*
X115855616Y-97135658D01*
X115852438Y-97133270D01*
X115852436Y-97133268D01*
X115658669Y-96987662D01*
X115655485Y-96985269D01*
X115651957Y-96983417D01*
X115651955Y-96983416D01*
X115437351Y-96870782D01*
X115437343Y-96870778D01*
X115433821Y-96868930D01*
X115430038Y-96867667D01*
X115200153Y-96790920D01*
X115200149Y-96790919D01*
X115196366Y-96789656D01*
X115192434Y-96789017D01*
X115192426Y-96789015D01*
X114953206Y-96750138D01*
X114953195Y-96750137D01*
X114949269Y-96749499D01*
X113761619Y-96749499D01*
X113759648Y-96749658D01*
X113759625Y-96749659D01*
X113578553Y-96764277D01*
X113578544Y-96764278D01*
X113574573Y-96764599D01*
X113570695Y-96765554D01*
X113570694Y-96765555D01*
X113335387Y-96823553D01*
X113335385Y-96823553D01*
X113331509Y-96824509D01*
X113327845Y-96826069D01*
X113327836Y-96826073D01*
X113104872Y-96921069D01*
X113104864Y-96921073D01*
X113101203Y-96922633D01*
X113097843Y-96924757D01*
X113097831Y-96924764D01*
X112892996Y-97054295D01*
X112892991Y-97054298D01*
X112889619Y-97056431D01*
X112886633Y-97059075D01*
X112886628Y-97059080D01*
X112705224Y-97219790D01*
X112705219Y-97219794D01*
X112702238Y-97222436D01*
X112699721Y-97225518D01*
X112699713Y-97225527D01*
X112546432Y-97413262D01*
X112543912Y-97416349D01*
X112541927Y-97419785D01*
X112541920Y-97419797D01*
X112420735Y-97629697D01*
X112420730Y-97629706D01*
X112418743Y-97633149D01*
X112417333Y-97636865D01*
X112417329Y-97636875D01*
X112331387Y-97863486D01*
X112331384Y-97863494D01*
X112329972Y-97867219D01*
X112329173Y-97871128D01*
X112329172Y-97871135D01*
X112280697Y-98108584D01*
X112279898Y-98112499D01*
X112279737Y-98116483D01*
X112279737Y-98116487D01*
X112269978Y-98358644D01*
X112269978Y-98358653D01*
X112269818Y-98362634D01*
X110873334Y-98362634D01*
X110878382Y-98237364D01*
X110848207Y-97988850D01*
X110778559Y-97748395D01*
X110671241Y-97522227D01*
X110529032Y-97316202D01*
X110438968Y-97222436D01*
X110358372Y-97138527D01*
X110358370Y-97138525D01*
X110355616Y-97135658D01*
X110352438Y-97133270D01*
X110352436Y-97133268D01*
X110158669Y-96987662D01*
X110155485Y-96985269D01*
X110151957Y-96983417D01*
X110151955Y-96983416D01*
X109937351Y-96870782D01*
X109937343Y-96870778D01*
X109933821Y-96868930D01*
X109930038Y-96867667D01*
X109700153Y-96790920D01*
X109700149Y-96790919D01*
X109696366Y-96789656D01*
X109692434Y-96789017D01*
X109692426Y-96789015D01*
X109453206Y-96750138D01*
X109453195Y-96750137D01*
X109449269Y-96749499D01*
X108261619Y-96749499D01*
X108259648Y-96749658D01*
X108259625Y-96749659D01*
X108078553Y-96764277D01*
X108078544Y-96764278D01*
X108074573Y-96764599D01*
X108070695Y-96765554D01*
X108070694Y-96765555D01*
X107835387Y-96823553D01*
X107835385Y-96823553D01*
X107831509Y-96824509D01*
X107827845Y-96826069D01*
X107827836Y-96826073D01*
X107604872Y-96921069D01*
X107604864Y-96921073D01*
X107601203Y-96922633D01*
X107597843Y-96924757D01*
X107597831Y-96924764D01*
X107392996Y-97054295D01*
X107392991Y-97054298D01*
X107389619Y-97056431D01*
X107386633Y-97059075D01*
X107386628Y-97059080D01*
X107205224Y-97219790D01*
X107205219Y-97219794D01*
X107202238Y-97222436D01*
X107199721Y-97225518D01*
X107199713Y-97225527D01*
X107046432Y-97413262D01*
X107043912Y-97416349D01*
X107041927Y-97419785D01*
X107041920Y-97419797D01*
X106920735Y-97629697D01*
X106920730Y-97629706D01*
X106918743Y-97633149D01*
X106917333Y-97636865D01*
X106917329Y-97636875D01*
X106831387Y-97863486D01*
X106831384Y-97863494D01*
X106829972Y-97867219D01*
X106829173Y-97871128D01*
X106829172Y-97871135D01*
X106780697Y-98108584D01*
X106779898Y-98112499D01*
X106779737Y-98116483D01*
X106779737Y-98116487D01*
X106769978Y-98358644D01*
X106769978Y-98358653D01*
X106769818Y-98362634D01*
X106256135Y-98362634D01*
X106255836Y-93192000D01*
X109483417Y-93192000D01*
X109503700Y-93397934D01*
X109505111Y-93402586D01*
X109505112Y-93402590D01*
X109559252Y-93581066D01*
X109563768Y-93595954D01*
X109566062Y-93600246D01*
X109566063Y-93600248D01*
X109659023Y-93774163D01*
X109659025Y-93774166D01*
X109661315Y-93778450D01*
X109664398Y-93782207D01*
X109664399Y-93782208D01*
X109723661Y-93854420D01*
X109792590Y-93938410D01*
X109952550Y-94069685D01*
X110135046Y-94167232D01*
X110333066Y-94227300D01*
X110539000Y-94247583D01*
X110744934Y-94227300D01*
X110942954Y-94167232D01*
X111125450Y-94069685D01*
X111285410Y-93938410D01*
X111416685Y-93778450D01*
X111514232Y-93595954D01*
X111574300Y-93397934D01*
X111594583Y-93192000D01*
X111574300Y-92986066D01*
X111514232Y-92788046D01*
X111416685Y-92605550D01*
X111338270Y-92510000D01*
X113303353Y-92510000D01*
X113304361Y-92517011D01*
X113322826Y-92645443D01*
X113322827Y-92645446D01*
X113323835Y-92652457D01*
X113326777Y-92658899D01*
X113326778Y-92658902D01*
X113380678Y-92776925D01*
X113383623Y-92783373D01*
X113477872Y-92892143D01*
X113598947Y-92969953D01*
X113737039Y-93010500D01*
X113873883Y-93010500D01*
X113880961Y-93010500D01*
X114019053Y-92969953D01*
X114140128Y-92892143D01*
X114234377Y-92783373D01*
X114294165Y-92652457D01*
X114314647Y-92510000D01*
X114294165Y-92367543D01*
X114234377Y-92236627D01*
X114140128Y-92127857D01*
X114134174Y-92124030D01*
X114134171Y-92124028D01*
X114025010Y-92053875D01*
X114025008Y-92053874D01*
X114019053Y-92050047D01*
X113929642Y-92023794D01*
X113887752Y-92011494D01*
X113880961Y-92009500D01*
X113737039Y-92009500D01*
X113730248Y-92011493D01*
X113730247Y-92011494D01*
X113605740Y-92048052D01*
X113605737Y-92048053D01*
X113598947Y-92050047D01*
X113592994Y-92053872D01*
X113592989Y-92053875D01*
X113483828Y-92124028D01*
X113483822Y-92124033D01*
X113477872Y-92127857D01*
X113473236Y-92133206D01*
X113473235Y-92133208D01*
X113388263Y-92231271D01*
X113388260Y-92231275D01*
X113383623Y-92236627D01*
X113380680Y-92243070D01*
X113380678Y-92243074D01*
X113326778Y-92361097D01*
X113326776Y-92361102D01*
X113323835Y-92367543D01*
X113322827Y-92374551D01*
X113322826Y-92374556D01*
X113312072Y-92449354D01*
X113303353Y-92510000D01*
X111338270Y-92510000D01*
X111285410Y-92445590D01*
X111248568Y-92415355D01*
X111129208Y-92317399D01*
X111129207Y-92317398D01*
X111125450Y-92314315D01*
X111121166Y-92312025D01*
X111121163Y-92312023D01*
X110947248Y-92219063D01*
X110947246Y-92219062D01*
X110942954Y-92216768D01*
X110938293Y-92215354D01*
X110749590Y-92158112D01*
X110749586Y-92158111D01*
X110744934Y-92156700D01*
X110539000Y-92136417D01*
X110534157Y-92136894D01*
X110337908Y-92156223D01*
X110337907Y-92156223D01*
X110333066Y-92156700D01*
X110328415Y-92158110D01*
X110328409Y-92158112D01*
X110139706Y-92215354D01*
X110139702Y-92215355D01*
X110135046Y-92216768D01*
X110130757Y-92219060D01*
X110130751Y-92219063D01*
X109956836Y-92312023D01*
X109956828Y-92312028D01*
X109952550Y-92314315D01*
X109948796Y-92317394D01*
X109948791Y-92317399D01*
X109796354Y-92442500D01*
X109796348Y-92442505D01*
X109792590Y-92445590D01*
X109789505Y-92449348D01*
X109789500Y-92449354D01*
X109664399Y-92601791D01*
X109664394Y-92601796D01*
X109661315Y-92605550D01*
X109659028Y-92609828D01*
X109659023Y-92609836D01*
X109566063Y-92783751D01*
X109566060Y-92783757D01*
X109563768Y-92788046D01*
X109562355Y-92792702D01*
X109562354Y-92792706D01*
X109505112Y-92981409D01*
X109505110Y-92981415D01*
X109503700Y-92986066D01*
X109503223Y-92990907D01*
X109503223Y-92990908D01*
X109484375Y-93182273D01*
X109483417Y-93192000D01*
X106255836Y-93192000D01*
X106255628Y-89584000D01*
X109482417Y-89584000D01*
X109502700Y-89789934D01*
X109562768Y-89987954D01*
X109565062Y-89992246D01*
X109565063Y-89992248D01*
X109658023Y-90166163D01*
X109658025Y-90166166D01*
X109660315Y-90170450D01*
X109791590Y-90330410D01*
X109951550Y-90461685D01*
X110134046Y-90559232D01*
X110332066Y-90619300D01*
X110538000Y-90639583D01*
X110743934Y-90619300D01*
X110941954Y-90559232D01*
X111124450Y-90461685D01*
X111284410Y-90330410D01*
X111415685Y-90170450D01*
X111513232Y-89987954D01*
X111573300Y-89789934D01*
X111593583Y-89584000D01*
X111573300Y-89378066D01*
X111513232Y-89180046D01*
X111415685Y-88997550D01*
X111284410Y-88837590D01*
X111206805Y-88773902D01*
X111128208Y-88709399D01*
X111128207Y-88709398D01*
X111124450Y-88706315D01*
X111120166Y-88704025D01*
X111120163Y-88704023D01*
X110972322Y-88625000D01*
X112857353Y-88625000D01*
X112858361Y-88632011D01*
X112876826Y-88760443D01*
X112876827Y-88760446D01*
X112877835Y-88767457D01*
X112880777Y-88773899D01*
X112880778Y-88773902D01*
X112916347Y-88851786D01*
X112937623Y-88898373D01*
X113031872Y-89007143D01*
X113037826Y-89010969D01*
X113037828Y-89010971D01*
X113105684Y-89054579D01*
X113152947Y-89084953D01*
X113291039Y-89125500D01*
X113427883Y-89125500D01*
X113434961Y-89125500D01*
X113573053Y-89084953D01*
X113694128Y-89007143D01*
X113788377Y-88898373D01*
X113848165Y-88767457D01*
X113868647Y-88625000D01*
X113848165Y-88482543D01*
X113788377Y-88351627D01*
X113694128Y-88242857D01*
X113688174Y-88239030D01*
X113688171Y-88239028D01*
X113579010Y-88168875D01*
X113579008Y-88168874D01*
X113573053Y-88165047D01*
X113434961Y-88124500D01*
X113291039Y-88124500D01*
X113284248Y-88126493D01*
X113284247Y-88126494D01*
X113159740Y-88163052D01*
X113159737Y-88163053D01*
X113152947Y-88165047D01*
X113146994Y-88168872D01*
X113146989Y-88168875D01*
X113037828Y-88239028D01*
X113037822Y-88239033D01*
X113031872Y-88242857D01*
X113027236Y-88248206D01*
X113027235Y-88248208D01*
X112942263Y-88346271D01*
X112942260Y-88346275D01*
X112937623Y-88351627D01*
X112934680Y-88358070D01*
X112934678Y-88358074D01*
X112880778Y-88476097D01*
X112880776Y-88476102D01*
X112877835Y-88482543D01*
X112876827Y-88489551D01*
X112876826Y-88489556D01*
X112868323Y-88548700D01*
X112857353Y-88625000D01*
X110972322Y-88625000D01*
X110946248Y-88611063D01*
X110946246Y-88611062D01*
X110941954Y-88608768D01*
X110937293Y-88607354D01*
X110748590Y-88550112D01*
X110748586Y-88550111D01*
X110743934Y-88548700D01*
X110538000Y-88528417D01*
X110533157Y-88528894D01*
X110336908Y-88548223D01*
X110336907Y-88548223D01*
X110332066Y-88548700D01*
X110327415Y-88550110D01*
X110327409Y-88550112D01*
X110138706Y-88607354D01*
X110138702Y-88607355D01*
X110134046Y-88608768D01*
X110129757Y-88611060D01*
X110129751Y-88611063D01*
X109955836Y-88704023D01*
X109955828Y-88704028D01*
X109951550Y-88706315D01*
X109947796Y-88709394D01*
X109947791Y-88709399D01*
X109795354Y-88834500D01*
X109795348Y-88834505D01*
X109791590Y-88837590D01*
X109788505Y-88841348D01*
X109788500Y-88841354D01*
X109663399Y-88993791D01*
X109663394Y-88993796D01*
X109660315Y-88997550D01*
X109658028Y-89001828D01*
X109658023Y-89001836D01*
X109565063Y-89175751D01*
X109565060Y-89175757D01*
X109562768Y-89180046D01*
X109561355Y-89184702D01*
X109561354Y-89184706D01*
X109504112Y-89373409D01*
X109504110Y-89373415D01*
X109502700Y-89378066D01*
X109482417Y-89584000D01*
X106255628Y-89584000D01*
X106255497Y-87325000D01*
X111128196Y-87325000D01*
X111129414Y-87332691D01*
X111129414Y-87332692D01*
X111131021Y-87342839D01*
X111132119Y-87353459D01*
X111132428Y-87359759D01*
X111132429Y-87359766D01*
X111132490Y-87360999D01*
X111132609Y-87362216D01*
X111132611Y-87362231D01*
X111133570Y-87371971D01*
X111133573Y-87371999D01*
X111133689Y-87373172D01*
X111133858Y-87374316D01*
X111133863Y-87374351D01*
X111136471Y-87391929D01*
X111136648Y-87393121D01*
X111136884Y-87394307D01*
X111147737Y-87448873D01*
X111147960Y-87450123D01*
X111148027Y-87450331D01*
X111148116Y-87450775D01*
X111149281Y-87458126D01*
X111151575Y-87462630D01*
X111151594Y-87463004D01*
X111151743Y-87462959D01*
X111159940Y-87489979D01*
X111160864Y-87492210D01*
X111160868Y-87492221D01*
X111168339Y-87510259D01*
X111168344Y-87510270D01*
X111169272Y-87512510D01*
X111188265Y-87548044D01*
X111217807Y-87592256D01*
X111243363Y-87623395D01*
X111260606Y-87640638D01*
X111291745Y-87666194D01*
X111335957Y-87695736D01*
X111371491Y-87714729D01*
X111394022Y-87724061D01*
X111421043Y-87732257D01*
X111420998Y-87732404D01*
X111421367Y-87732422D01*
X111425874Y-87734719D01*
X111433195Y-87735878D01*
X111433698Y-87735978D01*
X111433889Y-87736040D01*
X111435066Y-87736250D01*
X111490873Y-87747351D01*
X111510819Y-87750309D01*
X111523012Y-87751510D01*
X111530531Y-87751879D01*
X111541158Y-87752977D01*
X111559000Y-87755804D01*
X111572164Y-87753718D01*
X111587651Y-87752500D01*
X112723646Y-87752500D01*
X112724844Y-87752500D01*
X112744986Y-87751510D01*
X112757180Y-87750309D01*
X112777131Y-87747350D01*
X112835435Y-87735752D01*
X112873982Y-87724059D01*
X112896512Y-87714727D01*
X112932043Y-87695735D01*
X112976255Y-87666193D01*
X113007394Y-87640637D01*
X113024637Y-87623394D01*
X113050193Y-87592255D01*
X113079735Y-87548043D01*
X113098727Y-87512512D01*
X113108059Y-87489982D01*
X113110849Y-87480780D01*
X113117380Y-87464565D01*
X113123719Y-87452126D01*
X113144804Y-87319000D01*
X113137718Y-87274266D01*
X113136500Y-87258780D01*
X113136500Y-86940872D01*
X113136577Y-86937752D01*
X113136564Y-86937752D01*
X113136594Y-86936522D01*
X113136655Y-86935290D01*
X113136572Y-86638415D01*
X113137791Y-86622903D01*
X113142745Y-86591624D01*
X113145085Y-86576847D01*
X113149156Y-86568197D01*
X113146194Y-86562151D01*
X113137749Y-86508832D01*
X113136531Y-86493391D01*
X113136500Y-86376920D01*
X113136500Y-84510774D01*
X113136098Y-84502659D01*
X113135978Y-84497811D01*
X113135858Y-84067446D01*
X113149633Y-84017044D01*
X113187149Y-83980674D01*
X113237956Y-83968468D01*
X113287899Y-83983828D01*
X113323067Y-84022474D01*
X113331532Y-84039087D01*
X113342323Y-84084007D01*
X113342975Y-86546637D01*
X113336438Y-86567903D01*
X113340646Y-86576844D01*
X113341769Y-86583932D01*
X113342989Y-86599397D01*
X113343048Y-86819220D01*
X113343048Y-87295517D01*
X113342415Y-87303559D01*
X113342415Y-87307303D01*
X113341196Y-87315000D01*
X113342415Y-87322696D01*
X113342415Y-87326442D01*
X113343048Y-87334484D01*
X113343048Y-87339624D01*
X113343105Y-87340795D01*
X113343106Y-87340813D01*
X113343465Y-87348112D01*
X113344038Y-87359768D01*
X113344156Y-87360969D01*
X113344158Y-87360992D01*
X113345120Y-87370758D01*
X113345122Y-87370778D01*
X113345239Y-87371961D01*
X113345415Y-87373149D01*
X113345416Y-87373155D01*
X113348019Y-87390705D01*
X113348023Y-87390731D01*
X113348198Y-87391907D01*
X113348432Y-87393084D01*
X113348433Y-87393089D01*
X113359321Y-87447830D01*
X113359795Y-87450210D01*
X113360493Y-87452512D01*
X113360496Y-87452523D01*
X113370785Y-87486444D01*
X113371487Y-87488757D01*
X113372412Y-87490990D01*
X113372413Y-87490993D01*
X113379886Y-87509037D01*
X113379887Y-87509039D01*
X113380819Y-87511288D01*
X113381960Y-87513423D01*
X113381963Y-87513429D01*
X113385486Y-87520020D01*
X113399812Y-87546822D01*
X113429354Y-87591034D01*
X113454910Y-87622173D01*
X113472153Y-87639416D01*
X113503292Y-87664972D01*
X113547504Y-87694514D01*
X113549632Y-87695651D01*
X113549638Y-87695655D01*
X113551930Y-87696880D01*
X113583035Y-87713506D01*
X113605565Y-87722838D01*
X113607901Y-87723546D01*
X113607905Y-87723548D01*
X113611908Y-87724762D01*
X113644113Y-87734531D01*
X113702419Y-87746129D01*
X113722365Y-87749088D01*
X113734557Y-87750289D01*
X113754703Y-87751279D01*
X114918685Y-87751279D01*
X114922000Y-87751804D01*
X114925315Y-87751279D01*
X114941820Y-87751279D01*
X114961964Y-87750289D01*
X114974157Y-87749088D01*
X114994103Y-87746130D01*
X115052407Y-87734533D01*
X115090954Y-87722840D01*
X115113485Y-87713508D01*
X115149019Y-87694515D01*
X115193231Y-87664973D01*
X115224370Y-87639417D01*
X115241613Y-87622174D01*
X115267169Y-87591035D01*
X115296711Y-87546823D01*
X115315703Y-87511292D01*
X115325035Y-87488762D01*
X115336728Y-87450215D01*
X115348326Y-87391911D01*
X115351285Y-87371960D01*
X115352486Y-87359766D01*
X115353476Y-87339624D01*
X115353476Y-86617744D01*
X115354695Y-86602257D01*
X115358585Y-86577696D01*
X115359804Y-86570000D01*
X115354694Y-86537742D01*
X115353476Y-86522256D01*
X115353476Y-84710563D01*
X115353476Y-84709365D01*
X115352486Y-84689221D01*
X115351285Y-84677028D01*
X115348327Y-84657082D01*
X115336730Y-84598778D01*
X115325037Y-84560231D01*
X115315705Y-84537700D01*
X115296712Y-84502166D01*
X115267170Y-84457954D01*
X115241614Y-84426815D01*
X115224371Y-84409572D01*
X115193232Y-84384016D01*
X115149020Y-84354474D01*
X115123226Y-84340687D01*
X115115627Y-84336625D01*
X115115621Y-84336622D01*
X115113486Y-84335481D01*
X115111246Y-84334553D01*
X115111235Y-84334548D01*
X115093191Y-84327075D01*
X115093188Y-84327074D01*
X115090955Y-84326149D01*
X115088649Y-84325449D01*
X115088642Y-84325447D01*
X115054721Y-84315158D01*
X115054710Y-84315155D01*
X115052408Y-84314457D01*
X115050044Y-84313986D01*
X115050037Y-84313985D01*
X114995287Y-84303095D01*
X114995282Y-84303094D01*
X114994105Y-84302860D01*
X114992929Y-84302685D01*
X114992903Y-84302681D01*
X114975353Y-84300078D01*
X114975347Y-84300077D01*
X114974159Y-84299901D01*
X114972991Y-84299785D01*
X114972951Y-84299781D01*
X114964818Y-84298980D01*
X114929590Y-84288669D01*
X114920071Y-84283819D01*
X114920067Y-84283817D01*
X114913126Y-84280281D01*
X114905432Y-84279062D01*
X114905428Y-84279061D01*
X114787696Y-84260415D01*
X114780000Y-84259196D01*
X114772304Y-84260415D01*
X114654571Y-84279061D01*
X114654565Y-84279062D01*
X114646874Y-84280281D01*
X114639935Y-84283816D01*
X114639930Y-84283818D01*
X114633844Y-84286920D01*
X114588900Y-84297710D01*
X114413986Y-84297710D01*
X114369042Y-84286920D01*
X114357068Y-84280819D01*
X114357064Y-84280817D01*
X114350125Y-84277282D01*
X114342429Y-84276063D01*
X114246923Y-84260936D01*
X114204226Y-84243253D01*
X114174208Y-84208115D01*
X114163410Y-84163181D01*
X114163406Y-84146364D01*
X114163337Y-83886411D01*
X114162337Y-83866212D01*
X114161126Y-83853984D01*
X114158144Y-83833976D01*
X114146463Y-83775509D01*
X114134688Y-83736853D01*
X114128555Y-83722106D01*
X114126231Y-83716519D01*
X114126229Y-83716515D01*
X114125295Y-83714269D01*
X114122093Y-83708304D01*
X114107337Y-83680812D01*
X114106187Y-83678669D01*
X114096223Y-83663823D01*
X114090217Y-83653600D01*
X114085632Y-83644602D01*
X114048528Y-83571780D01*
X113953220Y-83476472D01*
X113875789Y-83437019D01*
X113840066Y-83418817D01*
X113840065Y-83418816D01*
X113833126Y-83415281D01*
X113825432Y-83414062D01*
X113825431Y-83414062D01*
X113707696Y-83395415D01*
X113700000Y-83394196D01*
X113692304Y-83395415D01*
X113574568Y-83414062D01*
X113574565Y-83414062D01*
X113566874Y-83415281D01*
X113559936Y-83418815D01*
X113559933Y-83418817D01*
X113453719Y-83472936D01*
X113453717Y-83472937D01*
X113446780Y-83476472D01*
X113441276Y-83481975D01*
X113441273Y-83481978D01*
X113356978Y-83566273D01*
X113356975Y-83566276D01*
X113351472Y-83571780D01*
X113347938Y-83578714D01*
X113347934Y-83578721D01*
X113306839Y-83659374D01*
X113270357Y-83698840D01*
X113218629Y-83713428D01*
X113166902Y-83698839D01*
X113130420Y-83659372D01*
X113122895Y-83644604D01*
X113106264Y-83611962D01*
X113102065Y-83603721D01*
X113102063Y-83603719D01*
X113098528Y-83596780D01*
X113003220Y-83501472D01*
X112883126Y-83440281D01*
X112875432Y-83439062D01*
X112875431Y-83439062D01*
X112757696Y-83420415D01*
X112750000Y-83419196D01*
X112742304Y-83420415D01*
X112624568Y-83439062D01*
X112624565Y-83439062D01*
X112616874Y-83440281D01*
X112609936Y-83443815D01*
X112609933Y-83443817D01*
X112503719Y-83497936D01*
X112503717Y-83497937D01*
X112496780Y-83501472D01*
X112491276Y-83506975D01*
X112491273Y-83506978D01*
X112406978Y-83591273D01*
X112406975Y-83591276D01*
X112401472Y-83596780D01*
X112397937Y-83603717D01*
X112397936Y-83603719D01*
X112343817Y-83709932D01*
X112343815Y-83709938D01*
X112340281Y-83716874D01*
X112339063Y-83724561D01*
X112339061Y-83724569D01*
X112321336Y-83836479D01*
X112320672Y-83840209D01*
X112318910Y-83849109D01*
X112318905Y-83849136D01*
X112318598Y-83850690D01*
X112318390Y-83852274D01*
X112318388Y-83852289D01*
X112316694Y-83865217D01*
X112316692Y-83865236D01*
X112316485Y-83866817D01*
X112316381Y-83868409D01*
X112316380Y-83868423D01*
X112315882Y-83876076D01*
X112314743Y-83893571D01*
X112314743Y-83895165D01*
X112314743Y-83895179D01*
X112314818Y-84166100D01*
X112304036Y-84211056D01*
X112274016Y-84246214D01*
X112231306Y-84263908D01*
X112154570Y-84276062D01*
X112146874Y-84277281D01*
X112139931Y-84280818D01*
X112139929Y-84280819D01*
X112117740Y-84292125D01*
X112072796Y-84302915D01*
X111897204Y-84302915D01*
X111852260Y-84292125D01*
X111830070Y-84280819D01*
X111830069Y-84280818D01*
X111823126Y-84277281D01*
X111815432Y-84276062D01*
X111815428Y-84276061D01*
X111697696Y-84257415D01*
X111690000Y-84256196D01*
X111682304Y-84257415D01*
X111564571Y-84276061D01*
X111564565Y-84276062D01*
X111556874Y-84277281D01*
X111549932Y-84280817D01*
X111549929Y-84280819D01*
X111512229Y-84300027D01*
X111486603Y-84308913D01*
X111434961Y-84319186D01*
X111434933Y-84319192D01*
X111432560Y-84319665D01*
X111430240Y-84320368D01*
X111430227Y-84320372D01*
X111396342Y-84330651D01*
X111396332Y-84330654D01*
X111394013Y-84331358D01*
X111391782Y-84332281D01*
X111391771Y-84332286D01*
X111373717Y-84339764D01*
X111373707Y-84339768D01*
X111371490Y-84340687D01*
X111369366Y-84341821D01*
X111369358Y-84341826D01*
X111338101Y-84358532D01*
X111338083Y-84358542D01*
X111335959Y-84359678D01*
X111333952Y-84361018D01*
X111333937Y-84361028D01*
X111293764Y-84387871D01*
X111293751Y-84387880D01*
X111291742Y-84389223D01*
X111289870Y-84390758D01*
X111289861Y-84390766D01*
X111262479Y-84413238D01*
X111262461Y-84413254D01*
X111260602Y-84414780D01*
X111258899Y-84416482D01*
X111258889Y-84416492D01*
X111245076Y-84430305D01*
X111245066Y-84430315D01*
X111243364Y-84432018D01*
X111241828Y-84433888D01*
X111241823Y-84433895D01*
X111219351Y-84461276D01*
X111219343Y-84461285D01*
X111217808Y-84463157D01*
X111216458Y-84465176D01*
X111216456Y-84465180D01*
X111189611Y-84505355D01*
X111189604Y-84505365D01*
X111188262Y-84507375D01*
X111187128Y-84509495D01*
X111187117Y-84509515D01*
X111170414Y-84540768D01*
X111170410Y-84540776D01*
X111169267Y-84542915D01*
X111168342Y-84545146D01*
X111168335Y-84545163D01*
X111160864Y-84563203D01*
X111160859Y-84563215D01*
X111159937Y-84565443D01*
X111159235Y-84567756D01*
X111159234Y-84567760D01*
X111148950Y-84601661D01*
X111148944Y-84601684D01*
X111148246Y-84603986D01*
X111147775Y-84606349D01*
X111147771Y-84606369D01*
X111136889Y-84661081D01*
X111136883Y-84661114D01*
X111136649Y-84662292D01*
X111136467Y-84663514D01*
X111136466Y-84663524D01*
X111134300Y-84678128D01*
X111133691Y-84682233D01*
X111133572Y-84683436D01*
X111133572Y-84683440D01*
X111132608Y-84693219D01*
X111132605Y-84693247D01*
X111132490Y-84694424D01*
X111132432Y-84695585D01*
X111132430Y-84695625D01*
X111131558Y-84713379D01*
X111131557Y-84713402D01*
X111131500Y-84714571D01*
X111131500Y-84715770D01*
X111131500Y-87296349D01*
X111130281Y-87311836D01*
X111129414Y-87317305D01*
X111129414Y-87317310D01*
X111128196Y-87325000D01*
X106255497Y-87325000D01*
X106255175Y-81755834D01*
X107897280Y-81755834D01*
X107918365Y-81888960D01*
X107921900Y-81895899D01*
X107921901Y-81895900D01*
X107937738Y-81926982D01*
X107979556Y-82009054D01*
X108074864Y-82104362D01*
X108111501Y-82123029D01*
X108140322Y-82137714D01*
X108152873Y-82145331D01*
X108166874Y-82155320D01*
X108171068Y-82157234D01*
X108207247Y-82193436D01*
X108220500Y-82242918D01*
X108220500Y-84893809D01*
X108218028Y-84915792D01*
X108140265Y-85257248D01*
X108139181Y-85261180D01*
X108136281Y-85266874D01*
X108135062Y-85274565D01*
X108135062Y-85274568D01*
X108128670Y-85314929D01*
X108115196Y-85400000D01*
X108116415Y-85407696D01*
X108131082Y-85500304D01*
X108136281Y-85533126D01*
X108197472Y-85653220D01*
X108292780Y-85748528D01*
X108412874Y-85809719D01*
X108546000Y-85830804D01*
X108679126Y-85809719D01*
X108799220Y-85748528D01*
X108894528Y-85653220D01*
X108955719Y-85533126D01*
X108976804Y-85400000D01*
X108955719Y-85266874D01*
X108952817Y-85261180D01*
X108951735Y-85257252D01*
X108873972Y-84915793D01*
X108871500Y-84893810D01*
X108871500Y-81992274D01*
X108871877Y-81983646D01*
X108874508Y-81953569D01*
X108875263Y-81944941D01*
X108865204Y-81907406D01*
X108863335Y-81898972D01*
X108857508Y-81865923D01*
X108859797Y-81821593D01*
X108881226Y-81782720D01*
X108890546Y-81772304D01*
X108933469Y-81724332D01*
X108938437Y-81716051D01*
X108953317Y-81696992D01*
X109879462Y-80770848D01*
X109885157Y-80765586D01*
X109887189Y-80763851D01*
X109902814Y-80750504D01*
X109977145Y-80687019D01*
X109989712Y-80677887D01*
X110023918Y-80656925D01*
X110089545Y-80616707D01*
X110103377Y-80609659D01*
X110211560Y-80564847D01*
X110226314Y-80560053D01*
X110340180Y-80532716D01*
X110355506Y-80530289D01*
X110459496Y-80522104D01*
X110476012Y-80520805D01*
X110483779Y-80520500D01*
X112921827Y-80520500D01*
X112922073Y-80520500D01*
X112922154Y-80520486D01*
X112922321Y-80520480D01*
X113033503Y-80520482D01*
X113318040Y-80492462D01*
X113598460Y-80436687D01*
X113872063Y-80353694D01*
X114136213Y-80244282D01*
X114388367Y-80109506D01*
X114626096Y-79950662D01*
X114847110Y-79769281D01*
X114925904Y-79690487D01*
X114927605Y-79692188D01*
X114927609Y-79692184D01*
X114925909Y-79690484D01*
X115017378Y-79599015D01*
X115311480Y-79304911D01*
X115314958Y-79301600D01*
X115523762Y-79112352D01*
X115531271Y-79106189D01*
X115548790Y-79093196D01*
X115755641Y-78939785D01*
X115763702Y-78934399D01*
X116003309Y-78790785D01*
X116011835Y-78786228D01*
X116264377Y-78666785D01*
X116273325Y-78663078D01*
X116536359Y-78568966D01*
X116545611Y-78566159D01*
X116816598Y-78498282D01*
X116826089Y-78496393D01*
X117102423Y-78455406D01*
X117112074Y-78454455D01*
X117393579Y-78440627D01*
X117397170Y-78440517D01*
X117397739Y-78440510D01*
X117398032Y-78440507D01*
X117399223Y-78440500D01*
X117447698Y-78440500D01*
X117453509Y-78440500D01*
X117455618Y-78439879D01*
X117457685Y-78439718D01*
X117814852Y-78435000D01*
X117873024Y-78452952D01*
X117909693Y-78501550D01*
X117910990Y-78562416D01*
X117876426Y-78612533D01*
X117698326Y-78749192D01*
X117698314Y-78749201D01*
X117695755Y-78751166D01*
X117693470Y-78753450D01*
X117693463Y-78753457D01*
X117608460Y-78838460D01*
X117571383Y-78875536D01*
X117324867Y-79122052D01*
X117324836Y-79122075D01*
X117324833Y-79122072D01*
X117324803Y-79122101D01*
X117324799Y-79122105D01*
X117188479Y-79258427D01*
X117188468Y-79258438D01*
X117186956Y-79259951D01*
X117185583Y-79261587D01*
X117185575Y-79261596D01*
X116937667Y-79557044D01*
X116937658Y-79557055D01*
X116936285Y-79558692D01*
X116935053Y-79560451D01*
X116935048Y-79560458D01*
X116713842Y-79876374D01*
X116713828Y-79876395D01*
X116712604Y-79878144D01*
X116711529Y-79880004D01*
X116711527Y-79880009D01*
X116530183Y-80194110D01*
X116517617Y-80215875D01*
X116516710Y-80217819D01*
X116516709Y-80217822D01*
X116353716Y-80567365D01*
X116353709Y-80567379D01*
X116352807Y-80569316D01*
X116352078Y-80571317D01*
X116352070Y-80571338D01*
X116220160Y-80933758D01*
X116220152Y-80933781D01*
X116219427Y-80935775D01*
X116218874Y-80937836D01*
X116218871Y-80937848D01*
X116120942Y-81303332D01*
X116118495Y-81312465D01*
X116118123Y-81314573D01*
X116118120Y-81314588D01*
X116057367Y-81659136D01*
X116050776Y-81696518D01*
X116050587Y-81698672D01*
X116050586Y-81698684D01*
X116017136Y-82081031D01*
X116016788Y-82085011D01*
X116016788Y-82087182D01*
X116016788Y-87519981D01*
X116016786Y-87520000D01*
X116016783Y-87520000D01*
X116016783Y-87666272D01*
X116017021Y-87668695D01*
X116017022Y-87668702D01*
X116045219Y-87954991D01*
X116045457Y-87957407D01*
X116045927Y-87959773D01*
X116045929Y-87959782D01*
X116102056Y-88241951D01*
X116102059Y-88241966D01*
X116102530Y-88244330D01*
X116103235Y-88246654D01*
X116186743Y-88521942D01*
X116186747Y-88521954D01*
X116187452Y-88524277D01*
X116188378Y-88526514D01*
X116188384Y-88526529D01*
X116288181Y-88767457D01*
X116299404Y-88794552D01*
X116437309Y-89052553D01*
X116438655Y-89054568D01*
X116438662Y-89054579D01*
X116598485Y-89293768D01*
X116599839Y-89295794D01*
X116601378Y-89297669D01*
X116601383Y-89297676D01*
X116667358Y-89378066D01*
X116785428Y-89521933D01*
X116868376Y-89604880D01*
X119049668Y-91786171D01*
X119049671Y-91786176D01*
X119086748Y-91823252D01*
X119086751Y-91823254D01*
X119107229Y-91843732D01*
X119107279Y-91843767D01*
X119107368Y-91843849D01*
X119180303Y-91916784D01*
X119387161Y-92081748D01*
X119389515Y-92083227D01*
X119445961Y-92118695D01*
X119480982Y-92156575D01*
X119492191Y-92206931D01*
X119476544Y-92256089D01*
X119448590Y-92281380D01*
X119450025Y-92283355D01*
X119443718Y-92287936D01*
X119436780Y-92291472D01*
X119431276Y-92296975D01*
X119431273Y-92296978D01*
X119346978Y-92381273D01*
X119346975Y-92381276D01*
X119341472Y-92386780D01*
X119337937Y-92393717D01*
X119337936Y-92393719D01*
X119283817Y-92499933D01*
X119283815Y-92499936D01*
X119280281Y-92506874D01*
X119259196Y-92640000D01*
X119260415Y-92647696D01*
X119279061Y-92765428D01*
X119279062Y-92765432D01*
X119280281Y-92773126D01*
X119283182Y-92778820D01*
X119284264Y-92782745D01*
X119362028Y-93124207D01*
X119364500Y-93146190D01*
X119364500Y-93529963D01*
X119364495Y-93530000D01*
X119364490Y-93530000D01*
X119364490Y-93676454D01*
X119364728Y-93678878D01*
X119364729Y-93678883D01*
X119391677Y-93952483D01*
X119393201Y-93967952D01*
X119393671Y-93970318D01*
X119393673Y-93970327D01*
X119444789Y-94227300D01*
X119450345Y-94255233D01*
X119451047Y-94257547D01*
X119451051Y-94257563D01*
X119524030Y-94498137D01*
X119535373Y-94535528D01*
X119536295Y-94537755D01*
X119536298Y-94537762D01*
X119585273Y-94655996D01*
X119647465Y-94806140D01*
X119648610Y-94808282D01*
X119784401Y-95062326D01*
X119784408Y-95062338D01*
X119785543Y-95064461D01*
X119786885Y-95066470D01*
X119786889Y-95066476D01*
X119861176Y-95177652D01*
X119948276Y-95308005D01*
X119949814Y-95309879D01*
X119949817Y-95309883D01*
X120102104Y-95495443D01*
X120134097Y-95534425D01*
X120135822Y-95536150D01*
X120135823Y-95536151D01*
X120217504Y-95617830D01*
X120217519Y-95617847D01*
X120859972Y-96260299D01*
X120859974Y-96260300D01*
X120859977Y-96260303D01*
X122775911Y-98176239D01*
X122779725Y-98180274D01*
X122951900Y-98372936D01*
X122958822Y-98381616D01*
X123106730Y-98590071D01*
X123112637Y-98599472D01*
X123236274Y-98823175D01*
X123241091Y-98833177D01*
X123338905Y-99069319D01*
X123342572Y-99079798D01*
X123413334Y-99325413D01*
X123415804Y-99336237D01*
X123458617Y-99588220D01*
X123459860Y-99599252D01*
X123474344Y-99857151D01*
X123474500Y-99862702D01*
X123474500Y-106638809D01*
X123472028Y-106660792D01*
X123394265Y-107002248D01*
X123393181Y-107006180D01*
X123390281Y-107011874D01*
X123369196Y-107145000D01*
X123390281Y-107278126D01*
X123451472Y-107398220D01*
X123546780Y-107493528D01*
X123666874Y-107554719D01*
X123800000Y-107575804D01*
X123933126Y-107554719D01*
X124053220Y-107493528D01*
X124148528Y-107398220D01*
X124209719Y-107278126D01*
X124230804Y-107145000D01*
X124209719Y-107011874D01*
X124206817Y-107006180D01*
X124205735Y-107002252D01*
X124127972Y-106660793D01*
X124125500Y-106638810D01*
X124125500Y-99860015D01*
X124125502Y-99860000D01*
X124125504Y-99860000D01*
X124125504Y-99711174D01*
X124096328Y-99414955D01*
X124038259Y-99123023D01*
X123951855Y-98838188D01*
X123949779Y-98833177D01*
X123838877Y-98565438D01*
X123838876Y-98565436D01*
X123837947Y-98563193D01*
X123730745Y-98362634D01*
X123698775Y-98302822D01*
X123698771Y-98302816D01*
X123697634Y-98300688D01*
X123532267Y-98053200D01*
X123343438Y-97823113D01*
X123258343Y-97738019D01*
X123258338Y-97738013D01*
X121280028Y-95759702D01*
X120880326Y-95360000D01*
X123414353Y-95360000D01*
X123415361Y-95367011D01*
X123433826Y-95495443D01*
X123433827Y-95495446D01*
X123434835Y-95502457D01*
X123437777Y-95508899D01*
X123437778Y-95508902D01*
X123487532Y-95617847D01*
X123494623Y-95633373D01*
X123588872Y-95742143D01*
X123594826Y-95745969D01*
X123594828Y-95745971D01*
X123616194Y-95759702D01*
X123709947Y-95819953D01*
X123848039Y-95860500D01*
X123984883Y-95860500D01*
X123991961Y-95860500D01*
X124130053Y-95819953D01*
X124251128Y-95742143D01*
X124345377Y-95633373D01*
X124405165Y-95502457D01*
X124425647Y-95360000D01*
X124405165Y-95217543D01*
X124345377Y-95086627D01*
X124251128Y-94977857D01*
X124245174Y-94974030D01*
X124245171Y-94974028D01*
X124136010Y-94903875D01*
X124136008Y-94903874D01*
X124130053Y-94900047D01*
X123991961Y-94859500D01*
X123848039Y-94859500D01*
X123841248Y-94861493D01*
X123841247Y-94861494D01*
X123716740Y-94898052D01*
X123716737Y-94898053D01*
X123709947Y-94900047D01*
X123703994Y-94903872D01*
X123703989Y-94903875D01*
X123594828Y-94974028D01*
X123594822Y-94974033D01*
X123588872Y-94977857D01*
X123584236Y-94983206D01*
X123584235Y-94983208D01*
X123499263Y-95081271D01*
X123499260Y-95081275D01*
X123494623Y-95086627D01*
X123491680Y-95093070D01*
X123491678Y-95093074D01*
X123437778Y-95211097D01*
X123437776Y-95211102D01*
X123434835Y-95217543D01*
X123433827Y-95224551D01*
X123433826Y-95224556D01*
X123415361Y-95352989D01*
X123414353Y-95360000D01*
X120880326Y-95360000D01*
X120699943Y-95179617D01*
X120696129Y-95175582D01*
X120622394Y-95093074D01*
X120527557Y-94986954D01*
X120520639Y-94978278D01*
X120520340Y-94977857D01*
X120375865Y-94774240D01*
X120369960Y-94764843D01*
X120320808Y-94675910D01*
X120248935Y-94545868D01*
X120244120Y-94535869D01*
X120243020Y-94533214D01*
X120148377Y-94304728D01*
X120144712Y-94294254D01*
X120126550Y-94231212D01*
X124180194Y-94231212D01*
X124181202Y-94238223D01*
X124199667Y-94366655D01*
X124199668Y-94366658D01*
X124200676Y-94373669D01*
X124260464Y-94504585D01*
X124354713Y-94613355D01*
X124360667Y-94617181D01*
X124360669Y-94617183D01*
X124415017Y-94652110D01*
X124475788Y-94691165D01*
X124613880Y-94731712D01*
X124750724Y-94731712D01*
X124757802Y-94731712D01*
X124895894Y-94691165D01*
X125016969Y-94613355D01*
X125111218Y-94504585D01*
X125171006Y-94373669D01*
X125191488Y-94231212D01*
X125171006Y-94088755D01*
X125111218Y-93957839D01*
X125016969Y-93849069D01*
X125011015Y-93845242D01*
X125011012Y-93845240D01*
X124901851Y-93775087D01*
X124901849Y-93775086D01*
X124895894Y-93771259D01*
X124757802Y-93730712D01*
X124613880Y-93730712D01*
X124607089Y-93732705D01*
X124607088Y-93732706D01*
X124482581Y-93769264D01*
X124482578Y-93769265D01*
X124475788Y-93771259D01*
X124469835Y-93775084D01*
X124469830Y-93775087D01*
X124360669Y-93845240D01*
X124360663Y-93845245D01*
X124354713Y-93849069D01*
X124350077Y-93854418D01*
X124350076Y-93854420D01*
X124265104Y-93952483D01*
X124265101Y-93952487D01*
X124260464Y-93957839D01*
X124257521Y-93964282D01*
X124257519Y-93964286D01*
X124203619Y-94082309D01*
X124203617Y-94082314D01*
X124200676Y-94088755D01*
X124199668Y-94095763D01*
X124199667Y-94095768D01*
X124181202Y-94224201D01*
X124180194Y-94231212D01*
X120126550Y-94231212D01*
X120075445Y-94053827D01*
X120072982Y-94043033D01*
X120031072Y-93796371D01*
X120029830Y-93785341D01*
X120015656Y-93532956D01*
X120015500Y-93527405D01*
X120015500Y-93146189D01*
X120017972Y-93124206D01*
X120048329Y-92990908D01*
X120095735Y-92782743D01*
X120096816Y-92778821D01*
X120099719Y-92773126D01*
X120120804Y-92640000D01*
X120109131Y-92566299D01*
X120113286Y-92518640D01*
X120139304Y-92478493D01*
X120181111Y-92455234D01*
X120228940Y-92454295D01*
X120357244Y-92483581D01*
X120620161Y-92513210D01*
X120723491Y-92513211D01*
X120723494Y-92513212D01*
X120723501Y-92513212D01*
X120752451Y-92513212D01*
X120804885Y-92513213D01*
X120804888Y-92513212D01*
X122156034Y-92513212D01*
X122209953Y-92529184D01*
X122246475Y-92571945D01*
X122253814Y-92627698D01*
X122239196Y-92720000D01*
X122260281Y-92853126D01*
X122263816Y-92860065D01*
X122263817Y-92860066D01*
X122316746Y-92963946D01*
X122327341Y-93015108D01*
X122310416Y-93064538D01*
X122270687Y-93098469D01*
X122219218Y-93107451D01*
X122177600Y-93091725D01*
X122177220Y-93092472D01*
X122170454Y-93089024D01*
X122170449Y-93089022D01*
X122170278Y-93088935D01*
X122170277Y-93088934D01*
X122064066Y-93034817D01*
X122064065Y-93034816D01*
X122057126Y-93031281D01*
X122049432Y-93030062D01*
X122049431Y-93030062D01*
X121931696Y-93011415D01*
X121924000Y-93010196D01*
X121916304Y-93011415D01*
X121798568Y-93030062D01*
X121798565Y-93030062D01*
X121790874Y-93031281D01*
X121783936Y-93034815D01*
X121783933Y-93034817D01*
X121677719Y-93088936D01*
X121677717Y-93088937D01*
X121670780Y-93092472D01*
X121665276Y-93097975D01*
X121665273Y-93097978D01*
X121580978Y-93182273D01*
X121580975Y-93182276D01*
X121575472Y-93187780D01*
X121571937Y-93194717D01*
X121571936Y-93194719D01*
X121517817Y-93300933D01*
X121517815Y-93300936D01*
X121514281Y-93307874D01*
X121513062Y-93315565D01*
X121513062Y-93315568D01*
X121497501Y-93413816D01*
X121493196Y-93441000D01*
X121514281Y-93574126D01*
X121575472Y-93694220D01*
X121670780Y-93789528D01*
X121790874Y-93850719D01*
X121924000Y-93871804D01*
X122057126Y-93850719D01*
X122177220Y-93789528D01*
X122272528Y-93694220D01*
X122333719Y-93574126D01*
X122354804Y-93441000D01*
X122333719Y-93307874D01*
X122277253Y-93197053D01*
X122266658Y-93145891D01*
X122283583Y-93096460D01*
X122323313Y-93062529D01*
X122374784Y-93053548D01*
X122416399Y-93069274D01*
X122416780Y-93068528D01*
X122536874Y-93129719D01*
X122670000Y-93150804D01*
X122803126Y-93129719D01*
X122923220Y-93068528D01*
X123018528Y-92973220D01*
X123079719Y-92853126D01*
X123100804Y-92720000D01*
X123086185Y-92627698D01*
X123093525Y-92571945D01*
X123130047Y-92529184D01*
X123183966Y-92513212D01*
X123417566Y-92513212D01*
X123469989Y-92513212D01*
X123470000Y-92513214D01*
X123470000Y-92513215D01*
X123569334Y-92513215D01*
X123573227Y-92513215D01*
X123777140Y-92480918D01*
X123973490Y-92417120D01*
X124157442Y-92323390D01*
X124324467Y-92202038D01*
X124376977Y-92149526D01*
X124376980Y-92149525D01*
X124402723Y-92123782D01*
X124434536Y-92091968D01*
X124434540Y-92091962D01*
X124445157Y-92081347D01*
X124502710Y-92023794D01*
X124502738Y-92023752D01*
X124502801Y-92023683D01*
X124561148Y-91965340D01*
X124697061Y-91788223D01*
X124808691Y-91594880D01*
X124894130Y-91388620D01*
X124920014Y-91292018D01*
X124935688Y-91259260D01*
X124962117Y-91234359D01*
X124981128Y-91222143D01*
X125075377Y-91113373D01*
X125135165Y-90982457D01*
X125155647Y-90840000D01*
X125135165Y-90697543D01*
X125075377Y-90566627D01*
X124981128Y-90457857D01*
X124975174Y-90454030D01*
X124975171Y-90454028D01*
X124866010Y-90383875D01*
X124866008Y-90383874D01*
X124860053Y-90380047D01*
X124721961Y-90339500D01*
X124578039Y-90339500D01*
X124571248Y-90341493D01*
X124571247Y-90341494D01*
X124446740Y-90378052D01*
X124446737Y-90378053D01*
X124439947Y-90380047D01*
X124433994Y-90383872D01*
X124433989Y-90383875D01*
X124318872Y-90457857D01*
X124318190Y-90456796D01*
X124290560Y-90471876D01*
X124248586Y-90474873D01*
X124209162Y-90460167D01*
X124100053Y-90390047D01*
X124059201Y-90378052D01*
X123968752Y-90351494D01*
X123961961Y-90349500D01*
X123818039Y-90349500D01*
X123811248Y-90351493D01*
X123811247Y-90351494D01*
X123686740Y-90388052D01*
X123686737Y-90388053D01*
X123679947Y-90390047D01*
X123673994Y-90393872D01*
X123673989Y-90393875D01*
X123564828Y-90464028D01*
X123564822Y-90464033D01*
X123558872Y-90467857D01*
X123554236Y-90473206D01*
X123554235Y-90473208D01*
X123469263Y-90571271D01*
X123469260Y-90571275D01*
X123464623Y-90576627D01*
X123461680Y-90583070D01*
X123461678Y-90583074D01*
X123407778Y-90701097D01*
X123407776Y-90701102D01*
X123404835Y-90707543D01*
X123403827Y-90714551D01*
X123403826Y-90714556D01*
X123386799Y-90832989D01*
X123384353Y-90850000D01*
X123385361Y-90857011D01*
X123403826Y-90985443D01*
X123403827Y-90985446D01*
X123404835Y-90992457D01*
X123407777Y-90998899D01*
X123407778Y-90998902D01*
X123410099Y-91003984D01*
X123464623Y-91123373D01*
X123537451Y-91207422D01*
X123559322Y-91250993D01*
X123557744Y-91299720D01*
X123533101Y-91341786D01*
X123491368Y-91366989D01*
X123462502Y-91375745D01*
X123443465Y-91379532D01*
X123374609Y-91386311D01*
X123364907Y-91386787D01*
X123317467Y-91386786D01*
X123317452Y-91386786D01*
X123317446Y-91386787D01*
X123317444Y-91386788D01*
X120840254Y-91386788D01*
X120840252Y-91386787D01*
X120840250Y-91386787D01*
X120840242Y-91386787D01*
X120791054Y-91386787D01*
X120784580Y-91386575D01*
X120622701Y-91375967D01*
X120609862Y-91374277D01*
X120453931Y-91343262D01*
X120441422Y-91339910D01*
X120290877Y-91288808D01*
X120278913Y-91283852D01*
X120136336Y-91213541D01*
X120125121Y-91207067D01*
X120007871Y-91128724D01*
X119992921Y-91118735D01*
X119982650Y-91110853D01*
X119860789Y-91003984D01*
X119856060Y-90999556D01*
X119848578Y-90992074D01*
X119821176Y-90964671D01*
X119823151Y-90962695D01*
X119823149Y-90962692D01*
X119821173Y-90964669D01*
X118002770Y-89146266D01*
X117708293Y-88851790D01*
X117708289Y-88851785D01*
X117673508Y-88817005D01*
X117669080Y-88812276D01*
X117653536Y-88794552D01*
X117520006Y-88642294D01*
X117512134Y-88632035D01*
X117388323Y-88446741D01*
X117381860Y-88435546D01*
X117283296Y-88235681D01*
X117278347Y-88223734D01*
X117206718Y-88012722D01*
X117203366Y-88000213D01*
X117191035Y-87938220D01*
X117159892Y-87781657D01*
X117158203Y-87768823D01*
X117157129Y-87752441D01*
X117143424Y-87543341D01*
X117143212Y-87536866D01*
X117143212Y-84847000D01*
X121583355Y-84847000D01*
X121584077Y-84852946D01*
X121603137Y-85009925D01*
X121603138Y-85009932D01*
X121603860Y-85015872D01*
X121605982Y-85021469D01*
X121605983Y-85021470D01*
X121646658Y-85128724D01*
X121664182Y-85174930D01*
X121667579Y-85179851D01*
X121667581Y-85179855D01*
X121732960Y-85274571D01*
X121760817Y-85314929D01*
X121888148Y-85427734D01*
X122038775Y-85506790D01*
X122203944Y-85547500D01*
X122368068Y-85547500D01*
X122374056Y-85547500D01*
X122534316Y-85508000D01*
X124832196Y-85508000D01*
X124853281Y-85641126D01*
X124914472Y-85761220D01*
X125009780Y-85856528D01*
X125129874Y-85917719D01*
X125263000Y-85938804D01*
X125377011Y-85920746D01*
X125424668Y-85924900D01*
X125464815Y-85950918D01*
X125488074Y-85992724D01*
X125489014Y-86040555D01*
X125479399Y-86082682D01*
X125479396Y-86082697D01*
X125478780Y-86085398D01*
X125478469Y-86088154D01*
X125478469Y-86088157D01*
X125460878Y-86244286D01*
X125452500Y-86318641D01*
X125452500Y-86377958D01*
X125452500Y-86880684D01*
X125452497Y-86880693D01*
X125452497Y-86880716D01*
X125452497Y-86880717D01*
X125452499Y-86925008D01*
X125452023Y-86934710D01*
X125444436Y-87011789D01*
X125440650Y-87030827D01*
X125419588Y-87100266D01*
X125412161Y-87118196D01*
X125377959Y-87182187D01*
X125367181Y-87198320D01*
X125363189Y-87203185D01*
X125319074Y-87233928D01*
X125201894Y-87274538D01*
X125201892Y-87274539D01*
X125201333Y-87274733D01*
X125197874Y-87275281D01*
X125193879Y-87277316D01*
X125189281Y-87278910D01*
X125186294Y-87280424D01*
X125186287Y-87280427D01*
X125142740Y-87302500D01*
X125142735Y-87302502D01*
X125139748Y-87304017D01*
X125136995Y-87305918D01*
X125135340Y-87306904D01*
X125129660Y-87310037D01*
X125084719Y-87332936D01*
X125084717Y-87332937D01*
X125077780Y-87336472D01*
X125072275Y-87341976D01*
X125072272Y-87341979D01*
X124987978Y-87426273D01*
X124987975Y-87426276D01*
X124982472Y-87431780D01*
X124978937Y-87438717D01*
X124978936Y-87438719D01*
X124924817Y-87544933D01*
X124924815Y-87544936D01*
X124921281Y-87551874D01*
X124920062Y-87559565D01*
X124920062Y-87559568D01*
X124907416Y-87639416D01*
X124900196Y-87685000D01*
X124901415Y-87692696D01*
X124910877Y-87752441D01*
X124921281Y-87818126D01*
X124982472Y-87938220D01*
X125077780Y-88033528D01*
X125197874Y-88094719D01*
X125331000Y-88115804D01*
X125464126Y-88094719D01*
X125584220Y-88033528D01*
X125679528Y-87938220D01*
X125705972Y-87886317D01*
X125709104Y-87880640D01*
X125710072Y-87879013D01*
X125711996Y-87876230D01*
X125737092Y-87826713D01*
X125738683Y-87822121D01*
X125740719Y-87818126D01*
X125741267Y-87814665D01*
X125787269Y-87681917D01*
X125809635Y-87646208D01*
X125809489Y-87646083D01*
X125810331Y-87645096D01*
X125810814Y-87644325D01*
X125814767Y-87640373D01*
X125915675Y-87501482D01*
X125993611Y-87348515D01*
X126046656Y-87185238D01*
X126073504Y-87015673D01*
X126073500Y-86929834D01*
X126073500Y-86921992D01*
X126073500Y-86439240D01*
X126073712Y-86432766D01*
X126081010Y-86321408D01*
X126085640Y-86250755D01*
X126087328Y-86237933D01*
X126122284Y-86062197D01*
X126125628Y-86049719D01*
X126183218Y-85880062D01*
X126188171Y-85868105D01*
X126205108Y-85833759D01*
X126267409Y-85707421D01*
X126273882Y-85696212D01*
X126302608Y-85653220D01*
X126373420Y-85547240D01*
X126381284Y-85536992D01*
X126501474Y-85399938D01*
X126505891Y-85395223D01*
X126538465Y-85362649D01*
X126538465Y-85362648D01*
X126538471Y-85362643D01*
X126538471Y-85362642D01*
X126685013Y-85216099D01*
X126685015Y-85216099D01*
X127764900Y-84136214D01*
X127764932Y-84136165D01*
X127765003Y-84136087D01*
X127809729Y-84091363D01*
X127921965Y-83945096D01*
X128014149Y-83785432D01*
X128084706Y-83615102D01*
X128132427Y-83437019D01*
X128156497Y-83254232D01*
X128156498Y-83220084D01*
X128156500Y-83220080D01*
X128156500Y-83146555D01*
X128156501Y-83112870D01*
X128156500Y-83112867D01*
X128156500Y-81659136D01*
X144478093Y-81659136D01*
X144478431Y-81663215D01*
X144488745Y-81787696D01*
X144497259Y-81890441D01*
X144503004Y-81913126D01*
X144553232Y-82111474D01*
X144553234Y-82111481D01*
X144554236Y-82115436D01*
X144555877Y-82119177D01*
X144645827Y-82324243D01*
X144645830Y-82324248D01*
X144647469Y-82327985D01*
X144774414Y-82522289D01*
X144777182Y-82525296D01*
X144777183Y-82525297D01*
X144916814Y-82676978D01*
X144931609Y-82693049D01*
X144934837Y-82695561D01*
X144934842Y-82695566D01*
X144973875Y-82725946D01*
X145114767Y-82835606D01*
X145118365Y-82837553D01*
X145118368Y-82837555D01*
X145196676Y-82879933D01*
X145318890Y-82946072D01*
X145538412Y-83021434D01*
X145767344Y-83059636D01*
X145995348Y-83059636D01*
X145999442Y-83059636D01*
X146228374Y-83021434D01*
X146447896Y-82946072D01*
X146652019Y-82835606D01*
X146835177Y-82693049D01*
X146992372Y-82522289D01*
X147119317Y-82327985D01*
X147212550Y-82115436D01*
X147269527Y-81890441D01*
X147288693Y-81659136D01*
X147269527Y-81427831D01*
X147212550Y-81202836D01*
X147123930Y-81000804D01*
X147120958Y-80994028D01*
X147120957Y-80994027D01*
X147119317Y-80990287D01*
X146992372Y-80795983D01*
X146953286Y-80753524D01*
X146837951Y-80628236D01*
X146837948Y-80628233D01*
X146835177Y-80625223D01*
X146831949Y-80622710D01*
X146831943Y-80622705D01*
X146700604Y-80520481D01*
X146652019Y-80482666D01*
X146648423Y-80480720D01*
X146648417Y-80480716D01*
X146451496Y-80374148D01*
X146451493Y-80374147D01*
X146447896Y-80372200D01*
X146444022Y-80370870D01*
X146232241Y-80298165D01*
X146232234Y-80298163D01*
X146228374Y-80296838D01*
X146224344Y-80296165D01*
X146224342Y-80296165D01*
X146003478Y-80259309D01*
X146003472Y-80259308D01*
X145999442Y-80258636D01*
X145767344Y-80258636D01*
X145763314Y-80259308D01*
X145763307Y-80259309D01*
X145542443Y-80296165D01*
X145542439Y-80296166D01*
X145538412Y-80296838D01*
X145534553Y-80298162D01*
X145534544Y-80298165D01*
X145322763Y-80370870D01*
X145322758Y-80370871D01*
X145318890Y-80372200D01*
X145315296Y-80374144D01*
X145315289Y-80374148D01*
X145118368Y-80480716D01*
X145118357Y-80480723D01*
X145114767Y-80482666D01*
X145111536Y-80485180D01*
X145111534Y-80485182D01*
X144934842Y-80622705D01*
X144934830Y-80622715D01*
X144931609Y-80625223D01*
X144928842Y-80628227D01*
X144928834Y-80628236D01*
X144777183Y-80792974D01*
X144777177Y-80792980D01*
X144774414Y-80795983D01*
X144772183Y-80799396D01*
X144772178Y-80799404D01*
X144653577Y-80980938D01*
X144647469Y-80990287D01*
X144645832Y-80994017D01*
X144645827Y-80994028D01*
X144575844Y-81153574D01*
X144554236Y-81202836D01*
X144553235Y-81206786D01*
X144553232Y-81206797D01*
X144510937Y-81373817D01*
X144497259Y-81427831D01*
X144496921Y-81431905D01*
X144496921Y-81431908D01*
X144496501Y-81436978D01*
X144478093Y-81659136D01*
X128156500Y-81659136D01*
X128156500Y-81069414D01*
X128175407Y-81011224D01*
X128224907Y-80975260D01*
X128286092Y-80975259D01*
X128288931Y-80976181D01*
X128295874Y-80979719D01*
X128429000Y-81000804D01*
X128562126Y-80979719D01*
X128682220Y-80918528D01*
X128777528Y-80823220D01*
X128798903Y-80781267D01*
X128810785Y-80764041D01*
X128810534Y-80763851D01*
X128813146Y-80760406D01*
X128816057Y-80757195D01*
X129003294Y-80459526D01*
X129017091Y-80442234D01*
X129331609Y-80127717D01*
X129646298Y-79813028D01*
X129646314Y-79813003D01*
X129646346Y-79812968D01*
X129690822Y-79768494D01*
X129798327Y-79620527D01*
X129881363Y-79457565D01*
X129937883Y-79283619D01*
X129966498Y-79102974D01*
X129966499Y-79039996D01*
X129966500Y-79039993D01*
X129966500Y-78989629D01*
X129966501Y-78959971D01*
X129966500Y-78959968D01*
X129966500Y-78417022D01*
X129966503Y-78417000D01*
X129966506Y-78417000D01*
X129966506Y-78345591D01*
X129944164Y-78204531D01*
X129900029Y-78068702D01*
X129835188Y-77941451D01*
X129751238Y-77825911D01*
X129751432Y-77825769D01*
X129734615Y-77796411D01*
X129699469Y-77694934D01*
X129699271Y-77694362D01*
X129698719Y-77690874D01*
X129696671Y-77686855D01*
X129695102Y-77682324D01*
X129670005Y-77632787D01*
X129668098Y-77630027D01*
X129667089Y-77628330D01*
X129663959Y-77622654D01*
X129641065Y-77577721D01*
X129641063Y-77577719D01*
X129637528Y-77570780D01*
X129542220Y-77475472D01*
X129442107Y-77424462D01*
X129429066Y-77417817D01*
X129429065Y-77417816D01*
X129422126Y-77414281D01*
X129414432Y-77413062D01*
X129414431Y-77413062D01*
X129296696Y-77394415D01*
X129289000Y-77393196D01*
X129281304Y-77394415D01*
X129163568Y-77413062D01*
X129163565Y-77413062D01*
X129155874Y-77414281D01*
X129148936Y-77417815D01*
X129148933Y-77417817D01*
X129042719Y-77471936D01*
X129042717Y-77471937D01*
X129035780Y-77475472D01*
X129030276Y-77480975D01*
X129030273Y-77480978D01*
X128945978Y-77565273D01*
X128945975Y-77565276D01*
X128940472Y-77570780D01*
X128936937Y-77577717D01*
X128936936Y-77577719D01*
X128882817Y-77683933D01*
X128882815Y-77683936D01*
X128879281Y-77690874D01*
X128878062Y-77698565D01*
X128878062Y-77698568D01*
X128862566Y-77796411D01*
X128858196Y-77824000D01*
X128859415Y-77831696D01*
X128877346Y-77944913D01*
X128879281Y-77957126D01*
X128940472Y-78077220D01*
X129035780Y-78172528D01*
X129042719Y-78176063D01*
X129042721Y-78176065D01*
X129087654Y-78198959D01*
X129093330Y-78202089D01*
X129095027Y-78203098D01*
X129097787Y-78205005D01*
X129147322Y-78230101D01*
X129151853Y-78231670D01*
X129155874Y-78233719D01*
X129159363Y-78234271D01*
X129201161Y-78248748D01*
X129233138Y-78259824D01*
X129268634Y-78281323D01*
X129292199Y-78315482D01*
X129301782Y-78338614D01*
X129308473Y-78363581D01*
X129314653Y-78410521D01*
X129315500Y-78423444D01*
X129315500Y-79006648D01*
X129315023Y-79016354D01*
X129306636Y-79101492D01*
X129302850Y-79120526D01*
X129279430Y-79197727D01*
X129272002Y-79215657D01*
X129233973Y-79286801D01*
X129223193Y-79302935D01*
X129168876Y-79369122D01*
X129162351Y-79376322D01*
X128556765Y-79981907D01*
X128539473Y-79995703D01*
X128308212Y-80141170D01*
X128258312Y-80156330D01*
X128207633Y-80144029D01*
X128170236Y-80107680D01*
X128156500Y-80057370D01*
X128156500Y-76471860D01*
X128156977Y-76462157D01*
X128163742Y-76393464D01*
X128170684Y-76322974D01*
X128174470Y-76303942D01*
X128213650Y-76174779D01*
X128221073Y-76156859D01*
X128284702Y-76037813D01*
X128295479Y-76021685D01*
X128384144Y-75913641D01*
X128390650Y-75906462D01*
X128589013Y-75708099D01*
X128589015Y-75708099D01*
X128737768Y-75559344D01*
X128758345Y-75543570D01*
X129057822Y-75371044D01*
X129064261Y-75365595D01*
X129083256Y-75352965D01*
X129131220Y-75328528D01*
X129226528Y-75233220D01*
X129287719Y-75113126D01*
X129308804Y-74980000D01*
X129287719Y-74846874D01*
X129226528Y-74726780D01*
X129131220Y-74631472D01*
X129011126Y-74570281D01*
X129003432Y-74569062D01*
X129003431Y-74569062D01*
X128885696Y-74550415D01*
X128878000Y-74549196D01*
X128870304Y-74550415D01*
X128752568Y-74569062D01*
X128752565Y-74569062D01*
X128744874Y-74570281D01*
X128737936Y-74573815D01*
X128737933Y-74573817D01*
X128631719Y-74627936D01*
X128631717Y-74627937D01*
X128624780Y-74631472D01*
X128619276Y-74636975D01*
X128619273Y-74636978D01*
X128534979Y-74721272D01*
X128534976Y-74721275D01*
X128529472Y-74726780D01*
X128525936Y-74733718D01*
X128525934Y-74733722D01*
X128505036Y-74774735D01*
X128492417Y-74793720D01*
X128489829Y-74796779D01*
X128489823Y-74796786D01*
X128486957Y-74800175D01*
X128484740Y-74804023D01*
X128484736Y-74804029D01*
X128314432Y-75099647D01*
X128298653Y-75120231D01*
X128231984Y-75186901D01*
X128231984Y-75186902D01*
X128231982Y-75186904D01*
X128231982Y-75186903D01*
X127982948Y-75435938D01*
X127982948Y-75435939D01*
X127948198Y-75470689D01*
X127948169Y-75470711D01*
X127948165Y-75470708D01*
X127948134Y-75470738D01*
X127948130Y-75470742D01*
X127885157Y-75533718D01*
X127885150Y-75533725D01*
X127882867Y-75536009D01*
X127880901Y-75538570D01*
X127880895Y-75538578D01*
X127803043Y-75640041D01*
X127753239Y-75674512D01*
X127692678Y-75673521D01*
X127644028Y-75637441D01*
X127625500Y-75579775D01*
X127625500Y-74261241D01*
X127625712Y-74254766D01*
X127632730Y-74147691D01*
X127636567Y-74089144D01*
X127638257Y-74076312D01*
X127646483Y-74034961D01*
X127670005Y-73916706D01*
X127673356Y-73904202D01*
X127725665Y-73750107D01*
X127730614Y-73738159D01*
X127802598Y-73592194D01*
X127809062Y-73580999D01*
X127899478Y-73445684D01*
X127907345Y-73435431D01*
X128016918Y-73310492D01*
X128021315Y-73305797D01*
X128729768Y-72597343D01*
X128750345Y-72581570D01*
X129049822Y-72409044D01*
X129056261Y-72403595D01*
X129075256Y-72390965D01*
X129123220Y-72366528D01*
X129218528Y-72271220D01*
X129279719Y-72151126D01*
X129300804Y-72018000D01*
X129279719Y-71884874D01*
X129218528Y-71764780D01*
X129123220Y-71669472D01*
X129003126Y-71608281D01*
X128995432Y-71607062D01*
X128995431Y-71607062D01*
X128877696Y-71588415D01*
X128870000Y-71587196D01*
X128862304Y-71588415D01*
X128744568Y-71607062D01*
X128744565Y-71607062D01*
X128736874Y-71608281D01*
X128729936Y-71611815D01*
X128729933Y-71611817D01*
X128623719Y-71665936D01*
X128623717Y-71665937D01*
X128616780Y-71669472D01*
X128611276Y-71674975D01*
X128611273Y-71674978D01*
X128526979Y-71759272D01*
X128526976Y-71759275D01*
X128521472Y-71764780D01*
X128517936Y-71771718D01*
X128517934Y-71771722D01*
X128497036Y-71812735D01*
X128484417Y-71831720D01*
X128481829Y-71834779D01*
X128481823Y-71834786D01*
X128478957Y-71838175D01*
X128476740Y-71842023D01*
X128476736Y-71842029D01*
X128306432Y-72137647D01*
X128290653Y-72158231D01*
X127559543Y-72889342D01*
X127559521Y-72889365D01*
X127559469Y-72889418D01*
X127559455Y-72889438D01*
X127559401Y-72889497D01*
X127503783Y-72945114D01*
X127503757Y-72945142D01*
X127501821Y-72947079D01*
X127500097Y-72949239D01*
X127500094Y-72949244D01*
X127365997Y-73117391D01*
X127364265Y-73119563D01*
X127362795Y-73121901D01*
X127362786Y-73121915D01*
X127248368Y-73304007D01*
X127248363Y-73304015D01*
X127246887Y-73306365D01*
X127245678Y-73308873D01*
X127245677Y-73308877D01*
X127152373Y-73502619D01*
X127152368Y-73502628D01*
X127151162Y-73505135D01*
X127150244Y-73507757D01*
X127150240Y-73507768D01*
X127079211Y-73710752D01*
X127079207Y-73710764D01*
X127078295Y-73713372D01*
X127077680Y-73716064D01*
X127077678Y-73716073D01*
X127029819Y-73925753D01*
X127029817Y-73925763D01*
X127029202Y-73928459D01*
X127028892Y-73931210D01*
X127028890Y-73931222D01*
X127004811Y-74144925D01*
X127004810Y-74144936D01*
X127004500Y-74147691D01*
X127004500Y-74199958D01*
X127004500Y-82873897D01*
X127004499Y-82873900D01*
X127004499Y-82873906D01*
X127004499Y-82873907D01*
X127004499Y-82919189D01*
X127004194Y-82926954D01*
X126991997Y-83081979D01*
X126989567Y-83097324D01*
X126954178Y-83244740D01*
X126949377Y-83259515D01*
X126891365Y-83399571D01*
X126884313Y-83413413D01*
X126805097Y-83542683D01*
X126795965Y-83555251D01*
X126695084Y-83673368D01*
X126689812Y-83679072D01*
X126674686Y-83694200D01*
X126674682Y-83694205D01*
X125422864Y-84946021D01*
X125396142Y-84965054D01*
X125101124Y-85108464D01*
X125101108Y-85108473D01*
X125096923Y-85110508D01*
X125093191Y-85113291D01*
X125093182Y-85113297D01*
X125084362Y-85119876D01*
X125070124Y-85128724D01*
X125031036Y-85148641D01*
X125009780Y-85159472D01*
X125004275Y-85164976D01*
X125004272Y-85164979D01*
X124919978Y-85249273D01*
X124919975Y-85249276D01*
X124914472Y-85254780D01*
X124910937Y-85261717D01*
X124910936Y-85261719D01*
X124856817Y-85367933D01*
X124856815Y-85367936D01*
X124853281Y-85374874D01*
X124852062Y-85382565D01*
X124852062Y-85382568D01*
X124845538Y-85423762D01*
X124832196Y-85508000D01*
X122534316Y-85508000D01*
X122539225Y-85506790D01*
X122689852Y-85427734D01*
X122817183Y-85314929D01*
X122913818Y-85174930D01*
X122974140Y-85015872D01*
X122994645Y-84847000D01*
X122974140Y-84678128D01*
X122968601Y-84663524D01*
X122952087Y-84619979D01*
X122946895Y-84597811D01*
X122946860Y-84597818D01*
X122946696Y-84596959D01*
X122946124Y-84594517D01*
X122946013Y-84593384D01*
X122945574Y-84588901D01*
X122750055Y-83908228D01*
X122729348Y-83836140D01*
X122725500Y-83808808D01*
X122725500Y-83796189D01*
X122727972Y-83774206D01*
X122741228Y-83716000D01*
X123089196Y-83716000D01*
X123090415Y-83723696D01*
X123108868Y-83840209D01*
X123110281Y-83849126D01*
X123113816Y-83856065D01*
X123113817Y-83856066D01*
X123122788Y-83873673D01*
X123171472Y-83969220D01*
X123266780Y-84064528D01*
X123386874Y-84125719D01*
X123520000Y-84146804D01*
X123653126Y-84125719D01*
X123773220Y-84064528D01*
X123868528Y-83969220D01*
X123929719Y-83849126D01*
X123950804Y-83716000D01*
X123929719Y-83582874D01*
X123868528Y-83462780D01*
X123773220Y-83367472D01*
X123653126Y-83306281D01*
X123645432Y-83305062D01*
X123645431Y-83305062D01*
X123527696Y-83286415D01*
X123520000Y-83285196D01*
X123512304Y-83286415D01*
X123394568Y-83305062D01*
X123394565Y-83305062D01*
X123386874Y-83306281D01*
X123379936Y-83309815D01*
X123379933Y-83309817D01*
X123273719Y-83363936D01*
X123273717Y-83363937D01*
X123266780Y-83367472D01*
X123261276Y-83372975D01*
X123261273Y-83372978D01*
X123176978Y-83457273D01*
X123176975Y-83457276D01*
X123171472Y-83462780D01*
X123167937Y-83469717D01*
X123167936Y-83469719D01*
X123113817Y-83575933D01*
X123113815Y-83575936D01*
X123110281Y-83582874D01*
X123109062Y-83590565D01*
X123109062Y-83590568D01*
X123100775Y-83642891D01*
X123089196Y-83716000D01*
X122741228Y-83716000D01*
X122742111Y-83712122D01*
X122805735Y-83432743D01*
X122806816Y-83428821D01*
X122809719Y-83423126D01*
X122830804Y-83290000D01*
X122809719Y-83156874D01*
X122748528Y-83036780D01*
X122731748Y-83020000D01*
X124039196Y-83020000D01*
X124041854Y-83036780D01*
X124053904Y-83112867D01*
X124060281Y-83153126D01*
X124121472Y-83273220D01*
X124216780Y-83368528D01*
X124336874Y-83429719D01*
X124470000Y-83450804D01*
X124603126Y-83429719D01*
X124723220Y-83368528D01*
X124818528Y-83273220D01*
X124879719Y-83153126D01*
X124900804Y-83020000D01*
X124879719Y-82886874D01*
X124818528Y-82766780D01*
X124771748Y-82720000D01*
X125064355Y-82720000D01*
X125065077Y-82725946D01*
X125084137Y-82882925D01*
X125084138Y-82882932D01*
X125084860Y-82888872D01*
X125086982Y-82894468D01*
X125086983Y-82894471D01*
X125135388Y-83022106D01*
X125145182Y-83047930D01*
X125148579Y-83052851D01*
X125148581Y-83052855D01*
X125213258Y-83146555D01*
X125241817Y-83187929D01*
X125369148Y-83300734D01*
X125519775Y-83379790D01*
X125684944Y-83420500D01*
X125849068Y-83420500D01*
X125855056Y-83420500D01*
X126020225Y-83379790D01*
X126170852Y-83300734D01*
X126298183Y-83187929D01*
X126394818Y-83047930D01*
X126455140Y-82888872D01*
X126475645Y-82720000D01*
X126455140Y-82551128D01*
X126394818Y-82392070D01*
X126355968Y-82335786D01*
X126339890Y-82296411D01*
X126341817Y-82253924D01*
X126376891Y-82123029D01*
X126376891Y-82123027D01*
X126377732Y-82119890D01*
X126378784Y-82111894D01*
X126388146Y-82081031D01*
X126406933Y-82054813D01*
X126428528Y-82033220D01*
X126489719Y-81913126D01*
X126510804Y-81780000D01*
X126489719Y-81646874D01*
X126428528Y-81526780D01*
X126333220Y-81431472D01*
X126213126Y-81370281D01*
X126205432Y-81369062D01*
X126205431Y-81369062D01*
X126087696Y-81350415D01*
X126080000Y-81349196D01*
X126072304Y-81350415D01*
X125954568Y-81369062D01*
X125954565Y-81369062D01*
X125946874Y-81370281D01*
X125939936Y-81373815D01*
X125939933Y-81373817D01*
X125833719Y-81427936D01*
X125833717Y-81427937D01*
X125826780Y-81431472D01*
X125821276Y-81436975D01*
X125821273Y-81436978D01*
X125736978Y-81521273D01*
X125736975Y-81521276D01*
X125731472Y-81526780D01*
X125727937Y-81533717D01*
X125727936Y-81533719D01*
X125673817Y-81639933D01*
X125673815Y-81639936D01*
X125670281Y-81646874D01*
X125669062Y-81654565D01*
X125669062Y-81654568D01*
X125662757Y-81694379D01*
X125649196Y-81780000D01*
X125650415Y-81787696D01*
X125667552Y-81895900D01*
X125670281Y-81913126D01*
X125671765Y-81916039D01*
X125673816Y-81966937D01*
X125647790Y-82013739D01*
X125601198Y-82040141D01*
X125525589Y-82058776D01*
X125525581Y-82058778D01*
X125519775Y-82060210D01*
X125514476Y-82062990D01*
X125514471Y-82062993D01*
X125374451Y-82136482D01*
X125374446Y-82136485D01*
X125369148Y-82139266D01*
X125364667Y-82143234D01*
X125364665Y-82143237D01*
X125246299Y-82248099D01*
X125246293Y-82248105D01*
X125241817Y-82252071D01*
X125238417Y-82256996D01*
X125238414Y-82257000D01*
X125148581Y-82387144D01*
X125148577Y-82387151D01*
X125145182Y-82392070D01*
X125143061Y-82397660D01*
X125143060Y-82397664D01*
X125086983Y-82545528D01*
X125086981Y-82545533D01*
X125084860Y-82551128D01*
X125084139Y-82557065D01*
X125084137Y-82557074D01*
X125070247Y-82671472D01*
X125064355Y-82720000D01*
X124771748Y-82720000D01*
X124723220Y-82671472D01*
X124603126Y-82610281D01*
X124595432Y-82609062D01*
X124595431Y-82609062D01*
X124477696Y-82590415D01*
X124470000Y-82589196D01*
X124462304Y-82590415D01*
X124344568Y-82609062D01*
X124344565Y-82609062D01*
X124336874Y-82610281D01*
X124329936Y-82613815D01*
X124329933Y-82613817D01*
X124223719Y-82667936D01*
X124223717Y-82667937D01*
X124216780Y-82671472D01*
X124211276Y-82676975D01*
X124211273Y-82676978D01*
X124126978Y-82761273D01*
X124126975Y-82761276D01*
X124121472Y-82766780D01*
X124117937Y-82773717D01*
X124117936Y-82773719D01*
X124063817Y-82879933D01*
X124063815Y-82879936D01*
X124060281Y-82886874D01*
X124059062Y-82894565D01*
X124059062Y-82894568D01*
X124043501Y-82992816D01*
X124039196Y-83020000D01*
X122731748Y-83020000D01*
X122653220Y-82941472D01*
X122561166Y-82894568D01*
X122540066Y-82883817D01*
X122540065Y-82883816D01*
X122533126Y-82880281D01*
X122525432Y-82879062D01*
X122525431Y-82879062D01*
X122407696Y-82860415D01*
X122400000Y-82859196D01*
X122392304Y-82860415D01*
X122274568Y-82879062D01*
X122274565Y-82879062D01*
X122266874Y-82880281D01*
X122259936Y-82883815D01*
X122259933Y-82883817D01*
X122153719Y-82937936D01*
X122153717Y-82937937D01*
X122146780Y-82941472D01*
X122141276Y-82946975D01*
X122141273Y-82946978D01*
X122056978Y-83031273D01*
X122056975Y-83031276D01*
X122051472Y-83036780D01*
X122047937Y-83043717D01*
X122047936Y-83043719D01*
X121993817Y-83149933D01*
X121993815Y-83149936D01*
X121990281Y-83156874D01*
X121989062Y-83164565D01*
X121989062Y-83164568D01*
X121978464Y-83231481D01*
X121969196Y-83290000D01*
X121970415Y-83297696D01*
X121989061Y-83415428D01*
X121989062Y-83415432D01*
X121990281Y-83423126D01*
X121993182Y-83428820D01*
X121994264Y-83432745D01*
X122069340Y-83762408D01*
X122070746Y-83798880D01*
X122058840Y-83833382D01*
X121690160Y-84480781D01*
X121685609Y-84488026D01*
X121669908Y-84510774D01*
X121664182Y-84519070D01*
X121662059Y-84524665D01*
X121662058Y-84524669D01*
X121656801Y-84538530D01*
X121655364Y-84541884D01*
X121655035Y-84542463D01*
X121654058Y-84544933D01*
X121654050Y-84544953D01*
X121635056Y-84593000D01*
X121635052Y-84593009D01*
X121633770Y-84596255D01*
X121632955Y-84599653D01*
X121631902Y-84602990D01*
X121631840Y-84602970D01*
X121629576Y-84610316D01*
X121605985Y-84672522D01*
X121605985Y-84672524D01*
X121603860Y-84678128D01*
X121603138Y-84684071D01*
X121603137Y-84684077D01*
X121599289Y-84715770D01*
X121583355Y-84847000D01*
X117143212Y-84847000D01*
X117143212Y-84240519D01*
X117162119Y-84182329D01*
X117211618Y-84146365D01*
X117266771Y-84146364D01*
X117266874Y-84145719D01*
X117400000Y-84166804D01*
X117533126Y-84145719D01*
X117653220Y-84084528D01*
X117748528Y-83989220D01*
X117809719Y-83869126D01*
X117830804Y-83736000D01*
X117809719Y-83602874D01*
X117748528Y-83482780D01*
X117653220Y-83387472D01*
X117533126Y-83326281D01*
X117525432Y-83325062D01*
X117525431Y-83325062D01*
X117407696Y-83306415D01*
X117400000Y-83305196D01*
X117392304Y-83306415D01*
X117274568Y-83325062D01*
X117274565Y-83325062D01*
X117270952Y-83325635D01*
X117270946Y-83325635D01*
X117266874Y-83326281D01*
X117266771Y-83325635D01*
X117211618Y-83325635D01*
X117162119Y-83289671D01*
X117143212Y-83231481D01*
X117143212Y-82242436D01*
X117143331Y-82237578D01*
X117143586Y-82232384D01*
X117158590Y-81926966D01*
X117159540Y-81917330D01*
X117204813Y-81612125D01*
X117206701Y-81602627D01*
X117281675Y-81303313D01*
X117284484Y-81294053D01*
X117388433Y-81003534D01*
X117392142Y-80994579D01*
X117524064Y-80715651D01*
X117528631Y-80707109D01*
X117687253Y-80442464D01*
X117692639Y-80434403D01*
X117725570Y-80390000D01*
X125744353Y-80390000D01*
X125745361Y-80397011D01*
X125763826Y-80525443D01*
X125763827Y-80525446D01*
X125764835Y-80532457D01*
X125767777Y-80538899D01*
X125767778Y-80538902D01*
X125800091Y-80609657D01*
X125824623Y-80663373D01*
X125918872Y-80772143D01*
X125924826Y-80775969D01*
X125924828Y-80775971D01*
X126023323Y-80839269D01*
X126039947Y-80849953D01*
X126178039Y-80890500D01*
X126314883Y-80890500D01*
X126321961Y-80890500D01*
X126460053Y-80849953D01*
X126581128Y-80772143D01*
X126675377Y-80663373D01*
X126735165Y-80532457D01*
X126755647Y-80390000D01*
X126735165Y-80247543D01*
X126675377Y-80116627D01*
X126581128Y-80007857D01*
X126575174Y-80004030D01*
X126575171Y-80004028D01*
X126466010Y-79933875D01*
X126466008Y-79933874D01*
X126460053Y-79930047D01*
X126391073Y-79909793D01*
X126328752Y-79891494D01*
X126321961Y-79889500D01*
X126178039Y-79889500D01*
X126171248Y-79891493D01*
X126171247Y-79891494D01*
X126046740Y-79928052D01*
X126046737Y-79928053D01*
X126039947Y-79930047D01*
X126033994Y-79933872D01*
X126033989Y-79933875D01*
X125924828Y-80004028D01*
X125924822Y-80004033D01*
X125918872Y-80007857D01*
X125914236Y-80013206D01*
X125914235Y-80013208D01*
X125829263Y-80111271D01*
X125829260Y-80111275D01*
X125824623Y-80116627D01*
X125821680Y-80123070D01*
X125821678Y-80123074D01*
X125767778Y-80241097D01*
X125767776Y-80241102D01*
X125764835Y-80247543D01*
X125763827Y-80254551D01*
X125763826Y-80254556D01*
X125749573Y-80353694D01*
X125744353Y-80390000D01*
X117725570Y-80390000D01*
X117876447Y-80186565D01*
X117882581Y-80179090D01*
X118091377Y-79948716D01*
X118094690Y-79945236D01*
X118130134Y-79909793D01*
X118130135Y-79909792D01*
X118130137Y-79909788D01*
X118194481Y-79845446D01*
X118194483Y-79845445D01*
X118357885Y-79682042D01*
X118357888Y-79682041D01*
X118391527Y-79648400D01*
X118398716Y-79641883D01*
X118507340Y-79552738D01*
X118523459Y-79541967D01*
X118643076Y-79478028D01*
X118660989Y-79470608D01*
X118790786Y-79431232D01*
X118809801Y-79427450D01*
X118928792Y-79415727D01*
X118949481Y-79413689D01*
X118959187Y-79413212D01*
X119061885Y-79413212D01*
X119061888Y-79413213D01*
X119114294Y-79413212D01*
X119114322Y-79413215D01*
X119114322Y-79413219D01*
X119240748Y-79413218D01*
X119491437Y-79380212D01*
X119735673Y-79314767D01*
X119969278Y-79218003D01*
X120188254Y-79091576D01*
X120388855Y-78937649D01*
X120478252Y-78848252D01*
X120515329Y-78811176D01*
X120515330Y-78811173D01*
X121152233Y-78174271D01*
X121152233Y-78174270D01*
X121199545Y-78126957D01*
X121199551Y-78126955D01*
X121236599Y-78089904D01*
X121236630Y-78089880D01*
X121236635Y-78089886D01*
X121304135Y-78022382D01*
X121363577Y-77944913D01*
X121377753Y-77926438D01*
X121412509Y-77897914D01*
X121456296Y-77887704D01*
X121611495Y-77887704D01*
X121634163Y-77890937D01*
X121634232Y-77890593D01*
X122376435Y-78039064D01*
X122380634Y-78040001D01*
X122544944Y-78080500D01*
X122709068Y-78080500D01*
X122715056Y-78080500D01*
X122880225Y-78039790D01*
X123030852Y-77960734D01*
X123158183Y-77847929D01*
X123254818Y-77707930D01*
X123315140Y-77548872D01*
X123335645Y-77380000D01*
X123315140Y-77211128D01*
X123254818Y-77052070D01*
X123158183Y-76912071D01*
X123030852Y-76799266D01*
X123025548Y-76796482D01*
X122885528Y-76722993D01*
X122885526Y-76722992D01*
X122880225Y-76720210D01*
X122874409Y-76718776D01*
X122874408Y-76718776D01*
X122720871Y-76680933D01*
X122720868Y-76680932D01*
X122715056Y-76679500D01*
X122544944Y-76679500D01*
X122539131Y-76680932D01*
X122539128Y-76680933D01*
X122385591Y-76718776D01*
X122385587Y-76718777D01*
X122379775Y-76720210D01*
X122374478Y-76722989D01*
X122374470Y-76722993D01*
X122327172Y-76747817D01*
X122322864Y-76749946D01*
X122317338Y-76752511D01*
X122317314Y-76752523D01*
X122314049Y-76754040D01*
X122311030Y-76756022D01*
X122307854Y-76757790D01*
X122307839Y-76757764D01*
X122304714Y-76759604D01*
X122234449Y-76796483D01*
X122234444Y-76796486D01*
X122229148Y-76799266D01*
X122224667Y-76803235D01*
X122224668Y-76803235D01*
X122188512Y-76835265D01*
X122177244Y-76843888D01*
X122175388Y-76845108D01*
X122121774Y-76861377D01*
X122067915Y-76845939D01*
X122031061Y-76803738D01*
X122023017Y-76748290D01*
X122024639Y-76737009D01*
X122025647Y-76730000D01*
X122005165Y-76587543D01*
X121945377Y-76456627D01*
X121851128Y-76347857D01*
X121845174Y-76344030D01*
X121845171Y-76344028D01*
X121736010Y-76273875D01*
X121736008Y-76273874D01*
X121730053Y-76270047D01*
X121591961Y-76229500D01*
X121448039Y-76229500D01*
X121441248Y-76231493D01*
X121441247Y-76231494D01*
X121316740Y-76268052D01*
X121316737Y-76268053D01*
X121309947Y-76270047D01*
X121303994Y-76273872D01*
X121303989Y-76273875D01*
X121194828Y-76344028D01*
X121194822Y-76344033D01*
X121188872Y-76347857D01*
X121184239Y-76353202D01*
X121184235Y-76353207D01*
X121175484Y-76363307D01*
X121128553Y-76393464D01*
X121072769Y-76393461D01*
X121031762Y-76367103D01*
X121031119Y-76367847D01*
X121025946Y-76363364D01*
X121025843Y-76363298D01*
X121021128Y-76357857D01*
X121013894Y-76353208D01*
X120906010Y-76283875D01*
X120906008Y-76283874D01*
X120900053Y-76280047D01*
X120859201Y-76268052D01*
X120768752Y-76241494D01*
X120761961Y-76239500D01*
X120618039Y-76239500D01*
X120611248Y-76241493D01*
X120611247Y-76241494D01*
X120486740Y-76278052D01*
X120486737Y-76278053D01*
X120479947Y-76280047D01*
X120473994Y-76283872D01*
X120473989Y-76283875D01*
X120364828Y-76354028D01*
X120364822Y-76354033D01*
X120358872Y-76357857D01*
X120354236Y-76363206D01*
X120354235Y-76363208D01*
X120269263Y-76461271D01*
X120269260Y-76461275D01*
X120264623Y-76466627D01*
X120261680Y-76473070D01*
X120261678Y-76473074D01*
X120207778Y-76591097D01*
X120207776Y-76591102D01*
X120204835Y-76597543D01*
X120203827Y-76604551D01*
X120203826Y-76604556D01*
X120184823Y-76736730D01*
X120161828Y-76787267D01*
X120115244Y-76817476D01*
X120059723Y-76817857D01*
X120012728Y-76788290D01*
X120011585Y-76787000D01*
X120008183Y-76782071D01*
X119980775Y-76757790D01*
X119913125Y-76697857D01*
X119880852Y-76669266D01*
X119794368Y-76623875D01*
X119735528Y-76592993D01*
X119735526Y-76592992D01*
X119730225Y-76590210D01*
X119724409Y-76588776D01*
X119724408Y-76588776D01*
X119570871Y-76550933D01*
X119570868Y-76550932D01*
X119565056Y-76549500D01*
X119394944Y-76549500D01*
X119389131Y-76550932D01*
X119389128Y-76550933D01*
X119235591Y-76588776D01*
X119235587Y-76588777D01*
X119229775Y-76590210D01*
X119224476Y-76592990D01*
X119224471Y-76592993D01*
X119084451Y-76666482D01*
X119084446Y-76666485D01*
X119079148Y-76669266D01*
X119074667Y-76673234D01*
X119074665Y-76673237D01*
X118956299Y-76778099D01*
X118956293Y-76778105D01*
X118951817Y-76782071D01*
X118948417Y-76786996D01*
X118948414Y-76787000D01*
X118858581Y-76917144D01*
X118858577Y-76917151D01*
X118855182Y-76922070D01*
X118853061Y-76927660D01*
X118853060Y-76927664D01*
X118796983Y-77075528D01*
X118796981Y-77075533D01*
X118794860Y-77081128D01*
X118794139Y-77087065D01*
X118794137Y-77087074D01*
X118780432Y-77199953D01*
X118774355Y-77250000D01*
X118775077Y-77255946D01*
X118794138Y-77412932D01*
X118794139Y-77412937D01*
X118794860Y-77418872D01*
X118796980Y-77424462D01*
X118795335Y-77477724D01*
X118766317Y-77522418D01*
X118718332Y-77545594D01*
X118285944Y-77623140D01*
X118285940Y-77623140D01*
X118281658Y-77623909D01*
X118279189Y-77624818D01*
X118255730Y-77628107D01*
X117392964Y-77639503D01*
X117391656Y-77639512D01*
X117232360Y-77639512D01*
X117230205Y-77639700D01*
X117230193Y-77639701D01*
X116908625Y-77667832D01*
X116908613Y-77667833D01*
X116906459Y-77668022D01*
X116904323Y-77668398D01*
X116904320Y-77668399D01*
X116586418Y-77724451D01*
X116586401Y-77724454D01*
X116584284Y-77724828D01*
X116582213Y-77725382D01*
X116582190Y-77725388D01*
X116270358Y-77808941D01*
X116270346Y-77808944D01*
X116268285Y-77809497D01*
X116266285Y-77810224D01*
X116266272Y-77810229D01*
X115962891Y-77920649D01*
X115962869Y-77920657D01*
X115960869Y-77921386D01*
X115958932Y-77922288D01*
X115958918Y-77922295D01*
X115706949Y-78039790D01*
X115664374Y-78059643D01*
X115662520Y-78060712D01*
X115662513Y-78060717D01*
X115382923Y-78222137D01*
X115381058Y-78223214D01*
X115379299Y-78224445D01*
X115379289Y-78224452D01*
X115114842Y-78409619D01*
X115114820Y-78409635D01*
X115113076Y-78410857D01*
X115111439Y-78412230D01*
X115111428Y-78412239D01*
X114864113Y-78619760D01*
X114864104Y-78619768D01*
X114862468Y-78621141D01*
X114860955Y-78622653D01*
X114860944Y-78622664D01*
X114769094Y-78714511D01*
X114769095Y-78714512D01*
X114769091Y-78714516D01*
X114383769Y-79099836D01*
X114379734Y-79103651D01*
X114209606Y-79255687D01*
X114200926Y-79262609D01*
X114017116Y-79393028D01*
X114007716Y-79398934D01*
X113810456Y-79507954D01*
X113800453Y-79512771D01*
X113592237Y-79599015D01*
X113581757Y-79602682D01*
X113365181Y-79665073D01*
X113354358Y-79667543D01*
X113132169Y-79705292D01*
X113121136Y-79706535D01*
X112892984Y-79719343D01*
X112887435Y-79719499D01*
X112832986Y-79719499D01*
X112832985Y-79719499D01*
X112832978Y-79719499D01*
X112832975Y-79719499D01*
X112832974Y-79719500D01*
X110480034Y-79719500D01*
X110480000Y-79719496D01*
X110480000Y-79719491D01*
X110372086Y-79719491D01*
X110368874Y-79719913D01*
X110368872Y-79719914D01*
X110161312Y-79747240D01*
X110161300Y-79747242D01*
X110158105Y-79747663D01*
X110154993Y-79748496D01*
X110154982Y-79748499D01*
X109952754Y-79802687D01*
X109952747Y-79802689D01*
X109949632Y-79803524D01*
X109946657Y-79804756D01*
X109946646Y-79804760D01*
X109753226Y-79884880D01*
X109753217Y-79884883D01*
X109750234Y-79886120D01*
X109747434Y-79887736D01*
X109747425Y-79887741D01*
X109566129Y-79992415D01*
X109566118Y-79992421D01*
X109563323Y-79994036D01*
X109560760Y-79996002D01*
X109560749Y-79996010D01*
X109394670Y-80123451D01*
X109394664Y-80123455D01*
X109392097Y-80125426D01*
X109389813Y-80127709D01*
X109389805Y-80127717D01*
X109338084Y-80179440D01*
X109338083Y-80179441D01*
X108386929Y-81130593D01*
X108367870Y-81145475D01*
X108363615Y-81148028D01*
X108363604Y-81148035D01*
X108359586Y-81150447D01*
X108356096Y-81153569D01*
X108356090Y-81153574D01*
X108043626Y-81433146D01*
X108043614Y-81433158D01*
X108041132Y-81435379D01*
X108038963Y-81437924D01*
X108038958Y-81437930D01*
X108011131Y-81470592D01*
X108005779Y-81476389D01*
X107985067Y-81497102D01*
X107985064Y-81497104D01*
X107979556Y-81502614D01*
X107976019Y-81509555D01*
X107976018Y-81509557D01*
X107921901Y-81615767D01*
X107921899Y-81615770D01*
X107918365Y-81622708D01*
X107917146Y-81630399D01*
X107917146Y-81630402D01*
X107914537Y-81646874D01*
X107897280Y-81755834D01*
X106255175Y-81755834D01*
X106254905Y-77080000D01*
X106739353Y-77080000D01*
X106740361Y-77087011D01*
X106758826Y-77215443D01*
X106758827Y-77215446D01*
X106759835Y-77222457D01*
X106762777Y-77228899D01*
X106762778Y-77228902D01*
X106792866Y-77294784D01*
X106819623Y-77353373D01*
X106913872Y-77462143D01*
X106919826Y-77465969D01*
X106919828Y-77465971D01*
X106943180Y-77480978D01*
X107034947Y-77539953D01*
X107173039Y-77580500D01*
X107309883Y-77580500D01*
X107316961Y-77580500D01*
X107455053Y-77539953D01*
X107576128Y-77462143D01*
X107670377Y-77353373D01*
X107730165Y-77222457D01*
X107750647Y-77080000D01*
X107730165Y-76937543D01*
X107670377Y-76806627D01*
X107577985Y-76700000D01*
X117394353Y-76700000D01*
X117395361Y-76707011D01*
X117413826Y-76835443D01*
X117413827Y-76835446D01*
X117414835Y-76842457D01*
X117417777Y-76848899D01*
X117417778Y-76848902D01*
X117471678Y-76966925D01*
X117474623Y-76973373D01*
X117568872Y-77082143D01*
X117574826Y-77085969D01*
X117574828Y-77085971D01*
X117631113Y-77122143D01*
X117689947Y-77159953D01*
X117828039Y-77200500D01*
X117964883Y-77200500D01*
X117971961Y-77200500D01*
X118110053Y-77159953D01*
X118231128Y-77082143D01*
X118325377Y-76973373D01*
X118385165Y-76842457D01*
X118405647Y-76700000D01*
X118385165Y-76557543D01*
X118325377Y-76426627D01*
X118231128Y-76317857D01*
X118225174Y-76314030D01*
X118225171Y-76314028D01*
X118116010Y-76243875D01*
X118116008Y-76243874D01*
X118110053Y-76240047D01*
X117971961Y-76199500D01*
X117828039Y-76199500D01*
X117821248Y-76201493D01*
X117821247Y-76201494D01*
X117696740Y-76238052D01*
X117696737Y-76238053D01*
X117689947Y-76240047D01*
X117683994Y-76243872D01*
X117683989Y-76243875D01*
X117574828Y-76314028D01*
X117574822Y-76314033D01*
X117568872Y-76317857D01*
X117564236Y-76323206D01*
X117564235Y-76323208D01*
X117479263Y-76421271D01*
X117479260Y-76421275D01*
X117474623Y-76426627D01*
X117471680Y-76433070D01*
X117471678Y-76433074D01*
X117417778Y-76551097D01*
X117417776Y-76551102D01*
X117414835Y-76557543D01*
X117413827Y-76564551D01*
X117413826Y-76564556D01*
X117406135Y-76618052D01*
X117394353Y-76700000D01*
X107577985Y-76700000D01*
X107576128Y-76697857D01*
X107570174Y-76694030D01*
X107570171Y-76694028D01*
X107461010Y-76623875D01*
X107461008Y-76623874D01*
X107455053Y-76620047D01*
X107362914Y-76592993D01*
X107323752Y-76581494D01*
X107316961Y-76579500D01*
X107173039Y-76579500D01*
X107166248Y-76581493D01*
X107166247Y-76581494D01*
X107041740Y-76618052D01*
X107041737Y-76618053D01*
X107034947Y-76620047D01*
X107028994Y-76623872D01*
X107028989Y-76623875D01*
X106919828Y-76694028D01*
X106919822Y-76694033D01*
X106913872Y-76697857D01*
X106909236Y-76703206D01*
X106909235Y-76703208D01*
X106824263Y-76801271D01*
X106824260Y-76801275D01*
X106819623Y-76806627D01*
X106816680Y-76813070D01*
X106816678Y-76813074D01*
X106762778Y-76931097D01*
X106762776Y-76931102D01*
X106759835Y-76937543D01*
X106758827Y-76944551D01*
X106758826Y-76944556D01*
X106751848Y-76993093D01*
X106739353Y-77080000D01*
X106254905Y-77080000D01*
X106254690Y-73348196D01*
X117757592Y-73348196D01*
X117758968Y-73354820D01*
X117758969Y-73354826D01*
X117777852Y-73445696D01*
X117788604Y-73497436D01*
X117791719Y-73503448D01*
X117791720Y-73503450D01*
X117855615Y-73626763D01*
X117855618Y-73626767D01*
X117858731Y-73632775D01*
X117863350Y-73637721D01*
X117863351Y-73637722D01*
X117897193Y-73673958D01*
X117962772Y-73744176D01*
X118093010Y-73823375D01*
X118239786Y-73864500D01*
X118350550Y-73864500D01*
X118353927Y-73864500D01*
X118467009Y-73848957D01*
X118606818Y-73788230D01*
X118720781Y-73695513D01*
X118771952Y-73673958D01*
X118826685Y-73683346D01*
X118867752Y-73720726D01*
X118882233Y-73774337D01*
X118865571Y-73827310D01*
X118842266Y-73862189D01*
X118842256Y-73862204D01*
X118840912Y-73864217D01*
X118839769Y-73866354D01*
X118839762Y-73866367D01*
X118724144Y-74082674D01*
X118702717Y-74122761D01*
X118701793Y-74124991D01*
X118701790Y-74124998D01*
X118591454Y-74391371D01*
X118591449Y-74391384D01*
X118590529Y-74393606D01*
X118589831Y-74395905D01*
X118589827Y-74395918D01*
X118506134Y-74671812D01*
X118506128Y-74671832D01*
X118505428Y-74674143D01*
X118504954Y-74676521D01*
X118504953Y-74676529D01*
X118448707Y-74959295D01*
X118448705Y-74959307D01*
X118448235Y-74961671D01*
X118447997Y-74964080D01*
X118447997Y-74964085D01*
X118438754Y-75057925D01*
X118415053Y-75113048D01*
X118399260Y-75131274D01*
X118399256Y-75131279D01*
X118394623Y-75136627D01*
X118391681Y-75143067D01*
X118391680Y-75143070D01*
X118337778Y-75261097D01*
X118337777Y-75261100D01*
X118334835Y-75267543D01*
X118333827Y-75274551D01*
X118333826Y-75274556D01*
X118322554Y-75352961D01*
X118314353Y-75410000D01*
X118315361Y-75417011D01*
X118333826Y-75545443D01*
X118333827Y-75545446D01*
X118334835Y-75552457D01*
X118337777Y-75558899D01*
X118337778Y-75558902D01*
X118390576Y-75674512D01*
X118394623Y-75683373D01*
X118488872Y-75792143D01*
X118609947Y-75869953D01*
X118748039Y-75910500D01*
X118884883Y-75910500D01*
X118891961Y-75910500D01*
X119030053Y-75869953D01*
X119151128Y-75792143D01*
X119245377Y-75683373D01*
X119305165Y-75552457D01*
X119325647Y-75410000D01*
X119305165Y-75267543D01*
X119252245Y-75151666D01*
X119244698Y-75093962D01*
X119274294Y-74919778D01*
X119276763Y-74908962D01*
X119292434Y-74854568D01*
X119341451Y-74684427D01*
X119345111Y-74673968D01*
X119434532Y-74458086D01*
X119439347Y-74448091D01*
X119470695Y-74391371D01*
X119552372Y-74243587D01*
X119558267Y-74234204D01*
X119693491Y-74043626D01*
X119700403Y-74034961D01*
X119857979Y-73858634D01*
X119861775Y-73854616D01*
X120033655Y-73682736D01*
X120052399Y-73668225D01*
X120054666Y-73667146D01*
X120501194Y-73348196D01*
X123537592Y-73348196D01*
X123538968Y-73354820D01*
X123538969Y-73354826D01*
X123557852Y-73445696D01*
X123568604Y-73497436D01*
X123571719Y-73503448D01*
X123571720Y-73503450D01*
X123635615Y-73626763D01*
X123635618Y-73626767D01*
X123638731Y-73632775D01*
X123643350Y-73637721D01*
X123643351Y-73637722D01*
X123677193Y-73673958D01*
X123742772Y-73744176D01*
X123873010Y-73823375D01*
X124019786Y-73864500D01*
X124130550Y-73864500D01*
X124133927Y-73864500D01*
X124247009Y-73848957D01*
X124386818Y-73788230D01*
X124505058Y-73692034D01*
X124592961Y-73567504D01*
X124644006Y-73423877D01*
X124654408Y-73271804D01*
X124623396Y-73122564D01*
X124553269Y-72987225D01*
X124449228Y-72875824D01*
X124383815Y-72836046D01*
X124324772Y-72800141D01*
X124324771Y-72800140D01*
X124318990Y-72796625D01*
X124312476Y-72794800D01*
X124312472Y-72794798D01*
X124178733Y-72757326D01*
X124178729Y-72757325D01*
X124172214Y-72755500D01*
X124058073Y-72755500D01*
X124054739Y-72755958D01*
X124054728Y-72755959D01*
X123951695Y-72770121D01*
X123951691Y-72770122D01*
X123944991Y-72771043D01*
X123938787Y-72773737D01*
X123938782Y-72773739D01*
X123811398Y-72829069D01*
X123811392Y-72829072D01*
X123805182Y-72831770D01*
X123799932Y-72836040D01*
X123799924Y-72836046D01*
X123692193Y-72923693D01*
X123692189Y-72923697D01*
X123686942Y-72927966D01*
X123683040Y-72933493D01*
X123683037Y-72933497D01*
X123602943Y-73046964D01*
X123602940Y-73046968D01*
X123599039Y-73052496D01*
X123596772Y-73058872D01*
X123596772Y-73058874D01*
X123550262Y-73189739D01*
X123550260Y-73189744D01*
X123547994Y-73196123D01*
X123547532Y-73202877D01*
X123547531Y-73202882D01*
X123540033Y-73312512D01*
X123537592Y-73348196D01*
X120501194Y-73348196D01*
X120504702Y-73345690D01*
X120508694Y-73342985D01*
X120541128Y-73322143D01*
X120564343Y-73295350D01*
X120570197Y-73289193D01*
X120570466Y-73288894D01*
X120573049Y-73286417D01*
X120577144Y-73281160D01*
X120577193Y-73281198D01*
X120581519Y-73275527D01*
X120635377Y-73213373D01*
X120695165Y-73082457D01*
X120715647Y-72940000D01*
X120695165Y-72797543D01*
X120635377Y-72666627D01*
X120541128Y-72557857D01*
X120535174Y-72554030D01*
X120535171Y-72554028D01*
X120426010Y-72483875D01*
X120426008Y-72483874D01*
X120420053Y-72480047D01*
X120281961Y-72439500D01*
X120138039Y-72439500D01*
X120131248Y-72441493D01*
X120131247Y-72441494D01*
X120006740Y-72478052D01*
X120006737Y-72478053D01*
X119999947Y-72480047D01*
X119993994Y-72483872D01*
X119993989Y-72483875D01*
X119884828Y-72554028D01*
X119884822Y-72554033D01*
X119878872Y-72557857D01*
X119874240Y-72563202D01*
X119874230Y-72563211D01*
X119852227Y-72588603D01*
X119848851Y-72592306D01*
X119825124Y-72617038D01*
X119825116Y-72617046D01*
X119822646Y-72619622D01*
X119812637Y-72633633D01*
X119806915Y-72640899D01*
X119784623Y-72666627D01*
X119781684Y-72673060D01*
X119781680Y-72673068D01*
X119780691Y-72675235D01*
X119771200Y-72691645D01*
X119485382Y-73091791D01*
X119485378Y-73091796D01*
X119482852Y-73095334D01*
X119481768Y-73097608D01*
X119467256Y-73116349D01*
X119271146Y-73312460D01*
X119271097Y-73312512D01*
X119191487Y-73392123D01*
X119191477Y-73392133D01*
X119189763Y-73393848D01*
X119188233Y-73395711D01*
X119188216Y-73395731D01*
X119005328Y-73618580D01*
X119005315Y-73618596D01*
X119003784Y-73620463D01*
X119002435Y-73622481D01*
X119002429Y-73622490D01*
X118997981Y-73629147D01*
X118954485Y-73665215D01*
X118898345Y-73671615D01*
X118847847Y-73646262D01*
X118819443Y-73597416D01*
X118822384Y-73540989D01*
X118834191Y-73507768D01*
X118864006Y-73423877D01*
X118874408Y-73271804D01*
X118843396Y-73122564D01*
X118773269Y-72987225D01*
X118669228Y-72875824D01*
X118603815Y-72836046D01*
X118544772Y-72800141D01*
X118544771Y-72800140D01*
X118538990Y-72796625D01*
X118532476Y-72794800D01*
X118532472Y-72794798D01*
X118398733Y-72757326D01*
X118398729Y-72757325D01*
X118392214Y-72755500D01*
X118278073Y-72755500D01*
X118274739Y-72755958D01*
X118274728Y-72755959D01*
X118171695Y-72770121D01*
X118171691Y-72770122D01*
X118164991Y-72771043D01*
X118158787Y-72773737D01*
X118158782Y-72773739D01*
X118031398Y-72829069D01*
X118031392Y-72829072D01*
X118025182Y-72831770D01*
X118019932Y-72836040D01*
X118019924Y-72836046D01*
X117912193Y-72923693D01*
X117912189Y-72923697D01*
X117906942Y-72927966D01*
X117903040Y-72933493D01*
X117903037Y-72933497D01*
X117822943Y-73046964D01*
X117822940Y-73046968D01*
X117819039Y-73052496D01*
X117816772Y-73058872D01*
X117816772Y-73058874D01*
X117770262Y-73189739D01*
X117770260Y-73189744D01*
X117767994Y-73196123D01*
X117767532Y-73202877D01*
X117767531Y-73202882D01*
X117760033Y-73312512D01*
X117757592Y-73348196D01*
X106254690Y-73348196D01*
X106254503Y-70112831D01*
X106254503Y-70112824D01*
X106254515Y-70112794D01*
X106254502Y-70076879D01*
X131178548Y-70076879D01*
X131179395Y-70083313D01*
X131198338Y-70227205D01*
X131198339Y-70227210D01*
X131199186Y-70233641D01*
X131259694Y-70379720D01*
X131355948Y-70505161D01*
X131481389Y-70601415D01*
X131627468Y-70661923D01*
X131784230Y-70682561D01*
X131940992Y-70661923D01*
X132087071Y-70601415D01*
X132212512Y-70505161D01*
X132308766Y-70379720D01*
X132369274Y-70233641D01*
X132389912Y-70076879D01*
X132369274Y-69920117D01*
X132308766Y-69774038D01*
X132212512Y-69648597D01*
X132087071Y-69552343D01*
X132081077Y-69549860D01*
X132081075Y-69549859D01*
X131946989Y-69494319D01*
X131946988Y-69494318D01*
X131940992Y-69491835D01*
X131934561Y-69490988D01*
X131934556Y-69490987D01*
X131790664Y-69472044D01*
X131784230Y-69471197D01*
X131777796Y-69472044D01*
X131633903Y-69490987D01*
X131633896Y-69490988D01*
X131627468Y-69491835D01*
X131621473Y-69494318D01*
X131621470Y-69494319D01*
X131487384Y-69549859D01*
X131487379Y-69549861D01*
X131481389Y-69552343D01*
X131476245Y-69556290D01*
X131476240Y-69556293D01*
X131361101Y-69644642D01*
X131361096Y-69644646D01*
X131355948Y-69648597D01*
X131351997Y-69653745D01*
X131351993Y-69653750D01*
X131263644Y-69768889D01*
X131263641Y-69768894D01*
X131259694Y-69774038D01*
X131257212Y-69780028D01*
X131257210Y-69780033D01*
X131201670Y-69914119D01*
X131199186Y-69920117D01*
X131198339Y-69926545D01*
X131198338Y-69926552D01*
X131182761Y-70044875D01*
X131178548Y-70076879D01*
X106254502Y-70076879D01*
X106254500Y-70070665D01*
X106254653Y-70065178D01*
X106271780Y-69758481D01*
X106273015Y-69747483D01*
X106323912Y-69447397D01*
X106326375Y-69436591D01*
X106410555Y-69144104D01*
X106414213Y-69133640D01*
X106530619Y-68852418D01*
X106535417Y-68842447D01*
X106682592Y-68576014D01*
X106688481Y-68566636D01*
X106864560Y-68318373D01*
X106871481Y-68309693D01*
X106886624Y-68292742D01*
X107074236Y-68082729D01*
X107082076Y-68074886D01*
X107308994Y-67872038D01*
X107317649Y-67865134D01*
X107565860Y-67688971D01*
X107575239Y-67683077D01*
X107841607Y-67535824D01*
X107851594Y-67531013D01*
X108132783Y-67414515D01*
X108143238Y-67410856D01*
X108435686Y-67326584D01*
X108446505Y-67324113D01*
X108746576Y-67273119D01*
X108757575Y-67271880D01*
X109064224Y-67254656D01*
X109069777Y-67254500D01*
X109111877Y-67254500D01*
X146958123Y-67254500D01*
X147000225Y-67254500D01*
X147005775Y-67254655D01*
G37*
%TD.AperFunction*%
%TD*%
%TA.AperFunction,Conductor*%
%TO.N,/DeployV*%
G36*
X115779998Y-105244047D02*
G01*
X118800254Y-105244047D01*
X118819626Y-105245572D01*
X118914207Y-105260552D01*
X118951100Y-105272539D01*
X119027615Y-105311525D01*
X119059000Y-105334329D01*
X119119716Y-105395045D01*
X119142520Y-105426431D01*
X119181505Y-105502943D01*
X119193493Y-105539840D01*
X119208471Y-105634405D01*
X119209998Y-105653803D01*
X119209999Y-112781706D01*
X119209999Y-112781715D01*
X119210000Y-112953487D01*
X123430057Y-117173543D01*
X123595742Y-117173543D01*
X123601838Y-117173543D01*
X136936538Y-117173543D01*
X136941418Y-117173543D01*
X138067720Y-117173543D01*
X142969077Y-114888003D01*
X142971533Y-112241284D01*
X149091419Y-112246263D01*
X149091421Y-112246274D01*
X149091421Y-112278098D01*
X149090721Y-112286999D01*
X149090721Y-112292282D01*
X149089196Y-112301911D01*
X149090721Y-112311540D01*
X149090721Y-112316827D01*
X149091421Y-112325722D01*
X149091421Y-114778103D01*
X149090722Y-114786985D01*
X149090722Y-114792276D01*
X149089196Y-114801911D01*
X149090722Y-114811546D01*
X149090722Y-114816835D01*
X149091421Y-114825719D01*
X149091421Y-117132191D01*
X149090722Y-117141075D01*
X149090722Y-117146365D01*
X149089196Y-117156000D01*
X149090722Y-117165635D01*
X149090722Y-117170927D01*
X149091421Y-117179811D01*
X149091421Y-118569827D01*
X149072014Y-118636432D01*
X149019869Y-118682189D01*
X146124706Y-120033591D01*
X146124646Y-120033619D01*
X146123986Y-120033928D01*
X146105982Y-120042332D01*
X146088285Y-120052843D01*
X146088236Y-120052872D01*
X141473516Y-122793943D01*
X139488176Y-123973204D01*
X139473378Y-123980702D01*
X139402124Y-124010995D01*
X139398057Y-124012725D01*
X139366110Y-124021497D01*
X139294850Y-124031103D01*
X139285004Y-124032431D01*
X139268439Y-124033543D01*
X120639914Y-124033543D01*
X120592461Y-124024104D01*
X120552233Y-123997224D01*
X115124834Y-118569827D01*
X112386317Y-115831311D01*
X112359438Y-115791084D01*
X112349999Y-115743631D01*
X112349999Y-105653802D01*
X112351524Y-105634416D01*
X112366504Y-105539830D01*
X112378489Y-105502944D01*
X112417478Y-105426425D01*
X112440279Y-105395045D01*
X112500999Y-105334324D01*
X112532378Y-105311525D01*
X112608897Y-105272536D01*
X112645789Y-105260550D01*
X112732155Y-105246871D01*
X112740357Y-105245573D01*
X112759753Y-105244046D01*
X115779998Y-105244047D01*
G37*
%TD.AperFunction*%
%TD*%
%TA.AperFunction,Conductor*%
%TO.N,/Power/LX1*%
G36*
X112793909Y-83697766D02*
G01*
X112816532Y-83707037D01*
X112860970Y-83736525D01*
X112878305Y-83753769D01*
X112908025Y-83798052D01*
X112917417Y-83820633D01*
X112929099Y-83879101D01*
X112930310Y-83891330D01*
X112930480Y-84505512D01*
X112930481Y-84508156D01*
X112930481Y-84508157D01*
X112931000Y-86374254D01*
X112931000Y-86374310D01*
X112931155Y-86935347D01*
X112931084Y-86936060D01*
X112931078Y-86936063D01*
X112931077Y-86936063D01*
X112521089Y-86936096D01*
X112520243Y-83893514D01*
X112522356Y-83877387D01*
X112542549Y-83801707D01*
X112558624Y-83773744D01*
X112607881Y-83724228D01*
X112635758Y-83708007D01*
X112709496Y-83687918D01*
X112737842Y-83686869D01*
X112793909Y-83697766D01*
G37*
%TD.AperFunction*%
%TD*%
%TA.AperFunction,Conductor*%
%TO.N,/Power/LX2*%
G36*
X113787836Y-83686370D02*
G01*
X113821431Y-83692900D01*
X113844063Y-83702175D01*
X113888497Y-83731660D01*
X113905836Y-83748908D01*
X113935552Y-83793186D01*
X113944945Y-83815770D01*
X113956626Y-83874237D01*
X113957837Y-83886465D01*
X113957838Y-83888649D01*
X113958642Y-86922046D01*
X113548575Y-86922078D01*
X113547772Y-83888647D01*
X113549885Y-83872519D01*
X113570078Y-83796841D01*
X113586155Y-83768876D01*
X113606019Y-83748908D01*
X113635410Y-83719362D01*
X113663285Y-83703142D01*
X113737021Y-83683054D01*
X113765373Y-83682005D01*
X113787836Y-83686370D01*
G37*
%TD.AperFunction*%
%TD*%
%TA.AperFunction,Conductor*%
%TO.N,/Power/LX1*%
G36*
X112930767Y-84508426D02*
G01*
X112931000Y-84510774D01*
X112931000Y-86936141D01*
X112931000Y-86936918D01*
X112931000Y-87340845D01*
X112929799Y-87353039D01*
X112918201Y-87411342D01*
X112908869Y-87433872D01*
X112879327Y-87478084D01*
X112862084Y-87495327D01*
X112817872Y-87524869D01*
X112795342Y-87534201D01*
X112737038Y-87545799D01*
X112724844Y-87547000D01*
X111543156Y-87547000D01*
X111530963Y-87545799D01*
X111472659Y-87534202D01*
X111450128Y-87524870D01*
X111405916Y-87495328D01*
X111388673Y-87478085D01*
X111359131Y-87433873D01*
X111349799Y-87411343D01*
X111349799Y-87411342D01*
X111338199Y-87353028D01*
X111337000Y-87340855D01*
X111337000Y-84714571D01*
X111338201Y-84702380D01*
X111349798Y-84644074D01*
X111359128Y-84621546D01*
X111388674Y-84577328D01*
X111405912Y-84560090D01*
X111450129Y-84530545D01*
X111472652Y-84521216D01*
X111530972Y-84509615D01*
X111543145Y-84508416D01*
X111730269Y-84508416D01*
X112930741Y-84508415D01*
X112930767Y-84508426D01*
G37*
%TD.AperFunction*%
%TD*%
%TA.AperFunction,Conductor*%
%TO.N,/Power/LX2*%
G36*
X114954015Y-84504411D02*
G01*
X115012318Y-84516008D01*
X115034849Y-84525340D01*
X115079061Y-84554882D01*
X115096304Y-84572125D01*
X115125846Y-84616337D01*
X115135178Y-84638868D01*
X115146775Y-84697172D01*
X115147976Y-84709365D01*
X115147976Y-87339624D01*
X115146775Y-87351818D01*
X115135177Y-87410122D01*
X115125845Y-87432652D01*
X115096303Y-87476864D01*
X115079060Y-87494107D01*
X115034848Y-87523649D01*
X115012317Y-87532981D01*
X114954013Y-87544578D01*
X114941820Y-87545779D01*
X113754703Y-87545779D01*
X113742511Y-87544578D01*
X113725028Y-87541100D01*
X113684205Y-87532980D01*
X113661675Y-87523648D01*
X113617463Y-87494106D01*
X113600220Y-87476863D01*
X113570678Y-87432651D01*
X113561346Y-87410120D01*
X113549749Y-87351817D01*
X113548548Y-87339624D01*
X113548548Y-86820971D01*
X113548548Y-86820970D01*
X113548549Y-84503211D01*
X114941822Y-84503210D01*
X114954015Y-84504411D01*
G37*
%TD.AperFunction*%
%TD*%
%TA.AperFunction,Conductor*%
%TO.N,/DeployV*%
G36*
X148897454Y-83722200D02*
G01*
X148955757Y-83733797D01*
X148978288Y-83743129D01*
X149022500Y-83772671D01*
X149039743Y-83789914D01*
X149069285Y-83834126D01*
X149078617Y-83856656D01*
X149090215Y-83914960D01*
X149091416Y-83927154D01*
X149091416Y-84637062D01*
X149090647Y-84646838D01*
X149089196Y-84656000D01*
X149089965Y-84660855D01*
X149089965Y-84660857D01*
X149090647Y-84665163D01*
X149091416Y-84674939D01*
X149091416Y-87137062D01*
X149090647Y-87146837D01*
X149089196Y-87156000D01*
X149089965Y-87160855D01*
X149089965Y-87160856D01*
X149090647Y-87165162D01*
X149091416Y-87174938D01*
X149091416Y-89637062D01*
X149090647Y-89646836D01*
X149089196Y-89656000D01*
X149089965Y-89660855D01*
X149089965Y-89660858D01*
X149090647Y-89665165D01*
X149091416Y-89674939D01*
X149091416Y-92137062D01*
X149090647Y-92146835D01*
X149090613Y-92147051D01*
X149089196Y-92156000D01*
X149089965Y-92160855D01*
X149089965Y-92160856D01*
X149090647Y-92165163D01*
X149091416Y-92174937D01*
X149091416Y-94637055D01*
X149090648Y-94646824D01*
X149089965Y-94651140D01*
X149089965Y-94651145D01*
X149089196Y-94656000D01*
X149089965Y-94660855D01*
X149089965Y-94660856D01*
X149090648Y-94665168D01*
X149091417Y-94674945D01*
X149091417Y-97137055D01*
X149090648Y-97146830D01*
X149089196Y-97156000D01*
X149089965Y-97160855D01*
X149089965Y-97160856D01*
X149090648Y-97165169D01*
X149091417Y-97174945D01*
X149091417Y-99637055D01*
X149090648Y-99646829D01*
X149089965Y-99651143D01*
X149089196Y-99656000D01*
X149089965Y-99660855D01*
X149089965Y-99660856D01*
X149090648Y-99665169D01*
X149091417Y-99674944D01*
X149091417Y-102137055D01*
X149090648Y-102146828D01*
X149089965Y-102151142D01*
X149089196Y-102156000D01*
X149089965Y-102160855D01*
X149089965Y-102160856D01*
X149090648Y-102165169D01*
X149091417Y-102174944D01*
X149091417Y-104637048D01*
X149090649Y-104646816D01*
X149089965Y-104651139D01*
X149089965Y-104651145D01*
X149089196Y-104656000D01*
X149089965Y-104660855D01*
X149090649Y-104665174D01*
X149091418Y-104674951D01*
X149091418Y-107137049D01*
X149090649Y-107146824D01*
X149089196Y-107156000D01*
X149089965Y-107160855D01*
X149089965Y-107160856D01*
X149090649Y-107165176D01*
X149091418Y-107174951D01*
X149091418Y-109782960D01*
X149090649Y-109792734D01*
X149089196Y-109801911D01*
X149089965Y-109806766D01*
X149089965Y-109806767D01*
X149090649Y-109811087D01*
X149091418Y-109820862D01*
X149091418Y-112246253D01*
X149091419Y-112246260D01*
X149091419Y-112246265D01*
X142971533Y-112241284D01*
X142969077Y-114888003D01*
X138067720Y-117173543D01*
X137341418Y-117173543D01*
X137341418Y-110149140D01*
X144463582Y-110149140D01*
X144482748Y-110380445D01*
X144539725Y-110605440D01*
X144540760Y-110607800D01*
X144540763Y-110607808D01*
X144631917Y-110815617D01*
X144631919Y-110815622D01*
X144632958Y-110817989D01*
X144759903Y-111012293D01*
X144917098Y-111183053D01*
X145100256Y-111325610D01*
X145102523Y-111326837D01*
X145102528Y-111326840D01*
X145177872Y-111367614D01*
X145304379Y-111436076D01*
X145523901Y-111511438D01*
X145752833Y-111549640D01*
X145982344Y-111549640D01*
X145984931Y-111549640D01*
X146213863Y-111511438D01*
X146433385Y-111436076D01*
X146637508Y-111325610D01*
X146820666Y-111183053D01*
X146977861Y-111012293D01*
X147104806Y-110817989D01*
X147198039Y-110605440D01*
X147255016Y-110380445D01*
X147274182Y-110149140D01*
X147255016Y-109917835D01*
X147198039Y-109692840D01*
X147187487Y-109668785D01*
X147105846Y-109482662D01*
X147104806Y-109480291D01*
X146977861Y-109285987D01*
X146820666Y-109115227D01*
X146637508Y-108972670D01*
X146635243Y-108971444D01*
X146635235Y-108971439D01*
X146483633Y-108889397D01*
X146433385Y-108862204D01*
X146430942Y-108861365D01*
X146430939Y-108861364D01*
X146216305Y-108787680D01*
X146216301Y-108787679D01*
X146213863Y-108786842D01*
X146211321Y-108786417D01*
X146211314Y-108786416D01*
X145987480Y-108749065D01*
X145987475Y-108749064D01*
X145984931Y-108748640D01*
X145752833Y-108748640D01*
X145750289Y-108749064D01*
X145750283Y-108749065D01*
X145526449Y-108786416D01*
X145526439Y-108786418D01*
X145523901Y-108786842D01*
X145521465Y-108787678D01*
X145521458Y-108787680D01*
X145306824Y-108861364D01*
X145306817Y-108861366D01*
X145304379Y-108862204D01*
X145302104Y-108863434D01*
X145302102Y-108863436D01*
X145102528Y-108971439D01*
X145102515Y-108971447D01*
X145100256Y-108972670D01*
X145098216Y-108974257D01*
X145098214Y-108974259D01*
X144919142Y-109113635D01*
X144919134Y-109113642D01*
X144917098Y-109115227D01*
X144915346Y-109117129D01*
X144915345Y-109117131D01*
X144761651Y-109284087D01*
X144761645Y-109284094D01*
X144759903Y-109285987D01*
X144758493Y-109288145D01*
X144758490Y-109288149D01*
X144634375Y-109478121D01*
X144634371Y-109478127D01*
X144632958Y-109480291D01*
X144631922Y-109482652D01*
X144631917Y-109482662D01*
X144540763Y-109690471D01*
X144540758Y-109690482D01*
X144539725Y-109692840D01*
X144539090Y-109695345D01*
X144539089Y-109695350D01*
X144483384Y-109915321D01*
X144483382Y-109915328D01*
X144482748Y-109917835D01*
X144482534Y-109920408D01*
X144482534Y-109920413D01*
X144463795Y-110146569D01*
X144463582Y-110149140D01*
X137341418Y-110149140D01*
X137341418Y-100567359D01*
X144477999Y-100567359D01*
X144497165Y-100798664D01*
X144554142Y-101023659D01*
X144555177Y-101026019D01*
X144555180Y-101026027D01*
X144646334Y-101233836D01*
X144646336Y-101233841D01*
X144647375Y-101236208D01*
X144774320Y-101430512D01*
X144931515Y-101601272D01*
X145114673Y-101743829D01*
X145116940Y-101745056D01*
X145116945Y-101745059D01*
X145192289Y-101785833D01*
X145318796Y-101854295D01*
X145538318Y-101929657D01*
X145767250Y-101967859D01*
X145996761Y-101967859D01*
X145999348Y-101967859D01*
X146228280Y-101929657D01*
X146447802Y-101854295D01*
X146651925Y-101743829D01*
X146835083Y-101601272D01*
X146992278Y-101430512D01*
X147119223Y-101236208D01*
X147212456Y-101023659D01*
X147269433Y-100798664D01*
X147288599Y-100567359D01*
X147269433Y-100336054D01*
X147212456Y-100111059D01*
X147119223Y-99898510D01*
X146992278Y-99704206D01*
X146835083Y-99533446D01*
X146651925Y-99390889D01*
X146649660Y-99389663D01*
X146649652Y-99389658D01*
X146497784Y-99307472D01*
X146447802Y-99280423D01*
X146445359Y-99279584D01*
X146445356Y-99279583D01*
X146230722Y-99205899D01*
X146230718Y-99205898D01*
X146228280Y-99205061D01*
X146225738Y-99204636D01*
X146225731Y-99204635D01*
X146001897Y-99167284D01*
X146001892Y-99167283D01*
X145999348Y-99166859D01*
X145767250Y-99166859D01*
X145764706Y-99167283D01*
X145764700Y-99167284D01*
X145540866Y-99204635D01*
X145540856Y-99204637D01*
X145538318Y-99205061D01*
X145535882Y-99205897D01*
X145535875Y-99205899D01*
X145321241Y-99279583D01*
X145321234Y-99279585D01*
X145318796Y-99280423D01*
X145316521Y-99281653D01*
X145316519Y-99281655D01*
X145116945Y-99389658D01*
X145116932Y-99389666D01*
X145114673Y-99390889D01*
X145112633Y-99392476D01*
X145112631Y-99392478D01*
X144933559Y-99531854D01*
X144933551Y-99531861D01*
X144931515Y-99533446D01*
X144929763Y-99535348D01*
X144929762Y-99535350D01*
X144776068Y-99702306D01*
X144776062Y-99702313D01*
X144774320Y-99704206D01*
X144772910Y-99706364D01*
X144772907Y-99706368D01*
X144648792Y-99896340D01*
X144648788Y-99896346D01*
X144647375Y-99898510D01*
X144646339Y-99900871D01*
X144646334Y-99900881D01*
X144555180Y-100108690D01*
X144555175Y-100108701D01*
X144554142Y-100111059D01*
X144553507Y-100113564D01*
X144553506Y-100113569D01*
X144497801Y-100333540D01*
X144497799Y-100333547D01*
X144497165Y-100336054D01*
X144477999Y-100567359D01*
X137341418Y-100567359D01*
X137341418Y-91113138D01*
X144504399Y-91113138D01*
X144523565Y-91344443D01*
X144580542Y-91569438D01*
X144581577Y-91571798D01*
X144581580Y-91571806D01*
X144672734Y-91779615D01*
X144672736Y-91779620D01*
X144673775Y-91781987D01*
X144800720Y-91976291D01*
X144957915Y-92147051D01*
X145141073Y-92289608D01*
X145143340Y-92290835D01*
X145143345Y-92290838D01*
X145218689Y-92331612D01*
X145345196Y-92400074D01*
X145564718Y-92475436D01*
X145793650Y-92513638D01*
X146023161Y-92513638D01*
X146025748Y-92513638D01*
X146254680Y-92475436D01*
X146474202Y-92400074D01*
X146678325Y-92289608D01*
X146861483Y-92147051D01*
X147018678Y-91976291D01*
X147145623Y-91781987D01*
X147238856Y-91569438D01*
X147295833Y-91344443D01*
X147314999Y-91113138D01*
X147295833Y-90881833D01*
X147238856Y-90656838D01*
X147145623Y-90444289D01*
X147018678Y-90249985D01*
X146861483Y-90079225D01*
X146844130Y-90065719D01*
X146765512Y-90004528D01*
X146678325Y-89936668D01*
X146676060Y-89935442D01*
X146676052Y-89935437D01*
X146524450Y-89853395D01*
X146474202Y-89826202D01*
X146471759Y-89825363D01*
X146471756Y-89825362D01*
X146257122Y-89751678D01*
X146257118Y-89751677D01*
X146254680Y-89750840D01*
X146252138Y-89750415D01*
X146252131Y-89750414D01*
X146028297Y-89713063D01*
X146028292Y-89713062D01*
X146025748Y-89712638D01*
X145793650Y-89712638D01*
X145791106Y-89713062D01*
X145791100Y-89713063D01*
X145567266Y-89750414D01*
X145567256Y-89750416D01*
X145564718Y-89750840D01*
X145562282Y-89751676D01*
X145562275Y-89751678D01*
X145347641Y-89825362D01*
X145347634Y-89825364D01*
X145345196Y-89826202D01*
X145342921Y-89827432D01*
X145342919Y-89827434D01*
X145143345Y-89935437D01*
X145143332Y-89935445D01*
X145141073Y-89936668D01*
X145139033Y-89938255D01*
X145139031Y-89938257D01*
X144959959Y-90077633D01*
X144959951Y-90077640D01*
X144957915Y-90079225D01*
X144956163Y-90081127D01*
X144956162Y-90081129D01*
X144802468Y-90248085D01*
X144802462Y-90248092D01*
X144800720Y-90249985D01*
X144799310Y-90252143D01*
X144799307Y-90252147D01*
X144675192Y-90442119D01*
X144675188Y-90442125D01*
X144673775Y-90444289D01*
X144672739Y-90446650D01*
X144672734Y-90446660D01*
X144581580Y-90654469D01*
X144581575Y-90654480D01*
X144580542Y-90656838D01*
X144579907Y-90659343D01*
X144579906Y-90659348D01*
X144524201Y-90879319D01*
X144524199Y-90879326D01*
X144523565Y-90881833D01*
X144504399Y-91113138D01*
X137341418Y-91113138D01*
X137341418Y-83927154D01*
X137342619Y-83914960D01*
X137354217Y-83856656D01*
X137363549Y-83834126D01*
X137393092Y-83789912D01*
X137410332Y-83772672D01*
X137454547Y-83743128D01*
X137477075Y-83733797D01*
X137535381Y-83722199D01*
X137547574Y-83720999D01*
X148885261Y-83720999D01*
X148897454Y-83722200D01*
G37*
%TD.AperFunction*%
%TD*%
%TA.AperFunction,Conductor*%
%TO.N,VBUS*%
G36*
X120007633Y-72737568D02*
G01*
X120210707Y-72939293D01*
X120210762Y-72939348D01*
X120412431Y-73142366D01*
X120415586Y-73148236D01*
X120415025Y-73154876D01*
X120410930Y-73160133D01*
X119935222Y-73499924D01*
X119927457Y-73502063D01*
X119920149Y-73498676D01*
X119651323Y-73229850D01*
X119647936Y-73222542D01*
X119650074Y-73214778D01*
X119989868Y-72739066D01*
X119995123Y-72734974D01*
X120001763Y-72734413D01*
X120007633Y-72737568D01*
G37*
%TD.AperFunction*%
%TD*%
%TA.AperFunction,Conductor*%
%TO.N,VBUS*%
G36*
X108540626Y-81679959D02*
G01*
X108631014Y-81877971D01*
X108631884Y-81884908D01*
X108628643Y-81891103D01*
X108463356Y-82056394D01*
X108457161Y-82059635D01*
X108450224Y-82058765D01*
X108252209Y-81968376D01*
X108246190Y-81962039D01*
X108246239Y-81953302D01*
X108325520Y-81759662D01*
X108328074Y-81755824D01*
X108331912Y-81753270D01*
X108525552Y-81673989D01*
X108534289Y-81673940D01*
X108540626Y-81679959D01*
G37*
%TD.AperFunction*%
%TD*%
%TA.AperFunction,Conductor*%
%TO.N,VBUS*%
G36*
X108512686Y-81304041D02*
G01*
X108779876Y-81571231D01*
X108783298Y-81579179D01*
X108780322Y-81587306D01*
X108495392Y-81905757D01*
X108490134Y-81909131D01*
X108483888Y-81909319D01*
X108478438Y-81906265D01*
X108406402Y-81834867D01*
X108327414Y-81756577D01*
X108327340Y-81756503D01*
X108250079Y-81678553D01*
X108177651Y-81605478D01*
X108174598Y-81600029D01*
X108174786Y-81593783D01*
X108178158Y-81588526D01*
X108496612Y-81303594D01*
X108504738Y-81300619D01*
X108512686Y-81304041D01*
G37*
%TD.AperFunction*%
%TD*%
%TA.AperFunction,Conductor*%
%TO.N,VBUS*%
G36*
X118902947Y-77723219D02*
G01*
X118908101Y-77727516D01*
X118910046Y-77733937D01*
X118910999Y-78019987D01*
X118910999Y-78020065D01*
X118910045Y-78306400D01*
X118908152Y-78312742D01*
X118903120Y-78317042D01*
X118896560Y-78317924D01*
X118323237Y-78229407D01*
X118316191Y-78225518D01*
X118313323Y-78217999D01*
X118308302Y-77837852D01*
X118310978Y-77830249D01*
X118317934Y-77826182D01*
X118896282Y-77722460D01*
X118902947Y-77723219D01*
G37*
%TD.AperFunction*%
%TD*%
%TA.AperFunction,Conductor*%
%TO.N,VBUS*%
G36*
X108668962Y-84952554D02*
G01*
X108673073Y-84959102D01*
X108751689Y-85304307D01*
X108750686Y-85312256D01*
X108744803Y-85317696D01*
X108550522Y-85399105D01*
X108546000Y-85400014D01*
X108541478Y-85399105D01*
X108347196Y-85317696D01*
X108341313Y-85312256D01*
X108340310Y-85304309D01*
X108418927Y-84959101D01*
X108423038Y-84952554D01*
X108430335Y-84950000D01*
X108661665Y-84950000D01*
X108668962Y-84952554D01*
G37*
%TD.AperFunction*%
%TD*%
%TA.AperFunction,Conductor*%
%TO.N,/Data+*%
G36*
X119966932Y-77249981D02*
G01*
X119973147Y-77251779D01*
X119977457Y-77256607D01*
X119978541Y-77262987D01*
X119948613Y-77529452D01*
X119945259Y-77536419D01*
X119766419Y-77715259D01*
X119759452Y-77718613D01*
X119492987Y-77748541D01*
X119486607Y-77747457D01*
X119481779Y-77743147D01*
X119479981Y-77736932D01*
X119479309Y-77261023D01*
X119480874Y-77255164D01*
X119485164Y-77250874D01*
X119491023Y-77249309D01*
X119966932Y-77249981D01*
G37*
%TD.AperFunction*%
%TD*%
%TA.AperFunction,Conductor*%
%TO.N,/Data-*%
G36*
X122439796Y-76925868D02*
G01*
X122444083Y-76931090D01*
X122629127Y-77375503D01*
X122630026Y-77380000D01*
X122629127Y-77384497D01*
X122442346Y-77833082D01*
X122437045Y-77838912D01*
X122429250Y-77840058D01*
X121674542Y-77689085D01*
X121667789Y-77685029D01*
X121665137Y-77677612D01*
X121665137Y-77432405D01*
X121666540Y-77426849D01*
X121670414Y-77422626D01*
X122426862Y-76925806D01*
X122433337Y-76923887D01*
X122439796Y-76925868D01*
G37*
%TD.AperFunction*%
%TD*%
%TA.AperFunction,Conductor*%
%TO.N,Net-(JP1-B)*%
G36*
X119293866Y-101762264D02*
G01*
X119571801Y-101849429D01*
X119577730Y-101853667D01*
X119580000Y-101860593D01*
X119580000Y-102093407D01*
X119577730Y-102100333D01*
X119571801Y-102104571D01*
X119104987Y-102250970D01*
X119096550Y-102250414D01*
X119090691Y-102244318D01*
X118980883Y-101981507D01*
X118979980Y-101977000D01*
X118980883Y-101972492D01*
X119090692Y-101709679D01*
X119096550Y-101703585D01*
X119104986Y-101703029D01*
X119293866Y-101762264D01*
G37*
%TD.AperFunction*%
%TD*%
%TA.AperFunction,Conductor*%
%TO.N,Net-(JP1-B)*%
G36*
X121555707Y-101196248D02*
G01*
X121819184Y-101304436D01*
X121823013Y-101306986D01*
X121825563Y-101310815D01*
X121933751Y-101574292D01*
X121933919Y-101582746D01*
X121928346Y-101589106D01*
X121494740Y-101815673D01*
X121487551Y-101816868D01*
X121481049Y-101813576D01*
X121316423Y-101648950D01*
X121313131Y-101642448D01*
X121314325Y-101635263D01*
X121540894Y-101201651D01*
X121547253Y-101196080D01*
X121555707Y-101196248D01*
G37*
%TD.AperFunction*%
%TD*%
%TA.AperFunction,Conductor*%
%TO.N,/RXD*%
G36*
X122404518Y-83290893D02*
G01*
X122598803Y-83372303D01*
X122604686Y-83377743D01*
X122605689Y-83385692D01*
X122527073Y-83730898D01*
X122522962Y-83737446D01*
X122515665Y-83740000D01*
X122284335Y-83740000D01*
X122277038Y-83737446D01*
X122272927Y-83730898D01*
X122194310Y-83385690D01*
X122195313Y-83377743D01*
X122201194Y-83372304D01*
X122395481Y-83290893D01*
X122400000Y-83289985D01*
X122404518Y-83290893D01*
G37*
%TD.AperFunction*%
%TD*%
%TA.AperFunction,Conductor*%
%TO.N,/RXD*%
G36*
X122523227Y-83871433D02*
G01*
X122527433Y-83877549D01*
X122748061Y-84645635D01*
X122747360Y-84653936D01*
X122741313Y-84659666D01*
X122293496Y-84846127D01*
X122288999Y-84847026D01*
X122284502Y-84846127D01*
X121839280Y-84660746D01*
X121834198Y-84656663D01*
X121832090Y-84650494D01*
X121833609Y-84644157D01*
X122271634Y-83874988D01*
X122275921Y-83870664D01*
X122281801Y-83869079D01*
X122516188Y-83869079D01*
X122523227Y-83871433D01*
G37*
%TD.AperFunction*%
%TD*%
%TA.AperFunction,Conductor*%
%TO.N,/Cont 3*%
G36*
X128671591Y-71935771D02*
G01*
X128866169Y-72015435D01*
X128870009Y-72017990D01*
X128872564Y-72021830D01*
X128952228Y-72216408D01*
X128952470Y-72224630D01*
X128947240Y-72230979D01*
X128637355Y-72409502D01*
X128629982Y-72410963D01*
X128623242Y-72407637D01*
X128480362Y-72264757D01*
X128477036Y-72258017D01*
X128478496Y-72250647D01*
X128657022Y-71940757D01*
X128663369Y-71935529D01*
X128671591Y-71935771D01*
G37*
%TD.AperFunction*%
%TD*%
%TA.AperFunction,Conductor*%
%TO.N,/Cont 3*%
G36*
X125524129Y-85140094D02*
G01*
X125667015Y-85282980D01*
X125670385Y-85290101D01*
X125668477Y-85297744D01*
X125476182Y-85586140D01*
X125469872Y-85590837D01*
X125462014Y-85590477D01*
X125266830Y-85510564D01*
X125262990Y-85508009D01*
X125260435Y-85504169D01*
X125181054Y-85310284D01*
X125180952Y-85301676D01*
X125186765Y-85295329D01*
X125510741Y-85137843D01*
X125517795Y-85136829D01*
X125524129Y-85140094D01*
G37*
%TD.AperFunction*%
%TD*%
%TA.AperFunction,Conductor*%
%TO.N,/Cont 1*%
G36*
X129497359Y-77744425D02*
G01*
X129500919Y-77749579D01*
X129556577Y-77910278D01*
X129556924Y-77916729D01*
X129553794Y-77922380D01*
X129387379Y-78088795D01*
X129381728Y-78091925D01*
X129375277Y-78091578D01*
X129214579Y-78035919D01*
X129209425Y-78032359D01*
X129206845Y-78026651D01*
X129207579Y-78020433D01*
X129286436Y-77827828D01*
X129288990Y-77823990D01*
X129292828Y-77821436D01*
X129485433Y-77742579D01*
X129491651Y-77741845D01*
X129497359Y-77744425D01*
G37*
%TD.AperFunction*%
%TD*%
%TA.AperFunction,Conductor*%
%TO.N,/Cont 1*%
G36*
X128665410Y-80170015D02*
G01*
X128828984Y-80333589D01*
X128832338Y-80340555D01*
X128830615Y-80348092D01*
X128642108Y-80647779D01*
X128635777Y-80652690D01*
X128627771Y-80652377D01*
X128432830Y-80572564D01*
X128428990Y-80570009D01*
X128426435Y-80566169D01*
X128346622Y-80371228D01*
X128346309Y-80363222D01*
X128351220Y-80356891D01*
X128377770Y-80340191D01*
X128650908Y-80168383D01*
X128658444Y-80166661D01*
X128665410Y-80170015D01*
G37*
%TD.AperFunction*%
%TD*%
%TA.AperFunction,Conductor*%
%TO.N,/Cont 2*%
G36*
X128679591Y-74897771D02*
G01*
X128874169Y-74977435D01*
X128878009Y-74979990D01*
X128880564Y-74983830D01*
X128960228Y-75178408D01*
X128960470Y-75186630D01*
X128955240Y-75192979D01*
X128645355Y-75371502D01*
X128637982Y-75372963D01*
X128631242Y-75369637D01*
X128488362Y-75226757D01*
X128485036Y-75220017D01*
X128486496Y-75212647D01*
X128665022Y-74902757D01*
X128671369Y-74897529D01*
X128679591Y-74897771D01*
G37*
%TD.AperFunction*%
%TD*%
%TA.AperFunction,Conductor*%
%TO.N,/Cont 2*%
G36*
X125461899Y-87408900D02*
G01*
X125607099Y-87554100D01*
X125610229Y-87559752D01*
X125609881Y-87566204D01*
X125542921Y-87759423D01*
X125539361Y-87764576D01*
X125533653Y-87767155D01*
X125527433Y-87766420D01*
X125334830Y-87687564D01*
X125330990Y-87685009D01*
X125328435Y-87681169D01*
X125249579Y-87488566D01*
X125248844Y-87482346D01*
X125251423Y-87476638D01*
X125256572Y-87473080D01*
X125449795Y-87406117D01*
X125456247Y-87405770D01*
X125461899Y-87408900D01*
G37*
%TD.AperFunction*%
%TD*%
%TA.AperFunction,Conductor*%
%TO.N,/DeployV_SNS*%
G36*
X119694518Y-92640893D02*
G01*
X119888803Y-92722303D01*
X119894686Y-92727743D01*
X119895689Y-92735692D01*
X119817073Y-93080898D01*
X119812962Y-93087446D01*
X119805665Y-93090000D01*
X119574335Y-93090000D01*
X119567038Y-93087446D01*
X119562927Y-93080898D01*
X119484310Y-92735690D01*
X119485313Y-92727743D01*
X119491194Y-92722304D01*
X119685481Y-92640893D01*
X119690000Y-92639985D01*
X119694518Y-92640893D01*
G37*
%TD.AperFunction*%
%TD*%
%TA.AperFunction,Conductor*%
%TO.N,/DeployV_SNS*%
G36*
X123922962Y-106697554D02*
G01*
X123927073Y-106704102D01*
X124005689Y-107049307D01*
X124004686Y-107057256D01*
X123998803Y-107062696D01*
X123804522Y-107144105D01*
X123800000Y-107145014D01*
X123795478Y-107144105D01*
X123601196Y-107062696D01*
X123595313Y-107057256D01*
X123594310Y-107049309D01*
X123672927Y-106704101D01*
X123677038Y-106697554D01*
X123684335Y-106695000D01*
X123915665Y-106695000D01*
X123922962Y-106697554D01*
G37*
%TD.AperFunction*%
%TD*%
M02*
