%TF.GenerationSoftware,KiCad,Pcbnew,(7.0.0)*%
%TF.CreationDate,2023-03-30T21:36:19+01:00*%
%TF.ProjectId,flintandsteel,666c696e-7461-46e6-9473-7465656c2e6b,rev?*%
%TF.SameCoordinates,Original*%
%TF.FileFunction,Drillmap*%
%TF.FilePolarity,Positive*%
%FSLAX45Y45*%
G04 Gerber Fmt 4.5, Leading zero omitted, Abs format (unit mm)*
G04 Created by KiCad (PCBNEW (7.0.0)) date 2023-03-30 21:36:19*
%MOMM*%
%LPD*%
G01*
G04 APERTURE LIST*
%ADD10C,0.050000*%
%ADD11C,0.200000*%
%ADD12C,0.060000*%
G04 APERTURE END LIST*
D10*
X4499700Y-6720000D02*
G75*
G03*
X4193000Y-7026800I0J-306700D01*
G01*
X8293300Y-6720000D02*
X4499700Y-6720000D01*
X8593300Y-7020000D02*
X8593300Y-12720000D01*
X4193300Y-12713300D02*
X4193000Y-7026800D01*
X8293300Y-13020000D02*
G75*
G03*
X8593300Y-12720000I0J300000D01*
G01*
X4500000Y-13020000D02*
X8293300Y-13020000D01*
X4193300Y-12713300D02*
G75*
G03*
X4500000Y-13020000I306700J0D01*
G01*
X8593300Y-7020000D02*
G75*
G03*
X8293300Y-6720000I-300000J0D01*
G01*
D11*
D12*
X5394600Y-7321000D02*
X5454600Y-7381000D01*
X5454600Y-7321000D02*
X5394600Y-7381000D01*
X5972600Y-7321000D02*
X6032600Y-7381000D01*
X6032600Y-7321000D02*
X5972600Y-7381000D01*
D11*
X4438119Y-13315976D02*
X4438119Y-13115976D01*
X4438119Y-13115976D02*
X4485738Y-13115976D01*
X4485738Y-13115976D02*
X4514310Y-13125500D01*
X4514310Y-13125500D02*
X4533357Y-13144548D01*
X4533357Y-13144548D02*
X4542881Y-13163595D01*
X4542881Y-13163595D02*
X4552405Y-13201690D01*
X4552405Y-13201690D02*
X4552405Y-13230262D01*
X4552405Y-13230262D02*
X4542881Y-13268357D01*
X4542881Y-13268357D02*
X4533357Y-13287405D01*
X4533357Y-13287405D02*
X4514310Y-13306452D01*
X4514310Y-13306452D02*
X4485738Y-13315976D01*
X4485738Y-13315976D02*
X4438119Y-13315976D01*
X4638119Y-13315976D02*
X4638119Y-13182643D01*
X4638119Y-13220738D02*
X4647643Y-13201690D01*
X4647643Y-13201690D02*
X4657167Y-13192167D01*
X4657167Y-13192167D02*
X4676214Y-13182643D01*
X4676214Y-13182643D02*
X4695262Y-13182643D01*
X4761929Y-13315976D02*
X4761929Y-13182643D01*
X4761929Y-13115976D02*
X4752405Y-13125500D01*
X4752405Y-13125500D02*
X4761929Y-13135024D01*
X4761929Y-13135024D02*
X4771452Y-13125500D01*
X4771452Y-13125500D02*
X4761929Y-13115976D01*
X4761929Y-13115976D02*
X4761929Y-13135024D01*
X4885738Y-13315976D02*
X4866690Y-13306452D01*
X4866690Y-13306452D02*
X4857167Y-13287405D01*
X4857167Y-13287405D02*
X4857167Y-13115976D01*
X4990500Y-13315976D02*
X4971452Y-13306452D01*
X4971452Y-13306452D02*
X4961929Y-13287405D01*
X4961929Y-13287405D02*
X4961929Y-13115976D01*
X5186690Y-13315976D02*
X5186690Y-13115976D01*
X5186690Y-13115976D02*
X5253357Y-13258833D01*
X5253357Y-13258833D02*
X5320024Y-13115976D01*
X5320024Y-13115976D02*
X5320024Y-13315976D01*
X5500976Y-13315976D02*
X5500976Y-13211214D01*
X5500976Y-13211214D02*
X5491452Y-13192167D01*
X5491452Y-13192167D02*
X5472405Y-13182643D01*
X5472405Y-13182643D02*
X5434309Y-13182643D01*
X5434309Y-13182643D02*
X5415262Y-13192167D01*
X5500976Y-13306452D02*
X5481929Y-13315976D01*
X5481929Y-13315976D02*
X5434309Y-13315976D01*
X5434309Y-13315976D02*
X5415262Y-13306452D01*
X5415262Y-13306452D02*
X5405738Y-13287405D01*
X5405738Y-13287405D02*
X5405738Y-13268357D01*
X5405738Y-13268357D02*
X5415262Y-13249309D01*
X5415262Y-13249309D02*
X5434309Y-13239786D01*
X5434309Y-13239786D02*
X5481929Y-13239786D01*
X5481929Y-13239786D02*
X5500976Y-13230262D01*
X5596214Y-13182643D02*
X5596214Y-13382643D01*
X5596214Y-13192167D02*
X5615262Y-13182643D01*
X5615262Y-13182643D02*
X5653357Y-13182643D01*
X5653357Y-13182643D02*
X5672405Y-13192167D01*
X5672405Y-13192167D02*
X5681928Y-13201690D01*
X5681928Y-13201690D02*
X5691452Y-13220738D01*
X5691452Y-13220738D02*
X5691452Y-13277881D01*
X5691452Y-13277881D02*
X5681928Y-13296928D01*
X5681928Y-13296928D02*
X5672405Y-13306452D01*
X5672405Y-13306452D02*
X5653357Y-13315976D01*
X5653357Y-13315976D02*
X5615262Y-13315976D01*
X5615262Y-13315976D02*
X5596214Y-13306452D01*
X5777167Y-13296928D02*
X5786690Y-13306452D01*
X5786690Y-13306452D02*
X5777167Y-13315976D01*
X5777167Y-13315976D02*
X5767643Y-13306452D01*
X5767643Y-13306452D02*
X5777167Y-13296928D01*
X5777167Y-13296928D02*
X5777167Y-13315976D01*
X5777167Y-13192167D02*
X5786690Y-13201690D01*
X5786690Y-13201690D02*
X5777167Y-13211214D01*
X5777167Y-13211214D02*
X5767643Y-13201690D01*
X5767643Y-13201690D02*
X5777167Y-13192167D01*
X5777167Y-13192167D02*
X5777167Y-13211214D01*
D12*
X4130500Y-13632500D02*
X4190500Y-13692500D01*
X4190500Y-13632500D02*
X4130500Y-13692500D01*
D11*
X4476214Y-13535976D02*
X4495262Y-13535976D01*
X4495262Y-13535976D02*
X4514310Y-13545500D01*
X4514310Y-13545500D02*
X4523833Y-13555024D01*
X4523833Y-13555024D02*
X4533357Y-13574071D01*
X4533357Y-13574071D02*
X4542881Y-13612167D01*
X4542881Y-13612167D02*
X4542881Y-13659786D01*
X4542881Y-13659786D02*
X4533357Y-13697881D01*
X4533357Y-13697881D02*
X4523833Y-13716928D01*
X4523833Y-13716928D02*
X4514310Y-13726452D01*
X4514310Y-13726452D02*
X4495262Y-13735976D01*
X4495262Y-13735976D02*
X4476214Y-13735976D01*
X4476214Y-13735976D02*
X4457167Y-13726452D01*
X4457167Y-13726452D02*
X4447643Y-13716928D01*
X4447643Y-13716928D02*
X4438119Y-13697881D01*
X4438119Y-13697881D02*
X4428595Y-13659786D01*
X4428595Y-13659786D02*
X4428595Y-13612167D01*
X4428595Y-13612167D02*
X4438119Y-13574071D01*
X4438119Y-13574071D02*
X4447643Y-13555024D01*
X4447643Y-13555024D02*
X4457167Y-13545500D01*
X4457167Y-13545500D02*
X4476214Y-13535976D01*
X4628595Y-13716928D02*
X4638119Y-13726452D01*
X4638119Y-13726452D02*
X4628595Y-13735976D01*
X4628595Y-13735976D02*
X4619071Y-13726452D01*
X4619071Y-13726452D02*
X4628595Y-13716928D01*
X4628595Y-13716928D02*
X4628595Y-13735976D01*
X4809548Y-13535976D02*
X4771452Y-13535976D01*
X4771452Y-13535976D02*
X4752405Y-13545500D01*
X4752405Y-13545500D02*
X4742881Y-13555024D01*
X4742881Y-13555024D02*
X4723833Y-13583595D01*
X4723833Y-13583595D02*
X4714310Y-13621690D01*
X4714310Y-13621690D02*
X4714310Y-13697881D01*
X4714310Y-13697881D02*
X4723833Y-13716928D01*
X4723833Y-13716928D02*
X4733357Y-13726452D01*
X4733357Y-13726452D02*
X4752405Y-13735976D01*
X4752405Y-13735976D02*
X4790500Y-13735976D01*
X4790500Y-13735976D02*
X4809548Y-13726452D01*
X4809548Y-13726452D02*
X4819071Y-13716928D01*
X4819071Y-13716928D02*
X4828595Y-13697881D01*
X4828595Y-13697881D02*
X4828595Y-13650262D01*
X4828595Y-13650262D02*
X4819071Y-13631214D01*
X4819071Y-13631214D02*
X4809548Y-13621690D01*
X4809548Y-13621690D02*
X4790500Y-13612167D01*
X4790500Y-13612167D02*
X4752405Y-13612167D01*
X4752405Y-13612167D02*
X4733357Y-13621690D01*
X4733357Y-13621690D02*
X4723833Y-13631214D01*
X4723833Y-13631214D02*
X4714310Y-13650262D01*
X4952405Y-13535976D02*
X4971452Y-13535976D01*
X4971452Y-13535976D02*
X4990500Y-13545500D01*
X4990500Y-13545500D02*
X5000024Y-13555024D01*
X5000024Y-13555024D02*
X5009548Y-13574071D01*
X5009548Y-13574071D02*
X5019071Y-13612167D01*
X5019071Y-13612167D02*
X5019071Y-13659786D01*
X5019071Y-13659786D02*
X5009548Y-13697881D01*
X5009548Y-13697881D02*
X5000024Y-13716928D01*
X5000024Y-13716928D02*
X4990500Y-13726452D01*
X4990500Y-13726452D02*
X4971452Y-13735976D01*
X4971452Y-13735976D02*
X4952405Y-13735976D01*
X4952405Y-13735976D02*
X4933357Y-13726452D01*
X4933357Y-13726452D02*
X4923833Y-13716928D01*
X4923833Y-13716928D02*
X4914310Y-13697881D01*
X4914310Y-13697881D02*
X4904786Y-13659786D01*
X4904786Y-13659786D02*
X4904786Y-13612167D01*
X4904786Y-13612167D02*
X4914310Y-13574071D01*
X4914310Y-13574071D02*
X4923833Y-13555024D01*
X4923833Y-13555024D02*
X4933357Y-13545500D01*
X4933357Y-13545500D02*
X4952405Y-13535976D01*
X5142881Y-13535976D02*
X5161929Y-13535976D01*
X5161929Y-13535976D02*
X5180976Y-13545500D01*
X5180976Y-13545500D02*
X5190500Y-13555024D01*
X5190500Y-13555024D02*
X5200024Y-13574071D01*
X5200024Y-13574071D02*
X5209548Y-13612167D01*
X5209548Y-13612167D02*
X5209548Y-13659786D01*
X5209548Y-13659786D02*
X5200024Y-13697881D01*
X5200024Y-13697881D02*
X5190500Y-13716928D01*
X5190500Y-13716928D02*
X5180976Y-13726452D01*
X5180976Y-13726452D02*
X5161929Y-13735976D01*
X5161929Y-13735976D02*
X5142881Y-13735976D01*
X5142881Y-13735976D02*
X5123833Y-13726452D01*
X5123833Y-13726452D02*
X5114310Y-13716928D01*
X5114310Y-13716928D02*
X5104786Y-13697881D01*
X5104786Y-13697881D02*
X5095262Y-13659786D01*
X5095262Y-13659786D02*
X5095262Y-13612167D01*
X5095262Y-13612167D02*
X5104786Y-13574071D01*
X5104786Y-13574071D02*
X5114310Y-13555024D01*
X5114310Y-13555024D02*
X5123833Y-13545500D01*
X5123833Y-13545500D02*
X5142881Y-13535976D01*
X5295262Y-13735976D02*
X5295262Y-13602643D01*
X5295262Y-13621690D02*
X5304786Y-13612167D01*
X5304786Y-13612167D02*
X5323833Y-13602643D01*
X5323833Y-13602643D02*
X5352405Y-13602643D01*
X5352405Y-13602643D02*
X5371452Y-13612167D01*
X5371452Y-13612167D02*
X5380976Y-13631214D01*
X5380976Y-13631214D02*
X5380976Y-13735976D01*
X5380976Y-13631214D02*
X5390500Y-13612167D01*
X5390500Y-13612167D02*
X5409548Y-13602643D01*
X5409548Y-13602643D02*
X5438119Y-13602643D01*
X5438119Y-13602643D02*
X5457167Y-13612167D01*
X5457167Y-13612167D02*
X5466691Y-13631214D01*
X5466691Y-13631214D02*
X5466691Y-13735976D01*
X5561929Y-13735976D02*
X5561929Y-13602643D01*
X5561929Y-13621690D02*
X5571452Y-13612167D01*
X5571452Y-13612167D02*
X5590500Y-13602643D01*
X5590500Y-13602643D02*
X5619071Y-13602643D01*
X5619071Y-13602643D02*
X5638119Y-13612167D01*
X5638119Y-13612167D02*
X5647643Y-13631214D01*
X5647643Y-13631214D02*
X5647643Y-13735976D01*
X5647643Y-13631214D02*
X5657167Y-13612167D01*
X5657167Y-13612167D02*
X5676214Y-13602643D01*
X5676214Y-13602643D02*
X5704786Y-13602643D01*
X5704786Y-13602643D02*
X5723833Y-13612167D01*
X5723833Y-13612167D02*
X5733357Y-13631214D01*
X5733357Y-13631214D02*
X5733357Y-13735976D01*
X6091452Y-13526452D02*
X5920024Y-13783595D01*
X6316214Y-13535976D02*
X6335262Y-13535976D01*
X6335262Y-13535976D02*
X6354310Y-13545500D01*
X6354310Y-13545500D02*
X6363833Y-13555024D01*
X6363833Y-13555024D02*
X6373357Y-13574071D01*
X6373357Y-13574071D02*
X6382881Y-13612167D01*
X6382881Y-13612167D02*
X6382881Y-13659786D01*
X6382881Y-13659786D02*
X6373357Y-13697881D01*
X6373357Y-13697881D02*
X6363833Y-13716928D01*
X6363833Y-13716928D02*
X6354310Y-13726452D01*
X6354310Y-13726452D02*
X6335262Y-13735976D01*
X6335262Y-13735976D02*
X6316214Y-13735976D01*
X6316214Y-13735976D02*
X6297167Y-13726452D01*
X6297167Y-13726452D02*
X6287643Y-13716928D01*
X6287643Y-13716928D02*
X6278119Y-13697881D01*
X6278119Y-13697881D02*
X6268595Y-13659786D01*
X6268595Y-13659786D02*
X6268595Y-13612167D01*
X6268595Y-13612167D02*
X6278119Y-13574071D01*
X6278119Y-13574071D02*
X6287643Y-13555024D01*
X6287643Y-13555024D02*
X6297167Y-13545500D01*
X6297167Y-13545500D02*
X6316214Y-13535976D01*
X6468595Y-13716928D02*
X6478119Y-13726452D01*
X6478119Y-13726452D02*
X6468595Y-13735976D01*
X6468595Y-13735976D02*
X6459071Y-13726452D01*
X6459071Y-13726452D02*
X6468595Y-13716928D01*
X6468595Y-13716928D02*
X6468595Y-13735976D01*
X6601929Y-13535976D02*
X6620976Y-13535976D01*
X6620976Y-13535976D02*
X6640024Y-13545500D01*
X6640024Y-13545500D02*
X6649548Y-13555024D01*
X6649548Y-13555024D02*
X6659071Y-13574071D01*
X6659071Y-13574071D02*
X6668595Y-13612167D01*
X6668595Y-13612167D02*
X6668595Y-13659786D01*
X6668595Y-13659786D02*
X6659071Y-13697881D01*
X6659071Y-13697881D02*
X6649548Y-13716928D01*
X6649548Y-13716928D02*
X6640024Y-13726452D01*
X6640024Y-13726452D02*
X6620976Y-13735976D01*
X6620976Y-13735976D02*
X6601929Y-13735976D01*
X6601929Y-13735976D02*
X6582881Y-13726452D01*
X6582881Y-13726452D02*
X6573357Y-13716928D01*
X6573357Y-13716928D02*
X6563833Y-13697881D01*
X6563833Y-13697881D02*
X6554310Y-13659786D01*
X6554310Y-13659786D02*
X6554310Y-13612167D01*
X6554310Y-13612167D02*
X6563833Y-13574071D01*
X6563833Y-13574071D02*
X6573357Y-13555024D01*
X6573357Y-13555024D02*
X6582881Y-13545500D01*
X6582881Y-13545500D02*
X6601929Y-13535976D01*
X6744786Y-13555024D02*
X6754310Y-13545500D01*
X6754310Y-13545500D02*
X6773357Y-13535976D01*
X6773357Y-13535976D02*
X6820976Y-13535976D01*
X6820976Y-13535976D02*
X6840024Y-13545500D01*
X6840024Y-13545500D02*
X6849548Y-13555024D01*
X6849548Y-13555024D02*
X6859071Y-13574071D01*
X6859071Y-13574071D02*
X6859071Y-13593119D01*
X6859071Y-13593119D02*
X6849548Y-13621690D01*
X6849548Y-13621690D02*
X6735262Y-13735976D01*
X6735262Y-13735976D02*
X6859071Y-13735976D01*
X6925738Y-13535976D02*
X7049548Y-13535976D01*
X7049548Y-13535976D02*
X6982881Y-13612167D01*
X6982881Y-13612167D02*
X7011452Y-13612167D01*
X7011452Y-13612167D02*
X7030500Y-13621690D01*
X7030500Y-13621690D02*
X7040024Y-13631214D01*
X7040024Y-13631214D02*
X7049548Y-13650262D01*
X7049548Y-13650262D02*
X7049548Y-13697881D01*
X7049548Y-13697881D02*
X7040024Y-13716928D01*
X7040024Y-13716928D02*
X7030500Y-13726452D01*
X7030500Y-13726452D02*
X7011452Y-13735976D01*
X7011452Y-13735976D02*
X6954310Y-13735976D01*
X6954310Y-13735976D02*
X6935262Y-13726452D01*
X6935262Y-13726452D02*
X6925738Y-13716928D01*
X7220976Y-13535976D02*
X7182881Y-13535976D01*
X7182881Y-13535976D02*
X7163833Y-13545500D01*
X7163833Y-13545500D02*
X7154310Y-13555024D01*
X7154310Y-13555024D02*
X7135262Y-13583595D01*
X7135262Y-13583595D02*
X7125738Y-13621690D01*
X7125738Y-13621690D02*
X7125738Y-13697881D01*
X7125738Y-13697881D02*
X7135262Y-13716928D01*
X7135262Y-13716928D02*
X7144786Y-13726452D01*
X7144786Y-13726452D02*
X7163833Y-13735976D01*
X7163833Y-13735976D02*
X7201929Y-13735976D01*
X7201929Y-13735976D02*
X7220976Y-13726452D01*
X7220976Y-13726452D02*
X7230500Y-13716928D01*
X7230500Y-13716928D02*
X7240024Y-13697881D01*
X7240024Y-13697881D02*
X7240024Y-13650262D01*
X7240024Y-13650262D02*
X7230500Y-13631214D01*
X7230500Y-13631214D02*
X7220976Y-13621690D01*
X7220976Y-13621690D02*
X7201929Y-13612167D01*
X7201929Y-13612167D02*
X7163833Y-13612167D01*
X7163833Y-13612167D02*
X7144786Y-13621690D01*
X7144786Y-13621690D02*
X7135262Y-13631214D01*
X7135262Y-13631214D02*
X7125738Y-13650262D01*
X7316214Y-13535976D02*
X7316214Y-13574071D01*
X7392405Y-13535976D02*
X7392405Y-13574071D01*
X7655262Y-13812167D02*
X7645738Y-13802643D01*
X7645738Y-13802643D02*
X7626691Y-13774071D01*
X7626691Y-13774071D02*
X7617167Y-13755024D01*
X7617167Y-13755024D02*
X7607643Y-13726452D01*
X7607643Y-13726452D02*
X7598119Y-13678833D01*
X7598119Y-13678833D02*
X7598119Y-13640738D01*
X7598119Y-13640738D02*
X7607643Y-13593119D01*
X7607643Y-13593119D02*
X7617167Y-13564548D01*
X7617167Y-13564548D02*
X7626691Y-13545500D01*
X7626691Y-13545500D02*
X7645738Y-13516928D01*
X7645738Y-13516928D02*
X7655262Y-13507405D01*
X7721929Y-13555024D02*
X7731452Y-13545500D01*
X7731452Y-13545500D02*
X7750500Y-13535976D01*
X7750500Y-13535976D02*
X7798119Y-13535976D01*
X7798119Y-13535976D02*
X7817167Y-13545500D01*
X7817167Y-13545500D02*
X7826691Y-13555024D01*
X7826691Y-13555024D02*
X7836214Y-13574071D01*
X7836214Y-13574071D02*
X7836214Y-13593119D01*
X7836214Y-13593119D02*
X7826691Y-13621690D01*
X7826691Y-13621690D02*
X7712405Y-13735976D01*
X7712405Y-13735976D02*
X7836214Y-13735976D01*
X8041929Y-13735976D02*
X8041929Y-13535976D01*
X8127643Y-13735976D02*
X8127643Y-13631214D01*
X8127643Y-13631214D02*
X8118119Y-13612167D01*
X8118119Y-13612167D02*
X8099072Y-13602643D01*
X8099072Y-13602643D02*
X8070500Y-13602643D01*
X8070500Y-13602643D02*
X8051452Y-13612167D01*
X8051452Y-13612167D02*
X8041929Y-13621690D01*
X8251452Y-13735976D02*
X8232405Y-13726452D01*
X8232405Y-13726452D02*
X8222881Y-13716928D01*
X8222881Y-13716928D02*
X8213357Y-13697881D01*
X8213357Y-13697881D02*
X8213357Y-13640738D01*
X8213357Y-13640738D02*
X8222881Y-13621690D01*
X8222881Y-13621690D02*
X8232405Y-13612167D01*
X8232405Y-13612167D02*
X8251452Y-13602643D01*
X8251452Y-13602643D02*
X8280024Y-13602643D01*
X8280024Y-13602643D02*
X8299072Y-13612167D01*
X8299072Y-13612167D02*
X8308595Y-13621690D01*
X8308595Y-13621690D02*
X8318119Y-13640738D01*
X8318119Y-13640738D02*
X8318119Y-13697881D01*
X8318119Y-13697881D02*
X8308595Y-13716928D01*
X8308595Y-13716928D02*
X8299072Y-13726452D01*
X8299072Y-13726452D02*
X8280024Y-13735976D01*
X8280024Y-13735976D02*
X8251452Y-13735976D01*
X8432405Y-13735976D02*
X8413357Y-13726452D01*
X8413357Y-13726452D02*
X8403834Y-13707405D01*
X8403834Y-13707405D02*
X8403834Y-13535976D01*
X8584786Y-13726452D02*
X8565738Y-13735976D01*
X8565738Y-13735976D02*
X8527643Y-13735976D01*
X8527643Y-13735976D02*
X8508595Y-13726452D01*
X8508595Y-13726452D02*
X8499072Y-13707405D01*
X8499072Y-13707405D02*
X8499072Y-13631214D01*
X8499072Y-13631214D02*
X8508595Y-13612167D01*
X8508595Y-13612167D02*
X8527643Y-13602643D01*
X8527643Y-13602643D02*
X8565738Y-13602643D01*
X8565738Y-13602643D02*
X8584786Y-13612167D01*
X8584786Y-13612167D02*
X8594310Y-13631214D01*
X8594310Y-13631214D02*
X8594310Y-13650262D01*
X8594310Y-13650262D02*
X8499072Y-13669309D01*
X8670500Y-13726452D02*
X8689548Y-13735976D01*
X8689548Y-13735976D02*
X8727643Y-13735976D01*
X8727643Y-13735976D02*
X8746691Y-13726452D01*
X8746691Y-13726452D02*
X8756215Y-13707405D01*
X8756215Y-13707405D02*
X8756215Y-13697881D01*
X8756215Y-13697881D02*
X8746691Y-13678833D01*
X8746691Y-13678833D02*
X8727643Y-13669309D01*
X8727643Y-13669309D02*
X8699072Y-13669309D01*
X8699072Y-13669309D02*
X8680024Y-13659786D01*
X8680024Y-13659786D02*
X8670500Y-13640738D01*
X8670500Y-13640738D02*
X8670500Y-13631214D01*
X8670500Y-13631214D02*
X8680024Y-13612167D01*
X8680024Y-13612167D02*
X8699072Y-13602643D01*
X8699072Y-13602643D02*
X8727643Y-13602643D01*
X8727643Y-13602643D02*
X8746691Y-13612167D01*
X8822881Y-13812167D02*
X8832405Y-13802643D01*
X8832405Y-13802643D02*
X8851453Y-13774071D01*
X8851453Y-13774071D02*
X8860976Y-13755024D01*
X8860976Y-13755024D02*
X8870500Y-13726452D01*
X8870500Y-13726452D02*
X8880024Y-13678833D01*
X8880024Y-13678833D02*
X8880024Y-13640738D01*
X8880024Y-13640738D02*
X8870500Y-13593119D01*
X8870500Y-13593119D02*
X8860976Y-13564548D01*
X8860976Y-13564548D02*
X8851453Y-13545500D01*
X8851453Y-13545500D02*
X8832405Y-13516928D01*
X8832405Y-13516928D02*
X8822881Y-13507405D01*
X9152405Y-13812167D02*
X9142881Y-13802643D01*
X9142881Y-13802643D02*
X9123834Y-13774071D01*
X9123834Y-13774071D02*
X9114310Y-13755024D01*
X9114310Y-13755024D02*
X9104786Y-13726452D01*
X9104786Y-13726452D02*
X9095262Y-13678833D01*
X9095262Y-13678833D02*
X9095262Y-13640738D01*
X9095262Y-13640738D02*
X9104786Y-13593119D01*
X9104786Y-13593119D02*
X9114310Y-13564548D01*
X9114310Y-13564548D02*
X9123834Y-13545500D01*
X9123834Y-13545500D02*
X9142881Y-13516928D01*
X9142881Y-13516928D02*
X9152405Y-13507405D01*
X9228595Y-13602643D02*
X9228595Y-13735976D01*
X9228595Y-13621690D02*
X9238119Y-13612167D01*
X9238119Y-13612167D02*
X9257167Y-13602643D01*
X9257167Y-13602643D02*
X9285738Y-13602643D01*
X9285738Y-13602643D02*
X9304786Y-13612167D01*
X9304786Y-13612167D02*
X9314310Y-13631214D01*
X9314310Y-13631214D02*
X9314310Y-13735976D01*
X9438119Y-13735976D02*
X9419072Y-13726452D01*
X9419072Y-13726452D02*
X9409548Y-13716928D01*
X9409548Y-13716928D02*
X9400024Y-13697881D01*
X9400024Y-13697881D02*
X9400024Y-13640738D01*
X9400024Y-13640738D02*
X9409548Y-13621690D01*
X9409548Y-13621690D02*
X9419072Y-13612167D01*
X9419072Y-13612167D02*
X9438119Y-13602643D01*
X9438119Y-13602643D02*
X9466691Y-13602643D01*
X9466691Y-13602643D02*
X9485738Y-13612167D01*
X9485738Y-13612167D02*
X9495262Y-13621690D01*
X9495262Y-13621690D02*
X9504786Y-13640738D01*
X9504786Y-13640738D02*
X9504786Y-13697881D01*
X9504786Y-13697881D02*
X9495262Y-13716928D01*
X9495262Y-13716928D02*
X9485738Y-13726452D01*
X9485738Y-13726452D02*
X9466691Y-13735976D01*
X9466691Y-13735976D02*
X9438119Y-13735976D01*
X9561929Y-13602643D02*
X9638119Y-13602643D01*
X9590500Y-13535976D02*
X9590500Y-13707405D01*
X9590500Y-13707405D02*
X9600024Y-13726452D01*
X9600024Y-13726452D02*
X9619072Y-13735976D01*
X9619072Y-13735976D02*
X9638119Y-13735976D01*
X9824786Y-13602643D02*
X9824786Y-13802643D01*
X9824786Y-13612167D02*
X9843834Y-13602643D01*
X9843834Y-13602643D02*
X9881929Y-13602643D01*
X9881929Y-13602643D02*
X9900976Y-13612167D01*
X9900976Y-13612167D02*
X9910500Y-13621690D01*
X9910500Y-13621690D02*
X9920024Y-13640738D01*
X9920024Y-13640738D02*
X9920024Y-13697881D01*
X9920024Y-13697881D02*
X9910500Y-13716928D01*
X9910500Y-13716928D02*
X9900976Y-13726452D01*
X9900976Y-13726452D02*
X9881929Y-13735976D01*
X9881929Y-13735976D02*
X9843834Y-13735976D01*
X9843834Y-13735976D02*
X9824786Y-13726452D01*
X10034310Y-13735976D02*
X10015262Y-13726452D01*
X10015262Y-13726452D02*
X10005738Y-13707405D01*
X10005738Y-13707405D02*
X10005738Y-13535976D01*
X10196215Y-13735976D02*
X10196215Y-13631214D01*
X10196215Y-13631214D02*
X10186691Y-13612167D01*
X10186691Y-13612167D02*
X10167643Y-13602643D01*
X10167643Y-13602643D02*
X10129548Y-13602643D01*
X10129548Y-13602643D02*
X10110500Y-13612167D01*
X10196215Y-13726452D02*
X10177167Y-13735976D01*
X10177167Y-13735976D02*
X10129548Y-13735976D01*
X10129548Y-13735976D02*
X10110500Y-13726452D01*
X10110500Y-13726452D02*
X10100976Y-13707405D01*
X10100976Y-13707405D02*
X10100976Y-13688357D01*
X10100976Y-13688357D02*
X10110500Y-13669309D01*
X10110500Y-13669309D02*
X10129548Y-13659786D01*
X10129548Y-13659786D02*
X10177167Y-13659786D01*
X10177167Y-13659786D02*
X10196215Y-13650262D01*
X10262881Y-13602643D02*
X10339072Y-13602643D01*
X10291453Y-13535976D02*
X10291453Y-13707405D01*
X10291453Y-13707405D02*
X10300976Y-13726452D01*
X10300976Y-13726452D02*
X10320024Y-13735976D01*
X10320024Y-13735976D02*
X10339072Y-13735976D01*
X10481929Y-13726452D02*
X10462881Y-13735976D01*
X10462881Y-13735976D02*
X10424786Y-13735976D01*
X10424786Y-13735976D02*
X10405738Y-13726452D01*
X10405738Y-13726452D02*
X10396215Y-13707405D01*
X10396215Y-13707405D02*
X10396215Y-13631214D01*
X10396215Y-13631214D02*
X10405738Y-13612167D01*
X10405738Y-13612167D02*
X10424786Y-13602643D01*
X10424786Y-13602643D02*
X10462881Y-13602643D01*
X10462881Y-13602643D02*
X10481929Y-13612167D01*
X10481929Y-13612167D02*
X10491453Y-13631214D01*
X10491453Y-13631214D02*
X10491453Y-13650262D01*
X10491453Y-13650262D02*
X10396215Y-13669309D01*
X10662881Y-13735976D02*
X10662881Y-13535976D01*
X10662881Y-13726452D02*
X10643834Y-13735976D01*
X10643834Y-13735976D02*
X10605738Y-13735976D01*
X10605738Y-13735976D02*
X10586691Y-13726452D01*
X10586691Y-13726452D02*
X10577167Y-13716928D01*
X10577167Y-13716928D02*
X10567643Y-13697881D01*
X10567643Y-13697881D02*
X10567643Y-13640738D01*
X10567643Y-13640738D02*
X10577167Y-13621690D01*
X10577167Y-13621690D02*
X10586691Y-13612167D01*
X10586691Y-13612167D02*
X10605738Y-13602643D01*
X10605738Y-13602643D02*
X10643834Y-13602643D01*
X10643834Y-13602643D02*
X10662881Y-13612167D01*
X10739072Y-13812167D02*
X10748596Y-13802643D01*
X10748596Y-13802643D02*
X10767643Y-13774071D01*
X10767643Y-13774071D02*
X10777167Y-13755024D01*
X10777167Y-13755024D02*
X10786691Y-13726452D01*
X10786691Y-13726452D02*
X10796215Y-13678833D01*
X10796215Y-13678833D02*
X10796215Y-13640738D01*
X10796215Y-13640738D02*
X10786691Y-13593119D01*
X10786691Y-13593119D02*
X10777167Y-13564548D01*
X10777167Y-13564548D02*
X10767643Y-13545500D01*
X10767643Y-13545500D02*
X10748596Y-13516928D01*
X10748596Y-13516928D02*
X10739072Y-13507405D01*
M02*
