M48
; DRILL file {KiCad (7.0.0)} date Thu Mar 30 04:11:30 2023
; FORMAT={3:3/ absolute / metric / suppress trailing zeros}
; #@! TF.CreationDate,2023-03-30T04:11:30+01:00
; #@! TF.GenerationSoftware,Kicad,Pcbnew,(7.0.0)
; #@! TF.FileFunction,Plated,1,4,PTH
FMAT,2
METRIC,LZ
; #@! TA.AperFunction,Plated,PTH,ViaDrill
T1C0.300
; #@! TA.AperFunction,Plated,PTH,ViaDrill
T2C0.400
; #@! TA.AperFunction,Plated,PTH,ViaDrill
T3C0.500
; #@! TA.AperFunction,Plated,PTH,ComponentDrill
T4C0.600
; #@! TA.AperFunction,Plated,PTH,ComponentDrill
T5C1.000
; #@! TA.AperFunction,Plated,PTH,ComponentDrill
T6C1.200
; #@! TA.AperFunction,Plated,PTH,ComponentDrill
T7C1.800
; #@! TA.AperFunction,Plated,PTH,ComponentDrill
T8C3.200
%
G90
G05
T1
X042413Y-072365
X042413Y-074865
X042413Y-077365
X042413Y-079865
X042413Y-082365
X042413Y-084865
X042413Y-087365
X042413Y-089865
X042413Y-092365
X042413Y-094865
X042413Y-097365
X042413Y-099865
X042413Y-102365
X042413Y-104865
X042413Y-107365
X042413Y-109865
X042413Y-112365
X042413Y-114865
X042413Y-117365
X042413Y-119865
X042413Y-122365
X042413Y-124865
X043175Y-07728
X043904Y-07473
X043923Y-080791
X044258Y-081956
X044476Y-085571
X045016Y-082141
X046021Y-091853
X04611Y-081023
X047489Y-087525
X047493Y-086782
X047522Y-067748
X047522Y-129748
X047678Y-08122
X047717Y-084887
X048167Y-084887
X048644Y-087519
X048646Y-086766
X048657Y-084087
X049293Y-088825
X049677Y-084087
X049701Y-086774
X049702Y-087515
X049739Y-09271
X050022Y-067748
X050022Y-129748
X050147Y-084887
X050597Y-084887
X050852Y-087521
X050859Y-08677
X050918Y-090531
X051974Y-092635
X052033Y-075852
X052183Y-101399
X052231Y-080142
X052522Y-067748
X052522Y-129748
X05333Y-083936
X053421Y-095749
X054225Y-07699
X054414Y-099966
X054582Y-081962
X054583Y-081042
X05475Y-0756
X054772Y-080251
X054785Y-103065
X054893Y-097883
X05491Y-102177
X055022Y-067748
X055022Y-129748
X055163Y-082422
X055359Y-100003
X055394Y-07974
X055711Y-119328
X055719Y-121871
X055721Y-082603
X055726Y-124026
X055726Y-1264
X055726Y-12852
X055787Y-083191
X055807Y-080786
X055826Y-083754
X056139Y-116494
X05614Y-07314
X056254Y-079674
X056411Y-117865
X05662Y-07694
X05679Y-0867
X05681Y-08848
X05681Y-09023
X056888Y-093633
X057068Y-097863
X057106Y-079678
X05745Y-07693
X057522Y-067748
X057522Y-129748
X05761Y-083366
X05761Y-083951
X057611Y-082782
X057753Y-101507
X057854Y-093641
X057902Y-079679
X058263Y-115618
X058263Y-116268
X05827Y-08403
X058309Y-082781
X058313Y-114468
X05838Y-09308
X058505Y-081687
X05855Y-09023
X05856Y-0867
X05857Y-0885
X05882Y-07811
X058894Y-082788
X058922Y-079681
X059263Y-115618
X059263Y-116268
X05945Y-083916
X059506Y-110422
X059726Y-093922
X059731Y-082167
X059732Y-081234
X059736Y-080262
X05982Y-09105
X059889Y-095218
X059913Y-114468
X059994Y-083346
X060022Y-067748
X060022Y-129748
X060288Y-092844
X060289Y-115545
X0603Y-09023
X06031Y-08673
X06033Y-08849
X060501Y-10828
X060556Y-09104
X060593Y-110413
X060616Y-094431
X061193Y-085708
X061261Y-087885
X06158Y-09443
X061654Y-083925
X06201Y-08198
X062162Y-114827
X06223Y-0806
X062268Y-115415
X062347Y-096168
X062522Y-067748
X062522Y-129748
X06393Y-075182
X063963Y-072254
X064336Y-078228
X064359Y-08077
X0648Y-072218
X064808Y-07518
X065022Y-067748
X065022Y-129748
X065219Y-078024
X067522Y-067748
X067522Y-129748
X070022Y-067748
X070022Y-129748
X072522Y-067748
X072522Y-129748
X075022Y-067748
X075022Y-129748
X076794Y-076593
X076863Y-074124
X076885Y-071569
X077522Y-067748
X077522Y-129748
X07873Y-083561
X080022Y-067748
X080022Y-129748
X08545Y-072356
X08545Y-074856
X08545Y-077356
X08545Y-079856
X08545Y-082356
X08545Y-084856
X08545Y-087356
X08545Y-089856
X08545Y-092356
X08545Y-094856
X08545Y-097356
X08545Y-099856
X08545Y-102356
X08545Y-104856
X08545Y-107356
X08545Y-109856
X08545Y-112356
X08545Y-114856
X08545Y-117356
X08545Y-119856
X08545Y-122356
X08545Y-124856
T2
X047425Y-079351
X047455Y-076391
X047455Y-076391
X048595Y-076391
X048645Y-079351
X055852Y-109848
X06516Y-115828
X06525Y-10648
X065284Y-097058
X065307Y-087633
X06596Y-115828
X06605Y-10648
X066084Y-097058
X066107Y-087633
X06676Y-115828
X06685Y-10648
X066884Y-097058
X066907Y-087633
X067557Y-114193
X06756Y-115828
X06756Y-115028
X067647Y-104845
X06765Y-10648
X06765Y-10568
X067681Y-095423
X067684Y-097058
X067684Y-096258
X067704Y-085998
X067707Y-087633
X067707Y-086833
X067714Y-070277
T3
X044481Y-114335
X044511Y-121055
X045794Y-119731
X046151Y-113364
X046875Y-121151
X047867Y-112362
X048109Y-113972
X048199Y-119794
X04886Y-104703
X049174Y-121045
X050075Y-113463
X050404Y-119709
X051644Y-120949
X051759Y-114131
X052491Y-112794
X052756Y-119709
X054098Y-104722
X05418Y-109721
X054206Y-114315
X05422Y-112772
X054314Y-12132
X057194Y-113618
X068527Y-1212
X068527Y-1232
X068527Y-12515
X068527Y-12875
X068534Y-118006
X069677Y-1271
X069827Y-1197
X070737Y-100954
X070763Y-110378
X070765Y-114282
X070772Y-10484
X070778Y-085922
X070787Y-08204
X070797Y-091504
X070802Y-095385
X071077Y-12865
X071227Y-118
X072227Y-12745
X072377Y-1194
X073677Y-1287
X073677Y-1267
X073827Y-11975
X073877Y-118
X079471Y-12687
X083569Y-122313
T5
X043928Y-089784
X043929Y-093392
X046468Y-089784
X046469Y-093392
T6
X081799Y-110203
X081799Y-113703
X081813Y-100767
X081813Y-104267
X081813Y-081859
X081813Y-085359
X08184Y-091313
X08184Y-094813
T7
X044754Y-0985
X044754Y-1027
X044754Y-1069
X044754Y-1111
X050254Y-0985
X050254Y-1027
X050254Y-1069
X050254Y-1111
T8
X045Y-0702
X045Y-1272
X083Y-0702
X083067Y-1272
T4
G00X052816Y-06942
M15
G01X052816Y-07022
M16
G05
G00X052816Y-07344
M15
G01X052816Y-07454
M16
G05
G00X061456Y-06942
M15
G01X061456Y-07022
M16
G05
G00X061456Y-07344
M15
G01X061456Y-07454
M16
G05
T0
M30
