%TF.GenerationSoftware,KiCad,Pcbnew,(7.0.0)*%
%TF.CreationDate,2023-06-13T01:41:44+01:00*%
%TF.ProjectId,flintandsteel,666c696e-7461-46e6-9473-7465656c2e6b,rev?*%
%TF.SameCoordinates,Original*%
%TF.FileFunction,Drillmap*%
%TF.FilePolarity,Positive*%
%FSLAX45Y45*%
G04 Gerber Fmt 4.5, Leading zero omitted, Abs format (unit mm)*
G04 Created by KiCad (PCBNEW (7.0.0)) date 2023-06-13 01:41:44*
%MOMM*%
%LPD*%
G01*
G04 APERTURE LIST*
%ADD10C,0.050000*%
%ADD11C,0.200000*%
%ADD12C,0.030000*%
%ADD13C,0.032500*%
%ADD14C,0.035000*%
%ADD15C,0.040000*%
%ADD16C,0.060000*%
%ADD17C,0.100000*%
%ADD18C,0.120000*%
%ADD19C,0.180000*%
%ADD20C,0.320000*%
G04 APERTURE END LIST*
D10*
X10907000Y-12499830D02*
X14680000Y-12500000D01*
X10906700Y-6700000D02*
G75*
G03*
X10600000Y-7006800I0J-306700D01*
G01*
X14700300Y-6700000D02*
X10906700Y-6700000D01*
X15000000Y-12180000D02*
X15000300Y-7000000D01*
X10600300Y-12193130D02*
G75*
G03*
X10907000Y-12499830I306700J0D01*
G01*
X14680000Y-12500000D02*
G75*
G03*
X15000000Y-12180000I0J320000D01*
G01*
X15000300Y-7000000D02*
G75*
G03*
X14700300Y-6700000I-300000J0D01*
G01*
X10600000Y-7006800D02*
X10600300Y-12193130D01*
D11*
D12*
X10633300Y-7201500D02*
X10663300Y-7231500D01*
X10663300Y-7201500D02*
X10633300Y-7231500D01*
X10633300Y-7451500D02*
X10663300Y-7481500D01*
X10663300Y-7451500D02*
X10633300Y-7481500D01*
X10633300Y-7701500D02*
X10663300Y-7731500D01*
X10663300Y-7701500D02*
X10633300Y-7731500D01*
X10633300Y-7951500D02*
X10663300Y-7981500D01*
X10663300Y-7951500D02*
X10633300Y-7981500D01*
X10633300Y-8201500D02*
X10663300Y-8231500D01*
X10663300Y-8201500D02*
X10633300Y-8231500D01*
X10633300Y-8451500D02*
X10663300Y-8481500D01*
X10663300Y-8451500D02*
X10633300Y-8481500D01*
X10633300Y-8701500D02*
X10663300Y-8731500D01*
X10663300Y-8701500D02*
X10633300Y-8731500D01*
X10633300Y-8951500D02*
X10663300Y-8981500D01*
X10663300Y-8951500D02*
X10633300Y-8981500D01*
X10633300Y-9201500D02*
X10663300Y-9231500D01*
X10663300Y-9201500D02*
X10633300Y-9231500D01*
X10633300Y-9451500D02*
X10663300Y-9481500D01*
X10663300Y-9451500D02*
X10633300Y-9481500D01*
X10633300Y-9701500D02*
X10663300Y-9731500D01*
X10663300Y-9701500D02*
X10633300Y-9731500D01*
X10633300Y-9951500D02*
X10663300Y-9981500D01*
X10663300Y-9951500D02*
X10633300Y-9981500D01*
X10633300Y-10201500D02*
X10663300Y-10231500D01*
X10663300Y-10201500D02*
X10633300Y-10231500D01*
X10633300Y-10451500D02*
X10663300Y-10481500D01*
X10663300Y-10451500D02*
X10633300Y-10481500D01*
X10633300Y-10701500D02*
X10663300Y-10731500D01*
X10663300Y-10701500D02*
X10633300Y-10731500D01*
X10633300Y-10951500D02*
X10663300Y-10981500D01*
X10663300Y-10951500D02*
X10633300Y-10981500D01*
X10633300Y-11201500D02*
X10663300Y-11231500D01*
X10663300Y-11201500D02*
X10633300Y-11231500D01*
X10633300Y-11451500D02*
X10663300Y-11481500D01*
X10663300Y-11451500D02*
X10633300Y-11481500D01*
X10633300Y-11701500D02*
X10663300Y-11731500D01*
X10663300Y-11701500D02*
X10633300Y-11731500D01*
X10633300Y-11951500D02*
X10663300Y-11981500D01*
X10663300Y-11951500D02*
X10633300Y-11981500D01*
X10709500Y-7693000D02*
X10739500Y-7723000D01*
X10739500Y-7693000D02*
X10709500Y-7723000D01*
X10782400Y-7438000D02*
X10812400Y-7468000D01*
X10812400Y-7438000D02*
X10782400Y-7468000D01*
X10784300Y-8044100D02*
X10814300Y-8074100D01*
X10814300Y-8044100D02*
X10784300Y-8074100D01*
X10817808Y-8160583D02*
X10847808Y-8190583D01*
X10847808Y-8160583D02*
X10817808Y-8190583D01*
X10839600Y-8525000D02*
X10869600Y-8555000D01*
X10869600Y-8525000D02*
X10839600Y-8555000D01*
X10893600Y-8179100D02*
X10923600Y-8209100D01*
X10923600Y-8179100D02*
X10893600Y-8209100D01*
X10994100Y-9150300D02*
X11024100Y-9180300D01*
X11024100Y-9150300D02*
X10994100Y-9180300D01*
X11003000Y-8067300D02*
X11033000Y-8097300D01*
X11033000Y-8067300D02*
X11003000Y-8097300D01*
X11140900Y-8717500D02*
X11170900Y-8747500D01*
X11170900Y-8717500D02*
X11140900Y-8747500D01*
X11141300Y-8643200D02*
X11171300Y-8673200D01*
X11171300Y-8643200D02*
X11141300Y-8673200D01*
X11144000Y-6734000D02*
X11174000Y-6764000D01*
X11174000Y-6734000D02*
X11144000Y-6764000D01*
X11145000Y-12435000D02*
X11175000Y-12465000D01*
X11175000Y-12435000D02*
X11145000Y-12465000D01*
X11154000Y-8453700D02*
X11184000Y-8483700D01*
X11184000Y-8453700D02*
X11154000Y-8483700D01*
X11159800Y-8087000D02*
X11189800Y-8117000D01*
X11189800Y-8087000D02*
X11159800Y-8117000D01*
X11213000Y-8453700D02*
X11243000Y-8483700D01*
X11243000Y-8453700D02*
X11213000Y-8483700D01*
X11256400Y-8716900D02*
X11286400Y-8746900D01*
X11286400Y-8716900D02*
X11256400Y-8746900D01*
X11256600Y-8641600D02*
X11286600Y-8671600D01*
X11286600Y-8641600D02*
X11256600Y-8671600D01*
X11260000Y-8370000D02*
X11290000Y-8400000D01*
X11290000Y-8370000D02*
X11260000Y-8400000D01*
X11321300Y-8847500D02*
X11351300Y-8877500D01*
X11351300Y-8847500D02*
X11321300Y-8877500D01*
X11355000Y-8367500D02*
X11385000Y-8397500D01*
X11385000Y-8367500D02*
X11355000Y-8397500D01*
X11362100Y-8642400D02*
X11392100Y-8672400D01*
X11392100Y-8642400D02*
X11362100Y-8672400D01*
X11362200Y-8716500D02*
X11392200Y-8746500D01*
X11392200Y-8716500D02*
X11362200Y-8746500D01*
X11365900Y-9236000D02*
X11395900Y-9266000D01*
X11395900Y-9236000D02*
X11365900Y-9266000D01*
X11394000Y-6734000D02*
X11424000Y-6764000D01*
X11424000Y-6734000D02*
X11394000Y-6764000D01*
X11395000Y-12435000D02*
X11425000Y-12465000D01*
X11425000Y-12435000D02*
X11395000Y-12465000D01*
X11406700Y-8453700D02*
X11436700Y-8483700D01*
X11436700Y-8453700D02*
X11406700Y-8483700D01*
X11463000Y-8454000D02*
X11493000Y-8484000D01*
X11493000Y-8454000D02*
X11463000Y-8484000D01*
X11477200Y-8717100D02*
X11507200Y-8747100D01*
X11507200Y-8717100D02*
X11477200Y-8747100D01*
X11477900Y-8642000D02*
X11507900Y-8672000D01*
X11507900Y-8642000D02*
X11477900Y-8672000D01*
X11483800Y-9018100D02*
X11513800Y-9048100D01*
X11513800Y-9018100D02*
X11483800Y-9048100D01*
X11589400Y-9228500D02*
X11619400Y-9258500D01*
X11619400Y-9228500D02*
X11589400Y-9258500D01*
X11595282Y-7550249D02*
X11625282Y-7580249D01*
X11625282Y-7550249D02*
X11595282Y-7580249D01*
X11610300Y-10104900D02*
X11640300Y-10134900D01*
X11640300Y-10104900D02*
X11610300Y-10134900D01*
X11615100Y-7979200D02*
X11645100Y-8009200D01*
X11645100Y-7979200D02*
X11615100Y-8009200D01*
X11644000Y-6734000D02*
X11674000Y-6764000D01*
X11674000Y-6734000D02*
X11644000Y-6764000D01*
X11645000Y-12435000D02*
X11675000Y-12465000D01*
X11675000Y-12435000D02*
X11645000Y-12465000D01*
X11662000Y-8974000D02*
X11692000Y-9004000D01*
X11692000Y-8974000D02*
X11662000Y-9004000D01*
X11725000Y-8358600D02*
X11755000Y-8388600D01*
X11755000Y-8358600D02*
X11725000Y-8388600D01*
X11743000Y-9549000D02*
X11773000Y-9579000D01*
X11773000Y-9549000D02*
X11743000Y-9579000D01*
X11775000Y-7655000D02*
X11805000Y-7685000D01*
X11805000Y-7655000D02*
X11775000Y-7685000D01*
X11833400Y-9961600D02*
X11863400Y-9991600D01*
X11863400Y-9961600D02*
X11833400Y-9991600D01*
X11847500Y-8157500D02*
X11877500Y-8187500D01*
X11877500Y-8157500D02*
X11847500Y-8187500D01*
X11850300Y-8069200D02*
X11880300Y-8099200D01*
X11880300Y-8069200D02*
X11850300Y-8099200D01*
X11867000Y-7526000D02*
X11897000Y-7556000D01*
X11897000Y-7526000D02*
X11867000Y-7556000D01*
X11870500Y-10271500D02*
X11900500Y-10301500D01*
X11900500Y-10271500D02*
X11870500Y-10301500D01*
X11872000Y-7987000D02*
X11902000Y-8017000D01*
X11902000Y-7987000D02*
X11872000Y-8017000D01*
X11876000Y-7787000D02*
X11906000Y-7817000D01*
X11906000Y-7787000D02*
X11876000Y-7817000D01*
X11881300Y-9753300D02*
X11911300Y-9783300D01*
X11911300Y-9753300D02*
X11881300Y-9783300D01*
X11883000Y-10182700D02*
X11913000Y-10212700D01*
X11913000Y-10182700D02*
X11883000Y-10212700D01*
X11892500Y-8210000D02*
X11922500Y-8240000D01*
X11922500Y-8210000D02*
X11892500Y-8240000D01*
X11894000Y-6734000D02*
X11924000Y-6764000D01*
X11924000Y-6734000D02*
X11894000Y-6764000D01*
X11895000Y-12435000D02*
X11925000Y-12465000D01*
X11925000Y-12435000D02*
X11895000Y-12465000D01*
X11927900Y-9965300D02*
X11957900Y-9995300D01*
X11957900Y-9965300D02*
X11927900Y-9995300D01*
X11937000Y-7946000D02*
X11967000Y-7976000D01*
X11967000Y-7946000D02*
X11937000Y-7976000D01*
X11953000Y-8225000D02*
X11983000Y-8255000D01*
X11983000Y-8225000D02*
X11953000Y-8255000D01*
X11954000Y-9249000D02*
X11984000Y-9279000D01*
X11984000Y-9249000D02*
X11954000Y-9279000D01*
X11967500Y-8330000D02*
X11997500Y-8360000D01*
X11997500Y-8330000D02*
X11967500Y-8360000D01*
X11972700Y-8043600D02*
X12002700Y-8073600D01*
X12002700Y-8043600D02*
X11972700Y-8073600D01*
X12006000Y-7279000D02*
X12036000Y-7309000D01*
X12036000Y-7279000D02*
X12006000Y-7309000D01*
X12017400Y-7933000D02*
X12047400Y-7963000D01*
X12047400Y-7933000D02*
X12017400Y-7963000D01*
X12054000Y-7659000D02*
X12084000Y-7689000D01*
X12084000Y-7659000D02*
X12054000Y-7689000D01*
X12071000Y-8635000D02*
X12101000Y-8665000D01*
X12101000Y-8635000D02*
X12071000Y-8665000D01*
X12073000Y-8813000D02*
X12103000Y-8843000D01*
X12103000Y-8813000D02*
X12073000Y-8843000D01*
X12073000Y-8988000D02*
X12103000Y-9018000D01*
X12103000Y-8988000D02*
X12073000Y-9018000D01*
X12080800Y-9325000D02*
X12110800Y-9355000D01*
X12110800Y-9325000D02*
X12080800Y-9355000D01*
X12102600Y-7932800D02*
X12132600Y-7962800D01*
X12132600Y-7932800D02*
X12102600Y-7962800D01*
X12133000Y-7828000D02*
X12163000Y-7858000D01*
X12163000Y-7828000D02*
X12133000Y-7858000D01*
X12137000Y-7658000D02*
X12167000Y-7688000D01*
X12167000Y-7658000D02*
X12137000Y-7688000D01*
X12144000Y-6734000D02*
X12174000Y-6764000D01*
X12174000Y-6734000D02*
X12144000Y-6764000D01*
X12145000Y-12435000D02*
X12175000Y-12465000D01*
X12175000Y-12435000D02*
X12145000Y-12465000D01*
X12158000Y-8301500D02*
X12188000Y-8331500D01*
X12188000Y-8301500D02*
X12158000Y-8331500D01*
X12158000Y-8360000D02*
X12188000Y-8390000D01*
X12188000Y-8360000D02*
X12158000Y-8390000D01*
X12158100Y-8243100D02*
X12188100Y-8273100D01*
X12188100Y-8243100D02*
X12158100Y-8273100D01*
X12167300Y-10115700D02*
X12197300Y-10145700D01*
X12197300Y-10115700D02*
X12167300Y-10145700D01*
X12177400Y-9329100D02*
X12207400Y-9359100D01*
X12207400Y-9329100D02*
X12177400Y-9359100D01*
X12182200Y-7932900D02*
X12212200Y-7962900D01*
X12212200Y-7932900D02*
X12182200Y-7962900D01*
X12222900Y-8243100D02*
X12252900Y-8273100D01*
X12252900Y-8243100D02*
X12222900Y-8273100D01*
X12225000Y-8314000D02*
X12255000Y-8344000D01*
X12255000Y-8314000D02*
X12225000Y-8344000D01*
X12242500Y-8133700D02*
X12272500Y-8163700D01*
X12272500Y-8133700D02*
X12242500Y-8163700D01*
X12247000Y-8988000D02*
X12277000Y-9018000D01*
X12277000Y-8988000D02*
X12247000Y-9018000D01*
X12248000Y-8635000D02*
X12278000Y-8665000D01*
X12278000Y-8635000D02*
X12248000Y-8665000D01*
X12249000Y-8815000D02*
X12279000Y-8845000D01*
X12279000Y-8815000D02*
X12249000Y-8845000D01*
X12252000Y-9257000D02*
X12282000Y-9287000D01*
X12282000Y-9257000D02*
X12252000Y-9287000D01*
X12281400Y-8243800D02*
X12311400Y-8273800D01*
X12311400Y-8243800D02*
X12281400Y-8273800D01*
X12284200Y-7933100D02*
X12314200Y-7963100D01*
X12314200Y-7933100D02*
X12284200Y-7963100D01*
X12337000Y-8356600D02*
X12367000Y-8386600D01*
X12367000Y-8356600D02*
X12337000Y-8386600D01*
X12364600Y-9357200D02*
X12394600Y-9387200D01*
X12394600Y-9357200D02*
X12364600Y-9387200D01*
X12365000Y-10699500D02*
X12395000Y-10729500D01*
X12395000Y-10699500D02*
X12365000Y-10729500D01*
X12365100Y-8181700D02*
X12395100Y-8211700D01*
X12395100Y-8181700D02*
X12365100Y-8211700D01*
X12365200Y-8088400D02*
X12395200Y-8118400D01*
X12395200Y-8088400D02*
X12365200Y-8118400D01*
X12365600Y-7991200D02*
X12395600Y-8021200D01*
X12395600Y-7991200D02*
X12365600Y-8021200D01*
X12374000Y-9070000D02*
X12404000Y-9100000D01*
X12404000Y-9070000D02*
X12374000Y-9100000D01*
X12377000Y-9521000D02*
X12407000Y-9551000D01*
X12407000Y-9521000D02*
X12377000Y-9551000D01*
X12394000Y-6734000D02*
X12424000Y-6764000D01*
X12424000Y-6734000D02*
X12394000Y-6764000D01*
X12395000Y-12435000D02*
X12425000Y-12465000D01*
X12425000Y-12435000D02*
X12395000Y-12465000D01*
X12402000Y-8961000D02*
X12432000Y-8991000D01*
X12432000Y-8961000D02*
X12402000Y-8991000D01*
X12420800Y-9249400D02*
X12450800Y-9279400D01*
X12450800Y-9249400D02*
X12420800Y-9279400D01*
X12423000Y-8638000D02*
X12453000Y-8668000D01*
X12453000Y-8638000D02*
X12423000Y-8668000D01*
X12425000Y-8814000D02*
X12455000Y-8844000D01*
X12455000Y-8814000D02*
X12425000Y-8844000D01*
X12432000Y-8287000D02*
X12462000Y-8317000D01*
X12462000Y-8287000D02*
X12432000Y-8317000D01*
X12450000Y-9069000D02*
X12480000Y-9099000D01*
X12480000Y-9069000D02*
X12450000Y-9099000D01*
X12453584Y-9408121D02*
X12483584Y-9438121D01*
X12483584Y-9408121D02*
X12453584Y-9438121D01*
X12511300Y-8535800D02*
X12541300Y-8565800D01*
X12541300Y-8535800D02*
X12511300Y-8565800D01*
X12518100Y-8753500D02*
X12548100Y-8783500D01*
X12548100Y-8753500D02*
X12518100Y-8783500D01*
X12550000Y-9408000D02*
X12580000Y-9438000D01*
X12580000Y-9408000D02*
X12550000Y-9438000D01*
X12557400Y-8357500D02*
X12587400Y-8387500D01*
X12587400Y-8357500D02*
X12557400Y-8387500D01*
X12593000Y-8163000D02*
X12623000Y-8193000D01*
X12623000Y-8163000D02*
X12593000Y-8193000D01*
X12610000Y-8024000D02*
X12640000Y-8054000D01*
X12640000Y-8024000D02*
X12610000Y-8054000D01*
X12626700Y-9581800D02*
X12656700Y-9611800D01*
X12656700Y-9581800D02*
X12626700Y-9611800D01*
X12644000Y-6734000D02*
X12674000Y-6764000D01*
X12674000Y-6734000D02*
X12644000Y-6764000D01*
X12645000Y-12435000D02*
X12675000Y-12465000D01*
X12675000Y-12435000D02*
X12645000Y-12465000D01*
X12785000Y-7483200D02*
X12815000Y-7513200D01*
X12815000Y-7483200D02*
X12785000Y-7513200D01*
X12788300Y-7190400D02*
X12818300Y-7220400D01*
X12818300Y-7190400D02*
X12788300Y-7220400D01*
X12825600Y-7787800D02*
X12855600Y-7817800D01*
X12855600Y-7787800D02*
X12825600Y-7817800D01*
X12827900Y-8042000D02*
X12857900Y-8072000D01*
X12857900Y-8042000D02*
X12827900Y-8072000D01*
X12872000Y-7186800D02*
X12902000Y-7216800D01*
X12902000Y-7186800D02*
X12872000Y-7216800D01*
X12872800Y-7483000D02*
X12902800Y-7513000D01*
X12902800Y-7483000D02*
X12872800Y-7513000D01*
X12894000Y-6734000D02*
X12924000Y-6764000D01*
X12924000Y-6734000D02*
X12894000Y-6764000D01*
X12895000Y-12435000D02*
X12925000Y-12465000D01*
X12925000Y-12435000D02*
X12895000Y-12465000D01*
X12913900Y-7767400D02*
X12943900Y-7797400D01*
X12943900Y-7767400D02*
X12913900Y-7797400D01*
X13144000Y-6734000D02*
X13174000Y-6764000D01*
X13174000Y-6734000D02*
X13144000Y-6764000D01*
X13145000Y-12435000D02*
X13175000Y-12465000D01*
X13175000Y-12435000D02*
X13145000Y-12465000D01*
X13394000Y-6734000D02*
X13424000Y-6764000D01*
X13424000Y-6734000D02*
X13394000Y-6764000D01*
X13395000Y-12435000D02*
X13425000Y-12465000D01*
X13425000Y-12435000D02*
X13395000Y-12465000D01*
X13644000Y-6734000D02*
X13674000Y-6764000D01*
X13674000Y-6734000D02*
X13644000Y-6764000D01*
X13645000Y-12435000D02*
X13675000Y-12465000D01*
X13675000Y-12435000D02*
X13645000Y-12465000D01*
X13894000Y-6734000D02*
X13924000Y-6764000D01*
X13924000Y-6734000D02*
X13894000Y-6764000D01*
X13895000Y-12435000D02*
X13925000Y-12465000D01*
X13925000Y-12435000D02*
X13895000Y-12465000D01*
X14071400Y-7624300D02*
X14101400Y-7654300D01*
X14101400Y-7624300D02*
X14071400Y-7654300D01*
X14075000Y-7142000D02*
X14105000Y-7172000D01*
X14105000Y-7142000D02*
X14075000Y-7172000D01*
X14078300Y-7377400D02*
X14108300Y-7407400D01*
X14108300Y-7377400D02*
X14078300Y-7407400D01*
X14144000Y-6734000D02*
X14174000Y-6764000D01*
X14174000Y-6734000D02*
X14144000Y-6764000D01*
X14145000Y-12435000D02*
X14175000Y-12465000D01*
X14175000Y-12435000D02*
X14145000Y-12465000D01*
X14394000Y-6734000D02*
X14424000Y-6764000D01*
X14424000Y-6734000D02*
X14394000Y-6764000D01*
X14395000Y-12435000D02*
X14425000Y-12465000D01*
X14425000Y-12435000D02*
X14395000Y-12465000D01*
X14745000Y-12422500D02*
X14775000Y-12452500D01*
X14775000Y-12422500D02*
X14745000Y-12452500D01*
X14936708Y-12162479D02*
X14966708Y-12192479D01*
X14966708Y-12162479D02*
X14936708Y-12192479D01*
X14937000Y-7200600D02*
X14967000Y-7230600D01*
X14967000Y-7200600D02*
X14937000Y-7230600D01*
X14937000Y-7450600D02*
X14967000Y-7480600D01*
X14967000Y-7450600D02*
X14937000Y-7480600D01*
X14937000Y-7700600D02*
X14967000Y-7730600D01*
X14967000Y-7700600D02*
X14937000Y-7730600D01*
X14937000Y-7950600D02*
X14967000Y-7980600D01*
X14967000Y-7950600D02*
X14937000Y-7980600D01*
X14937000Y-8200600D02*
X14967000Y-8230600D01*
X14967000Y-8200600D02*
X14937000Y-8230600D01*
X14937000Y-8450600D02*
X14967000Y-8480600D01*
X14967000Y-8450600D02*
X14937000Y-8480600D01*
X14937000Y-8700600D02*
X14967000Y-8730600D01*
X14967000Y-8700600D02*
X14937000Y-8730600D01*
X14937000Y-8950600D02*
X14967000Y-8980600D01*
X14967000Y-8950600D02*
X14937000Y-8980600D01*
X14937000Y-9200600D02*
X14967000Y-9230600D01*
X14967000Y-9200600D02*
X14937000Y-9230600D01*
X14937000Y-9450600D02*
X14967000Y-9480600D01*
X14967000Y-9450600D02*
X14937000Y-9480600D01*
X14937000Y-9700600D02*
X14967000Y-9730600D01*
X14967000Y-9700600D02*
X14937000Y-9730600D01*
X14937000Y-9950600D02*
X14967000Y-9980600D01*
X14967000Y-9950600D02*
X14937000Y-9980600D01*
X14937000Y-10200600D02*
X14967000Y-10230600D01*
X14967000Y-10200600D02*
X14937000Y-10230600D01*
X14937000Y-10450600D02*
X14967000Y-10480600D01*
X14967000Y-10450600D02*
X14937000Y-10480600D01*
X14937000Y-10700600D02*
X14967000Y-10730600D01*
X14967000Y-10700600D02*
X14937000Y-10730600D01*
X14937000Y-10965191D02*
X14967000Y-10995191D01*
X14967000Y-10965191D02*
X14937000Y-10995191D01*
X14937000Y-11215191D02*
X14967000Y-11245191D01*
X14967000Y-11215191D02*
X14937000Y-11245191D01*
X14937000Y-11465191D02*
X14967000Y-11495191D01*
X14967000Y-11465191D02*
X14937000Y-11495191D01*
X14937000Y-11700600D02*
X14967000Y-11730600D01*
X14967000Y-11700600D02*
X14937000Y-11730600D01*
X14937000Y-11950600D02*
X14967000Y-11980600D01*
X14967000Y-11950600D02*
X14937000Y-11980600D01*
D13*
X11306250Y-10880000D02*
G75*
G03*
X11306250Y-10880000I-16250J0D01*
G01*
X11616250Y-10880000D02*
G75*
G03*
X11616250Y-10880000I-16250J0D01*
G01*
D14*
X12880000Y-10490000D02*
X12880000Y-10525000D01*
X12862500Y-10507500D02*
X12897500Y-10507500D01*
D15*
X11163642Y-7929242D02*
X11163642Y-7900958D01*
X11135358Y-7900958D01*
X11135358Y-7929242D01*
X11163642Y-7929242D01*
X11166643Y-7633242D02*
X11166643Y-7604958D01*
X11138358Y-7604958D01*
X11138358Y-7633242D01*
X11166643Y-7633242D01*
X11166643Y-7633242D02*
X11166643Y-7604958D01*
X11138358Y-7604958D01*
X11138358Y-7633242D01*
X11166643Y-7633242D01*
X11280642Y-7633242D02*
X11280642Y-7604958D01*
X11252358Y-7604958D01*
X11252358Y-7633242D01*
X11280642Y-7633242D01*
X11285642Y-7929242D02*
X11285642Y-7900958D01*
X11257358Y-7900958D01*
X11257358Y-7929242D01*
X11285642Y-7929242D01*
X12006342Y-10978942D02*
X12006342Y-10950658D01*
X11978058Y-10950658D01*
X11978058Y-10978942D01*
X12006342Y-10978942D01*
X13192565Y-7021830D02*
X13192565Y-6993546D01*
X13164281Y-6993546D01*
X13164281Y-7021830D01*
X13192565Y-7021830D01*
D10*
X11290000Y-11345000D02*
X11315000Y-11320000D01*
X11290000Y-11295000D01*
X11265000Y-11320000D01*
X11290000Y-11345000D01*
X11610000Y-11345000D02*
X11635000Y-11320000D01*
X11610000Y-11295000D01*
X11585000Y-11320000D01*
X11610000Y-11345000D01*
X11740000Y-10725000D02*
X11765000Y-10700000D01*
X11740000Y-10675000D01*
X11715000Y-10700000D01*
X11740000Y-10725000D01*
X11740000Y-11015000D02*
X11765000Y-10990000D01*
X11740000Y-10965000D01*
X11715000Y-10990000D01*
X11740000Y-11015000D01*
X11870000Y-10855000D02*
X11895000Y-10830000D01*
X11870000Y-10805000D01*
X11845000Y-10830000D01*
X11870000Y-10855000D01*
X11870000Y-11145000D02*
X11895000Y-11120000D01*
X11870000Y-11095000D01*
X11845000Y-11120000D01*
X11870000Y-11145000D01*
X11870000Y-11345000D02*
X11895000Y-11320000D01*
X11870000Y-11295000D01*
X11845000Y-11320000D01*
X11870000Y-11345000D01*
X11871000Y-10600000D02*
X11896000Y-10575000D01*
X11871000Y-10550000D01*
X11846000Y-10575000D01*
X11871000Y-10600000D01*
X12850000Y-11575000D02*
X12875000Y-11550000D01*
X12850000Y-11525000D01*
X12825000Y-11550000D01*
X12850000Y-11575000D01*
X12852500Y-8650000D02*
X12877500Y-8625000D01*
X12852500Y-8600000D01*
X12827500Y-8625000D01*
X12852500Y-8650000D01*
X12862500Y-11380000D02*
X12887500Y-11355000D01*
X12862500Y-11330000D01*
X12837500Y-11355000D01*
X12862500Y-11380000D01*
X12947500Y-8777500D02*
X12972500Y-8752500D01*
X12947500Y-8727500D01*
X12922500Y-8752500D01*
X12947500Y-8777500D01*
X12950000Y-9722500D02*
X12975000Y-9697500D01*
X12950000Y-9672500D01*
X12925000Y-9697500D01*
X12950000Y-9722500D01*
X13020000Y-10667500D02*
X13045000Y-10642500D01*
X13020000Y-10617500D01*
X12995000Y-10642500D01*
X13020000Y-10667500D01*
X13090000Y-8777500D02*
X13115000Y-8752500D01*
X13090000Y-8727500D01*
X13065000Y-8752500D01*
X13090000Y-8777500D01*
X13092500Y-9722500D02*
X13117500Y-9697500D01*
X13092500Y-9672500D01*
X13067500Y-9697500D01*
X13092500Y-9722500D01*
X13170000Y-10440000D02*
X13195000Y-10415000D01*
X13170000Y-10390000D01*
X13145000Y-10415000D01*
X13170000Y-10440000D01*
X13170000Y-11400000D02*
X13195000Y-11375000D01*
X13170000Y-11350000D01*
X13145000Y-11375000D01*
X13170000Y-11400000D01*
X13172500Y-8550000D02*
X13197500Y-8525000D01*
X13172500Y-8500000D01*
X13147500Y-8525000D01*
X13172500Y-8550000D01*
X13175000Y-9495000D02*
X13200000Y-9470000D01*
X13175000Y-9445000D01*
X13150000Y-9470000D01*
X13175000Y-9495000D01*
X13205000Y-10145000D02*
X13230000Y-10120000D01*
X13205000Y-10095000D01*
X13180000Y-10120000D01*
X13205000Y-10145000D01*
X13205000Y-10587500D02*
X13230000Y-10562500D01*
X13205000Y-10537500D01*
X13180000Y-10562500D01*
X13205000Y-10587500D01*
X13205000Y-11105000D02*
X13230000Y-11080000D01*
X13205000Y-11055000D01*
X13180000Y-11080000D01*
X13205000Y-11105000D01*
X13205000Y-11547500D02*
X13230000Y-11522500D01*
X13205000Y-11497500D01*
X13180000Y-11522500D01*
X13205000Y-11547500D01*
X13207500Y-8255000D02*
X13232500Y-8230000D01*
X13207500Y-8205000D01*
X13182500Y-8230000D01*
X13207500Y-8255000D01*
X13207500Y-8697500D02*
X13232500Y-8672500D01*
X13207500Y-8647500D01*
X13182500Y-8672500D01*
X13207500Y-8697500D01*
X13210000Y-9200000D02*
X13235000Y-9175000D01*
X13210000Y-9150000D01*
X13185000Y-9175000D01*
X13210000Y-9200000D01*
X13210000Y-9642500D02*
X13235000Y-9617500D01*
X13210000Y-9592500D01*
X13185000Y-9617500D01*
X13210000Y-9642500D01*
X13210000Y-9995000D02*
X13235000Y-9970000D01*
X13210000Y-9945000D01*
X13185000Y-9970000D01*
X13210000Y-9995000D01*
X13210000Y-10955000D02*
X13235000Y-10930000D01*
X13210000Y-10905000D01*
X13185000Y-10930000D01*
X13210000Y-10955000D01*
X13212500Y-8105000D02*
X13237500Y-8080000D01*
X13212500Y-8055000D01*
X13187500Y-8080000D01*
X13212500Y-8105000D01*
X13215000Y-9050000D02*
X13240000Y-9025000D01*
X13215000Y-9000000D01*
X13190000Y-9025000D01*
X13215000Y-9050000D01*
X13312500Y-10445000D02*
X13337500Y-10420000D01*
X13312500Y-10395000D01*
X13287500Y-10420000D01*
X13312500Y-10445000D01*
X13312500Y-11405000D02*
X13337500Y-11380000D01*
X13312500Y-11355000D01*
X13287500Y-11380000D01*
X13312500Y-11405000D01*
X13315000Y-8555000D02*
X13340000Y-8530000D01*
X13315000Y-8505000D01*
X13290000Y-8530000D01*
X13315000Y-8555000D01*
X13317500Y-9500000D02*
X13342500Y-9475000D01*
X13317500Y-9450000D01*
X13292500Y-9475000D01*
X13317500Y-9500000D01*
X13340000Y-10072500D02*
X13365000Y-10047500D01*
X13340000Y-10022500D01*
X13315000Y-10047500D01*
X13340000Y-10072500D01*
X13340000Y-11032500D02*
X13365000Y-11007500D01*
X13340000Y-10982500D01*
X13315000Y-11007500D01*
X13340000Y-11032500D01*
X13342500Y-8182500D02*
X13367500Y-8157500D01*
X13342500Y-8132500D01*
X13317500Y-8157500D01*
X13342500Y-8182500D01*
X13345000Y-9127500D02*
X13370000Y-9102500D01*
X13345000Y-9077500D01*
X13320000Y-9102500D01*
X13345000Y-9127500D01*
X13400000Y-10580000D02*
X13425000Y-10555000D01*
X13400000Y-10530000D01*
X13375000Y-10555000D01*
X13400000Y-10580000D01*
X13400000Y-11540000D02*
X13425000Y-11515000D01*
X13400000Y-11490000D01*
X13375000Y-11515000D01*
X13400000Y-11540000D01*
X13402500Y-8690000D02*
X13427500Y-8665000D01*
X13402500Y-8640000D01*
X13377500Y-8665000D01*
X13402500Y-8690000D01*
X13405000Y-9635000D02*
X13430000Y-9610000D01*
X13405000Y-9585000D01*
X13380000Y-9610000D01*
X13405000Y-9635000D01*
X13470000Y-9985000D02*
X13495000Y-9960000D01*
X13470000Y-9935000D01*
X13445000Y-9960000D01*
X13470000Y-9985000D01*
X13470000Y-10945000D02*
X13495000Y-10920000D01*
X13470000Y-10895000D01*
X13445000Y-10920000D01*
X13470000Y-10945000D01*
X13472500Y-8095000D02*
X13497500Y-8070000D01*
X13472500Y-8045000D01*
X13447500Y-8070000D01*
X13472500Y-8095000D01*
X13475000Y-9040000D02*
X13500000Y-9015000D01*
X13475000Y-8990000D01*
X13450000Y-9015000D01*
X13475000Y-9040000D01*
X13475000Y-10147500D02*
X13500000Y-10122500D01*
X13475000Y-10097500D01*
X13450000Y-10122500D01*
X13475000Y-10147500D01*
X13475000Y-10442500D02*
X13500000Y-10417500D01*
X13475000Y-10392500D01*
X13450000Y-10417500D01*
X13475000Y-10442500D01*
X13475000Y-11107500D02*
X13500000Y-11082500D01*
X13475000Y-11057500D01*
X13450000Y-11082500D01*
X13475000Y-11107500D01*
X13475000Y-11402500D02*
X13500000Y-11377500D01*
X13475000Y-11352500D01*
X13450000Y-11377500D01*
X13475000Y-11402500D01*
X13477500Y-8257500D02*
X13502500Y-8232500D01*
X13477500Y-8207500D01*
X13452500Y-8232500D01*
X13477500Y-8257500D01*
X13477500Y-8552500D02*
X13502500Y-8527500D01*
X13477500Y-8502500D01*
X13452500Y-8527500D01*
X13477500Y-8552500D01*
X13480000Y-9202500D02*
X13505000Y-9177500D01*
X13480000Y-9152500D01*
X13455000Y-9177500D01*
X13480000Y-9202500D01*
X13480000Y-9497500D02*
X13505000Y-9472500D01*
X13480000Y-9447500D01*
X13455000Y-9472500D01*
X13480000Y-9497500D01*
X14020000Y-11705000D02*
X14045000Y-11680000D01*
X14020000Y-11655000D01*
X13995000Y-11680000D01*
X14020000Y-11705000D01*
X14210000Y-11605000D02*
X14235000Y-11580000D01*
X14210000Y-11555000D01*
X14185000Y-11580000D01*
X14210000Y-11605000D01*
X14347500Y-11300000D02*
X14372500Y-11275000D01*
X14347500Y-11250000D01*
X14322500Y-11275000D01*
X14347500Y-11300000D01*
X14350000Y-11519591D02*
X14375000Y-11494591D01*
X14350000Y-11469591D01*
X14325000Y-11494591D01*
X14350000Y-11519591D01*
X14350000Y-11715000D02*
X14375000Y-11690000D01*
X14350000Y-11665000D01*
X14325000Y-11690000D01*
X14350000Y-11715000D01*
X14480000Y-11615000D02*
X14505000Y-11590000D01*
X14480000Y-11565000D01*
X14455000Y-11590000D01*
X14480000Y-11615000D01*
X14700000Y-11615000D02*
X14725000Y-11590000D01*
X14700000Y-11565000D01*
X14675000Y-11590000D01*
X14700000Y-11615000D01*
X14820000Y-11499591D02*
X14845000Y-11474591D01*
X14820000Y-11449591D01*
X14795000Y-11474591D01*
X14820000Y-11499591D01*
X14840000Y-11299591D02*
X14865000Y-11274591D01*
X14840000Y-11249591D01*
X14815000Y-11274591D01*
X14840000Y-11299591D01*
X14860000Y-11715000D02*
X14885000Y-11690000D01*
X14860000Y-11665000D01*
X14835000Y-11690000D01*
X14860000Y-11715000D01*
D16*
X11658600Y-6932000D02*
X11718600Y-6992000D01*
X11718600Y-6932000D02*
X11658600Y-6992000D01*
X11718600Y-6962000D02*
G75*
G03*
X11718600Y-6962000I-30000J0D01*
G01*
D11*
X11658600Y-6922000D02*
X11658600Y-7002000D01*
X11658600Y-7002000D02*
G75*
G03*
X11718600Y-7002000I30000J0D01*
G01*
X11718600Y-7002000D02*
X11718600Y-6922000D01*
X11718600Y-6922000D02*
G75*
G03*
X11658600Y-6922000I-30000J0D01*
G01*
D16*
X11658600Y-7349000D02*
X11718600Y-7409000D01*
X11718600Y-7349000D02*
X11658600Y-7409000D01*
X11718600Y-7379000D02*
G75*
G03*
X11718600Y-7379000I-30000J0D01*
G01*
D11*
X11658600Y-7324000D02*
X11658600Y-7434000D01*
X11658600Y-7434000D02*
G75*
G03*
X11718600Y-7434000I30000J0D01*
G01*
X11718600Y-7434000D02*
X11718600Y-7324000D01*
X11718600Y-7324000D02*
G75*
G03*
X11658600Y-7324000I-30000J0D01*
G01*
D16*
X12522600Y-6932000D02*
X12582600Y-6992000D01*
X12582600Y-6932000D02*
X12522600Y-6992000D01*
X12582600Y-6962000D02*
G75*
G03*
X12582600Y-6962000I-30000J0D01*
G01*
D11*
X12522600Y-6922000D02*
X12522600Y-7002000D01*
X12522600Y-7002000D02*
G75*
G03*
X12582600Y-7002000I30000J0D01*
G01*
X12582600Y-7002000D02*
X12582600Y-6922000D01*
X12582600Y-6922000D02*
G75*
G03*
X12522600Y-6922000I-30000J0D01*
G01*
D16*
X12522600Y-7349000D02*
X12582600Y-7409000D01*
X12582600Y-7349000D02*
X12522600Y-7409000D01*
X12582600Y-7379000D02*
G75*
G03*
X12582600Y-7379000I-30000J0D01*
G01*
D11*
X12522600Y-7324000D02*
X12522600Y-7434000D01*
X12522600Y-7434000D02*
G75*
G03*
X12582600Y-7434000I30000J0D01*
G01*
X12582600Y-7434000D02*
X12582600Y-7324000D01*
X12582600Y-7324000D02*
G75*
G03*
X12522600Y-7324000I-30000J0D01*
G01*
D17*
X10749800Y-8908400D02*
X10849800Y-9008400D01*
X10849800Y-8908400D02*
X10749800Y-9008400D01*
X10799800Y-8908400D02*
X10799800Y-9008400D01*
X10749800Y-8958400D02*
X10849800Y-8958400D01*
X10749900Y-9269200D02*
X10849900Y-9369200D01*
X10849900Y-9269200D02*
X10749900Y-9369200D01*
X10799900Y-9269200D02*
X10799900Y-9369200D01*
X10749900Y-9319200D02*
X10849900Y-9319200D01*
X11003800Y-8908400D02*
X11103800Y-9008400D01*
X11103800Y-8908400D02*
X11003800Y-9008400D01*
X11053800Y-8908400D02*
X11053800Y-9008400D01*
X11003800Y-8958400D02*
X11103800Y-8958400D01*
X11003900Y-9269200D02*
X11103900Y-9369200D01*
X11103900Y-9269200D02*
X11003900Y-9369200D01*
X11053900Y-9269200D02*
X11053900Y-9369200D01*
X11003900Y-9319200D02*
X11103900Y-9319200D01*
D18*
X14526888Y-10954914D02*
X14646888Y-11074914D01*
X14646888Y-10954914D02*
X14526888Y-11074914D01*
X14629315Y-11057341D02*
X14629315Y-10972487D01*
X14544461Y-10972487D01*
X14544461Y-11057341D01*
X14629315Y-11057341D01*
X14526888Y-11304914D02*
X14646888Y-11424914D01*
X14646888Y-11304914D02*
X14526888Y-11424914D01*
X14629315Y-11407341D02*
X14629315Y-11322487D01*
X14544461Y-11322487D01*
X14544461Y-11407341D01*
X14629315Y-11407341D01*
X14528330Y-9996736D02*
X14648330Y-10116736D01*
X14648330Y-9996736D02*
X14528330Y-10116736D01*
X14630757Y-10099163D02*
X14630757Y-10014309D01*
X14545903Y-10014309D01*
X14545903Y-10099163D01*
X14630757Y-10099163D01*
X14528330Y-10346736D02*
X14648330Y-10466736D01*
X14648330Y-10346736D02*
X14528330Y-10466736D01*
X14630757Y-10449163D02*
X14630757Y-10364309D01*
X14545903Y-10364309D01*
X14545903Y-10449163D01*
X14630757Y-10449163D01*
X14528339Y-8105914D02*
X14648339Y-8225914D01*
X14648339Y-8105914D02*
X14528339Y-8225914D01*
X14630766Y-8208340D02*
X14630766Y-8123487D01*
X14545912Y-8123487D01*
X14545912Y-8208340D01*
X14630766Y-8208340D01*
X14528339Y-8455914D02*
X14648339Y-8575914D01*
X14648339Y-8455914D02*
X14528339Y-8575914D01*
X14630766Y-8558340D02*
X14630766Y-8473487D01*
X14545912Y-8473487D01*
X14545912Y-8558340D01*
X14630766Y-8558340D01*
X14530970Y-9051314D02*
X14650970Y-9171314D01*
X14650970Y-9051314D02*
X14530970Y-9171314D01*
X14633397Y-9153741D02*
X14633397Y-9068887D01*
X14548543Y-9068887D01*
X14548543Y-9153741D01*
X14633397Y-9153741D01*
X14530970Y-9401314D02*
X14650970Y-9521314D01*
X14650970Y-9401314D02*
X14530970Y-9521314D01*
X14633397Y-9503741D02*
X14633397Y-9418887D01*
X14548543Y-9418887D01*
X14548543Y-9503741D01*
X14633397Y-9503741D01*
D19*
X10792410Y-9740000D02*
X10972410Y-9920000D01*
X10972410Y-9740000D02*
X10792410Y-9920000D01*
X10882410Y-9920000D02*
X10972410Y-9830000D01*
X10882410Y-9740000D01*
X10792410Y-9830000D01*
X10882410Y-9920000D01*
X10792410Y-10160000D02*
X10972410Y-10340000D01*
X10972410Y-10160000D02*
X10792410Y-10340000D01*
X10882410Y-10340000D02*
X10972410Y-10250000D01*
X10882410Y-10160000D01*
X10792410Y-10250000D01*
X10882410Y-10340000D01*
X10792410Y-10580000D02*
X10972410Y-10760000D01*
X10972410Y-10580000D02*
X10792410Y-10760000D01*
X10882410Y-10760000D02*
X10972410Y-10670000D01*
X10882410Y-10580000D01*
X10792410Y-10670000D01*
X10882410Y-10760000D01*
X10792410Y-11000000D02*
X10972410Y-11180000D01*
X10972410Y-11000000D02*
X10792410Y-11180000D01*
X10882410Y-11180000D02*
X10972410Y-11090000D01*
X10882410Y-11000000D01*
X10792410Y-11090000D01*
X10882410Y-11180000D01*
X11342410Y-9740000D02*
X11522410Y-9920000D01*
X11522410Y-9740000D02*
X11342410Y-9920000D01*
X11432410Y-9920000D02*
X11522410Y-9830000D01*
X11432410Y-9740000D01*
X11342410Y-9830000D01*
X11432410Y-9920000D01*
X11342410Y-10160000D02*
X11522410Y-10340000D01*
X11522410Y-10160000D02*
X11342410Y-10340000D01*
X11432410Y-10340000D02*
X11522410Y-10250000D01*
X11432410Y-10160000D01*
X11342410Y-10250000D01*
X11432410Y-10340000D01*
X11342410Y-10580000D02*
X11522410Y-10760000D01*
X11522410Y-10580000D02*
X11342410Y-10760000D01*
X11432410Y-10760000D02*
X11522410Y-10670000D01*
X11432410Y-10580000D01*
X11342410Y-10670000D01*
X11432410Y-10760000D01*
X11342410Y-11000000D02*
X11522410Y-11180000D01*
X11522410Y-11000000D02*
X11342410Y-11180000D01*
X11432410Y-11180000D02*
X11522410Y-11090000D01*
X11432410Y-11000000D01*
X11342410Y-11090000D01*
X11432410Y-11180000D01*
D20*
X10920000Y-6860000D02*
X10920000Y-7180000D01*
X10760000Y-7020000D02*
X11080000Y-7020000D01*
X11080000Y-7020000D02*
G75*
G03*
X11080000Y-7020000I-160000J0D01*
G01*
X10920000Y-12020000D02*
X10920000Y-12340000D01*
X10760000Y-12180000D02*
X11080000Y-12180000D01*
X11080000Y-12180000D02*
G75*
G03*
X11080000Y-12180000I-160000J0D01*
G01*
X14680000Y-6860000D02*
X14680000Y-7180000D01*
X14520000Y-7020000D02*
X14840000Y-7020000D01*
X14840000Y-7020000D02*
G75*
G03*
X14840000Y-7020000I-160000J0D01*
G01*
D11*
X10845119Y-12795976D02*
X10845119Y-12595976D01*
X10845119Y-12595976D02*
X10892738Y-12595976D01*
X10892738Y-12595976D02*
X10921310Y-12605500D01*
X10921310Y-12605500D02*
X10940357Y-12624548D01*
X10940357Y-12624548D02*
X10949881Y-12643595D01*
X10949881Y-12643595D02*
X10959405Y-12681690D01*
X10959405Y-12681690D02*
X10959405Y-12710262D01*
X10959405Y-12710262D02*
X10949881Y-12748357D01*
X10949881Y-12748357D02*
X10940357Y-12767405D01*
X10940357Y-12767405D02*
X10921310Y-12786452D01*
X10921310Y-12786452D02*
X10892738Y-12795976D01*
X10892738Y-12795976D02*
X10845119Y-12795976D01*
X11045119Y-12795976D02*
X11045119Y-12662643D01*
X11045119Y-12700738D02*
X11054643Y-12681690D01*
X11054643Y-12681690D02*
X11064167Y-12672167D01*
X11064167Y-12672167D02*
X11083214Y-12662643D01*
X11083214Y-12662643D02*
X11102262Y-12662643D01*
X11168929Y-12795976D02*
X11168929Y-12662643D01*
X11168929Y-12595976D02*
X11159405Y-12605500D01*
X11159405Y-12605500D02*
X11168929Y-12615024D01*
X11168929Y-12615024D02*
X11178452Y-12605500D01*
X11178452Y-12605500D02*
X11168929Y-12595976D01*
X11168929Y-12595976D02*
X11168929Y-12615024D01*
X11292738Y-12795976D02*
X11273690Y-12786452D01*
X11273690Y-12786452D02*
X11264167Y-12767405D01*
X11264167Y-12767405D02*
X11264167Y-12595976D01*
X11397500Y-12795976D02*
X11378452Y-12786452D01*
X11378452Y-12786452D02*
X11368928Y-12767405D01*
X11368928Y-12767405D02*
X11368928Y-12595976D01*
X11593690Y-12795976D02*
X11593690Y-12595976D01*
X11593690Y-12595976D02*
X11660357Y-12738833D01*
X11660357Y-12738833D02*
X11727024Y-12595976D01*
X11727024Y-12595976D02*
X11727024Y-12795976D01*
X11907976Y-12795976D02*
X11907976Y-12691214D01*
X11907976Y-12691214D02*
X11898452Y-12672167D01*
X11898452Y-12672167D02*
X11879405Y-12662643D01*
X11879405Y-12662643D02*
X11841309Y-12662643D01*
X11841309Y-12662643D02*
X11822262Y-12672167D01*
X11907976Y-12786452D02*
X11888928Y-12795976D01*
X11888928Y-12795976D02*
X11841309Y-12795976D01*
X11841309Y-12795976D02*
X11822262Y-12786452D01*
X11822262Y-12786452D02*
X11812738Y-12767405D01*
X11812738Y-12767405D02*
X11812738Y-12748357D01*
X11812738Y-12748357D02*
X11822262Y-12729309D01*
X11822262Y-12729309D02*
X11841309Y-12719786D01*
X11841309Y-12719786D02*
X11888928Y-12719786D01*
X11888928Y-12719786D02*
X11907976Y-12710262D01*
X12003214Y-12662643D02*
X12003214Y-12862643D01*
X12003214Y-12672167D02*
X12022262Y-12662643D01*
X12022262Y-12662643D02*
X12060357Y-12662643D01*
X12060357Y-12662643D02*
X12079405Y-12672167D01*
X12079405Y-12672167D02*
X12088928Y-12681690D01*
X12088928Y-12681690D02*
X12098452Y-12700738D01*
X12098452Y-12700738D02*
X12098452Y-12757881D01*
X12098452Y-12757881D02*
X12088928Y-12776928D01*
X12088928Y-12776928D02*
X12079405Y-12786452D01*
X12079405Y-12786452D02*
X12060357Y-12795976D01*
X12060357Y-12795976D02*
X12022262Y-12795976D01*
X12022262Y-12795976D02*
X12003214Y-12786452D01*
X12184167Y-12776928D02*
X12193690Y-12786452D01*
X12193690Y-12786452D02*
X12184167Y-12795976D01*
X12184167Y-12795976D02*
X12174643Y-12786452D01*
X12174643Y-12786452D02*
X12184167Y-12776928D01*
X12184167Y-12776928D02*
X12184167Y-12795976D01*
X12184167Y-12672167D02*
X12193690Y-12681690D01*
X12193690Y-12681690D02*
X12184167Y-12691214D01*
X12184167Y-12691214D02*
X12174643Y-12681690D01*
X12174643Y-12681690D02*
X12184167Y-12672167D01*
X12184167Y-12672167D02*
X12184167Y-12691214D01*
D12*
X10567500Y-13127500D02*
X10597500Y-13157500D01*
X10597500Y-13127500D02*
X10567500Y-13157500D01*
D11*
X10883214Y-13015976D02*
X10902262Y-13015976D01*
X10902262Y-13015976D02*
X10921310Y-13025500D01*
X10921310Y-13025500D02*
X10930833Y-13035024D01*
X10930833Y-13035024D02*
X10940357Y-13054071D01*
X10940357Y-13054071D02*
X10949881Y-13092167D01*
X10949881Y-13092167D02*
X10949881Y-13139786D01*
X10949881Y-13139786D02*
X10940357Y-13177881D01*
X10940357Y-13177881D02*
X10930833Y-13196928D01*
X10930833Y-13196928D02*
X10921310Y-13206452D01*
X10921310Y-13206452D02*
X10902262Y-13215976D01*
X10902262Y-13215976D02*
X10883214Y-13215976D01*
X10883214Y-13215976D02*
X10864167Y-13206452D01*
X10864167Y-13206452D02*
X10854643Y-13196928D01*
X10854643Y-13196928D02*
X10845119Y-13177881D01*
X10845119Y-13177881D02*
X10835595Y-13139786D01*
X10835595Y-13139786D02*
X10835595Y-13092167D01*
X10835595Y-13092167D02*
X10845119Y-13054071D01*
X10845119Y-13054071D02*
X10854643Y-13035024D01*
X10854643Y-13035024D02*
X10864167Y-13025500D01*
X10864167Y-13025500D02*
X10883214Y-13015976D01*
X11035595Y-13196928D02*
X11045119Y-13206452D01*
X11045119Y-13206452D02*
X11035595Y-13215976D01*
X11035595Y-13215976D02*
X11026071Y-13206452D01*
X11026071Y-13206452D02*
X11035595Y-13196928D01*
X11035595Y-13196928D02*
X11035595Y-13215976D01*
X11111786Y-13015976D02*
X11235595Y-13015976D01*
X11235595Y-13015976D02*
X11168929Y-13092167D01*
X11168929Y-13092167D02*
X11197500Y-13092167D01*
X11197500Y-13092167D02*
X11216548Y-13101690D01*
X11216548Y-13101690D02*
X11226071Y-13111214D01*
X11226071Y-13111214D02*
X11235595Y-13130262D01*
X11235595Y-13130262D02*
X11235595Y-13177881D01*
X11235595Y-13177881D02*
X11226071Y-13196928D01*
X11226071Y-13196928D02*
X11216548Y-13206452D01*
X11216548Y-13206452D02*
X11197500Y-13215976D01*
X11197500Y-13215976D02*
X11140357Y-13215976D01*
X11140357Y-13215976D02*
X11121310Y-13206452D01*
X11121310Y-13206452D02*
X11111786Y-13196928D01*
X11359405Y-13015976D02*
X11378452Y-13015976D01*
X11378452Y-13015976D02*
X11397500Y-13025500D01*
X11397500Y-13025500D02*
X11407024Y-13035024D01*
X11407024Y-13035024D02*
X11416548Y-13054071D01*
X11416548Y-13054071D02*
X11426071Y-13092167D01*
X11426071Y-13092167D02*
X11426071Y-13139786D01*
X11426071Y-13139786D02*
X11416548Y-13177881D01*
X11416548Y-13177881D02*
X11407024Y-13196928D01*
X11407024Y-13196928D02*
X11397500Y-13206452D01*
X11397500Y-13206452D02*
X11378452Y-13215976D01*
X11378452Y-13215976D02*
X11359405Y-13215976D01*
X11359405Y-13215976D02*
X11340357Y-13206452D01*
X11340357Y-13206452D02*
X11330833Y-13196928D01*
X11330833Y-13196928D02*
X11321309Y-13177881D01*
X11321309Y-13177881D02*
X11311786Y-13139786D01*
X11311786Y-13139786D02*
X11311786Y-13092167D01*
X11311786Y-13092167D02*
X11321309Y-13054071D01*
X11321309Y-13054071D02*
X11330833Y-13035024D01*
X11330833Y-13035024D02*
X11340357Y-13025500D01*
X11340357Y-13025500D02*
X11359405Y-13015976D01*
X11549881Y-13015976D02*
X11568929Y-13015976D01*
X11568929Y-13015976D02*
X11587976Y-13025500D01*
X11587976Y-13025500D02*
X11597500Y-13035024D01*
X11597500Y-13035024D02*
X11607024Y-13054071D01*
X11607024Y-13054071D02*
X11616548Y-13092167D01*
X11616548Y-13092167D02*
X11616548Y-13139786D01*
X11616548Y-13139786D02*
X11607024Y-13177881D01*
X11607024Y-13177881D02*
X11597500Y-13196928D01*
X11597500Y-13196928D02*
X11587976Y-13206452D01*
X11587976Y-13206452D02*
X11568929Y-13215976D01*
X11568929Y-13215976D02*
X11549881Y-13215976D01*
X11549881Y-13215976D02*
X11530833Y-13206452D01*
X11530833Y-13206452D02*
X11521309Y-13196928D01*
X11521309Y-13196928D02*
X11511786Y-13177881D01*
X11511786Y-13177881D02*
X11502262Y-13139786D01*
X11502262Y-13139786D02*
X11502262Y-13092167D01*
X11502262Y-13092167D02*
X11511786Y-13054071D01*
X11511786Y-13054071D02*
X11521309Y-13035024D01*
X11521309Y-13035024D02*
X11530833Y-13025500D01*
X11530833Y-13025500D02*
X11549881Y-13015976D01*
X11702262Y-13215976D02*
X11702262Y-13082643D01*
X11702262Y-13101690D02*
X11711786Y-13092167D01*
X11711786Y-13092167D02*
X11730833Y-13082643D01*
X11730833Y-13082643D02*
X11759405Y-13082643D01*
X11759405Y-13082643D02*
X11778452Y-13092167D01*
X11778452Y-13092167D02*
X11787976Y-13111214D01*
X11787976Y-13111214D02*
X11787976Y-13215976D01*
X11787976Y-13111214D02*
X11797500Y-13092167D01*
X11797500Y-13092167D02*
X11816548Y-13082643D01*
X11816548Y-13082643D02*
X11845119Y-13082643D01*
X11845119Y-13082643D02*
X11864167Y-13092167D01*
X11864167Y-13092167D02*
X11873690Y-13111214D01*
X11873690Y-13111214D02*
X11873690Y-13215976D01*
X11968929Y-13215976D02*
X11968929Y-13082643D01*
X11968929Y-13101690D02*
X11978452Y-13092167D01*
X11978452Y-13092167D02*
X11997500Y-13082643D01*
X11997500Y-13082643D02*
X12026071Y-13082643D01*
X12026071Y-13082643D02*
X12045119Y-13092167D01*
X12045119Y-13092167D02*
X12054643Y-13111214D01*
X12054643Y-13111214D02*
X12054643Y-13215976D01*
X12054643Y-13111214D02*
X12064167Y-13092167D01*
X12064167Y-13092167D02*
X12083214Y-13082643D01*
X12083214Y-13082643D02*
X12111786Y-13082643D01*
X12111786Y-13082643D02*
X12130833Y-13092167D01*
X12130833Y-13092167D02*
X12140357Y-13111214D01*
X12140357Y-13111214D02*
X12140357Y-13215976D01*
X12498452Y-13006452D02*
X12327024Y-13263595D01*
X12723214Y-13015976D02*
X12742262Y-13015976D01*
X12742262Y-13015976D02*
X12761310Y-13025500D01*
X12761310Y-13025500D02*
X12770833Y-13035024D01*
X12770833Y-13035024D02*
X12780357Y-13054071D01*
X12780357Y-13054071D02*
X12789881Y-13092167D01*
X12789881Y-13092167D02*
X12789881Y-13139786D01*
X12789881Y-13139786D02*
X12780357Y-13177881D01*
X12780357Y-13177881D02*
X12770833Y-13196928D01*
X12770833Y-13196928D02*
X12761310Y-13206452D01*
X12761310Y-13206452D02*
X12742262Y-13215976D01*
X12742262Y-13215976D02*
X12723214Y-13215976D01*
X12723214Y-13215976D02*
X12704167Y-13206452D01*
X12704167Y-13206452D02*
X12694643Y-13196928D01*
X12694643Y-13196928D02*
X12685119Y-13177881D01*
X12685119Y-13177881D02*
X12675595Y-13139786D01*
X12675595Y-13139786D02*
X12675595Y-13092167D01*
X12675595Y-13092167D02*
X12685119Y-13054071D01*
X12685119Y-13054071D02*
X12694643Y-13035024D01*
X12694643Y-13035024D02*
X12704167Y-13025500D01*
X12704167Y-13025500D02*
X12723214Y-13015976D01*
X12875595Y-13196928D02*
X12885119Y-13206452D01*
X12885119Y-13206452D02*
X12875595Y-13215976D01*
X12875595Y-13215976D02*
X12866071Y-13206452D01*
X12866071Y-13206452D02*
X12875595Y-13196928D01*
X12875595Y-13196928D02*
X12875595Y-13215976D01*
X13008929Y-13015976D02*
X13027976Y-13015976D01*
X13027976Y-13015976D02*
X13047024Y-13025500D01*
X13047024Y-13025500D02*
X13056548Y-13035024D01*
X13056548Y-13035024D02*
X13066071Y-13054071D01*
X13066071Y-13054071D02*
X13075595Y-13092167D01*
X13075595Y-13092167D02*
X13075595Y-13139786D01*
X13075595Y-13139786D02*
X13066071Y-13177881D01*
X13066071Y-13177881D02*
X13056548Y-13196928D01*
X13056548Y-13196928D02*
X13047024Y-13206452D01*
X13047024Y-13206452D02*
X13027976Y-13215976D01*
X13027976Y-13215976D02*
X13008929Y-13215976D01*
X13008929Y-13215976D02*
X12989881Y-13206452D01*
X12989881Y-13206452D02*
X12980357Y-13196928D01*
X12980357Y-13196928D02*
X12970833Y-13177881D01*
X12970833Y-13177881D02*
X12961310Y-13139786D01*
X12961310Y-13139786D02*
X12961310Y-13092167D01*
X12961310Y-13092167D02*
X12970833Y-13054071D01*
X12970833Y-13054071D02*
X12980357Y-13035024D01*
X12980357Y-13035024D02*
X12989881Y-13025500D01*
X12989881Y-13025500D02*
X13008929Y-13015976D01*
X13266071Y-13215976D02*
X13151786Y-13215976D01*
X13208929Y-13215976D02*
X13208929Y-13015976D01*
X13208929Y-13015976D02*
X13189881Y-13044548D01*
X13189881Y-13044548D02*
X13170833Y-13063595D01*
X13170833Y-13063595D02*
X13151786Y-13073119D01*
X13456548Y-13215976D02*
X13342262Y-13215976D01*
X13399405Y-13215976D02*
X13399405Y-13015976D01*
X13399405Y-13015976D02*
X13380357Y-13044548D01*
X13380357Y-13044548D02*
X13361310Y-13063595D01*
X13361310Y-13063595D02*
X13342262Y-13073119D01*
X13570833Y-13101690D02*
X13551786Y-13092167D01*
X13551786Y-13092167D02*
X13542262Y-13082643D01*
X13542262Y-13082643D02*
X13532738Y-13063595D01*
X13532738Y-13063595D02*
X13532738Y-13054071D01*
X13532738Y-13054071D02*
X13542262Y-13035024D01*
X13542262Y-13035024D02*
X13551786Y-13025500D01*
X13551786Y-13025500D02*
X13570833Y-13015976D01*
X13570833Y-13015976D02*
X13608929Y-13015976D01*
X13608929Y-13015976D02*
X13627976Y-13025500D01*
X13627976Y-13025500D02*
X13637500Y-13035024D01*
X13637500Y-13035024D02*
X13647024Y-13054071D01*
X13647024Y-13054071D02*
X13647024Y-13063595D01*
X13647024Y-13063595D02*
X13637500Y-13082643D01*
X13637500Y-13082643D02*
X13627976Y-13092167D01*
X13627976Y-13092167D02*
X13608929Y-13101690D01*
X13608929Y-13101690D02*
X13570833Y-13101690D01*
X13570833Y-13101690D02*
X13551786Y-13111214D01*
X13551786Y-13111214D02*
X13542262Y-13120738D01*
X13542262Y-13120738D02*
X13532738Y-13139786D01*
X13532738Y-13139786D02*
X13532738Y-13177881D01*
X13532738Y-13177881D02*
X13542262Y-13196928D01*
X13542262Y-13196928D02*
X13551786Y-13206452D01*
X13551786Y-13206452D02*
X13570833Y-13215976D01*
X13570833Y-13215976D02*
X13608929Y-13215976D01*
X13608929Y-13215976D02*
X13627976Y-13206452D01*
X13627976Y-13206452D02*
X13637500Y-13196928D01*
X13637500Y-13196928D02*
X13647024Y-13177881D01*
X13647024Y-13177881D02*
X13647024Y-13139786D01*
X13647024Y-13139786D02*
X13637500Y-13120738D01*
X13637500Y-13120738D02*
X13627976Y-13111214D01*
X13627976Y-13111214D02*
X13608929Y-13101690D01*
X13723214Y-13015976D02*
X13723214Y-13054071D01*
X13799405Y-13015976D02*
X13799405Y-13054071D01*
X14062262Y-13292167D02*
X14052738Y-13282643D01*
X14052738Y-13282643D02*
X14033691Y-13254071D01*
X14033691Y-13254071D02*
X14024167Y-13235024D01*
X14024167Y-13235024D02*
X14014643Y-13206452D01*
X14014643Y-13206452D02*
X14005119Y-13158833D01*
X14005119Y-13158833D02*
X14005119Y-13120738D01*
X14005119Y-13120738D02*
X14014643Y-13073119D01*
X14014643Y-13073119D02*
X14024167Y-13044548D01*
X14024167Y-13044548D02*
X14033691Y-13025500D01*
X14033691Y-13025500D02*
X14052738Y-12996928D01*
X14052738Y-12996928D02*
X14062262Y-12987405D01*
X14243214Y-13215976D02*
X14128929Y-13215976D01*
X14186071Y-13215976D02*
X14186071Y-13015976D01*
X14186071Y-13015976D02*
X14167024Y-13044548D01*
X14167024Y-13044548D02*
X14147976Y-13063595D01*
X14147976Y-13063595D02*
X14128929Y-13073119D01*
X14309881Y-13015976D02*
X14443214Y-13015976D01*
X14443214Y-13015976D02*
X14357500Y-13215976D01*
X14500357Y-13015976D02*
X14633691Y-13015976D01*
X14633691Y-13015976D02*
X14547976Y-13215976D01*
X14829881Y-13215976D02*
X14829881Y-13015976D01*
X14915595Y-13215976D02*
X14915595Y-13111214D01*
X14915595Y-13111214D02*
X14906072Y-13092167D01*
X14906072Y-13092167D02*
X14887024Y-13082643D01*
X14887024Y-13082643D02*
X14858452Y-13082643D01*
X14858452Y-13082643D02*
X14839405Y-13092167D01*
X14839405Y-13092167D02*
X14829881Y-13101690D01*
X15039405Y-13215976D02*
X15020357Y-13206452D01*
X15020357Y-13206452D02*
X15010833Y-13196928D01*
X15010833Y-13196928D02*
X15001310Y-13177881D01*
X15001310Y-13177881D02*
X15001310Y-13120738D01*
X15001310Y-13120738D02*
X15010833Y-13101690D01*
X15010833Y-13101690D02*
X15020357Y-13092167D01*
X15020357Y-13092167D02*
X15039405Y-13082643D01*
X15039405Y-13082643D02*
X15067976Y-13082643D01*
X15067976Y-13082643D02*
X15087024Y-13092167D01*
X15087024Y-13092167D02*
X15096548Y-13101690D01*
X15096548Y-13101690D02*
X15106072Y-13120738D01*
X15106072Y-13120738D02*
X15106072Y-13177881D01*
X15106072Y-13177881D02*
X15096548Y-13196928D01*
X15096548Y-13196928D02*
X15087024Y-13206452D01*
X15087024Y-13206452D02*
X15067976Y-13215976D01*
X15067976Y-13215976D02*
X15039405Y-13215976D01*
X15220357Y-13215976D02*
X15201310Y-13206452D01*
X15201310Y-13206452D02*
X15191786Y-13187405D01*
X15191786Y-13187405D02*
X15191786Y-13015976D01*
X15372738Y-13206452D02*
X15353691Y-13215976D01*
X15353691Y-13215976D02*
X15315595Y-13215976D01*
X15315595Y-13215976D02*
X15296548Y-13206452D01*
X15296548Y-13206452D02*
X15287024Y-13187405D01*
X15287024Y-13187405D02*
X15287024Y-13111214D01*
X15287024Y-13111214D02*
X15296548Y-13092167D01*
X15296548Y-13092167D02*
X15315595Y-13082643D01*
X15315595Y-13082643D02*
X15353691Y-13082643D01*
X15353691Y-13082643D02*
X15372738Y-13092167D01*
X15372738Y-13092167D02*
X15382262Y-13111214D01*
X15382262Y-13111214D02*
X15382262Y-13130262D01*
X15382262Y-13130262D02*
X15287024Y-13149309D01*
X15458453Y-13206452D02*
X15477500Y-13215976D01*
X15477500Y-13215976D02*
X15515595Y-13215976D01*
X15515595Y-13215976D02*
X15534643Y-13206452D01*
X15534643Y-13206452D02*
X15544167Y-13187405D01*
X15544167Y-13187405D02*
X15544167Y-13177881D01*
X15544167Y-13177881D02*
X15534643Y-13158833D01*
X15534643Y-13158833D02*
X15515595Y-13149309D01*
X15515595Y-13149309D02*
X15487024Y-13149309D01*
X15487024Y-13149309D02*
X15467976Y-13139786D01*
X15467976Y-13139786D02*
X15458453Y-13120738D01*
X15458453Y-13120738D02*
X15458453Y-13111214D01*
X15458453Y-13111214D02*
X15467976Y-13092167D01*
X15467976Y-13092167D02*
X15487024Y-13082643D01*
X15487024Y-13082643D02*
X15515595Y-13082643D01*
X15515595Y-13082643D02*
X15534643Y-13092167D01*
X15610834Y-13292167D02*
X15620357Y-13282643D01*
X15620357Y-13282643D02*
X15639405Y-13254071D01*
X15639405Y-13254071D02*
X15648929Y-13235024D01*
X15648929Y-13235024D02*
X15658453Y-13206452D01*
X15658453Y-13206452D02*
X15667976Y-13158833D01*
X15667976Y-13158833D02*
X15667976Y-13120738D01*
X15667976Y-13120738D02*
X15658453Y-13073119D01*
X15658453Y-13073119D02*
X15648929Y-13044548D01*
X15648929Y-13044548D02*
X15639405Y-13025500D01*
X15639405Y-13025500D02*
X15620357Y-12996928D01*
X15620357Y-12996928D02*
X15610834Y-12987405D01*
D13*
X10597500Y-13406500D02*
G75*
G03*
X10597500Y-13406500I-16250J0D01*
G01*
D11*
X10883214Y-13279976D02*
X10902262Y-13279976D01*
X10902262Y-13279976D02*
X10921310Y-13289500D01*
X10921310Y-13289500D02*
X10930833Y-13299024D01*
X10930833Y-13299024D02*
X10940357Y-13318071D01*
X10940357Y-13318071D02*
X10949881Y-13356167D01*
X10949881Y-13356167D02*
X10949881Y-13403786D01*
X10949881Y-13403786D02*
X10940357Y-13441881D01*
X10940357Y-13441881D02*
X10930833Y-13460928D01*
X10930833Y-13460928D02*
X10921310Y-13470452D01*
X10921310Y-13470452D02*
X10902262Y-13479976D01*
X10902262Y-13479976D02*
X10883214Y-13479976D01*
X10883214Y-13479976D02*
X10864167Y-13470452D01*
X10864167Y-13470452D02*
X10854643Y-13460928D01*
X10854643Y-13460928D02*
X10845119Y-13441881D01*
X10845119Y-13441881D02*
X10835595Y-13403786D01*
X10835595Y-13403786D02*
X10835595Y-13356167D01*
X10835595Y-13356167D02*
X10845119Y-13318071D01*
X10845119Y-13318071D02*
X10854643Y-13299024D01*
X10854643Y-13299024D02*
X10864167Y-13289500D01*
X10864167Y-13289500D02*
X10883214Y-13279976D01*
X11035595Y-13460928D02*
X11045119Y-13470452D01*
X11045119Y-13470452D02*
X11035595Y-13479976D01*
X11035595Y-13479976D02*
X11026071Y-13470452D01*
X11026071Y-13470452D02*
X11035595Y-13460928D01*
X11035595Y-13460928D02*
X11035595Y-13479976D01*
X11111786Y-13279976D02*
X11235595Y-13279976D01*
X11235595Y-13279976D02*
X11168929Y-13356167D01*
X11168929Y-13356167D02*
X11197500Y-13356167D01*
X11197500Y-13356167D02*
X11216548Y-13365690D01*
X11216548Y-13365690D02*
X11226071Y-13375214D01*
X11226071Y-13375214D02*
X11235595Y-13394262D01*
X11235595Y-13394262D02*
X11235595Y-13441881D01*
X11235595Y-13441881D02*
X11226071Y-13460928D01*
X11226071Y-13460928D02*
X11216548Y-13470452D01*
X11216548Y-13470452D02*
X11197500Y-13479976D01*
X11197500Y-13479976D02*
X11140357Y-13479976D01*
X11140357Y-13479976D02*
X11121310Y-13470452D01*
X11121310Y-13470452D02*
X11111786Y-13460928D01*
X11311786Y-13299024D02*
X11321309Y-13289500D01*
X11321309Y-13289500D02*
X11340357Y-13279976D01*
X11340357Y-13279976D02*
X11387976Y-13279976D01*
X11387976Y-13279976D02*
X11407024Y-13289500D01*
X11407024Y-13289500D02*
X11416548Y-13299024D01*
X11416548Y-13299024D02*
X11426071Y-13318071D01*
X11426071Y-13318071D02*
X11426071Y-13337119D01*
X11426071Y-13337119D02*
X11416548Y-13365690D01*
X11416548Y-13365690D02*
X11302262Y-13479976D01*
X11302262Y-13479976D02*
X11426071Y-13479976D01*
X11607024Y-13279976D02*
X11511786Y-13279976D01*
X11511786Y-13279976D02*
X11502262Y-13375214D01*
X11502262Y-13375214D02*
X11511786Y-13365690D01*
X11511786Y-13365690D02*
X11530833Y-13356167D01*
X11530833Y-13356167D02*
X11578452Y-13356167D01*
X11578452Y-13356167D02*
X11597500Y-13365690D01*
X11597500Y-13365690D02*
X11607024Y-13375214D01*
X11607024Y-13375214D02*
X11616548Y-13394262D01*
X11616548Y-13394262D02*
X11616548Y-13441881D01*
X11616548Y-13441881D02*
X11607024Y-13460928D01*
X11607024Y-13460928D02*
X11597500Y-13470452D01*
X11597500Y-13470452D02*
X11578452Y-13479976D01*
X11578452Y-13479976D02*
X11530833Y-13479976D01*
X11530833Y-13479976D02*
X11511786Y-13470452D01*
X11511786Y-13470452D02*
X11502262Y-13460928D01*
X11702262Y-13479976D02*
X11702262Y-13346643D01*
X11702262Y-13365690D02*
X11711786Y-13356167D01*
X11711786Y-13356167D02*
X11730833Y-13346643D01*
X11730833Y-13346643D02*
X11759405Y-13346643D01*
X11759405Y-13346643D02*
X11778452Y-13356167D01*
X11778452Y-13356167D02*
X11787976Y-13375214D01*
X11787976Y-13375214D02*
X11787976Y-13479976D01*
X11787976Y-13375214D02*
X11797500Y-13356167D01*
X11797500Y-13356167D02*
X11816548Y-13346643D01*
X11816548Y-13346643D02*
X11845119Y-13346643D01*
X11845119Y-13346643D02*
X11864167Y-13356167D01*
X11864167Y-13356167D02*
X11873690Y-13375214D01*
X11873690Y-13375214D02*
X11873690Y-13479976D01*
X11968929Y-13479976D02*
X11968929Y-13346643D01*
X11968929Y-13365690D02*
X11978452Y-13356167D01*
X11978452Y-13356167D02*
X11997500Y-13346643D01*
X11997500Y-13346643D02*
X12026071Y-13346643D01*
X12026071Y-13346643D02*
X12045119Y-13356167D01*
X12045119Y-13356167D02*
X12054643Y-13375214D01*
X12054643Y-13375214D02*
X12054643Y-13479976D01*
X12054643Y-13375214D02*
X12064167Y-13356167D01*
X12064167Y-13356167D02*
X12083214Y-13346643D01*
X12083214Y-13346643D02*
X12111786Y-13346643D01*
X12111786Y-13346643D02*
X12130833Y-13356167D01*
X12130833Y-13356167D02*
X12140357Y-13375214D01*
X12140357Y-13375214D02*
X12140357Y-13479976D01*
X12498452Y-13270452D02*
X12327024Y-13527595D01*
X12723214Y-13279976D02*
X12742262Y-13279976D01*
X12742262Y-13279976D02*
X12761310Y-13289500D01*
X12761310Y-13289500D02*
X12770833Y-13299024D01*
X12770833Y-13299024D02*
X12780357Y-13318071D01*
X12780357Y-13318071D02*
X12789881Y-13356167D01*
X12789881Y-13356167D02*
X12789881Y-13403786D01*
X12789881Y-13403786D02*
X12780357Y-13441881D01*
X12780357Y-13441881D02*
X12770833Y-13460928D01*
X12770833Y-13460928D02*
X12761310Y-13470452D01*
X12761310Y-13470452D02*
X12742262Y-13479976D01*
X12742262Y-13479976D02*
X12723214Y-13479976D01*
X12723214Y-13479976D02*
X12704167Y-13470452D01*
X12704167Y-13470452D02*
X12694643Y-13460928D01*
X12694643Y-13460928D02*
X12685119Y-13441881D01*
X12685119Y-13441881D02*
X12675595Y-13403786D01*
X12675595Y-13403786D02*
X12675595Y-13356167D01*
X12675595Y-13356167D02*
X12685119Y-13318071D01*
X12685119Y-13318071D02*
X12694643Y-13299024D01*
X12694643Y-13299024D02*
X12704167Y-13289500D01*
X12704167Y-13289500D02*
X12723214Y-13279976D01*
X12875595Y-13460928D02*
X12885119Y-13470452D01*
X12885119Y-13470452D02*
X12875595Y-13479976D01*
X12875595Y-13479976D02*
X12866071Y-13470452D01*
X12866071Y-13470452D02*
X12875595Y-13460928D01*
X12875595Y-13460928D02*
X12875595Y-13479976D01*
X13008929Y-13279976D02*
X13027976Y-13279976D01*
X13027976Y-13279976D02*
X13047024Y-13289500D01*
X13047024Y-13289500D02*
X13056548Y-13299024D01*
X13056548Y-13299024D02*
X13066071Y-13318071D01*
X13066071Y-13318071D02*
X13075595Y-13356167D01*
X13075595Y-13356167D02*
X13075595Y-13403786D01*
X13075595Y-13403786D02*
X13066071Y-13441881D01*
X13066071Y-13441881D02*
X13056548Y-13460928D01*
X13056548Y-13460928D02*
X13047024Y-13470452D01*
X13047024Y-13470452D02*
X13027976Y-13479976D01*
X13027976Y-13479976D02*
X13008929Y-13479976D01*
X13008929Y-13479976D02*
X12989881Y-13470452D01*
X12989881Y-13470452D02*
X12980357Y-13460928D01*
X12980357Y-13460928D02*
X12970833Y-13441881D01*
X12970833Y-13441881D02*
X12961310Y-13403786D01*
X12961310Y-13403786D02*
X12961310Y-13356167D01*
X12961310Y-13356167D02*
X12970833Y-13318071D01*
X12970833Y-13318071D02*
X12980357Y-13299024D01*
X12980357Y-13299024D02*
X12989881Y-13289500D01*
X12989881Y-13289500D02*
X13008929Y-13279976D01*
X13266071Y-13479976D02*
X13151786Y-13479976D01*
X13208929Y-13479976D02*
X13208929Y-13279976D01*
X13208929Y-13279976D02*
X13189881Y-13308548D01*
X13189881Y-13308548D02*
X13170833Y-13327595D01*
X13170833Y-13327595D02*
X13151786Y-13337119D01*
X13342262Y-13299024D02*
X13351786Y-13289500D01*
X13351786Y-13289500D02*
X13370833Y-13279976D01*
X13370833Y-13279976D02*
X13418452Y-13279976D01*
X13418452Y-13279976D02*
X13437500Y-13289500D01*
X13437500Y-13289500D02*
X13447024Y-13299024D01*
X13447024Y-13299024D02*
X13456548Y-13318071D01*
X13456548Y-13318071D02*
X13456548Y-13337119D01*
X13456548Y-13337119D02*
X13447024Y-13365690D01*
X13447024Y-13365690D02*
X13332738Y-13479976D01*
X13332738Y-13479976D02*
X13456548Y-13479976D01*
X13570833Y-13365690D02*
X13551786Y-13356167D01*
X13551786Y-13356167D02*
X13542262Y-13346643D01*
X13542262Y-13346643D02*
X13532738Y-13327595D01*
X13532738Y-13327595D02*
X13532738Y-13318071D01*
X13532738Y-13318071D02*
X13542262Y-13299024D01*
X13542262Y-13299024D02*
X13551786Y-13289500D01*
X13551786Y-13289500D02*
X13570833Y-13279976D01*
X13570833Y-13279976D02*
X13608929Y-13279976D01*
X13608929Y-13279976D02*
X13627976Y-13289500D01*
X13627976Y-13289500D02*
X13637500Y-13299024D01*
X13637500Y-13299024D02*
X13647024Y-13318071D01*
X13647024Y-13318071D02*
X13647024Y-13327595D01*
X13647024Y-13327595D02*
X13637500Y-13346643D01*
X13637500Y-13346643D02*
X13627976Y-13356167D01*
X13627976Y-13356167D02*
X13608929Y-13365690D01*
X13608929Y-13365690D02*
X13570833Y-13365690D01*
X13570833Y-13365690D02*
X13551786Y-13375214D01*
X13551786Y-13375214D02*
X13542262Y-13384738D01*
X13542262Y-13384738D02*
X13532738Y-13403786D01*
X13532738Y-13403786D02*
X13532738Y-13441881D01*
X13532738Y-13441881D02*
X13542262Y-13460928D01*
X13542262Y-13460928D02*
X13551786Y-13470452D01*
X13551786Y-13470452D02*
X13570833Y-13479976D01*
X13570833Y-13479976D02*
X13608929Y-13479976D01*
X13608929Y-13479976D02*
X13627976Y-13470452D01*
X13627976Y-13470452D02*
X13637500Y-13460928D01*
X13637500Y-13460928D02*
X13647024Y-13441881D01*
X13647024Y-13441881D02*
X13647024Y-13403786D01*
X13647024Y-13403786D02*
X13637500Y-13384738D01*
X13637500Y-13384738D02*
X13627976Y-13375214D01*
X13627976Y-13375214D02*
X13608929Y-13365690D01*
X13723214Y-13279976D02*
X13723214Y-13318071D01*
X13799405Y-13279976D02*
X13799405Y-13318071D01*
X14062262Y-13556167D02*
X14052738Y-13546643D01*
X14052738Y-13546643D02*
X14033691Y-13518071D01*
X14033691Y-13518071D02*
X14024167Y-13499024D01*
X14024167Y-13499024D02*
X14014643Y-13470452D01*
X14014643Y-13470452D02*
X14005119Y-13422833D01*
X14005119Y-13422833D02*
X14005119Y-13384738D01*
X14005119Y-13384738D02*
X14014643Y-13337119D01*
X14014643Y-13337119D02*
X14024167Y-13308548D01*
X14024167Y-13308548D02*
X14033691Y-13289500D01*
X14033691Y-13289500D02*
X14052738Y-13260928D01*
X14052738Y-13260928D02*
X14062262Y-13251405D01*
X14128929Y-13299024D02*
X14138452Y-13289500D01*
X14138452Y-13289500D02*
X14157500Y-13279976D01*
X14157500Y-13279976D02*
X14205119Y-13279976D01*
X14205119Y-13279976D02*
X14224167Y-13289500D01*
X14224167Y-13289500D02*
X14233691Y-13299024D01*
X14233691Y-13299024D02*
X14243214Y-13318071D01*
X14243214Y-13318071D02*
X14243214Y-13337119D01*
X14243214Y-13337119D02*
X14233691Y-13365690D01*
X14233691Y-13365690D02*
X14119405Y-13479976D01*
X14119405Y-13479976D02*
X14243214Y-13479976D01*
X14448929Y-13479976D02*
X14448929Y-13279976D01*
X14534643Y-13479976D02*
X14534643Y-13375214D01*
X14534643Y-13375214D02*
X14525119Y-13356167D01*
X14525119Y-13356167D02*
X14506072Y-13346643D01*
X14506072Y-13346643D02*
X14477500Y-13346643D01*
X14477500Y-13346643D02*
X14458452Y-13356167D01*
X14458452Y-13356167D02*
X14448929Y-13365690D01*
X14658452Y-13479976D02*
X14639405Y-13470452D01*
X14639405Y-13470452D02*
X14629881Y-13460928D01*
X14629881Y-13460928D02*
X14620357Y-13441881D01*
X14620357Y-13441881D02*
X14620357Y-13384738D01*
X14620357Y-13384738D02*
X14629881Y-13365690D01*
X14629881Y-13365690D02*
X14639405Y-13356167D01*
X14639405Y-13356167D02*
X14658452Y-13346643D01*
X14658452Y-13346643D02*
X14687024Y-13346643D01*
X14687024Y-13346643D02*
X14706072Y-13356167D01*
X14706072Y-13356167D02*
X14715595Y-13365690D01*
X14715595Y-13365690D02*
X14725119Y-13384738D01*
X14725119Y-13384738D02*
X14725119Y-13441881D01*
X14725119Y-13441881D02*
X14715595Y-13460928D01*
X14715595Y-13460928D02*
X14706072Y-13470452D01*
X14706072Y-13470452D02*
X14687024Y-13479976D01*
X14687024Y-13479976D02*
X14658452Y-13479976D01*
X14839405Y-13479976D02*
X14820357Y-13470452D01*
X14820357Y-13470452D02*
X14810833Y-13451405D01*
X14810833Y-13451405D02*
X14810833Y-13279976D01*
X14991786Y-13470452D02*
X14972738Y-13479976D01*
X14972738Y-13479976D02*
X14934643Y-13479976D01*
X14934643Y-13479976D02*
X14915595Y-13470452D01*
X14915595Y-13470452D02*
X14906072Y-13451405D01*
X14906072Y-13451405D02*
X14906072Y-13375214D01*
X14906072Y-13375214D02*
X14915595Y-13356167D01*
X14915595Y-13356167D02*
X14934643Y-13346643D01*
X14934643Y-13346643D02*
X14972738Y-13346643D01*
X14972738Y-13346643D02*
X14991786Y-13356167D01*
X14991786Y-13356167D02*
X15001310Y-13375214D01*
X15001310Y-13375214D02*
X15001310Y-13394262D01*
X15001310Y-13394262D02*
X14906072Y-13413309D01*
X15077500Y-13470452D02*
X15096548Y-13479976D01*
X15096548Y-13479976D02*
X15134643Y-13479976D01*
X15134643Y-13479976D02*
X15153691Y-13470452D01*
X15153691Y-13470452D02*
X15163214Y-13451405D01*
X15163214Y-13451405D02*
X15163214Y-13441881D01*
X15163214Y-13441881D02*
X15153691Y-13422833D01*
X15153691Y-13422833D02*
X15134643Y-13413309D01*
X15134643Y-13413309D02*
X15106072Y-13413309D01*
X15106072Y-13413309D02*
X15087024Y-13403786D01*
X15087024Y-13403786D02*
X15077500Y-13384738D01*
X15077500Y-13384738D02*
X15077500Y-13375214D01*
X15077500Y-13375214D02*
X15087024Y-13356167D01*
X15087024Y-13356167D02*
X15106072Y-13346643D01*
X15106072Y-13346643D02*
X15134643Y-13346643D01*
X15134643Y-13346643D02*
X15153691Y-13356167D01*
X15229881Y-13556167D02*
X15239405Y-13546643D01*
X15239405Y-13546643D02*
X15258453Y-13518071D01*
X15258453Y-13518071D02*
X15267976Y-13499024D01*
X15267976Y-13499024D02*
X15277500Y-13470452D01*
X15277500Y-13470452D02*
X15287024Y-13422833D01*
X15287024Y-13422833D02*
X15287024Y-13384738D01*
X15287024Y-13384738D02*
X15277500Y-13337119D01*
X15277500Y-13337119D02*
X15267976Y-13308548D01*
X15267976Y-13308548D02*
X15258453Y-13289500D01*
X15258453Y-13289500D02*
X15239405Y-13260928D01*
X15239405Y-13260928D02*
X15229881Y-13251405D01*
D14*
X10580000Y-13653000D02*
X10580000Y-13688000D01*
X10562500Y-13670500D02*
X10597500Y-13670500D01*
D11*
X10883214Y-13543976D02*
X10902262Y-13543976D01*
X10902262Y-13543976D02*
X10921310Y-13553500D01*
X10921310Y-13553500D02*
X10930833Y-13563024D01*
X10930833Y-13563024D02*
X10940357Y-13582071D01*
X10940357Y-13582071D02*
X10949881Y-13620167D01*
X10949881Y-13620167D02*
X10949881Y-13667786D01*
X10949881Y-13667786D02*
X10940357Y-13705881D01*
X10940357Y-13705881D02*
X10930833Y-13724928D01*
X10930833Y-13724928D02*
X10921310Y-13734452D01*
X10921310Y-13734452D02*
X10902262Y-13743976D01*
X10902262Y-13743976D02*
X10883214Y-13743976D01*
X10883214Y-13743976D02*
X10864167Y-13734452D01*
X10864167Y-13734452D02*
X10854643Y-13724928D01*
X10854643Y-13724928D02*
X10845119Y-13705881D01*
X10845119Y-13705881D02*
X10835595Y-13667786D01*
X10835595Y-13667786D02*
X10835595Y-13620167D01*
X10835595Y-13620167D02*
X10845119Y-13582071D01*
X10845119Y-13582071D02*
X10854643Y-13563024D01*
X10854643Y-13563024D02*
X10864167Y-13553500D01*
X10864167Y-13553500D02*
X10883214Y-13543976D01*
X11035595Y-13724928D02*
X11045119Y-13734452D01*
X11045119Y-13734452D02*
X11035595Y-13743976D01*
X11035595Y-13743976D02*
X11026071Y-13734452D01*
X11026071Y-13734452D02*
X11035595Y-13724928D01*
X11035595Y-13724928D02*
X11035595Y-13743976D01*
X11111786Y-13543976D02*
X11235595Y-13543976D01*
X11235595Y-13543976D02*
X11168929Y-13620167D01*
X11168929Y-13620167D02*
X11197500Y-13620167D01*
X11197500Y-13620167D02*
X11216548Y-13629690D01*
X11216548Y-13629690D02*
X11226071Y-13639214D01*
X11226071Y-13639214D02*
X11235595Y-13658262D01*
X11235595Y-13658262D02*
X11235595Y-13705881D01*
X11235595Y-13705881D02*
X11226071Y-13724928D01*
X11226071Y-13724928D02*
X11216548Y-13734452D01*
X11216548Y-13734452D02*
X11197500Y-13743976D01*
X11197500Y-13743976D02*
X11140357Y-13743976D01*
X11140357Y-13743976D02*
X11121310Y-13734452D01*
X11121310Y-13734452D02*
X11111786Y-13724928D01*
X11416548Y-13543976D02*
X11321309Y-13543976D01*
X11321309Y-13543976D02*
X11311786Y-13639214D01*
X11311786Y-13639214D02*
X11321309Y-13629690D01*
X11321309Y-13629690D02*
X11340357Y-13620167D01*
X11340357Y-13620167D02*
X11387976Y-13620167D01*
X11387976Y-13620167D02*
X11407024Y-13629690D01*
X11407024Y-13629690D02*
X11416548Y-13639214D01*
X11416548Y-13639214D02*
X11426071Y-13658262D01*
X11426071Y-13658262D02*
X11426071Y-13705881D01*
X11426071Y-13705881D02*
X11416548Y-13724928D01*
X11416548Y-13724928D02*
X11407024Y-13734452D01*
X11407024Y-13734452D02*
X11387976Y-13743976D01*
X11387976Y-13743976D02*
X11340357Y-13743976D01*
X11340357Y-13743976D02*
X11321309Y-13734452D01*
X11321309Y-13734452D02*
X11311786Y-13724928D01*
X11549881Y-13543976D02*
X11568929Y-13543976D01*
X11568929Y-13543976D02*
X11587976Y-13553500D01*
X11587976Y-13553500D02*
X11597500Y-13563024D01*
X11597500Y-13563024D02*
X11607024Y-13582071D01*
X11607024Y-13582071D02*
X11616548Y-13620167D01*
X11616548Y-13620167D02*
X11616548Y-13667786D01*
X11616548Y-13667786D02*
X11607024Y-13705881D01*
X11607024Y-13705881D02*
X11597500Y-13724928D01*
X11597500Y-13724928D02*
X11587976Y-13734452D01*
X11587976Y-13734452D02*
X11568929Y-13743976D01*
X11568929Y-13743976D02*
X11549881Y-13743976D01*
X11549881Y-13743976D02*
X11530833Y-13734452D01*
X11530833Y-13734452D02*
X11521309Y-13724928D01*
X11521309Y-13724928D02*
X11511786Y-13705881D01*
X11511786Y-13705881D02*
X11502262Y-13667786D01*
X11502262Y-13667786D02*
X11502262Y-13620167D01*
X11502262Y-13620167D02*
X11511786Y-13582071D01*
X11511786Y-13582071D02*
X11521309Y-13563024D01*
X11521309Y-13563024D02*
X11530833Y-13553500D01*
X11530833Y-13553500D02*
X11549881Y-13543976D01*
X11702262Y-13743976D02*
X11702262Y-13610643D01*
X11702262Y-13629690D02*
X11711786Y-13620167D01*
X11711786Y-13620167D02*
X11730833Y-13610643D01*
X11730833Y-13610643D02*
X11759405Y-13610643D01*
X11759405Y-13610643D02*
X11778452Y-13620167D01*
X11778452Y-13620167D02*
X11787976Y-13639214D01*
X11787976Y-13639214D02*
X11787976Y-13743976D01*
X11787976Y-13639214D02*
X11797500Y-13620167D01*
X11797500Y-13620167D02*
X11816548Y-13610643D01*
X11816548Y-13610643D02*
X11845119Y-13610643D01*
X11845119Y-13610643D02*
X11864167Y-13620167D01*
X11864167Y-13620167D02*
X11873690Y-13639214D01*
X11873690Y-13639214D02*
X11873690Y-13743976D01*
X11968929Y-13743976D02*
X11968929Y-13610643D01*
X11968929Y-13629690D02*
X11978452Y-13620167D01*
X11978452Y-13620167D02*
X11997500Y-13610643D01*
X11997500Y-13610643D02*
X12026071Y-13610643D01*
X12026071Y-13610643D02*
X12045119Y-13620167D01*
X12045119Y-13620167D02*
X12054643Y-13639214D01*
X12054643Y-13639214D02*
X12054643Y-13743976D01*
X12054643Y-13639214D02*
X12064167Y-13620167D01*
X12064167Y-13620167D02*
X12083214Y-13610643D01*
X12083214Y-13610643D02*
X12111786Y-13610643D01*
X12111786Y-13610643D02*
X12130833Y-13620167D01*
X12130833Y-13620167D02*
X12140357Y-13639214D01*
X12140357Y-13639214D02*
X12140357Y-13743976D01*
X12498452Y-13534452D02*
X12327024Y-13791595D01*
X12723214Y-13543976D02*
X12742262Y-13543976D01*
X12742262Y-13543976D02*
X12761310Y-13553500D01*
X12761310Y-13553500D02*
X12770833Y-13563024D01*
X12770833Y-13563024D02*
X12780357Y-13582071D01*
X12780357Y-13582071D02*
X12789881Y-13620167D01*
X12789881Y-13620167D02*
X12789881Y-13667786D01*
X12789881Y-13667786D02*
X12780357Y-13705881D01*
X12780357Y-13705881D02*
X12770833Y-13724928D01*
X12770833Y-13724928D02*
X12761310Y-13734452D01*
X12761310Y-13734452D02*
X12742262Y-13743976D01*
X12742262Y-13743976D02*
X12723214Y-13743976D01*
X12723214Y-13743976D02*
X12704167Y-13734452D01*
X12704167Y-13734452D02*
X12694643Y-13724928D01*
X12694643Y-13724928D02*
X12685119Y-13705881D01*
X12685119Y-13705881D02*
X12675595Y-13667786D01*
X12675595Y-13667786D02*
X12675595Y-13620167D01*
X12675595Y-13620167D02*
X12685119Y-13582071D01*
X12685119Y-13582071D02*
X12694643Y-13563024D01*
X12694643Y-13563024D02*
X12704167Y-13553500D01*
X12704167Y-13553500D02*
X12723214Y-13543976D01*
X12875595Y-13724928D02*
X12885119Y-13734452D01*
X12885119Y-13734452D02*
X12875595Y-13743976D01*
X12875595Y-13743976D02*
X12866071Y-13734452D01*
X12866071Y-13734452D02*
X12875595Y-13724928D01*
X12875595Y-13724928D02*
X12875595Y-13743976D01*
X13008929Y-13543976D02*
X13027976Y-13543976D01*
X13027976Y-13543976D02*
X13047024Y-13553500D01*
X13047024Y-13553500D02*
X13056548Y-13563024D01*
X13056548Y-13563024D02*
X13066071Y-13582071D01*
X13066071Y-13582071D02*
X13075595Y-13620167D01*
X13075595Y-13620167D02*
X13075595Y-13667786D01*
X13075595Y-13667786D02*
X13066071Y-13705881D01*
X13066071Y-13705881D02*
X13056548Y-13724928D01*
X13056548Y-13724928D02*
X13047024Y-13734452D01*
X13047024Y-13734452D02*
X13027976Y-13743976D01*
X13027976Y-13743976D02*
X13008929Y-13743976D01*
X13008929Y-13743976D02*
X12989881Y-13734452D01*
X12989881Y-13734452D02*
X12980357Y-13724928D01*
X12980357Y-13724928D02*
X12970833Y-13705881D01*
X12970833Y-13705881D02*
X12961310Y-13667786D01*
X12961310Y-13667786D02*
X12961310Y-13620167D01*
X12961310Y-13620167D02*
X12970833Y-13582071D01*
X12970833Y-13582071D02*
X12980357Y-13563024D01*
X12980357Y-13563024D02*
X12989881Y-13553500D01*
X12989881Y-13553500D02*
X13008929Y-13543976D01*
X13266071Y-13743976D02*
X13151786Y-13743976D01*
X13208929Y-13743976D02*
X13208929Y-13543976D01*
X13208929Y-13543976D02*
X13189881Y-13572548D01*
X13189881Y-13572548D02*
X13170833Y-13591595D01*
X13170833Y-13591595D02*
X13151786Y-13601119D01*
X13332738Y-13543976D02*
X13456548Y-13543976D01*
X13456548Y-13543976D02*
X13389881Y-13620167D01*
X13389881Y-13620167D02*
X13418452Y-13620167D01*
X13418452Y-13620167D02*
X13437500Y-13629690D01*
X13437500Y-13629690D02*
X13447024Y-13639214D01*
X13447024Y-13639214D02*
X13456548Y-13658262D01*
X13456548Y-13658262D02*
X13456548Y-13705881D01*
X13456548Y-13705881D02*
X13447024Y-13724928D01*
X13447024Y-13724928D02*
X13437500Y-13734452D01*
X13437500Y-13734452D02*
X13418452Y-13743976D01*
X13418452Y-13743976D02*
X13361310Y-13743976D01*
X13361310Y-13743976D02*
X13342262Y-13734452D01*
X13342262Y-13734452D02*
X13332738Y-13724928D01*
X13570833Y-13629690D02*
X13551786Y-13620167D01*
X13551786Y-13620167D02*
X13542262Y-13610643D01*
X13542262Y-13610643D02*
X13532738Y-13591595D01*
X13532738Y-13591595D02*
X13532738Y-13582071D01*
X13532738Y-13582071D02*
X13542262Y-13563024D01*
X13542262Y-13563024D02*
X13551786Y-13553500D01*
X13551786Y-13553500D02*
X13570833Y-13543976D01*
X13570833Y-13543976D02*
X13608929Y-13543976D01*
X13608929Y-13543976D02*
X13627976Y-13553500D01*
X13627976Y-13553500D02*
X13637500Y-13563024D01*
X13637500Y-13563024D02*
X13647024Y-13582071D01*
X13647024Y-13582071D02*
X13647024Y-13591595D01*
X13647024Y-13591595D02*
X13637500Y-13610643D01*
X13637500Y-13610643D02*
X13627976Y-13620167D01*
X13627976Y-13620167D02*
X13608929Y-13629690D01*
X13608929Y-13629690D02*
X13570833Y-13629690D01*
X13570833Y-13629690D02*
X13551786Y-13639214D01*
X13551786Y-13639214D02*
X13542262Y-13648738D01*
X13542262Y-13648738D02*
X13532738Y-13667786D01*
X13532738Y-13667786D02*
X13532738Y-13705881D01*
X13532738Y-13705881D02*
X13542262Y-13724928D01*
X13542262Y-13724928D02*
X13551786Y-13734452D01*
X13551786Y-13734452D02*
X13570833Y-13743976D01*
X13570833Y-13743976D02*
X13608929Y-13743976D01*
X13608929Y-13743976D02*
X13627976Y-13734452D01*
X13627976Y-13734452D02*
X13637500Y-13724928D01*
X13637500Y-13724928D02*
X13647024Y-13705881D01*
X13647024Y-13705881D02*
X13647024Y-13667786D01*
X13647024Y-13667786D02*
X13637500Y-13648738D01*
X13637500Y-13648738D02*
X13627976Y-13639214D01*
X13627976Y-13639214D02*
X13608929Y-13629690D01*
X13723214Y-13543976D02*
X13723214Y-13582071D01*
X13799405Y-13543976D02*
X13799405Y-13582071D01*
X14062262Y-13820167D02*
X14052738Y-13810643D01*
X14052738Y-13810643D02*
X14033691Y-13782071D01*
X14033691Y-13782071D02*
X14024167Y-13763024D01*
X14024167Y-13763024D02*
X14014643Y-13734452D01*
X14014643Y-13734452D02*
X14005119Y-13686833D01*
X14005119Y-13686833D02*
X14005119Y-13648738D01*
X14005119Y-13648738D02*
X14014643Y-13601119D01*
X14014643Y-13601119D02*
X14024167Y-13572548D01*
X14024167Y-13572548D02*
X14033691Y-13553500D01*
X14033691Y-13553500D02*
X14052738Y-13524928D01*
X14052738Y-13524928D02*
X14062262Y-13515405D01*
X14243214Y-13743976D02*
X14128929Y-13743976D01*
X14186071Y-13743976D02*
X14186071Y-13543976D01*
X14186071Y-13543976D02*
X14167024Y-13572548D01*
X14167024Y-13572548D02*
X14147976Y-13591595D01*
X14147976Y-13591595D02*
X14128929Y-13601119D01*
X14448929Y-13743976D02*
X14448929Y-13543976D01*
X14534643Y-13743976D02*
X14534643Y-13639214D01*
X14534643Y-13639214D02*
X14525119Y-13620167D01*
X14525119Y-13620167D02*
X14506072Y-13610643D01*
X14506072Y-13610643D02*
X14477500Y-13610643D01*
X14477500Y-13610643D02*
X14458452Y-13620167D01*
X14458452Y-13620167D02*
X14448929Y-13629690D01*
X14658452Y-13743976D02*
X14639405Y-13734452D01*
X14639405Y-13734452D02*
X14629881Y-13724928D01*
X14629881Y-13724928D02*
X14620357Y-13705881D01*
X14620357Y-13705881D02*
X14620357Y-13648738D01*
X14620357Y-13648738D02*
X14629881Y-13629690D01*
X14629881Y-13629690D02*
X14639405Y-13620167D01*
X14639405Y-13620167D02*
X14658452Y-13610643D01*
X14658452Y-13610643D02*
X14687024Y-13610643D01*
X14687024Y-13610643D02*
X14706072Y-13620167D01*
X14706072Y-13620167D02*
X14715595Y-13629690D01*
X14715595Y-13629690D02*
X14725119Y-13648738D01*
X14725119Y-13648738D02*
X14725119Y-13705881D01*
X14725119Y-13705881D02*
X14715595Y-13724928D01*
X14715595Y-13724928D02*
X14706072Y-13734452D01*
X14706072Y-13734452D02*
X14687024Y-13743976D01*
X14687024Y-13743976D02*
X14658452Y-13743976D01*
X14839405Y-13743976D02*
X14820357Y-13734452D01*
X14820357Y-13734452D02*
X14810833Y-13715405D01*
X14810833Y-13715405D02*
X14810833Y-13543976D01*
X14991786Y-13734452D02*
X14972738Y-13743976D01*
X14972738Y-13743976D02*
X14934643Y-13743976D01*
X14934643Y-13743976D02*
X14915595Y-13734452D01*
X14915595Y-13734452D02*
X14906072Y-13715405D01*
X14906072Y-13715405D02*
X14906072Y-13639214D01*
X14906072Y-13639214D02*
X14915595Y-13620167D01*
X14915595Y-13620167D02*
X14934643Y-13610643D01*
X14934643Y-13610643D02*
X14972738Y-13610643D01*
X14972738Y-13610643D02*
X14991786Y-13620167D01*
X14991786Y-13620167D02*
X15001310Y-13639214D01*
X15001310Y-13639214D02*
X15001310Y-13658262D01*
X15001310Y-13658262D02*
X14906072Y-13677309D01*
X15067976Y-13820167D02*
X15077500Y-13810643D01*
X15077500Y-13810643D02*
X15096548Y-13782071D01*
X15096548Y-13782071D02*
X15106072Y-13763024D01*
X15106072Y-13763024D02*
X15115595Y-13734452D01*
X15115595Y-13734452D02*
X15125119Y-13686833D01*
X15125119Y-13686833D02*
X15125119Y-13648738D01*
X15125119Y-13648738D02*
X15115595Y-13601119D01*
X15115595Y-13601119D02*
X15106072Y-13572548D01*
X15106072Y-13572548D02*
X15096548Y-13553500D01*
X15096548Y-13553500D02*
X15077500Y-13524928D01*
X15077500Y-13524928D02*
X15067976Y-13515405D01*
D15*
X10591642Y-13948642D02*
X10591642Y-13920358D01*
X10563358Y-13920358D01*
X10563358Y-13948642D01*
X10591642Y-13948642D01*
D11*
X10883214Y-13807976D02*
X10902262Y-13807976D01*
X10902262Y-13807976D02*
X10921310Y-13817500D01*
X10921310Y-13817500D02*
X10930833Y-13827024D01*
X10930833Y-13827024D02*
X10940357Y-13846071D01*
X10940357Y-13846071D02*
X10949881Y-13884167D01*
X10949881Y-13884167D02*
X10949881Y-13931786D01*
X10949881Y-13931786D02*
X10940357Y-13969881D01*
X10940357Y-13969881D02*
X10930833Y-13988928D01*
X10930833Y-13988928D02*
X10921310Y-13998452D01*
X10921310Y-13998452D02*
X10902262Y-14007976D01*
X10902262Y-14007976D02*
X10883214Y-14007976D01*
X10883214Y-14007976D02*
X10864167Y-13998452D01*
X10864167Y-13998452D02*
X10854643Y-13988928D01*
X10854643Y-13988928D02*
X10845119Y-13969881D01*
X10845119Y-13969881D02*
X10835595Y-13931786D01*
X10835595Y-13931786D02*
X10835595Y-13884167D01*
X10835595Y-13884167D02*
X10845119Y-13846071D01*
X10845119Y-13846071D02*
X10854643Y-13827024D01*
X10854643Y-13827024D02*
X10864167Y-13817500D01*
X10864167Y-13817500D02*
X10883214Y-13807976D01*
X11035595Y-13988928D02*
X11045119Y-13998452D01*
X11045119Y-13998452D02*
X11035595Y-14007976D01*
X11035595Y-14007976D02*
X11026071Y-13998452D01*
X11026071Y-13998452D02*
X11035595Y-13988928D01*
X11035595Y-13988928D02*
X11035595Y-14007976D01*
X11216548Y-13874643D02*
X11216548Y-14007976D01*
X11168929Y-13798452D02*
X11121310Y-13941309D01*
X11121310Y-13941309D02*
X11245119Y-13941309D01*
X11359405Y-13807976D02*
X11378452Y-13807976D01*
X11378452Y-13807976D02*
X11397500Y-13817500D01*
X11397500Y-13817500D02*
X11407024Y-13827024D01*
X11407024Y-13827024D02*
X11416548Y-13846071D01*
X11416548Y-13846071D02*
X11426071Y-13884167D01*
X11426071Y-13884167D02*
X11426071Y-13931786D01*
X11426071Y-13931786D02*
X11416548Y-13969881D01*
X11416548Y-13969881D02*
X11407024Y-13988928D01*
X11407024Y-13988928D02*
X11397500Y-13998452D01*
X11397500Y-13998452D02*
X11378452Y-14007976D01*
X11378452Y-14007976D02*
X11359405Y-14007976D01*
X11359405Y-14007976D02*
X11340357Y-13998452D01*
X11340357Y-13998452D02*
X11330833Y-13988928D01*
X11330833Y-13988928D02*
X11321309Y-13969881D01*
X11321309Y-13969881D02*
X11311786Y-13931786D01*
X11311786Y-13931786D02*
X11311786Y-13884167D01*
X11311786Y-13884167D02*
X11321309Y-13846071D01*
X11321309Y-13846071D02*
X11330833Y-13827024D01*
X11330833Y-13827024D02*
X11340357Y-13817500D01*
X11340357Y-13817500D02*
X11359405Y-13807976D01*
X11549881Y-13807976D02*
X11568929Y-13807976D01*
X11568929Y-13807976D02*
X11587976Y-13817500D01*
X11587976Y-13817500D02*
X11597500Y-13827024D01*
X11597500Y-13827024D02*
X11607024Y-13846071D01*
X11607024Y-13846071D02*
X11616548Y-13884167D01*
X11616548Y-13884167D02*
X11616548Y-13931786D01*
X11616548Y-13931786D02*
X11607024Y-13969881D01*
X11607024Y-13969881D02*
X11597500Y-13988928D01*
X11597500Y-13988928D02*
X11587976Y-13998452D01*
X11587976Y-13998452D02*
X11568929Y-14007976D01*
X11568929Y-14007976D02*
X11549881Y-14007976D01*
X11549881Y-14007976D02*
X11530833Y-13998452D01*
X11530833Y-13998452D02*
X11521309Y-13988928D01*
X11521309Y-13988928D02*
X11511786Y-13969881D01*
X11511786Y-13969881D02*
X11502262Y-13931786D01*
X11502262Y-13931786D02*
X11502262Y-13884167D01*
X11502262Y-13884167D02*
X11511786Y-13846071D01*
X11511786Y-13846071D02*
X11521309Y-13827024D01*
X11521309Y-13827024D02*
X11530833Y-13817500D01*
X11530833Y-13817500D02*
X11549881Y-13807976D01*
X11702262Y-14007976D02*
X11702262Y-13874643D01*
X11702262Y-13893690D02*
X11711786Y-13884167D01*
X11711786Y-13884167D02*
X11730833Y-13874643D01*
X11730833Y-13874643D02*
X11759405Y-13874643D01*
X11759405Y-13874643D02*
X11778452Y-13884167D01*
X11778452Y-13884167D02*
X11787976Y-13903214D01*
X11787976Y-13903214D02*
X11787976Y-14007976D01*
X11787976Y-13903214D02*
X11797500Y-13884167D01*
X11797500Y-13884167D02*
X11816548Y-13874643D01*
X11816548Y-13874643D02*
X11845119Y-13874643D01*
X11845119Y-13874643D02*
X11864167Y-13884167D01*
X11864167Y-13884167D02*
X11873690Y-13903214D01*
X11873690Y-13903214D02*
X11873690Y-14007976D01*
X11968929Y-14007976D02*
X11968929Y-13874643D01*
X11968929Y-13893690D02*
X11978452Y-13884167D01*
X11978452Y-13884167D02*
X11997500Y-13874643D01*
X11997500Y-13874643D02*
X12026071Y-13874643D01*
X12026071Y-13874643D02*
X12045119Y-13884167D01*
X12045119Y-13884167D02*
X12054643Y-13903214D01*
X12054643Y-13903214D02*
X12054643Y-14007976D01*
X12054643Y-13903214D02*
X12064167Y-13884167D01*
X12064167Y-13884167D02*
X12083214Y-13874643D01*
X12083214Y-13874643D02*
X12111786Y-13874643D01*
X12111786Y-13874643D02*
X12130833Y-13884167D01*
X12130833Y-13884167D02*
X12140357Y-13903214D01*
X12140357Y-13903214D02*
X12140357Y-14007976D01*
X12498452Y-13798452D02*
X12327024Y-14055595D01*
X12723214Y-13807976D02*
X12742262Y-13807976D01*
X12742262Y-13807976D02*
X12761310Y-13817500D01*
X12761310Y-13817500D02*
X12770833Y-13827024D01*
X12770833Y-13827024D02*
X12780357Y-13846071D01*
X12780357Y-13846071D02*
X12789881Y-13884167D01*
X12789881Y-13884167D02*
X12789881Y-13931786D01*
X12789881Y-13931786D02*
X12780357Y-13969881D01*
X12780357Y-13969881D02*
X12770833Y-13988928D01*
X12770833Y-13988928D02*
X12761310Y-13998452D01*
X12761310Y-13998452D02*
X12742262Y-14007976D01*
X12742262Y-14007976D02*
X12723214Y-14007976D01*
X12723214Y-14007976D02*
X12704167Y-13998452D01*
X12704167Y-13998452D02*
X12694643Y-13988928D01*
X12694643Y-13988928D02*
X12685119Y-13969881D01*
X12685119Y-13969881D02*
X12675595Y-13931786D01*
X12675595Y-13931786D02*
X12675595Y-13884167D01*
X12675595Y-13884167D02*
X12685119Y-13846071D01*
X12685119Y-13846071D02*
X12694643Y-13827024D01*
X12694643Y-13827024D02*
X12704167Y-13817500D01*
X12704167Y-13817500D02*
X12723214Y-13807976D01*
X12875595Y-13988928D02*
X12885119Y-13998452D01*
X12885119Y-13998452D02*
X12875595Y-14007976D01*
X12875595Y-14007976D02*
X12866071Y-13998452D01*
X12866071Y-13998452D02*
X12875595Y-13988928D01*
X12875595Y-13988928D02*
X12875595Y-14007976D01*
X13008929Y-13807976D02*
X13027976Y-13807976D01*
X13027976Y-13807976D02*
X13047024Y-13817500D01*
X13047024Y-13817500D02*
X13056548Y-13827024D01*
X13056548Y-13827024D02*
X13066071Y-13846071D01*
X13066071Y-13846071D02*
X13075595Y-13884167D01*
X13075595Y-13884167D02*
X13075595Y-13931786D01*
X13075595Y-13931786D02*
X13066071Y-13969881D01*
X13066071Y-13969881D02*
X13056548Y-13988928D01*
X13056548Y-13988928D02*
X13047024Y-13998452D01*
X13047024Y-13998452D02*
X13027976Y-14007976D01*
X13027976Y-14007976D02*
X13008929Y-14007976D01*
X13008929Y-14007976D02*
X12989881Y-13998452D01*
X12989881Y-13998452D02*
X12980357Y-13988928D01*
X12980357Y-13988928D02*
X12970833Y-13969881D01*
X12970833Y-13969881D02*
X12961310Y-13931786D01*
X12961310Y-13931786D02*
X12961310Y-13884167D01*
X12961310Y-13884167D02*
X12970833Y-13846071D01*
X12970833Y-13846071D02*
X12980357Y-13827024D01*
X12980357Y-13827024D02*
X12989881Y-13817500D01*
X12989881Y-13817500D02*
X13008929Y-13807976D01*
X13266071Y-14007976D02*
X13151786Y-14007976D01*
X13208929Y-14007976D02*
X13208929Y-13807976D01*
X13208929Y-13807976D02*
X13189881Y-13836548D01*
X13189881Y-13836548D02*
X13170833Y-13855595D01*
X13170833Y-13855595D02*
X13151786Y-13865119D01*
X13447024Y-13807976D02*
X13351786Y-13807976D01*
X13351786Y-13807976D02*
X13342262Y-13903214D01*
X13342262Y-13903214D02*
X13351786Y-13893690D01*
X13351786Y-13893690D02*
X13370833Y-13884167D01*
X13370833Y-13884167D02*
X13418452Y-13884167D01*
X13418452Y-13884167D02*
X13437500Y-13893690D01*
X13437500Y-13893690D02*
X13447024Y-13903214D01*
X13447024Y-13903214D02*
X13456548Y-13922262D01*
X13456548Y-13922262D02*
X13456548Y-13969881D01*
X13456548Y-13969881D02*
X13447024Y-13988928D01*
X13447024Y-13988928D02*
X13437500Y-13998452D01*
X13437500Y-13998452D02*
X13418452Y-14007976D01*
X13418452Y-14007976D02*
X13370833Y-14007976D01*
X13370833Y-14007976D02*
X13351786Y-13998452D01*
X13351786Y-13998452D02*
X13342262Y-13988928D01*
X13523214Y-13807976D02*
X13656548Y-13807976D01*
X13656548Y-13807976D02*
X13570833Y-14007976D01*
X13723214Y-13807976D02*
X13723214Y-13846071D01*
X13799405Y-13807976D02*
X13799405Y-13846071D01*
X14062262Y-14084167D02*
X14052738Y-14074643D01*
X14052738Y-14074643D02*
X14033691Y-14046071D01*
X14033691Y-14046071D02*
X14024167Y-14027024D01*
X14024167Y-14027024D02*
X14014643Y-13998452D01*
X14014643Y-13998452D02*
X14005119Y-13950833D01*
X14005119Y-13950833D02*
X14005119Y-13912738D01*
X14005119Y-13912738D02*
X14014643Y-13865119D01*
X14014643Y-13865119D02*
X14024167Y-13836548D01*
X14024167Y-13836548D02*
X14033691Y-13817500D01*
X14033691Y-13817500D02*
X14052738Y-13788928D01*
X14052738Y-13788928D02*
X14062262Y-13779405D01*
X14119405Y-13807976D02*
X14252738Y-13807976D01*
X14252738Y-13807976D02*
X14167024Y-14007976D01*
X14448929Y-14007976D02*
X14448929Y-13807976D01*
X14534643Y-14007976D02*
X14534643Y-13903214D01*
X14534643Y-13903214D02*
X14525119Y-13884167D01*
X14525119Y-13884167D02*
X14506072Y-13874643D01*
X14506072Y-13874643D02*
X14477500Y-13874643D01*
X14477500Y-13874643D02*
X14458452Y-13884167D01*
X14458452Y-13884167D02*
X14448929Y-13893690D01*
X14658452Y-14007976D02*
X14639405Y-13998452D01*
X14639405Y-13998452D02*
X14629881Y-13988928D01*
X14629881Y-13988928D02*
X14620357Y-13969881D01*
X14620357Y-13969881D02*
X14620357Y-13912738D01*
X14620357Y-13912738D02*
X14629881Y-13893690D01*
X14629881Y-13893690D02*
X14639405Y-13884167D01*
X14639405Y-13884167D02*
X14658452Y-13874643D01*
X14658452Y-13874643D02*
X14687024Y-13874643D01*
X14687024Y-13874643D02*
X14706072Y-13884167D01*
X14706072Y-13884167D02*
X14715595Y-13893690D01*
X14715595Y-13893690D02*
X14725119Y-13912738D01*
X14725119Y-13912738D02*
X14725119Y-13969881D01*
X14725119Y-13969881D02*
X14715595Y-13988928D01*
X14715595Y-13988928D02*
X14706072Y-13998452D01*
X14706072Y-13998452D02*
X14687024Y-14007976D01*
X14687024Y-14007976D02*
X14658452Y-14007976D01*
X14839405Y-14007976D02*
X14820357Y-13998452D01*
X14820357Y-13998452D02*
X14810833Y-13979405D01*
X14810833Y-13979405D02*
X14810833Y-13807976D01*
X14991786Y-13998452D02*
X14972738Y-14007976D01*
X14972738Y-14007976D02*
X14934643Y-14007976D01*
X14934643Y-14007976D02*
X14915595Y-13998452D01*
X14915595Y-13998452D02*
X14906072Y-13979405D01*
X14906072Y-13979405D02*
X14906072Y-13903214D01*
X14906072Y-13903214D02*
X14915595Y-13884167D01*
X14915595Y-13884167D02*
X14934643Y-13874643D01*
X14934643Y-13874643D02*
X14972738Y-13874643D01*
X14972738Y-13874643D02*
X14991786Y-13884167D01*
X14991786Y-13884167D02*
X15001310Y-13903214D01*
X15001310Y-13903214D02*
X15001310Y-13922262D01*
X15001310Y-13922262D02*
X14906072Y-13941309D01*
X15077500Y-13998452D02*
X15096548Y-14007976D01*
X15096548Y-14007976D02*
X15134643Y-14007976D01*
X15134643Y-14007976D02*
X15153691Y-13998452D01*
X15153691Y-13998452D02*
X15163214Y-13979405D01*
X15163214Y-13979405D02*
X15163214Y-13969881D01*
X15163214Y-13969881D02*
X15153691Y-13950833D01*
X15153691Y-13950833D02*
X15134643Y-13941309D01*
X15134643Y-13941309D02*
X15106072Y-13941309D01*
X15106072Y-13941309D02*
X15087024Y-13931786D01*
X15087024Y-13931786D02*
X15077500Y-13912738D01*
X15077500Y-13912738D02*
X15077500Y-13903214D01*
X15077500Y-13903214D02*
X15087024Y-13884167D01*
X15087024Y-13884167D02*
X15106072Y-13874643D01*
X15106072Y-13874643D02*
X15134643Y-13874643D01*
X15134643Y-13874643D02*
X15153691Y-13884167D01*
X15229881Y-14084167D02*
X15239405Y-14074643D01*
X15239405Y-14074643D02*
X15258453Y-14046071D01*
X15258453Y-14046071D02*
X15267976Y-14027024D01*
X15267976Y-14027024D02*
X15277500Y-13998452D01*
X15277500Y-13998452D02*
X15287024Y-13950833D01*
X15287024Y-13950833D02*
X15287024Y-13912738D01*
X15287024Y-13912738D02*
X15277500Y-13865119D01*
X15277500Y-13865119D02*
X15267976Y-13836548D01*
X15267976Y-13836548D02*
X15258453Y-13817500D01*
X15258453Y-13817500D02*
X15239405Y-13788928D01*
X15239405Y-13788928D02*
X15229881Y-13779405D01*
D10*
X10572500Y-14223500D02*
X10597500Y-14198500D01*
X10572500Y-14173500D01*
X10547500Y-14198500D01*
X10572500Y-14223500D01*
D11*
X10883214Y-14071976D02*
X10902262Y-14071976D01*
X10902262Y-14071976D02*
X10921310Y-14081500D01*
X10921310Y-14081500D02*
X10930833Y-14091024D01*
X10930833Y-14091024D02*
X10940357Y-14110071D01*
X10940357Y-14110071D02*
X10949881Y-14148167D01*
X10949881Y-14148167D02*
X10949881Y-14195786D01*
X10949881Y-14195786D02*
X10940357Y-14233881D01*
X10940357Y-14233881D02*
X10930833Y-14252928D01*
X10930833Y-14252928D02*
X10921310Y-14262452D01*
X10921310Y-14262452D02*
X10902262Y-14271976D01*
X10902262Y-14271976D02*
X10883214Y-14271976D01*
X10883214Y-14271976D02*
X10864167Y-14262452D01*
X10864167Y-14262452D02*
X10854643Y-14252928D01*
X10854643Y-14252928D02*
X10845119Y-14233881D01*
X10845119Y-14233881D02*
X10835595Y-14195786D01*
X10835595Y-14195786D02*
X10835595Y-14148167D01*
X10835595Y-14148167D02*
X10845119Y-14110071D01*
X10845119Y-14110071D02*
X10854643Y-14091024D01*
X10854643Y-14091024D02*
X10864167Y-14081500D01*
X10864167Y-14081500D02*
X10883214Y-14071976D01*
X11035595Y-14252928D02*
X11045119Y-14262452D01*
X11045119Y-14262452D02*
X11035595Y-14271976D01*
X11035595Y-14271976D02*
X11026071Y-14262452D01*
X11026071Y-14262452D02*
X11035595Y-14252928D01*
X11035595Y-14252928D02*
X11035595Y-14271976D01*
X11226071Y-14071976D02*
X11130833Y-14071976D01*
X11130833Y-14071976D02*
X11121310Y-14167214D01*
X11121310Y-14167214D02*
X11130833Y-14157690D01*
X11130833Y-14157690D02*
X11149881Y-14148167D01*
X11149881Y-14148167D02*
X11197500Y-14148167D01*
X11197500Y-14148167D02*
X11216548Y-14157690D01*
X11216548Y-14157690D02*
X11226071Y-14167214D01*
X11226071Y-14167214D02*
X11235595Y-14186262D01*
X11235595Y-14186262D02*
X11235595Y-14233881D01*
X11235595Y-14233881D02*
X11226071Y-14252928D01*
X11226071Y-14252928D02*
X11216548Y-14262452D01*
X11216548Y-14262452D02*
X11197500Y-14271976D01*
X11197500Y-14271976D02*
X11149881Y-14271976D01*
X11149881Y-14271976D02*
X11130833Y-14262452D01*
X11130833Y-14262452D02*
X11121310Y-14252928D01*
X11359405Y-14071976D02*
X11378452Y-14071976D01*
X11378452Y-14071976D02*
X11397500Y-14081500D01*
X11397500Y-14081500D02*
X11407024Y-14091024D01*
X11407024Y-14091024D02*
X11416548Y-14110071D01*
X11416548Y-14110071D02*
X11426071Y-14148167D01*
X11426071Y-14148167D02*
X11426071Y-14195786D01*
X11426071Y-14195786D02*
X11416548Y-14233881D01*
X11416548Y-14233881D02*
X11407024Y-14252928D01*
X11407024Y-14252928D02*
X11397500Y-14262452D01*
X11397500Y-14262452D02*
X11378452Y-14271976D01*
X11378452Y-14271976D02*
X11359405Y-14271976D01*
X11359405Y-14271976D02*
X11340357Y-14262452D01*
X11340357Y-14262452D02*
X11330833Y-14252928D01*
X11330833Y-14252928D02*
X11321309Y-14233881D01*
X11321309Y-14233881D02*
X11311786Y-14195786D01*
X11311786Y-14195786D02*
X11311786Y-14148167D01*
X11311786Y-14148167D02*
X11321309Y-14110071D01*
X11321309Y-14110071D02*
X11330833Y-14091024D01*
X11330833Y-14091024D02*
X11340357Y-14081500D01*
X11340357Y-14081500D02*
X11359405Y-14071976D01*
X11549881Y-14071976D02*
X11568929Y-14071976D01*
X11568929Y-14071976D02*
X11587976Y-14081500D01*
X11587976Y-14081500D02*
X11597500Y-14091024D01*
X11597500Y-14091024D02*
X11607024Y-14110071D01*
X11607024Y-14110071D02*
X11616548Y-14148167D01*
X11616548Y-14148167D02*
X11616548Y-14195786D01*
X11616548Y-14195786D02*
X11607024Y-14233881D01*
X11607024Y-14233881D02*
X11597500Y-14252928D01*
X11597500Y-14252928D02*
X11587976Y-14262452D01*
X11587976Y-14262452D02*
X11568929Y-14271976D01*
X11568929Y-14271976D02*
X11549881Y-14271976D01*
X11549881Y-14271976D02*
X11530833Y-14262452D01*
X11530833Y-14262452D02*
X11521309Y-14252928D01*
X11521309Y-14252928D02*
X11511786Y-14233881D01*
X11511786Y-14233881D02*
X11502262Y-14195786D01*
X11502262Y-14195786D02*
X11502262Y-14148167D01*
X11502262Y-14148167D02*
X11511786Y-14110071D01*
X11511786Y-14110071D02*
X11521309Y-14091024D01*
X11521309Y-14091024D02*
X11530833Y-14081500D01*
X11530833Y-14081500D02*
X11549881Y-14071976D01*
X11702262Y-14271976D02*
X11702262Y-14138643D01*
X11702262Y-14157690D02*
X11711786Y-14148167D01*
X11711786Y-14148167D02*
X11730833Y-14138643D01*
X11730833Y-14138643D02*
X11759405Y-14138643D01*
X11759405Y-14138643D02*
X11778452Y-14148167D01*
X11778452Y-14148167D02*
X11787976Y-14167214D01*
X11787976Y-14167214D02*
X11787976Y-14271976D01*
X11787976Y-14167214D02*
X11797500Y-14148167D01*
X11797500Y-14148167D02*
X11816548Y-14138643D01*
X11816548Y-14138643D02*
X11845119Y-14138643D01*
X11845119Y-14138643D02*
X11864167Y-14148167D01*
X11864167Y-14148167D02*
X11873690Y-14167214D01*
X11873690Y-14167214D02*
X11873690Y-14271976D01*
X11968929Y-14271976D02*
X11968929Y-14138643D01*
X11968929Y-14157690D02*
X11978452Y-14148167D01*
X11978452Y-14148167D02*
X11997500Y-14138643D01*
X11997500Y-14138643D02*
X12026071Y-14138643D01*
X12026071Y-14138643D02*
X12045119Y-14148167D01*
X12045119Y-14148167D02*
X12054643Y-14167214D01*
X12054643Y-14167214D02*
X12054643Y-14271976D01*
X12054643Y-14167214D02*
X12064167Y-14148167D01*
X12064167Y-14148167D02*
X12083214Y-14138643D01*
X12083214Y-14138643D02*
X12111786Y-14138643D01*
X12111786Y-14138643D02*
X12130833Y-14148167D01*
X12130833Y-14148167D02*
X12140357Y-14167214D01*
X12140357Y-14167214D02*
X12140357Y-14271976D01*
X12498452Y-14062452D02*
X12327024Y-14319595D01*
X12723214Y-14071976D02*
X12742262Y-14071976D01*
X12742262Y-14071976D02*
X12761310Y-14081500D01*
X12761310Y-14081500D02*
X12770833Y-14091024D01*
X12770833Y-14091024D02*
X12780357Y-14110071D01*
X12780357Y-14110071D02*
X12789881Y-14148167D01*
X12789881Y-14148167D02*
X12789881Y-14195786D01*
X12789881Y-14195786D02*
X12780357Y-14233881D01*
X12780357Y-14233881D02*
X12770833Y-14252928D01*
X12770833Y-14252928D02*
X12761310Y-14262452D01*
X12761310Y-14262452D02*
X12742262Y-14271976D01*
X12742262Y-14271976D02*
X12723214Y-14271976D01*
X12723214Y-14271976D02*
X12704167Y-14262452D01*
X12704167Y-14262452D02*
X12694643Y-14252928D01*
X12694643Y-14252928D02*
X12685119Y-14233881D01*
X12685119Y-14233881D02*
X12675595Y-14195786D01*
X12675595Y-14195786D02*
X12675595Y-14148167D01*
X12675595Y-14148167D02*
X12685119Y-14110071D01*
X12685119Y-14110071D02*
X12694643Y-14091024D01*
X12694643Y-14091024D02*
X12704167Y-14081500D01*
X12704167Y-14081500D02*
X12723214Y-14071976D01*
X12875595Y-14252928D02*
X12885119Y-14262452D01*
X12885119Y-14262452D02*
X12875595Y-14271976D01*
X12875595Y-14271976D02*
X12866071Y-14262452D01*
X12866071Y-14262452D02*
X12875595Y-14252928D01*
X12875595Y-14252928D02*
X12875595Y-14271976D01*
X13008929Y-14071976D02*
X13027976Y-14071976D01*
X13027976Y-14071976D02*
X13047024Y-14081500D01*
X13047024Y-14081500D02*
X13056548Y-14091024D01*
X13056548Y-14091024D02*
X13066071Y-14110071D01*
X13066071Y-14110071D02*
X13075595Y-14148167D01*
X13075595Y-14148167D02*
X13075595Y-14195786D01*
X13075595Y-14195786D02*
X13066071Y-14233881D01*
X13066071Y-14233881D02*
X13056548Y-14252928D01*
X13056548Y-14252928D02*
X13047024Y-14262452D01*
X13047024Y-14262452D02*
X13027976Y-14271976D01*
X13027976Y-14271976D02*
X13008929Y-14271976D01*
X13008929Y-14271976D02*
X12989881Y-14262452D01*
X12989881Y-14262452D02*
X12980357Y-14252928D01*
X12980357Y-14252928D02*
X12970833Y-14233881D01*
X12970833Y-14233881D02*
X12961310Y-14195786D01*
X12961310Y-14195786D02*
X12961310Y-14148167D01*
X12961310Y-14148167D02*
X12970833Y-14110071D01*
X12970833Y-14110071D02*
X12980357Y-14091024D01*
X12980357Y-14091024D02*
X12989881Y-14081500D01*
X12989881Y-14081500D02*
X13008929Y-14071976D01*
X13266071Y-14271976D02*
X13151786Y-14271976D01*
X13208929Y-14271976D02*
X13208929Y-14071976D01*
X13208929Y-14071976D02*
X13189881Y-14100548D01*
X13189881Y-14100548D02*
X13170833Y-14119595D01*
X13170833Y-14119595D02*
X13151786Y-14129119D01*
X13361310Y-14271976D02*
X13399405Y-14271976D01*
X13399405Y-14271976D02*
X13418452Y-14262452D01*
X13418452Y-14262452D02*
X13427976Y-14252928D01*
X13427976Y-14252928D02*
X13447024Y-14224357D01*
X13447024Y-14224357D02*
X13456548Y-14186262D01*
X13456548Y-14186262D02*
X13456548Y-14110071D01*
X13456548Y-14110071D02*
X13447024Y-14091024D01*
X13447024Y-14091024D02*
X13437500Y-14081500D01*
X13437500Y-14081500D02*
X13418452Y-14071976D01*
X13418452Y-14071976D02*
X13380357Y-14071976D01*
X13380357Y-14071976D02*
X13361310Y-14081500D01*
X13361310Y-14081500D02*
X13351786Y-14091024D01*
X13351786Y-14091024D02*
X13342262Y-14110071D01*
X13342262Y-14110071D02*
X13342262Y-14157690D01*
X13342262Y-14157690D02*
X13351786Y-14176738D01*
X13351786Y-14176738D02*
X13361310Y-14186262D01*
X13361310Y-14186262D02*
X13380357Y-14195786D01*
X13380357Y-14195786D02*
X13418452Y-14195786D01*
X13418452Y-14195786D02*
X13437500Y-14186262D01*
X13437500Y-14186262D02*
X13447024Y-14176738D01*
X13447024Y-14176738D02*
X13456548Y-14157690D01*
X13523214Y-14071976D02*
X13656548Y-14071976D01*
X13656548Y-14071976D02*
X13570833Y-14271976D01*
X13723214Y-14071976D02*
X13723214Y-14110071D01*
X13799405Y-14071976D02*
X13799405Y-14110071D01*
X14062262Y-14348167D02*
X14052738Y-14338643D01*
X14052738Y-14338643D02*
X14033691Y-14310071D01*
X14033691Y-14310071D02*
X14024167Y-14291024D01*
X14024167Y-14291024D02*
X14014643Y-14262452D01*
X14014643Y-14262452D02*
X14005119Y-14214833D01*
X14005119Y-14214833D02*
X14005119Y-14176738D01*
X14005119Y-14176738D02*
X14014643Y-14129119D01*
X14014643Y-14129119D02*
X14024167Y-14100548D01*
X14024167Y-14100548D02*
X14033691Y-14081500D01*
X14033691Y-14081500D02*
X14052738Y-14052928D01*
X14052738Y-14052928D02*
X14062262Y-14043405D01*
X14224167Y-14071976D02*
X14186071Y-14071976D01*
X14186071Y-14071976D02*
X14167024Y-14081500D01*
X14167024Y-14081500D02*
X14157500Y-14091024D01*
X14157500Y-14091024D02*
X14138452Y-14119595D01*
X14138452Y-14119595D02*
X14128929Y-14157690D01*
X14128929Y-14157690D02*
X14128929Y-14233881D01*
X14128929Y-14233881D02*
X14138452Y-14252928D01*
X14138452Y-14252928D02*
X14147976Y-14262452D01*
X14147976Y-14262452D02*
X14167024Y-14271976D01*
X14167024Y-14271976D02*
X14205119Y-14271976D01*
X14205119Y-14271976D02*
X14224167Y-14262452D01*
X14224167Y-14262452D02*
X14233691Y-14252928D01*
X14233691Y-14252928D02*
X14243214Y-14233881D01*
X14243214Y-14233881D02*
X14243214Y-14186262D01*
X14243214Y-14186262D02*
X14233691Y-14167214D01*
X14233691Y-14167214D02*
X14224167Y-14157690D01*
X14224167Y-14157690D02*
X14205119Y-14148167D01*
X14205119Y-14148167D02*
X14167024Y-14148167D01*
X14167024Y-14148167D02*
X14147976Y-14157690D01*
X14147976Y-14157690D02*
X14138452Y-14167214D01*
X14138452Y-14167214D02*
X14128929Y-14186262D01*
X14414643Y-14071976D02*
X14376548Y-14071976D01*
X14376548Y-14071976D02*
X14357500Y-14081500D01*
X14357500Y-14081500D02*
X14347976Y-14091024D01*
X14347976Y-14091024D02*
X14328929Y-14119595D01*
X14328929Y-14119595D02*
X14319405Y-14157690D01*
X14319405Y-14157690D02*
X14319405Y-14233881D01*
X14319405Y-14233881D02*
X14328929Y-14252928D01*
X14328929Y-14252928D02*
X14338452Y-14262452D01*
X14338452Y-14262452D02*
X14357500Y-14271976D01*
X14357500Y-14271976D02*
X14395595Y-14271976D01*
X14395595Y-14271976D02*
X14414643Y-14262452D01*
X14414643Y-14262452D02*
X14424167Y-14252928D01*
X14424167Y-14252928D02*
X14433691Y-14233881D01*
X14433691Y-14233881D02*
X14433691Y-14186262D01*
X14433691Y-14186262D02*
X14424167Y-14167214D01*
X14424167Y-14167214D02*
X14414643Y-14157690D01*
X14414643Y-14157690D02*
X14395595Y-14148167D01*
X14395595Y-14148167D02*
X14357500Y-14148167D01*
X14357500Y-14148167D02*
X14338452Y-14157690D01*
X14338452Y-14157690D02*
X14328929Y-14167214D01*
X14328929Y-14167214D02*
X14319405Y-14186262D01*
X14639405Y-14271976D02*
X14639405Y-14071976D01*
X14725119Y-14271976D02*
X14725119Y-14167214D01*
X14725119Y-14167214D02*
X14715595Y-14148167D01*
X14715595Y-14148167D02*
X14696548Y-14138643D01*
X14696548Y-14138643D02*
X14667976Y-14138643D01*
X14667976Y-14138643D02*
X14648929Y-14148167D01*
X14648929Y-14148167D02*
X14639405Y-14157690D01*
X14848929Y-14271976D02*
X14829881Y-14262452D01*
X14829881Y-14262452D02*
X14820357Y-14252928D01*
X14820357Y-14252928D02*
X14810833Y-14233881D01*
X14810833Y-14233881D02*
X14810833Y-14176738D01*
X14810833Y-14176738D02*
X14820357Y-14157690D01*
X14820357Y-14157690D02*
X14829881Y-14148167D01*
X14829881Y-14148167D02*
X14848929Y-14138643D01*
X14848929Y-14138643D02*
X14877500Y-14138643D01*
X14877500Y-14138643D02*
X14896548Y-14148167D01*
X14896548Y-14148167D02*
X14906072Y-14157690D01*
X14906072Y-14157690D02*
X14915595Y-14176738D01*
X14915595Y-14176738D02*
X14915595Y-14233881D01*
X14915595Y-14233881D02*
X14906072Y-14252928D01*
X14906072Y-14252928D02*
X14896548Y-14262452D01*
X14896548Y-14262452D02*
X14877500Y-14271976D01*
X14877500Y-14271976D02*
X14848929Y-14271976D01*
X15029881Y-14271976D02*
X15010833Y-14262452D01*
X15010833Y-14262452D02*
X15001310Y-14243405D01*
X15001310Y-14243405D02*
X15001310Y-14071976D01*
X15182262Y-14262452D02*
X15163214Y-14271976D01*
X15163214Y-14271976D02*
X15125119Y-14271976D01*
X15125119Y-14271976D02*
X15106072Y-14262452D01*
X15106072Y-14262452D02*
X15096548Y-14243405D01*
X15096548Y-14243405D02*
X15096548Y-14167214D01*
X15096548Y-14167214D02*
X15106072Y-14148167D01*
X15106072Y-14148167D02*
X15125119Y-14138643D01*
X15125119Y-14138643D02*
X15163214Y-14138643D01*
X15163214Y-14138643D02*
X15182262Y-14148167D01*
X15182262Y-14148167D02*
X15191786Y-14167214D01*
X15191786Y-14167214D02*
X15191786Y-14186262D01*
X15191786Y-14186262D02*
X15096548Y-14205309D01*
X15267976Y-14262452D02*
X15287024Y-14271976D01*
X15287024Y-14271976D02*
X15325119Y-14271976D01*
X15325119Y-14271976D02*
X15344167Y-14262452D01*
X15344167Y-14262452D02*
X15353691Y-14243405D01*
X15353691Y-14243405D02*
X15353691Y-14233881D01*
X15353691Y-14233881D02*
X15344167Y-14214833D01*
X15344167Y-14214833D02*
X15325119Y-14205309D01*
X15325119Y-14205309D02*
X15296548Y-14205309D01*
X15296548Y-14205309D02*
X15277500Y-14195786D01*
X15277500Y-14195786D02*
X15267976Y-14176738D01*
X15267976Y-14176738D02*
X15267976Y-14167214D01*
X15267976Y-14167214D02*
X15277500Y-14148167D01*
X15277500Y-14148167D02*
X15296548Y-14138643D01*
X15296548Y-14138643D02*
X15325119Y-14138643D01*
X15325119Y-14138643D02*
X15344167Y-14148167D01*
X15420357Y-14348167D02*
X15429881Y-14338643D01*
X15429881Y-14338643D02*
X15448929Y-14310071D01*
X15448929Y-14310071D02*
X15458453Y-14291024D01*
X15458453Y-14291024D02*
X15467976Y-14262452D01*
X15467976Y-14262452D02*
X15477500Y-14214833D01*
X15477500Y-14214833D02*
X15477500Y-14176738D01*
X15477500Y-14176738D02*
X15467976Y-14129119D01*
X15467976Y-14129119D02*
X15458453Y-14100548D01*
X15458453Y-14100548D02*
X15448929Y-14081500D01*
X15448929Y-14081500D02*
X15429881Y-14052928D01*
X15429881Y-14052928D02*
X15420357Y-14043405D01*
D16*
X10537500Y-14432500D02*
X10597500Y-14492500D01*
X10597500Y-14432500D02*
X10537500Y-14492500D01*
X10597500Y-14462500D02*
G75*
G03*
X10597500Y-14462500I-30000J0D01*
G01*
D11*
X10883214Y-14335976D02*
X10902262Y-14335976D01*
X10902262Y-14335976D02*
X10921310Y-14345500D01*
X10921310Y-14345500D02*
X10930833Y-14355024D01*
X10930833Y-14355024D02*
X10940357Y-14374071D01*
X10940357Y-14374071D02*
X10949881Y-14412167D01*
X10949881Y-14412167D02*
X10949881Y-14459786D01*
X10949881Y-14459786D02*
X10940357Y-14497881D01*
X10940357Y-14497881D02*
X10930833Y-14516928D01*
X10930833Y-14516928D02*
X10921310Y-14526452D01*
X10921310Y-14526452D02*
X10902262Y-14535976D01*
X10902262Y-14535976D02*
X10883214Y-14535976D01*
X10883214Y-14535976D02*
X10864167Y-14526452D01*
X10864167Y-14526452D02*
X10854643Y-14516928D01*
X10854643Y-14516928D02*
X10845119Y-14497881D01*
X10845119Y-14497881D02*
X10835595Y-14459786D01*
X10835595Y-14459786D02*
X10835595Y-14412167D01*
X10835595Y-14412167D02*
X10845119Y-14374071D01*
X10845119Y-14374071D02*
X10854643Y-14355024D01*
X10854643Y-14355024D02*
X10864167Y-14345500D01*
X10864167Y-14345500D02*
X10883214Y-14335976D01*
X11035595Y-14516928D02*
X11045119Y-14526452D01*
X11045119Y-14526452D02*
X11035595Y-14535976D01*
X11035595Y-14535976D02*
X11026071Y-14526452D01*
X11026071Y-14526452D02*
X11035595Y-14516928D01*
X11035595Y-14516928D02*
X11035595Y-14535976D01*
X11216548Y-14335976D02*
X11178452Y-14335976D01*
X11178452Y-14335976D02*
X11159405Y-14345500D01*
X11159405Y-14345500D02*
X11149881Y-14355024D01*
X11149881Y-14355024D02*
X11130833Y-14383595D01*
X11130833Y-14383595D02*
X11121310Y-14421690D01*
X11121310Y-14421690D02*
X11121310Y-14497881D01*
X11121310Y-14497881D02*
X11130833Y-14516928D01*
X11130833Y-14516928D02*
X11140357Y-14526452D01*
X11140357Y-14526452D02*
X11159405Y-14535976D01*
X11159405Y-14535976D02*
X11197500Y-14535976D01*
X11197500Y-14535976D02*
X11216548Y-14526452D01*
X11216548Y-14526452D02*
X11226071Y-14516928D01*
X11226071Y-14516928D02*
X11235595Y-14497881D01*
X11235595Y-14497881D02*
X11235595Y-14450262D01*
X11235595Y-14450262D02*
X11226071Y-14431214D01*
X11226071Y-14431214D02*
X11216548Y-14421690D01*
X11216548Y-14421690D02*
X11197500Y-14412167D01*
X11197500Y-14412167D02*
X11159405Y-14412167D01*
X11159405Y-14412167D02*
X11140357Y-14421690D01*
X11140357Y-14421690D02*
X11130833Y-14431214D01*
X11130833Y-14431214D02*
X11121310Y-14450262D01*
X11359405Y-14335976D02*
X11378452Y-14335976D01*
X11378452Y-14335976D02*
X11397500Y-14345500D01*
X11397500Y-14345500D02*
X11407024Y-14355024D01*
X11407024Y-14355024D02*
X11416548Y-14374071D01*
X11416548Y-14374071D02*
X11426071Y-14412167D01*
X11426071Y-14412167D02*
X11426071Y-14459786D01*
X11426071Y-14459786D02*
X11416548Y-14497881D01*
X11416548Y-14497881D02*
X11407024Y-14516928D01*
X11407024Y-14516928D02*
X11397500Y-14526452D01*
X11397500Y-14526452D02*
X11378452Y-14535976D01*
X11378452Y-14535976D02*
X11359405Y-14535976D01*
X11359405Y-14535976D02*
X11340357Y-14526452D01*
X11340357Y-14526452D02*
X11330833Y-14516928D01*
X11330833Y-14516928D02*
X11321309Y-14497881D01*
X11321309Y-14497881D02*
X11311786Y-14459786D01*
X11311786Y-14459786D02*
X11311786Y-14412167D01*
X11311786Y-14412167D02*
X11321309Y-14374071D01*
X11321309Y-14374071D02*
X11330833Y-14355024D01*
X11330833Y-14355024D02*
X11340357Y-14345500D01*
X11340357Y-14345500D02*
X11359405Y-14335976D01*
X11549881Y-14335976D02*
X11568929Y-14335976D01*
X11568929Y-14335976D02*
X11587976Y-14345500D01*
X11587976Y-14345500D02*
X11597500Y-14355024D01*
X11597500Y-14355024D02*
X11607024Y-14374071D01*
X11607024Y-14374071D02*
X11616548Y-14412167D01*
X11616548Y-14412167D02*
X11616548Y-14459786D01*
X11616548Y-14459786D02*
X11607024Y-14497881D01*
X11607024Y-14497881D02*
X11597500Y-14516928D01*
X11597500Y-14516928D02*
X11587976Y-14526452D01*
X11587976Y-14526452D02*
X11568929Y-14535976D01*
X11568929Y-14535976D02*
X11549881Y-14535976D01*
X11549881Y-14535976D02*
X11530833Y-14526452D01*
X11530833Y-14526452D02*
X11521309Y-14516928D01*
X11521309Y-14516928D02*
X11511786Y-14497881D01*
X11511786Y-14497881D02*
X11502262Y-14459786D01*
X11502262Y-14459786D02*
X11502262Y-14412167D01*
X11502262Y-14412167D02*
X11511786Y-14374071D01*
X11511786Y-14374071D02*
X11521309Y-14355024D01*
X11521309Y-14355024D02*
X11530833Y-14345500D01*
X11530833Y-14345500D02*
X11549881Y-14335976D01*
X11702262Y-14535976D02*
X11702262Y-14402643D01*
X11702262Y-14421690D02*
X11711786Y-14412167D01*
X11711786Y-14412167D02*
X11730833Y-14402643D01*
X11730833Y-14402643D02*
X11759405Y-14402643D01*
X11759405Y-14402643D02*
X11778452Y-14412167D01*
X11778452Y-14412167D02*
X11787976Y-14431214D01*
X11787976Y-14431214D02*
X11787976Y-14535976D01*
X11787976Y-14431214D02*
X11797500Y-14412167D01*
X11797500Y-14412167D02*
X11816548Y-14402643D01*
X11816548Y-14402643D02*
X11845119Y-14402643D01*
X11845119Y-14402643D02*
X11864167Y-14412167D01*
X11864167Y-14412167D02*
X11873690Y-14431214D01*
X11873690Y-14431214D02*
X11873690Y-14535976D01*
X11968929Y-14535976D02*
X11968929Y-14402643D01*
X11968929Y-14421690D02*
X11978452Y-14412167D01*
X11978452Y-14412167D02*
X11997500Y-14402643D01*
X11997500Y-14402643D02*
X12026071Y-14402643D01*
X12026071Y-14402643D02*
X12045119Y-14412167D01*
X12045119Y-14412167D02*
X12054643Y-14431214D01*
X12054643Y-14431214D02*
X12054643Y-14535976D01*
X12054643Y-14431214D02*
X12064167Y-14412167D01*
X12064167Y-14412167D02*
X12083214Y-14402643D01*
X12083214Y-14402643D02*
X12111786Y-14402643D01*
X12111786Y-14402643D02*
X12130833Y-14412167D01*
X12130833Y-14412167D02*
X12140357Y-14431214D01*
X12140357Y-14431214D02*
X12140357Y-14535976D01*
X12498452Y-14326452D02*
X12327024Y-14583595D01*
X12723214Y-14335976D02*
X12742262Y-14335976D01*
X12742262Y-14335976D02*
X12761310Y-14345500D01*
X12761310Y-14345500D02*
X12770833Y-14355024D01*
X12770833Y-14355024D02*
X12780357Y-14374071D01*
X12780357Y-14374071D02*
X12789881Y-14412167D01*
X12789881Y-14412167D02*
X12789881Y-14459786D01*
X12789881Y-14459786D02*
X12780357Y-14497881D01*
X12780357Y-14497881D02*
X12770833Y-14516928D01*
X12770833Y-14516928D02*
X12761310Y-14526452D01*
X12761310Y-14526452D02*
X12742262Y-14535976D01*
X12742262Y-14535976D02*
X12723214Y-14535976D01*
X12723214Y-14535976D02*
X12704167Y-14526452D01*
X12704167Y-14526452D02*
X12694643Y-14516928D01*
X12694643Y-14516928D02*
X12685119Y-14497881D01*
X12685119Y-14497881D02*
X12675595Y-14459786D01*
X12675595Y-14459786D02*
X12675595Y-14412167D01*
X12675595Y-14412167D02*
X12685119Y-14374071D01*
X12685119Y-14374071D02*
X12694643Y-14355024D01*
X12694643Y-14355024D02*
X12704167Y-14345500D01*
X12704167Y-14345500D02*
X12723214Y-14335976D01*
X12875595Y-14516928D02*
X12885119Y-14526452D01*
X12885119Y-14526452D02*
X12875595Y-14535976D01*
X12875595Y-14535976D02*
X12866071Y-14526452D01*
X12866071Y-14526452D02*
X12875595Y-14516928D01*
X12875595Y-14516928D02*
X12875595Y-14535976D01*
X13008929Y-14335976D02*
X13027976Y-14335976D01*
X13027976Y-14335976D02*
X13047024Y-14345500D01*
X13047024Y-14345500D02*
X13056548Y-14355024D01*
X13056548Y-14355024D02*
X13066071Y-14374071D01*
X13066071Y-14374071D02*
X13075595Y-14412167D01*
X13075595Y-14412167D02*
X13075595Y-14459786D01*
X13075595Y-14459786D02*
X13066071Y-14497881D01*
X13066071Y-14497881D02*
X13056548Y-14516928D01*
X13056548Y-14516928D02*
X13047024Y-14526452D01*
X13047024Y-14526452D02*
X13027976Y-14535976D01*
X13027976Y-14535976D02*
X13008929Y-14535976D01*
X13008929Y-14535976D02*
X12989881Y-14526452D01*
X12989881Y-14526452D02*
X12980357Y-14516928D01*
X12980357Y-14516928D02*
X12970833Y-14497881D01*
X12970833Y-14497881D02*
X12961310Y-14459786D01*
X12961310Y-14459786D02*
X12961310Y-14412167D01*
X12961310Y-14412167D02*
X12970833Y-14374071D01*
X12970833Y-14374071D02*
X12980357Y-14355024D01*
X12980357Y-14355024D02*
X12989881Y-14345500D01*
X12989881Y-14345500D02*
X13008929Y-14335976D01*
X13151786Y-14355024D02*
X13161310Y-14345500D01*
X13161310Y-14345500D02*
X13180357Y-14335976D01*
X13180357Y-14335976D02*
X13227976Y-14335976D01*
X13227976Y-14335976D02*
X13247024Y-14345500D01*
X13247024Y-14345500D02*
X13256548Y-14355024D01*
X13256548Y-14355024D02*
X13266071Y-14374071D01*
X13266071Y-14374071D02*
X13266071Y-14393119D01*
X13266071Y-14393119D02*
X13256548Y-14421690D01*
X13256548Y-14421690D02*
X13142262Y-14535976D01*
X13142262Y-14535976D02*
X13266071Y-14535976D01*
X13332738Y-14335976D02*
X13456548Y-14335976D01*
X13456548Y-14335976D02*
X13389881Y-14412167D01*
X13389881Y-14412167D02*
X13418452Y-14412167D01*
X13418452Y-14412167D02*
X13437500Y-14421690D01*
X13437500Y-14421690D02*
X13447024Y-14431214D01*
X13447024Y-14431214D02*
X13456548Y-14450262D01*
X13456548Y-14450262D02*
X13456548Y-14497881D01*
X13456548Y-14497881D02*
X13447024Y-14516928D01*
X13447024Y-14516928D02*
X13437500Y-14526452D01*
X13437500Y-14526452D02*
X13418452Y-14535976D01*
X13418452Y-14535976D02*
X13361310Y-14535976D01*
X13361310Y-14535976D02*
X13342262Y-14526452D01*
X13342262Y-14526452D02*
X13332738Y-14516928D01*
X13627976Y-14335976D02*
X13589881Y-14335976D01*
X13589881Y-14335976D02*
X13570833Y-14345500D01*
X13570833Y-14345500D02*
X13561310Y-14355024D01*
X13561310Y-14355024D02*
X13542262Y-14383595D01*
X13542262Y-14383595D02*
X13532738Y-14421690D01*
X13532738Y-14421690D02*
X13532738Y-14497881D01*
X13532738Y-14497881D02*
X13542262Y-14516928D01*
X13542262Y-14516928D02*
X13551786Y-14526452D01*
X13551786Y-14526452D02*
X13570833Y-14535976D01*
X13570833Y-14535976D02*
X13608929Y-14535976D01*
X13608929Y-14535976D02*
X13627976Y-14526452D01*
X13627976Y-14526452D02*
X13637500Y-14516928D01*
X13637500Y-14516928D02*
X13647024Y-14497881D01*
X13647024Y-14497881D02*
X13647024Y-14450262D01*
X13647024Y-14450262D02*
X13637500Y-14431214D01*
X13637500Y-14431214D02*
X13627976Y-14421690D01*
X13627976Y-14421690D02*
X13608929Y-14412167D01*
X13608929Y-14412167D02*
X13570833Y-14412167D01*
X13570833Y-14412167D02*
X13551786Y-14421690D01*
X13551786Y-14421690D02*
X13542262Y-14431214D01*
X13542262Y-14431214D02*
X13532738Y-14450262D01*
X13723214Y-14335976D02*
X13723214Y-14374071D01*
X13799405Y-14335976D02*
X13799405Y-14374071D01*
X14062262Y-14612167D02*
X14052738Y-14602643D01*
X14052738Y-14602643D02*
X14033691Y-14574071D01*
X14033691Y-14574071D02*
X14024167Y-14555024D01*
X14024167Y-14555024D02*
X14014643Y-14526452D01*
X14014643Y-14526452D02*
X14005119Y-14478833D01*
X14005119Y-14478833D02*
X14005119Y-14440738D01*
X14005119Y-14440738D02*
X14014643Y-14393119D01*
X14014643Y-14393119D02*
X14024167Y-14364548D01*
X14024167Y-14364548D02*
X14033691Y-14345500D01*
X14033691Y-14345500D02*
X14052738Y-14316928D01*
X14052738Y-14316928D02*
X14062262Y-14307405D01*
X14176548Y-14335976D02*
X14195595Y-14335976D01*
X14195595Y-14335976D02*
X14214643Y-14345500D01*
X14214643Y-14345500D02*
X14224167Y-14355024D01*
X14224167Y-14355024D02*
X14233691Y-14374071D01*
X14233691Y-14374071D02*
X14243214Y-14412167D01*
X14243214Y-14412167D02*
X14243214Y-14459786D01*
X14243214Y-14459786D02*
X14233691Y-14497881D01*
X14233691Y-14497881D02*
X14224167Y-14516928D01*
X14224167Y-14516928D02*
X14214643Y-14526452D01*
X14214643Y-14526452D02*
X14195595Y-14535976D01*
X14195595Y-14535976D02*
X14176548Y-14535976D01*
X14176548Y-14535976D02*
X14157500Y-14526452D01*
X14157500Y-14526452D02*
X14147976Y-14516928D01*
X14147976Y-14516928D02*
X14138452Y-14497881D01*
X14138452Y-14497881D02*
X14128929Y-14459786D01*
X14128929Y-14459786D02*
X14128929Y-14412167D01*
X14128929Y-14412167D02*
X14138452Y-14374071D01*
X14138452Y-14374071D02*
X14147976Y-14355024D01*
X14147976Y-14355024D02*
X14157500Y-14345500D01*
X14157500Y-14345500D02*
X14176548Y-14335976D01*
X14448929Y-14535976D02*
X14448929Y-14335976D01*
X14534643Y-14535976D02*
X14534643Y-14431214D01*
X14534643Y-14431214D02*
X14525119Y-14412167D01*
X14525119Y-14412167D02*
X14506072Y-14402643D01*
X14506072Y-14402643D02*
X14477500Y-14402643D01*
X14477500Y-14402643D02*
X14458452Y-14412167D01*
X14458452Y-14412167D02*
X14448929Y-14421690D01*
X14658452Y-14535976D02*
X14639405Y-14526452D01*
X14639405Y-14526452D02*
X14629881Y-14516928D01*
X14629881Y-14516928D02*
X14620357Y-14497881D01*
X14620357Y-14497881D02*
X14620357Y-14440738D01*
X14620357Y-14440738D02*
X14629881Y-14421690D01*
X14629881Y-14421690D02*
X14639405Y-14412167D01*
X14639405Y-14412167D02*
X14658452Y-14402643D01*
X14658452Y-14402643D02*
X14687024Y-14402643D01*
X14687024Y-14402643D02*
X14706072Y-14412167D01*
X14706072Y-14412167D02*
X14715595Y-14421690D01*
X14715595Y-14421690D02*
X14725119Y-14440738D01*
X14725119Y-14440738D02*
X14725119Y-14497881D01*
X14725119Y-14497881D02*
X14715595Y-14516928D01*
X14715595Y-14516928D02*
X14706072Y-14526452D01*
X14706072Y-14526452D02*
X14687024Y-14535976D01*
X14687024Y-14535976D02*
X14658452Y-14535976D01*
X14839405Y-14535976D02*
X14820357Y-14526452D01*
X14820357Y-14526452D02*
X14810833Y-14507405D01*
X14810833Y-14507405D02*
X14810833Y-14335976D01*
X14991786Y-14526452D02*
X14972738Y-14535976D01*
X14972738Y-14535976D02*
X14934643Y-14535976D01*
X14934643Y-14535976D02*
X14915595Y-14526452D01*
X14915595Y-14526452D02*
X14906072Y-14507405D01*
X14906072Y-14507405D02*
X14906072Y-14431214D01*
X14906072Y-14431214D02*
X14915595Y-14412167D01*
X14915595Y-14412167D02*
X14934643Y-14402643D01*
X14934643Y-14402643D02*
X14972738Y-14402643D01*
X14972738Y-14402643D02*
X14991786Y-14412167D01*
X14991786Y-14412167D02*
X15001310Y-14431214D01*
X15001310Y-14431214D02*
X15001310Y-14450262D01*
X15001310Y-14450262D02*
X14906072Y-14469309D01*
X15077500Y-14526452D02*
X15096548Y-14535976D01*
X15096548Y-14535976D02*
X15134643Y-14535976D01*
X15134643Y-14535976D02*
X15153691Y-14526452D01*
X15153691Y-14526452D02*
X15163214Y-14507405D01*
X15163214Y-14507405D02*
X15163214Y-14497881D01*
X15163214Y-14497881D02*
X15153691Y-14478833D01*
X15153691Y-14478833D02*
X15134643Y-14469309D01*
X15134643Y-14469309D02*
X15106072Y-14469309D01*
X15106072Y-14469309D02*
X15087024Y-14459786D01*
X15087024Y-14459786D02*
X15077500Y-14440738D01*
X15077500Y-14440738D02*
X15077500Y-14431214D01*
X15077500Y-14431214D02*
X15087024Y-14412167D01*
X15087024Y-14412167D02*
X15106072Y-14402643D01*
X15106072Y-14402643D02*
X15134643Y-14402643D01*
X15134643Y-14402643D02*
X15153691Y-14412167D01*
X15368929Y-14459786D02*
X15521310Y-14459786D01*
X15445119Y-14535976D02*
X15445119Y-14383595D01*
X15822262Y-14402643D02*
X15822262Y-14535976D01*
X15774643Y-14326452D02*
X15727024Y-14469309D01*
X15727024Y-14469309D02*
X15850833Y-14469309D01*
X16037500Y-14526452D02*
X16056548Y-14535976D01*
X16056548Y-14535976D02*
X16094643Y-14535976D01*
X16094643Y-14535976D02*
X16113691Y-14526452D01*
X16113691Y-14526452D02*
X16123214Y-14507405D01*
X16123214Y-14507405D02*
X16123214Y-14497881D01*
X16123214Y-14497881D02*
X16113691Y-14478833D01*
X16113691Y-14478833D02*
X16094643Y-14469309D01*
X16094643Y-14469309D02*
X16066072Y-14469309D01*
X16066072Y-14469309D02*
X16047024Y-14459786D01*
X16047024Y-14459786D02*
X16037500Y-14440738D01*
X16037500Y-14440738D02*
X16037500Y-14431214D01*
X16037500Y-14431214D02*
X16047024Y-14412167D01*
X16047024Y-14412167D02*
X16066072Y-14402643D01*
X16066072Y-14402643D02*
X16094643Y-14402643D01*
X16094643Y-14402643D02*
X16113691Y-14412167D01*
X16237500Y-14535976D02*
X16218453Y-14526452D01*
X16218453Y-14526452D02*
X16208929Y-14507405D01*
X16208929Y-14507405D02*
X16208929Y-14335976D01*
X16342262Y-14535976D02*
X16323214Y-14526452D01*
X16323214Y-14526452D02*
X16313691Y-14516928D01*
X16313691Y-14516928D02*
X16304167Y-14497881D01*
X16304167Y-14497881D02*
X16304167Y-14440738D01*
X16304167Y-14440738D02*
X16313691Y-14421690D01*
X16313691Y-14421690D02*
X16323214Y-14412167D01*
X16323214Y-14412167D02*
X16342262Y-14402643D01*
X16342262Y-14402643D02*
X16370834Y-14402643D01*
X16370834Y-14402643D02*
X16389881Y-14412167D01*
X16389881Y-14412167D02*
X16399405Y-14421690D01*
X16399405Y-14421690D02*
X16408929Y-14440738D01*
X16408929Y-14440738D02*
X16408929Y-14497881D01*
X16408929Y-14497881D02*
X16399405Y-14516928D01*
X16399405Y-14516928D02*
X16389881Y-14526452D01*
X16389881Y-14526452D02*
X16370834Y-14535976D01*
X16370834Y-14535976D02*
X16342262Y-14535976D01*
X16466072Y-14402643D02*
X16542262Y-14402643D01*
X16494643Y-14335976D02*
X16494643Y-14507405D01*
X16494643Y-14507405D02*
X16504167Y-14526452D01*
X16504167Y-14526452D02*
X16523214Y-14535976D01*
X16523214Y-14535976D02*
X16542262Y-14535976D01*
X16599405Y-14526452D02*
X16618453Y-14535976D01*
X16618453Y-14535976D02*
X16656548Y-14535976D01*
X16656548Y-14535976D02*
X16675595Y-14526452D01*
X16675595Y-14526452D02*
X16685119Y-14507405D01*
X16685119Y-14507405D02*
X16685119Y-14497881D01*
X16685119Y-14497881D02*
X16675595Y-14478833D01*
X16675595Y-14478833D02*
X16656548Y-14469309D01*
X16656548Y-14469309D02*
X16627976Y-14469309D01*
X16627976Y-14469309D02*
X16608929Y-14459786D01*
X16608929Y-14459786D02*
X16599405Y-14440738D01*
X16599405Y-14440738D02*
X16599405Y-14431214D01*
X16599405Y-14431214D02*
X16608929Y-14412167D01*
X16608929Y-14412167D02*
X16627976Y-14402643D01*
X16627976Y-14402643D02*
X16656548Y-14402643D01*
X16656548Y-14402643D02*
X16675595Y-14412167D01*
X16751786Y-14612167D02*
X16761310Y-14602643D01*
X16761310Y-14602643D02*
X16780357Y-14574071D01*
X16780357Y-14574071D02*
X16789881Y-14555024D01*
X16789881Y-14555024D02*
X16799405Y-14526452D01*
X16799405Y-14526452D02*
X16808929Y-14478833D01*
X16808929Y-14478833D02*
X16808929Y-14440738D01*
X16808929Y-14440738D02*
X16799405Y-14393119D01*
X16799405Y-14393119D02*
X16789881Y-14364548D01*
X16789881Y-14364548D02*
X16780357Y-14345500D01*
X16780357Y-14345500D02*
X16761310Y-14316928D01*
X16761310Y-14316928D02*
X16751786Y-14307405D01*
D17*
X10497500Y-14676500D02*
X10597500Y-14776500D01*
X10597500Y-14676500D02*
X10497500Y-14776500D01*
X10547500Y-14676500D02*
X10547500Y-14776500D01*
X10497500Y-14726500D02*
X10597500Y-14726500D01*
D11*
X10949881Y-14799976D02*
X10835595Y-14799976D01*
X10892738Y-14799976D02*
X10892738Y-14599976D01*
X10892738Y-14599976D02*
X10873690Y-14628548D01*
X10873690Y-14628548D02*
X10854643Y-14647595D01*
X10854643Y-14647595D02*
X10835595Y-14657119D01*
X11035595Y-14780928D02*
X11045119Y-14790452D01*
X11045119Y-14790452D02*
X11035595Y-14799976D01*
X11035595Y-14799976D02*
X11026071Y-14790452D01*
X11026071Y-14790452D02*
X11035595Y-14780928D01*
X11035595Y-14780928D02*
X11035595Y-14799976D01*
X11168929Y-14599976D02*
X11187976Y-14599976D01*
X11187976Y-14599976D02*
X11207024Y-14609500D01*
X11207024Y-14609500D02*
X11216548Y-14619024D01*
X11216548Y-14619024D02*
X11226071Y-14638071D01*
X11226071Y-14638071D02*
X11235595Y-14676167D01*
X11235595Y-14676167D02*
X11235595Y-14723786D01*
X11235595Y-14723786D02*
X11226071Y-14761881D01*
X11226071Y-14761881D02*
X11216548Y-14780928D01*
X11216548Y-14780928D02*
X11207024Y-14790452D01*
X11207024Y-14790452D02*
X11187976Y-14799976D01*
X11187976Y-14799976D02*
X11168929Y-14799976D01*
X11168929Y-14799976D02*
X11149881Y-14790452D01*
X11149881Y-14790452D02*
X11140357Y-14780928D01*
X11140357Y-14780928D02*
X11130833Y-14761881D01*
X11130833Y-14761881D02*
X11121310Y-14723786D01*
X11121310Y-14723786D02*
X11121310Y-14676167D01*
X11121310Y-14676167D02*
X11130833Y-14638071D01*
X11130833Y-14638071D02*
X11140357Y-14619024D01*
X11140357Y-14619024D02*
X11149881Y-14609500D01*
X11149881Y-14609500D02*
X11168929Y-14599976D01*
X11359405Y-14599976D02*
X11378452Y-14599976D01*
X11378452Y-14599976D02*
X11397500Y-14609500D01*
X11397500Y-14609500D02*
X11407024Y-14619024D01*
X11407024Y-14619024D02*
X11416548Y-14638071D01*
X11416548Y-14638071D02*
X11426071Y-14676167D01*
X11426071Y-14676167D02*
X11426071Y-14723786D01*
X11426071Y-14723786D02*
X11416548Y-14761881D01*
X11416548Y-14761881D02*
X11407024Y-14780928D01*
X11407024Y-14780928D02*
X11397500Y-14790452D01*
X11397500Y-14790452D02*
X11378452Y-14799976D01*
X11378452Y-14799976D02*
X11359405Y-14799976D01*
X11359405Y-14799976D02*
X11340357Y-14790452D01*
X11340357Y-14790452D02*
X11330833Y-14780928D01*
X11330833Y-14780928D02*
X11321309Y-14761881D01*
X11321309Y-14761881D02*
X11311786Y-14723786D01*
X11311786Y-14723786D02*
X11311786Y-14676167D01*
X11311786Y-14676167D02*
X11321309Y-14638071D01*
X11321309Y-14638071D02*
X11330833Y-14619024D01*
X11330833Y-14619024D02*
X11340357Y-14609500D01*
X11340357Y-14609500D02*
X11359405Y-14599976D01*
X11549881Y-14599976D02*
X11568929Y-14599976D01*
X11568929Y-14599976D02*
X11587976Y-14609500D01*
X11587976Y-14609500D02*
X11597500Y-14619024D01*
X11597500Y-14619024D02*
X11607024Y-14638071D01*
X11607024Y-14638071D02*
X11616548Y-14676167D01*
X11616548Y-14676167D02*
X11616548Y-14723786D01*
X11616548Y-14723786D02*
X11607024Y-14761881D01*
X11607024Y-14761881D02*
X11597500Y-14780928D01*
X11597500Y-14780928D02*
X11587976Y-14790452D01*
X11587976Y-14790452D02*
X11568929Y-14799976D01*
X11568929Y-14799976D02*
X11549881Y-14799976D01*
X11549881Y-14799976D02*
X11530833Y-14790452D01*
X11530833Y-14790452D02*
X11521309Y-14780928D01*
X11521309Y-14780928D02*
X11511786Y-14761881D01*
X11511786Y-14761881D02*
X11502262Y-14723786D01*
X11502262Y-14723786D02*
X11502262Y-14676167D01*
X11502262Y-14676167D02*
X11511786Y-14638071D01*
X11511786Y-14638071D02*
X11521309Y-14619024D01*
X11521309Y-14619024D02*
X11530833Y-14609500D01*
X11530833Y-14609500D02*
X11549881Y-14599976D01*
X11702262Y-14799976D02*
X11702262Y-14666643D01*
X11702262Y-14685690D02*
X11711786Y-14676167D01*
X11711786Y-14676167D02*
X11730833Y-14666643D01*
X11730833Y-14666643D02*
X11759405Y-14666643D01*
X11759405Y-14666643D02*
X11778452Y-14676167D01*
X11778452Y-14676167D02*
X11787976Y-14695214D01*
X11787976Y-14695214D02*
X11787976Y-14799976D01*
X11787976Y-14695214D02*
X11797500Y-14676167D01*
X11797500Y-14676167D02*
X11816548Y-14666643D01*
X11816548Y-14666643D02*
X11845119Y-14666643D01*
X11845119Y-14666643D02*
X11864167Y-14676167D01*
X11864167Y-14676167D02*
X11873690Y-14695214D01*
X11873690Y-14695214D02*
X11873690Y-14799976D01*
X11968929Y-14799976D02*
X11968929Y-14666643D01*
X11968929Y-14685690D02*
X11978452Y-14676167D01*
X11978452Y-14676167D02*
X11997500Y-14666643D01*
X11997500Y-14666643D02*
X12026071Y-14666643D01*
X12026071Y-14666643D02*
X12045119Y-14676167D01*
X12045119Y-14676167D02*
X12054643Y-14695214D01*
X12054643Y-14695214D02*
X12054643Y-14799976D01*
X12054643Y-14695214D02*
X12064167Y-14676167D01*
X12064167Y-14676167D02*
X12083214Y-14666643D01*
X12083214Y-14666643D02*
X12111786Y-14666643D01*
X12111786Y-14666643D02*
X12130833Y-14676167D01*
X12130833Y-14676167D02*
X12140357Y-14695214D01*
X12140357Y-14695214D02*
X12140357Y-14799976D01*
X12498452Y-14590452D02*
X12327024Y-14847595D01*
X12723214Y-14599976D02*
X12742262Y-14599976D01*
X12742262Y-14599976D02*
X12761310Y-14609500D01*
X12761310Y-14609500D02*
X12770833Y-14619024D01*
X12770833Y-14619024D02*
X12780357Y-14638071D01*
X12780357Y-14638071D02*
X12789881Y-14676167D01*
X12789881Y-14676167D02*
X12789881Y-14723786D01*
X12789881Y-14723786D02*
X12780357Y-14761881D01*
X12780357Y-14761881D02*
X12770833Y-14780928D01*
X12770833Y-14780928D02*
X12761310Y-14790452D01*
X12761310Y-14790452D02*
X12742262Y-14799976D01*
X12742262Y-14799976D02*
X12723214Y-14799976D01*
X12723214Y-14799976D02*
X12704167Y-14790452D01*
X12704167Y-14790452D02*
X12694643Y-14780928D01*
X12694643Y-14780928D02*
X12685119Y-14761881D01*
X12685119Y-14761881D02*
X12675595Y-14723786D01*
X12675595Y-14723786D02*
X12675595Y-14676167D01*
X12675595Y-14676167D02*
X12685119Y-14638071D01*
X12685119Y-14638071D02*
X12694643Y-14619024D01*
X12694643Y-14619024D02*
X12704167Y-14609500D01*
X12704167Y-14609500D02*
X12723214Y-14599976D01*
X12875595Y-14780928D02*
X12885119Y-14790452D01*
X12885119Y-14790452D02*
X12875595Y-14799976D01*
X12875595Y-14799976D02*
X12866071Y-14790452D01*
X12866071Y-14790452D02*
X12875595Y-14780928D01*
X12875595Y-14780928D02*
X12875595Y-14799976D01*
X13008929Y-14599976D02*
X13027976Y-14599976D01*
X13027976Y-14599976D02*
X13047024Y-14609500D01*
X13047024Y-14609500D02*
X13056548Y-14619024D01*
X13056548Y-14619024D02*
X13066071Y-14638071D01*
X13066071Y-14638071D02*
X13075595Y-14676167D01*
X13075595Y-14676167D02*
X13075595Y-14723786D01*
X13075595Y-14723786D02*
X13066071Y-14761881D01*
X13066071Y-14761881D02*
X13056548Y-14780928D01*
X13056548Y-14780928D02*
X13047024Y-14790452D01*
X13047024Y-14790452D02*
X13027976Y-14799976D01*
X13027976Y-14799976D02*
X13008929Y-14799976D01*
X13008929Y-14799976D02*
X12989881Y-14790452D01*
X12989881Y-14790452D02*
X12980357Y-14780928D01*
X12980357Y-14780928D02*
X12970833Y-14761881D01*
X12970833Y-14761881D02*
X12961310Y-14723786D01*
X12961310Y-14723786D02*
X12961310Y-14676167D01*
X12961310Y-14676167D02*
X12970833Y-14638071D01*
X12970833Y-14638071D02*
X12980357Y-14619024D01*
X12980357Y-14619024D02*
X12989881Y-14609500D01*
X12989881Y-14609500D02*
X13008929Y-14599976D01*
X13142262Y-14599976D02*
X13266071Y-14599976D01*
X13266071Y-14599976D02*
X13199405Y-14676167D01*
X13199405Y-14676167D02*
X13227976Y-14676167D01*
X13227976Y-14676167D02*
X13247024Y-14685690D01*
X13247024Y-14685690D02*
X13256548Y-14695214D01*
X13256548Y-14695214D02*
X13266071Y-14714262D01*
X13266071Y-14714262D02*
X13266071Y-14761881D01*
X13266071Y-14761881D02*
X13256548Y-14780928D01*
X13256548Y-14780928D02*
X13247024Y-14790452D01*
X13247024Y-14790452D02*
X13227976Y-14799976D01*
X13227976Y-14799976D02*
X13170833Y-14799976D01*
X13170833Y-14799976D02*
X13151786Y-14790452D01*
X13151786Y-14790452D02*
X13142262Y-14780928D01*
X13361310Y-14799976D02*
X13399405Y-14799976D01*
X13399405Y-14799976D02*
X13418452Y-14790452D01*
X13418452Y-14790452D02*
X13427976Y-14780928D01*
X13427976Y-14780928D02*
X13447024Y-14752357D01*
X13447024Y-14752357D02*
X13456548Y-14714262D01*
X13456548Y-14714262D02*
X13456548Y-14638071D01*
X13456548Y-14638071D02*
X13447024Y-14619024D01*
X13447024Y-14619024D02*
X13437500Y-14609500D01*
X13437500Y-14609500D02*
X13418452Y-14599976D01*
X13418452Y-14599976D02*
X13380357Y-14599976D01*
X13380357Y-14599976D02*
X13361310Y-14609500D01*
X13361310Y-14609500D02*
X13351786Y-14619024D01*
X13351786Y-14619024D02*
X13342262Y-14638071D01*
X13342262Y-14638071D02*
X13342262Y-14685690D01*
X13342262Y-14685690D02*
X13351786Y-14704738D01*
X13351786Y-14704738D02*
X13361310Y-14714262D01*
X13361310Y-14714262D02*
X13380357Y-14723786D01*
X13380357Y-14723786D02*
X13418452Y-14723786D01*
X13418452Y-14723786D02*
X13437500Y-14714262D01*
X13437500Y-14714262D02*
X13447024Y-14704738D01*
X13447024Y-14704738D02*
X13456548Y-14685690D01*
X13627976Y-14666643D02*
X13627976Y-14799976D01*
X13580357Y-14590452D02*
X13532738Y-14733309D01*
X13532738Y-14733309D02*
X13656548Y-14733309D01*
X13723214Y-14599976D02*
X13723214Y-14638071D01*
X13799405Y-14599976D02*
X13799405Y-14638071D01*
X14062262Y-14876167D02*
X14052738Y-14866643D01*
X14052738Y-14866643D02*
X14033691Y-14838071D01*
X14033691Y-14838071D02*
X14024167Y-14819024D01*
X14024167Y-14819024D02*
X14014643Y-14790452D01*
X14014643Y-14790452D02*
X14005119Y-14742833D01*
X14005119Y-14742833D02*
X14005119Y-14704738D01*
X14005119Y-14704738D02*
X14014643Y-14657119D01*
X14014643Y-14657119D02*
X14024167Y-14628548D01*
X14024167Y-14628548D02*
X14033691Y-14609500D01*
X14033691Y-14609500D02*
X14052738Y-14580928D01*
X14052738Y-14580928D02*
X14062262Y-14571405D01*
X14224167Y-14666643D02*
X14224167Y-14799976D01*
X14176548Y-14590452D02*
X14128929Y-14733309D01*
X14128929Y-14733309D02*
X14252738Y-14733309D01*
X14448929Y-14799976D02*
X14448929Y-14599976D01*
X14534643Y-14799976D02*
X14534643Y-14695214D01*
X14534643Y-14695214D02*
X14525119Y-14676167D01*
X14525119Y-14676167D02*
X14506072Y-14666643D01*
X14506072Y-14666643D02*
X14477500Y-14666643D01*
X14477500Y-14666643D02*
X14458452Y-14676167D01*
X14458452Y-14676167D02*
X14448929Y-14685690D01*
X14658452Y-14799976D02*
X14639405Y-14790452D01*
X14639405Y-14790452D02*
X14629881Y-14780928D01*
X14629881Y-14780928D02*
X14620357Y-14761881D01*
X14620357Y-14761881D02*
X14620357Y-14704738D01*
X14620357Y-14704738D02*
X14629881Y-14685690D01*
X14629881Y-14685690D02*
X14639405Y-14676167D01*
X14639405Y-14676167D02*
X14658452Y-14666643D01*
X14658452Y-14666643D02*
X14687024Y-14666643D01*
X14687024Y-14666643D02*
X14706072Y-14676167D01*
X14706072Y-14676167D02*
X14715595Y-14685690D01*
X14715595Y-14685690D02*
X14725119Y-14704738D01*
X14725119Y-14704738D02*
X14725119Y-14761881D01*
X14725119Y-14761881D02*
X14715595Y-14780928D01*
X14715595Y-14780928D02*
X14706072Y-14790452D01*
X14706072Y-14790452D02*
X14687024Y-14799976D01*
X14687024Y-14799976D02*
X14658452Y-14799976D01*
X14839405Y-14799976D02*
X14820357Y-14790452D01*
X14820357Y-14790452D02*
X14810833Y-14771405D01*
X14810833Y-14771405D02*
X14810833Y-14599976D01*
X14991786Y-14790452D02*
X14972738Y-14799976D01*
X14972738Y-14799976D02*
X14934643Y-14799976D01*
X14934643Y-14799976D02*
X14915595Y-14790452D01*
X14915595Y-14790452D02*
X14906072Y-14771405D01*
X14906072Y-14771405D02*
X14906072Y-14695214D01*
X14906072Y-14695214D02*
X14915595Y-14676167D01*
X14915595Y-14676167D02*
X14934643Y-14666643D01*
X14934643Y-14666643D02*
X14972738Y-14666643D01*
X14972738Y-14666643D02*
X14991786Y-14676167D01*
X14991786Y-14676167D02*
X15001310Y-14695214D01*
X15001310Y-14695214D02*
X15001310Y-14714262D01*
X15001310Y-14714262D02*
X14906072Y-14733309D01*
X15077500Y-14790452D02*
X15096548Y-14799976D01*
X15096548Y-14799976D02*
X15134643Y-14799976D01*
X15134643Y-14799976D02*
X15153691Y-14790452D01*
X15153691Y-14790452D02*
X15163214Y-14771405D01*
X15163214Y-14771405D02*
X15163214Y-14761881D01*
X15163214Y-14761881D02*
X15153691Y-14742833D01*
X15153691Y-14742833D02*
X15134643Y-14733309D01*
X15134643Y-14733309D02*
X15106072Y-14733309D01*
X15106072Y-14733309D02*
X15087024Y-14723786D01*
X15087024Y-14723786D02*
X15077500Y-14704738D01*
X15077500Y-14704738D02*
X15077500Y-14695214D01*
X15077500Y-14695214D02*
X15087024Y-14676167D01*
X15087024Y-14676167D02*
X15106072Y-14666643D01*
X15106072Y-14666643D02*
X15134643Y-14666643D01*
X15134643Y-14666643D02*
X15153691Y-14676167D01*
X15229881Y-14876167D02*
X15239405Y-14866643D01*
X15239405Y-14866643D02*
X15258453Y-14838071D01*
X15258453Y-14838071D02*
X15267976Y-14819024D01*
X15267976Y-14819024D02*
X15277500Y-14790452D01*
X15277500Y-14790452D02*
X15287024Y-14742833D01*
X15287024Y-14742833D02*
X15287024Y-14704738D01*
X15287024Y-14704738D02*
X15277500Y-14657119D01*
X15277500Y-14657119D02*
X15267976Y-14628548D01*
X15267976Y-14628548D02*
X15258453Y-14609500D01*
X15258453Y-14609500D02*
X15239405Y-14580928D01*
X15239405Y-14580928D02*
X15229881Y-14571405D01*
D18*
X10477500Y-14930500D02*
X10597500Y-15050500D01*
X10597500Y-14930500D02*
X10477500Y-15050500D01*
X10579927Y-15032927D02*
X10579927Y-14948073D01*
X10495073Y-14948073D01*
X10495073Y-15032927D01*
X10579927Y-15032927D01*
D11*
X10949881Y-15063976D02*
X10835595Y-15063976D01*
X10892738Y-15063976D02*
X10892738Y-14863976D01*
X10892738Y-14863976D02*
X10873690Y-14892548D01*
X10873690Y-14892548D02*
X10854643Y-14911595D01*
X10854643Y-14911595D02*
X10835595Y-14921119D01*
X11035595Y-15044928D02*
X11045119Y-15054452D01*
X11045119Y-15054452D02*
X11035595Y-15063976D01*
X11035595Y-15063976D02*
X11026071Y-15054452D01*
X11026071Y-15054452D02*
X11035595Y-15044928D01*
X11035595Y-15044928D02*
X11035595Y-15063976D01*
X11121310Y-14883024D02*
X11130833Y-14873500D01*
X11130833Y-14873500D02*
X11149881Y-14863976D01*
X11149881Y-14863976D02*
X11197500Y-14863976D01*
X11197500Y-14863976D02*
X11216548Y-14873500D01*
X11216548Y-14873500D02*
X11226071Y-14883024D01*
X11226071Y-14883024D02*
X11235595Y-14902071D01*
X11235595Y-14902071D02*
X11235595Y-14921119D01*
X11235595Y-14921119D02*
X11226071Y-14949690D01*
X11226071Y-14949690D02*
X11111786Y-15063976D01*
X11111786Y-15063976D02*
X11235595Y-15063976D01*
X11359405Y-14863976D02*
X11378452Y-14863976D01*
X11378452Y-14863976D02*
X11397500Y-14873500D01*
X11397500Y-14873500D02*
X11407024Y-14883024D01*
X11407024Y-14883024D02*
X11416548Y-14902071D01*
X11416548Y-14902071D02*
X11426071Y-14940167D01*
X11426071Y-14940167D02*
X11426071Y-14987786D01*
X11426071Y-14987786D02*
X11416548Y-15025881D01*
X11416548Y-15025881D02*
X11407024Y-15044928D01*
X11407024Y-15044928D02*
X11397500Y-15054452D01*
X11397500Y-15054452D02*
X11378452Y-15063976D01*
X11378452Y-15063976D02*
X11359405Y-15063976D01*
X11359405Y-15063976D02*
X11340357Y-15054452D01*
X11340357Y-15054452D02*
X11330833Y-15044928D01*
X11330833Y-15044928D02*
X11321309Y-15025881D01*
X11321309Y-15025881D02*
X11311786Y-14987786D01*
X11311786Y-14987786D02*
X11311786Y-14940167D01*
X11311786Y-14940167D02*
X11321309Y-14902071D01*
X11321309Y-14902071D02*
X11330833Y-14883024D01*
X11330833Y-14883024D02*
X11340357Y-14873500D01*
X11340357Y-14873500D02*
X11359405Y-14863976D01*
X11549881Y-14863976D02*
X11568929Y-14863976D01*
X11568929Y-14863976D02*
X11587976Y-14873500D01*
X11587976Y-14873500D02*
X11597500Y-14883024D01*
X11597500Y-14883024D02*
X11607024Y-14902071D01*
X11607024Y-14902071D02*
X11616548Y-14940167D01*
X11616548Y-14940167D02*
X11616548Y-14987786D01*
X11616548Y-14987786D02*
X11607024Y-15025881D01*
X11607024Y-15025881D02*
X11597500Y-15044928D01*
X11597500Y-15044928D02*
X11587976Y-15054452D01*
X11587976Y-15054452D02*
X11568929Y-15063976D01*
X11568929Y-15063976D02*
X11549881Y-15063976D01*
X11549881Y-15063976D02*
X11530833Y-15054452D01*
X11530833Y-15054452D02*
X11521309Y-15044928D01*
X11521309Y-15044928D02*
X11511786Y-15025881D01*
X11511786Y-15025881D02*
X11502262Y-14987786D01*
X11502262Y-14987786D02*
X11502262Y-14940167D01*
X11502262Y-14940167D02*
X11511786Y-14902071D01*
X11511786Y-14902071D02*
X11521309Y-14883024D01*
X11521309Y-14883024D02*
X11530833Y-14873500D01*
X11530833Y-14873500D02*
X11549881Y-14863976D01*
X11702262Y-15063976D02*
X11702262Y-14930643D01*
X11702262Y-14949690D02*
X11711786Y-14940167D01*
X11711786Y-14940167D02*
X11730833Y-14930643D01*
X11730833Y-14930643D02*
X11759405Y-14930643D01*
X11759405Y-14930643D02*
X11778452Y-14940167D01*
X11778452Y-14940167D02*
X11787976Y-14959214D01*
X11787976Y-14959214D02*
X11787976Y-15063976D01*
X11787976Y-14959214D02*
X11797500Y-14940167D01*
X11797500Y-14940167D02*
X11816548Y-14930643D01*
X11816548Y-14930643D02*
X11845119Y-14930643D01*
X11845119Y-14930643D02*
X11864167Y-14940167D01*
X11864167Y-14940167D02*
X11873690Y-14959214D01*
X11873690Y-14959214D02*
X11873690Y-15063976D01*
X11968929Y-15063976D02*
X11968929Y-14930643D01*
X11968929Y-14949690D02*
X11978452Y-14940167D01*
X11978452Y-14940167D02*
X11997500Y-14930643D01*
X11997500Y-14930643D02*
X12026071Y-14930643D01*
X12026071Y-14930643D02*
X12045119Y-14940167D01*
X12045119Y-14940167D02*
X12054643Y-14959214D01*
X12054643Y-14959214D02*
X12054643Y-15063976D01*
X12054643Y-14959214D02*
X12064167Y-14940167D01*
X12064167Y-14940167D02*
X12083214Y-14930643D01*
X12083214Y-14930643D02*
X12111786Y-14930643D01*
X12111786Y-14930643D02*
X12130833Y-14940167D01*
X12130833Y-14940167D02*
X12140357Y-14959214D01*
X12140357Y-14959214D02*
X12140357Y-15063976D01*
X12498452Y-14854452D02*
X12327024Y-15111595D01*
X12723214Y-14863976D02*
X12742262Y-14863976D01*
X12742262Y-14863976D02*
X12761310Y-14873500D01*
X12761310Y-14873500D02*
X12770833Y-14883024D01*
X12770833Y-14883024D02*
X12780357Y-14902071D01*
X12780357Y-14902071D02*
X12789881Y-14940167D01*
X12789881Y-14940167D02*
X12789881Y-14987786D01*
X12789881Y-14987786D02*
X12780357Y-15025881D01*
X12780357Y-15025881D02*
X12770833Y-15044928D01*
X12770833Y-15044928D02*
X12761310Y-15054452D01*
X12761310Y-15054452D02*
X12742262Y-15063976D01*
X12742262Y-15063976D02*
X12723214Y-15063976D01*
X12723214Y-15063976D02*
X12704167Y-15054452D01*
X12704167Y-15054452D02*
X12694643Y-15044928D01*
X12694643Y-15044928D02*
X12685119Y-15025881D01*
X12685119Y-15025881D02*
X12675595Y-14987786D01*
X12675595Y-14987786D02*
X12675595Y-14940167D01*
X12675595Y-14940167D02*
X12685119Y-14902071D01*
X12685119Y-14902071D02*
X12694643Y-14883024D01*
X12694643Y-14883024D02*
X12704167Y-14873500D01*
X12704167Y-14873500D02*
X12723214Y-14863976D01*
X12875595Y-15044928D02*
X12885119Y-15054452D01*
X12885119Y-15054452D02*
X12875595Y-15063976D01*
X12875595Y-15063976D02*
X12866071Y-15054452D01*
X12866071Y-15054452D02*
X12875595Y-15044928D01*
X12875595Y-15044928D02*
X12875595Y-15063976D01*
X13008929Y-14863976D02*
X13027976Y-14863976D01*
X13027976Y-14863976D02*
X13047024Y-14873500D01*
X13047024Y-14873500D02*
X13056548Y-14883024D01*
X13056548Y-14883024D02*
X13066071Y-14902071D01*
X13066071Y-14902071D02*
X13075595Y-14940167D01*
X13075595Y-14940167D02*
X13075595Y-14987786D01*
X13075595Y-14987786D02*
X13066071Y-15025881D01*
X13066071Y-15025881D02*
X13056548Y-15044928D01*
X13056548Y-15044928D02*
X13047024Y-15054452D01*
X13047024Y-15054452D02*
X13027976Y-15063976D01*
X13027976Y-15063976D02*
X13008929Y-15063976D01*
X13008929Y-15063976D02*
X12989881Y-15054452D01*
X12989881Y-15054452D02*
X12980357Y-15044928D01*
X12980357Y-15044928D02*
X12970833Y-15025881D01*
X12970833Y-15025881D02*
X12961310Y-14987786D01*
X12961310Y-14987786D02*
X12961310Y-14940167D01*
X12961310Y-14940167D02*
X12970833Y-14902071D01*
X12970833Y-14902071D02*
X12980357Y-14883024D01*
X12980357Y-14883024D02*
X12989881Y-14873500D01*
X12989881Y-14873500D02*
X13008929Y-14863976D01*
X13247024Y-14930643D02*
X13247024Y-15063976D01*
X13199405Y-14854452D02*
X13151786Y-14997309D01*
X13151786Y-14997309D02*
X13275595Y-14997309D01*
X13332738Y-14863976D02*
X13466071Y-14863976D01*
X13466071Y-14863976D02*
X13380357Y-15063976D01*
X13532738Y-14883024D02*
X13542262Y-14873500D01*
X13542262Y-14873500D02*
X13561310Y-14863976D01*
X13561310Y-14863976D02*
X13608929Y-14863976D01*
X13608929Y-14863976D02*
X13627976Y-14873500D01*
X13627976Y-14873500D02*
X13637500Y-14883024D01*
X13637500Y-14883024D02*
X13647024Y-14902071D01*
X13647024Y-14902071D02*
X13647024Y-14921119D01*
X13647024Y-14921119D02*
X13637500Y-14949690D01*
X13637500Y-14949690D02*
X13523214Y-15063976D01*
X13523214Y-15063976D02*
X13647024Y-15063976D01*
X13723214Y-14863976D02*
X13723214Y-14902071D01*
X13799405Y-14863976D02*
X13799405Y-14902071D01*
X14062262Y-15140167D02*
X14052738Y-15130643D01*
X14052738Y-15130643D02*
X14033691Y-15102071D01*
X14033691Y-15102071D02*
X14024167Y-15083024D01*
X14024167Y-15083024D02*
X14014643Y-15054452D01*
X14014643Y-15054452D02*
X14005119Y-15006833D01*
X14005119Y-15006833D02*
X14005119Y-14968738D01*
X14005119Y-14968738D02*
X14014643Y-14921119D01*
X14014643Y-14921119D02*
X14024167Y-14892548D01*
X14024167Y-14892548D02*
X14033691Y-14873500D01*
X14033691Y-14873500D02*
X14052738Y-14844928D01*
X14052738Y-14844928D02*
X14062262Y-14835405D01*
X14167024Y-14949690D02*
X14147976Y-14940167D01*
X14147976Y-14940167D02*
X14138452Y-14930643D01*
X14138452Y-14930643D02*
X14128929Y-14911595D01*
X14128929Y-14911595D02*
X14128929Y-14902071D01*
X14128929Y-14902071D02*
X14138452Y-14883024D01*
X14138452Y-14883024D02*
X14147976Y-14873500D01*
X14147976Y-14873500D02*
X14167024Y-14863976D01*
X14167024Y-14863976D02*
X14205119Y-14863976D01*
X14205119Y-14863976D02*
X14224167Y-14873500D01*
X14224167Y-14873500D02*
X14233691Y-14883024D01*
X14233691Y-14883024D02*
X14243214Y-14902071D01*
X14243214Y-14902071D02*
X14243214Y-14911595D01*
X14243214Y-14911595D02*
X14233691Y-14930643D01*
X14233691Y-14930643D02*
X14224167Y-14940167D01*
X14224167Y-14940167D02*
X14205119Y-14949690D01*
X14205119Y-14949690D02*
X14167024Y-14949690D01*
X14167024Y-14949690D02*
X14147976Y-14959214D01*
X14147976Y-14959214D02*
X14138452Y-14968738D01*
X14138452Y-14968738D02*
X14128929Y-14987786D01*
X14128929Y-14987786D02*
X14128929Y-15025881D01*
X14128929Y-15025881D02*
X14138452Y-15044928D01*
X14138452Y-15044928D02*
X14147976Y-15054452D01*
X14147976Y-15054452D02*
X14167024Y-15063976D01*
X14167024Y-15063976D02*
X14205119Y-15063976D01*
X14205119Y-15063976D02*
X14224167Y-15054452D01*
X14224167Y-15054452D02*
X14233691Y-15044928D01*
X14233691Y-15044928D02*
X14243214Y-15025881D01*
X14243214Y-15025881D02*
X14243214Y-14987786D01*
X14243214Y-14987786D02*
X14233691Y-14968738D01*
X14233691Y-14968738D02*
X14224167Y-14959214D01*
X14224167Y-14959214D02*
X14205119Y-14949690D01*
X14448929Y-15063976D02*
X14448929Y-14863976D01*
X14534643Y-15063976D02*
X14534643Y-14959214D01*
X14534643Y-14959214D02*
X14525119Y-14940167D01*
X14525119Y-14940167D02*
X14506072Y-14930643D01*
X14506072Y-14930643D02*
X14477500Y-14930643D01*
X14477500Y-14930643D02*
X14458452Y-14940167D01*
X14458452Y-14940167D02*
X14448929Y-14949690D01*
X14658452Y-15063976D02*
X14639405Y-15054452D01*
X14639405Y-15054452D02*
X14629881Y-15044928D01*
X14629881Y-15044928D02*
X14620357Y-15025881D01*
X14620357Y-15025881D02*
X14620357Y-14968738D01*
X14620357Y-14968738D02*
X14629881Y-14949690D01*
X14629881Y-14949690D02*
X14639405Y-14940167D01*
X14639405Y-14940167D02*
X14658452Y-14930643D01*
X14658452Y-14930643D02*
X14687024Y-14930643D01*
X14687024Y-14930643D02*
X14706072Y-14940167D01*
X14706072Y-14940167D02*
X14715595Y-14949690D01*
X14715595Y-14949690D02*
X14725119Y-14968738D01*
X14725119Y-14968738D02*
X14725119Y-15025881D01*
X14725119Y-15025881D02*
X14715595Y-15044928D01*
X14715595Y-15044928D02*
X14706072Y-15054452D01*
X14706072Y-15054452D02*
X14687024Y-15063976D01*
X14687024Y-15063976D02*
X14658452Y-15063976D01*
X14839405Y-15063976D02*
X14820357Y-15054452D01*
X14820357Y-15054452D02*
X14810833Y-15035405D01*
X14810833Y-15035405D02*
X14810833Y-14863976D01*
X14991786Y-15054452D02*
X14972738Y-15063976D01*
X14972738Y-15063976D02*
X14934643Y-15063976D01*
X14934643Y-15063976D02*
X14915595Y-15054452D01*
X14915595Y-15054452D02*
X14906072Y-15035405D01*
X14906072Y-15035405D02*
X14906072Y-14959214D01*
X14906072Y-14959214D02*
X14915595Y-14940167D01*
X14915595Y-14940167D02*
X14934643Y-14930643D01*
X14934643Y-14930643D02*
X14972738Y-14930643D01*
X14972738Y-14930643D02*
X14991786Y-14940167D01*
X14991786Y-14940167D02*
X15001310Y-14959214D01*
X15001310Y-14959214D02*
X15001310Y-14978262D01*
X15001310Y-14978262D02*
X14906072Y-14997309D01*
X15077500Y-15054452D02*
X15096548Y-15063976D01*
X15096548Y-15063976D02*
X15134643Y-15063976D01*
X15134643Y-15063976D02*
X15153691Y-15054452D01*
X15153691Y-15054452D02*
X15163214Y-15035405D01*
X15163214Y-15035405D02*
X15163214Y-15025881D01*
X15163214Y-15025881D02*
X15153691Y-15006833D01*
X15153691Y-15006833D02*
X15134643Y-14997309D01*
X15134643Y-14997309D02*
X15106072Y-14997309D01*
X15106072Y-14997309D02*
X15087024Y-14987786D01*
X15087024Y-14987786D02*
X15077500Y-14968738D01*
X15077500Y-14968738D02*
X15077500Y-14959214D01*
X15077500Y-14959214D02*
X15087024Y-14940167D01*
X15087024Y-14940167D02*
X15106072Y-14930643D01*
X15106072Y-14930643D02*
X15134643Y-14930643D01*
X15134643Y-14930643D02*
X15153691Y-14940167D01*
X15229881Y-15140167D02*
X15239405Y-15130643D01*
X15239405Y-15130643D02*
X15258453Y-15102071D01*
X15258453Y-15102071D02*
X15267976Y-15083024D01*
X15267976Y-15083024D02*
X15277500Y-15054452D01*
X15277500Y-15054452D02*
X15287024Y-15006833D01*
X15287024Y-15006833D02*
X15287024Y-14968738D01*
X15287024Y-14968738D02*
X15277500Y-14921119D01*
X15277500Y-14921119D02*
X15267976Y-14892548D01*
X15267976Y-14892548D02*
X15258453Y-14873500D01*
X15258453Y-14873500D02*
X15239405Y-14844928D01*
X15239405Y-14844928D02*
X15229881Y-14835405D01*
D19*
X10417500Y-15164500D02*
X10597500Y-15344500D01*
X10597500Y-15164500D02*
X10417500Y-15344500D01*
X10507500Y-15344500D02*
X10597500Y-15254500D01*
X10507500Y-15164500D01*
X10417500Y-15254500D01*
X10507500Y-15344500D01*
D11*
X10949881Y-15327976D02*
X10835595Y-15327976D01*
X10892738Y-15327976D02*
X10892738Y-15127976D01*
X10892738Y-15127976D02*
X10873690Y-15156548D01*
X10873690Y-15156548D02*
X10854643Y-15175595D01*
X10854643Y-15175595D02*
X10835595Y-15185119D01*
X11035595Y-15308928D02*
X11045119Y-15318452D01*
X11045119Y-15318452D02*
X11035595Y-15327976D01*
X11035595Y-15327976D02*
X11026071Y-15318452D01*
X11026071Y-15318452D02*
X11035595Y-15308928D01*
X11035595Y-15308928D02*
X11035595Y-15327976D01*
X11159405Y-15213690D02*
X11140357Y-15204167D01*
X11140357Y-15204167D02*
X11130833Y-15194643D01*
X11130833Y-15194643D02*
X11121310Y-15175595D01*
X11121310Y-15175595D02*
X11121310Y-15166071D01*
X11121310Y-15166071D02*
X11130833Y-15147024D01*
X11130833Y-15147024D02*
X11140357Y-15137500D01*
X11140357Y-15137500D02*
X11159405Y-15127976D01*
X11159405Y-15127976D02*
X11197500Y-15127976D01*
X11197500Y-15127976D02*
X11216548Y-15137500D01*
X11216548Y-15137500D02*
X11226071Y-15147024D01*
X11226071Y-15147024D02*
X11235595Y-15166071D01*
X11235595Y-15166071D02*
X11235595Y-15175595D01*
X11235595Y-15175595D02*
X11226071Y-15194643D01*
X11226071Y-15194643D02*
X11216548Y-15204167D01*
X11216548Y-15204167D02*
X11197500Y-15213690D01*
X11197500Y-15213690D02*
X11159405Y-15213690D01*
X11159405Y-15213690D02*
X11140357Y-15223214D01*
X11140357Y-15223214D02*
X11130833Y-15232738D01*
X11130833Y-15232738D02*
X11121310Y-15251786D01*
X11121310Y-15251786D02*
X11121310Y-15289881D01*
X11121310Y-15289881D02*
X11130833Y-15308928D01*
X11130833Y-15308928D02*
X11140357Y-15318452D01*
X11140357Y-15318452D02*
X11159405Y-15327976D01*
X11159405Y-15327976D02*
X11197500Y-15327976D01*
X11197500Y-15327976D02*
X11216548Y-15318452D01*
X11216548Y-15318452D02*
X11226071Y-15308928D01*
X11226071Y-15308928D02*
X11235595Y-15289881D01*
X11235595Y-15289881D02*
X11235595Y-15251786D01*
X11235595Y-15251786D02*
X11226071Y-15232738D01*
X11226071Y-15232738D02*
X11216548Y-15223214D01*
X11216548Y-15223214D02*
X11197500Y-15213690D01*
X11359405Y-15127976D02*
X11378452Y-15127976D01*
X11378452Y-15127976D02*
X11397500Y-15137500D01*
X11397500Y-15137500D02*
X11407024Y-15147024D01*
X11407024Y-15147024D02*
X11416548Y-15166071D01*
X11416548Y-15166071D02*
X11426071Y-15204167D01*
X11426071Y-15204167D02*
X11426071Y-15251786D01*
X11426071Y-15251786D02*
X11416548Y-15289881D01*
X11416548Y-15289881D02*
X11407024Y-15308928D01*
X11407024Y-15308928D02*
X11397500Y-15318452D01*
X11397500Y-15318452D02*
X11378452Y-15327976D01*
X11378452Y-15327976D02*
X11359405Y-15327976D01*
X11359405Y-15327976D02*
X11340357Y-15318452D01*
X11340357Y-15318452D02*
X11330833Y-15308928D01*
X11330833Y-15308928D02*
X11321309Y-15289881D01*
X11321309Y-15289881D02*
X11311786Y-15251786D01*
X11311786Y-15251786D02*
X11311786Y-15204167D01*
X11311786Y-15204167D02*
X11321309Y-15166071D01*
X11321309Y-15166071D02*
X11330833Y-15147024D01*
X11330833Y-15147024D02*
X11340357Y-15137500D01*
X11340357Y-15137500D02*
X11359405Y-15127976D01*
X11549881Y-15127976D02*
X11568929Y-15127976D01*
X11568929Y-15127976D02*
X11587976Y-15137500D01*
X11587976Y-15137500D02*
X11597500Y-15147024D01*
X11597500Y-15147024D02*
X11607024Y-15166071D01*
X11607024Y-15166071D02*
X11616548Y-15204167D01*
X11616548Y-15204167D02*
X11616548Y-15251786D01*
X11616548Y-15251786D02*
X11607024Y-15289881D01*
X11607024Y-15289881D02*
X11597500Y-15308928D01*
X11597500Y-15308928D02*
X11587976Y-15318452D01*
X11587976Y-15318452D02*
X11568929Y-15327976D01*
X11568929Y-15327976D02*
X11549881Y-15327976D01*
X11549881Y-15327976D02*
X11530833Y-15318452D01*
X11530833Y-15318452D02*
X11521309Y-15308928D01*
X11521309Y-15308928D02*
X11511786Y-15289881D01*
X11511786Y-15289881D02*
X11502262Y-15251786D01*
X11502262Y-15251786D02*
X11502262Y-15204167D01*
X11502262Y-15204167D02*
X11511786Y-15166071D01*
X11511786Y-15166071D02*
X11521309Y-15147024D01*
X11521309Y-15147024D02*
X11530833Y-15137500D01*
X11530833Y-15137500D02*
X11549881Y-15127976D01*
X11702262Y-15327976D02*
X11702262Y-15194643D01*
X11702262Y-15213690D02*
X11711786Y-15204167D01*
X11711786Y-15204167D02*
X11730833Y-15194643D01*
X11730833Y-15194643D02*
X11759405Y-15194643D01*
X11759405Y-15194643D02*
X11778452Y-15204167D01*
X11778452Y-15204167D02*
X11787976Y-15223214D01*
X11787976Y-15223214D02*
X11787976Y-15327976D01*
X11787976Y-15223214D02*
X11797500Y-15204167D01*
X11797500Y-15204167D02*
X11816548Y-15194643D01*
X11816548Y-15194643D02*
X11845119Y-15194643D01*
X11845119Y-15194643D02*
X11864167Y-15204167D01*
X11864167Y-15204167D02*
X11873690Y-15223214D01*
X11873690Y-15223214D02*
X11873690Y-15327976D01*
X11968929Y-15327976D02*
X11968929Y-15194643D01*
X11968929Y-15213690D02*
X11978452Y-15204167D01*
X11978452Y-15204167D02*
X11997500Y-15194643D01*
X11997500Y-15194643D02*
X12026071Y-15194643D01*
X12026071Y-15194643D02*
X12045119Y-15204167D01*
X12045119Y-15204167D02*
X12054643Y-15223214D01*
X12054643Y-15223214D02*
X12054643Y-15327976D01*
X12054643Y-15223214D02*
X12064167Y-15204167D01*
X12064167Y-15204167D02*
X12083214Y-15194643D01*
X12083214Y-15194643D02*
X12111786Y-15194643D01*
X12111786Y-15194643D02*
X12130833Y-15204167D01*
X12130833Y-15204167D02*
X12140357Y-15223214D01*
X12140357Y-15223214D02*
X12140357Y-15327976D01*
X12498452Y-15118452D02*
X12327024Y-15375595D01*
X12723214Y-15127976D02*
X12742262Y-15127976D01*
X12742262Y-15127976D02*
X12761310Y-15137500D01*
X12761310Y-15137500D02*
X12770833Y-15147024D01*
X12770833Y-15147024D02*
X12780357Y-15166071D01*
X12780357Y-15166071D02*
X12789881Y-15204167D01*
X12789881Y-15204167D02*
X12789881Y-15251786D01*
X12789881Y-15251786D02*
X12780357Y-15289881D01*
X12780357Y-15289881D02*
X12770833Y-15308928D01*
X12770833Y-15308928D02*
X12761310Y-15318452D01*
X12761310Y-15318452D02*
X12742262Y-15327976D01*
X12742262Y-15327976D02*
X12723214Y-15327976D01*
X12723214Y-15327976D02*
X12704167Y-15318452D01*
X12704167Y-15318452D02*
X12694643Y-15308928D01*
X12694643Y-15308928D02*
X12685119Y-15289881D01*
X12685119Y-15289881D02*
X12675595Y-15251786D01*
X12675595Y-15251786D02*
X12675595Y-15204167D01*
X12675595Y-15204167D02*
X12685119Y-15166071D01*
X12685119Y-15166071D02*
X12694643Y-15147024D01*
X12694643Y-15147024D02*
X12704167Y-15137500D01*
X12704167Y-15137500D02*
X12723214Y-15127976D01*
X12875595Y-15308928D02*
X12885119Y-15318452D01*
X12885119Y-15318452D02*
X12875595Y-15327976D01*
X12875595Y-15327976D02*
X12866071Y-15318452D01*
X12866071Y-15318452D02*
X12875595Y-15308928D01*
X12875595Y-15308928D02*
X12875595Y-15327976D01*
X13008929Y-15127976D02*
X13027976Y-15127976D01*
X13027976Y-15127976D02*
X13047024Y-15137500D01*
X13047024Y-15137500D02*
X13056548Y-15147024D01*
X13056548Y-15147024D02*
X13066071Y-15166071D01*
X13066071Y-15166071D02*
X13075595Y-15204167D01*
X13075595Y-15204167D02*
X13075595Y-15251786D01*
X13075595Y-15251786D02*
X13066071Y-15289881D01*
X13066071Y-15289881D02*
X13056548Y-15308928D01*
X13056548Y-15308928D02*
X13047024Y-15318452D01*
X13047024Y-15318452D02*
X13027976Y-15327976D01*
X13027976Y-15327976D02*
X13008929Y-15327976D01*
X13008929Y-15327976D02*
X12989881Y-15318452D01*
X12989881Y-15318452D02*
X12980357Y-15308928D01*
X12980357Y-15308928D02*
X12970833Y-15289881D01*
X12970833Y-15289881D02*
X12961310Y-15251786D01*
X12961310Y-15251786D02*
X12961310Y-15204167D01*
X12961310Y-15204167D02*
X12970833Y-15166071D01*
X12970833Y-15166071D02*
X12980357Y-15147024D01*
X12980357Y-15147024D02*
X12989881Y-15137500D01*
X12989881Y-15137500D02*
X13008929Y-15127976D01*
X13142262Y-15127976D02*
X13275595Y-15127976D01*
X13275595Y-15127976D02*
X13189881Y-15327976D01*
X13389881Y-15127976D02*
X13408929Y-15127976D01*
X13408929Y-15127976D02*
X13427976Y-15137500D01*
X13427976Y-15137500D02*
X13437500Y-15147024D01*
X13437500Y-15147024D02*
X13447024Y-15166071D01*
X13447024Y-15166071D02*
X13456548Y-15204167D01*
X13456548Y-15204167D02*
X13456548Y-15251786D01*
X13456548Y-15251786D02*
X13447024Y-15289881D01*
X13447024Y-15289881D02*
X13437500Y-15308928D01*
X13437500Y-15308928D02*
X13427976Y-15318452D01*
X13427976Y-15318452D02*
X13408929Y-15327976D01*
X13408929Y-15327976D02*
X13389881Y-15327976D01*
X13389881Y-15327976D02*
X13370833Y-15318452D01*
X13370833Y-15318452D02*
X13361310Y-15308928D01*
X13361310Y-15308928D02*
X13351786Y-15289881D01*
X13351786Y-15289881D02*
X13342262Y-15251786D01*
X13342262Y-15251786D02*
X13342262Y-15204167D01*
X13342262Y-15204167D02*
X13351786Y-15166071D01*
X13351786Y-15166071D02*
X13361310Y-15147024D01*
X13361310Y-15147024D02*
X13370833Y-15137500D01*
X13370833Y-15137500D02*
X13389881Y-15127976D01*
X13551786Y-15327976D02*
X13589881Y-15327976D01*
X13589881Y-15327976D02*
X13608929Y-15318452D01*
X13608929Y-15318452D02*
X13618452Y-15308928D01*
X13618452Y-15308928D02*
X13637500Y-15280357D01*
X13637500Y-15280357D02*
X13647024Y-15242262D01*
X13647024Y-15242262D02*
X13647024Y-15166071D01*
X13647024Y-15166071D02*
X13637500Y-15147024D01*
X13637500Y-15147024D02*
X13627976Y-15137500D01*
X13627976Y-15137500D02*
X13608929Y-15127976D01*
X13608929Y-15127976D02*
X13570833Y-15127976D01*
X13570833Y-15127976D02*
X13551786Y-15137500D01*
X13551786Y-15137500D02*
X13542262Y-15147024D01*
X13542262Y-15147024D02*
X13532738Y-15166071D01*
X13532738Y-15166071D02*
X13532738Y-15213690D01*
X13532738Y-15213690D02*
X13542262Y-15232738D01*
X13542262Y-15232738D02*
X13551786Y-15242262D01*
X13551786Y-15242262D02*
X13570833Y-15251786D01*
X13570833Y-15251786D02*
X13608929Y-15251786D01*
X13608929Y-15251786D02*
X13627976Y-15242262D01*
X13627976Y-15242262D02*
X13637500Y-15232738D01*
X13637500Y-15232738D02*
X13647024Y-15213690D01*
X13723214Y-15127976D02*
X13723214Y-15166071D01*
X13799405Y-15127976D02*
X13799405Y-15166071D01*
X14062262Y-15404167D02*
X14052738Y-15394643D01*
X14052738Y-15394643D02*
X14033691Y-15366071D01*
X14033691Y-15366071D02*
X14024167Y-15347024D01*
X14024167Y-15347024D02*
X14014643Y-15318452D01*
X14014643Y-15318452D02*
X14005119Y-15270833D01*
X14005119Y-15270833D02*
X14005119Y-15232738D01*
X14005119Y-15232738D02*
X14014643Y-15185119D01*
X14014643Y-15185119D02*
X14024167Y-15156548D01*
X14024167Y-15156548D02*
X14033691Y-15137500D01*
X14033691Y-15137500D02*
X14052738Y-15108928D01*
X14052738Y-15108928D02*
X14062262Y-15099405D01*
X14167024Y-15213690D02*
X14147976Y-15204167D01*
X14147976Y-15204167D02*
X14138452Y-15194643D01*
X14138452Y-15194643D02*
X14128929Y-15175595D01*
X14128929Y-15175595D02*
X14128929Y-15166071D01*
X14128929Y-15166071D02*
X14138452Y-15147024D01*
X14138452Y-15147024D02*
X14147976Y-15137500D01*
X14147976Y-15137500D02*
X14167024Y-15127976D01*
X14167024Y-15127976D02*
X14205119Y-15127976D01*
X14205119Y-15127976D02*
X14224167Y-15137500D01*
X14224167Y-15137500D02*
X14233691Y-15147024D01*
X14233691Y-15147024D02*
X14243214Y-15166071D01*
X14243214Y-15166071D02*
X14243214Y-15175595D01*
X14243214Y-15175595D02*
X14233691Y-15194643D01*
X14233691Y-15194643D02*
X14224167Y-15204167D01*
X14224167Y-15204167D02*
X14205119Y-15213690D01*
X14205119Y-15213690D02*
X14167024Y-15213690D01*
X14167024Y-15213690D02*
X14147976Y-15223214D01*
X14147976Y-15223214D02*
X14138452Y-15232738D01*
X14138452Y-15232738D02*
X14128929Y-15251786D01*
X14128929Y-15251786D02*
X14128929Y-15289881D01*
X14128929Y-15289881D02*
X14138452Y-15308928D01*
X14138452Y-15308928D02*
X14147976Y-15318452D01*
X14147976Y-15318452D02*
X14167024Y-15327976D01*
X14167024Y-15327976D02*
X14205119Y-15327976D01*
X14205119Y-15327976D02*
X14224167Y-15318452D01*
X14224167Y-15318452D02*
X14233691Y-15308928D01*
X14233691Y-15308928D02*
X14243214Y-15289881D01*
X14243214Y-15289881D02*
X14243214Y-15251786D01*
X14243214Y-15251786D02*
X14233691Y-15232738D01*
X14233691Y-15232738D02*
X14224167Y-15223214D01*
X14224167Y-15223214D02*
X14205119Y-15213690D01*
X14448929Y-15327976D02*
X14448929Y-15127976D01*
X14534643Y-15327976D02*
X14534643Y-15223214D01*
X14534643Y-15223214D02*
X14525119Y-15204167D01*
X14525119Y-15204167D02*
X14506072Y-15194643D01*
X14506072Y-15194643D02*
X14477500Y-15194643D01*
X14477500Y-15194643D02*
X14458452Y-15204167D01*
X14458452Y-15204167D02*
X14448929Y-15213690D01*
X14658452Y-15327976D02*
X14639405Y-15318452D01*
X14639405Y-15318452D02*
X14629881Y-15308928D01*
X14629881Y-15308928D02*
X14620357Y-15289881D01*
X14620357Y-15289881D02*
X14620357Y-15232738D01*
X14620357Y-15232738D02*
X14629881Y-15213690D01*
X14629881Y-15213690D02*
X14639405Y-15204167D01*
X14639405Y-15204167D02*
X14658452Y-15194643D01*
X14658452Y-15194643D02*
X14687024Y-15194643D01*
X14687024Y-15194643D02*
X14706072Y-15204167D01*
X14706072Y-15204167D02*
X14715595Y-15213690D01*
X14715595Y-15213690D02*
X14725119Y-15232738D01*
X14725119Y-15232738D02*
X14725119Y-15289881D01*
X14725119Y-15289881D02*
X14715595Y-15308928D01*
X14715595Y-15308928D02*
X14706072Y-15318452D01*
X14706072Y-15318452D02*
X14687024Y-15327976D01*
X14687024Y-15327976D02*
X14658452Y-15327976D01*
X14839405Y-15327976D02*
X14820357Y-15318452D01*
X14820357Y-15318452D02*
X14810833Y-15299405D01*
X14810833Y-15299405D02*
X14810833Y-15127976D01*
X14991786Y-15318452D02*
X14972738Y-15327976D01*
X14972738Y-15327976D02*
X14934643Y-15327976D01*
X14934643Y-15327976D02*
X14915595Y-15318452D01*
X14915595Y-15318452D02*
X14906072Y-15299405D01*
X14906072Y-15299405D02*
X14906072Y-15223214D01*
X14906072Y-15223214D02*
X14915595Y-15204167D01*
X14915595Y-15204167D02*
X14934643Y-15194643D01*
X14934643Y-15194643D02*
X14972738Y-15194643D01*
X14972738Y-15194643D02*
X14991786Y-15204167D01*
X14991786Y-15204167D02*
X15001310Y-15223214D01*
X15001310Y-15223214D02*
X15001310Y-15242262D01*
X15001310Y-15242262D02*
X14906072Y-15261309D01*
X15077500Y-15318452D02*
X15096548Y-15327976D01*
X15096548Y-15327976D02*
X15134643Y-15327976D01*
X15134643Y-15327976D02*
X15153691Y-15318452D01*
X15153691Y-15318452D02*
X15163214Y-15299405D01*
X15163214Y-15299405D02*
X15163214Y-15289881D01*
X15163214Y-15289881D02*
X15153691Y-15270833D01*
X15153691Y-15270833D02*
X15134643Y-15261309D01*
X15134643Y-15261309D02*
X15106072Y-15261309D01*
X15106072Y-15261309D02*
X15087024Y-15251786D01*
X15087024Y-15251786D02*
X15077500Y-15232738D01*
X15077500Y-15232738D02*
X15077500Y-15223214D01*
X15077500Y-15223214D02*
X15087024Y-15204167D01*
X15087024Y-15204167D02*
X15106072Y-15194643D01*
X15106072Y-15194643D02*
X15134643Y-15194643D01*
X15134643Y-15194643D02*
X15153691Y-15204167D01*
X15229881Y-15404167D02*
X15239405Y-15394643D01*
X15239405Y-15394643D02*
X15258453Y-15366071D01*
X15258453Y-15366071D02*
X15267976Y-15347024D01*
X15267976Y-15347024D02*
X15277500Y-15318452D01*
X15277500Y-15318452D02*
X15287024Y-15270833D01*
X15287024Y-15270833D02*
X15287024Y-15232738D01*
X15287024Y-15232738D02*
X15277500Y-15185119D01*
X15277500Y-15185119D02*
X15267976Y-15156548D01*
X15267976Y-15156548D02*
X15258453Y-15137500D01*
X15258453Y-15137500D02*
X15239405Y-15108928D01*
X15239405Y-15108928D02*
X15229881Y-15099405D01*
X10497500Y-15454500D02*
X10497500Y-15654500D01*
X10397500Y-15554500D02*
X10597500Y-15554500D01*
X10597500Y-15554500D02*
G75*
G03*
X10597500Y-15554500I-100000J0D01*
G01*
X10826071Y-15427976D02*
X10949881Y-15427976D01*
X10949881Y-15427976D02*
X10883214Y-15504167D01*
X10883214Y-15504167D02*
X10911786Y-15504167D01*
X10911786Y-15504167D02*
X10930833Y-15513690D01*
X10930833Y-15513690D02*
X10940357Y-15523214D01*
X10940357Y-15523214D02*
X10949881Y-15542262D01*
X10949881Y-15542262D02*
X10949881Y-15589881D01*
X10949881Y-15589881D02*
X10940357Y-15608928D01*
X10940357Y-15608928D02*
X10930833Y-15618452D01*
X10930833Y-15618452D02*
X10911786Y-15627976D01*
X10911786Y-15627976D02*
X10854643Y-15627976D01*
X10854643Y-15627976D02*
X10835595Y-15618452D01*
X10835595Y-15618452D02*
X10826071Y-15608928D01*
X11035595Y-15608928D02*
X11045119Y-15618452D01*
X11045119Y-15618452D02*
X11035595Y-15627976D01*
X11035595Y-15627976D02*
X11026071Y-15618452D01*
X11026071Y-15618452D02*
X11035595Y-15608928D01*
X11035595Y-15608928D02*
X11035595Y-15627976D01*
X11121310Y-15447024D02*
X11130833Y-15437500D01*
X11130833Y-15437500D02*
X11149881Y-15427976D01*
X11149881Y-15427976D02*
X11197500Y-15427976D01*
X11197500Y-15427976D02*
X11216548Y-15437500D01*
X11216548Y-15437500D02*
X11226071Y-15447024D01*
X11226071Y-15447024D02*
X11235595Y-15466071D01*
X11235595Y-15466071D02*
X11235595Y-15485119D01*
X11235595Y-15485119D02*
X11226071Y-15513690D01*
X11226071Y-15513690D02*
X11111786Y-15627976D01*
X11111786Y-15627976D02*
X11235595Y-15627976D01*
X11359405Y-15427976D02*
X11378452Y-15427976D01*
X11378452Y-15427976D02*
X11397500Y-15437500D01*
X11397500Y-15437500D02*
X11407024Y-15447024D01*
X11407024Y-15447024D02*
X11416548Y-15466071D01*
X11416548Y-15466071D02*
X11426071Y-15504167D01*
X11426071Y-15504167D02*
X11426071Y-15551786D01*
X11426071Y-15551786D02*
X11416548Y-15589881D01*
X11416548Y-15589881D02*
X11407024Y-15608928D01*
X11407024Y-15608928D02*
X11397500Y-15618452D01*
X11397500Y-15618452D02*
X11378452Y-15627976D01*
X11378452Y-15627976D02*
X11359405Y-15627976D01*
X11359405Y-15627976D02*
X11340357Y-15618452D01*
X11340357Y-15618452D02*
X11330833Y-15608928D01*
X11330833Y-15608928D02*
X11321309Y-15589881D01*
X11321309Y-15589881D02*
X11311786Y-15551786D01*
X11311786Y-15551786D02*
X11311786Y-15504167D01*
X11311786Y-15504167D02*
X11321309Y-15466071D01*
X11321309Y-15466071D02*
X11330833Y-15447024D01*
X11330833Y-15447024D02*
X11340357Y-15437500D01*
X11340357Y-15437500D02*
X11359405Y-15427976D01*
X11549881Y-15427976D02*
X11568929Y-15427976D01*
X11568929Y-15427976D02*
X11587976Y-15437500D01*
X11587976Y-15437500D02*
X11597500Y-15447024D01*
X11597500Y-15447024D02*
X11607024Y-15466071D01*
X11607024Y-15466071D02*
X11616548Y-15504167D01*
X11616548Y-15504167D02*
X11616548Y-15551786D01*
X11616548Y-15551786D02*
X11607024Y-15589881D01*
X11607024Y-15589881D02*
X11597500Y-15608928D01*
X11597500Y-15608928D02*
X11587976Y-15618452D01*
X11587976Y-15618452D02*
X11568929Y-15627976D01*
X11568929Y-15627976D02*
X11549881Y-15627976D01*
X11549881Y-15627976D02*
X11530833Y-15618452D01*
X11530833Y-15618452D02*
X11521309Y-15608928D01*
X11521309Y-15608928D02*
X11511786Y-15589881D01*
X11511786Y-15589881D02*
X11502262Y-15551786D01*
X11502262Y-15551786D02*
X11502262Y-15504167D01*
X11502262Y-15504167D02*
X11511786Y-15466071D01*
X11511786Y-15466071D02*
X11521309Y-15447024D01*
X11521309Y-15447024D02*
X11530833Y-15437500D01*
X11530833Y-15437500D02*
X11549881Y-15427976D01*
X11702262Y-15627976D02*
X11702262Y-15494643D01*
X11702262Y-15513690D02*
X11711786Y-15504167D01*
X11711786Y-15504167D02*
X11730833Y-15494643D01*
X11730833Y-15494643D02*
X11759405Y-15494643D01*
X11759405Y-15494643D02*
X11778452Y-15504167D01*
X11778452Y-15504167D02*
X11787976Y-15523214D01*
X11787976Y-15523214D02*
X11787976Y-15627976D01*
X11787976Y-15523214D02*
X11797500Y-15504167D01*
X11797500Y-15504167D02*
X11816548Y-15494643D01*
X11816548Y-15494643D02*
X11845119Y-15494643D01*
X11845119Y-15494643D02*
X11864167Y-15504167D01*
X11864167Y-15504167D02*
X11873690Y-15523214D01*
X11873690Y-15523214D02*
X11873690Y-15627976D01*
X11968929Y-15627976D02*
X11968929Y-15494643D01*
X11968929Y-15513690D02*
X11978452Y-15504167D01*
X11978452Y-15504167D02*
X11997500Y-15494643D01*
X11997500Y-15494643D02*
X12026071Y-15494643D01*
X12026071Y-15494643D02*
X12045119Y-15504167D01*
X12045119Y-15504167D02*
X12054643Y-15523214D01*
X12054643Y-15523214D02*
X12054643Y-15627976D01*
X12054643Y-15523214D02*
X12064167Y-15504167D01*
X12064167Y-15504167D02*
X12083214Y-15494643D01*
X12083214Y-15494643D02*
X12111786Y-15494643D01*
X12111786Y-15494643D02*
X12130833Y-15504167D01*
X12130833Y-15504167D02*
X12140357Y-15523214D01*
X12140357Y-15523214D02*
X12140357Y-15627976D01*
X12498452Y-15418452D02*
X12327024Y-15675595D01*
X12723214Y-15427976D02*
X12742262Y-15427976D01*
X12742262Y-15427976D02*
X12761310Y-15437500D01*
X12761310Y-15437500D02*
X12770833Y-15447024D01*
X12770833Y-15447024D02*
X12780357Y-15466071D01*
X12780357Y-15466071D02*
X12789881Y-15504167D01*
X12789881Y-15504167D02*
X12789881Y-15551786D01*
X12789881Y-15551786D02*
X12780357Y-15589881D01*
X12780357Y-15589881D02*
X12770833Y-15608928D01*
X12770833Y-15608928D02*
X12761310Y-15618452D01*
X12761310Y-15618452D02*
X12742262Y-15627976D01*
X12742262Y-15627976D02*
X12723214Y-15627976D01*
X12723214Y-15627976D02*
X12704167Y-15618452D01*
X12704167Y-15618452D02*
X12694643Y-15608928D01*
X12694643Y-15608928D02*
X12685119Y-15589881D01*
X12685119Y-15589881D02*
X12675595Y-15551786D01*
X12675595Y-15551786D02*
X12675595Y-15504167D01*
X12675595Y-15504167D02*
X12685119Y-15466071D01*
X12685119Y-15466071D02*
X12694643Y-15447024D01*
X12694643Y-15447024D02*
X12704167Y-15437500D01*
X12704167Y-15437500D02*
X12723214Y-15427976D01*
X12875595Y-15608928D02*
X12885119Y-15618452D01*
X12885119Y-15618452D02*
X12875595Y-15627976D01*
X12875595Y-15627976D02*
X12866071Y-15618452D01*
X12866071Y-15618452D02*
X12875595Y-15608928D01*
X12875595Y-15608928D02*
X12875595Y-15627976D01*
X13075595Y-15627976D02*
X12961310Y-15627976D01*
X13018452Y-15627976D02*
X13018452Y-15427976D01*
X13018452Y-15427976D02*
X12999405Y-15456548D01*
X12999405Y-15456548D02*
X12980357Y-15475595D01*
X12980357Y-15475595D02*
X12961310Y-15485119D01*
X13151786Y-15447024D02*
X13161310Y-15437500D01*
X13161310Y-15437500D02*
X13180357Y-15427976D01*
X13180357Y-15427976D02*
X13227976Y-15427976D01*
X13227976Y-15427976D02*
X13247024Y-15437500D01*
X13247024Y-15437500D02*
X13256548Y-15447024D01*
X13256548Y-15447024D02*
X13266071Y-15466071D01*
X13266071Y-15466071D02*
X13266071Y-15485119D01*
X13266071Y-15485119D02*
X13256548Y-15513690D01*
X13256548Y-15513690D02*
X13142262Y-15627976D01*
X13142262Y-15627976D02*
X13266071Y-15627976D01*
X13437500Y-15427976D02*
X13399405Y-15427976D01*
X13399405Y-15427976D02*
X13380357Y-15437500D01*
X13380357Y-15437500D02*
X13370833Y-15447024D01*
X13370833Y-15447024D02*
X13351786Y-15475595D01*
X13351786Y-15475595D02*
X13342262Y-15513690D01*
X13342262Y-15513690D02*
X13342262Y-15589881D01*
X13342262Y-15589881D02*
X13351786Y-15608928D01*
X13351786Y-15608928D02*
X13361310Y-15618452D01*
X13361310Y-15618452D02*
X13380357Y-15627976D01*
X13380357Y-15627976D02*
X13418452Y-15627976D01*
X13418452Y-15627976D02*
X13437500Y-15618452D01*
X13437500Y-15618452D02*
X13447024Y-15608928D01*
X13447024Y-15608928D02*
X13456548Y-15589881D01*
X13456548Y-15589881D02*
X13456548Y-15542262D01*
X13456548Y-15542262D02*
X13447024Y-15523214D01*
X13447024Y-15523214D02*
X13437500Y-15513690D01*
X13437500Y-15513690D02*
X13418452Y-15504167D01*
X13418452Y-15504167D02*
X13380357Y-15504167D01*
X13380357Y-15504167D02*
X13361310Y-15513690D01*
X13361310Y-15513690D02*
X13351786Y-15523214D01*
X13351786Y-15523214D02*
X13342262Y-15542262D01*
X13580357Y-15427976D02*
X13599405Y-15427976D01*
X13599405Y-15427976D02*
X13618452Y-15437500D01*
X13618452Y-15437500D02*
X13627976Y-15447024D01*
X13627976Y-15447024D02*
X13637500Y-15466071D01*
X13637500Y-15466071D02*
X13647024Y-15504167D01*
X13647024Y-15504167D02*
X13647024Y-15551786D01*
X13647024Y-15551786D02*
X13637500Y-15589881D01*
X13637500Y-15589881D02*
X13627976Y-15608928D01*
X13627976Y-15608928D02*
X13618452Y-15618452D01*
X13618452Y-15618452D02*
X13599405Y-15627976D01*
X13599405Y-15627976D02*
X13580357Y-15627976D01*
X13580357Y-15627976D02*
X13561310Y-15618452D01*
X13561310Y-15618452D02*
X13551786Y-15608928D01*
X13551786Y-15608928D02*
X13542262Y-15589881D01*
X13542262Y-15589881D02*
X13532738Y-15551786D01*
X13532738Y-15551786D02*
X13532738Y-15504167D01*
X13532738Y-15504167D02*
X13542262Y-15466071D01*
X13542262Y-15466071D02*
X13551786Y-15447024D01*
X13551786Y-15447024D02*
X13561310Y-15437500D01*
X13561310Y-15437500D02*
X13580357Y-15427976D01*
X13723214Y-15427976D02*
X13723214Y-15466071D01*
X13799405Y-15427976D02*
X13799405Y-15466071D01*
X14062262Y-15704167D02*
X14052738Y-15694643D01*
X14052738Y-15694643D02*
X14033691Y-15666071D01*
X14033691Y-15666071D02*
X14024167Y-15647024D01*
X14024167Y-15647024D02*
X14014643Y-15618452D01*
X14014643Y-15618452D02*
X14005119Y-15570833D01*
X14005119Y-15570833D02*
X14005119Y-15532738D01*
X14005119Y-15532738D02*
X14014643Y-15485119D01*
X14014643Y-15485119D02*
X14024167Y-15456548D01*
X14024167Y-15456548D02*
X14033691Y-15437500D01*
X14033691Y-15437500D02*
X14052738Y-15408928D01*
X14052738Y-15408928D02*
X14062262Y-15399405D01*
X14119405Y-15427976D02*
X14243214Y-15427976D01*
X14243214Y-15427976D02*
X14176548Y-15504167D01*
X14176548Y-15504167D02*
X14205119Y-15504167D01*
X14205119Y-15504167D02*
X14224167Y-15513690D01*
X14224167Y-15513690D02*
X14233691Y-15523214D01*
X14233691Y-15523214D02*
X14243214Y-15542262D01*
X14243214Y-15542262D02*
X14243214Y-15589881D01*
X14243214Y-15589881D02*
X14233691Y-15608928D01*
X14233691Y-15608928D02*
X14224167Y-15618452D01*
X14224167Y-15618452D02*
X14205119Y-15627976D01*
X14205119Y-15627976D02*
X14147976Y-15627976D01*
X14147976Y-15627976D02*
X14128929Y-15618452D01*
X14128929Y-15618452D02*
X14119405Y-15608928D01*
X14448929Y-15627976D02*
X14448929Y-15427976D01*
X14534643Y-15627976D02*
X14534643Y-15523214D01*
X14534643Y-15523214D02*
X14525119Y-15504167D01*
X14525119Y-15504167D02*
X14506072Y-15494643D01*
X14506072Y-15494643D02*
X14477500Y-15494643D01*
X14477500Y-15494643D02*
X14458452Y-15504167D01*
X14458452Y-15504167D02*
X14448929Y-15513690D01*
X14658452Y-15627976D02*
X14639405Y-15618452D01*
X14639405Y-15618452D02*
X14629881Y-15608928D01*
X14629881Y-15608928D02*
X14620357Y-15589881D01*
X14620357Y-15589881D02*
X14620357Y-15532738D01*
X14620357Y-15532738D02*
X14629881Y-15513690D01*
X14629881Y-15513690D02*
X14639405Y-15504167D01*
X14639405Y-15504167D02*
X14658452Y-15494643D01*
X14658452Y-15494643D02*
X14687024Y-15494643D01*
X14687024Y-15494643D02*
X14706072Y-15504167D01*
X14706072Y-15504167D02*
X14715595Y-15513690D01*
X14715595Y-15513690D02*
X14725119Y-15532738D01*
X14725119Y-15532738D02*
X14725119Y-15589881D01*
X14725119Y-15589881D02*
X14715595Y-15608928D01*
X14715595Y-15608928D02*
X14706072Y-15618452D01*
X14706072Y-15618452D02*
X14687024Y-15627976D01*
X14687024Y-15627976D02*
X14658452Y-15627976D01*
X14839405Y-15627976D02*
X14820357Y-15618452D01*
X14820357Y-15618452D02*
X14810833Y-15599405D01*
X14810833Y-15599405D02*
X14810833Y-15427976D01*
X14991786Y-15618452D02*
X14972738Y-15627976D01*
X14972738Y-15627976D02*
X14934643Y-15627976D01*
X14934643Y-15627976D02*
X14915595Y-15618452D01*
X14915595Y-15618452D02*
X14906072Y-15599405D01*
X14906072Y-15599405D02*
X14906072Y-15523214D01*
X14906072Y-15523214D02*
X14915595Y-15504167D01*
X14915595Y-15504167D02*
X14934643Y-15494643D01*
X14934643Y-15494643D02*
X14972738Y-15494643D01*
X14972738Y-15494643D02*
X14991786Y-15504167D01*
X14991786Y-15504167D02*
X15001310Y-15523214D01*
X15001310Y-15523214D02*
X15001310Y-15542262D01*
X15001310Y-15542262D02*
X14906072Y-15561309D01*
X15077500Y-15618452D02*
X15096548Y-15627976D01*
X15096548Y-15627976D02*
X15134643Y-15627976D01*
X15134643Y-15627976D02*
X15153691Y-15618452D01*
X15153691Y-15618452D02*
X15163214Y-15599405D01*
X15163214Y-15599405D02*
X15163214Y-15589881D01*
X15163214Y-15589881D02*
X15153691Y-15570833D01*
X15153691Y-15570833D02*
X15134643Y-15561309D01*
X15134643Y-15561309D02*
X15106072Y-15561309D01*
X15106072Y-15561309D02*
X15087024Y-15551786D01*
X15087024Y-15551786D02*
X15077500Y-15532738D01*
X15077500Y-15532738D02*
X15077500Y-15523214D01*
X15077500Y-15523214D02*
X15087024Y-15504167D01*
X15087024Y-15504167D02*
X15106072Y-15494643D01*
X15106072Y-15494643D02*
X15134643Y-15494643D01*
X15134643Y-15494643D02*
X15153691Y-15504167D01*
X15229881Y-15704167D02*
X15239405Y-15694643D01*
X15239405Y-15694643D02*
X15258453Y-15666071D01*
X15258453Y-15666071D02*
X15267976Y-15647024D01*
X15267976Y-15647024D02*
X15277500Y-15618452D01*
X15277500Y-15618452D02*
X15287024Y-15570833D01*
X15287024Y-15570833D02*
X15287024Y-15532738D01*
X15287024Y-15532738D02*
X15277500Y-15485119D01*
X15277500Y-15485119D02*
X15267976Y-15456548D01*
X15267976Y-15456548D02*
X15258453Y-15437500D01*
X15258453Y-15437500D02*
X15239405Y-15408928D01*
X15239405Y-15408928D02*
X15229881Y-15399405D01*
M02*
