%TF.GenerationSoftware,KiCad,Pcbnew,(7.0.0)*%
%TF.CreationDate,2023-06-13T01:41:46+01:00*%
%TF.ProjectId,flintandsteel,666c696e-7461-46e6-9473-7465656c2e6b,rev?*%
%TF.SameCoordinates,Original*%
%TF.FileFunction,Paste,Top*%
%TF.FilePolarity,Positive*%
%FSLAX46Y46*%
G04 Gerber Fmt 4.6, Leading zero omitted, Abs format (unit mm)*
G04 Created by KiCad (PCBNEW (7.0.0)) date 2023-06-13 01:41:46*
%MOMM*%
%LPD*%
G01*
G04 APERTURE LIST*
G04 Aperture macros list*
%AMRoundRect*
0 Rectangle with rounded corners*
0 $1 Rounding radius*
0 $2 $3 $4 $5 $6 $7 $8 $9 X,Y pos of 4 corners*
0 Add a 4 corners polygon primitive as box body*
4,1,4,$2,$3,$4,$5,$6,$7,$8,$9,$2,$3,0*
0 Add four circle primitives for the rounded corners*
1,1,$1+$1,$2,$3*
1,1,$1+$1,$4,$5*
1,1,$1+$1,$6,$7*
1,1,$1+$1,$8,$9*
0 Add four rect primitives between the rounded corners*
20,1,$1+$1,$2,$3,$4,$5,0*
20,1,$1+$1,$4,$5,$6,$7,0*
20,1,$1+$1,$6,$7,$8,$9,0*
20,1,$1+$1,$8,$9,$2,$3,0*%
G04 Aperture macros list end*
%ADD10C,0.010000*%
%ADD11RoundRect,0.225000X-0.250000X0.225000X-0.250000X-0.225000X0.250000X-0.225000X0.250000X0.225000X0*%
%ADD12RoundRect,0.218750X-0.256250X0.218750X-0.256250X-0.218750X0.256250X-0.218750X0.256250X0.218750X0*%
%ADD13RoundRect,0.135000X0.185000X-0.135000X0.185000X0.135000X-0.185000X0.135000X-0.185000X-0.135000X0*%
%ADD14R,1.300000X1.200000*%
%ADD15R,0.950000X1.000000*%
%ADD16RoundRect,0.140000X0.170000X-0.140000X0.170000X0.140000X-0.170000X0.140000X-0.170000X-0.140000X0*%
%ADD17RoundRect,0.140000X-0.170000X0.140000X-0.170000X-0.140000X0.170000X-0.140000X0.170000X0.140000X0*%
%ADD18RoundRect,0.135000X-0.135000X-0.185000X0.135000X-0.185000X0.135000X0.185000X-0.135000X0.185000X0*%
%ADD19RoundRect,0.218750X0.218750X0.256250X-0.218750X0.256250X-0.218750X-0.256250X0.218750X-0.256250X0*%
%ADD20RoundRect,0.135000X0.135000X0.185000X-0.135000X0.185000X-0.135000X-0.185000X0.135000X-0.185000X0*%
%ADD21RoundRect,0.140000X-0.140000X-0.170000X0.140000X-0.170000X0.140000X0.170000X-0.140000X0.170000X0*%
%ADD22R,0.900000X0.800000*%
%ADD23R,2.000000X1.500000*%
%ADD24R,2.000000X3.800000*%
%ADD25RoundRect,0.200000X-0.200000X-0.275000X0.200000X-0.275000X0.200000X0.275000X-0.200000X0.275000X0*%
%ADD26RoundRect,0.147500X0.172500X-0.147500X0.172500X0.147500X-0.172500X0.147500X-0.172500X-0.147500X0*%
%ADD27RoundRect,0.200000X-0.275000X0.200000X-0.275000X-0.200000X0.275000X-0.200000X0.275000X0.200000X0*%
%ADD28RoundRect,0.218750X-0.218750X-0.381250X0.218750X-0.381250X0.218750X0.381250X-0.218750X0.381250X0*%
%ADD29RoundRect,0.135000X-0.185000X0.135000X-0.185000X-0.135000X0.185000X-0.135000X0.185000X0.135000X0*%
%ADD30RoundRect,0.006600X-0.398400X-0.103400X0.398400X-0.103400X0.398400X0.103400X-0.398400X0.103400X0*%
%ADD31RoundRect,0.022000X-0.088000X-0.383000X0.088000X-0.383000X0.088000X0.383000X-0.088000X0.383000X0*%
%ADD32RoundRect,0.147500X0.147500X0.172500X-0.147500X0.172500X-0.147500X-0.172500X0.147500X-0.172500X0*%
%ADD33RoundRect,0.200000X0.275000X-0.200000X0.275000X0.200000X-0.275000X0.200000X-0.275000X-0.200000X0*%
%ADD34R,0.700000X1.000000*%
%ADD35R,0.700000X0.600000*%
%ADD36RoundRect,0.200000X0.200000X0.275000X-0.200000X0.275000X-0.200000X-0.275000X0.200000X-0.275000X0*%
%ADD37R,1.300000X0.800000*%
%ADD38RoundRect,0.140000X0.140000X0.170000X-0.140000X0.170000X-0.140000X-0.170000X0.140000X-0.170000X0*%
%ADD39RoundRect,0.042000X0.943000X0.258000X-0.943000X0.258000X-0.943000X-0.258000X0.943000X-0.258000X0*%
%ADD40RoundRect,0.147500X-0.172500X0.147500X-0.172500X-0.147500X0.172500X-0.147500X0.172500X0.147500X0*%
%ADD41RoundRect,0.150000X-0.150000X0.587500X-0.150000X-0.587500X0.150000X-0.587500X0.150000X0.587500X0*%
%ADD42RoundRect,0.150000X-0.150000X0.825000X-0.150000X-0.825000X0.150000X-0.825000X0.150000X0.825000X0*%
%ADD43R,0.300000X0.475000*%
%ADD44R,0.600000X1.160000*%
%ADD45R,0.300000X1.160000*%
G04 APERTURE END LIST*
%TO.C,U1*%
G36*
X122381000Y-88042000D02*
G01*
X121111000Y-88042000D01*
X121111000Y-86772000D01*
X122381000Y-86772000D01*
X122381000Y-88042000D01*
G37*
D10*
X122381000Y-88042000D02*
X121111000Y-88042000D01*
X121111000Y-86772000D01*
X122381000Y-86772000D01*
X122381000Y-88042000D01*
G36*
X122381000Y-89802000D02*
G01*
X121111000Y-89802000D01*
X121111000Y-88532000D01*
X122381000Y-88532000D01*
X122381000Y-89802000D01*
G37*
X122381000Y-89802000D02*
X121111000Y-89802000D01*
X121111000Y-88532000D01*
X122381000Y-88532000D01*
X122381000Y-89802000D01*
G36*
X124141000Y-88042000D02*
G01*
X122871000Y-88042000D01*
X122871000Y-86772000D01*
X124141000Y-86772000D01*
X124141000Y-88042000D01*
G37*
X124141000Y-88042000D02*
X122871000Y-88042000D01*
X122871000Y-86772000D01*
X124141000Y-86772000D01*
X124141000Y-88042000D01*
G36*
X124141000Y-89802000D02*
G01*
X122871000Y-89802000D01*
X122871000Y-88532000D01*
X124141000Y-88532000D01*
X124141000Y-89802000D01*
G37*
X124141000Y-89802000D02*
X122871000Y-89802000D01*
X122871000Y-88532000D01*
X124141000Y-88532000D01*
X124141000Y-89802000D01*
%TO.C,U5*%
G36*
X112861976Y-78381000D02*
G01*
X111460000Y-78381000D01*
X111460000Y-76979024D01*
X112861976Y-76979024D01*
X112861976Y-78381000D01*
G37*
X112861976Y-78381000D02*
X111460000Y-78381000D01*
X111460000Y-76979024D01*
X112861976Y-76979024D01*
X112861976Y-78381000D01*
%TO.C,U4*%
G36*
X113388927Y-82276000D02*
G01*
X113088927Y-82276000D01*
X113088927Y-81651000D01*
X113388927Y-81651000D01*
X113388927Y-82276000D01*
G37*
X113388927Y-82276000D02*
X113088927Y-82276000D01*
X113088927Y-81651000D01*
X113388927Y-81651000D01*
X113388927Y-82276000D01*
G36*
X112888927Y-82276000D02*
G01*
X112588927Y-82276000D01*
X112588927Y-81651000D01*
X112888927Y-81651000D01*
X112888927Y-82276000D01*
G37*
X112888927Y-82276000D02*
X112588927Y-82276000D01*
X112588927Y-81651000D01*
X112888927Y-81651000D01*
X112888927Y-82276000D01*
G36*
X114788927Y-82601000D02*
G01*
X114163927Y-82601000D01*
X114163927Y-82301000D01*
X114788927Y-82301000D01*
X114788927Y-82601000D01*
G37*
X114788927Y-82601000D02*
X114163927Y-82601000D01*
X114163927Y-82301000D01*
X114788927Y-82301000D01*
X114788927Y-82601000D01*
G36*
X112313927Y-82601000D02*
G01*
X111688927Y-82601000D01*
X111688927Y-82301000D01*
X112313927Y-82301000D01*
X112313927Y-82601000D01*
G37*
X112313927Y-82601000D02*
X111688927Y-82601000D01*
X111688927Y-82301000D01*
X112313927Y-82301000D01*
X112313927Y-82601000D01*
G36*
X114788927Y-83101000D02*
G01*
X114163927Y-83101000D01*
X114163927Y-82801000D01*
X114788927Y-82801000D01*
X114788927Y-83101000D01*
G37*
X114788927Y-83101000D02*
X114163927Y-83101000D01*
X114163927Y-82801000D01*
X114788927Y-82801000D01*
X114788927Y-83101000D01*
G36*
X112313927Y-83101000D02*
G01*
X111688927Y-83101000D01*
X111688927Y-82801000D01*
X112313927Y-82801000D01*
X112313927Y-83101000D01*
G37*
X112313927Y-83101000D02*
X111688927Y-83101000D01*
X111688927Y-82801000D01*
X112313927Y-82801000D01*
X112313927Y-83101000D01*
G36*
X113413927Y-84751000D02*
G01*
X113063927Y-84751000D01*
X113063927Y-84126000D01*
X113413927Y-84126000D01*
X113413927Y-84751000D01*
G37*
X113413927Y-84751000D02*
X113063927Y-84751000D01*
X113063927Y-84126000D01*
X113413927Y-84126000D01*
X113413927Y-84751000D01*
G36*
X113888927Y-82141000D02*
G01*
X113753927Y-82276000D01*
X113588927Y-82276000D01*
X113588927Y-81651000D01*
X113888927Y-81651000D01*
X113888927Y-82141000D01*
G37*
X113888927Y-82141000D02*
X113753927Y-82276000D01*
X113588927Y-82276000D01*
X113588927Y-81651000D01*
X113888927Y-81651000D01*
X113888927Y-82141000D01*
G36*
X114788927Y-84101000D02*
G01*
X114221927Y-84101000D01*
X114163927Y-84000000D01*
X114163927Y-83301000D01*
X114788927Y-83301000D01*
X114788927Y-84101000D01*
G37*
X114788927Y-84101000D02*
X114221927Y-84101000D01*
X114163927Y-84000000D01*
X114163927Y-83301000D01*
X114788927Y-83301000D01*
X114788927Y-84101000D01*
G36*
X112313927Y-84000000D02*
G01*
X112255927Y-84101000D01*
X111688927Y-84101000D01*
X111688927Y-83301000D01*
X112313927Y-83301000D01*
X112313927Y-84000000D01*
G37*
X112313927Y-84000000D02*
X112255927Y-84101000D01*
X111688927Y-84101000D01*
X111688927Y-83301000D01*
X112313927Y-83301000D01*
X112313927Y-84000000D01*
G36*
X114063927Y-84227000D02*
G01*
X114063927Y-84751000D01*
X113713927Y-84751000D01*
X113713927Y-84126000D01*
X114005927Y-84126000D01*
X114063927Y-84227000D01*
G37*
X114063927Y-84227000D02*
X114063927Y-84751000D01*
X113713927Y-84751000D01*
X113713927Y-84126000D01*
X114005927Y-84126000D01*
X114063927Y-84227000D01*
G36*
X112763927Y-84751000D02*
G01*
X112413927Y-84751000D01*
X112413927Y-84227000D01*
X112471927Y-84126000D01*
X112763927Y-84126000D01*
X112763927Y-84751000D01*
G37*
X112763927Y-84751000D02*
X112413927Y-84751000D01*
X112413927Y-84227000D01*
X112471927Y-84126000D01*
X112763927Y-84126000D01*
X112763927Y-84751000D01*
%TD*%
D11*
%TO.C,C21*%
X110700376Y-83793856D03*
X110700376Y-85343856D03*
%TD*%
D12*
%TO.C,D9*%
X127410000Y-71305000D03*
X127410000Y-72880000D03*
%TD*%
D13*
%TO.C,R13*%
X115460000Y-71050000D03*
X115460000Y-70030000D03*
%TD*%
D14*
%TO.C,D7*%
X139107999Y-91963999D03*
X139107999Y-93763999D03*
X139107999Y-95563999D03*
X140907999Y-91963999D03*
X140907999Y-93763999D03*
X140907999Y-95563999D03*
D15*
X139037999Y-89413999D03*
X140977999Y-89413999D03*
%TD*%
D16*
%TO.C,C7*%
X118062000Y-83743001D03*
X118062000Y-82783001D03*
%TD*%
D17*
%TO.C,C5*%
X115904000Y-88619000D03*
X115904000Y-89579000D03*
%TD*%
D18*
%TO.C,R4*%
X120900000Y-94150178D03*
X121920000Y-94150178D03*
%TD*%
D19*
%TO.C,Firing4*%
X131871500Y-107926911D03*
X130296500Y-107926911D03*
%TD*%
D20*
%TO.C,R6*%
X125590000Y-82280000D03*
X124570000Y-82280000D03*
%TD*%
D19*
%TO.C,Firing1*%
X131883000Y-79430000D03*
X130308000Y-79430000D03*
%TD*%
D13*
%TO.C,R14*%
X109115999Y-85883001D03*
X109115999Y-84863001D03*
%TD*%
D17*
%TO.C,C12*%
X118057000Y-84604001D03*
X118057000Y-85564001D03*
%TD*%
D13*
%TO.C,R1*%
X114447000Y-92509000D03*
X114447000Y-91489000D03*
%TD*%
D21*
%TO.C,C16*%
X124686000Y-95016000D03*
X125646000Y-95016000D03*
%TD*%
D22*
%TO.C,Y1*%
X120525999Y-81576999D03*
X121925999Y-81576999D03*
X121925999Y-80476999D03*
X120525999Y-80476999D03*
%TD*%
D23*
%TO.C,Q3*%
X130186605Y-100398222D03*
X130186605Y-102698222D03*
X130186605Y-104998222D03*
D24*
X136486605Y-102698222D03*
%TD*%
D19*
%TO.C,Firing3*%
X131872500Y-98355000D03*
X130297500Y-98355000D03*
%TD*%
D25*
%TO.C,R29*%
X138385773Y-68622580D03*
X140035773Y-68622580D03*
%TD*%
%TO.C,R18*%
X133210500Y-79440000D03*
X134860500Y-79440000D03*
%TD*%
%TO.C,R24*%
X133199999Y-98364999D03*
X134849999Y-98364999D03*
%TD*%
D26*
%TO.C,L1*%
X115905000Y-87744000D03*
X115905000Y-86774000D03*
%TD*%
D16*
%TO.C,C22*%
X110976000Y-82270999D03*
X110976000Y-81310999D03*
%TD*%
D27*
%TO.C,R27*%
X128870000Y-68307500D03*
X128870000Y-69957500D03*
%TD*%
D28*
%TO.C,L3*%
X112181066Y-86948961D03*
X114306066Y-86948961D03*
%TD*%
D13*
%TO.C,R5*%
X117127000Y-85577001D03*
X117127000Y-84557001D03*
%TD*%
D17*
%TO.C,C27*%
X107060020Y-75327999D03*
X107060020Y-76287999D03*
%TD*%
D12*
%TO.C,D10*%
X127410000Y-68345000D03*
X127410000Y-69920000D03*
%TD*%
D29*
%TO.C,R16*%
X107978814Y-77148777D03*
X107978814Y-78168777D03*
%TD*%
D19*
%TO.C,Firing2*%
X131859000Y-88903000D03*
X130284000Y-88903000D03*
%TD*%
D29*
%TO.C,R30*%
X124220000Y-107715000D03*
X124220000Y-108735000D03*
%TD*%
D14*
%TO.C,D3*%
X139081696Y-82509999D03*
X139081696Y-84309999D03*
X139081696Y-86109999D03*
X140881696Y-82509999D03*
X140881696Y-84309999D03*
X140881696Y-86109999D03*
D15*
X139011696Y-79959999D03*
X140951696Y-79959999D03*
%TD*%
D30*
%TO.C,U1*%
X119181000Y-85687000D03*
X119181000Y-86087000D03*
X119181000Y-86487000D03*
X119181000Y-86887000D03*
X119181000Y-87287000D03*
X119181000Y-87687000D03*
X119181000Y-88087000D03*
X119181000Y-88487000D03*
X119181000Y-88887000D03*
X119181000Y-89287000D03*
X119181000Y-89687000D03*
X119181000Y-90087000D03*
X119181000Y-90487000D03*
X119181000Y-90887000D03*
D31*
X120026000Y-91732000D03*
X120426000Y-91732000D03*
X120826000Y-91732000D03*
X121226000Y-91732000D03*
X121626000Y-91732000D03*
X122026000Y-91732000D03*
X122426000Y-91732000D03*
X122826000Y-91732000D03*
X123226000Y-91732000D03*
X123626000Y-91732000D03*
X124026000Y-91732000D03*
X124426000Y-91732000D03*
X124826000Y-91732000D03*
X125226000Y-91732000D03*
D30*
X126071000Y-90887000D03*
X126071000Y-90487000D03*
X126071000Y-90087000D03*
X126071000Y-89687000D03*
X126071000Y-89287000D03*
X126071000Y-88887000D03*
X126071000Y-88487000D03*
X126071000Y-88087000D03*
X126071000Y-87687000D03*
X126071000Y-87287000D03*
X126071000Y-86887000D03*
X126071000Y-86487000D03*
X126071000Y-86087000D03*
X126071000Y-85687000D03*
D31*
X125226000Y-84842000D03*
X124826000Y-84842000D03*
X124426000Y-84842000D03*
X124026000Y-84842000D03*
X123626000Y-84842000D03*
X123226000Y-84842000D03*
X122826000Y-84842000D03*
X122426000Y-84842000D03*
X122026000Y-84842000D03*
X121626000Y-84842000D03*
X121226000Y-84842000D03*
X120826000Y-84842000D03*
X120426000Y-84842000D03*
X120026000Y-84842000D03*
%TD*%
D27*
%TO.C,R20*%
X128869000Y-77191000D03*
X128869000Y-78841000D03*
%TD*%
D17*
%TO.C,C2*%
X115432000Y-91534000D03*
X115432000Y-92494000D03*
%TD*%
%TO.C,C24*%
X116325001Y-78331000D03*
X116325001Y-79291000D03*
%TD*%
D16*
%TO.C,C3*%
X112813000Y-91333000D03*
X112813000Y-90373000D03*
%TD*%
D17*
%TO.C,C4*%
X114984000Y-88618000D03*
X114984000Y-89578000D03*
%TD*%
D25*
%TO.C,R23*%
X138369773Y-73890580D03*
X140019773Y-73890580D03*
%TD*%
D26*
%TO.C,L2*%
X120566000Y-83742001D03*
X120566000Y-82772001D03*
%TD*%
D18*
%TO.C,R11*%
X123250000Y-76050000D03*
X124270000Y-76050000D03*
%TD*%
D20*
%TO.C,R15*%
X113566002Y-80931000D03*
X112546002Y-80931000D03*
%TD*%
D13*
%TO.C,R36*%
X119978627Y-108670427D03*
X119978627Y-107650427D03*
%TD*%
D32*
%TO.C,TXLED1*%
X125555000Y-81340000D03*
X124585000Y-81340000D03*
%TD*%
D25*
%TO.C,R28*%
X138378773Y-71266580D03*
X140028773Y-71266580D03*
%TD*%
D33*
%TO.C,JP1*%
X121817000Y-103145000D03*
X121817000Y-102040000D03*
%TD*%
D25*
%TO.C,R19*%
X133186499Y-88912999D03*
X134836499Y-88912999D03*
%TD*%
D17*
%TO.C,C1*%
X114060000Y-88618000D03*
X114060000Y-89578000D03*
%TD*%
D11*
%TO.C,C23*%
X115771000Y-83606000D03*
X115771000Y-85156000D03*
%TD*%
D29*
%TO.C,R17*%
X107978816Y-79008777D03*
X107978816Y-80028777D03*
%TD*%
D16*
%TO.C,C8*%
X116644000Y-93188000D03*
X116644000Y-92228000D03*
%TD*%
D14*
%TO.C,D4*%
X139081604Y-101418221D03*
X139081604Y-103218221D03*
X139081604Y-105018221D03*
X140881604Y-101418221D03*
X140881604Y-103218221D03*
X140881604Y-105018221D03*
D15*
X139011604Y-98868221D03*
X140951604Y-98868221D03*
%TD*%
D16*
%TO.C,C17*%
X118974001Y-101222001D03*
X118974001Y-100262001D03*
%TD*%
D34*
%TO.C,D2*%
X122109999Y-77909931D03*
D35*
X122109999Y-76209931D03*
X120109999Y-76209931D03*
X120109999Y-78109931D03*
%TD*%
D20*
%TO.C,R2*%
X125580000Y-80400000D03*
X124560000Y-80400000D03*
%TD*%
D33*
%TO.C,R9*%
X117737660Y-103072080D03*
X117737660Y-101422080D03*
%TD*%
D21*
%TO.C,C11*%
X124082000Y-83721001D03*
X125042000Y-83721001D03*
%TD*%
D36*
%TO.C,R8*%
X127325000Y-105000000D03*
X125675000Y-105000000D03*
%TD*%
D27*
%TO.C,R26*%
X128870000Y-71267500D03*
X128870000Y-72917500D03*
%TD*%
D12*
%TO.C,D6*%
X127405000Y-74257500D03*
X127405000Y-75832500D03*
%TD*%
D13*
%TO.C,R12*%
X115460000Y-73480000D03*
X115460000Y-72460000D03*
%TD*%
D37*
%TO.C,U6*%
X136813999Y-77696349D03*
X136813999Y-76416349D03*
X136813999Y-75156349D03*
X136813999Y-73886349D03*
X136813999Y-72606349D03*
X136813999Y-71336349D03*
X136813999Y-70076349D03*
X136813999Y-68796349D03*
X130513999Y-68796349D03*
X130513999Y-70076349D03*
X130513999Y-71336349D03*
X130513999Y-72606349D03*
X130513999Y-73886349D03*
X130513999Y-75156349D03*
X130513999Y-76416349D03*
X130513999Y-77696349D03*
%TD*%
D27*
%TO.C,R10*%
X120167660Y-101422081D03*
X120167660Y-103072081D03*
%TD*%
D38*
%TO.C,C10*%
X121924000Y-92851001D03*
X120964000Y-92851001D03*
%TD*%
D39*
%TO.C,U5*%
X114630000Y-79586000D03*
X114630000Y-78316000D03*
X114630000Y-77046000D03*
X114630000Y-75776000D03*
X109690000Y-75776000D03*
X109690000Y-77046000D03*
X109690000Y-78316000D03*
X109690000Y-79586000D03*
%TD*%
D40*
%TO.C,16VLED1*%
X119980000Y-105805000D03*
X119980000Y-106775000D03*
%TD*%
D41*
%TO.C,D1*%
X119918660Y-96970970D03*
X118018660Y-96970970D03*
X118968660Y-98845970D03*
%TD*%
D17*
%TO.C,C13*%
X123086000Y-80527001D03*
X123086000Y-81487001D03*
%TD*%
%TO.C,C6*%
X116844000Y-86769000D03*
X116844000Y-87729000D03*
%TD*%
D16*
%TO.C,C14*%
X119356000Y-81547002D03*
X119356000Y-80587002D03*
%TD*%
D42*
%TO.C,U2*%
X127157000Y-97626000D03*
X125887000Y-97626000D03*
X124617000Y-97626000D03*
X123347000Y-97626000D03*
X123347000Y-102576000D03*
X124617000Y-102576000D03*
X125887000Y-102576000D03*
X127157000Y-102576000D03*
%TD*%
D25*
%TO.C,R22*%
X138374773Y-76386580D03*
X140024773Y-76386580D03*
%TD*%
D43*
%TO.C,U3*%
X109085998Y-82384999D03*
X108585998Y-82384999D03*
X108085998Y-82384999D03*
X107585998Y-82384999D03*
X107585998Y-84060999D03*
X108085998Y-84060999D03*
X108585998Y-84060999D03*
X109085998Y-84060999D03*
%TD*%
D17*
%TO.C,C26*%
X107988816Y-75331492D03*
X107988816Y-76291492D03*
%TD*%
D23*
%TO.C,Q1*%
X130186696Y-81490000D03*
X130186696Y-83790000D03*
X130186696Y-86090000D03*
D24*
X136486696Y-83790000D03*
%TD*%
D21*
%TO.C,C28*%
X122330000Y-108715000D03*
X123290000Y-108715000D03*
%TD*%
D26*
%TO.C,USBLED1*%
X114520000Y-71025000D03*
X114520000Y-70055000D03*
%TD*%
D12*
%TO.C,D5*%
X127408000Y-77230500D03*
X127408000Y-78805500D03*
%TD*%
D32*
%TO.C,3V3LED1*%
X121895001Y-95090178D03*
X120925001Y-95090178D03*
%TD*%
D44*
%TO.C,J2*%
X124405999Y-74369999D03*
X123605999Y-74369999D03*
D45*
X122455999Y-74369999D03*
X121455999Y-74369999D03*
X120955999Y-74369999D03*
X119955999Y-74369999D03*
D44*
X118805999Y-74369999D03*
X118005999Y-74369999D03*
X118005999Y-74369999D03*
X118805999Y-74369999D03*
D45*
X119455999Y-74369999D03*
X120455999Y-74369999D03*
X121955999Y-74369999D03*
X122955999Y-74369999D03*
D44*
X123605999Y-74369999D03*
X124405999Y-74369999D03*
%TD*%
D29*
%TO.C,R3*%
X113182000Y-92246000D03*
X113182000Y-93266000D03*
%TD*%
D27*
%TO.C,R21*%
X128867000Y-74228000D03*
X128867000Y-75878000D03*
%TD*%
D23*
%TO.C,Q4*%
X130172187Y-109980000D03*
X130172187Y-112280000D03*
X130172187Y-114580000D03*
D24*
X136472187Y-112280000D03*
%TD*%
D16*
%TO.C,C25*%
X116328815Y-77211493D03*
X116328815Y-76251493D03*
%TD*%
D14*
%TO.C,D8*%
X139067187Y-110999999D03*
X139067187Y-112799999D03*
X139067187Y-114599999D03*
X140867187Y-110999999D03*
X140867187Y-112799999D03*
X140867187Y-114599999D03*
D15*
X138997187Y-108449999D03*
X140937187Y-108449999D03*
%TD*%
D16*
%TO.C,C9*%
X118983669Y-83746364D03*
X118983669Y-82786364D03*
%TD*%
D25*
%TO.C,R25*%
X133199002Y-107936910D03*
X134849002Y-107936910D03*
%TD*%
D21*
%TO.C,C15*%
X124689653Y-95940193D03*
X125649653Y-95940193D03*
%TD*%
D23*
%TO.C,Q2*%
X130213002Y-90944000D03*
X130213002Y-93244000D03*
X130213002Y-95544000D03*
D24*
X136513002Y-93244000D03*
%TD*%
D18*
%TO.C,R7*%
X122300000Y-107775000D03*
X123320000Y-107775000D03*
%TD*%
D16*
%TO.C,C20*%
X110056000Y-82270998D03*
X110056000Y-81310998D03*
%TD*%
M02*
