%TF.GenerationSoftware,KiCad,Pcbnew,(7.0.0)*%
%TF.CreationDate,2023-06-13T01:41:46+01:00*%
%TF.ProjectId,flintandsteel,666c696e-7461-46e6-9473-7465656c2e6b,rev?*%
%TF.SameCoordinates,Original*%
%TF.FileFunction,Legend,Top*%
%TF.FilePolarity,Positive*%
%FSLAX46Y46*%
G04 Gerber Fmt 4.6, Leading zero omitted, Abs format (unit mm)*
G04 Created by KiCad (PCBNEW (7.0.0)) date 2023-06-13 01:41:46*
%MOMM*%
%LPD*%
G01*
G04 APERTURE LIST*
G04 Aperture macros list*
%AMRoundRect*
0 Rectangle with rounded corners*
0 $1 Rounding radius*
0 $2 $3 $4 $5 $6 $7 $8 $9 X,Y pos of 4 corners*
0 Add a 4 corners polygon primitive as box body*
4,1,4,$2,$3,$4,$5,$6,$7,$8,$9,$2,$3,0*
0 Add four circle primitives for the rounded corners*
1,1,$1+$1,$2,$3*
1,1,$1+$1,$4,$5*
1,1,$1+$1,$6,$7*
1,1,$1+$1,$8,$9*
0 Add four rect primitives between the rounded corners*
20,1,$1+$1,$2,$3,$4,$5,0*
20,1,$1+$1,$4,$5,$6,$7,0*
20,1,$1+$1,$6,$7,$8,$9,0*
20,1,$1+$1,$8,$9,$2,$3,0*%
G04 Aperture macros list end*
%ADD10C,0.152400*%
%ADD11C,0.150000*%
%ADD12C,0.120000*%
%ADD13C,0.127000*%
%ADD14C,0.200000*%
%ADD15C,0.100000*%
%ADD16C,0.010000*%
%ADD17RoundRect,0.225000X-0.250000X0.225000X-0.250000X-0.225000X0.250000X-0.225000X0.250000X0.225000X0*%
%ADD18R,1.700000X1.700000*%
%ADD19O,1.700000X1.700000*%
%ADD20RoundRect,0.218750X-0.256250X0.218750X-0.256250X-0.218750X0.256250X-0.218750X0.256250X0.218750X0*%
%ADD21RoundRect,0.135000X0.185000X-0.135000X0.185000X0.135000X-0.185000X0.135000X-0.185000X-0.135000X0*%
%ADD22R,0.950000X1.000000*%
%ADD23R,3.200000X4.900000*%
%ADD24RoundRect,0.140000X0.170000X-0.140000X0.170000X0.140000X-0.170000X0.140000X-0.170000X-0.140000X0*%
%ADD25R,2.400000X2.400000*%
%ADD26C,2.400000*%
%ADD27RoundRect,0.140000X-0.170000X0.140000X-0.170000X-0.140000X0.170000X-0.140000X0.170000X0.140000X0*%
%ADD28RoundRect,0.135000X-0.135000X-0.185000X0.135000X-0.185000X0.135000X0.185000X-0.135000X0.185000X0*%
%ADD29RoundRect,0.218750X0.218750X0.256250X-0.218750X0.256250X-0.218750X-0.256250X0.218750X-0.256250X0*%
%ADD30C,5.600000*%
%ADD31RoundRect,0.135000X0.135000X0.185000X-0.135000X0.185000X-0.135000X-0.185000X0.135000X-0.185000X0*%
%ADD32RoundRect,0.140000X-0.140000X-0.170000X0.140000X-0.170000X0.140000X0.170000X-0.140000X0.170000X0*%
%ADD33C,3.200000*%
%ADD34R,0.900000X0.800000*%
%ADD35R,2.000000X1.500000*%
%ADD36R,2.000000X3.800000*%
%ADD37RoundRect,0.200000X-0.200000X-0.275000X0.200000X-0.275000X0.200000X0.275000X-0.200000X0.275000X0*%
%ADD38RoundRect,0.147500X0.172500X-0.147500X0.172500X0.147500X-0.172500X0.147500X-0.172500X-0.147500X0*%
%ADD39RoundRect,0.200000X-0.275000X0.200000X-0.275000X-0.200000X0.275000X-0.200000X0.275000X0.200000X0*%
%ADD40RoundRect,0.218750X-0.218750X-0.381250X0.218750X-0.381250X0.218750X0.381250X-0.218750X0.381250X0*%
%ADD41RoundRect,0.135000X-0.185000X0.135000X-0.185000X-0.135000X0.185000X-0.135000X0.185000X0.135000X0*%
%ADD42RoundRect,0.006600X-0.398400X-0.103400X0.398400X-0.103400X0.398400X0.103400X-0.398400X0.103400X0*%
%ADD43RoundRect,0.022000X-0.088000X-0.383000X0.088000X-0.383000X0.088000X0.383000X-0.088000X0.383000X0*%
%ADD44R,4.000000X4.000000*%
%ADD45RoundRect,0.147500X0.147500X0.172500X-0.147500X0.172500X-0.147500X-0.172500X0.147500X-0.172500X0*%
%ADD46RoundRect,0.200000X0.275000X-0.200000X0.275000X0.200000X-0.275000X0.200000X-0.275000X-0.200000X0*%
%ADD47R,0.700000X1.000000*%
%ADD48R,0.700000X0.600000*%
%ADD49RoundRect,0.200000X0.200000X0.275000X-0.200000X0.275000X-0.200000X-0.275000X0.200000X-0.275000X0*%
%ADD50R,1.300000X0.800000*%
%ADD51RoundRect,0.140000X0.140000X0.170000X-0.140000X0.170000X-0.140000X-0.170000X0.140000X-0.170000X0*%
%ADD52RoundRect,0.042000X0.943000X0.258000X-0.943000X0.258000X-0.943000X-0.258000X0.943000X-0.258000X0*%
%ADD53R,2.150000X2.150000*%
%ADD54RoundRect,0.147500X-0.172500X0.147500X-0.172500X-0.147500X0.172500X-0.147500X0.172500X0.147500X0*%
%ADD55RoundRect,0.150000X-0.150000X0.587500X-0.150000X-0.587500X0.150000X-0.587500X0.150000X0.587500X0*%
%ADD56RoundRect,0.150000X-0.150000X0.825000X-0.150000X-0.825000X0.150000X-0.825000X0.150000X0.825000X0*%
%ADD57R,0.300000X0.475000*%
%ADD58C,0.400000*%
%ADD59R,0.600000X1.160000*%
%ADD60R,0.300000X1.160000*%
%ADD61O,0.900000X2.000000*%
%ADD62O,0.900000X1.700000*%
%ADD63RoundRect,0.250001X1.599999X-1.099999X1.599999X1.099999X-1.599999X1.099999X-1.599999X-1.099999X0*%
%ADD64O,3.700000X2.700000*%
%ADD65C,1.000000*%
G04 APERTURE END LIST*
D10*
%TO.C,C21*%
X109911999Y-86647500D02*
X109878666Y-86680833D01*
X109878666Y-86680833D02*
X109778666Y-86714166D01*
X109778666Y-86714166D02*
X109711999Y-86714166D01*
X109711999Y-86714166D02*
X109611999Y-86680833D01*
X109611999Y-86680833D02*
X109545333Y-86614166D01*
X109545333Y-86614166D02*
X109511999Y-86547500D01*
X109511999Y-86547500D02*
X109478666Y-86414166D01*
X109478666Y-86414166D02*
X109478666Y-86314166D01*
X109478666Y-86314166D02*
X109511999Y-86180833D01*
X109511999Y-86180833D02*
X109545333Y-86114166D01*
X109545333Y-86114166D02*
X109611999Y-86047500D01*
X109611999Y-86047500D02*
X109711999Y-86014166D01*
X109711999Y-86014166D02*
X109778666Y-86014166D01*
X109778666Y-86014166D02*
X109878666Y-86047500D01*
X109878666Y-86047500D02*
X109911999Y-86080833D01*
X110178666Y-86080833D02*
X110211999Y-86047500D01*
X110211999Y-86047500D02*
X110278666Y-86014166D01*
X110278666Y-86014166D02*
X110445333Y-86014166D01*
X110445333Y-86014166D02*
X110511999Y-86047500D01*
X110511999Y-86047500D02*
X110545333Y-86080833D01*
X110545333Y-86080833D02*
X110578666Y-86147500D01*
X110578666Y-86147500D02*
X110578666Y-86214166D01*
X110578666Y-86214166D02*
X110545333Y-86314166D01*
X110545333Y-86314166D02*
X110145333Y-86714166D01*
X110145333Y-86714166D02*
X110578666Y-86714166D01*
X111245333Y-86714166D02*
X110845333Y-86714166D01*
X111045333Y-86714166D02*
X111045333Y-86014166D01*
X111045333Y-86014166D02*
X110978666Y-86114166D01*
X110978666Y-86114166D02*
X110912000Y-86180833D01*
X110912000Y-86180833D02*
X110845333Y-86214166D01*
%TO.C,BOOTJUMPER1*%
X107041001Y-91423500D02*
X107141001Y-91456833D01*
X107141001Y-91456833D02*
X107174334Y-91490166D01*
X107174334Y-91490166D02*
X107207667Y-91556833D01*
X107207667Y-91556833D02*
X107207667Y-91656833D01*
X107207667Y-91656833D02*
X107174334Y-91723500D01*
X107174334Y-91723500D02*
X107141001Y-91756833D01*
X107141001Y-91756833D02*
X107074334Y-91790166D01*
X107074334Y-91790166D02*
X106807667Y-91790166D01*
X106807667Y-91790166D02*
X106807667Y-91090166D01*
X106807667Y-91090166D02*
X107041001Y-91090166D01*
X107041001Y-91090166D02*
X107107667Y-91123500D01*
X107107667Y-91123500D02*
X107141001Y-91156833D01*
X107141001Y-91156833D02*
X107174334Y-91223500D01*
X107174334Y-91223500D02*
X107174334Y-91290166D01*
X107174334Y-91290166D02*
X107141001Y-91356833D01*
X107141001Y-91356833D02*
X107107667Y-91390166D01*
X107107667Y-91390166D02*
X107041001Y-91423500D01*
X107041001Y-91423500D02*
X106807667Y-91423500D01*
X107641001Y-91090166D02*
X107774334Y-91090166D01*
X107774334Y-91090166D02*
X107841001Y-91123500D01*
X107841001Y-91123500D02*
X107907667Y-91190166D01*
X107907667Y-91190166D02*
X107941001Y-91323500D01*
X107941001Y-91323500D02*
X107941001Y-91556833D01*
X107941001Y-91556833D02*
X107907667Y-91690166D01*
X107907667Y-91690166D02*
X107841001Y-91756833D01*
X107841001Y-91756833D02*
X107774334Y-91790166D01*
X107774334Y-91790166D02*
X107641001Y-91790166D01*
X107641001Y-91790166D02*
X107574334Y-91756833D01*
X107574334Y-91756833D02*
X107507667Y-91690166D01*
X107507667Y-91690166D02*
X107474334Y-91556833D01*
X107474334Y-91556833D02*
X107474334Y-91323500D01*
X107474334Y-91323500D02*
X107507667Y-91190166D01*
X107507667Y-91190166D02*
X107574334Y-91123500D01*
X107574334Y-91123500D02*
X107641001Y-91090166D01*
X108374334Y-91090166D02*
X108507667Y-91090166D01*
X108507667Y-91090166D02*
X108574334Y-91123500D01*
X108574334Y-91123500D02*
X108641000Y-91190166D01*
X108641000Y-91190166D02*
X108674334Y-91323500D01*
X108674334Y-91323500D02*
X108674334Y-91556833D01*
X108674334Y-91556833D02*
X108641000Y-91690166D01*
X108641000Y-91690166D02*
X108574334Y-91756833D01*
X108574334Y-91756833D02*
X108507667Y-91790166D01*
X108507667Y-91790166D02*
X108374334Y-91790166D01*
X108374334Y-91790166D02*
X108307667Y-91756833D01*
X108307667Y-91756833D02*
X108241000Y-91690166D01*
X108241000Y-91690166D02*
X108207667Y-91556833D01*
X108207667Y-91556833D02*
X108207667Y-91323500D01*
X108207667Y-91323500D02*
X108241000Y-91190166D01*
X108241000Y-91190166D02*
X108307667Y-91123500D01*
X108307667Y-91123500D02*
X108374334Y-91090166D01*
X108874333Y-91090166D02*
X109274333Y-91090166D01*
X109074333Y-91790166D02*
X109074333Y-91090166D01*
%TO.C,D9*%
X126460500Y-72243333D02*
X126493833Y-72276666D01*
X126493833Y-72276666D02*
X126527166Y-72376666D01*
X126527166Y-72376666D02*
X126527166Y-72443333D01*
X126527166Y-72443333D02*
X126493833Y-72543333D01*
X126493833Y-72543333D02*
X126427166Y-72610000D01*
X126427166Y-72610000D02*
X126360500Y-72643333D01*
X126360500Y-72643333D02*
X126227166Y-72676666D01*
X126227166Y-72676666D02*
X126127166Y-72676666D01*
X126127166Y-72676666D02*
X125993833Y-72643333D01*
X125993833Y-72643333D02*
X125927166Y-72610000D01*
X125927166Y-72610000D02*
X125860500Y-72543333D01*
X125860500Y-72543333D02*
X125827166Y-72443333D01*
X125827166Y-72443333D02*
X125827166Y-72376666D01*
X125827166Y-72376666D02*
X125860500Y-72276666D01*
X125860500Y-72276666D02*
X125893833Y-72243333D01*
X126527166Y-71943333D02*
X125827166Y-71943333D01*
X126160500Y-71943333D02*
X126160500Y-71543333D01*
X126527166Y-71543333D02*
X125827166Y-71543333D01*
X125827166Y-71276667D02*
X125827166Y-70843333D01*
X125827166Y-70843333D02*
X126093833Y-71076667D01*
X126093833Y-71076667D02*
X126093833Y-70976667D01*
X126093833Y-70976667D02*
X126127166Y-70910000D01*
X126127166Y-70910000D02*
X126160500Y-70876667D01*
X126160500Y-70876667D02*
X126227166Y-70843333D01*
X126227166Y-70843333D02*
X126393833Y-70843333D01*
X126393833Y-70843333D02*
X126460500Y-70876667D01*
X126460500Y-70876667D02*
X126493833Y-70910000D01*
X126493833Y-70910000D02*
X126527166Y-70976667D01*
X126527166Y-70976667D02*
X126527166Y-71176667D01*
X126527166Y-71176667D02*
X126493833Y-71243333D01*
X126493833Y-71243333D02*
X126460500Y-71276667D01*
%TO.C,R13*%
X115777166Y-68890000D02*
X115443833Y-69123333D01*
X115777166Y-69290000D02*
X115077166Y-69290000D01*
X115077166Y-69290000D02*
X115077166Y-69023333D01*
X115077166Y-69023333D02*
X115110500Y-68956667D01*
X115110500Y-68956667D02*
X115143833Y-68923333D01*
X115143833Y-68923333D02*
X115210500Y-68890000D01*
X115210500Y-68890000D02*
X115310500Y-68890000D01*
X115310500Y-68890000D02*
X115377166Y-68923333D01*
X115377166Y-68923333D02*
X115410500Y-68956667D01*
X115410500Y-68956667D02*
X115443833Y-69023333D01*
X115443833Y-69023333D02*
X115443833Y-69290000D01*
X115777166Y-68223333D02*
X115777166Y-68623333D01*
X115777166Y-68423333D02*
X115077166Y-68423333D01*
X115077166Y-68423333D02*
X115177166Y-68490000D01*
X115177166Y-68490000D02*
X115243833Y-68556667D01*
X115243833Y-68556667D02*
X115277166Y-68623333D01*
X115077166Y-67990000D02*
X115077166Y-67556666D01*
X115077166Y-67556666D02*
X115343833Y-67790000D01*
X115343833Y-67790000D02*
X115343833Y-67690000D01*
X115343833Y-67690000D02*
X115377166Y-67623333D01*
X115377166Y-67623333D02*
X115410500Y-67590000D01*
X115410500Y-67590000D02*
X115477166Y-67556666D01*
X115477166Y-67556666D02*
X115643833Y-67556666D01*
X115643833Y-67556666D02*
X115710500Y-67590000D01*
X115710500Y-67590000D02*
X115743833Y-67623333D01*
X115743833Y-67623333D02*
X115777166Y-67690000D01*
X115777166Y-67690000D02*
X115777166Y-67890000D01*
X115777166Y-67890000D02*
X115743833Y-67956666D01*
X115743833Y-67956666D02*
X115710500Y-67990000D01*
%TO.C,D7*%
X139491333Y-88221166D02*
X139491333Y-87521166D01*
X139491333Y-87521166D02*
X139658000Y-87521166D01*
X139658000Y-87521166D02*
X139758000Y-87554500D01*
X139758000Y-87554500D02*
X139824667Y-87621166D01*
X139824667Y-87621166D02*
X139858000Y-87687833D01*
X139858000Y-87687833D02*
X139891333Y-87821166D01*
X139891333Y-87821166D02*
X139891333Y-87921166D01*
X139891333Y-87921166D02*
X139858000Y-88054500D01*
X139858000Y-88054500D02*
X139824667Y-88121166D01*
X139824667Y-88121166D02*
X139758000Y-88187833D01*
X139758000Y-88187833D02*
X139658000Y-88221166D01*
X139658000Y-88221166D02*
X139491333Y-88221166D01*
X140124667Y-87521166D02*
X140591333Y-87521166D01*
X140591333Y-87521166D02*
X140291333Y-88221166D01*
%TO.C,C7*%
X117473500Y-83378666D02*
X117506833Y-83411999D01*
X117506833Y-83411999D02*
X117540166Y-83511999D01*
X117540166Y-83511999D02*
X117540166Y-83578666D01*
X117540166Y-83578666D02*
X117506833Y-83678666D01*
X117506833Y-83678666D02*
X117440166Y-83745333D01*
X117440166Y-83745333D02*
X117373500Y-83778666D01*
X117373500Y-83778666D02*
X117240166Y-83811999D01*
X117240166Y-83811999D02*
X117140166Y-83811999D01*
X117140166Y-83811999D02*
X117006833Y-83778666D01*
X117006833Y-83778666D02*
X116940166Y-83745333D01*
X116940166Y-83745333D02*
X116873500Y-83678666D01*
X116873500Y-83678666D02*
X116840166Y-83578666D01*
X116840166Y-83578666D02*
X116840166Y-83511999D01*
X116840166Y-83511999D02*
X116873500Y-83411999D01*
X116873500Y-83411999D02*
X116906833Y-83378666D01*
X116840166Y-83145333D02*
X116840166Y-82678666D01*
X116840166Y-82678666D02*
X117540166Y-82978666D01*
D11*
%TO.C,J5*%
X147799965Y-97434739D02*
X147799965Y-98149025D01*
X147799965Y-98149025D02*
X147752346Y-98291882D01*
X147752346Y-98291882D02*
X147657108Y-98387120D01*
X147657108Y-98387120D02*
X147514251Y-98434739D01*
X147514251Y-98434739D02*
X147419013Y-98434739D01*
X148752346Y-97434739D02*
X148276156Y-97434739D01*
X148276156Y-97434739D02*
X148228537Y-97910930D01*
X148228537Y-97910930D02*
X148276156Y-97863311D01*
X148276156Y-97863311D02*
X148371394Y-97815692D01*
X148371394Y-97815692D02*
X148609489Y-97815692D01*
X148609489Y-97815692D02*
X148704727Y-97863311D01*
X148704727Y-97863311D02*
X148752346Y-97910930D01*
X148752346Y-97910930D02*
X148799965Y-98006168D01*
X148799965Y-98006168D02*
X148799965Y-98244263D01*
X148799965Y-98244263D02*
X148752346Y-98339501D01*
X148752346Y-98339501D02*
X148704727Y-98387120D01*
X148704727Y-98387120D02*
X148609489Y-98434739D01*
X148609489Y-98434739D02*
X148371394Y-98434739D01*
X148371394Y-98434739D02*
X148276156Y-98387120D01*
X148276156Y-98387120D02*
X148228537Y-98339501D01*
X146261710Y-98176878D02*
X145499806Y-98176878D01*
D10*
X145869727Y-107180951D02*
X145869727Y-106419047D01*
X146250679Y-106799999D02*
X145488775Y-106799999D01*
%TO.C,R4*%
X119553333Y-94457166D02*
X119320000Y-94123833D01*
X119153333Y-94457166D02*
X119153333Y-93757166D01*
X119153333Y-93757166D02*
X119420000Y-93757166D01*
X119420000Y-93757166D02*
X119486667Y-93790500D01*
X119486667Y-93790500D02*
X119520000Y-93823833D01*
X119520000Y-93823833D02*
X119553333Y-93890500D01*
X119553333Y-93890500D02*
X119553333Y-93990500D01*
X119553333Y-93990500D02*
X119520000Y-94057166D01*
X119520000Y-94057166D02*
X119486667Y-94090500D01*
X119486667Y-94090500D02*
X119420000Y-94123833D01*
X119420000Y-94123833D02*
X119153333Y-94123833D01*
X120153333Y-93990500D02*
X120153333Y-94457166D01*
X119986667Y-93723833D02*
X119820000Y-94223833D01*
X119820000Y-94223833D02*
X120253333Y-94223833D01*
%TO.C,R14*%
X108129166Y-85927000D02*
X107795833Y-86160333D01*
X108129166Y-86327000D02*
X107429166Y-86327000D01*
X107429166Y-86327000D02*
X107429166Y-86060333D01*
X107429166Y-86060333D02*
X107462500Y-85993667D01*
X107462500Y-85993667D02*
X107495833Y-85960333D01*
X107495833Y-85960333D02*
X107562500Y-85927000D01*
X107562500Y-85927000D02*
X107662500Y-85927000D01*
X107662500Y-85927000D02*
X107729166Y-85960333D01*
X107729166Y-85960333D02*
X107762500Y-85993667D01*
X107762500Y-85993667D02*
X107795833Y-86060333D01*
X107795833Y-86060333D02*
X107795833Y-86327000D01*
X108129166Y-85260333D02*
X108129166Y-85660333D01*
X108129166Y-85460333D02*
X107429166Y-85460333D01*
X107429166Y-85460333D02*
X107529166Y-85527000D01*
X107529166Y-85527000D02*
X107595833Y-85593667D01*
X107595833Y-85593667D02*
X107629166Y-85660333D01*
X107662500Y-84660333D02*
X108129166Y-84660333D01*
X107395833Y-84827000D02*
X107895833Y-84993666D01*
X107895833Y-84993666D02*
X107895833Y-84560333D01*
%TO.C,C12*%
X118285500Y-87482000D02*
X118318833Y-87515333D01*
X118318833Y-87515333D02*
X118352166Y-87615333D01*
X118352166Y-87615333D02*
X118352166Y-87682000D01*
X118352166Y-87682000D02*
X118318833Y-87782000D01*
X118318833Y-87782000D02*
X118252166Y-87848667D01*
X118252166Y-87848667D02*
X118185500Y-87882000D01*
X118185500Y-87882000D02*
X118052166Y-87915333D01*
X118052166Y-87915333D02*
X117952166Y-87915333D01*
X117952166Y-87915333D02*
X117818833Y-87882000D01*
X117818833Y-87882000D02*
X117752166Y-87848667D01*
X117752166Y-87848667D02*
X117685500Y-87782000D01*
X117685500Y-87782000D02*
X117652166Y-87682000D01*
X117652166Y-87682000D02*
X117652166Y-87615333D01*
X117652166Y-87615333D02*
X117685500Y-87515333D01*
X117685500Y-87515333D02*
X117718833Y-87482000D01*
X118352166Y-86815333D02*
X118352166Y-87215333D01*
X118352166Y-87015333D02*
X117652166Y-87015333D01*
X117652166Y-87015333D02*
X117752166Y-87082000D01*
X117752166Y-87082000D02*
X117818833Y-87148667D01*
X117818833Y-87148667D02*
X117852166Y-87215333D01*
X117718833Y-86548666D02*
X117685500Y-86515333D01*
X117685500Y-86515333D02*
X117652166Y-86448666D01*
X117652166Y-86448666D02*
X117652166Y-86282000D01*
X117652166Y-86282000D02*
X117685500Y-86215333D01*
X117685500Y-86215333D02*
X117718833Y-86182000D01*
X117718833Y-86182000D02*
X117785500Y-86148666D01*
X117785500Y-86148666D02*
X117852166Y-86148666D01*
X117852166Y-86148666D02*
X117952166Y-86182000D01*
X117952166Y-86182000D02*
X118352166Y-86582000D01*
X118352166Y-86582000D02*
X118352166Y-86148666D01*
%TO.C,R1*%
X114152333Y-91046166D02*
X113919000Y-90712833D01*
X113752333Y-91046166D02*
X113752333Y-90346166D01*
X113752333Y-90346166D02*
X114019000Y-90346166D01*
X114019000Y-90346166D02*
X114085667Y-90379500D01*
X114085667Y-90379500D02*
X114119000Y-90412833D01*
X114119000Y-90412833D02*
X114152333Y-90479500D01*
X114152333Y-90479500D02*
X114152333Y-90579500D01*
X114152333Y-90579500D02*
X114119000Y-90646166D01*
X114119000Y-90646166D02*
X114085667Y-90679500D01*
X114085667Y-90679500D02*
X114019000Y-90712833D01*
X114019000Y-90712833D02*
X113752333Y-90712833D01*
X114819000Y-91046166D02*
X114419000Y-91046166D01*
X114619000Y-91046166D02*
X114619000Y-90346166D01*
X114619000Y-90346166D02*
X114552333Y-90446166D01*
X114552333Y-90446166D02*
X114485667Y-90512833D01*
X114485667Y-90512833D02*
X114419000Y-90546166D01*
%TO.C,C16*%
X126679840Y-95225712D02*
X126646507Y-95259045D01*
X126646507Y-95259045D02*
X126546507Y-95292378D01*
X126546507Y-95292378D02*
X126479840Y-95292378D01*
X126479840Y-95292378D02*
X126379840Y-95259045D01*
X126379840Y-95259045D02*
X126313174Y-95192378D01*
X126313174Y-95192378D02*
X126279840Y-95125712D01*
X126279840Y-95125712D02*
X126246507Y-94992378D01*
X126246507Y-94992378D02*
X126246507Y-94892378D01*
X126246507Y-94892378D02*
X126279840Y-94759045D01*
X126279840Y-94759045D02*
X126313174Y-94692378D01*
X126313174Y-94692378D02*
X126379840Y-94625712D01*
X126379840Y-94625712D02*
X126479840Y-94592378D01*
X126479840Y-94592378D02*
X126546507Y-94592378D01*
X126546507Y-94592378D02*
X126646507Y-94625712D01*
X126646507Y-94625712D02*
X126679840Y-94659045D01*
X127346507Y-95292378D02*
X126946507Y-95292378D01*
X127146507Y-95292378D02*
X127146507Y-94592378D01*
X127146507Y-94592378D02*
X127079840Y-94692378D01*
X127079840Y-94692378D02*
X127013174Y-94759045D01*
X127013174Y-94759045D02*
X126946507Y-94792378D01*
X127946507Y-94592378D02*
X127813174Y-94592378D01*
X127813174Y-94592378D02*
X127746507Y-94625712D01*
X127746507Y-94625712D02*
X127713174Y-94659045D01*
X127713174Y-94659045D02*
X127646507Y-94759045D01*
X127646507Y-94759045D02*
X127613174Y-94892378D01*
X127613174Y-94892378D02*
X127613174Y-95159045D01*
X127613174Y-95159045D02*
X127646507Y-95225712D01*
X127646507Y-95225712D02*
X127679841Y-95259045D01*
X127679841Y-95259045D02*
X127746507Y-95292378D01*
X127746507Y-95292378D02*
X127879841Y-95292378D01*
X127879841Y-95292378D02*
X127946507Y-95259045D01*
X127946507Y-95259045D02*
X127979841Y-95225712D01*
X127979841Y-95225712D02*
X128013174Y-95159045D01*
X128013174Y-95159045D02*
X128013174Y-94992378D01*
X128013174Y-94992378D02*
X127979841Y-94925712D01*
X127979841Y-94925712D02*
X127946507Y-94892378D01*
X127946507Y-94892378D02*
X127879841Y-94859045D01*
X127879841Y-94859045D02*
X127746507Y-94859045D01*
X127746507Y-94859045D02*
X127679841Y-94892378D01*
X127679841Y-94892378D02*
X127646507Y-94925712D01*
X127646507Y-94925712D02*
X127613174Y-94992378D01*
%TO.C,Y1*%
X120887667Y-79355833D02*
X120887667Y-79689166D01*
X120654333Y-78989166D02*
X120887667Y-79355833D01*
X120887667Y-79355833D02*
X121121000Y-78989166D01*
X121721000Y-79689166D02*
X121321000Y-79689166D01*
X121521000Y-79689166D02*
X121521000Y-78989166D01*
X121521000Y-78989166D02*
X121454333Y-79089166D01*
X121454333Y-79089166D02*
X121387667Y-79155833D01*
X121387667Y-79155833D02*
X121321000Y-79189166D01*
D11*
%TO.C,J4*%
X147826365Y-87980518D02*
X147826365Y-88694804D01*
X147826365Y-88694804D02*
X147778746Y-88837661D01*
X147778746Y-88837661D02*
X147683508Y-88932899D01*
X147683508Y-88932899D02*
X147540651Y-88980518D01*
X147540651Y-88980518D02*
X147445413Y-88980518D01*
X148731127Y-88313852D02*
X148731127Y-88980518D01*
X148493032Y-87932899D02*
X148254937Y-88647185D01*
X148254937Y-88647185D02*
X148873984Y-88647185D01*
D10*
X146285930Y-88732989D02*
X145524026Y-88732989D01*
X145895969Y-97736302D02*
X145895969Y-96974398D01*
X146276921Y-97355350D02*
X145515017Y-97355350D01*
%TO.C,Q3*%
X136264939Y-98892919D02*
X136198272Y-98859586D01*
X136198272Y-98859586D02*
X136131606Y-98792919D01*
X136131606Y-98792919D02*
X136031606Y-98692919D01*
X136031606Y-98692919D02*
X135964939Y-98659586D01*
X135964939Y-98659586D02*
X135898272Y-98659586D01*
X135931606Y-98826252D02*
X135864939Y-98792919D01*
X135864939Y-98792919D02*
X135798272Y-98726252D01*
X135798272Y-98726252D02*
X135764939Y-98592919D01*
X135764939Y-98592919D02*
X135764939Y-98359586D01*
X135764939Y-98359586D02*
X135798272Y-98226252D01*
X135798272Y-98226252D02*
X135864939Y-98159586D01*
X135864939Y-98159586D02*
X135931606Y-98126252D01*
X135931606Y-98126252D02*
X136064939Y-98126252D01*
X136064939Y-98126252D02*
X136131606Y-98159586D01*
X136131606Y-98159586D02*
X136198272Y-98226252D01*
X136198272Y-98226252D02*
X136231606Y-98359586D01*
X136231606Y-98359586D02*
X136231606Y-98592919D01*
X136231606Y-98592919D02*
X136198272Y-98726252D01*
X136198272Y-98726252D02*
X136131606Y-98792919D01*
X136131606Y-98792919D02*
X136064939Y-98826252D01*
X136064939Y-98826252D02*
X135931606Y-98826252D01*
X136464939Y-98126252D02*
X136898272Y-98126252D01*
X136898272Y-98126252D02*
X136664939Y-98392919D01*
X136664939Y-98392919D02*
X136764939Y-98392919D01*
X136764939Y-98392919D02*
X136831605Y-98426252D01*
X136831605Y-98426252D02*
X136864939Y-98459586D01*
X136864939Y-98459586D02*
X136898272Y-98526252D01*
X136898272Y-98526252D02*
X136898272Y-98692919D01*
X136898272Y-98692919D02*
X136864939Y-98759586D01*
X136864939Y-98759586D02*
X136831605Y-98792919D01*
X136831605Y-98792919D02*
X136764939Y-98826252D01*
X136764939Y-98826252D02*
X136564939Y-98826252D01*
X136564939Y-98826252D02*
X136498272Y-98792919D01*
X136498272Y-98792919D02*
X136464939Y-98759586D01*
X128787166Y-101613333D02*
X128087166Y-101613333D01*
X128087166Y-101613333D02*
X128087166Y-101346666D01*
X128087166Y-101346666D02*
X128120500Y-101280000D01*
X128120500Y-101280000D02*
X128153833Y-101246666D01*
X128153833Y-101246666D02*
X128220500Y-101213333D01*
X128220500Y-101213333D02*
X128320500Y-101213333D01*
X128320500Y-101213333D02*
X128387166Y-101246666D01*
X128387166Y-101246666D02*
X128420500Y-101280000D01*
X128420500Y-101280000D02*
X128453833Y-101346666D01*
X128453833Y-101346666D02*
X128453833Y-101613333D01*
X128453833Y-100780000D02*
X128787166Y-100780000D01*
X128087166Y-101013333D02*
X128453833Y-100780000D01*
X128453833Y-100780000D02*
X128087166Y-100546666D01*
X128787166Y-99913333D02*
X128453833Y-100146666D01*
X128787166Y-100313333D02*
X128087166Y-100313333D01*
X128087166Y-100313333D02*
X128087166Y-100046666D01*
X128087166Y-100046666D02*
X128120500Y-99980000D01*
X128120500Y-99980000D02*
X128153833Y-99946666D01*
X128153833Y-99946666D02*
X128220500Y-99913333D01*
X128220500Y-99913333D02*
X128320500Y-99913333D01*
X128320500Y-99913333D02*
X128387166Y-99946666D01*
X128387166Y-99946666D02*
X128420500Y-99980000D01*
X128420500Y-99980000D02*
X128453833Y-100046666D01*
X128453833Y-100046666D02*
X128453833Y-100313333D01*
X128087166Y-99480000D02*
X128087166Y-99346666D01*
X128087166Y-99346666D02*
X128120500Y-99280000D01*
X128120500Y-99280000D02*
X128187166Y-99213333D01*
X128187166Y-99213333D02*
X128320500Y-99180000D01*
X128320500Y-99180000D02*
X128553833Y-99180000D01*
X128553833Y-99180000D02*
X128687166Y-99213333D01*
X128687166Y-99213333D02*
X128753833Y-99280000D01*
X128753833Y-99280000D02*
X128787166Y-99346666D01*
X128787166Y-99346666D02*
X128787166Y-99480000D01*
X128787166Y-99480000D02*
X128753833Y-99546666D01*
X128753833Y-99546666D02*
X128687166Y-99613333D01*
X128687166Y-99613333D02*
X128553833Y-99646666D01*
X128553833Y-99646666D02*
X128320500Y-99646666D01*
X128320500Y-99646666D02*
X128187166Y-99613333D01*
X128187166Y-99613333D02*
X128120500Y-99546666D01*
X128120500Y-99546666D02*
X128087166Y-99480000D01*
X128087166Y-98946667D02*
X128087166Y-98513333D01*
X128087166Y-98513333D02*
X128353833Y-98746667D01*
X128353833Y-98746667D02*
X128353833Y-98646667D01*
X128353833Y-98646667D02*
X128387166Y-98580000D01*
X128387166Y-98580000D02*
X128420500Y-98546667D01*
X128420500Y-98546667D02*
X128487166Y-98513333D01*
X128487166Y-98513333D02*
X128653833Y-98513333D01*
X128653833Y-98513333D02*
X128720500Y-98546667D01*
X128720500Y-98546667D02*
X128753833Y-98580000D01*
X128753833Y-98580000D02*
X128787166Y-98646667D01*
X128787166Y-98646667D02*
X128787166Y-98846667D01*
X128787166Y-98846667D02*
X128753833Y-98913333D01*
X128753833Y-98913333D02*
X128720500Y-98946667D01*
%TO.C,R29*%
X141488939Y-69119580D02*
X141155606Y-69352913D01*
X141488939Y-69519580D02*
X140788939Y-69519580D01*
X140788939Y-69519580D02*
X140788939Y-69252913D01*
X140788939Y-69252913D02*
X140822273Y-69186247D01*
X140822273Y-69186247D02*
X140855606Y-69152913D01*
X140855606Y-69152913D02*
X140922273Y-69119580D01*
X140922273Y-69119580D02*
X141022273Y-69119580D01*
X141022273Y-69119580D02*
X141088939Y-69152913D01*
X141088939Y-69152913D02*
X141122273Y-69186247D01*
X141122273Y-69186247D02*
X141155606Y-69252913D01*
X141155606Y-69252913D02*
X141155606Y-69519580D01*
X140855606Y-68852913D02*
X140822273Y-68819580D01*
X140822273Y-68819580D02*
X140788939Y-68752913D01*
X140788939Y-68752913D02*
X140788939Y-68586247D01*
X140788939Y-68586247D02*
X140822273Y-68519580D01*
X140822273Y-68519580D02*
X140855606Y-68486247D01*
X140855606Y-68486247D02*
X140922273Y-68452913D01*
X140922273Y-68452913D02*
X140988939Y-68452913D01*
X140988939Y-68452913D02*
X141088939Y-68486247D01*
X141088939Y-68486247D02*
X141488939Y-68886247D01*
X141488939Y-68886247D02*
X141488939Y-68452913D01*
X141488939Y-68119580D02*
X141488939Y-67986246D01*
X141488939Y-67986246D02*
X141455606Y-67919580D01*
X141455606Y-67919580D02*
X141422273Y-67886246D01*
X141422273Y-67886246D02*
X141322273Y-67819580D01*
X141322273Y-67819580D02*
X141188939Y-67786246D01*
X141188939Y-67786246D02*
X140922273Y-67786246D01*
X140922273Y-67786246D02*
X140855606Y-67819580D01*
X140855606Y-67819580D02*
X140822273Y-67852913D01*
X140822273Y-67852913D02*
X140788939Y-67919580D01*
X140788939Y-67919580D02*
X140788939Y-68052913D01*
X140788939Y-68052913D02*
X140822273Y-68119580D01*
X140822273Y-68119580D02*
X140855606Y-68152913D01*
X140855606Y-68152913D02*
X140922273Y-68186246D01*
X140922273Y-68186246D02*
X141088939Y-68186246D01*
X141088939Y-68186246D02*
X141155606Y-68152913D01*
X141155606Y-68152913D02*
X141188939Y-68119580D01*
X141188939Y-68119580D02*
X141222273Y-68052913D01*
X141222273Y-68052913D02*
X141222273Y-67919580D01*
X141222273Y-67919580D02*
X141188939Y-67852913D01*
X141188939Y-67852913D02*
X141155606Y-67819580D01*
X141155606Y-67819580D02*
X141088939Y-67786246D01*
%TO.C,R18*%
X136123802Y-79847751D02*
X135890469Y-79514418D01*
X135723802Y-79847751D02*
X135723802Y-79147751D01*
X135723802Y-79147751D02*
X135990469Y-79147751D01*
X135990469Y-79147751D02*
X136057136Y-79181085D01*
X136057136Y-79181085D02*
X136090469Y-79214418D01*
X136090469Y-79214418D02*
X136123802Y-79281085D01*
X136123802Y-79281085D02*
X136123802Y-79381085D01*
X136123802Y-79381085D02*
X136090469Y-79447751D01*
X136090469Y-79447751D02*
X136057136Y-79481085D01*
X136057136Y-79481085D02*
X135990469Y-79514418D01*
X135990469Y-79514418D02*
X135723802Y-79514418D01*
X136790469Y-79847751D02*
X136390469Y-79847751D01*
X136590469Y-79847751D02*
X136590469Y-79147751D01*
X136590469Y-79147751D02*
X136523802Y-79247751D01*
X136523802Y-79247751D02*
X136457136Y-79314418D01*
X136457136Y-79314418D02*
X136390469Y-79347751D01*
X137190469Y-79447751D02*
X137123803Y-79414418D01*
X137123803Y-79414418D02*
X137090469Y-79381085D01*
X137090469Y-79381085D02*
X137057136Y-79314418D01*
X137057136Y-79314418D02*
X137057136Y-79281085D01*
X137057136Y-79281085D02*
X137090469Y-79214418D01*
X137090469Y-79214418D02*
X137123803Y-79181085D01*
X137123803Y-79181085D02*
X137190469Y-79147751D01*
X137190469Y-79147751D02*
X137323803Y-79147751D01*
X137323803Y-79147751D02*
X137390469Y-79181085D01*
X137390469Y-79181085D02*
X137423803Y-79214418D01*
X137423803Y-79214418D02*
X137457136Y-79281085D01*
X137457136Y-79281085D02*
X137457136Y-79314418D01*
X137457136Y-79314418D02*
X137423803Y-79381085D01*
X137423803Y-79381085D02*
X137390469Y-79414418D01*
X137390469Y-79414418D02*
X137323803Y-79447751D01*
X137323803Y-79447751D02*
X137190469Y-79447751D01*
X137190469Y-79447751D02*
X137123803Y-79481085D01*
X137123803Y-79481085D02*
X137090469Y-79514418D01*
X137090469Y-79514418D02*
X137057136Y-79581085D01*
X137057136Y-79581085D02*
X137057136Y-79714418D01*
X137057136Y-79714418D02*
X137090469Y-79781085D01*
X137090469Y-79781085D02*
X137123803Y-79814418D01*
X137123803Y-79814418D02*
X137190469Y-79847751D01*
X137190469Y-79847751D02*
X137323803Y-79847751D01*
X137323803Y-79847751D02*
X137390469Y-79814418D01*
X137390469Y-79814418D02*
X137423803Y-79781085D01*
X137423803Y-79781085D02*
X137457136Y-79714418D01*
X137457136Y-79714418D02*
X137457136Y-79581085D01*
X137457136Y-79581085D02*
X137423803Y-79514418D01*
X137423803Y-79514418D02*
X137390469Y-79481085D01*
X137390469Y-79481085D02*
X137323803Y-79447751D01*
%TO.C,R24*%
X133588823Y-97672371D02*
X133355490Y-97339038D01*
X133188823Y-97672371D02*
X133188823Y-96972371D01*
X133188823Y-96972371D02*
X133455490Y-96972371D01*
X133455490Y-96972371D02*
X133522157Y-97005705D01*
X133522157Y-97005705D02*
X133555490Y-97039038D01*
X133555490Y-97039038D02*
X133588823Y-97105705D01*
X133588823Y-97105705D02*
X133588823Y-97205705D01*
X133588823Y-97205705D02*
X133555490Y-97272371D01*
X133555490Y-97272371D02*
X133522157Y-97305705D01*
X133522157Y-97305705D02*
X133455490Y-97339038D01*
X133455490Y-97339038D02*
X133188823Y-97339038D01*
X133855490Y-97039038D02*
X133888823Y-97005705D01*
X133888823Y-97005705D02*
X133955490Y-96972371D01*
X133955490Y-96972371D02*
X134122157Y-96972371D01*
X134122157Y-96972371D02*
X134188823Y-97005705D01*
X134188823Y-97005705D02*
X134222157Y-97039038D01*
X134222157Y-97039038D02*
X134255490Y-97105705D01*
X134255490Y-97105705D02*
X134255490Y-97172371D01*
X134255490Y-97172371D02*
X134222157Y-97272371D01*
X134222157Y-97272371D02*
X133822157Y-97672371D01*
X133822157Y-97672371D02*
X134255490Y-97672371D01*
X134855490Y-97205705D02*
X134855490Y-97672371D01*
X134688824Y-96939038D02*
X134522157Y-97439038D01*
X134522157Y-97439038D02*
X134955490Y-97439038D01*
%TO.C,L1*%
X115822103Y-86359657D02*
X115488769Y-86359657D01*
X115488769Y-86359657D02*
X115488769Y-85659657D01*
X116422103Y-86359657D02*
X116022103Y-86359657D01*
X116222103Y-86359657D02*
X116222103Y-85659657D01*
X116222103Y-85659657D02*
X116155436Y-85759657D01*
X116155436Y-85759657D02*
X116088770Y-85826324D01*
X116088770Y-85826324D02*
X116022103Y-85859657D01*
%TO.C,L3*%
X112383333Y-88357166D02*
X112049999Y-88357166D01*
X112049999Y-88357166D02*
X112049999Y-87657166D01*
X112550000Y-87657166D02*
X112983333Y-87657166D01*
X112983333Y-87657166D02*
X112750000Y-87923833D01*
X112750000Y-87923833D02*
X112850000Y-87923833D01*
X112850000Y-87923833D02*
X112916666Y-87957166D01*
X112916666Y-87957166D02*
X112950000Y-87990500D01*
X112950000Y-87990500D02*
X112983333Y-88057166D01*
X112983333Y-88057166D02*
X112983333Y-88223833D01*
X112983333Y-88223833D02*
X112950000Y-88290500D01*
X112950000Y-88290500D02*
X112916666Y-88323833D01*
X112916666Y-88323833D02*
X112850000Y-88357166D01*
X112850000Y-88357166D02*
X112650000Y-88357166D01*
X112650000Y-88357166D02*
X112583333Y-88323833D01*
X112583333Y-88323833D02*
X112550000Y-88290500D01*
%TO.C,C27*%
X107329500Y-74398000D02*
X107362833Y-74431333D01*
X107362833Y-74431333D02*
X107396166Y-74531333D01*
X107396166Y-74531333D02*
X107396166Y-74598000D01*
X107396166Y-74598000D02*
X107362833Y-74698000D01*
X107362833Y-74698000D02*
X107296166Y-74764667D01*
X107296166Y-74764667D02*
X107229500Y-74798000D01*
X107229500Y-74798000D02*
X107096166Y-74831333D01*
X107096166Y-74831333D02*
X106996166Y-74831333D01*
X106996166Y-74831333D02*
X106862833Y-74798000D01*
X106862833Y-74798000D02*
X106796166Y-74764667D01*
X106796166Y-74764667D02*
X106729500Y-74698000D01*
X106729500Y-74698000D02*
X106696166Y-74598000D01*
X106696166Y-74598000D02*
X106696166Y-74531333D01*
X106696166Y-74531333D02*
X106729500Y-74431333D01*
X106729500Y-74431333D02*
X106762833Y-74398000D01*
X106762833Y-74131333D02*
X106729500Y-74098000D01*
X106729500Y-74098000D02*
X106696166Y-74031333D01*
X106696166Y-74031333D02*
X106696166Y-73864667D01*
X106696166Y-73864667D02*
X106729500Y-73798000D01*
X106729500Y-73798000D02*
X106762833Y-73764667D01*
X106762833Y-73764667D02*
X106829500Y-73731333D01*
X106829500Y-73731333D02*
X106896166Y-73731333D01*
X106896166Y-73731333D02*
X106996166Y-73764667D01*
X106996166Y-73764667D02*
X107396166Y-74164667D01*
X107396166Y-74164667D02*
X107396166Y-73731333D01*
X106696166Y-73498000D02*
X106696166Y-73031333D01*
X106696166Y-73031333D02*
X107396166Y-73331333D01*
%TO.C,D10*%
X126520500Y-69433333D02*
X126553833Y-69466666D01*
X126553833Y-69466666D02*
X126587166Y-69566666D01*
X126587166Y-69566666D02*
X126587166Y-69633333D01*
X126587166Y-69633333D02*
X126553833Y-69733333D01*
X126553833Y-69733333D02*
X126487166Y-69800000D01*
X126487166Y-69800000D02*
X126420500Y-69833333D01*
X126420500Y-69833333D02*
X126287166Y-69866666D01*
X126287166Y-69866666D02*
X126187166Y-69866666D01*
X126187166Y-69866666D02*
X126053833Y-69833333D01*
X126053833Y-69833333D02*
X125987166Y-69800000D01*
X125987166Y-69800000D02*
X125920500Y-69733333D01*
X125920500Y-69733333D02*
X125887166Y-69633333D01*
X125887166Y-69633333D02*
X125887166Y-69566666D01*
X125887166Y-69566666D02*
X125920500Y-69466666D01*
X125920500Y-69466666D02*
X125953833Y-69433333D01*
X126587166Y-69133333D02*
X125887166Y-69133333D01*
X126220500Y-69133333D02*
X126220500Y-68733333D01*
X126587166Y-68733333D02*
X125887166Y-68733333D01*
X126120500Y-68100000D02*
X126587166Y-68100000D01*
X125853833Y-68266667D02*
X126353833Y-68433333D01*
X126353833Y-68433333D02*
X126353833Y-68000000D01*
%TO.C,R16*%
X107360166Y-78299000D02*
X107026833Y-78532333D01*
X107360166Y-78699000D02*
X106660166Y-78699000D01*
X106660166Y-78699000D02*
X106660166Y-78432333D01*
X106660166Y-78432333D02*
X106693500Y-78365667D01*
X106693500Y-78365667D02*
X106726833Y-78332333D01*
X106726833Y-78332333D02*
X106793500Y-78299000D01*
X106793500Y-78299000D02*
X106893500Y-78299000D01*
X106893500Y-78299000D02*
X106960166Y-78332333D01*
X106960166Y-78332333D02*
X106993500Y-78365667D01*
X106993500Y-78365667D02*
X107026833Y-78432333D01*
X107026833Y-78432333D02*
X107026833Y-78699000D01*
X107360166Y-77632333D02*
X107360166Y-78032333D01*
X107360166Y-77832333D02*
X106660166Y-77832333D01*
X106660166Y-77832333D02*
X106760166Y-77899000D01*
X106760166Y-77899000D02*
X106826833Y-77965667D01*
X106826833Y-77965667D02*
X106860166Y-78032333D01*
X106660166Y-77032333D02*
X106660166Y-77165666D01*
X106660166Y-77165666D02*
X106693500Y-77232333D01*
X106693500Y-77232333D02*
X106726833Y-77265666D01*
X106726833Y-77265666D02*
X106826833Y-77332333D01*
X106826833Y-77332333D02*
X106960166Y-77365666D01*
X106960166Y-77365666D02*
X107226833Y-77365666D01*
X107226833Y-77365666D02*
X107293500Y-77332333D01*
X107293500Y-77332333D02*
X107326833Y-77299000D01*
X107326833Y-77299000D02*
X107360166Y-77232333D01*
X107360166Y-77232333D02*
X107360166Y-77099000D01*
X107360166Y-77099000D02*
X107326833Y-77032333D01*
X107326833Y-77032333D02*
X107293500Y-76999000D01*
X107293500Y-76999000D02*
X107226833Y-76965666D01*
X107226833Y-76965666D02*
X107060166Y-76965666D01*
X107060166Y-76965666D02*
X106993500Y-76999000D01*
X106993500Y-76999000D02*
X106960166Y-77032333D01*
X106960166Y-77032333D02*
X106926833Y-77099000D01*
X106926833Y-77099000D02*
X106926833Y-77232333D01*
X106926833Y-77232333D02*
X106960166Y-77299000D01*
X106960166Y-77299000D02*
X106993500Y-77332333D01*
X106993500Y-77332333D02*
X107060166Y-77365666D01*
%TO.C,R30*%
X125647166Y-108675000D02*
X125313833Y-108908333D01*
X125647166Y-109075000D02*
X124947166Y-109075000D01*
X124947166Y-109075000D02*
X124947166Y-108808333D01*
X124947166Y-108808333D02*
X124980500Y-108741667D01*
X124980500Y-108741667D02*
X125013833Y-108708333D01*
X125013833Y-108708333D02*
X125080500Y-108675000D01*
X125080500Y-108675000D02*
X125180500Y-108675000D01*
X125180500Y-108675000D02*
X125247166Y-108708333D01*
X125247166Y-108708333D02*
X125280500Y-108741667D01*
X125280500Y-108741667D02*
X125313833Y-108808333D01*
X125313833Y-108808333D02*
X125313833Y-109075000D01*
X124947166Y-108441667D02*
X124947166Y-108008333D01*
X124947166Y-108008333D02*
X125213833Y-108241667D01*
X125213833Y-108241667D02*
X125213833Y-108141667D01*
X125213833Y-108141667D02*
X125247166Y-108075000D01*
X125247166Y-108075000D02*
X125280500Y-108041667D01*
X125280500Y-108041667D02*
X125347166Y-108008333D01*
X125347166Y-108008333D02*
X125513833Y-108008333D01*
X125513833Y-108008333D02*
X125580500Y-108041667D01*
X125580500Y-108041667D02*
X125613833Y-108075000D01*
X125613833Y-108075000D02*
X125647166Y-108141667D01*
X125647166Y-108141667D02*
X125647166Y-108341667D01*
X125647166Y-108341667D02*
X125613833Y-108408333D01*
X125613833Y-108408333D02*
X125580500Y-108441667D01*
X124947166Y-107575000D02*
X124947166Y-107508333D01*
X124947166Y-107508333D02*
X124980500Y-107441666D01*
X124980500Y-107441666D02*
X125013833Y-107408333D01*
X125013833Y-107408333D02*
X125080500Y-107375000D01*
X125080500Y-107375000D02*
X125213833Y-107341666D01*
X125213833Y-107341666D02*
X125380500Y-107341666D01*
X125380500Y-107341666D02*
X125513833Y-107375000D01*
X125513833Y-107375000D02*
X125580500Y-107408333D01*
X125580500Y-107408333D02*
X125613833Y-107441666D01*
X125613833Y-107441666D02*
X125647166Y-107508333D01*
X125647166Y-107508333D02*
X125647166Y-107575000D01*
X125647166Y-107575000D02*
X125613833Y-107641666D01*
X125613833Y-107641666D02*
X125580500Y-107675000D01*
X125580500Y-107675000D02*
X125513833Y-107708333D01*
X125513833Y-107708333D02*
X125380500Y-107741666D01*
X125380500Y-107741666D02*
X125213833Y-107741666D01*
X125213833Y-107741666D02*
X125080500Y-107708333D01*
X125080500Y-107708333D02*
X125013833Y-107675000D01*
X125013833Y-107675000D02*
X124980500Y-107641666D01*
X124980500Y-107641666D02*
X124947166Y-107575000D01*
%TO.C,D3*%
X139465030Y-78767166D02*
X139465030Y-78067166D01*
X139465030Y-78067166D02*
X139631697Y-78067166D01*
X139631697Y-78067166D02*
X139731697Y-78100500D01*
X139731697Y-78100500D02*
X139798364Y-78167166D01*
X139798364Y-78167166D02*
X139831697Y-78233833D01*
X139831697Y-78233833D02*
X139865030Y-78367166D01*
X139865030Y-78367166D02*
X139865030Y-78467166D01*
X139865030Y-78467166D02*
X139831697Y-78600500D01*
X139831697Y-78600500D02*
X139798364Y-78667166D01*
X139798364Y-78667166D02*
X139731697Y-78733833D01*
X139731697Y-78733833D02*
X139631697Y-78767166D01*
X139631697Y-78767166D02*
X139465030Y-78767166D01*
X140098364Y-78067166D02*
X140531697Y-78067166D01*
X140531697Y-78067166D02*
X140298364Y-78333833D01*
X140298364Y-78333833D02*
X140398364Y-78333833D01*
X140398364Y-78333833D02*
X140465030Y-78367166D01*
X140465030Y-78367166D02*
X140498364Y-78400500D01*
X140498364Y-78400500D02*
X140531697Y-78467166D01*
X140531697Y-78467166D02*
X140531697Y-78633833D01*
X140531697Y-78633833D02*
X140498364Y-78700500D01*
X140498364Y-78700500D02*
X140465030Y-78733833D01*
X140465030Y-78733833D02*
X140398364Y-78767166D01*
X140398364Y-78767166D02*
X140198364Y-78767166D01*
X140198364Y-78767166D02*
X140131697Y-78733833D01*
X140131697Y-78733833D02*
X140098364Y-78700500D01*
D11*
%TO.C,U1*%
X130694095Y-94214380D02*
X130694095Y-95023904D01*
X130694095Y-95023904D02*
X130741714Y-95119142D01*
X130741714Y-95119142D02*
X130789333Y-95166761D01*
X130789333Y-95166761D02*
X130884571Y-95214380D01*
X130884571Y-95214380D02*
X131075047Y-95214380D01*
X131075047Y-95214380D02*
X131170285Y-95166761D01*
X131170285Y-95166761D02*
X131217904Y-95119142D01*
X131217904Y-95119142D02*
X131265523Y-95023904D01*
X131265523Y-95023904D02*
X131265523Y-94214380D01*
X132265523Y-95214380D02*
X131694095Y-95214380D01*
X131979809Y-95214380D02*
X131979809Y-94214380D01*
X131979809Y-94214380D02*
X131884571Y-94357238D01*
X131884571Y-94357238D02*
X131789333Y-94452476D01*
X131789333Y-94452476D02*
X131694095Y-94500095D01*
D10*
%TO.C,C2*%
X115659333Y-90956499D02*
X115626000Y-90989832D01*
X115626000Y-90989832D02*
X115526000Y-91023165D01*
X115526000Y-91023165D02*
X115459333Y-91023165D01*
X115459333Y-91023165D02*
X115359333Y-90989832D01*
X115359333Y-90989832D02*
X115292667Y-90923165D01*
X115292667Y-90923165D02*
X115259333Y-90856499D01*
X115259333Y-90856499D02*
X115226000Y-90723165D01*
X115226000Y-90723165D02*
X115226000Y-90623165D01*
X115226000Y-90623165D02*
X115259333Y-90489832D01*
X115259333Y-90489832D02*
X115292667Y-90423165D01*
X115292667Y-90423165D02*
X115359333Y-90356499D01*
X115359333Y-90356499D02*
X115459333Y-90323165D01*
X115459333Y-90323165D02*
X115526000Y-90323165D01*
X115526000Y-90323165D02*
X115626000Y-90356499D01*
X115626000Y-90356499D02*
X115659333Y-90389832D01*
X115926000Y-90389832D02*
X115959333Y-90356499D01*
X115959333Y-90356499D02*
X116026000Y-90323165D01*
X116026000Y-90323165D02*
X116192667Y-90323165D01*
X116192667Y-90323165D02*
X116259333Y-90356499D01*
X116259333Y-90356499D02*
X116292667Y-90389832D01*
X116292667Y-90389832D02*
X116326000Y-90456499D01*
X116326000Y-90456499D02*
X116326000Y-90523165D01*
X116326000Y-90523165D02*
X116292667Y-90623165D01*
X116292667Y-90623165D02*
X115892667Y-91023165D01*
X115892667Y-91023165D02*
X116326000Y-91023165D01*
%TO.C,C3*%
X112721333Y-89720500D02*
X112688000Y-89753833D01*
X112688000Y-89753833D02*
X112588000Y-89787166D01*
X112588000Y-89787166D02*
X112521333Y-89787166D01*
X112521333Y-89787166D02*
X112421333Y-89753833D01*
X112421333Y-89753833D02*
X112354667Y-89687166D01*
X112354667Y-89687166D02*
X112321333Y-89620500D01*
X112321333Y-89620500D02*
X112288000Y-89487166D01*
X112288000Y-89487166D02*
X112288000Y-89387166D01*
X112288000Y-89387166D02*
X112321333Y-89253833D01*
X112321333Y-89253833D02*
X112354667Y-89187166D01*
X112354667Y-89187166D02*
X112421333Y-89120500D01*
X112421333Y-89120500D02*
X112521333Y-89087166D01*
X112521333Y-89087166D02*
X112588000Y-89087166D01*
X112588000Y-89087166D02*
X112688000Y-89120500D01*
X112688000Y-89120500D02*
X112721333Y-89153833D01*
X112954667Y-89087166D02*
X113388000Y-89087166D01*
X113388000Y-89087166D02*
X113154667Y-89353833D01*
X113154667Y-89353833D02*
X113254667Y-89353833D01*
X113254667Y-89353833D02*
X113321333Y-89387166D01*
X113321333Y-89387166D02*
X113354667Y-89420500D01*
X113354667Y-89420500D02*
X113388000Y-89487166D01*
X113388000Y-89487166D02*
X113388000Y-89653833D01*
X113388000Y-89653833D02*
X113354667Y-89720500D01*
X113354667Y-89720500D02*
X113321333Y-89753833D01*
X113321333Y-89753833D02*
X113254667Y-89787166D01*
X113254667Y-89787166D02*
X113054667Y-89787166D01*
X113054667Y-89787166D02*
X112988000Y-89753833D01*
X112988000Y-89753833D02*
X112954667Y-89720500D01*
%TO.C,R23*%
X141444939Y-74363580D02*
X141111606Y-74596913D01*
X141444939Y-74763580D02*
X140744939Y-74763580D01*
X140744939Y-74763580D02*
X140744939Y-74496913D01*
X140744939Y-74496913D02*
X140778273Y-74430247D01*
X140778273Y-74430247D02*
X140811606Y-74396913D01*
X140811606Y-74396913D02*
X140878273Y-74363580D01*
X140878273Y-74363580D02*
X140978273Y-74363580D01*
X140978273Y-74363580D02*
X141044939Y-74396913D01*
X141044939Y-74396913D02*
X141078273Y-74430247D01*
X141078273Y-74430247D02*
X141111606Y-74496913D01*
X141111606Y-74496913D02*
X141111606Y-74763580D01*
X140811606Y-74096913D02*
X140778273Y-74063580D01*
X140778273Y-74063580D02*
X140744939Y-73996913D01*
X140744939Y-73996913D02*
X140744939Y-73830247D01*
X140744939Y-73830247D02*
X140778273Y-73763580D01*
X140778273Y-73763580D02*
X140811606Y-73730247D01*
X140811606Y-73730247D02*
X140878273Y-73696913D01*
X140878273Y-73696913D02*
X140944939Y-73696913D01*
X140944939Y-73696913D02*
X141044939Y-73730247D01*
X141044939Y-73730247D02*
X141444939Y-74130247D01*
X141444939Y-74130247D02*
X141444939Y-73696913D01*
X140744939Y-73463580D02*
X140744939Y-73030246D01*
X140744939Y-73030246D02*
X141011606Y-73263580D01*
X141011606Y-73263580D02*
X141011606Y-73163580D01*
X141011606Y-73163580D02*
X141044939Y-73096913D01*
X141044939Y-73096913D02*
X141078273Y-73063580D01*
X141078273Y-73063580D02*
X141144939Y-73030246D01*
X141144939Y-73030246D02*
X141311606Y-73030246D01*
X141311606Y-73030246D02*
X141378273Y-73063580D01*
X141378273Y-73063580D02*
X141411606Y-73096913D01*
X141411606Y-73096913D02*
X141444939Y-73163580D01*
X141444939Y-73163580D02*
X141444939Y-73363580D01*
X141444939Y-73363580D02*
X141411606Y-73430246D01*
X141411606Y-73430246D02*
X141378273Y-73463580D01*
%TO.C,L2*%
X121846166Y-83366668D02*
X121846166Y-83700001D01*
X121846166Y-83700001D02*
X121146166Y-83700001D01*
X121212833Y-83166667D02*
X121179500Y-83133334D01*
X121179500Y-83133334D02*
X121146166Y-83066667D01*
X121146166Y-83066667D02*
X121146166Y-82900001D01*
X121146166Y-82900001D02*
X121179500Y-82833334D01*
X121179500Y-82833334D02*
X121212833Y-82800001D01*
X121212833Y-82800001D02*
X121279500Y-82766667D01*
X121279500Y-82766667D02*
X121346166Y-82766667D01*
X121346166Y-82766667D02*
X121446166Y-82800001D01*
X121446166Y-82800001D02*
X121846166Y-83200001D01*
X121846166Y-83200001D02*
X121846166Y-82766667D01*
%TO.C,R11*%
X123409999Y-77337166D02*
X123176666Y-77003833D01*
X123009999Y-77337166D02*
X123009999Y-76637166D01*
X123009999Y-76637166D02*
X123276666Y-76637166D01*
X123276666Y-76637166D02*
X123343333Y-76670500D01*
X123343333Y-76670500D02*
X123376666Y-76703833D01*
X123376666Y-76703833D02*
X123409999Y-76770500D01*
X123409999Y-76770500D02*
X123409999Y-76870500D01*
X123409999Y-76870500D02*
X123376666Y-76937166D01*
X123376666Y-76937166D02*
X123343333Y-76970500D01*
X123343333Y-76970500D02*
X123276666Y-77003833D01*
X123276666Y-77003833D02*
X123009999Y-77003833D01*
X124076666Y-77337166D02*
X123676666Y-77337166D01*
X123876666Y-77337166D02*
X123876666Y-76637166D01*
X123876666Y-76637166D02*
X123809999Y-76737166D01*
X123809999Y-76737166D02*
X123743333Y-76803833D01*
X123743333Y-76803833D02*
X123676666Y-76837166D01*
X124743333Y-77337166D02*
X124343333Y-77337166D01*
X124543333Y-77337166D02*
X124543333Y-76637166D01*
X124543333Y-76637166D02*
X124476666Y-76737166D01*
X124476666Y-76737166D02*
X124410000Y-76803833D01*
X124410000Y-76803833D02*
X124343333Y-76837166D01*
%TO.C,R15*%
X114459999Y-81177166D02*
X114226666Y-80843833D01*
X114059999Y-81177166D02*
X114059999Y-80477166D01*
X114059999Y-80477166D02*
X114326666Y-80477166D01*
X114326666Y-80477166D02*
X114393333Y-80510500D01*
X114393333Y-80510500D02*
X114426666Y-80543833D01*
X114426666Y-80543833D02*
X114459999Y-80610500D01*
X114459999Y-80610500D02*
X114459999Y-80710500D01*
X114459999Y-80710500D02*
X114426666Y-80777166D01*
X114426666Y-80777166D02*
X114393333Y-80810500D01*
X114393333Y-80810500D02*
X114326666Y-80843833D01*
X114326666Y-80843833D02*
X114059999Y-80843833D01*
X115126666Y-81177166D02*
X114726666Y-81177166D01*
X114926666Y-81177166D02*
X114926666Y-80477166D01*
X114926666Y-80477166D02*
X114859999Y-80577166D01*
X114859999Y-80577166D02*
X114793333Y-80643833D01*
X114793333Y-80643833D02*
X114726666Y-80677166D01*
X115760000Y-80477166D02*
X115426666Y-80477166D01*
X115426666Y-80477166D02*
X115393333Y-80810500D01*
X115393333Y-80810500D02*
X115426666Y-80777166D01*
X115426666Y-80777166D02*
X115493333Y-80743833D01*
X115493333Y-80743833D02*
X115660000Y-80743833D01*
X115660000Y-80743833D02*
X115726666Y-80777166D01*
X115726666Y-80777166D02*
X115760000Y-80810500D01*
X115760000Y-80810500D02*
X115793333Y-80877166D01*
X115793333Y-80877166D02*
X115793333Y-81043833D01*
X115793333Y-81043833D02*
X115760000Y-81110500D01*
X115760000Y-81110500D02*
X115726666Y-81143833D01*
X115726666Y-81143833D02*
X115660000Y-81177166D01*
X115660000Y-81177166D02*
X115493333Y-81177166D01*
X115493333Y-81177166D02*
X115426666Y-81143833D01*
X115426666Y-81143833D02*
X115393333Y-81110500D01*
%TO.C,R36*%
X121457166Y-108950000D02*
X121123833Y-109183333D01*
X121457166Y-109350000D02*
X120757166Y-109350000D01*
X120757166Y-109350000D02*
X120757166Y-109083333D01*
X120757166Y-109083333D02*
X120790500Y-109016667D01*
X120790500Y-109016667D02*
X120823833Y-108983333D01*
X120823833Y-108983333D02*
X120890500Y-108950000D01*
X120890500Y-108950000D02*
X120990500Y-108950000D01*
X120990500Y-108950000D02*
X121057166Y-108983333D01*
X121057166Y-108983333D02*
X121090500Y-109016667D01*
X121090500Y-109016667D02*
X121123833Y-109083333D01*
X121123833Y-109083333D02*
X121123833Y-109350000D01*
X120757166Y-108716667D02*
X120757166Y-108283333D01*
X120757166Y-108283333D02*
X121023833Y-108516667D01*
X121023833Y-108516667D02*
X121023833Y-108416667D01*
X121023833Y-108416667D02*
X121057166Y-108350000D01*
X121057166Y-108350000D02*
X121090500Y-108316667D01*
X121090500Y-108316667D02*
X121157166Y-108283333D01*
X121157166Y-108283333D02*
X121323833Y-108283333D01*
X121323833Y-108283333D02*
X121390500Y-108316667D01*
X121390500Y-108316667D02*
X121423833Y-108350000D01*
X121423833Y-108350000D02*
X121457166Y-108416667D01*
X121457166Y-108416667D02*
X121457166Y-108616667D01*
X121457166Y-108616667D02*
X121423833Y-108683333D01*
X121423833Y-108683333D02*
X121390500Y-108716667D01*
X120757166Y-107683333D02*
X120757166Y-107816666D01*
X120757166Y-107816666D02*
X120790500Y-107883333D01*
X120790500Y-107883333D02*
X120823833Y-107916666D01*
X120823833Y-107916666D02*
X120923833Y-107983333D01*
X120923833Y-107983333D02*
X121057166Y-108016666D01*
X121057166Y-108016666D02*
X121323833Y-108016666D01*
X121323833Y-108016666D02*
X121390500Y-107983333D01*
X121390500Y-107983333D02*
X121423833Y-107950000D01*
X121423833Y-107950000D02*
X121457166Y-107883333D01*
X121457166Y-107883333D02*
X121457166Y-107750000D01*
X121457166Y-107750000D02*
X121423833Y-107683333D01*
X121423833Y-107683333D02*
X121390500Y-107650000D01*
X121390500Y-107650000D02*
X121323833Y-107616666D01*
X121323833Y-107616666D02*
X121157166Y-107616666D01*
X121157166Y-107616666D02*
X121090500Y-107650000D01*
X121090500Y-107650000D02*
X121057166Y-107683333D01*
X121057166Y-107683333D02*
X121023833Y-107750000D01*
X121023833Y-107750000D02*
X121023833Y-107883333D01*
X121023833Y-107883333D02*
X121057166Y-107950000D01*
X121057166Y-107950000D02*
X121090500Y-107983333D01*
X121090500Y-107983333D02*
X121157166Y-108016666D01*
%TO.C,TXLED1*%
X126757166Y-83093333D02*
X126757166Y-82693333D01*
X127457166Y-82893333D02*
X126757166Y-82893333D01*
X126757166Y-82526667D02*
X127457166Y-82060000D01*
X126757166Y-82060000D02*
X127457166Y-82526667D01*
X127457166Y-81793333D02*
X126757166Y-81793333D01*
X126757166Y-81793333D02*
X126757166Y-81626666D01*
X126757166Y-81626666D02*
X126790500Y-81526666D01*
X126790500Y-81526666D02*
X126857166Y-81460000D01*
X126857166Y-81460000D02*
X126923833Y-81426666D01*
X126923833Y-81426666D02*
X127057166Y-81393333D01*
X127057166Y-81393333D02*
X127157166Y-81393333D01*
X127157166Y-81393333D02*
X127290500Y-81426666D01*
X127290500Y-81426666D02*
X127357166Y-81460000D01*
X127357166Y-81460000D02*
X127423833Y-81526666D01*
X127423833Y-81526666D02*
X127457166Y-81626666D01*
X127457166Y-81626666D02*
X127457166Y-81793333D01*
X127457166Y-80760000D02*
X127457166Y-81093333D01*
X127457166Y-81093333D02*
X126757166Y-81093333D01*
X127090500Y-80526666D02*
X127090500Y-80293333D01*
X127457166Y-80193333D02*
X127457166Y-80526666D01*
X127457166Y-80526666D02*
X126757166Y-80526666D01*
X126757166Y-80526666D02*
X126757166Y-80193333D01*
X127457166Y-79893333D02*
X126757166Y-79893333D01*
X126757166Y-79893333D02*
X126757166Y-79726666D01*
X126757166Y-79726666D02*
X126790500Y-79626666D01*
X126790500Y-79626666D02*
X126857166Y-79560000D01*
X126857166Y-79560000D02*
X126923833Y-79526666D01*
X126923833Y-79526666D02*
X127057166Y-79493333D01*
X127057166Y-79493333D02*
X127157166Y-79493333D01*
X127157166Y-79493333D02*
X127290500Y-79526666D01*
X127290500Y-79526666D02*
X127357166Y-79560000D01*
X127357166Y-79560000D02*
X127423833Y-79626666D01*
X127423833Y-79626666D02*
X127457166Y-79726666D01*
X127457166Y-79726666D02*
X127457166Y-79893333D01*
%TO.C,R28*%
X141483939Y-71654580D02*
X141150606Y-71887913D01*
X141483939Y-72054580D02*
X140783939Y-72054580D01*
X140783939Y-72054580D02*
X140783939Y-71787913D01*
X140783939Y-71787913D02*
X140817273Y-71721247D01*
X140817273Y-71721247D02*
X140850606Y-71687913D01*
X140850606Y-71687913D02*
X140917273Y-71654580D01*
X140917273Y-71654580D02*
X141017273Y-71654580D01*
X141017273Y-71654580D02*
X141083939Y-71687913D01*
X141083939Y-71687913D02*
X141117273Y-71721247D01*
X141117273Y-71721247D02*
X141150606Y-71787913D01*
X141150606Y-71787913D02*
X141150606Y-72054580D01*
X140850606Y-71387913D02*
X140817273Y-71354580D01*
X140817273Y-71354580D02*
X140783939Y-71287913D01*
X140783939Y-71287913D02*
X140783939Y-71121247D01*
X140783939Y-71121247D02*
X140817273Y-71054580D01*
X140817273Y-71054580D02*
X140850606Y-71021247D01*
X140850606Y-71021247D02*
X140917273Y-70987913D01*
X140917273Y-70987913D02*
X140983939Y-70987913D01*
X140983939Y-70987913D02*
X141083939Y-71021247D01*
X141083939Y-71021247D02*
X141483939Y-71421247D01*
X141483939Y-71421247D02*
X141483939Y-70987913D01*
X141083939Y-70587913D02*
X141050606Y-70654580D01*
X141050606Y-70654580D02*
X141017273Y-70687913D01*
X141017273Y-70687913D02*
X140950606Y-70721246D01*
X140950606Y-70721246D02*
X140917273Y-70721246D01*
X140917273Y-70721246D02*
X140850606Y-70687913D01*
X140850606Y-70687913D02*
X140817273Y-70654580D01*
X140817273Y-70654580D02*
X140783939Y-70587913D01*
X140783939Y-70587913D02*
X140783939Y-70454580D01*
X140783939Y-70454580D02*
X140817273Y-70387913D01*
X140817273Y-70387913D02*
X140850606Y-70354580D01*
X140850606Y-70354580D02*
X140917273Y-70321246D01*
X140917273Y-70321246D02*
X140950606Y-70321246D01*
X140950606Y-70321246D02*
X141017273Y-70354580D01*
X141017273Y-70354580D02*
X141050606Y-70387913D01*
X141050606Y-70387913D02*
X141083939Y-70454580D01*
X141083939Y-70454580D02*
X141083939Y-70587913D01*
X141083939Y-70587913D02*
X141117273Y-70654580D01*
X141117273Y-70654580D02*
X141150606Y-70687913D01*
X141150606Y-70687913D02*
X141217273Y-70721246D01*
X141217273Y-70721246D02*
X141350606Y-70721246D01*
X141350606Y-70721246D02*
X141417273Y-70687913D01*
X141417273Y-70687913D02*
X141450606Y-70654580D01*
X141450606Y-70654580D02*
X141483939Y-70587913D01*
X141483939Y-70587913D02*
X141483939Y-70454580D01*
X141483939Y-70454580D02*
X141450606Y-70387913D01*
X141450606Y-70387913D02*
X141417273Y-70354580D01*
X141417273Y-70354580D02*
X141350606Y-70321246D01*
X141350606Y-70321246D02*
X141217273Y-70321246D01*
X141217273Y-70321246D02*
X141150606Y-70354580D01*
X141150606Y-70354580D02*
X141117273Y-70387913D01*
X141117273Y-70387913D02*
X141083939Y-70454580D01*
%TO.C,JP1*%
X121649618Y-101118987D02*
X121649618Y-100718987D01*
X122349618Y-100918987D02*
X121649618Y-100918987D01*
X122316285Y-100218987D02*
X122349618Y-100285654D01*
X122349618Y-100285654D02*
X122349618Y-100418987D01*
X122349618Y-100418987D02*
X122316285Y-100485654D01*
X122316285Y-100485654D02*
X122249618Y-100518987D01*
X122249618Y-100518987D02*
X121982952Y-100518987D01*
X121982952Y-100518987D02*
X121916285Y-100485654D01*
X121916285Y-100485654D02*
X121882952Y-100418987D01*
X121882952Y-100418987D02*
X121882952Y-100285654D01*
X121882952Y-100285654D02*
X121916285Y-100218987D01*
X121916285Y-100218987D02*
X121982952Y-100185654D01*
X121982952Y-100185654D02*
X122049618Y-100185654D01*
X122049618Y-100185654D02*
X122116285Y-100518987D01*
X122349618Y-99885654D02*
X121882952Y-99885654D01*
X122016285Y-99885654D02*
X121949618Y-99852321D01*
X121949618Y-99852321D02*
X121916285Y-99818987D01*
X121916285Y-99818987D02*
X121882952Y-99752321D01*
X121882952Y-99752321D02*
X121882952Y-99685654D01*
X122349618Y-99452321D02*
X121882952Y-99452321D01*
X121949618Y-99452321D02*
X121916285Y-99418988D01*
X121916285Y-99418988D02*
X121882952Y-99352321D01*
X121882952Y-99352321D02*
X121882952Y-99252321D01*
X121882952Y-99252321D02*
X121916285Y-99185654D01*
X121916285Y-99185654D02*
X121982952Y-99152321D01*
X121982952Y-99152321D02*
X122349618Y-99152321D01*
X121982952Y-99152321D02*
X121916285Y-99118988D01*
X121916285Y-99118988D02*
X121882952Y-99052321D01*
X121882952Y-99052321D02*
X121882952Y-98952321D01*
X121882952Y-98952321D02*
X121916285Y-98885654D01*
X121916285Y-98885654D02*
X121982952Y-98852321D01*
X121982952Y-98852321D02*
X122349618Y-98852321D01*
X121649618Y-98318988D02*
X122149618Y-98318988D01*
X122149618Y-98318988D02*
X122249618Y-98352321D01*
X122249618Y-98352321D02*
X122316285Y-98418988D01*
X122316285Y-98418988D02*
X122349618Y-98518988D01*
X122349618Y-98518988D02*
X122349618Y-98585655D01*
X122349618Y-97985655D02*
X121649618Y-97985655D01*
X121649618Y-97985655D02*
X121649618Y-97718988D01*
X121649618Y-97718988D02*
X121682952Y-97652322D01*
X121682952Y-97652322D02*
X121716285Y-97618988D01*
X121716285Y-97618988D02*
X121782952Y-97585655D01*
X121782952Y-97585655D02*
X121882952Y-97585655D01*
X121882952Y-97585655D02*
X121949618Y-97618988D01*
X121949618Y-97618988D02*
X121982952Y-97652322D01*
X121982952Y-97652322D02*
X122016285Y-97718988D01*
X122016285Y-97718988D02*
X122016285Y-97985655D01*
%TO.C,R19*%
X133551202Y-88216092D02*
X133317869Y-87882759D01*
X133151202Y-88216092D02*
X133151202Y-87516092D01*
X133151202Y-87516092D02*
X133417869Y-87516092D01*
X133417869Y-87516092D02*
X133484536Y-87549426D01*
X133484536Y-87549426D02*
X133517869Y-87582759D01*
X133517869Y-87582759D02*
X133551202Y-87649426D01*
X133551202Y-87649426D02*
X133551202Y-87749426D01*
X133551202Y-87749426D02*
X133517869Y-87816092D01*
X133517869Y-87816092D02*
X133484536Y-87849426D01*
X133484536Y-87849426D02*
X133417869Y-87882759D01*
X133417869Y-87882759D02*
X133151202Y-87882759D01*
X134217869Y-88216092D02*
X133817869Y-88216092D01*
X134017869Y-88216092D02*
X134017869Y-87516092D01*
X134017869Y-87516092D02*
X133951202Y-87616092D01*
X133951202Y-87616092D02*
X133884536Y-87682759D01*
X133884536Y-87682759D02*
X133817869Y-87716092D01*
X134551203Y-88216092D02*
X134684536Y-88216092D01*
X134684536Y-88216092D02*
X134751203Y-88182759D01*
X134751203Y-88182759D02*
X134784536Y-88149426D01*
X134784536Y-88149426D02*
X134851203Y-88049426D01*
X134851203Y-88049426D02*
X134884536Y-87916092D01*
X134884536Y-87916092D02*
X134884536Y-87649426D01*
X134884536Y-87649426D02*
X134851203Y-87582759D01*
X134851203Y-87582759D02*
X134817869Y-87549426D01*
X134817869Y-87549426D02*
X134751203Y-87516092D01*
X134751203Y-87516092D02*
X134617869Y-87516092D01*
X134617869Y-87516092D02*
X134551203Y-87549426D01*
X134551203Y-87549426D02*
X134517869Y-87582759D01*
X134517869Y-87582759D02*
X134484536Y-87649426D01*
X134484536Y-87649426D02*
X134484536Y-87816092D01*
X134484536Y-87816092D02*
X134517869Y-87882759D01*
X134517869Y-87882759D02*
X134551203Y-87916092D01*
X134551203Y-87916092D02*
X134617869Y-87949426D01*
X134617869Y-87949426D02*
X134751203Y-87949426D01*
X134751203Y-87949426D02*
X134817869Y-87916092D01*
X134817869Y-87916092D02*
X134851203Y-87882759D01*
X134851203Y-87882759D02*
X134884536Y-87816092D01*
%TO.C,R17*%
X107383166Y-80257000D02*
X107049833Y-80490333D01*
X107383166Y-80657000D02*
X106683166Y-80657000D01*
X106683166Y-80657000D02*
X106683166Y-80390333D01*
X106683166Y-80390333D02*
X106716500Y-80323667D01*
X106716500Y-80323667D02*
X106749833Y-80290333D01*
X106749833Y-80290333D02*
X106816500Y-80257000D01*
X106816500Y-80257000D02*
X106916500Y-80257000D01*
X106916500Y-80257000D02*
X106983166Y-80290333D01*
X106983166Y-80290333D02*
X107016500Y-80323667D01*
X107016500Y-80323667D02*
X107049833Y-80390333D01*
X107049833Y-80390333D02*
X107049833Y-80657000D01*
X107383166Y-79590333D02*
X107383166Y-79990333D01*
X107383166Y-79790333D02*
X106683166Y-79790333D01*
X106683166Y-79790333D02*
X106783166Y-79857000D01*
X106783166Y-79857000D02*
X106849833Y-79923667D01*
X106849833Y-79923667D02*
X106883166Y-79990333D01*
X106683166Y-79357000D02*
X106683166Y-78890333D01*
X106683166Y-78890333D02*
X107383166Y-79190333D01*
%TO.C,C8*%
X116592333Y-94356500D02*
X116559000Y-94389833D01*
X116559000Y-94389833D02*
X116459000Y-94423166D01*
X116459000Y-94423166D02*
X116392333Y-94423166D01*
X116392333Y-94423166D02*
X116292333Y-94389833D01*
X116292333Y-94389833D02*
X116225667Y-94323166D01*
X116225667Y-94323166D02*
X116192333Y-94256500D01*
X116192333Y-94256500D02*
X116159000Y-94123166D01*
X116159000Y-94123166D02*
X116159000Y-94023166D01*
X116159000Y-94023166D02*
X116192333Y-93889833D01*
X116192333Y-93889833D02*
X116225667Y-93823166D01*
X116225667Y-93823166D02*
X116292333Y-93756500D01*
X116292333Y-93756500D02*
X116392333Y-93723166D01*
X116392333Y-93723166D02*
X116459000Y-93723166D01*
X116459000Y-93723166D02*
X116559000Y-93756500D01*
X116559000Y-93756500D02*
X116592333Y-93789833D01*
X116992333Y-94023166D02*
X116925667Y-93989833D01*
X116925667Y-93989833D02*
X116892333Y-93956500D01*
X116892333Y-93956500D02*
X116859000Y-93889833D01*
X116859000Y-93889833D02*
X116859000Y-93856500D01*
X116859000Y-93856500D02*
X116892333Y-93789833D01*
X116892333Y-93789833D02*
X116925667Y-93756500D01*
X116925667Y-93756500D02*
X116992333Y-93723166D01*
X116992333Y-93723166D02*
X117125667Y-93723166D01*
X117125667Y-93723166D02*
X117192333Y-93756500D01*
X117192333Y-93756500D02*
X117225667Y-93789833D01*
X117225667Y-93789833D02*
X117259000Y-93856500D01*
X117259000Y-93856500D02*
X117259000Y-93889833D01*
X117259000Y-93889833D02*
X117225667Y-93956500D01*
X117225667Y-93956500D02*
X117192333Y-93989833D01*
X117192333Y-93989833D02*
X117125667Y-94023166D01*
X117125667Y-94023166D02*
X116992333Y-94023166D01*
X116992333Y-94023166D02*
X116925667Y-94056500D01*
X116925667Y-94056500D02*
X116892333Y-94089833D01*
X116892333Y-94089833D02*
X116859000Y-94156500D01*
X116859000Y-94156500D02*
X116859000Y-94289833D01*
X116859000Y-94289833D02*
X116892333Y-94356500D01*
X116892333Y-94356500D02*
X116925667Y-94389833D01*
X116925667Y-94389833D02*
X116992333Y-94423166D01*
X116992333Y-94423166D02*
X117125667Y-94423166D01*
X117125667Y-94423166D02*
X117192333Y-94389833D01*
X117192333Y-94389833D02*
X117225667Y-94356500D01*
X117225667Y-94356500D02*
X117259000Y-94289833D01*
X117259000Y-94289833D02*
X117259000Y-94156500D01*
X117259000Y-94156500D02*
X117225667Y-94089833D01*
X117225667Y-94089833D02*
X117192333Y-94056500D01*
X117192333Y-94056500D02*
X117125667Y-94023166D01*
%TO.C,D4*%
X139464938Y-97675388D02*
X139464938Y-96975388D01*
X139464938Y-96975388D02*
X139631605Y-96975388D01*
X139631605Y-96975388D02*
X139731605Y-97008722D01*
X139731605Y-97008722D02*
X139798272Y-97075388D01*
X139798272Y-97075388D02*
X139831605Y-97142055D01*
X139831605Y-97142055D02*
X139864938Y-97275388D01*
X139864938Y-97275388D02*
X139864938Y-97375388D01*
X139864938Y-97375388D02*
X139831605Y-97508722D01*
X139831605Y-97508722D02*
X139798272Y-97575388D01*
X139798272Y-97575388D02*
X139731605Y-97642055D01*
X139731605Y-97642055D02*
X139631605Y-97675388D01*
X139631605Y-97675388D02*
X139464938Y-97675388D01*
X140464938Y-97208722D02*
X140464938Y-97675388D01*
X140298272Y-96942055D02*
X140131605Y-97442055D01*
X140131605Y-97442055D02*
X140564938Y-97442055D01*
%TO.C,D2*%
X123125401Y-78692166D02*
X123125401Y-77992166D01*
X123125401Y-77992166D02*
X123292068Y-77992166D01*
X123292068Y-77992166D02*
X123392068Y-78025500D01*
X123392068Y-78025500D02*
X123458735Y-78092166D01*
X123458735Y-78092166D02*
X123492068Y-78158833D01*
X123492068Y-78158833D02*
X123525401Y-78292166D01*
X123525401Y-78292166D02*
X123525401Y-78392166D01*
X123525401Y-78392166D02*
X123492068Y-78525500D01*
X123492068Y-78525500D02*
X123458735Y-78592166D01*
X123458735Y-78592166D02*
X123392068Y-78658833D01*
X123392068Y-78658833D02*
X123292068Y-78692166D01*
X123292068Y-78692166D02*
X123125401Y-78692166D01*
X123792068Y-78058833D02*
X123825401Y-78025500D01*
X123825401Y-78025500D02*
X123892068Y-77992166D01*
X123892068Y-77992166D02*
X124058735Y-77992166D01*
X124058735Y-77992166D02*
X124125401Y-78025500D01*
X124125401Y-78025500D02*
X124158735Y-78058833D01*
X124158735Y-78058833D02*
X124192068Y-78125500D01*
X124192068Y-78125500D02*
X124192068Y-78192166D01*
X124192068Y-78192166D02*
X124158735Y-78292166D01*
X124158735Y-78292166D02*
X123758735Y-78692166D01*
X123758735Y-78692166D02*
X124192068Y-78692166D01*
%TO.C,C11*%
X126058999Y-83962501D02*
X126025666Y-83995834D01*
X126025666Y-83995834D02*
X125925666Y-84029167D01*
X125925666Y-84029167D02*
X125858999Y-84029167D01*
X125858999Y-84029167D02*
X125758999Y-83995834D01*
X125758999Y-83995834D02*
X125692333Y-83929167D01*
X125692333Y-83929167D02*
X125658999Y-83862501D01*
X125658999Y-83862501D02*
X125625666Y-83729167D01*
X125625666Y-83729167D02*
X125625666Y-83629167D01*
X125625666Y-83629167D02*
X125658999Y-83495834D01*
X125658999Y-83495834D02*
X125692333Y-83429167D01*
X125692333Y-83429167D02*
X125758999Y-83362501D01*
X125758999Y-83362501D02*
X125858999Y-83329167D01*
X125858999Y-83329167D02*
X125925666Y-83329167D01*
X125925666Y-83329167D02*
X126025666Y-83362501D01*
X126025666Y-83362501D02*
X126058999Y-83395834D01*
X126725666Y-84029167D02*
X126325666Y-84029167D01*
X126525666Y-84029167D02*
X126525666Y-83329167D01*
X126525666Y-83329167D02*
X126458999Y-83429167D01*
X126458999Y-83429167D02*
X126392333Y-83495834D01*
X126392333Y-83495834D02*
X126325666Y-83529167D01*
X127392333Y-84029167D02*
X126992333Y-84029167D01*
X127192333Y-84029167D02*
X127192333Y-83329167D01*
X127192333Y-83329167D02*
X127125666Y-83429167D01*
X127125666Y-83429167D02*
X127059000Y-83495834D01*
X127059000Y-83495834D02*
X126992333Y-83529167D01*
%TO.C,R8*%
X126383333Y-106647166D02*
X126150000Y-106313833D01*
X125983333Y-106647166D02*
X125983333Y-105947166D01*
X125983333Y-105947166D02*
X126250000Y-105947166D01*
X126250000Y-105947166D02*
X126316667Y-105980500D01*
X126316667Y-105980500D02*
X126350000Y-106013833D01*
X126350000Y-106013833D02*
X126383333Y-106080500D01*
X126383333Y-106080500D02*
X126383333Y-106180500D01*
X126383333Y-106180500D02*
X126350000Y-106247166D01*
X126350000Y-106247166D02*
X126316667Y-106280500D01*
X126316667Y-106280500D02*
X126250000Y-106313833D01*
X126250000Y-106313833D02*
X125983333Y-106313833D01*
X126783333Y-106247166D02*
X126716667Y-106213833D01*
X126716667Y-106213833D02*
X126683333Y-106180500D01*
X126683333Y-106180500D02*
X126650000Y-106113833D01*
X126650000Y-106113833D02*
X126650000Y-106080500D01*
X126650000Y-106080500D02*
X126683333Y-106013833D01*
X126683333Y-106013833D02*
X126716667Y-105980500D01*
X126716667Y-105980500D02*
X126783333Y-105947166D01*
X126783333Y-105947166D02*
X126916667Y-105947166D01*
X126916667Y-105947166D02*
X126983333Y-105980500D01*
X126983333Y-105980500D02*
X127016667Y-106013833D01*
X127016667Y-106013833D02*
X127050000Y-106080500D01*
X127050000Y-106080500D02*
X127050000Y-106113833D01*
X127050000Y-106113833D02*
X127016667Y-106180500D01*
X127016667Y-106180500D02*
X126983333Y-106213833D01*
X126983333Y-106213833D02*
X126916667Y-106247166D01*
X126916667Y-106247166D02*
X126783333Y-106247166D01*
X126783333Y-106247166D02*
X126716667Y-106280500D01*
X126716667Y-106280500D02*
X126683333Y-106313833D01*
X126683333Y-106313833D02*
X126650000Y-106380500D01*
X126650000Y-106380500D02*
X126650000Y-106513833D01*
X126650000Y-106513833D02*
X126683333Y-106580500D01*
X126683333Y-106580500D02*
X126716667Y-106613833D01*
X126716667Y-106613833D02*
X126783333Y-106647166D01*
X126783333Y-106647166D02*
X126916667Y-106647166D01*
X126916667Y-106647166D02*
X126983333Y-106613833D01*
X126983333Y-106613833D02*
X127016667Y-106580500D01*
X127016667Y-106580500D02*
X127050000Y-106513833D01*
X127050000Y-106513833D02*
X127050000Y-106380500D01*
X127050000Y-106380500D02*
X127016667Y-106313833D01*
X127016667Y-106313833D02*
X126983333Y-106280500D01*
X126983333Y-106280500D02*
X126916667Y-106247166D01*
%TO.C,D6*%
X126420500Y-76243333D02*
X126453833Y-76276666D01*
X126453833Y-76276666D02*
X126487166Y-76376666D01*
X126487166Y-76376666D02*
X126487166Y-76443333D01*
X126487166Y-76443333D02*
X126453833Y-76543333D01*
X126453833Y-76543333D02*
X126387166Y-76610000D01*
X126387166Y-76610000D02*
X126320500Y-76643333D01*
X126320500Y-76643333D02*
X126187166Y-76676666D01*
X126187166Y-76676666D02*
X126087166Y-76676666D01*
X126087166Y-76676666D02*
X125953833Y-76643333D01*
X125953833Y-76643333D02*
X125887166Y-76610000D01*
X125887166Y-76610000D02*
X125820500Y-76543333D01*
X125820500Y-76543333D02*
X125787166Y-76443333D01*
X125787166Y-76443333D02*
X125787166Y-76376666D01*
X125787166Y-76376666D02*
X125820500Y-76276666D01*
X125820500Y-76276666D02*
X125853833Y-76243333D01*
X126487166Y-75943333D02*
X125787166Y-75943333D01*
X126120500Y-75943333D02*
X126120500Y-75543333D01*
X126487166Y-75543333D02*
X125787166Y-75543333D01*
X125853833Y-75243333D02*
X125820500Y-75210000D01*
X125820500Y-75210000D02*
X125787166Y-75143333D01*
X125787166Y-75143333D02*
X125787166Y-74976667D01*
X125787166Y-74976667D02*
X125820500Y-74910000D01*
X125820500Y-74910000D02*
X125853833Y-74876667D01*
X125853833Y-74876667D02*
X125920500Y-74843333D01*
X125920500Y-74843333D02*
X125987166Y-74843333D01*
X125987166Y-74843333D02*
X126087166Y-74876667D01*
X126087166Y-74876667D02*
X126487166Y-75276667D01*
X126487166Y-75276667D02*
X126487166Y-74843333D01*
%TO.C,R12*%
X114597166Y-73880000D02*
X114263833Y-74113333D01*
X114597166Y-74280000D02*
X113897166Y-74280000D01*
X113897166Y-74280000D02*
X113897166Y-74013333D01*
X113897166Y-74013333D02*
X113930500Y-73946667D01*
X113930500Y-73946667D02*
X113963833Y-73913333D01*
X113963833Y-73913333D02*
X114030500Y-73880000D01*
X114030500Y-73880000D02*
X114130500Y-73880000D01*
X114130500Y-73880000D02*
X114197166Y-73913333D01*
X114197166Y-73913333D02*
X114230500Y-73946667D01*
X114230500Y-73946667D02*
X114263833Y-74013333D01*
X114263833Y-74013333D02*
X114263833Y-74280000D01*
X114597166Y-73213333D02*
X114597166Y-73613333D01*
X114597166Y-73413333D02*
X113897166Y-73413333D01*
X113897166Y-73413333D02*
X113997166Y-73480000D01*
X113997166Y-73480000D02*
X114063833Y-73546667D01*
X114063833Y-73546667D02*
X114097166Y-73613333D01*
X113963833Y-72946666D02*
X113930500Y-72913333D01*
X113930500Y-72913333D02*
X113897166Y-72846666D01*
X113897166Y-72846666D02*
X113897166Y-72680000D01*
X113897166Y-72680000D02*
X113930500Y-72613333D01*
X113930500Y-72613333D02*
X113963833Y-72580000D01*
X113963833Y-72580000D02*
X114030500Y-72546666D01*
X114030500Y-72546666D02*
X114097166Y-72546666D01*
X114097166Y-72546666D02*
X114197166Y-72580000D01*
X114197166Y-72580000D02*
X114597166Y-72980000D01*
X114597166Y-72980000D02*
X114597166Y-72546666D01*
%TO.C,U6*%
X133176666Y-74104516D02*
X133176666Y-74671183D01*
X133176666Y-74671183D02*
X133210000Y-74737850D01*
X133210000Y-74737850D02*
X133243333Y-74771183D01*
X133243333Y-74771183D02*
X133310000Y-74804516D01*
X133310000Y-74804516D02*
X133443333Y-74804516D01*
X133443333Y-74804516D02*
X133510000Y-74771183D01*
X133510000Y-74771183D02*
X133543333Y-74737850D01*
X133543333Y-74737850D02*
X133576666Y-74671183D01*
X133576666Y-74671183D02*
X133576666Y-74104516D01*
X134209999Y-74104516D02*
X134076666Y-74104516D01*
X134076666Y-74104516D02*
X134009999Y-74137850D01*
X134009999Y-74137850D02*
X133976666Y-74171183D01*
X133976666Y-74171183D02*
X133909999Y-74271183D01*
X133909999Y-74271183D02*
X133876666Y-74404516D01*
X133876666Y-74404516D02*
X133876666Y-74671183D01*
X133876666Y-74671183D02*
X133909999Y-74737850D01*
X133909999Y-74737850D02*
X133943333Y-74771183D01*
X133943333Y-74771183D02*
X134009999Y-74804516D01*
X134009999Y-74804516D02*
X134143333Y-74804516D01*
X134143333Y-74804516D02*
X134209999Y-74771183D01*
X134209999Y-74771183D02*
X134243333Y-74737850D01*
X134243333Y-74737850D02*
X134276666Y-74671183D01*
X134276666Y-74671183D02*
X134276666Y-74504516D01*
X134276666Y-74504516D02*
X134243333Y-74437850D01*
X134243333Y-74437850D02*
X134209999Y-74404516D01*
X134209999Y-74404516D02*
X134143333Y-74371183D01*
X134143333Y-74371183D02*
X134009999Y-74371183D01*
X134009999Y-74371183D02*
X133943333Y-74404516D01*
X133943333Y-74404516D02*
X133909999Y-74437850D01*
X133909999Y-74437850D02*
X133876666Y-74504516D01*
%TO.C,C10*%
X118949999Y-93190500D02*
X118916666Y-93223833D01*
X118916666Y-93223833D02*
X118816666Y-93257166D01*
X118816666Y-93257166D02*
X118749999Y-93257166D01*
X118749999Y-93257166D02*
X118649999Y-93223833D01*
X118649999Y-93223833D02*
X118583333Y-93157166D01*
X118583333Y-93157166D02*
X118549999Y-93090500D01*
X118549999Y-93090500D02*
X118516666Y-92957166D01*
X118516666Y-92957166D02*
X118516666Y-92857166D01*
X118516666Y-92857166D02*
X118549999Y-92723833D01*
X118549999Y-92723833D02*
X118583333Y-92657166D01*
X118583333Y-92657166D02*
X118649999Y-92590500D01*
X118649999Y-92590500D02*
X118749999Y-92557166D01*
X118749999Y-92557166D02*
X118816666Y-92557166D01*
X118816666Y-92557166D02*
X118916666Y-92590500D01*
X118916666Y-92590500D02*
X118949999Y-92623833D01*
X119616666Y-93257166D02*
X119216666Y-93257166D01*
X119416666Y-93257166D02*
X119416666Y-92557166D01*
X119416666Y-92557166D02*
X119349999Y-92657166D01*
X119349999Y-92657166D02*
X119283333Y-92723833D01*
X119283333Y-92723833D02*
X119216666Y-92757166D01*
X120050000Y-92557166D02*
X120116666Y-92557166D01*
X120116666Y-92557166D02*
X120183333Y-92590500D01*
X120183333Y-92590500D02*
X120216666Y-92623833D01*
X120216666Y-92623833D02*
X120250000Y-92690500D01*
X120250000Y-92690500D02*
X120283333Y-92823833D01*
X120283333Y-92823833D02*
X120283333Y-92990500D01*
X120283333Y-92990500D02*
X120250000Y-93123833D01*
X120250000Y-93123833D02*
X120216666Y-93190500D01*
X120216666Y-93190500D02*
X120183333Y-93223833D01*
X120183333Y-93223833D02*
X120116666Y-93257166D01*
X120116666Y-93257166D02*
X120050000Y-93257166D01*
X120050000Y-93257166D02*
X119983333Y-93223833D01*
X119983333Y-93223833D02*
X119950000Y-93190500D01*
X119950000Y-93190500D02*
X119916666Y-93123833D01*
X119916666Y-93123833D02*
X119883333Y-92990500D01*
X119883333Y-92990500D02*
X119883333Y-92823833D01*
X119883333Y-92823833D02*
X119916666Y-92690500D01*
X119916666Y-92690500D02*
X119950000Y-92623833D01*
X119950000Y-92623833D02*
X119983333Y-92590500D01*
X119983333Y-92590500D02*
X120050000Y-92557166D01*
%TO.C,U5*%
X110506666Y-73997166D02*
X110506666Y-74563833D01*
X110506666Y-74563833D02*
X110540000Y-74630500D01*
X110540000Y-74630500D02*
X110573333Y-74663833D01*
X110573333Y-74663833D02*
X110640000Y-74697166D01*
X110640000Y-74697166D02*
X110773333Y-74697166D01*
X110773333Y-74697166D02*
X110840000Y-74663833D01*
X110840000Y-74663833D02*
X110873333Y-74630500D01*
X110873333Y-74630500D02*
X110906666Y-74563833D01*
X110906666Y-74563833D02*
X110906666Y-73997166D01*
X111573333Y-73997166D02*
X111239999Y-73997166D01*
X111239999Y-73997166D02*
X111206666Y-74330500D01*
X111206666Y-74330500D02*
X111239999Y-74297166D01*
X111239999Y-74297166D02*
X111306666Y-74263833D01*
X111306666Y-74263833D02*
X111473333Y-74263833D01*
X111473333Y-74263833D02*
X111539999Y-74297166D01*
X111539999Y-74297166D02*
X111573333Y-74330500D01*
X111573333Y-74330500D02*
X111606666Y-74397166D01*
X111606666Y-74397166D02*
X111606666Y-74563833D01*
X111606666Y-74563833D02*
X111573333Y-74630500D01*
X111573333Y-74630500D02*
X111539999Y-74663833D01*
X111539999Y-74663833D02*
X111473333Y-74697166D01*
X111473333Y-74697166D02*
X111306666Y-74697166D01*
X111306666Y-74697166D02*
X111239999Y-74663833D01*
X111239999Y-74663833D02*
X111206666Y-74630500D01*
%TO.C,16VLED1*%
X121166666Y-107157166D02*
X121166666Y-106457166D01*
X121166666Y-106457166D02*
X121433333Y-106457166D01*
X121433333Y-106457166D02*
X121500000Y-106490500D01*
X121500000Y-106490500D02*
X121533333Y-106523833D01*
X121533333Y-106523833D02*
X121566666Y-106590500D01*
X121566666Y-106590500D02*
X121566666Y-106690500D01*
X121566666Y-106690500D02*
X121533333Y-106757166D01*
X121533333Y-106757166D02*
X121500000Y-106790500D01*
X121500000Y-106790500D02*
X121433333Y-106823833D01*
X121433333Y-106823833D02*
X121166666Y-106823833D01*
X121800000Y-106457166D02*
X121966666Y-107157166D01*
X121966666Y-107157166D02*
X122100000Y-106657166D01*
X122100000Y-106657166D02*
X122233333Y-107157166D01*
X122233333Y-107157166D02*
X122400000Y-106457166D01*
X123066666Y-107157166D02*
X122833333Y-106823833D01*
X122666666Y-107157166D02*
X122666666Y-106457166D01*
X122666666Y-106457166D02*
X122933333Y-106457166D01*
X122933333Y-106457166D02*
X123000000Y-106490500D01*
X123000000Y-106490500D02*
X123033333Y-106523833D01*
X123033333Y-106523833D02*
X123066666Y-106590500D01*
X123066666Y-106590500D02*
X123066666Y-106690500D01*
X123066666Y-106690500D02*
X123033333Y-106757166D01*
X123033333Y-106757166D02*
X123000000Y-106790500D01*
X123000000Y-106790500D02*
X122933333Y-106823833D01*
X122933333Y-106823833D02*
X122666666Y-106823833D01*
X120649999Y-106107166D02*
X120649999Y-105407166D01*
X120649999Y-105407166D02*
X120816666Y-105407166D01*
X120816666Y-105407166D02*
X120916666Y-105440500D01*
X120916666Y-105440500D02*
X120983333Y-105507166D01*
X120983333Y-105507166D02*
X121016666Y-105573833D01*
X121016666Y-105573833D02*
X121049999Y-105707166D01*
X121049999Y-105707166D02*
X121049999Y-105807166D01*
X121049999Y-105807166D02*
X121016666Y-105940500D01*
X121016666Y-105940500D02*
X120983333Y-106007166D01*
X120983333Y-106007166D02*
X120916666Y-106073833D01*
X120916666Y-106073833D02*
X120816666Y-106107166D01*
X120816666Y-106107166D02*
X120649999Y-106107166D01*
X121349999Y-105740500D02*
X121583333Y-105740500D01*
X121683333Y-106107166D02*
X121349999Y-106107166D01*
X121349999Y-106107166D02*
X121349999Y-105407166D01*
X121349999Y-105407166D02*
X121683333Y-105407166D01*
X121983332Y-106107166D02*
X121983332Y-105407166D01*
X121983332Y-105407166D02*
X122249999Y-105407166D01*
X122249999Y-105407166D02*
X122316666Y-105440500D01*
X122316666Y-105440500D02*
X122349999Y-105473833D01*
X122349999Y-105473833D02*
X122383332Y-105540500D01*
X122383332Y-105540500D02*
X122383332Y-105640500D01*
X122383332Y-105640500D02*
X122349999Y-105707166D01*
X122349999Y-105707166D02*
X122316666Y-105740500D01*
X122316666Y-105740500D02*
X122249999Y-105773833D01*
X122249999Y-105773833D02*
X121983332Y-105773833D01*
X123016666Y-106107166D02*
X122683332Y-106107166D01*
X122683332Y-106107166D02*
X122683332Y-105407166D01*
X123383333Y-105407166D02*
X123516666Y-105407166D01*
X123516666Y-105407166D02*
X123583333Y-105440500D01*
X123583333Y-105440500D02*
X123649999Y-105507166D01*
X123649999Y-105507166D02*
X123683333Y-105640500D01*
X123683333Y-105640500D02*
X123683333Y-105873833D01*
X123683333Y-105873833D02*
X123649999Y-106007166D01*
X123649999Y-106007166D02*
X123583333Y-106073833D01*
X123583333Y-106073833D02*
X123516666Y-106107166D01*
X123516666Y-106107166D02*
X123383333Y-106107166D01*
X123383333Y-106107166D02*
X123316666Y-106073833D01*
X123316666Y-106073833D02*
X123249999Y-106007166D01*
X123249999Y-106007166D02*
X123216666Y-105873833D01*
X123216666Y-105873833D02*
X123216666Y-105640500D01*
X123216666Y-105640500D02*
X123249999Y-105507166D01*
X123249999Y-105507166D02*
X123316666Y-105440500D01*
X123316666Y-105440500D02*
X123383333Y-105407166D01*
X124116666Y-105773833D02*
X124116666Y-106107166D01*
X123883332Y-105407166D02*
X124116666Y-105773833D01*
X124116666Y-105773833D02*
X124349999Y-105407166D01*
%TO.C,D1*%
X117203333Y-95817166D02*
X117203333Y-95117166D01*
X117203333Y-95117166D02*
X117370000Y-95117166D01*
X117370000Y-95117166D02*
X117470000Y-95150500D01*
X117470000Y-95150500D02*
X117536667Y-95217166D01*
X117536667Y-95217166D02*
X117570000Y-95283833D01*
X117570000Y-95283833D02*
X117603333Y-95417166D01*
X117603333Y-95417166D02*
X117603333Y-95517166D01*
X117603333Y-95517166D02*
X117570000Y-95650500D01*
X117570000Y-95650500D02*
X117536667Y-95717166D01*
X117536667Y-95717166D02*
X117470000Y-95783833D01*
X117470000Y-95783833D02*
X117370000Y-95817166D01*
X117370000Y-95817166D02*
X117203333Y-95817166D01*
X118270000Y-95817166D02*
X117870000Y-95817166D01*
X118070000Y-95817166D02*
X118070000Y-95117166D01*
X118070000Y-95117166D02*
X118003333Y-95217166D01*
X118003333Y-95217166D02*
X117936667Y-95283833D01*
X117936667Y-95283833D02*
X117870000Y-95317166D01*
%TO.C,C13*%
X123289999Y-79950500D02*
X123256666Y-79983833D01*
X123256666Y-79983833D02*
X123156666Y-80017166D01*
X123156666Y-80017166D02*
X123089999Y-80017166D01*
X123089999Y-80017166D02*
X122989999Y-79983833D01*
X122989999Y-79983833D02*
X122923333Y-79917166D01*
X122923333Y-79917166D02*
X122889999Y-79850500D01*
X122889999Y-79850500D02*
X122856666Y-79717166D01*
X122856666Y-79717166D02*
X122856666Y-79617166D01*
X122856666Y-79617166D02*
X122889999Y-79483833D01*
X122889999Y-79483833D02*
X122923333Y-79417166D01*
X122923333Y-79417166D02*
X122989999Y-79350500D01*
X122989999Y-79350500D02*
X123089999Y-79317166D01*
X123089999Y-79317166D02*
X123156666Y-79317166D01*
X123156666Y-79317166D02*
X123256666Y-79350500D01*
X123256666Y-79350500D02*
X123289999Y-79383833D01*
X123956666Y-80017166D02*
X123556666Y-80017166D01*
X123756666Y-80017166D02*
X123756666Y-79317166D01*
X123756666Y-79317166D02*
X123689999Y-79417166D01*
X123689999Y-79417166D02*
X123623333Y-79483833D01*
X123623333Y-79483833D02*
X123556666Y-79517166D01*
X124190000Y-79317166D02*
X124623333Y-79317166D01*
X124623333Y-79317166D02*
X124390000Y-79583833D01*
X124390000Y-79583833D02*
X124490000Y-79583833D01*
X124490000Y-79583833D02*
X124556666Y-79617166D01*
X124556666Y-79617166D02*
X124590000Y-79650500D01*
X124590000Y-79650500D02*
X124623333Y-79717166D01*
X124623333Y-79717166D02*
X124623333Y-79883833D01*
X124623333Y-79883833D02*
X124590000Y-79950500D01*
X124590000Y-79950500D02*
X124556666Y-79983833D01*
X124556666Y-79983833D02*
X124490000Y-80017166D01*
X124490000Y-80017166D02*
X124290000Y-80017166D01*
X124290000Y-80017166D02*
X124223333Y-79983833D01*
X124223333Y-79983833D02*
X124190000Y-79950500D01*
%TO.C,C6*%
X116595500Y-88732333D02*
X116562166Y-88699000D01*
X116562166Y-88699000D02*
X116528833Y-88599000D01*
X116528833Y-88599000D02*
X116528833Y-88532333D01*
X116528833Y-88532333D02*
X116562166Y-88432333D01*
X116562166Y-88432333D02*
X116628833Y-88365667D01*
X116628833Y-88365667D02*
X116695500Y-88332333D01*
X116695500Y-88332333D02*
X116828833Y-88299000D01*
X116828833Y-88299000D02*
X116928833Y-88299000D01*
X116928833Y-88299000D02*
X117062166Y-88332333D01*
X117062166Y-88332333D02*
X117128833Y-88365667D01*
X117128833Y-88365667D02*
X117195500Y-88432333D01*
X117195500Y-88432333D02*
X117228833Y-88532333D01*
X117228833Y-88532333D02*
X117228833Y-88599000D01*
X117228833Y-88599000D02*
X117195500Y-88699000D01*
X117195500Y-88699000D02*
X117162166Y-88732333D01*
X117228833Y-89332333D02*
X117228833Y-89199000D01*
X117228833Y-89199000D02*
X117195500Y-89132333D01*
X117195500Y-89132333D02*
X117162166Y-89099000D01*
X117162166Y-89099000D02*
X117062166Y-89032333D01*
X117062166Y-89032333D02*
X116928833Y-88999000D01*
X116928833Y-88999000D02*
X116662166Y-88999000D01*
X116662166Y-88999000D02*
X116595500Y-89032333D01*
X116595500Y-89032333D02*
X116562166Y-89065667D01*
X116562166Y-89065667D02*
X116528833Y-89132333D01*
X116528833Y-89132333D02*
X116528833Y-89265667D01*
X116528833Y-89265667D02*
X116562166Y-89332333D01*
X116562166Y-89332333D02*
X116595500Y-89365667D01*
X116595500Y-89365667D02*
X116662166Y-89399000D01*
X116662166Y-89399000D02*
X116828833Y-89399000D01*
X116828833Y-89399000D02*
X116895500Y-89365667D01*
X116895500Y-89365667D02*
X116928833Y-89332333D01*
X116928833Y-89332333D02*
X116962166Y-89265667D01*
X116962166Y-89265667D02*
X116962166Y-89132333D01*
X116962166Y-89132333D02*
X116928833Y-89065667D01*
X116928833Y-89065667D02*
X116895500Y-89032333D01*
X116895500Y-89032333D02*
X116828833Y-88999000D01*
%TO.C,C14*%
X117439999Y-81835500D02*
X117406666Y-81868833D01*
X117406666Y-81868833D02*
X117306666Y-81902166D01*
X117306666Y-81902166D02*
X117239999Y-81902166D01*
X117239999Y-81902166D02*
X117139999Y-81868833D01*
X117139999Y-81868833D02*
X117073333Y-81802166D01*
X117073333Y-81802166D02*
X117039999Y-81735500D01*
X117039999Y-81735500D02*
X117006666Y-81602166D01*
X117006666Y-81602166D02*
X117006666Y-81502166D01*
X117006666Y-81502166D02*
X117039999Y-81368833D01*
X117039999Y-81368833D02*
X117073333Y-81302166D01*
X117073333Y-81302166D02*
X117139999Y-81235500D01*
X117139999Y-81235500D02*
X117239999Y-81202166D01*
X117239999Y-81202166D02*
X117306666Y-81202166D01*
X117306666Y-81202166D02*
X117406666Y-81235500D01*
X117406666Y-81235500D02*
X117439999Y-81268833D01*
X118106666Y-81902166D02*
X117706666Y-81902166D01*
X117906666Y-81902166D02*
X117906666Y-81202166D01*
X117906666Y-81202166D02*
X117839999Y-81302166D01*
X117839999Y-81302166D02*
X117773333Y-81368833D01*
X117773333Y-81368833D02*
X117706666Y-81402166D01*
X118706666Y-81435500D02*
X118706666Y-81902166D01*
X118540000Y-81168833D02*
X118373333Y-81668833D01*
X118373333Y-81668833D02*
X118806666Y-81668833D01*
%TO.C,U2*%
X122806666Y-95577166D02*
X122806666Y-96143833D01*
X122806666Y-96143833D02*
X122840000Y-96210500D01*
X122840000Y-96210500D02*
X122873333Y-96243833D01*
X122873333Y-96243833D02*
X122940000Y-96277166D01*
X122940000Y-96277166D02*
X123073333Y-96277166D01*
X123073333Y-96277166D02*
X123140000Y-96243833D01*
X123140000Y-96243833D02*
X123173333Y-96210500D01*
X123173333Y-96210500D02*
X123206666Y-96143833D01*
X123206666Y-96143833D02*
X123206666Y-95577166D01*
X123506666Y-95643833D02*
X123539999Y-95610500D01*
X123539999Y-95610500D02*
X123606666Y-95577166D01*
X123606666Y-95577166D02*
X123773333Y-95577166D01*
X123773333Y-95577166D02*
X123839999Y-95610500D01*
X123839999Y-95610500D02*
X123873333Y-95643833D01*
X123873333Y-95643833D02*
X123906666Y-95710500D01*
X123906666Y-95710500D02*
X123906666Y-95777166D01*
X123906666Y-95777166D02*
X123873333Y-95877166D01*
X123873333Y-95877166D02*
X123473333Y-96277166D01*
X123473333Y-96277166D02*
X123906666Y-96277166D01*
D11*
X124609142Y-100373142D02*
X124561523Y-100420761D01*
X124561523Y-100420761D02*
X124418666Y-100468380D01*
X124418666Y-100468380D02*
X124323428Y-100468380D01*
X124323428Y-100468380D02*
X124180571Y-100420761D01*
X124180571Y-100420761D02*
X124085333Y-100325523D01*
X124085333Y-100325523D02*
X124037714Y-100230285D01*
X124037714Y-100230285D02*
X123990095Y-100039809D01*
X123990095Y-100039809D02*
X123990095Y-99896952D01*
X123990095Y-99896952D02*
X124037714Y-99706476D01*
X124037714Y-99706476D02*
X124085333Y-99611238D01*
X124085333Y-99611238D02*
X124180571Y-99516000D01*
X124180571Y-99516000D02*
X124323428Y-99468380D01*
X124323428Y-99468380D02*
X124418666Y-99468380D01*
X124418666Y-99468380D02*
X124561523Y-99516000D01*
X124561523Y-99516000D02*
X124609142Y-99563619D01*
X124990095Y-100182666D02*
X125466285Y-100182666D01*
X124894857Y-100468380D02*
X125228190Y-99468380D01*
X125228190Y-99468380D02*
X125561523Y-100468380D01*
X125894857Y-100468380D02*
X125894857Y-99468380D01*
X125894857Y-99468380D02*
X126466285Y-100468380D01*
X126466285Y-100468380D02*
X126466285Y-99468380D01*
D10*
%TO.C,R22*%
X141502939Y-76912580D02*
X141169606Y-77145913D01*
X141502939Y-77312580D02*
X140802939Y-77312580D01*
X140802939Y-77312580D02*
X140802939Y-77045913D01*
X140802939Y-77045913D02*
X140836273Y-76979247D01*
X140836273Y-76979247D02*
X140869606Y-76945913D01*
X140869606Y-76945913D02*
X140936273Y-76912580D01*
X140936273Y-76912580D02*
X141036273Y-76912580D01*
X141036273Y-76912580D02*
X141102939Y-76945913D01*
X141102939Y-76945913D02*
X141136273Y-76979247D01*
X141136273Y-76979247D02*
X141169606Y-77045913D01*
X141169606Y-77045913D02*
X141169606Y-77312580D01*
X140869606Y-76645913D02*
X140836273Y-76612580D01*
X140836273Y-76612580D02*
X140802939Y-76545913D01*
X140802939Y-76545913D02*
X140802939Y-76379247D01*
X140802939Y-76379247D02*
X140836273Y-76312580D01*
X140836273Y-76312580D02*
X140869606Y-76279247D01*
X140869606Y-76279247D02*
X140936273Y-76245913D01*
X140936273Y-76245913D02*
X141002939Y-76245913D01*
X141002939Y-76245913D02*
X141102939Y-76279247D01*
X141102939Y-76279247D02*
X141502939Y-76679247D01*
X141502939Y-76679247D02*
X141502939Y-76245913D01*
X140869606Y-75979246D02*
X140836273Y-75945913D01*
X140836273Y-75945913D02*
X140802939Y-75879246D01*
X140802939Y-75879246D02*
X140802939Y-75712580D01*
X140802939Y-75712580D02*
X140836273Y-75645913D01*
X140836273Y-75645913D02*
X140869606Y-75612580D01*
X140869606Y-75612580D02*
X140936273Y-75579246D01*
X140936273Y-75579246D02*
X141002939Y-75579246D01*
X141002939Y-75579246D02*
X141102939Y-75612580D01*
X141102939Y-75612580D02*
X141502939Y-76012580D01*
X141502939Y-76012580D02*
X141502939Y-75579246D01*
%TO.C,U3*%
X106686666Y-81087166D02*
X106686666Y-81653833D01*
X106686666Y-81653833D02*
X106720000Y-81720500D01*
X106720000Y-81720500D02*
X106753333Y-81753833D01*
X106753333Y-81753833D02*
X106820000Y-81787166D01*
X106820000Y-81787166D02*
X106953333Y-81787166D01*
X106953333Y-81787166D02*
X107020000Y-81753833D01*
X107020000Y-81753833D02*
X107053333Y-81720500D01*
X107053333Y-81720500D02*
X107086666Y-81653833D01*
X107086666Y-81653833D02*
X107086666Y-81087166D01*
X107353333Y-81087166D02*
X107786666Y-81087166D01*
X107786666Y-81087166D02*
X107553333Y-81353833D01*
X107553333Y-81353833D02*
X107653333Y-81353833D01*
X107653333Y-81353833D02*
X107719999Y-81387166D01*
X107719999Y-81387166D02*
X107753333Y-81420500D01*
X107753333Y-81420500D02*
X107786666Y-81487166D01*
X107786666Y-81487166D02*
X107786666Y-81653833D01*
X107786666Y-81653833D02*
X107753333Y-81720500D01*
X107753333Y-81720500D02*
X107719999Y-81753833D01*
X107719999Y-81753833D02*
X107653333Y-81787166D01*
X107653333Y-81787166D02*
X107453333Y-81787166D01*
X107453333Y-81787166D02*
X107386666Y-81753833D01*
X107386666Y-81753833D02*
X107353333Y-81720500D01*
%TO.C,C26*%
X108233500Y-74384000D02*
X108266833Y-74417333D01*
X108266833Y-74417333D02*
X108300166Y-74517333D01*
X108300166Y-74517333D02*
X108300166Y-74584000D01*
X108300166Y-74584000D02*
X108266833Y-74684000D01*
X108266833Y-74684000D02*
X108200166Y-74750667D01*
X108200166Y-74750667D02*
X108133500Y-74784000D01*
X108133500Y-74784000D02*
X108000166Y-74817333D01*
X108000166Y-74817333D02*
X107900166Y-74817333D01*
X107900166Y-74817333D02*
X107766833Y-74784000D01*
X107766833Y-74784000D02*
X107700166Y-74750667D01*
X107700166Y-74750667D02*
X107633500Y-74684000D01*
X107633500Y-74684000D02*
X107600166Y-74584000D01*
X107600166Y-74584000D02*
X107600166Y-74517333D01*
X107600166Y-74517333D02*
X107633500Y-74417333D01*
X107633500Y-74417333D02*
X107666833Y-74384000D01*
X107666833Y-74117333D02*
X107633500Y-74084000D01*
X107633500Y-74084000D02*
X107600166Y-74017333D01*
X107600166Y-74017333D02*
X107600166Y-73850667D01*
X107600166Y-73850667D02*
X107633500Y-73784000D01*
X107633500Y-73784000D02*
X107666833Y-73750667D01*
X107666833Y-73750667D02*
X107733500Y-73717333D01*
X107733500Y-73717333D02*
X107800166Y-73717333D01*
X107800166Y-73717333D02*
X107900166Y-73750667D01*
X107900166Y-73750667D02*
X108300166Y-74150667D01*
X108300166Y-74150667D02*
X108300166Y-73717333D01*
X107600166Y-73117333D02*
X107600166Y-73250666D01*
X107600166Y-73250666D02*
X107633500Y-73317333D01*
X107633500Y-73317333D02*
X107666833Y-73350666D01*
X107666833Y-73350666D02*
X107766833Y-73417333D01*
X107766833Y-73417333D02*
X107900166Y-73450666D01*
X107900166Y-73450666D02*
X108166833Y-73450666D01*
X108166833Y-73450666D02*
X108233500Y-73417333D01*
X108233500Y-73417333D02*
X108266833Y-73384000D01*
X108266833Y-73384000D02*
X108300166Y-73317333D01*
X108300166Y-73317333D02*
X108300166Y-73184000D01*
X108300166Y-73184000D02*
X108266833Y-73117333D01*
X108266833Y-73117333D02*
X108233500Y-73084000D01*
X108233500Y-73084000D02*
X108166833Y-73050666D01*
X108166833Y-73050666D02*
X108000166Y-73050666D01*
X108000166Y-73050666D02*
X107933500Y-73084000D01*
X107933500Y-73084000D02*
X107900166Y-73117333D01*
X107900166Y-73117333D02*
X107866833Y-73184000D01*
X107866833Y-73184000D02*
X107866833Y-73317333D01*
X107866833Y-73317333D02*
X107900166Y-73384000D01*
X107900166Y-73384000D02*
X107933500Y-73417333D01*
X107933500Y-73417333D02*
X108000166Y-73450666D01*
%TO.C,Q1*%
X136583335Y-81356419D02*
X136516668Y-81323086D01*
X136516668Y-81323086D02*
X136450002Y-81256419D01*
X136450002Y-81256419D02*
X136350002Y-81156419D01*
X136350002Y-81156419D02*
X136283335Y-81123086D01*
X136283335Y-81123086D02*
X136216668Y-81123086D01*
X136250002Y-81289752D02*
X136183335Y-81256419D01*
X136183335Y-81256419D02*
X136116668Y-81189752D01*
X136116668Y-81189752D02*
X136083335Y-81056419D01*
X136083335Y-81056419D02*
X136083335Y-80823086D01*
X136083335Y-80823086D02*
X136116668Y-80689752D01*
X136116668Y-80689752D02*
X136183335Y-80623086D01*
X136183335Y-80623086D02*
X136250002Y-80589752D01*
X136250002Y-80589752D02*
X136383335Y-80589752D01*
X136383335Y-80589752D02*
X136450002Y-80623086D01*
X136450002Y-80623086D02*
X136516668Y-80689752D01*
X136516668Y-80689752D02*
X136550002Y-80823086D01*
X136550002Y-80823086D02*
X136550002Y-81056419D01*
X136550002Y-81056419D02*
X136516668Y-81189752D01*
X136516668Y-81189752D02*
X136450002Y-81256419D01*
X136450002Y-81256419D02*
X136383335Y-81289752D01*
X136383335Y-81289752D02*
X136250002Y-81289752D01*
X137216668Y-81289752D02*
X136816668Y-81289752D01*
X137016668Y-81289752D02*
X137016668Y-80589752D01*
X137016668Y-80589752D02*
X136950001Y-80689752D01*
X136950001Y-80689752D02*
X136883335Y-80756419D01*
X136883335Y-80756419D02*
X136816668Y-80789752D01*
X128797166Y-82723333D02*
X128097166Y-82723333D01*
X128097166Y-82723333D02*
X128097166Y-82456666D01*
X128097166Y-82456666D02*
X128130500Y-82390000D01*
X128130500Y-82390000D02*
X128163833Y-82356666D01*
X128163833Y-82356666D02*
X128230500Y-82323333D01*
X128230500Y-82323333D02*
X128330500Y-82323333D01*
X128330500Y-82323333D02*
X128397166Y-82356666D01*
X128397166Y-82356666D02*
X128430500Y-82390000D01*
X128430500Y-82390000D02*
X128463833Y-82456666D01*
X128463833Y-82456666D02*
X128463833Y-82723333D01*
X128463833Y-81890000D02*
X128797166Y-81890000D01*
X128097166Y-82123333D02*
X128463833Y-81890000D01*
X128463833Y-81890000D02*
X128097166Y-81656666D01*
X128797166Y-81023333D02*
X128463833Y-81256666D01*
X128797166Y-81423333D02*
X128097166Y-81423333D01*
X128097166Y-81423333D02*
X128097166Y-81156666D01*
X128097166Y-81156666D02*
X128130500Y-81090000D01*
X128130500Y-81090000D02*
X128163833Y-81056666D01*
X128163833Y-81056666D02*
X128230500Y-81023333D01*
X128230500Y-81023333D02*
X128330500Y-81023333D01*
X128330500Y-81023333D02*
X128397166Y-81056666D01*
X128397166Y-81056666D02*
X128430500Y-81090000D01*
X128430500Y-81090000D02*
X128463833Y-81156666D01*
X128463833Y-81156666D02*
X128463833Y-81423333D01*
X128097166Y-80590000D02*
X128097166Y-80456666D01*
X128097166Y-80456666D02*
X128130500Y-80390000D01*
X128130500Y-80390000D02*
X128197166Y-80323333D01*
X128197166Y-80323333D02*
X128330500Y-80290000D01*
X128330500Y-80290000D02*
X128563833Y-80290000D01*
X128563833Y-80290000D02*
X128697166Y-80323333D01*
X128697166Y-80323333D02*
X128763833Y-80390000D01*
X128763833Y-80390000D02*
X128797166Y-80456666D01*
X128797166Y-80456666D02*
X128797166Y-80590000D01*
X128797166Y-80590000D02*
X128763833Y-80656666D01*
X128763833Y-80656666D02*
X128697166Y-80723333D01*
X128697166Y-80723333D02*
X128563833Y-80756666D01*
X128563833Y-80756666D02*
X128330500Y-80756666D01*
X128330500Y-80756666D02*
X128197166Y-80723333D01*
X128197166Y-80723333D02*
X128130500Y-80656666D01*
X128130500Y-80656666D02*
X128097166Y-80590000D01*
X128797166Y-79623333D02*
X128797166Y-80023333D01*
X128797166Y-79823333D02*
X128097166Y-79823333D01*
X128097166Y-79823333D02*
X128197166Y-79890000D01*
X128197166Y-79890000D02*
X128263833Y-79956667D01*
X128263833Y-79956667D02*
X128297166Y-80023333D01*
%TO.C,C28*%
X122289999Y-110795500D02*
X122256666Y-110828833D01*
X122256666Y-110828833D02*
X122156666Y-110862166D01*
X122156666Y-110862166D02*
X122089999Y-110862166D01*
X122089999Y-110862166D02*
X121989999Y-110828833D01*
X121989999Y-110828833D02*
X121923333Y-110762166D01*
X121923333Y-110762166D02*
X121889999Y-110695500D01*
X121889999Y-110695500D02*
X121856666Y-110562166D01*
X121856666Y-110562166D02*
X121856666Y-110462166D01*
X121856666Y-110462166D02*
X121889999Y-110328833D01*
X121889999Y-110328833D02*
X121923333Y-110262166D01*
X121923333Y-110262166D02*
X121989999Y-110195500D01*
X121989999Y-110195500D02*
X122089999Y-110162166D01*
X122089999Y-110162166D02*
X122156666Y-110162166D01*
X122156666Y-110162166D02*
X122256666Y-110195500D01*
X122256666Y-110195500D02*
X122289999Y-110228833D01*
X122556666Y-110228833D02*
X122589999Y-110195500D01*
X122589999Y-110195500D02*
X122656666Y-110162166D01*
X122656666Y-110162166D02*
X122823333Y-110162166D01*
X122823333Y-110162166D02*
X122889999Y-110195500D01*
X122889999Y-110195500D02*
X122923333Y-110228833D01*
X122923333Y-110228833D02*
X122956666Y-110295500D01*
X122956666Y-110295500D02*
X122956666Y-110362166D01*
X122956666Y-110362166D02*
X122923333Y-110462166D01*
X122923333Y-110462166D02*
X122523333Y-110862166D01*
X122523333Y-110862166D02*
X122956666Y-110862166D01*
X123356666Y-110462166D02*
X123290000Y-110428833D01*
X123290000Y-110428833D02*
X123256666Y-110395500D01*
X123256666Y-110395500D02*
X123223333Y-110328833D01*
X123223333Y-110328833D02*
X123223333Y-110295500D01*
X123223333Y-110295500D02*
X123256666Y-110228833D01*
X123256666Y-110228833D02*
X123290000Y-110195500D01*
X123290000Y-110195500D02*
X123356666Y-110162166D01*
X123356666Y-110162166D02*
X123490000Y-110162166D01*
X123490000Y-110162166D02*
X123556666Y-110195500D01*
X123556666Y-110195500D02*
X123590000Y-110228833D01*
X123590000Y-110228833D02*
X123623333Y-110295500D01*
X123623333Y-110295500D02*
X123623333Y-110328833D01*
X123623333Y-110328833D02*
X123590000Y-110395500D01*
X123590000Y-110395500D02*
X123556666Y-110428833D01*
X123556666Y-110428833D02*
X123490000Y-110462166D01*
X123490000Y-110462166D02*
X123356666Y-110462166D01*
X123356666Y-110462166D02*
X123290000Y-110495500D01*
X123290000Y-110495500D02*
X123256666Y-110528833D01*
X123256666Y-110528833D02*
X123223333Y-110595500D01*
X123223333Y-110595500D02*
X123223333Y-110728833D01*
X123223333Y-110728833D02*
X123256666Y-110795500D01*
X123256666Y-110795500D02*
X123290000Y-110828833D01*
X123290000Y-110828833D02*
X123356666Y-110862166D01*
X123356666Y-110862166D02*
X123490000Y-110862166D01*
X123490000Y-110862166D02*
X123556666Y-110828833D01*
X123556666Y-110828833D02*
X123590000Y-110795500D01*
X123590000Y-110795500D02*
X123623333Y-110728833D01*
X123623333Y-110728833D02*
X123623333Y-110595500D01*
X123623333Y-110595500D02*
X123590000Y-110528833D01*
X123590000Y-110528833D02*
X123556666Y-110495500D01*
X123556666Y-110495500D02*
X123490000Y-110462166D01*
%TO.C,USBLED1*%
X112867166Y-71633333D02*
X113433833Y-71633333D01*
X113433833Y-71633333D02*
X113500500Y-71600000D01*
X113500500Y-71600000D02*
X113533833Y-71566666D01*
X113533833Y-71566666D02*
X113567166Y-71500000D01*
X113567166Y-71500000D02*
X113567166Y-71366666D01*
X113567166Y-71366666D02*
X113533833Y-71300000D01*
X113533833Y-71300000D02*
X113500500Y-71266666D01*
X113500500Y-71266666D02*
X113433833Y-71233333D01*
X113433833Y-71233333D02*
X112867166Y-71233333D01*
X113533833Y-70933333D02*
X113567166Y-70833333D01*
X113567166Y-70833333D02*
X113567166Y-70666667D01*
X113567166Y-70666667D02*
X113533833Y-70600000D01*
X113533833Y-70600000D02*
X113500500Y-70566667D01*
X113500500Y-70566667D02*
X113433833Y-70533333D01*
X113433833Y-70533333D02*
X113367166Y-70533333D01*
X113367166Y-70533333D02*
X113300500Y-70566667D01*
X113300500Y-70566667D02*
X113267166Y-70600000D01*
X113267166Y-70600000D02*
X113233833Y-70666667D01*
X113233833Y-70666667D02*
X113200500Y-70800000D01*
X113200500Y-70800000D02*
X113167166Y-70866667D01*
X113167166Y-70866667D02*
X113133833Y-70900000D01*
X113133833Y-70900000D02*
X113067166Y-70933333D01*
X113067166Y-70933333D02*
X113000500Y-70933333D01*
X113000500Y-70933333D02*
X112933833Y-70900000D01*
X112933833Y-70900000D02*
X112900500Y-70866667D01*
X112900500Y-70866667D02*
X112867166Y-70800000D01*
X112867166Y-70800000D02*
X112867166Y-70633333D01*
X112867166Y-70633333D02*
X112900500Y-70533333D01*
X113200500Y-70000000D02*
X113233833Y-69900000D01*
X113233833Y-69900000D02*
X113267166Y-69866666D01*
X113267166Y-69866666D02*
X113333833Y-69833333D01*
X113333833Y-69833333D02*
X113433833Y-69833333D01*
X113433833Y-69833333D02*
X113500500Y-69866666D01*
X113500500Y-69866666D02*
X113533833Y-69900000D01*
X113533833Y-69900000D02*
X113567166Y-69966666D01*
X113567166Y-69966666D02*
X113567166Y-70233333D01*
X113567166Y-70233333D02*
X112867166Y-70233333D01*
X112867166Y-70233333D02*
X112867166Y-70000000D01*
X112867166Y-70000000D02*
X112900500Y-69933333D01*
X112900500Y-69933333D02*
X112933833Y-69900000D01*
X112933833Y-69900000D02*
X113000500Y-69866666D01*
X113000500Y-69866666D02*
X113067166Y-69866666D01*
X113067166Y-69866666D02*
X113133833Y-69900000D01*
X113133833Y-69900000D02*
X113167166Y-69933333D01*
X113167166Y-69933333D02*
X113200500Y-70000000D01*
X113200500Y-70000000D02*
X113200500Y-70233333D01*
X113567166Y-69533333D02*
X112867166Y-69533333D01*
X112867166Y-69533333D02*
X112867166Y-69266666D01*
X112867166Y-69266666D02*
X112900500Y-69200000D01*
X112900500Y-69200000D02*
X112933833Y-69166666D01*
X112933833Y-69166666D02*
X113000500Y-69133333D01*
X113000500Y-69133333D02*
X113100500Y-69133333D01*
X113100500Y-69133333D02*
X113167166Y-69166666D01*
X113167166Y-69166666D02*
X113200500Y-69200000D01*
X113200500Y-69200000D02*
X113233833Y-69266666D01*
X113233833Y-69266666D02*
X113233833Y-69533333D01*
X112867166Y-68900000D02*
X113567166Y-68733333D01*
X113567166Y-68733333D02*
X113067166Y-68600000D01*
X113067166Y-68600000D02*
X113567166Y-68466666D01*
X113567166Y-68466666D02*
X112867166Y-68300000D01*
X113567166Y-67633333D02*
X113233833Y-67866666D01*
X113567166Y-68033333D02*
X112867166Y-68033333D01*
X112867166Y-68033333D02*
X112867166Y-67766666D01*
X112867166Y-67766666D02*
X112900500Y-67700000D01*
X112900500Y-67700000D02*
X112933833Y-67666666D01*
X112933833Y-67666666D02*
X113000500Y-67633333D01*
X113000500Y-67633333D02*
X113100500Y-67633333D01*
X113100500Y-67633333D02*
X113167166Y-67666666D01*
X113167166Y-67666666D02*
X113200500Y-67700000D01*
X113200500Y-67700000D02*
X113233833Y-67766666D01*
X113233833Y-67766666D02*
X113233833Y-68033333D01*
%TO.C,D5*%
X126390500Y-79073333D02*
X126423833Y-79106666D01*
X126423833Y-79106666D02*
X126457166Y-79206666D01*
X126457166Y-79206666D02*
X126457166Y-79273333D01*
X126457166Y-79273333D02*
X126423833Y-79373333D01*
X126423833Y-79373333D02*
X126357166Y-79440000D01*
X126357166Y-79440000D02*
X126290500Y-79473333D01*
X126290500Y-79473333D02*
X126157166Y-79506666D01*
X126157166Y-79506666D02*
X126057166Y-79506666D01*
X126057166Y-79506666D02*
X125923833Y-79473333D01*
X125923833Y-79473333D02*
X125857166Y-79440000D01*
X125857166Y-79440000D02*
X125790500Y-79373333D01*
X125790500Y-79373333D02*
X125757166Y-79273333D01*
X125757166Y-79273333D02*
X125757166Y-79206666D01*
X125757166Y-79206666D02*
X125790500Y-79106666D01*
X125790500Y-79106666D02*
X125823833Y-79073333D01*
X126457166Y-78773333D02*
X125757166Y-78773333D01*
X126090500Y-78773333D02*
X126090500Y-78373333D01*
X126457166Y-78373333D02*
X125757166Y-78373333D01*
X126457166Y-77673333D02*
X126457166Y-78073333D01*
X126457166Y-77873333D02*
X125757166Y-77873333D01*
X125757166Y-77873333D02*
X125857166Y-77940000D01*
X125857166Y-77940000D02*
X125923833Y-78006667D01*
X125923833Y-78006667D02*
X125957166Y-78073333D01*
%TO.C,3V3LED1*%
X121112224Y-97209200D02*
X120778890Y-97209200D01*
X120778890Y-97209200D02*
X120778890Y-96509200D01*
X121345557Y-96842534D02*
X121578891Y-96842534D01*
X121678891Y-97209200D02*
X121345557Y-97209200D01*
X121345557Y-97209200D02*
X121345557Y-96509200D01*
X121345557Y-96509200D02*
X121678891Y-96509200D01*
X121978890Y-97209200D02*
X121978890Y-96509200D01*
X121978890Y-96509200D02*
X122145557Y-96509200D01*
X122145557Y-96509200D02*
X122245557Y-96542534D01*
X122245557Y-96542534D02*
X122312224Y-96609200D01*
X122312224Y-96609200D02*
X122345557Y-96675867D01*
X122345557Y-96675867D02*
X122378890Y-96809200D01*
X122378890Y-96809200D02*
X122378890Y-96909200D01*
X122378890Y-96909200D02*
X122345557Y-97042534D01*
X122345557Y-97042534D02*
X122312224Y-97109200D01*
X122312224Y-97109200D02*
X122245557Y-97175867D01*
X122245557Y-97175867D02*
X122145557Y-97209200D01*
X122145557Y-97209200D02*
X121978890Y-97209200D01*
X120725557Y-95639200D02*
X121158890Y-95639200D01*
X121158890Y-95639200D02*
X120925557Y-95905867D01*
X120925557Y-95905867D02*
X121025557Y-95905867D01*
X121025557Y-95905867D02*
X121092223Y-95939200D01*
X121092223Y-95939200D02*
X121125557Y-95972534D01*
X121125557Y-95972534D02*
X121158890Y-96039200D01*
X121158890Y-96039200D02*
X121158890Y-96205867D01*
X121158890Y-96205867D02*
X121125557Y-96272534D01*
X121125557Y-96272534D02*
X121092223Y-96305867D01*
X121092223Y-96305867D02*
X121025557Y-96339200D01*
X121025557Y-96339200D02*
X120825557Y-96339200D01*
X120825557Y-96339200D02*
X120758890Y-96305867D01*
X120758890Y-96305867D02*
X120725557Y-96272534D01*
X121358890Y-95639200D02*
X121592224Y-96339200D01*
X121592224Y-96339200D02*
X121825557Y-95639200D01*
X121992224Y-95639200D02*
X122425557Y-95639200D01*
X122425557Y-95639200D02*
X122192224Y-95905867D01*
X122192224Y-95905867D02*
X122292224Y-95905867D01*
X122292224Y-95905867D02*
X122358890Y-95939200D01*
X122358890Y-95939200D02*
X122392224Y-95972534D01*
X122392224Y-95972534D02*
X122425557Y-96039200D01*
X122425557Y-96039200D02*
X122425557Y-96205867D01*
X122425557Y-96205867D02*
X122392224Y-96272534D01*
X122392224Y-96272534D02*
X122358890Y-96305867D01*
X122358890Y-96305867D02*
X122292224Y-96339200D01*
X122292224Y-96339200D02*
X122092224Y-96339200D01*
X122092224Y-96339200D02*
X122025557Y-96305867D01*
X122025557Y-96305867D02*
X121992224Y-96272534D01*
D11*
%TO.C,J2*%
X119063143Y-69367380D02*
X119063143Y-70176904D01*
X119063143Y-70176904D02*
X119110762Y-70272142D01*
X119110762Y-70272142D02*
X119158381Y-70319761D01*
X119158381Y-70319761D02*
X119253619Y-70367380D01*
X119253619Y-70367380D02*
X119444095Y-70367380D01*
X119444095Y-70367380D02*
X119539333Y-70319761D01*
X119539333Y-70319761D02*
X119586952Y-70272142D01*
X119586952Y-70272142D02*
X119634571Y-70176904D01*
X119634571Y-70176904D02*
X119634571Y-69367380D01*
X120063143Y-70319761D02*
X120206000Y-70367380D01*
X120206000Y-70367380D02*
X120444095Y-70367380D01*
X120444095Y-70367380D02*
X120539333Y-70319761D01*
X120539333Y-70319761D02*
X120586952Y-70272142D01*
X120586952Y-70272142D02*
X120634571Y-70176904D01*
X120634571Y-70176904D02*
X120634571Y-70081666D01*
X120634571Y-70081666D02*
X120586952Y-69986428D01*
X120586952Y-69986428D02*
X120539333Y-69938809D01*
X120539333Y-69938809D02*
X120444095Y-69891190D01*
X120444095Y-69891190D02*
X120253619Y-69843571D01*
X120253619Y-69843571D02*
X120158381Y-69795952D01*
X120158381Y-69795952D02*
X120110762Y-69748333D01*
X120110762Y-69748333D02*
X120063143Y-69653095D01*
X120063143Y-69653095D02*
X120063143Y-69557857D01*
X120063143Y-69557857D02*
X120110762Y-69462619D01*
X120110762Y-69462619D02*
X120158381Y-69415000D01*
X120158381Y-69415000D02*
X120253619Y-69367380D01*
X120253619Y-69367380D02*
X120491714Y-69367380D01*
X120491714Y-69367380D02*
X120634571Y-69415000D01*
X121396476Y-69843571D02*
X121539333Y-69891190D01*
X121539333Y-69891190D02*
X121586952Y-69938809D01*
X121586952Y-69938809D02*
X121634571Y-70034047D01*
X121634571Y-70034047D02*
X121634571Y-70176904D01*
X121634571Y-70176904D02*
X121586952Y-70272142D01*
X121586952Y-70272142D02*
X121539333Y-70319761D01*
X121539333Y-70319761D02*
X121444095Y-70367380D01*
X121444095Y-70367380D02*
X121063143Y-70367380D01*
X121063143Y-70367380D02*
X121063143Y-69367380D01*
X121063143Y-69367380D02*
X121396476Y-69367380D01*
X121396476Y-69367380D02*
X121491714Y-69415000D01*
X121491714Y-69415000D02*
X121539333Y-69462619D01*
X121539333Y-69462619D02*
X121586952Y-69557857D01*
X121586952Y-69557857D02*
X121586952Y-69653095D01*
X121586952Y-69653095D02*
X121539333Y-69748333D01*
X121539333Y-69748333D02*
X121491714Y-69795952D01*
X121491714Y-69795952D02*
X121396476Y-69843571D01*
X121396476Y-69843571D02*
X121063143Y-69843571D01*
X121825048Y-70462619D02*
X122586952Y-70462619D01*
X123396476Y-70272142D02*
X123348857Y-70319761D01*
X123348857Y-70319761D02*
X123206000Y-70367380D01*
X123206000Y-70367380D02*
X123110762Y-70367380D01*
X123110762Y-70367380D02*
X122967905Y-70319761D01*
X122967905Y-70319761D02*
X122872667Y-70224523D01*
X122872667Y-70224523D02*
X122825048Y-70129285D01*
X122825048Y-70129285D02*
X122777429Y-69938809D01*
X122777429Y-69938809D02*
X122777429Y-69795952D01*
X122777429Y-69795952D02*
X122825048Y-69605476D01*
X122825048Y-69605476D02*
X122872667Y-69510238D01*
X122872667Y-69510238D02*
X122967905Y-69415000D01*
X122967905Y-69415000D02*
X123110762Y-69367380D01*
X123110762Y-69367380D02*
X123206000Y-69367380D01*
X123206000Y-69367380D02*
X123348857Y-69415000D01*
X123348857Y-69415000D02*
X123396476Y-69462619D01*
%TO.C,J1*%
X110302586Y-105079564D02*
X109969253Y-104603374D01*
X109731158Y-105079564D02*
X109731158Y-104079564D01*
X109731158Y-104079564D02*
X110112110Y-104079564D01*
X110112110Y-104079564D02*
X110207348Y-104127184D01*
X110207348Y-104127184D02*
X110254967Y-104174803D01*
X110254967Y-104174803D02*
X110302586Y-104270041D01*
X110302586Y-104270041D02*
X110302586Y-104412898D01*
X110302586Y-104412898D02*
X110254967Y-104508136D01*
X110254967Y-104508136D02*
X110207348Y-104555755D01*
X110207348Y-104555755D02*
X110112110Y-104603374D01*
X110112110Y-104603374D02*
X109731158Y-104603374D01*
X111064491Y-104555755D02*
X111207348Y-104603374D01*
X111207348Y-104603374D02*
X111254967Y-104650993D01*
X111254967Y-104650993D02*
X111302586Y-104746231D01*
X111302586Y-104746231D02*
X111302586Y-104889088D01*
X111302586Y-104889088D02*
X111254967Y-104984326D01*
X111254967Y-104984326D02*
X111207348Y-105031945D01*
X111207348Y-105031945D02*
X111112110Y-105079564D01*
X111112110Y-105079564D02*
X110731158Y-105079564D01*
X110731158Y-105079564D02*
X110731158Y-104079564D01*
X110731158Y-104079564D02*
X111064491Y-104079564D01*
X111064491Y-104079564D02*
X111159729Y-104127184D01*
X111159729Y-104127184D02*
X111207348Y-104174803D01*
X111207348Y-104174803D02*
X111254967Y-104270041D01*
X111254967Y-104270041D02*
X111254967Y-104365279D01*
X111254967Y-104365279D02*
X111207348Y-104460517D01*
X111207348Y-104460517D02*
X111159729Y-104508136D01*
X111159729Y-104508136D02*
X111064491Y-104555755D01*
X111064491Y-104555755D02*
X110731158Y-104555755D01*
X111731158Y-104079564D02*
X111731158Y-104889088D01*
X111731158Y-104889088D02*
X111778777Y-104984326D01*
X111778777Y-104984326D02*
X111826396Y-105031945D01*
X111826396Y-105031945D02*
X111921634Y-105079564D01*
X111921634Y-105079564D02*
X112112110Y-105079564D01*
X112112110Y-105079564D02*
X112207348Y-105031945D01*
X112207348Y-105031945D02*
X112254967Y-104984326D01*
X112254967Y-104984326D02*
X112302586Y-104889088D01*
X112302586Y-104889088D02*
X112302586Y-104079564D01*
X112731158Y-105031945D02*
X112874015Y-105079564D01*
X112874015Y-105079564D02*
X113112110Y-105079564D01*
X113112110Y-105079564D02*
X113207348Y-105031945D01*
X113207348Y-105031945D02*
X113254967Y-104984326D01*
X113254967Y-104984326D02*
X113302586Y-104889088D01*
X113302586Y-104889088D02*
X113302586Y-104793850D01*
X113302586Y-104793850D02*
X113254967Y-104698612D01*
X113254967Y-104698612D02*
X113207348Y-104650993D01*
X113207348Y-104650993D02*
X113112110Y-104603374D01*
X113112110Y-104603374D02*
X112921634Y-104555755D01*
X112921634Y-104555755D02*
X112826396Y-104508136D01*
X112826396Y-104508136D02*
X112778777Y-104460517D01*
X112778777Y-104460517D02*
X112731158Y-104365279D01*
X112731158Y-104365279D02*
X112731158Y-104270041D01*
X112731158Y-104270041D02*
X112778777Y-104174803D01*
X112778777Y-104174803D02*
X112826396Y-104127184D01*
X112826396Y-104127184D02*
X112921634Y-104079564D01*
X112921634Y-104079564D02*
X113159729Y-104079564D01*
X113159729Y-104079564D02*
X113302586Y-104127184D01*
D10*
%TO.C,R3*%
X112661166Y-92906666D02*
X112327833Y-93139999D01*
X112661166Y-93306666D02*
X111961166Y-93306666D01*
X111961166Y-93306666D02*
X111961166Y-93039999D01*
X111961166Y-93039999D02*
X111994500Y-92973333D01*
X111994500Y-92973333D02*
X112027833Y-92939999D01*
X112027833Y-92939999D02*
X112094500Y-92906666D01*
X112094500Y-92906666D02*
X112194500Y-92906666D01*
X112194500Y-92906666D02*
X112261166Y-92939999D01*
X112261166Y-92939999D02*
X112294500Y-92973333D01*
X112294500Y-92973333D02*
X112327833Y-93039999D01*
X112327833Y-93039999D02*
X112327833Y-93306666D01*
X111961166Y-92673333D02*
X111961166Y-92239999D01*
X111961166Y-92239999D02*
X112227833Y-92473333D01*
X112227833Y-92473333D02*
X112227833Y-92373333D01*
X112227833Y-92373333D02*
X112261166Y-92306666D01*
X112261166Y-92306666D02*
X112294500Y-92273333D01*
X112294500Y-92273333D02*
X112361166Y-92239999D01*
X112361166Y-92239999D02*
X112527833Y-92239999D01*
X112527833Y-92239999D02*
X112594500Y-92273333D01*
X112594500Y-92273333D02*
X112627833Y-92306666D01*
X112627833Y-92306666D02*
X112661166Y-92373333D01*
X112661166Y-92373333D02*
X112661166Y-92573333D01*
X112661166Y-92573333D02*
X112627833Y-92639999D01*
X112627833Y-92639999D02*
X112594500Y-92673333D01*
%TO.C,TP8*%
X117016334Y-80298500D02*
X117116334Y-80331833D01*
X117116334Y-80331833D02*
X117149667Y-80365166D01*
X117149667Y-80365166D02*
X117183000Y-80431833D01*
X117183000Y-80431833D02*
X117183000Y-80531833D01*
X117183000Y-80531833D02*
X117149667Y-80598500D01*
X117149667Y-80598500D02*
X117116334Y-80631833D01*
X117116334Y-80631833D02*
X117049667Y-80665166D01*
X117049667Y-80665166D02*
X116783000Y-80665166D01*
X116783000Y-80665166D02*
X116783000Y-79965166D01*
X116783000Y-79965166D02*
X117016334Y-79965166D01*
X117016334Y-79965166D02*
X117083000Y-79998500D01*
X117083000Y-79998500D02*
X117116334Y-80031833D01*
X117116334Y-80031833D02*
X117149667Y-80098500D01*
X117149667Y-80098500D02*
X117149667Y-80165166D01*
X117149667Y-80165166D02*
X117116334Y-80231833D01*
X117116334Y-80231833D02*
X117083000Y-80265166D01*
X117083000Y-80265166D02*
X117016334Y-80298500D01*
X117016334Y-80298500D02*
X116783000Y-80298500D01*
X117716334Y-80298500D02*
X117816334Y-80331833D01*
X117816334Y-80331833D02*
X117849667Y-80365166D01*
X117849667Y-80365166D02*
X117883000Y-80431833D01*
X117883000Y-80431833D02*
X117883000Y-80531833D01*
X117883000Y-80531833D02*
X117849667Y-80598500D01*
X117849667Y-80598500D02*
X117816334Y-80631833D01*
X117816334Y-80631833D02*
X117749667Y-80665166D01*
X117749667Y-80665166D02*
X117483000Y-80665166D01*
X117483000Y-80665166D02*
X117483000Y-79965166D01*
X117483000Y-79965166D02*
X117716334Y-79965166D01*
X117716334Y-79965166D02*
X117783000Y-79998500D01*
X117783000Y-79998500D02*
X117816334Y-80031833D01*
X117816334Y-80031833D02*
X117849667Y-80098500D01*
X117849667Y-80098500D02*
X117849667Y-80165166D01*
X117849667Y-80165166D02*
X117816334Y-80231833D01*
X117816334Y-80231833D02*
X117783000Y-80265166D01*
X117783000Y-80265166D02*
X117716334Y-80298500D01*
X117716334Y-80298500D02*
X117483000Y-80298500D01*
X118316334Y-79965166D02*
X118449667Y-79965166D01*
X118449667Y-79965166D02*
X118516334Y-79998500D01*
X118516334Y-79998500D02*
X118583000Y-80065166D01*
X118583000Y-80065166D02*
X118616334Y-80198500D01*
X118616334Y-80198500D02*
X118616334Y-80431833D01*
X118616334Y-80431833D02*
X118583000Y-80565166D01*
X118583000Y-80565166D02*
X118516334Y-80631833D01*
X118516334Y-80631833D02*
X118449667Y-80665166D01*
X118449667Y-80665166D02*
X118316334Y-80665166D01*
X118316334Y-80665166D02*
X118249667Y-80631833D01*
X118249667Y-80631833D02*
X118183000Y-80565166D01*
X118183000Y-80565166D02*
X118149667Y-80431833D01*
X118149667Y-80431833D02*
X118149667Y-80198500D01*
X118149667Y-80198500D02*
X118183000Y-80065166D01*
X118183000Y-80065166D02*
X118249667Y-79998500D01*
X118249667Y-79998500D02*
X118316334Y-79965166D01*
D11*
%TO.C,J6*%
X147785548Y-106869126D02*
X147785548Y-107583412D01*
X147785548Y-107583412D02*
X147737929Y-107726269D01*
X147737929Y-107726269D02*
X147642691Y-107821507D01*
X147642691Y-107821507D02*
X147499834Y-107869126D01*
X147499834Y-107869126D02*
X147404596Y-107869126D01*
X148690310Y-106869126D02*
X148499834Y-106869126D01*
X148499834Y-106869126D02*
X148404596Y-106916746D01*
X148404596Y-106916746D02*
X148356977Y-106964365D01*
X148356977Y-106964365D02*
X148261739Y-107107222D01*
X148261739Y-107107222D02*
X148214120Y-107297698D01*
X148214120Y-107297698D02*
X148214120Y-107678650D01*
X148214120Y-107678650D02*
X148261739Y-107773888D01*
X148261739Y-107773888D02*
X148309358Y-107821507D01*
X148309358Y-107821507D02*
X148404596Y-107869126D01*
X148404596Y-107869126D02*
X148595072Y-107869126D01*
X148595072Y-107869126D02*
X148690310Y-107821507D01*
X148690310Y-107821507D02*
X148737929Y-107773888D01*
X148737929Y-107773888D02*
X148785548Y-107678650D01*
X148785548Y-107678650D02*
X148785548Y-107440555D01*
X148785548Y-107440555D02*
X148737929Y-107345317D01*
X148737929Y-107345317D02*
X148690310Y-107297698D01*
X148690310Y-107297698D02*
X148595072Y-107250079D01*
X148595072Y-107250079D02*
X148404596Y-107250079D01*
X148404596Y-107250079D02*
X148309358Y-107297698D01*
X148309358Y-107297698D02*
X148261739Y-107345317D01*
X148261739Y-107345317D02*
X148214120Y-107440555D01*
D10*
X145846428Y-116806862D02*
X145846428Y-116044958D01*
X146227380Y-116425910D02*
X145465476Y-116425910D01*
D11*
X146249833Y-107759482D02*
X145487929Y-107759482D01*
D10*
%TO.C,TP6*%
X117933333Y-76107166D02*
X118366666Y-76107166D01*
X118366666Y-76107166D02*
X118133333Y-76373833D01*
X118133333Y-76373833D02*
X118233333Y-76373833D01*
X118233333Y-76373833D02*
X118299999Y-76407166D01*
X118299999Y-76407166D02*
X118333333Y-76440500D01*
X118333333Y-76440500D02*
X118366666Y-76507166D01*
X118366666Y-76507166D02*
X118366666Y-76673833D01*
X118366666Y-76673833D02*
X118333333Y-76740500D01*
X118333333Y-76740500D02*
X118299999Y-76773833D01*
X118299999Y-76773833D02*
X118233333Y-76807166D01*
X118233333Y-76807166D02*
X118033333Y-76807166D01*
X118033333Y-76807166D02*
X117966666Y-76773833D01*
X117966666Y-76773833D02*
X117933333Y-76740500D01*
X118566666Y-76107166D02*
X118800000Y-76807166D01*
X118800000Y-76807166D02*
X119033333Y-76107166D01*
X119200000Y-76107166D02*
X119633333Y-76107166D01*
X119633333Y-76107166D02*
X119400000Y-76373833D01*
X119400000Y-76373833D02*
X119500000Y-76373833D01*
X119500000Y-76373833D02*
X119566666Y-76407166D01*
X119566666Y-76407166D02*
X119600000Y-76440500D01*
X119600000Y-76440500D02*
X119633333Y-76507166D01*
X119633333Y-76507166D02*
X119633333Y-76673833D01*
X119633333Y-76673833D02*
X119600000Y-76740500D01*
X119600000Y-76740500D02*
X119566666Y-76773833D01*
X119566666Y-76773833D02*
X119500000Y-76807166D01*
X119500000Y-76807166D02*
X119300000Y-76807166D01*
X119300000Y-76807166D02*
X119233333Y-76773833D01*
X119233333Y-76773833D02*
X119200000Y-76740500D01*
%TO.C,Q4*%
X136315032Y-108479745D02*
X136248365Y-108446412D01*
X136248365Y-108446412D02*
X136181699Y-108379745D01*
X136181699Y-108379745D02*
X136081699Y-108279745D01*
X136081699Y-108279745D02*
X136015032Y-108246412D01*
X136015032Y-108246412D02*
X135948365Y-108246412D01*
X135981699Y-108413078D02*
X135915032Y-108379745D01*
X135915032Y-108379745D02*
X135848365Y-108313078D01*
X135848365Y-108313078D02*
X135815032Y-108179745D01*
X135815032Y-108179745D02*
X135815032Y-107946412D01*
X135815032Y-107946412D02*
X135848365Y-107813078D01*
X135848365Y-107813078D02*
X135915032Y-107746412D01*
X135915032Y-107746412D02*
X135981699Y-107713078D01*
X135981699Y-107713078D02*
X136115032Y-107713078D01*
X136115032Y-107713078D02*
X136181699Y-107746412D01*
X136181699Y-107746412D02*
X136248365Y-107813078D01*
X136248365Y-107813078D02*
X136281699Y-107946412D01*
X136281699Y-107946412D02*
X136281699Y-108179745D01*
X136281699Y-108179745D02*
X136248365Y-108313078D01*
X136248365Y-108313078D02*
X136181699Y-108379745D01*
X136181699Y-108379745D02*
X136115032Y-108413078D01*
X136115032Y-108413078D02*
X135981699Y-108413078D01*
X136881698Y-107946412D02*
X136881698Y-108413078D01*
X136715032Y-107679745D02*
X136548365Y-108179745D01*
X136548365Y-108179745D02*
X136981698Y-108179745D01*
X128787166Y-111119244D02*
X128087166Y-111119244D01*
X128087166Y-111119244D02*
X128087166Y-110852577D01*
X128087166Y-110852577D02*
X128120500Y-110785911D01*
X128120500Y-110785911D02*
X128153833Y-110752577D01*
X128153833Y-110752577D02*
X128220500Y-110719244D01*
X128220500Y-110719244D02*
X128320500Y-110719244D01*
X128320500Y-110719244D02*
X128387166Y-110752577D01*
X128387166Y-110752577D02*
X128420500Y-110785911D01*
X128420500Y-110785911D02*
X128453833Y-110852577D01*
X128453833Y-110852577D02*
X128453833Y-111119244D01*
X128453833Y-110285911D02*
X128787166Y-110285911D01*
X128087166Y-110519244D02*
X128453833Y-110285911D01*
X128453833Y-110285911D02*
X128087166Y-110052577D01*
X128787166Y-109419244D02*
X128453833Y-109652577D01*
X128787166Y-109819244D02*
X128087166Y-109819244D01*
X128087166Y-109819244D02*
X128087166Y-109552577D01*
X128087166Y-109552577D02*
X128120500Y-109485911D01*
X128120500Y-109485911D02*
X128153833Y-109452577D01*
X128153833Y-109452577D02*
X128220500Y-109419244D01*
X128220500Y-109419244D02*
X128320500Y-109419244D01*
X128320500Y-109419244D02*
X128387166Y-109452577D01*
X128387166Y-109452577D02*
X128420500Y-109485911D01*
X128420500Y-109485911D02*
X128453833Y-109552577D01*
X128453833Y-109552577D02*
X128453833Y-109819244D01*
X128087166Y-108985911D02*
X128087166Y-108852577D01*
X128087166Y-108852577D02*
X128120500Y-108785911D01*
X128120500Y-108785911D02*
X128187166Y-108719244D01*
X128187166Y-108719244D02*
X128320500Y-108685911D01*
X128320500Y-108685911D02*
X128553833Y-108685911D01*
X128553833Y-108685911D02*
X128687166Y-108719244D01*
X128687166Y-108719244D02*
X128753833Y-108785911D01*
X128753833Y-108785911D02*
X128787166Y-108852577D01*
X128787166Y-108852577D02*
X128787166Y-108985911D01*
X128787166Y-108985911D02*
X128753833Y-109052577D01*
X128753833Y-109052577D02*
X128687166Y-109119244D01*
X128687166Y-109119244D02*
X128553833Y-109152577D01*
X128553833Y-109152577D02*
X128320500Y-109152577D01*
X128320500Y-109152577D02*
X128187166Y-109119244D01*
X128187166Y-109119244D02*
X128120500Y-109052577D01*
X128120500Y-109052577D02*
X128087166Y-108985911D01*
X128320500Y-108085911D02*
X128787166Y-108085911D01*
X128053833Y-108252578D02*
X128553833Y-108419244D01*
X128553833Y-108419244D02*
X128553833Y-107985911D01*
%TO.C,C25*%
X116984500Y-75499999D02*
X116951166Y-75466666D01*
X116951166Y-75466666D02*
X116917833Y-75366666D01*
X116917833Y-75366666D02*
X116917833Y-75299999D01*
X116917833Y-75299999D02*
X116951166Y-75199999D01*
X116951166Y-75199999D02*
X117017833Y-75133333D01*
X117017833Y-75133333D02*
X117084500Y-75099999D01*
X117084500Y-75099999D02*
X117217833Y-75066666D01*
X117217833Y-75066666D02*
X117317833Y-75066666D01*
X117317833Y-75066666D02*
X117451166Y-75099999D01*
X117451166Y-75099999D02*
X117517833Y-75133333D01*
X117517833Y-75133333D02*
X117584500Y-75199999D01*
X117584500Y-75199999D02*
X117617833Y-75299999D01*
X117617833Y-75299999D02*
X117617833Y-75366666D01*
X117617833Y-75366666D02*
X117584500Y-75466666D01*
X117584500Y-75466666D02*
X117551166Y-75499999D01*
X117551166Y-75766666D02*
X117584500Y-75799999D01*
X117584500Y-75799999D02*
X117617833Y-75866666D01*
X117617833Y-75866666D02*
X117617833Y-76033333D01*
X117617833Y-76033333D02*
X117584500Y-76099999D01*
X117584500Y-76099999D02*
X117551166Y-76133333D01*
X117551166Y-76133333D02*
X117484500Y-76166666D01*
X117484500Y-76166666D02*
X117417833Y-76166666D01*
X117417833Y-76166666D02*
X117317833Y-76133333D01*
X117317833Y-76133333D02*
X116917833Y-75733333D01*
X116917833Y-75733333D02*
X116917833Y-76166666D01*
X117617833Y-76800000D02*
X117617833Y-76466666D01*
X117617833Y-76466666D02*
X117284500Y-76433333D01*
X117284500Y-76433333D02*
X117317833Y-76466666D01*
X117317833Y-76466666D02*
X117351166Y-76533333D01*
X117351166Y-76533333D02*
X117351166Y-76700000D01*
X117351166Y-76700000D02*
X117317833Y-76766666D01*
X117317833Y-76766666D02*
X117284500Y-76800000D01*
X117284500Y-76800000D02*
X117217833Y-76833333D01*
X117217833Y-76833333D02*
X117051166Y-76833333D01*
X117051166Y-76833333D02*
X116984500Y-76800000D01*
X116984500Y-76800000D02*
X116951166Y-76766666D01*
X116951166Y-76766666D02*
X116917833Y-76700000D01*
X116917833Y-76700000D02*
X116917833Y-76533333D01*
X116917833Y-76533333D02*
X116951166Y-76466666D01*
X116951166Y-76466666D02*
X116984500Y-76433333D01*
%TO.C,D8*%
X139450521Y-107257166D02*
X139450521Y-106557166D01*
X139450521Y-106557166D02*
X139617188Y-106557166D01*
X139617188Y-106557166D02*
X139717188Y-106590500D01*
X139717188Y-106590500D02*
X139783855Y-106657166D01*
X139783855Y-106657166D02*
X139817188Y-106723833D01*
X139817188Y-106723833D02*
X139850521Y-106857166D01*
X139850521Y-106857166D02*
X139850521Y-106957166D01*
X139850521Y-106957166D02*
X139817188Y-107090500D01*
X139817188Y-107090500D02*
X139783855Y-107157166D01*
X139783855Y-107157166D02*
X139717188Y-107223833D01*
X139717188Y-107223833D02*
X139617188Y-107257166D01*
X139617188Y-107257166D02*
X139450521Y-107257166D01*
X140250521Y-106857166D02*
X140183855Y-106823833D01*
X140183855Y-106823833D02*
X140150521Y-106790500D01*
X140150521Y-106790500D02*
X140117188Y-106723833D01*
X140117188Y-106723833D02*
X140117188Y-106690500D01*
X140117188Y-106690500D02*
X140150521Y-106623833D01*
X140150521Y-106623833D02*
X140183855Y-106590500D01*
X140183855Y-106590500D02*
X140250521Y-106557166D01*
X140250521Y-106557166D02*
X140383855Y-106557166D01*
X140383855Y-106557166D02*
X140450521Y-106590500D01*
X140450521Y-106590500D02*
X140483855Y-106623833D01*
X140483855Y-106623833D02*
X140517188Y-106690500D01*
X140517188Y-106690500D02*
X140517188Y-106723833D01*
X140517188Y-106723833D02*
X140483855Y-106790500D01*
X140483855Y-106790500D02*
X140450521Y-106823833D01*
X140450521Y-106823833D02*
X140383855Y-106857166D01*
X140383855Y-106857166D02*
X140250521Y-106857166D01*
X140250521Y-106857166D02*
X140183855Y-106890500D01*
X140183855Y-106890500D02*
X140150521Y-106923833D01*
X140150521Y-106923833D02*
X140117188Y-106990500D01*
X140117188Y-106990500D02*
X140117188Y-107123833D01*
X140117188Y-107123833D02*
X140150521Y-107190500D01*
X140150521Y-107190500D02*
X140183855Y-107223833D01*
X140183855Y-107223833D02*
X140250521Y-107257166D01*
X140250521Y-107257166D02*
X140383855Y-107257166D01*
X140383855Y-107257166D02*
X140450521Y-107223833D01*
X140450521Y-107223833D02*
X140483855Y-107190500D01*
X140483855Y-107190500D02*
X140517188Y-107123833D01*
X140517188Y-107123833D02*
X140517188Y-106990500D01*
X140517188Y-106990500D02*
X140483855Y-106923833D01*
X140483855Y-106923833D02*
X140450521Y-106890500D01*
X140450521Y-106890500D02*
X140383855Y-106857166D01*
%TO.C,ENJUMPER1*%
X107473333Y-87614500D02*
X107706667Y-87614500D01*
X107806667Y-87981166D02*
X107473333Y-87981166D01*
X107473333Y-87981166D02*
X107473333Y-87281166D01*
X107473333Y-87281166D02*
X107806667Y-87281166D01*
X108106666Y-87981166D02*
X108106666Y-87281166D01*
X108106666Y-87281166D02*
X108506666Y-87981166D01*
X108506666Y-87981166D02*
X108506666Y-87281166D01*
%TO.C,R25*%
X133577999Y-107206077D02*
X133344666Y-106872744D01*
X133177999Y-107206077D02*
X133177999Y-106506077D01*
X133177999Y-106506077D02*
X133444666Y-106506077D01*
X133444666Y-106506077D02*
X133511333Y-106539411D01*
X133511333Y-106539411D02*
X133544666Y-106572744D01*
X133544666Y-106572744D02*
X133577999Y-106639411D01*
X133577999Y-106639411D02*
X133577999Y-106739411D01*
X133577999Y-106739411D02*
X133544666Y-106806077D01*
X133544666Y-106806077D02*
X133511333Y-106839411D01*
X133511333Y-106839411D02*
X133444666Y-106872744D01*
X133444666Y-106872744D02*
X133177999Y-106872744D01*
X133844666Y-106572744D02*
X133877999Y-106539411D01*
X133877999Y-106539411D02*
X133944666Y-106506077D01*
X133944666Y-106506077D02*
X134111333Y-106506077D01*
X134111333Y-106506077D02*
X134177999Y-106539411D01*
X134177999Y-106539411D02*
X134211333Y-106572744D01*
X134211333Y-106572744D02*
X134244666Y-106639411D01*
X134244666Y-106639411D02*
X134244666Y-106706077D01*
X134244666Y-106706077D02*
X134211333Y-106806077D01*
X134211333Y-106806077D02*
X133811333Y-107206077D01*
X133811333Y-107206077D02*
X134244666Y-107206077D01*
X134878000Y-106506077D02*
X134544666Y-106506077D01*
X134544666Y-106506077D02*
X134511333Y-106839411D01*
X134511333Y-106839411D02*
X134544666Y-106806077D01*
X134544666Y-106806077D02*
X134611333Y-106772744D01*
X134611333Y-106772744D02*
X134778000Y-106772744D01*
X134778000Y-106772744D02*
X134844666Y-106806077D01*
X134844666Y-106806077D02*
X134878000Y-106839411D01*
X134878000Y-106839411D02*
X134911333Y-106906077D01*
X134911333Y-106906077D02*
X134911333Y-107072744D01*
X134911333Y-107072744D02*
X134878000Y-107139411D01*
X134878000Y-107139411D02*
X134844666Y-107172744D01*
X134844666Y-107172744D02*
X134778000Y-107206077D01*
X134778000Y-107206077D02*
X134611333Y-107206077D01*
X134611333Y-107206077D02*
X134544666Y-107172744D01*
X134544666Y-107172744D02*
X134511333Y-107139411D01*
%TO.C,C15*%
X126658840Y-96150712D02*
X126625507Y-96184045D01*
X126625507Y-96184045D02*
X126525507Y-96217378D01*
X126525507Y-96217378D02*
X126458840Y-96217378D01*
X126458840Y-96217378D02*
X126358840Y-96184045D01*
X126358840Y-96184045D02*
X126292174Y-96117378D01*
X126292174Y-96117378D02*
X126258840Y-96050712D01*
X126258840Y-96050712D02*
X126225507Y-95917378D01*
X126225507Y-95917378D02*
X126225507Y-95817378D01*
X126225507Y-95817378D02*
X126258840Y-95684045D01*
X126258840Y-95684045D02*
X126292174Y-95617378D01*
X126292174Y-95617378D02*
X126358840Y-95550712D01*
X126358840Y-95550712D02*
X126458840Y-95517378D01*
X126458840Y-95517378D02*
X126525507Y-95517378D01*
X126525507Y-95517378D02*
X126625507Y-95550712D01*
X126625507Y-95550712D02*
X126658840Y-95584045D01*
X127325507Y-96217378D02*
X126925507Y-96217378D01*
X127125507Y-96217378D02*
X127125507Y-95517378D01*
X127125507Y-95517378D02*
X127058840Y-95617378D01*
X127058840Y-95617378D02*
X126992174Y-95684045D01*
X126992174Y-95684045D02*
X126925507Y-95717378D01*
X127958841Y-95517378D02*
X127625507Y-95517378D01*
X127625507Y-95517378D02*
X127592174Y-95850712D01*
X127592174Y-95850712D02*
X127625507Y-95817378D01*
X127625507Y-95817378D02*
X127692174Y-95784045D01*
X127692174Y-95784045D02*
X127858841Y-95784045D01*
X127858841Y-95784045D02*
X127925507Y-95817378D01*
X127925507Y-95817378D02*
X127958841Y-95850712D01*
X127958841Y-95850712D02*
X127992174Y-95917378D01*
X127992174Y-95917378D02*
X127992174Y-96084045D01*
X127992174Y-96084045D02*
X127958841Y-96150712D01*
X127958841Y-96150712D02*
X127925507Y-96184045D01*
X127925507Y-96184045D02*
X127858841Y-96217378D01*
X127858841Y-96217378D02*
X127692174Y-96217378D01*
X127692174Y-96217378D02*
X127625507Y-96184045D01*
X127625507Y-96184045D02*
X127592174Y-96150712D01*
%TO.C,U4*%
X115912833Y-81506666D02*
X115346166Y-81506666D01*
X115346166Y-81506666D02*
X115279500Y-81540000D01*
X115279500Y-81540000D02*
X115246166Y-81573333D01*
X115246166Y-81573333D02*
X115212833Y-81640000D01*
X115212833Y-81640000D02*
X115212833Y-81773333D01*
X115212833Y-81773333D02*
X115246166Y-81840000D01*
X115246166Y-81840000D02*
X115279500Y-81873333D01*
X115279500Y-81873333D02*
X115346166Y-81906666D01*
X115346166Y-81906666D02*
X115912833Y-81906666D01*
X115679500Y-82539999D02*
X115212833Y-82539999D01*
X115946166Y-82373333D02*
X115446166Y-82206666D01*
X115446166Y-82206666D02*
X115446166Y-82639999D01*
%TO.C,Q2*%
X136343032Y-89337834D02*
X136276365Y-89304501D01*
X136276365Y-89304501D02*
X136209699Y-89237834D01*
X136209699Y-89237834D02*
X136109699Y-89137834D01*
X136109699Y-89137834D02*
X136043032Y-89104501D01*
X136043032Y-89104501D02*
X135976365Y-89104501D01*
X136009699Y-89271167D02*
X135943032Y-89237834D01*
X135943032Y-89237834D02*
X135876365Y-89171167D01*
X135876365Y-89171167D02*
X135843032Y-89037834D01*
X135843032Y-89037834D02*
X135843032Y-88804501D01*
X135843032Y-88804501D02*
X135876365Y-88671167D01*
X135876365Y-88671167D02*
X135943032Y-88604501D01*
X135943032Y-88604501D02*
X136009699Y-88571167D01*
X136009699Y-88571167D02*
X136143032Y-88571167D01*
X136143032Y-88571167D02*
X136209699Y-88604501D01*
X136209699Y-88604501D02*
X136276365Y-88671167D01*
X136276365Y-88671167D02*
X136309699Y-88804501D01*
X136309699Y-88804501D02*
X136309699Y-89037834D01*
X136309699Y-89037834D02*
X136276365Y-89171167D01*
X136276365Y-89171167D02*
X136209699Y-89237834D01*
X136209699Y-89237834D02*
X136143032Y-89271167D01*
X136143032Y-89271167D02*
X136009699Y-89271167D01*
X136576365Y-88637834D02*
X136609698Y-88604501D01*
X136609698Y-88604501D02*
X136676365Y-88571167D01*
X136676365Y-88571167D02*
X136843032Y-88571167D01*
X136843032Y-88571167D02*
X136909698Y-88604501D01*
X136909698Y-88604501D02*
X136943032Y-88637834D01*
X136943032Y-88637834D02*
X136976365Y-88704501D01*
X136976365Y-88704501D02*
X136976365Y-88771167D01*
X136976365Y-88771167D02*
X136943032Y-88871167D01*
X136943032Y-88871167D02*
X136543032Y-89271167D01*
X136543032Y-89271167D02*
X136976365Y-89271167D01*
X128797166Y-92133333D02*
X128097166Y-92133333D01*
X128097166Y-92133333D02*
X128097166Y-91866666D01*
X128097166Y-91866666D02*
X128130500Y-91800000D01*
X128130500Y-91800000D02*
X128163833Y-91766666D01*
X128163833Y-91766666D02*
X128230500Y-91733333D01*
X128230500Y-91733333D02*
X128330500Y-91733333D01*
X128330500Y-91733333D02*
X128397166Y-91766666D01*
X128397166Y-91766666D02*
X128430500Y-91800000D01*
X128430500Y-91800000D02*
X128463833Y-91866666D01*
X128463833Y-91866666D02*
X128463833Y-92133333D01*
X128463833Y-91300000D02*
X128797166Y-91300000D01*
X128097166Y-91533333D02*
X128463833Y-91300000D01*
X128463833Y-91300000D02*
X128097166Y-91066666D01*
X128797166Y-90433333D02*
X128463833Y-90666666D01*
X128797166Y-90833333D02*
X128097166Y-90833333D01*
X128097166Y-90833333D02*
X128097166Y-90566666D01*
X128097166Y-90566666D02*
X128130500Y-90500000D01*
X128130500Y-90500000D02*
X128163833Y-90466666D01*
X128163833Y-90466666D02*
X128230500Y-90433333D01*
X128230500Y-90433333D02*
X128330500Y-90433333D01*
X128330500Y-90433333D02*
X128397166Y-90466666D01*
X128397166Y-90466666D02*
X128430500Y-90500000D01*
X128430500Y-90500000D02*
X128463833Y-90566666D01*
X128463833Y-90566666D02*
X128463833Y-90833333D01*
X128097166Y-90000000D02*
X128097166Y-89866666D01*
X128097166Y-89866666D02*
X128130500Y-89800000D01*
X128130500Y-89800000D02*
X128197166Y-89733333D01*
X128197166Y-89733333D02*
X128330500Y-89700000D01*
X128330500Y-89700000D02*
X128563833Y-89700000D01*
X128563833Y-89700000D02*
X128697166Y-89733333D01*
X128697166Y-89733333D02*
X128763833Y-89800000D01*
X128763833Y-89800000D02*
X128797166Y-89866666D01*
X128797166Y-89866666D02*
X128797166Y-90000000D01*
X128797166Y-90000000D02*
X128763833Y-90066666D01*
X128763833Y-90066666D02*
X128697166Y-90133333D01*
X128697166Y-90133333D02*
X128563833Y-90166666D01*
X128563833Y-90166666D02*
X128330500Y-90166666D01*
X128330500Y-90166666D02*
X128197166Y-90133333D01*
X128197166Y-90133333D02*
X128130500Y-90066666D01*
X128130500Y-90066666D02*
X128097166Y-90000000D01*
X128163833Y-89433333D02*
X128130500Y-89400000D01*
X128130500Y-89400000D02*
X128097166Y-89333333D01*
X128097166Y-89333333D02*
X128097166Y-89166667D01*
X128097166Y-89166667D02*
X128130500Y-89100000D01*
X128130500Y-89100000D02*
X128163833Y-89066667D01*
X128163833Y-89066667D02*
X128230500Y-89033333D01*
X128230500Y-89033333D02*
X128297166Y-89033333D01*
X128297166Y-89033333D02*
X128397166Y-89066667D01*
X128397166Y-89066667D02*
X128797166Y-89466667D01*
X128797166Y-89466667D02*
X128797166Y-89033333D01*
%TO.C,R7*%
X122763333Y-110012166D02*
X122530000Y-109678833D01*
X122363333Y-110012166D02*
X122363333Y-109312166D01*
X122363333Y-109312166D02*
X122630000Y-109312166D01*
X122630000Y-109312166D02*
X122696667Y-109345500D01*
X122696667Y-109345500D02*
X122730000Y-109378833D01*
X122730000Y-109378833D02*
X122763333Y-109445500D01*
X122763333Y-109445500D02*
X122763333Y-109545500D01*
X122763333Y-109545500D02*
X122730000Y-109612166D01*
X122730000Y-109612166D02*
X122696667Y-109645500D01*
X122696667Y-109645500D02*
X122630000Y-109678833D01*
X122630000Y-109678833D02*
X122363333Y-109678833D01*
X122996667Y-109312166D02*
X123463333Y-109312166D01*
X123463333Y-109312166D02*
X123163333Y-110012166D01*
D11*
%TO.C,J3*%
X147853363Y-78577379D02*
X147853363Y-79291665D01*
X147853363Y-79291665D02*
X147805744Y-79434522D01*
X147805744Y-79434522D02*
X147710506Y-79529760D01*
X147710506Y-79529760D02*
X147567649Y-79577379D01*
X147567649Y-79577379D02*
X147472411Y-79577379D01*
X148234316Y-78577379D02*
X148853363Y-78577379D01*
X148853363Y-78577379D02*
X148520030Y-78958332D01*
X148520030Y-78958332D02*
X148662887Y-78958332D01*
X148662887Y-78958332D02*
X148758125Y-79005951D01*
X148758125Y-79005951D02*
X148805744Y-79053570D01*
X148805744Y-79053570D02*
X148853363Y-79148808D01*
X148853363Y-79148808D02*
X148853363Y-79386903D01*
X148853363Y-79386903D02*
X148805744Y-79482141D01*
X148805744Y-79482141D02*
X148758125Y-79529760D01*
X148758125Y-79529760D02*
X148662887Y-79577379D01*
X148662887Y-79577379D02*
X148377173Y-79577379D01*
X148377173Y-79577379D02*
X148281935Y-79529760D01*
X148281935Y-79529760D02*
X148234316Y-79482141D01*
D10*
X145879072Y-88290872D02*
X145879072Y-87528968D01*
X146260024Y-87909920D02*
X145498120Y-87909920D01*
X146263316Y-79234710D02*
X145501412Y-79234710D01*
%TO.C,C20*%
X108389999Y-81140500D02*
X108356666Y-81173833D01*
X108356666Y-81173833D02*
X108256666Y-81207166D01*
X108256666Y-81207166D02*
X108189999Y-81207166D01*
X108189999Y-81207166D02*
X108089999Y-81173833D01*
X108089999Y-81173833D02*
X108023333Y-81107166D01*
X108023333Y-81107166D02*
X107989999Y-81040500D01*
X107989999Y-81040500D02*
X107956666Y-80907166D01*
X107956666Y-80907166D02*
X107956666Y-80807166D01*
X107956666Y-80807166D02*
X107989999Y-80673833D01*
X107989999Y-80673833D02*
X108023333Y-80607166D01*
X108023333Y-80607166D02*
X108089999Y-80540500D01*
X108089999Y-80540500D02*
X108189999Y-80507166D01*
X108189999Y-80507166D02*
X108256666Y-80507166D01*
X108256666Y-80507166D02*
X108356666Y-80540500D01*
X108356666Y-80540500D02*
X108389999Y-80573833D01*
X108656666Y-80573833D02*
X108689999Y-80540500D01*
X108689999Y-80540500D02*
X108756666Y-80507166D01*
X108756666Y-80507166D02*
X108923333Y-80507166D01*
X108923333Y-80507166D02*
X108989999Y-80540500D01*
X108989999Y-80540500D02*
X109023333Y-80573833D01*
X109023333Y-80573833D02*
X109056666Y-80640500D01*
X109056666Y-80640500D02*
X109056666Y-80707166D01*
X109056666Y-80707166D02*
X109023333Y-80807166D01*
X109023333Y-80807166D02*
X108623333Y-81207166D01*
X108623333Y-81207166D02*
X109056666Y-81207166D01*
X109490000Y-80507166D02*
X109556666Y-80507166D01*
X109556666Y-80507166D02*
X109623333Y-80540500D01*
X109623333Y-80540500D02*
X109656666Y-80573833D01*
X109656666Y-80573833D02*
X109690000Y-80640500D01*
X109690000Y-80640500D02*
X109723333Y-80773833D01*
X109723333Y-80773833D02*
X109723333Y-80940500D01*
X109723333Y-80940500D02*
X109690000Y-81073833D01*
X109690000Y-81073833D02*
X109656666Y-81140500D01*
X109656666Y-81140500D02*
X109623333Y-81173833D01*
X109623333Y-81173833D02*
X109556666Y-81207166D01*
X109556666Y-81207166D02*
X109490000Y-81207166D01*
X109490000Y-81207166D02*
X109423333Y-81173833D01*
X109423333Y-81173833D02*
X109390000Y-81140500D01*
X109390000Y-81140500D02*
X109356666Y-81073833D01*
X109356666Y-81073833D02*
X109323333Y-80940500D01*
X109323333Y-80940500D02*
X109323333Y-80773833D01*
X109323333Y-80773833D02*
X109356666Y-80640500D01*
X109356666Y-80640500D02*
X109390000Y-80573833D01*
X109390000Y-80573833D02*
X109423333Y-80540500D01*
X109423333Y-80540500D02*
X109490000Y-80507166D01*
D12*
%TO.C,C21*%
X111210376Y-84428276D02*
X111210376Y-84709436D01*
X110190376Y-84428276D02*
X110190376Y-84709436D01*
%TO.C,BOOTJUMPER1*%
X106669000Y-94522000D02*
X106669000Y-93192000D01*
X107999000Y-94522000D02*
X106669000Y-94522000D01*
X109269000Y-94522000D02*
X111869000Y-94522000D01*
X109269000Y-94522000D02*
X109269000Y-91862000D01*
X111869000Y-94522000D02*
X111869000Y-91862000D01*
X109269000Y-91862000D02*
X111869000Y-91862000D01*
%TO.C,D9*%
X128145000Y-70607500D02*
X126675000Y-70607500D01*
X126675000Y-70607500D02*
X126675000Y-72892500D01*
X128145000Y-72892500D02*
X128145000Y-70607500D01*
%TO.C,R13*%
X115080000Y-70693641D02*
X115080000Y-70386359D01*
X115840000Y-70693641D02*
X115840000Y-70386359D01*
%TO.C,D7*%
X137898000Y-89754000D02*
X137898000Y-95374000D01*
X138158000Y-95374000D02*
X137898000Y-95374000D01*
X138308000Y-89754000D02*
X137898000Y-89754000D01*
X138308000Y-89754000D02*
X138308000Y-88964000D01*
X142118000Y-89754000D02*
X141708000Y-89754000D01*
X142118000Y-95374000D02*
X141858000Y-95374000D01*
X142118000Y-95374000D02*
X142118000Y-89754000D01*
%TO.C,C7*%
X117702000Y-83370837D02*
X117702000Y-83155165D01*
X118422000Y-83370837D02*
X118422000Y-83155165D01*
%TO.C,J5*%
X150043299Y-106117359D02*
X150683299Y-106117359D01*
X150683299Y-106117359D02*
X150683299Y-105717359D01*
X142723299Y-105877359D02*
X150443299Y-105877359D01*
X142723299Y-105877359D02*
X142723299Y-98757359D01*
X148883299Y-105877359D02*
X148883299Y-98757359D01*
X149983299Y-105877359D02*
X149983299Y-98757359D01*
X150443299Y-105877359D02*
X150443299Y-98757359D01*
X146824299Y-101712359D02*
X146952299Y-101841359D01*
X147064299Y-101542359D02*
X147157299Y-101636359D01*
X144608299Y-99497359D02*
X144702299Y-99591359D01*
X144814299Y-99292359D02*
X144942299Y-99421359D01*
X142723299Y-98757359D02*
X150443299Y-98757359D01*
X145017299Y-105507359D02*
G75*
G03*
X146773193Y-105492717I866000J1439998D01*
G01*
X144443299Y-103201359D02*
G75*
G03*
X144457941Y-104957253I1439998J-866000D01*
G01*
X147323299Y-104933359D02*
G75*
G03*
X147563397Y-104038685I-1440014J866003D01*
G01*
X147563298Y-104067359D02*
G75*
G03*
X147308019Y-103177095I-1679989J3D01*
G01*
X146774298Y-102642360D02*
G75*
G03*
X144993107Y-102641856I-890999J-1425002D01*
G01*
X147563299Y-100567359D02*
G75*
G03*
X147563299Y-100567359I-1680000J0D01*
G01*
%TO.C,C5*%
X116264000Y-88991164D02*
X116264000Y-89206836D01*
X115544000Y-88991164D02*
X115544000Y-89206836D01*
%TO.C,R4*%
X121256359Y-93770178D02*
X121563641Y-93770178D01*
X121256359Y-94530178D02*
X121563641Y-94530178D01*
%TO.C,Firing4*%
X132569000Y-108661911D02*
X132569000Y-107191911D01*
X132569000Y-107191911D02*
X130284000Y-107191911D01*
X130284000Y-108661911D02*
X132569000Y-108661911D01*
%TO.C,R6*%
X125233641Y-82660000D02*
X124926359Y-82660000D01*
X125233641Y-81900000D02*
X124926359Y-81900000D01*
%TO.C,Firing1*%
X132580500Y-80165000D02*
X132580500Y-78695000D01*
X132580500Y-78695000D02*
X130295500Y-78695000D01*
X130295500Y-80165000D02*
X132580500Y-80165000D01*
%TO.C,R14*%
X108735999Y-85526642D02*
X108735999Y-85219360D01*
X109495999Y-85526642D02*
X109495999Y-85219360D01*
%TO.C,C12*%
X118417000Y-84976165D02*
X118417000Y-85191837D01*
X117697000Y-84976165D02*
X117697000Y-85191837D01*
%TO.C,R1*%
X114067000Y-92152641D02*
X114067000Y-91845359D01*
X114827000Y-92152641D02*
X114827000Y-91845359D01*
%TO.C,C16*%
X125058164Y-94656000D02*
X125273836Y-94656000D01*
X125058164Y-95376000D02*
X125273836Y-95376000D01*
%TO.C,Y1*%
X119876000Y-79877000D02*
X119876000Y-82177000D01*
X119876000Y-82177000D02*
X122576000Y-82177000D01*
%TO.C,J4*%
X150069699Y-96663138D02*
X150709699Y-96663138D01*
X150709699Y-96663138D02*
X150709699Y-96263138D01*
X142749699Y-96423138D02*
X150469699Y-96423138D01*
X142749699Y-96423138D02*
X142749699Y-89303138D01*
X148909699Y-96423138D02*
X148909699Y-89303138D01*
X150009699Y-96423138D02*
X150009699Y-89303138D01*
X150469699Y-96423138D02*
X150469699Y-89303138D01*
X146850699Y-92258138D02*
X146978699Y-92387138D01*
X147090699Y-92088138D02*
X147183699Y-92182138D01*
X144634699Y-90043138D02*
X144728699Y-90137138D01*
X144840699Y-89838138D02*
X144968699Y-89967138D01*
X142749699Y-89303138D02*
X150469699Y-89303138D01*
X145043699Y-96053138D02*
G75*
G03*
X146799593Y-96038496I866000J1439998D01*
G01*
X144469699Y-93747138D02*
G75*
G03*
X144484341Y-95503032I1439998J-866000D01*
G01*
X147349699Y-95479138D02*
G75*
G03*
X147589797Y-94584464I-1440014J866003D01*
G01*
X147589698Y-94613138D02*
G75*
G03*
X147334419Y-93722874I-1679989J3D01*
G01*
X146800698Y-93188139D02*
G75*
G03*
X145019507Y-93187635I-890999J-1425002D01*
G01*
X147589699Y-91113138D02*
G75*
G03*
X147589699Y-91113138I-1680000J0D01*
G01*
%TO.C,Q3*%
X129236606Y-99288223D02*
X135246606Y-99288223D01*
X131486606Y-106108223D02*
X135246606Y-106108223D01*
X135246606Y-99288223D02*
X135246606Y-100548223D01*
X135246606Y-106108223D02*
X135246606Y-104848223D01*
%TO.C,Firing3*%
X132570000Y-99090000D02*
X132570000Y-97620000D01*
X132570000Y-97620000D02*
X130285000Y-97620000D01*
X130285000Y-99090000D02*
X132570000Y-99090000D01*
%TO.C,R29*%
X138973515Y-68100080D02*
X139448031Y-68100080D01*
X138973515Y-69145080D02*
X139448031Y-69145080D01*
%TO.C,R18*%
X133798242Y-78917500D02*
X134272758Y-78917500D01*
X133798242Y-79962500D02*
X134272758Y-79962500D01*
%TO.C,R24*%
X133787741Y-97842499D02*
X134262257Y-97842499D01*
X133787741Y-98887499D02*
X134262257Y-98887499D01*
%TO.C,C22*%
X110616000Y-81898835D02*
X110616000Y-81683163D01*
X111336000Y-81898835D02*
X111336000Y-81683163D01*
%TO.C,R27*%
X129392500Y-68895242D02*
X129392500Y-69369758D01*
X128347500Y-68895242D02*
X128347500Y-69369758D01*
%TO.C,L3*%
X112843944Y-86388961D02*
X113643188Y-86388961D01*
X112843944Y-87508961D02*
X113643188Y-87508961D01*
%TO.C,R5*%
X116747000Y-85220642D02*
X116747000Y-84913360D01*
X117507000Y-85220642D02*
X117507000Y-84913360D01*
%TO.C,C27*%
X107420020Y-75700163D02*
X107420020Y-75915835D01*
X106700020Y-75700163D02*
X106700020Y-75915835D01*
%TO.C,D10*%
X128145000Y-67647500D02*
X126675000Y-67647500D01*
X126675000Y-67647500D02*
X126675000Y-69932500D01*
X128145000Y-69932500D02*
X128145000Y-67647500D01*
%TO.C,R16*%
X108358814Y-77505136D02*
X108358814Y-77812418D01*
X107598814Y-77505136D02*
X107598814Y-77812418D01*
%TO.C,Firing2*%
X132556500Y-89638000D02*
X132556500Y-88168000D01*
X132556500Y-88168000D02*
X130271500Y-88168000D01*
X130271500Y-89638000D02*
X132556500Y-89638000D01*
%TO.C,R30*%
X124600000Y-108071359D02*
X124600000Y-108378641D01*
X123840000Y-108071359D02*
X123840000Y-108378641D01*
%TO.C,D3*%
X137871697Y-80300000D02*
X137871697Y-85920000D01*
X138131697Y-85920000D02*
X137871697Y-85920000D01*
X138281697Y-80300000D02*
X137871697Y-80300000D01*
X138281697Y-80300000D02*
X138281697Y-79510000D01*
X142091697Y-80300000D02*
X141681697Y-80300000D01*
X142091697Y-85920000D02*
X141831697Y-85920000D01*
X142091697Y-85920000D02*
X142091697Y-80300000D01*
D13*
%TO.C,U1*%
X119126000Y-84787000D02*
X119126000Y-85257000D01*
X119126000Y-84787000D02*
X119596000Y-84787000D01*
X119126000Y-91787000D02*
X119126000Y-91317000D01*
X119126000Y-91787000D02*
X119596000Y-91787000D01*
X126126000Y-84787000D02*
X125656000Y-84787000D01*
X126126000Y-84787000D02*
X126126000Y-85257000D01*
X126126000Y-91787000D02*
X125656000Y-91787000D01*
X126126000Y-91787000D02*
X126126000Y-91317000D01*
D14*
X118271000Y-85687000D02*
G75*
G03*
X118271000Y-85687000I-100000J0D01*
G01*
D12*
%TO.C,R20*%
X129391500Y-77778742D02*
X129391500Y-78253258D01*
X128346500Y-77778742D02*
X128346500Y-78253258D01*
%TO.C,C2*%
X115792000Y-91906164D02*
X115792000Y-92121836D01*
X115072000Y-91906164D02*
X115072000Y-92121836D01*
%TO.C,C24*%
X116685001Y-78703164D02*
X116685001Y-78918836D01*
X115965001Y-78703164D02*
X115965001Y-78918836D01*
%TO.C,C3*%
X112453000Y-90960836D02*
X112453000Y-90745164D01*
X113173000Y-90960836D02*
X113173000Y-90745164D01*
%TO.C,C4*%
X115344000Y-88990164D02*
X115344000Y-89205836D01*
X114624000Y-88990164D02*
X114624000Y-89205836D01*
%TO.C,R23*%
X138957515Y-73368080D02*
X139432031Y-73368080D01*
X138957515Y-74413080D02*
X139432031Y-74413080D01*
%TO.C,R11*%
X123606359Y-75670000D02*
X123913641Y-75670000D01*
X123606359Y-76430000D02*
X123913641Y-76430000D01*
%TO.C,R15*%
X113209643Y-81311000D02*
X112902361Y-81311000D01*
X113209643Y-80551000D02*
X112902361Y-80551000D01*
%TO.C,R36*%
X119598627Y-108314068D02*
X119598627Y-108006786D01*
X120358627Y-108314068D02*
X120358627Y-108006786D01*
D15*
%TO.C,TXLED1*%
X126210000Y-81340000D02*
G75*
G03*
X126210000Y-81340000I-50000J0D01*
G01*
D12*
%TO.C,R28*%
X138966515Y-70744080D02*
X139441031Y-70744080D01*
X138966515Y-71789080D02*
X139441031Y-71789080D01*
D15*
%TO.C,JP1*%
X121217000Y-103720000D02*
X122417000Y-103720000D01*
X122417000Y-103720000D02*
X122417000Y-101470000D01*
X122417000Y-101470000D02*
X121217000Y-101470000D01*
X121217000Y-101470000D02*
X121217000Y-103720000D01*
D12*
%TO.C,R19*%
X133774241Y-88390499D02*
X134248757Y-88390499D01*
X133774241Y-89435499D02*
X134248757Y-89435499D01*
%TO.C,C1*%
X114420000Y-88990164D02*
X114420000Y-89205836D01*
X113700000Y-88990164D02*
X113700000Y-89205836D01*
%TO.C,C23*%
X116281000Y-84240420D02*
X116281000Y-84521580D01*
X115261000Y-84240420D02*
X115261000Y-84521580D01*
%TO.C,R17*%
X108358816Y-79365136D02*
X108358816Y-79672418D01*
X107598816Y-79365136D02*
X107598816Y-79672418D01*
%TO.C,C8*%
X116284000Y-92815836D02*
X116284000Y-92600164D01*
X117004000Y-92815836D02*
X117004000Y-92600164D01*
%TO.C,D4*%
X137871605Y-99208222D02*
X137871605Y-104828222D01*
X138131605Y-104828222D02*
X137871605Y-104828222D01*
X138281605Y-99208222D02*
X137871605Y-99208222D01*
X138281605Y-99208222D02*
X138281605Y-98418222D01*
X142091605Y-99208222D02*
X141681605Y-99208222D01*
X142091605Y-104828222D02*
X141831605Y-104828222D01*
X142091605Y-104828222D02*
X142091605Y-99208222D01*
%TO.C,C17*%
X118614001Y-100849837D02*
X118614001Y-100634165D01*
X119334001Y-100849837D02*
X119334001Y-100634165D01*
%TO.C,D2*%
X121760000Y-75599932D02*
X120460000Y-75599932D01*
X120460000Y-78719932D02*
X122460000Y-78719932D01*
%TO.C,R2*%
X125223641Y-80780000D02*
X124916359Y-80780000D01*
X125223641Y-80020000D02*
X124916359Y-80020000D01*
%TO.C,R9*%
X117215160Y-102484338D02*
X117215160Y-102009822D01*
X118260160Y-102484338D02*
X118260160Y-102009822D01*
%TO.C,C11*%
X124454164Y-83361001D02*
X124669836Y-83361001D01*
X124454164Y-84081001D02*
X124669836Y-84081001D01*
%TO.C,R8*%
X126737258Y-105522500D02*
X126262742Y-105522500D01*
X126737258Y-104477500D02*
X126262742Y-104477500D01*
%TO.C,R26*%
X129392500Y-71855242D02*
X129392500Y-72329758D01*
X128347500Y-71855242D02*
X128347500Y-72329758D01*
%TO.C,D6*%
X128140000Y-73560000D02*
X126670000Y-73560000D01*
X126670000Y-73560000D02*
X126670000Y-75845000D01*
X128140000Y-75845000D02*
X128140000Y-73560000D01*
%TO.C,R12*%
X115080000Y-73123641D02*
X115080000Y-72816359D01*
X115840000Y-73123641D02*
X115840000Y-72816359D01*
%TO.C,U6*%
X136064000Y-78646350D02*
X136064000Y-78246350D01*
X136064000Y-78646350D02*
X131264000Y-78646350D01*
X136064000Y-78246350D02*
X137464000Y-78246350D01*
X136064000Y-67846350D02*
X131264000Y-67846350D01*
%TO.C,R10*%
X120690160Y-102009823D02*
X120690160Y-102484339D01*
X119645160Y-102009823D02*
X119645160Y-102484339D01*
%TO.C,C10*%
X121551836Y-93211001D02*
X121336164Y-93211001D01*
X121551836Y-92491001D02*
X121336164Y-92491001D01*
D13*
%TO.C,U5*%
X114160000Y-80181000D02*
X110160000Y-80181000D01*
X114160000Y-75181000D02*
X110160000Y-75181000D01*
D14*
X116525000Y-80186000D02*
G75*
G03*
X116525000Y-80186000I-100000J0D01*
G01*
D15*
%TO.C,16VLED1*%
X120030000Y-105200000D02*
G75*
G03*
X120030000Y-105200000I-50000J0D01*
G01*
D12*
%TO.C,D1*%
X120528660Y-97908470D02*
X120528660Y-96233470D01*
X120528660Y-97908470D02*
X120528660Y-98558470D01*
X117408660Y-97908470D02*
X117408660Y-97258470D01*
X117408660Y-97908470D02*
X117408660Y-98558470D01*
%TO.C,C13*%
X123446000Y-80899165D02*
X123446000Y-81114837D01*
X122726000Y-80899165D02*
X122726000Y-81114837D01*
%TO.C,C6*%
X117204000Y-87141164D02*
X117204000Y-87356836D01*
X116484000Y-87141164D02*
X116484000Y-87356836D01*
%TO.C,C14*%
X118996000Y-81174838D02*
X118996000Y-80959166D01*
X119716000Y-81174838D02*
X119716000Y-80959166D01*
%TO.C,U2*%
X127812000Y-100101000D02*
X127812000Y-96651000D01*
X127812000Y-100101000D02*
X127812000Y-102051000D01*
X122692000Y-100101000D02*
X122692000Y-98151000D01*
X122692000Y-100101000D02*
X122692000Y-102051000D01*
%TO.C,R22*%
X138962515Y-75864080D02*
X139437031Y-75864080D01*
X138962515Y-76909080D02*
X139437031Y-76909080D01*
D14*
%TO.C,U3*%
X109485999Y-82148000D02*
X109485999Y-82623000D01*
X109385999Y-82973000D02*
X109385999Y-83473000D01*
X107285999Y-82973000D02*
X109385999Y-82973000D01*
X109385999Y-83473000D02*
X107285999Y-83473000D01*
X107285999Y-83473000D02*
X107285999Y-82973000D01*
D12*
%TO.C,C26*%
X108348816Y-75703656D02*
X108348816Y-75919328D01*
X107628816Y-75703656D02*
X107628816Y-75919328D01*
%TO.C,Q1*%
X129236697Y-80380001D02*
X135246697Y-80380001D01*
X131486697Y-87200001D02*
X135246697Y-87200001D01*
X135246697Y-80380001D02*
X135246697Y-81640001D01*
X135246697Y-87200001D02*
X135246697Y-85940001D01*
%TO.C,C28*%
X122702164Y-108355000D02*
X122917836Y-108355000D01*
X122702164Y-109075000D02*
X122917836Y-109075000D01*
D15*
%TO.C,USBLED1*%
X114570000Y-71630000D02*
G75*
G03*
X114570000Y-71630000I-50000J0D01*
G01*
D12*
%TO.C,D5*%
X128143000Y-76533000D02*
X126673000Y-76533000D01*
X126673000Y-76533000D02*
X126673000Y-78818000D01*
X128143000Y-78818000D02*
X128143000Y-76533000D01*
D15*
%TO.C,3V3LED1*%
X122550001Y-95090178D02*
G75*
G03*
X122550001Y-95090178I-50000J0D01*
G01*
D12*
%TO.C,J2*%
X125676000Y-72530000D02*
X125676000Y-70730000D01*
X125676000Y-67020000D02*
X125676000Y-68480000D01*
X116736000Y-72530000D02*
X116736000Y-70730000D01*
X116736000Y-67020000D02*
X125676000Y-67020000D01*
X116736000Y-67020000D02*
X116736000Y-68480000D01*
%TO.C,J1*%
X94814100Y-113709999D02*
X94814100Y-104599999D01*
X107834100Y-113709999D02*
X94814100Y-113709999D01*
X108524100Y-113499999D02*
X108824100Y-112899999D01*
X109124100Y-113499999D02*
X108524100Y-113499999D01*
X107834100Y-112899999D02*
X107834100Y-113709999D01*
X108824100Y-112899999D02*
X109124100Y-113499999D01*
X110934100Y-111199999D02*
X112214100Y-111199999D01*
X110934100Y-110599999D02*
X112214100Y-110599999D01*
X107824100Y-109289999D02*
X107824100Y-108309999D01*
X110934100Y-106999999D02*
X112214100Y-106999999D01*
X110934100Y-106399999D02*
X112214100Y-106399999D01*
X107824100Y-105089999D02*
X107824100Y-104109999D01*
X110934100Y-102799999D02*
X112214100Y-102799999D01*
X110934100Y-102199999D02*
X112214100Y-102199999D01*
X107824100Y-100889999D02*
X107824100Y-99909999D01*
X110934100Y-98599999D02*
X112214100Y-98599999D01*
X110934100Y-97999999D02*
X112214100Y-97999999D01*
X107834100Y-96299999D02*
X107834100Y-95489999D01*
X94814100Y-95489999D02*
X94814100Y-104599999D01*
X107834100Y-95489999D02*
X94814100Y-95489999D01*
%TO.C,R3*%
X113562000Y-92602359D02*
X113562000Y-92909641D01*
X112802000Y-92602359D02*
X112802000Y-92909641D01*
%TO.C,TP8*%
X119002000Y-79127000D02*
G75*
G03*
X119002000Y-79127000I-700000J0D01*
G01*
%TO.C,J6*%
X150028882Y-115699140D02*
X150668882Y-115699140D01*
X150668882Y-115699140D02*
X150668882Y-115299140D01*
X142708882Y-115459140D02*
X150428882Y-115459140D01*
X142708882Y-115459140D02*
X142708882Y-108339140D01*
X148868882Y-115459140D02*
X148868882Y-108339140D01*
X149968882Y-115459140D02*
X149968882Y-108339140D01*
X150428882Y-115459140D02*
X150428882Y-108339140D01*
X146809882Y-111294140D02*
X146937882Y-111423140D01*
X147049882Y-111124140D02*
X147142882Y-111218140D01*
X144593882Y-109079140D02*
X144687882Y-109173140D01*
X144799882Y-108874140D02*
X144927882Y-109003140D01*
X142708882Y-108339140D02*
X150428882Y-108339140D01*
X145002882Y-115089140D02*
G75*
G03*
X146758776Y-115074498I866000J1439998D01*
G01*
X144428882Y-112783140D02*
G75*
G03*
X144443524Y-114539034I1439998J-866000D01*
G01*
X147308882Y-114515140D02*
G75*
G03*
X147548980Y-113620466I-1440014J866003D01*
G01*
X147548881Y-113649140D02*
G75*
G03*
X147293602Y-112758876I-1679989J3D01*
G01*
X146759881Y-112224141D02*
G75*
G03*
X144978690Y-112223637I-890999J-1425002D01*
G01*
X147548882Y-110149140D02*
G75*
G03*
X147548882Y-110149140I-1680000J0D01*
G01*
%TO.C,R21*%
X129389500Y-74815742D02*
X129389500Y-75290258D01*
X128344500Y-74815742D02*
X128344500Y-75290258D01*
%TO.C,TP6*%
X118720000Y-77670000D02*
G75*
G03*
X118720000Y-77670000I-700000J0D01*
G01*
%TO.C,Q4*%
X129222188Y-108870001D02*
X135232188Y-108870001D01*
X131472188Y-115690001D02*
X135232188Y-115690001D01*
X135232188Y-108870001D02*
X135232188Y-110130001D01*
X135232188Y-115690001D02*
X135232188Y-114430001D01*
%TO.C,C25*%
X115968815Y-76839329D02*
X115968815Y-76623657D01*
X116688815Y-76839329D02*
X116688815Y-76623657D01*
%TO.C,D8*%
X137857188Y-108790000D02*
X137857188Y-114410000D01*
X138117188Y-114410000D02*
X137857188Y-114410000D01*
X138267188Y-108790000D02*
X137857188Y-108790000D01*
X138267188Y-108790000D02*
X138267188Y-108000000D01*
X142077188Y-108790000D02*
X141667188Y-108790000D01*
X142077188Y-114410000D02*
X141817188Y-114410000D01*
X142077188Y-114410000D02*
X142077188Y-108790000D01*
%TO.C,C9*%
X118623669Y-83374200D02*
X118623669Y-83158528D01*
X119343669Y-83374200D02*
X119343669Y-83158528D01*
%TO.C,ENJUMPER1*%
X106668000Y-90914000D02*
X106668000Y-89584000D01*
X107998000Y-90914000D02*
X106668000Y-90914000D01*
X109268000Y-90914000D02*
X111868000Y-90914000D01*
X109268000Y-90914000D02*
X109268000Y-88254000D01*
X111868000Y-90914000D02*
X111868000Y-88254000D01*
X109268000Y-88254000D02*
X111868000Y-88254000D01*
%TO.C,R25*%
X133786744Y-107414410D02*
X134261260Y-107414410D01*
X133786744Y-108459410D02*
X134261260Y-108459410D01*
%TO.C,C15*%
X125061817Y-95580193D02*
X125277489Y-95580193D01*
X125061817Y-96300193D02*
X125277489Y-96300193D01*
D13*
%TO.C,U4*%
X114738927Y-81701000D02*
X114458927Y-81701000D01*
X114738927Y-81701000D02*
X114738927Y-81981000D01*
X111738927Y-81701000D02*
X112018927Y-81701000D01*
X111738927Y-81701000D02*
X111738927Y-81981000D01*
X114738927Y-84701000D02*
X114738927Y-84421000D01*
X114738927Y-84701000D02*
X114458927Y-84701000D01*
X111738927Y-84701000D02*
X111738927Y-84421000D01*
X111738927Y-84701000D02*
X112018927Y-84701000D01*
D14*
X113838927Y-81041000D02*
G75*
G03*
X113838927Y-81041000I-100000J0D01*
G01*
D12*
%TO.C,Q2*%
X129263003Y-89834001D02*
X135273003Y-89834001D01*
X131513003Y-96654001D02*
X135273003Y-96654001D01*
X135273003Y-89834001D02*
X135273003Y-91094001D01*
X135273003Y-96654001D02*
X135273003Y-95394001D01*
%TO.C,R7*%
X122656359Y-107395000D02*
X122963641Y-107395000D01*
X122656359Y-108155000D02*
X122963641Y-108155000D01*
%TO.C,J3*%
X150043393Y-87209136D02*
X150683393Y-87209136D01*
X150683393Y-87209136D02*
X150683393Y-86809136D01*
X142723393Y-86969136D02*
X150443393Y-86969136D01*
X142723393Y-86969136D02*
X142723393Y-79849136D01*
X148883393Y-86969136D02*
X148883393Y-79849136D01*
X149983393Y-86969136D02*
X149983393Y-79849136D01*
X150443393Y-86969136D02*
X150443393Y-79849136D01*
X146824393Y-82804136D02*
X146952393Y-82933136D01*
X147064393Y-82634136D02*
X147157393Y-82728136D01*
X144608393Y-80589136D02*
X144702393Y-80683136D01*
X144814393Y-80384136D02*
X144942393Y-80513136D01*
X142723393Y-79849136D02*
X150443393Y-79849136D01*
X145017393Y-86599136D02*
G75*
G03*
X146773287Y-86584494I866000J1439998D01*
G01*
X144443393Y-84293136D02*
G75*
G03*
X144458035Y-86049030I1439998J-866000D01*
G01*
X147323393Y-86025136D02*
G75*
G03*
X147563491Y-85130462I-1440014J866003D01*
G01*
X147563392Y-85159136D02*
G75*
G03*
X147308113Y-84268872I-1679989J3D01*
G01*
X146774392Y-83734137D02*
G75*
G03*
X144993201Y-83733633I-890999J-1425002D01*
G01*
X147563393Y-81659136D02*
G75*
G03*
X147563393Y-81659136I-1680000J0D01*
G01*
%TO.C,C20*%
X109696000Y-81898834D02*
X109696000Y-81683162D01*
X110416000Y-81898834D02*
X110416000Y-81683162D01*
%TD*%
%LPC*%
%TO.C,U4*%
G36*
X113438927Y-82326000D02*
G01*
X113038927Y-82326000D01*
X113038927Y-81601000D01*
X113438927Y-81601000D01*
X113438927Y-82326000D01*
G37*
D16*
X113438927Y-82326000D02*
X113038927Y-82326000D01*
X113038927Y-81601000D01*
X113438927Y-81601000D01*
X113438927Y-82326000D01*
G36*
X112938927Y-82326000D02*
G01*
X112538927Y-82326000D01*
X112538927Y-81601000D01*
X112938927Y-81601000D01*
X112938927Y-82326000D01*
G37*
X112938927Y-82326000D02*
X112538927Y-82326000D01*
X112538927Y-81601000D01*
X112938927Y-81601000D01*
X112938927Y-82326000D01*
G36*
X114838927Y-82651000D02*
G01*
X114113927Y-82651000D01*
X114113927Y-82251000D01*
X114838927Y-82251000D01*
X114838927Y-82651000D01*
G37*
X114838927Y-82651000D02*
X114113927Y-82651000D01*
X114113927Y-82251000D01*
X114838927Y-82251000D01*
X114838927Y-82651000D01*
G36*
X112363927Y-82651000D02*
G01*
X111638927Y-82651000D01*
X111638927Y-82251000D01*
X112363927Y-82251000D01*
X112363927Y-82651000D01*
G37*
X112363927Y-82651000D02*
X111638927Y-82651000D01*
X111638927Y-82251000D01*
X112363927Y-82251000D01*
X112363927Y-82651000D01*
G36*
X114838927Y-83151000D02*
G01*
X114113927Y-83151000D01*
X114113927Y-82751000D01*
X114838927Y-82751000D01*
X114838927Y-83151000D01*
G37*
X114838927Y-83151000D02*
X114113927Y-83151000D01*
X114113927Y-82751000D01*
X114838927Y-82751000D01*
X114838927Y-83151000D01*
G36*
X112363927Y-83151000D02*
G01*
X111638927Y-83151000D01*
X111638927Y-82751000D01*
X112363927Y-82751000D01*
X112363927Y-83151000D01*
G37*
X112363927Y-83151000D02*
X111638927Y-83151000D01*
X111638927Y-82751000D01*
X112363927Y-82751000D01*
X112363927Y-83151000D01*
G36*
X113463927Y-84801000D02*
G01*
X113013927Y-84801000D01*
X113013927Y-84076000D01*
X113463927Y-84076000D01*
X113463927Y-84801000D01*
G37*
X113463927Y-84801000D02*
X113013927Y-84801000D01*
X113013927Y-84076000D01*
X113463927Y-84076000D01*
X113463927Y-84801000D01*
G36*
X113938927Y-82191000D02*
G01*
X113803927Y-82326000D01*
X113538927Y-82326000D01*
X113538927Y-81601000D01*
X113938927Y-81601000D01*
X113938927Y-82191000D01*
G37*
X113938927Y-82191000D02*
X113803927Y-82326000D01*
X113538927Y-82326000D01*
X113538927Y-81601000D01*
X113938927Y-81601000D01*
X113938927Y-82191000D01*
G36*
X114838927Y-84151000D02*
G01*
X114171927Y-84151000D01*
X114113927Y-84050000D01*
X114113927Y-83251000D01*
X114838927Y-83251000D01*
X114838927Y-84151000D01*
G37*
X114838927Y-84151000D02*
X114171927Y-84151000D01*
X114113927Y-84050000D01*
X114113927Y-83251000D01*
X114838927Y-83251000D01*
X114838927Y-84151000D01*
G36*
X112363927Y-84050000D02*
G01*
X112305927Y-84151000D01*
X111638927Y-84151000D01*
X111638927Y-83251000D01*
X112363927Y-83251000D01*
X112363927Y-84050000D01*
G37*
X112363927Y-84050000D02*
X112305927Y-84151000D01*
X111638927Y-84151000D01*
X111638927Y-83251000D01*
X112363927Y-83251000D01*
X112363927Y-84050000D01*
G36*
X114113927Y-84177000D02*
G01*
X114113927Y-84801000D01*
X113663927Y-84801000D01*
X113663927Y-84076000D01*
X114055927Y-84076000D01*
X114113927Y-84177000D01*
G37*
X114113927Y-84177000D02*
X114113927Y-84801000D01*
X113663927Y-84801000D01*
X113663927Y-84076000D01*
X114055927Y-84076000D01*
X114113927Y-84177000D01*
G36*
X112813927Y-84801000D02*
G01*
X112363927Y-84801000D01*
X112363927Y-84177000D01*
X112421927Y-84076000D01*
X112813927Y-84076000D01*
X112813927Y-84801000D01*
G37*
X112813927Y-84801000D02*
X112363927Y-84801000D01*
X112363927Y-84177000D01*
X112421927Y-84076000D01*
X112813927Y-84076000D01*
X112813927Y-84801000D01*
%TD*%
D17*
%TO.C,C21*%
X110700376Y-83793856D03*
X110700376Y-85343856D03*
%TD*%
D18*
%TO.C,BOOTJUMPER1*%
X107998999Y-93191999D03*
D19*
X110538999Y-93191999D03*
%TD*%
D20*
%TO.C,D9*%
X127410000Y-71305000D03*
X127410000Y-72880000D03*
%TD*%
D21*
%TO.C,R13*%
X115460000Y-71050000D03*
X115460000Y-70030000D03*
%TD*%
D22*
%TO.C,D7*%
X139037999Y-89413999D03*
X140977999Y-89413999D03*
D23*
X140007999Y-93763999D03*
%TD*%
D24*
%TO.C,C7*%
X118062000Y-83743001D03*
X118062000Y-82783001D03*
%TD*%
D25*
%TO.C,J5*%
X145883298Y-104067358D03*
D26*
X145883299Y-100567359D03*
%TD*%
D27*
%TO.C,C5*%
X115904000Y-88619000D03*
X115904000Y-89579000D03*
%TD*%
D28*
%TO.C,R4*%
X120900000Y-94150178D03*
X121920000Y-94150178D03*
%TD*%
D29*
%TO.C,Firing4*%
X131871500Y-107926911D03*
X130296500Y-107926911D03*
%TD*%
D30*
%TO.C,H3*%
X109200000Y-70200000D03*
%TD*%
D31*
%TO.C,R6*%
X125590000Y-82280000D03*
X124570000Y-82280000D03*
%TD*%
D29*
%TO.C,Firing1*%
X131883000Y-79430000D03*
X130308000Y-79430000D03*
%TD*%
D21*
%TO.C,R14*%
X109115999Y-85883001D03*
X109115999Y-84863001D03*
%TD*%
D27*
%TO.C,C12*%
X118057000Y-84604001D03*
X118057000Y-85564001D03*
%TD*%
D21*
%TO.C,R1*%
X114447000Y-92509000D03*
X114447000Y-91489000D03*
%TD*%
D32*
%TO.C,C16*%
X124686000Y-95016000D03*
X125646000Y-95016000D03*
%TD*%
D33*
%TO.C,H4*%
X146800000Y-121800000D03*
%TD*%
D34*
%TO.C,Y1*%
X120525999Y-81576999D03*
X121925999Y-81576999D03*
X121925999Y-80476999D03*
X120525999Y-80476999D03*
%TD*%
D25*
%TO.C,J4*%
X145909698Y-94613137D03*
D26*
X145909699Y-91113138D03*
%TD*%
D35*
%TO.C,Q3*%
X130186605Y-100398222D03*
X130186605Y-102698222D03*
X130186605Y-104998222D03*
D36*
X136486605Y-102698222D03*
%TD*%
D29*
%TO.C,Firing3*%
X131872500Y-98355000D03*
X130297500Y-98355000D03*
%TD*%
D37*
%TO.C,R29*%
X138385773Y-68622580D03*
X140035773Y-68622580D03*
%TD*%
%TO.C,R18*%
X133210500Y-79440000D03*
X134860500Y-79440000D03*
%TD*%
%TO.C,R24*%
X133199999Y-98364999D03*
X134849999Y-98364999D03*
%TD*%
D38*
%TO.C,L1*%
X115905000Y-87744000D03*
X115905000Y-86774000D03*
%TD*%
D24*
%TO.C,C22*%
X110976000Y-82270999D03*
X110976000Y-81310999D03*
%TD*%
D30*
%TO.C,H2*%
X109200000Y-121800000D03*
%TD*%
D39*
%TO.C,R27*%
X128870000Y-68307500D03*
X128870000Y-69957500D03*
%TD*%
D40*
%TO.C,L3*%
X112181066Y-86948961D03*
X114306066Y-86948961D03*
%TD*%
D21*
%TO.C,R5*%
X117127000Y-85577001D03*
X117127000Y-84557001D03*
%TD*%
D27*
%TO.C,C27*%
X107060020Y-75327999D03*
X107060020Y-76287999D03*
%TD*%
D20*
%TO.C,D10*%
X127410000Y-68345000D03*
X127410000Y-69920000D03*
%TD*%
D41*
%TO.C,R16*%
X107978814Y-77148777D03*
X107978814Y-78168777D03*
%TD*%
D29*
%TO.C,Firing2*%
X131859000Y-88903000D03*
X130284000Y-88903000D03*
%TD*%
D41*
%TO.C,R30*%
X124220000Y-107715000D03*
X124220000Y-108735000D03*
%TD*%
D22*
%TO.C,D3*%
X139011696Y-79959999D03*
X140951696Y-79959999D03*
D23*
X139981696Y-84309999D03*
%TD*%
D42*
%TO.C,U1*%
X119181000Y-85687000D03*
X119181000Y-86087000D03*
X119181000Y-86487000D03*
X119181000Y-86887000D03*
X119181000Y-87287000D03*
X119181000Y-87687000D03*
X119181000Y-88087000D03*
X119181000Y-88487000D03*
X119181000Y-88887000D03*
X119181000Y-89287000D03*
X119181000Y-89687000D03*
X119181000Y-90087000D03*
X119181000Y-90487000D03*
X119181000Y-90887000D03*
D43*
X120026000Y-91732000D03*
X120426000Y-91732000D03*
X120826000Y-91732000D03*
X121226000Y-91732000D03*
X121626000Y-91732000D03*
X122026000Y-91732000D03*
X122426000Y-91732000D03*
X122826000Y-91732000D03*
X123226000Y-91732000D03*
X123626000Y-91732000D03*
X124026000Y-91732000D03*
X124426000Y-91732000D03*
X124826000Y-91732000D03*
X125226000Y-91732000D03*
D42*
X126071000Y-90887000D03*
X126071000Y-90487000D03*
X126071000Y-90087000D03*
X126071000Y-89687000D03*
X126071000Y-89287000D03*
X126071000Y-88887000D03*
X126071000Y-88487000D03*
X126071000Y-88087000D03*
X126071000Y-87687000D03*
X126071000Y-87287000D03*
X126071000Y-86887000D03*
X126071000Y-86487000D03*
X126071000Y-86087000D03*
X126071000Y-85687000D03*
D43*
X125226000Y-84842000D03*
X124826000Y-84842000D03*
X124426000Y-84842000D03*
X124026000Y-84842000D03*
X123626000Y-84842000D03*
X123226000Y-84842000D03*
X122826000Y-84842000D03*
X122426000Y-84842000D03*
X122026000Y-84842000D03*
X121626000Y-84842000D03*
X121226000Y-84842000D03*
X120826000Y-84842000D03*
X120426000Y-84842000D03*
X120026000Y-84842000D03*
D44*
X122625999Y-88286999D03*
%TD*%
D39*
%TO.C,R20*%
X128869000Y-77191000D03*
X128869000Y-78841000D03*
%TD*%
D27*
%TO.C,C2*%
X115432000Y-91534000D03*
X115432000Y-92494000D03*
%TD*%
%TO.C,C24*%
X116325001Y-78331000D03*
X116325001Y-79291000D03*
%TD*%
D24*
%TO.C,C3*%
X112813000Y-91333000D03*
X112813000Y-90373000D03*
%TD*%
D27*
%TO.C,C4*%
X114984000Y-88618000D03*
X114984000Y-89578000D03*
%TD*%
D37*
%TO.C,R23*%
X138369773Y-73890580D03*
X140019773Y-73890580D03*
%TD*%
D38*
%TO.C,L2*%
X120566000Y-83742001D03*
X120566000Y-82772001D03*
%TD*%
D28*
%TO.C,R11*%
X123250000Y-76050000D03*
X124270000Y-76050000D03*
%TD*%
D31*
%TO.C,R15*%
X113566002Y-80931000D03*
X112546002Y-80931000D03*
%TD*%
D21*
%TO.C,R36*%
X119978627Y-108670427D03*
X119978627Y-107650427D03*
%TD*%
D45*
%TO.C,TXLED1*%
X125555000Y-81340000D03*
X124585000Y-81340000D03*
%TD*%
D37*
%TO.C,R28*%
X138378773Y-71266580D03*
X140028773Y-71266580D03*
%TD*%
D46*
%TO.C,JP1*%
X121817000Y-103145000D03*
X121817000Y-102040000D03*
%TD*%
D37*
%TO.C,R19*%
X133186499Y-88912999D03*
X134836499Y-88912999D03*
%TD*%
D27*
%TO.C,C1*%
X114060000Y-88618000D03*
X114060000Y-89578000D03*
%TD*%
D17*
%TO.C,C23*%
X115771000Y-83606000D03*
X115771000Y-85156000D03*
%TD*%
D41*
%TO.C,R17*%
X107978816Y-79008777D03*
X107978816Y-80028777D03*
%TD*%
D24*
%TO.C,C8*%
X116644000Y-93188000D03*
X116644000Y-92228000D03*
%TD*%
D22*
%TO.C,D4*%
X139011604Y-98868221D03*
X140951604Y-98868221D03*
D23*
X139981604Y-103218221D03*
%TD*%
D24*
%TO.C,C17*%
X118974001Y-101222001D03*
X118974001Y-100262001D03*
%TD*%
D47*
%TO.C,D2*%
X122109999Y-77909931D03*
D48*
X122109999Y-76209931D03*
X120109999Y-76209931D03*
X120109999Y-78109931D03*
%TD*%
D31*
%TO.C,R2*%
X125580000Y-80400000D03*
X124560000Y-80400000D03*
%TD*%
D46*
%TO.C,R9*%
X117737660Y-103072080D03*
X117737660Y-101422080D03*
%TD*%
D32*
%TO.C,C11*%
X124082000Y-83721001D03*
X125042000Y-83721001D03*
%TD*%
D49*
%TO.C,R8*%
X127325000Y-105000000D03*
X125675000Y-105000000D03*
%TD*%
D39*
%TO.C,R26*%
X128870000Y-71267500D03*
X128870000Y-72917500D03*
%TD*%
D20*
%TO.C,D6*%
X127405000Y-74257500D03*
X127405000Y-75832500D03*
%TD*%
D21*
%TO.C,R12*%
X115460000Y-73480000D03*
X115460000Y-72460000D03*
%TD*%
D50*
%TO.C,U6*%
X136813999Y-77696349D03*
X136813999Y-76416349D03*
X136813999Y-75156349D03*
X136813999Y-73886349D03*
X136813999Y-72606349D03*
X136813999Y-71336349D03*
X136813999Y-70076349D03*
X136813999Y-68796349D03*
X130513999Y-68796349D03*
X130513999Y-70076349D03*
X130513999Y-71336349D03*
X130513999Y-72606349D03*
X130513999Y-73886349D03*
X130513999Y-75156349D03*
X130513999Y-76416349D03*
X130513999Y-77696349D03*
%TD*%
D39*
%TO.C,R10*%
X120167660Y-101422081D03*
X120167660Y-103072081D03*
%TD*%
D51*
%TO.C,C10*%
X121924000Y-92851001D03*
X120964000Y-92851001D03*
%TD*%
D52*
%TO.C,U5*%
X114630000Y-79586000D03*
X114630000Y-78316000D03*
X114630000Y-77046000D03*
X114630000Y-75776000D03*
X109690000Y-75776000D03*
X109690000Y-77046000D03*
X109690000Y-78316000D03*
X109690000Y-79586000D03*
D53*
X112159999Y-77680999D03*
%TD*%
D54*
%TO.C,16VLED1*%
X119980000Y-105805000D03*
X119980000Y-106775000D03*
%TD*%
D55*
%TO.C,D1*%
X119918660Y-96970970D03*
X118018660Y-96970970D03*
X118968660Y-98845970D03*
%TD*%
D27*
%TO.C,C13*%
X123086000Y-80527001D03*
X123086000Y-81487001D03*
%TD*%
%TO.C,C6*%
X116844000Y-86769000D03*
X116844000Y-87729000D03*
%TD*%
D24*
%TO.C,C14*%
X119356000Y-81547002D03*
X119356000Y-80587002D03*
%TD*%
D56*
%TO.C,U2*%
X127157000Y-97626000D03*
X125887000Y-97626000D03*
X124617000Y-97626000D03*
X123347000Y-97626000D03*
X123347000Y-102576000D03*
X124617000Y-102576000D03*
X125887000Y-102576000D03*
X127157000Y-102576000D03*
%TD*%
D37*
%TO.C,R22*%
X138374773Y-76386580D03*
X140024773Y-76386580D03*
%TD*%
D57*
%TO.C,U3*%
X109085998Y-82384999D03*
X108585998Y-82384999D03*
X108085998Y-82384999D03*
X107585998Y-82384999D03*
X107585998Y-84060999D03*
X108085998Y-84060999D03*
X108585998Y-84060999D03*
X109085998Y-84060999D03*
%TD*%
D27*
%TO.C,C26*%
X107988816Y-75331492D03*
X107988816Y-76291492D03*
%TD*%
D35*
%TO.C,Q1*%
X130186696Y-81490000D03*
X130186696Y-83790000D03*
X130186696Y-86090000D03*
D36*
X136486696Y-83790000D03*
%TD*%
D32*
%TO.C,C28*%
X122330000Y-108715000D03*
X123290000Y-108715000D03*
%TD*%
D30*
%TO.C,H1*%
X146800000Y-70200000D03*
%TD*%
D38*
%TO.C,USBLED1*%
X114520000Y-71025000D03*
X114520000Y-70055000D03*
%TD*%
D20*
%TO.C,D5*%
X127408000Y-77230500D03*
X127408000Y-78805500D03*
%TD*%
D45*
%TO.C,3V3LED1*%
X121895001Y-95090178D03*
X120925001Y-95090178D03*
%TD*%
D58*
%TO.C,J2*%
X124096000Y-73310000D03*
X118316000Y-73310000D03*
D59*
X124405999Y-74369999D03*
X123605999Y-74369999D03*
D60*
X122455999Y-74369999D03*
X121455999Y-74369999D03*
X120955999Y-74369999D03*
X119955999Y-74369999D03*
D59*
X118805999Y-74369999D03*
X118005999Y-74369999D03*
X118005999Y-74369999D03*
X118805999Y-74369999D03*
D60*
X119455999Y-74369999D03*
X120455999Y-74369999D03*
X121955999Y-74369999D03*
X122955999Y-74369999D03*
D59*
X123605999Y-74369999D03*
X124405999Y-74369999D03*
D61*
X125525999Y-73789999D03*
D62*
X125525999Y-69619999D03*
D61*
X116885999Y-73789999D03*
D62*
X116885999Y-69619999D03*
%TD*%
D63*
%TO.C,J1*%
X108824100Y-110899999D03*
D64*
X108824099Y-106699998D03*
X108824099Y-102499998D03*
X108824099Y-98299998D03*
X114324099Y-110899998D03*
X114324099Y-106699998D03*
X114324099Y-102499998D03*
X114324099Y-98299998D03*
%TD*%
D41*
%TO.C,R3*%
X113182000Y-92246000D03*
X113182000Y-93266000D03*
%TD*%
D65*
%TO.C,TP8*%
X118302000Y-79127000D03*
%TD*%
D25*
%TO.C,J6*%
X145868881Y-113649139D03*
D26*
X145868882Y-110149140D03*
%TD*%
D39*
%TO.C,R21*%
X128867000Y-74228000D03*
X128867000Y-75878000D03*
%TD*%
D65*
%TO.C,TP6*%
X118020000Y-77670000D03*
%TD*%
D35*
%TO.C,Q4*%
X130172187Y-109980000D03*
X130172187Y-112280000D03*
X130172187Y-114580000D03*
D36*
X136472187Y-112280000D03*
%TD*%
D24*
%TO.C,C25*%
X116328815Y-77211493D03*
X116328815Y-76251493D03*
%TD*%
D22*
%TO.C,D8*%
X138997187Y-108449999D03*
X140937187Y-108449999D03*
D23*
X139967187Y-112799999D03*
%TD*%
D24*
%TO.C,C9*%
X118983669Y-83746364D03*
X118983669Y-82786364D03*
%TD*%
D18*
%TO.C,ENJUMPER1*%
X107997999Y-89583999D03*
D19*
X110537999Y-89583999D03*
%TD*%
D37*
%TO.C,R25*%
X133199002Y-107936910D03*
X134849002Y-107936910D03*
%TD*%
D32*
%TO.C,C15*%
X124689653Y-95940193D03*
X125649653Y-95940193D03*
%TD*%
D35*
%TO.C,Q2*%
X130213002Y-90944000D03*
X130213002Y-93244000D03*
X130213002Y-95544000D03*
D36*
X136513002Y-93244000D03*
%TD*%
D28*
%TO.C,R7*%
X122300000Y-107775000D03*
X123320000Y-107775000D03*
%TD*%
D25*
%TO.C,J3*%
X145883392Y-85159135D03*
D26*
X145883393Y-81659136D03*
%TD*%
D24*
%TO.C,C20*%
X110056000Y-82270998D03*
X110056000Y-81310998D03*
%TD*%
M02*
