M48
; DRILL file {KiCad (7.0.0)} date Tue Jun 13 01:23:34 2023
; FORMAT={3:3/ absolute / metric / suppress trailing zeros}
; #@! TF.CreationDate,2023-06-13T01:23:34+01:00
; #@! TF.GenerationSoftware,Kicad,Pcbnew,(7.0.0)
; #@! TF.FileFunction,Plated,1,4,PTH
FMAT,2
METRIC,LZ
; #@! TA.AperFunction,Plated,PTH,ViaDrill
T1C0.300
; #@! TA.AperFunction,Plated,PTH,ViaDrill
T2C0.325
; #@! TA.AperFunction,Plated,PTH,ViaDrill
T3C0.350
; #@! TA.AperFunction,Plated,PTH,ViaDrill
T4C0.400
; #@! TA.AperFunction,Plated,PTH,ViaDrill
T5C0.500
; #@! TA.AperFunction,Plated,PTH,ComponentDrill
T6C0.600
; #@! TA.AperFunction,Plated,PTH,ComponentDrill
T7C1.000
; #@! TA.AperFunction,Plated,PTH,ComponentDrill
T8C1.200
; #@! TA.AperFunction,Plated,PTH,ComponentDrill
T9C1.800
; #@! TA.AperFunction,Plated,PTH,ComponentDrill
T10C3.200
%
G90
G05
T1
X106483Y-072165
X106483Y-074665
X106483Y-077165
X106483Y-079665
X106483Y-082165
X106483Y-084665
X106483Y-087165
X106483Y-089665
X106483Y-092165
X106483Y-094665
X106483Y-097165
X106483Y-099665
X106483Y-102165
X106483Y-104665
X106483Y-107165
X106483Y-109665
X106483Y-112165
X106483Y-114665
X106483Y-117165
X106483Y-119665
X107245Y-07708
X107974Y-07453
X107993Y-080591
X108328Y-081756
X108546Y-0854
X109086Y-081941
X110091Y-091653
X11018Y-080823
X111559Y-087325
X111563Y-086582
X11159Y-06749
X1116Y-1245
X11169Y-084687
X111748Y-08102
X11228Y-084687
X112714Y-087319
X112716Y-086566
X11275Y-08385
X113363Y-088625
X1137Y-083825
X113771Y-086574
X113772Y-087315
X113809Y-09251
X11409Y-06749
X1141Y-1245
X114217Y-084687
X11478Y-08469
X114922Y-087321
X114929Y-08657
X114988Y-090331
X116044Y-092435
X116103Y-075652
X116253Y-101199
X116301Y-079942
X11659Y-06749
X1166Y-1245
X11677Y-08989
X1174Y-083736
X11758Y-09564
X1179Y-0767
X118484Y-099766
X118625Y-081725
X118653Y-080842
X11882Y-07541
X118855Y-102865
X11887Y-08002
X11891Y-07802
X118963Y-097683
X11898Y-101977
X119075Y-08225
X11909Y-06749
X1191Y-1245
X119429Y-099803
X11952Y-07961
X11968Y-0824
X11969Y-09264
X119825Y-08345
X119877Y-080586
X12021Y-07294
X120324Y-07948
X12069Y-07674
X12086Y-0865
X12088Y-08828
X12088Y-09003
X120958Y-0934
X121176Y-079478
X12148Y-07843
X12152Y-07673
X12159Y-06749
X1216Y-1245
X12173Y-083165
X12173Y-08375
X121731Y-082581
X121823Y-101307
X121924Y-093441
X121972Y-079479
X122379Y-082581
X1224Y-08329
X122575Y-081487
X12262Y-09003
X12263Y-0865
X12264Y-0883
X12267Y-09272
X122964Y-082588
X122992Y-079481
X12352Y-083716
X123796Y-093722
X1238Y-107145
X123801Y-081967
X123802Y-081034
X123806Y-080062
X12389Y-09085
X12392Y-09536
X12409Y-06749
X1241Y-1245
X12417Y-08976
X124358Y-092644
X12438Y-08653
X1244Y-08829
X12447Y-08302
X12465Y-09084
X124686Y-094231
X125263Y-085508
X125331Y-087685
X12565Y-09423
X125724Y-083725
X12608Y-08178
X12625Y-08039
X126417Y-095968
X12659Y-06749
X1266Y-1245
X128Y-074982
X128033Y-072054
X128406Y-078028
X128429Y-08057
X12887Y-072018
X128878Y-07498
X12909Y-06749
X1291Y-1245
X129289Y-077824
X13159Y-06749
X1316Y-1245
X13409Y-06749
X1341Y-1245
X13659Y-06749
X1366Y-1245
X13909Y-06749
X1391Y-1245
X140864Y-076393
X1409Y-07157
X140933Y-073924
X14159Y-06749
X1416Y-1245
X14409Y-06749
X1441Y-1245
X1476Y-124375
X149517Y-121775
X14952Y-072156
X14952Y-074656
X14952Y-077156
X14952Y-079656
X14952Y-082156
X14952Y-084656
X14952Y-087156
X14952Y-089656
X14952Y-092156
X14952Y-094656
X14952Y-097156
X14952Y-099656
X14952Y-102156
X14952Y-104656
X14952Y-107156
X14952Y-109802
X14952Y-112302
X14952Y-114802
X14952Y-117156
X14952Y-119656
T2
X1129Y-1088
X116Y-1088
T3
X1288Y-105075
T4
X111495Y-079151
X111525Y-076191
X111525Y-076191
X112665Y-076191
X112715Y-079151
X119922Y-109648
X131784Y-070077
T5
X1129Y-1132
X1161Y-1132
X1174Y-107
X1174Y-1099
X1187Y-1083
X1187Y-1112
X1187Y-1132
X11871Y-10575
X1285Y-1155
X128525Y-08625
X128625Y-11355
X129475Y-087525
X1295Y-096975
X1302Y-106425
X1309Y-087525
X130925Y-096975
X1317Y-10415
X1317Y-11375
X131725Y-08525
X13175Y-0947
X13205Y-1012
X13205Y-105625
X13205Y-1108
X13205Y-115225
X132075Y-0823
X132075Y-086725
X1321Y-09175
X1321Y-096175
X1321Y-0997
X1321Y-1093
X132125Y-0808
X13215Y-09025
X133125Y-1042
X133125Y-1138
X13315Y-0853
X133175Y-09475
X1334Y-100475
X1334Y-110075
X133425Y-081575
X13345Y-091025
X134Y-10555
X134Y-11515
X134025Y-08665
X13405Y-0961
X1347Y-0996
X1347Y-1092
X134725Y-0807
X13475Y-09015
X13475Y-101225
X13475Y-104175
X13475Y-110825
X13475Y-113775
X134775Y-082325
X134775Y-085275
X1348Y-091775
X1348Y-094725
X1402Y-1168
X1421Y-1158
X143475Y-11275
X1435Y-114946
X1435Y-1169
X1448Y-1159
X147Y-1159
X1482Y-114746
X1484Y-112746
X1486Y-1169
T7
X107998Y-089584
X107999Y-093192
X110538Y-089584
X110539Y-093192
T8
X145869Y-110149
X145869Y-113649
X145883Y-100567
X145883Y-104067
X145883Y-081659
X145883Y-085159
X14591Y-091113
X14591Y-094613
T9
X108824Y-0983
X108824Y-1025
X108824Y-1067
X108824Y-1109
X114324Y-0983
X114324Y-1025
X114324Y-1067
X114324Y-1109
T10
X1092Y-0702
X1092Y-1218
X1468Y-0702
T6
G00X116886Y-06922
M15
G01X116886Y-07002
M16
G05
G00X116886Y-07324
M15
G01X116886Y-07434
M16
G05
G00X125526Y-06922
M15
G01X125526Y-07002
M16
G05
G00X125526Y-07324
M15
G01X125526Y-07434
M16
G05
T0
M30
