%TF.GenerationSoftware,KiCad,Pcbnew,(7.0.0)*%
%TF.CreationDate,2023-03-30T21:36:19+01:00*%
%TF.ProjectId,flintandsteel,666c696e-7461-46e6-9473-7465656c2e6b,rev?*%
%TF.SameCoordinates,Original*%
%TF.FileFunction,Drillmap*%
%TF.FilePolarity,Positive*%
%FSLAX45Y45*%
G04 Gerber Fmt 4.5, Leading zero omitted, Abs format (unit mm)*
G04 Created by KiCad (PCBNEW (7.0.0)) date 2023-03-30 21:36:19*
%MOMM*%
%LPD*%
G01*
G04 APERTURE LIST*
%ADD10C,0.050000*%
%ADD11C,0.200000*%
%ADD12C,0.030000*%
%ADD13C,0.040000*%
%ADD14C,0.060000*%
%ADD15C,0.100000*%
%ADD16C,0.120000*%
%ADD17C,0.180000*%
%ADD18C,0.320000*%
G04 APERTURE END LIST*
D10*
X4499700Y-6720000D02*
G75*
G03*
X4193000Y-7026800I0J-306700D01*
G01*
X8293300Y-6720000D02*
X4499700Y-6720000D01*
X8593300Y-7020000D02*
X8593300Y-12720000D01*
X4193300Y-12713300D02*
X4193000Y-7026800D01*
X8293300Y-13020000D02*
G75*
G03*
X8593300Y-12720000I0J300000D01*
G01*
X4500000Y-13020000D02*
X8293300Y-13020000D01*
X4193300Y-12713300D02*
G75*
G03*
X4500000Y-13020000I306700J0D01*
G01*
X8593300Y-7020000D02*
G75*
G03*
X8293300Y-6720000I-300000J0D01*
G01*
D11*
D12*
X4226300Y-7221500D02*
X4256300Y-7251500D01*
X4256300Y-7221500D02*
X4226300Y-7251500D01*
X4226300Y-7471500D02*
X4256300Y-7501500D01*
X4256300Y-7471500D02*
X4226300Y-7501500D01*
X4226300Y-7721500D02*
X4256300Y-7751500D01*
X4256300Y-7721500D02*
X4226300Y-7751500D01*
X4226300Y-7971500D02*
X4256300Y-8001500D01*
X4256300Y-7971500D02*
X4226300Y-8001500D01*
X4226300Y-8221500D02*
X4256300Y-8251500D01*
X4256300Y-8221500D02*
X4226300Y-8251500D01*
X4226300Y-8471500D02*
X4256300Y-8501500D01*
X4256300Y-8471500D02*
X4226300Y-8501500D01*
X4226300Y-8721500D02*
X4256300Y-8751500D01*
X4256300Y-8721500D02*
X4226300Y-8751500D01*
X4226300Y-8971500D02*
X4256300Y-9001500D01*
X4256300Y-8971500D02*
X4226300Y-9001500D01*
X4226300Y-9221500D02*
X4256300Y-9251500D01*
X4256300Y-9221500D02*
X4226300Y-9251500D01*
X4226300Y-9471500D02*
X4256300Y-9501500D01*
X4256300Y-9471500D02*
X4226300Y-9501500D01*
X4226300Y-9721500D02*
X4256300Y-9751500D01*
X4256300Y-9721500D02*
X4226300Y-9751500D01*
X4226300Y-9971500D02*
X4256300Y-10001500D01*
X4256300Y-9971500D02*
X4226300Y-10001500D01*
X4226300Y-10221500D02*
X4256300Y-10251500D01*
X4256300Y-10221500D02*
X4226300Y-10251500D01*
X4226300Y-10471500D02*
X4256300Y-10501500D01*
X4256300Y-10471500D02*
X4226300Y-10501500D01*
X4226300Y-10721500D02*
X4256300Y-10751500D01*
X4256300Y-10721500D02*
X4226300Y-10751500D01*
X4226300Y-10971500D02*
X4256300Y-11001500D01*
X4256300Y-10971500D02*
X4226300Y-11001500D01*
X4226300Y-11221500D02*
X4256300Y-11251500D01*
X4256300Y-11221500D02*
X4226300Y-11251500D01*
X4226300Y-11471500D02*
X4256300Y-11501500D01*
X4256300Y-11471500D02*
X4226300Y-11501500D01*
X4226300Y-11721500D02*
X4256300Y-11751500D01*
X4256300Y-11721500D02*
X4226300Y-11751500D01*
X4226300Y-11971500D02*
X4256300Y-12001500D01*
X4256300Y-11971500D02*
X4226300Y-12001500D01*
X4226300Y-12221500D02*
X4256300Y-12251500D01*
X4256300Y-12221500D02*
X4226300Y-12251500D01*
X4226300Y-12471500D02*
X4256300Y-12501500D01*
X4256300Y-12471500D02*
X4226300Y-12501500D01*
X4302500Y-7713000D02*
X4332500Y-7743000D01*
X4332500Y-7713000D02*
X4302500Y-7743000D01*
X4375400Y-7458000D02*
X4405400Y-7488000D01*
X4405400Y-7458000D02*
X4375400Y-7488000D01*
X4377300Y-8064100D02*
X4407300Y-8094100D01*
X4407300Y-8064100D02*
X4377300Y-8094100D01*
X4410808Y-8180583D02*
X4440808Y-8210583D01*
X4440808Y-8180583D02*
X4410808Y-8210583D01*
X4432600Y-8542100D02*
X4462600Y-8572100D01*
X4462600Y-8542100D02*
X4432600Y-8572100D01*
X4486600Y-8199100D02*
X4516600Y-8229100D01*
X4516600Y-8199100D02*
X4486600Y-8229100D01*
X4587100Y-9170300D02*
X4617100Y-9200300D01*
X4617100Y-9170300D02*
X4587100Y-9200300D01*
X4596000Y-8087300D02*
X4626000Y-8117300D01*
X4626000Y-8087300D02*
X4596000Y-8117300D01*
X4733900Y-8737500D02*
X4763900Y-8767500D01*
X4763900Y-8737500D02*
X4733900Y-8767500D01*
X4734300Y-8663200D02*
X4764300Y-8693200D01*
X4764300Y-8663200D02*
X4734300Y-8693200D01*
X4737200Y-6759800D02*
X4767200Y-6789800D01*
X4767200Y-6759800D02*
X4737200Y-6789800D01*
X4737200Y-12959800D02*
X4767200Y-12989800D01*
X4767200Y-12959800D02*
X4737200Y-12989800D01*
X4752800Y-8107000D02*
X4782800Y-8137000D01*
X4782800Y-8107000D02*
X4752800Y-8137000D01*
X4756700Y-8473700D02*
X4786700Y-8503700D01*
X4786700Y-8473700D02*
X4756700Y-8503700D01*
X4801700Y-8473700D02*
X4831700Y-8503700D01*
X4831700Y-8473700D02*
X4801700Y-8503700D01*
X4849400Y-8736900D02*
X4879400Y-8766900D01*
X4879400Y-8736900D02*
X4849400Y-8766900D01*
X4849600Y-8661600D02*
X4879600Y-8691600D01*
X4879600Y-8661600D02*
X4849600Y-8691600D01*
X4850700Y-8393700D02*
X4880700Y-8423700D01*
X4880700Y-8393700D02*
X4850700Y-8423700D01*
X4914300Y-8867500D02*
X4944300Y-8897500D01*
X4944300Y-8867500D02*
X4914300Y-8897500D01*
X4952700Y-8393700D02*
X4982700Y-8423700D01*
X4982700Y-8393700D02*
X4952700Y-8423700D01*
X4955100Y-8662400D02*
X4985100Y-8692400D01*
X4985100Y-8662400D02*
X4955100Y-8692400D01*
X4955200Y-8736500D02*
X4985200Y-8766500D01*
X4985200Y-8736500D02*
X4955200Y-8766500D01*
X4958900Y-9256000D02*
X4988900Y-9286000D01*
X4988900Y-9256000D02*
X4958900Y-9286000D01*
X4987200Y-6759800D02*
X5017200Y-6789800D01*
X5017200Y-6759800D02*
X4987200Y-6789800D01*
X4987200Y-12959800D02*
X5017200Y-12989800D01*
X5017200Y-12959800D02*
X4987200Y-12989800D01*
X4999700Y-8473700D02*
X5029700Y-8503700D01*
X5029700Y-8473700D02*
X4999700Y-8503700D01*
X5044700Y-8473700D02*
X5074700Y-8503700D01*
X5074700Y-8473700D02*
X5044700Y-8503700D01*
X5070200Y-8737100D02*
X5100200Y-8767100D01*
X5100200Y-8737100D02*
X5070200Y-8767100D01*
X5070900Y-8662000D02*
X5100900Y-8692000D01*
X5100900Y-8662000D02*
X5070900Y-8692000D01*
X5076800Y-9038100D02*
X5106800Y-9068100D01*
X5106800Y-9038100D02*
X5076800Y-9068100D01*
X5182400Y-9248500D02*
X5212400Y-9278500D01*
X5212400Y-9248500D02*
X5182400Y-9278500D01*
X5188282Y-7570249D02*
X5218282Y-7600249D01*
X5218282Y-7570249D02*
X5188282Y-7600249D01*
X5203300Y-10124900D02*
X5233300Y-10154900D01*
X5233300Y-10124900D02*
X5203300Y-10154900D01*
X5208100Y-7999200D02*
X5238100Y-8029200D01*
X5238100Y-7999200D02*
X5208100Y-8029200D01*
X5237200Y-6759800D02*
X5267200Y-6789800D01*
X5267200Y-6759800D02*
X5237200Y-6789800D01*
X5237200Y-12959800D02*
X5267200Y-12989800D01*
X5267200Y-12959800D02*
X5237200Y-12989800D01*
X5318000Y-8378600D02*
X5348000Y-8408600D01*
X5348000Y-8378600D02*
X5318000Y-8408600D01*
X5327100Y-9559900D02*
X5357100Y-9589900D01*
X5357100Y-9559900D02*
X5327100Y-9589900D01*
X5407500Y-7684000D02*
X5437500Y-7714000D01*
X5437500Y-7684000D02*
X5407500Y-7714000D01*
X5426400Y-9981600D02*
X5456400Y-10011600D01*
X5456400Y-9981600D02*
X5426400Y-10011600D01*
X5443200Y-8181200D02*
X5473200Y-8211200D01*
X5473200Y-8181200D02*
X5443200Y-8211200D01*
X5443300Y-8089200D02*
X5473300Y-8119200D01*
X5473300Y-8089200D02*
X5443300Y-8119200D01*
X5460000Y-7545000D02*
X5490000Y-7575000D01*
X5490000Y-7545000D02*
X5460000Y-7575000D01*
X5462200Y-8010100D02*
X5492200Y-8040100D01*
X5492200Y-8010100D02*
X5462200Y-8040100D01*
X5463500Y-10291500D02*
X5493500Y-10321500D01*
X5493500Y-10291500D02*
X5463500Y-10321500D01*
X5474300Y-9773300D02*
X5504300Y-9803300D01*
X5504300Y-9773300D02*
X5474300Y-9803300D01*
X5476000Y-10202700D02*
X5506000Y-10232700D01*
X5506000Y-10202700D02*
X5476000Y-10232700D01*
X5487200Y-6759800D02*
X5517200Y-6789800D01*
X5517200Y-6759800D02*
X5487200Y-6789800D01*
X5487200Y-12959800D02*
X5517200Y-12989800D01*
X5517200Y-12959800D02*
X5487200Y-12989800D01*
X5501300Y-8227200D02*
X5531300Y-8257200D01*
X5531300Y-8227200D02*
X5501300Y-8257200D01*
X5520900Y-9985300D02*
X5550900Y-10015300D01*
X5550900Y-9985300D02*
X5520900Y-10015300D01*
X5524400Y-7959000D02*
X5554400Y-7989000D01*
X5554400Y-7959000D02*
X5524400Y-7989000D01*
X5556100Y-11917800D02*
X5586100Y-11947800D01*
X5586100Y-11917800D02*
X5556100Y-11947800D01*
X5556900Y-12172100D02*
X5586900Y-12202100D01*
X5586900Y-12172100D02*
X5556900Y-12202100D01*
X5557100Y-8245300D02*
X5587100Y-8275300D01*
X5587100Y-8245300D02*
X5557100Y-8275300D01*
X5557600Y-12387600D02*
X5587600Y-12417600D01*
X5587600Y-12387600D02*
X5557600Y-12417600D01*
X5557600Y-12625000D02*
X5587600Y-12655000D01*
X5587600Y-12625000D02*
X5557600Y-12655000D01*
X5557600Y-12837000D02*
X5587600Y-12867000D01*
X5587600Y-12837000D02*
X5557600Y-12867000D01*
X5563700Y-8304100D02*
X5593700Y-8334100D01*
X5593700Y-8304100D02*
X5563700Y-8334100D01*
X5565700Y-8063600D02*
X5595700Y-8093600D01*
X5595700Y-8063600D02*
X5565700Y-8093600D01*
X5567611Y-8360446D02*
X5597611Y-8390446D01*
X5597611Y-8360446D02*
X5567611Y-8390446D01*
X5598900Y-11634400D02*
X5628900Y-11664400D01*
X5628900Y-11634400D02*
X5598900Y-11664400D01*
X5599000Y-7299000D02*
X5629000Y-7329000D01*
X5629000Y-7299000D02*
X5599000Y-7329000D01*
X5610400Y-7952400D02*
X5640400Y-7982400D01*
X5640400Y-7952400D02*
X5610400Y-7982400D01*
X5626100Y-11771500D02*
X5656100Y-11801500D01*
X5656100Y-11771500D02*
X5626100Y-11801500D01*
X5647000Y-7679000D02*
X5677000Y-7709000D01*
X5677000Y-7679000D02*
X5647000Y-7709000D01*
X5664000Y-8655000D02*
X5694000Y-8685000D01*
X5694000Y-8655000D02*
X5664000Y-8685000D01*
X5666000Y-8833000D02*
X5696000Y-8863000D01*
X5696000Y-8833000D02*
X5666000Y-8863000D01*
X5666000Y-9008000D02*
X5696000Y-9038000D01*
X5696000Y-9008000D02*
X5666000Y-9038000D01*
X5673800Y-9348300D02*
X5703800Y-9378300D01*
X5703800Y-9348300D02*
X5673800Y-9378300D01*
X5691800Y-9771300D02*
X5721800Y-9801300D01*
X5721800Y-9771300D02*
X5691800Y-9801300D01*
X5695600Y-7952800D02*
X5725600Y-7982800D01*
X5725600Y-7952800D02*
X5695600Y-7982800D01*
X5730000Y-7678000D02*
X5760000Y-7708000D01*
X5760000Y-7678000D02*
X5730000Y-7708000D01*
X5737200Y-6759800D02*
X5767200Y-6789800D01*
X5767200Y-6759800D02*
X5737200Y-6789800D01*
X5737200Y-12959800D02*
X5767200Y-12989800D01*
X5767200Y-12959800D02*
X5737200Y-12989800D01*
X5746000Y-8321600D02*
X5776000Y-8351600D01*
X5776000Y-8321600D02*
X5746000Y-8351600D01*
X5746000Y-8380100D02*
X5776000Y-8410100D01*
X5776000Y-8380100D02*
X5746000Y-8410100D01*
X5746100Y-8263200D02*
X5776100Y-8293200D01*
X5776100Y-8263200D02*
X5746100Y-8293200D01*
X5760300Y-10135700D02*
X5790300Y-10165700D01*
X5790300Y-10135700D02*
X5760300Y-10165700D01*
X5770400Y-9349100D02*
X5800400Y-9379100D01*
X5800400Y-9349100D02*
X5770400Y-9379100D01*
X5775200Y-7952900D02*
X5805200Y-7982900D01*
X5805200Y-7952900D02*
X5775200Y-7982900D01*
X5811271Y-11546824D02*
X5841271Y-11576824D01*
X5841271Y-11546824D02*
X5811271Y-11576824D01*
X5811271Y-11611824D02*
X5841271Y-11641824D01*
X5841271Y-11611824D02*
X5811271Y-11641824D01*
X5812000Y-8388000D02*
X5842000Y-8418000D01*
X5842000Y-8388000D02*
X5812000Y-8418000D01*
X5815900Y-8263100D02*
X5845900Y-8293100D01*
X5845900Y-8263100D02*
X5815900Y-8293100D01*
X5816271Y-11431824D02*
X5846271Y-11461824D01*
X5846271Y-11431824D02*
X5816271Y-11461824D01*
X5823000Y-9293000D02*
X5853000Y-9323000D01*
X5853000Y-9293000D02*
X5823000Y-9323000D01*
X5835500Y-8153700D02*
X5865500Y-8183700D01*
X5865500Y-8153700D02*
X5835500Y-8183700D01*
X5840000Y-9008000D02*
X5870000Y-9038000D01*
X5870000Y-9008000D02*
X5840000Y-9038000D01*
X5841000Y-8655000D02*
X5871000Y-8685000D01*
X5871000Y-8655000D02*
X5841000Y-8685000D01*
X5842000Y-8835000D02*
X5872000Y-8865000D01*
X5872000Y-8835000D02*
X5842000Y-8865000D01*
X5867000Y-7796000D02*
X5897000Y-7826000D01*
X5897000Y-7796000D02*
X5867000Y-7826000D01*
X5874400Y-8263800D02*
X5904400Y-8293800D01*
X5904400Y-8263800D02*
X5874400Y-8293800D01*
X5877200Y-7953100D02*
X5907200Y-7983100D01*
X5907200Y-7953100D02*
X5877200Y-7983100D01*
X5911271Y-11546824D02*
X5941271Y-11576824D01*
X5941271Y-11546824D02*
X5911271Y-11576824D01*
X5911271Y-11611824D02*
X5941271Y-11641824D01*
X5941271Y-11611824D02*
X5911271Y-11641824D01*
X5930000Y-8376600D02*
X5960000Y-8406600D01*
X5960000Y-8376600D02*
X5930000Y-8406600D01*
X5935600Y-11027200D02*
X5965600Y-11057200D01*
X5965600Y-11027200D02*
X5935600Y-11057200D01*
X5957600Y-9377200D02*
X5987600Y-9407200D01*
X5987600Y-9377200D02*
X5957600Y-9407200D01*
X5958100Y-8201700D02*
X5988100Y-8231700D01*
X5988100Y-8201700D02*
X5958100Y-8231700D01*
X5958200Y-8108400D02*
X5988200Y-8138400D01*
X5988200Y-8108400D02*
X5958200Y-8138400D01*
X5958600Y-8011200D02*
X5988600Y-8041200D01*
X5988600Y-8011200D02*
X5958600Y-8041200D01*
X5967000Y-9090000D02*
X5997000Y-9120000D01*
X5997000Y-9090000D02*
X5967000Y-9120000D01*
X5973900Y-9506800D02*
X6003900Y-9536800D01*
X6003900Y-9506800D02*
X5973900Y-9536800D01*
X5976271Y-11431824D02*
X6006271Y-11461824D01*
X6006271Y-11431824D02*
X5976271Y-11461824D01*
X5984400Y-8319600D02*
X6014400Y-8349600D01*
X6014400Y-8319600D02*
X5984400Y-8349600D01*
X5987200Y-6759800D02*
X6017200Y-6789800D01*
X6017200Y-6759800D02*
X5987200Y-6789800D01*
X5987200Y-12959800D02*
X6017200Y-12989800D01*
X6017200Y-12959800D02*
X5987200Y-12989800D01*
X6013800Y-9269400D02*
X6043800Y-9299400D01*
X6043800Y-9269400D02*
X6013800Y-9299400D01*
X6013913Y-11539490D02*
X6043913Y-11569490D01*
X6043913Y-11539490D02*
X6013913Y-11569490D01*
X6015000Y-9008000D02*
X6045000Y-9038000D01*
X6045000Y-9008000D02*
X6015000Y-9038000D01*
X6016000Y-8658000D02*
X6046000Y-8688000D01*
X6046000Y-8658000D02*
X6016000Y-8688000D01*
X6018000Y-8834000D02*
X6048000Y-8864000D01*
X6048000Y-8834000D02*
X6018000Y-8864000D01*
X6035100Y-10813000D02*
X6065100Y-10843000D01*
X6065100Y-10813000D02*
X6035100Y-10843000D01*
X6040643Y-9088991D02*
X6070643Y-9118991D01*
X6070643Y-9088991D02*
X6040643Y-9118991D01*
X6044302Y-11026301D02*
X6074302Y-11056301D01*
X6074302Y-11026301D02*
X6044302Y-11056301D01*
X6046584Y-9428121D02*
X6076584Y-9458121D01*
X6076584Y-9428121D02*
X6046584Y-9458121D01*
X6104300Y-8555800D02*
X6134300Y-8585800D01*
X6134300Y-8555800D02*
X6104300Y-8585800D01*
X6111100Y-8773500D02*
X6141100Y-8803500D01*
X6141100Y-8773500D02*
X6111100Y-8803500D01*
X6143000Y-9428000D02*
X6173000Y-9458000D01*
X6173000Y-9428000D02*
X6143000Y-9458000D01*
X6150400Y-8377500D02*
X6180400Y-8407500D01*
X6180400Y-8377500D02*
X6150400Y-8407500D01*
X6186000Y-8183000D02*
X6216000Y-8213000D01*
X6216000Y-8183000D02*
X6186000Y-8213000D01*
X6201200Y-11467700D02*
X6231200Y-11497700D01*
X6231200Y-11467700D02*
X6201200Y-11497700D01*
X6208000Y-8045000D02*
X6238000Y-8075000D01*
X6238000Y-8045000D02*
X6208000Y-8075000D01*
X6211800Y-11526500D02*
X6241800Y-11556500D01*
X6241800Y-11526500D02*
X6211800Y-11556500D01*
X6219700Y-9601800D02*
X6249700Y-9631800D01*
X6249700Y-9601800D02*
X6219700Y-9631800D01*
X6237200Y-6759800D02*
X6267200Y-6789800D01*
X6267200Y-6759800D02*
X6237200Y-6789800D01*
X6237200Y-12959800D02*
X6267200Y-12989800D01*
X6267200Y-12959800D02*
X6237200Y-12989800D01*
X6378000Y-7503200D02*
X6408000Y-7533200D01*
X6408000Y-7503200D02*
X6378000Y-7533200D01*
X6381300Y-7210400D02*
X6411300Y-7240400D01*
X6411300Y-7210400D02*
X6381300Y-7240400D01*
X6418600Y-7807800D02*
X6448600Y-7837800D01*
X6448600Y-7807800D02*
X6418600Y-7837800D01*
X6420900Y-8062000D02*
X6450900Y-8092000D01*
X6450900Y-8062000D02*
X6420900Y-8092000D01*
X6465000Y-7206800D02*
X6495000Y-7236800D01*
X6495000Y-7206800D02*
X6465000Y-7236800D01*
X6465800Y-7503000D02*
X6495800Y-7533000D01*
X6495800Y-7503000D02*
X6465800Y-7533000D01*
X6487200Y-6759800D02*
X6517200Y-6789800D01*
X6517200Y-6759800D02*
X6487200Y-6789800D01*
X6487200Y-12959800D02*
X6517200Y-12989800D01*
X6517200Y-12959800D02*
X6487200Y-12989800D01*
X6506900Y-7787400D02*
X6536900Y-7817400D01*
X6536900Y-7787400D02*
X6506900Y-7817400D01*
X6737200Y-6759800D02*
X6767200Y-6789800D01*
X6767200Y-6759800D02*
X6737200Y-6789800D01*
X6737200Y-12959800D02*
X6767200Y-12989800D01*
X6767200Y-12959800D02*
X6737200Y-12989800D01*
X6987200Y-6759800D02*
X7017200Y-6789800D01*
X7017200Y-6759800D02*
X6987200Y-6789800D01*
X6987200Y-12959800D02*
X7017200Y-12989800D01*
X7017200Y-12959800D02*
X6987200Y-12989800D01*
X7237200Y-6759800D02*
X7267200Y-6789800D01*
X7267200Y-6759800D02*
X7237200Y-6789800D01*
X7237200Y-12959800D02*
X7267200Y-12989800D01*
X7267200Y-12959800D02*
X7237200Y-12989800D01*
X7487200Y-6759800D02*
X7517200Y-6789800D01*
X7517200Y-6759800D02*
X7487200Y-6789800D01*
X7487200Y-12959800D02*
X7517200Y-12989800D01*
X7517200Y-12959800D02*
X7487200Y-12989800D01*
X7664400Y-7644300D02*
X7694400Y-7674300D01*
X7694400Y-7644300D02*
X7664400Y-7674300D01*
X7671300Y-7397400D02*
X7701300Y-7427400D01*
X7701300Y-7397400D02*
X7671300Y-7427400D01*
X7673500Y-7141900D02*
X7703500Y-7171900D01*
X7703500Y-7141900D02*
X7673500Y-7171900D01*
X7737200Y-6759800D02*
X7767200Y-6789800D01*
X7767200Y-6759800D02*
X7737200Y-6789800D01*
X7737200Y-12959800D02*
X7767200Y-12989800D01*
X7767200Y-12959800D02*
X7737200Y-12989800D01*
X7858000Y-8341100D02*
X7888000Y-8371100D01*
X7888000Y-8341100D02*
X7858000Y-8371100D01*
X7987200Y-6759800D02*
X8017200Y-6789800D01*
X8017200Y-6759800D02*
X7987200Y-6789800D01*
X7987200Y-12959800D02*
X8017200Y-12989800D01*
X8017200Y-12959800D02*
X7987200Y-12989800D01*
X8530000Y-7220600D02*
X8560000Y-7250600D01*
X8560000Y-7220600D02*
X8530000Y-7250600D01*
X8530000Y-7470600D02*
X8560000Y-7500600D01*
X8560000Y-7470600D02*
X8530000Y-7500600D01*
X8530000Y-7720600D02*
X8560000Y-7750600D01*
X8560000Y-7720600D02*
X8530000Y-7750600D01*
X8530000Y-7970600D02*
X8560000Y-8000600D01*
X8560000Y-7970600D02*
X8530000Y-8000600D01*
X8530000Y-8220600D02*
X8560000Y-8250600D01*
X8560000Y-8220600D02*
X8530000Y-8250600D01*
X8530000Y-8470600D02*
X8560000Y-8500600D01*
X8560000Y-8470600D02*
X8530000Y-8500600D01*
X8530000Y-8720600D02*
X8560000Y-8750600D01*
X8560000Y-8720600D02*
X8530000Y-8750600D01*
X8530000Y-8970600D02*
X8560000Y-9000600D01*
X8560000Y-8970600D02*
X8530000Y-9000600D01*
X8530000Y-9220600D02*
X8560000Y-9250600D01*
X8560000Y-9220600D02*
X8530000Y-9250600D01*
X8530000Y-9470600D02*
X8560000Y-9500600D01*
X8560000Y-9470600D02*
X8530000Y-9500600D01*
X8530000Y-9720600D02*
X8560000Y-9750600D01*
X8560000Y-9720600D02*
X8530000Y-9750600D01*
X8530000Y-9970600D02*
X8560000Y-10000600D01*
X8560000Y-9970600D02*
X8530000Y-10000600D01*
X8530000Y-10220600D02*
X8560000Y-10250600D01*
X8560000Y-10220600D02*
X8530000Y-10250600D01*
X8530000Y-10470600D02*
X8560000Y-10500600D01*
X8560000Y-10470600D02*
X8530000Y-10500600D01*
X8530000Y-10720600D02*
X8560000Y-10750600D01*
X8560000Y-10720600D02*
X8530000Y-10750600D01*
X8530000Y-10970600D02*
X8560000Y-11000600D01*
X8560000Y-10970600D02*
X8530000Y-11000600D01*
X8530000Y-11220600D02*
X8560000Y-11250600D01*
X8560000Y-11220600D02*
X8530000Y-11250600D01*
X8530000Y-11470600D02*
X8560000Y-11500600D01*
X8560000Y-11470600D02*
X8530000Y-11500600D01*
X8530000Y-11720600D02*
X8560000Y-11750600D01*
X8560000Y-11720600D02*
X8530000Y-11750600D01*
X8530000Y-11970600D02*
X8560000Y-12000600D01*
X8560000Y-11970600D02*
X8530000Y-12000600D01*
X8530000Y-12220600D02*
X8560000Y-12250600D01*
X8560000Y-12220600D02*
X8530000Y-12250600D01*
X8530000Y-12470600D02*
X8560000Y-12500600D01*
X8560000Y-12470600D02*
X8530000Y-12500600D01*
D13*
X4762500Y-7935100D02*
G75*
G03*
X4762500Y-7935100I-20000J0D01*
G01*
X4765500Y-7639100D02*
G75*
G03*
X4765500Y-7639100I-20000J0D01*
G01*
X4765500Y-7639100D02*
G75*
G03*
X4765500Y-7639100I-20000J0D01*
G01*
X4879500Y-7639100D02*
G75*
G03*
X4879500Y-7639100I-20000J0D01*
G01*
X4884500Y-7935100D02*
G75*
G03*
X4884500Y-7935100I-20000J0D01*
G01*
X5605200Y-10984800D02*
G75*
G03*
X5605200Y-10984800I-20000J0D01*
G01*
X6535999Y-11582759D02*
G75*
G03*
X6535999Y-11582759I-20000J0D01*
G01*
X6544999Y-10648000D02*
G75*
G03*
X6544999Y-10648000I-20000J0D01*
G01*
X6548400Y-9705800D02*
G75*
G03*
X6548400Y-9705800I-20000J0D01*
G01*
X6550700Y-8763300D02*
G75*
G03*
X6550700Y-8763300I-20000J0D01*
G01*
X6616000Y-11582759D02*
G75*
G03*
X6616000Y-11582759I-20000J0D01*
G01*
X6625000Y-10648000D02*
G75*
G03*
X6625000Y-10648000I-20000J0D01*
G01*
X6628400Y-9705800D02*
G75*
G03*
X6628400Y-9705800I-20000J0D01*
G01*
X6630700Y-8763300D02*
G75*
G03*
X6630700Y-8763300I-20000J0D01*
G01*
X6696000Y-11582758D02*
G75*
G03*
X6696000Y-11582758I-20000J0D01*
G01*
X6705000Y-10648000D02*
G75*
G03*
X6705000Y-10648000I-20000J0D01*
G01*
X6708400Y-9705800D02*
G75*
G03*
X6708400Y-9705800I-20000J0D01*
G01*
X6710700Y-8763300D02*
G75*
G03*
X6710700Y-8763300I-20000J0D01*
G01*
X6775700Y-11419259D02*
G75*
G03*
X6775700Y-11419259I-20000J0D01*
G01*
X6776000Y-11582759D02*
G75*
G03*
X6776000Y-11582759I-20000J0D01*
G01*
X6776000Y-11502758D02*
G75*
G03*
X6776000Y-11502758I-20000J0D01*
G01*
X6784700Y-10484500D02*
G75*
G03*
X6784700Y-10484500I-20000J0D01*
G01*
X6784999Y-10648000D02*
G75*
G03*
X6784999Y-10648000I-20000J0D01*
G01*
X6785000Y-10568000D02*
G75*
G03*
X6785000Y-10568000I-20000J0D01*
G01*
X6788101Y-9542300D02*
G75*
G03*
X6788101Y-9542300I-20000J0D01*
G01*
X6788400Y-9705800D02*
G75*
G03*
X6788400Y-9705800I-20000J0D01*
G01*
X6788400Y-9625800D02*
G75*
G03*
X6788400Y-9625800I-20000J0D01*
G01*
X6790400Y-8599800D02*
G75*
G03*
X6790400Y-8599800I-20000J0D01*
G01*
X6790700Y-8763300D02*
G75*
G03*
X6790700Y-8763300I-20000J0D01*
G01*
X6790700Y-8683300D02*
G75*
G03*
X6790700Y-8683300I-20000J0D01*
G01*
X6791423Y-7027688D02*
G75*
G03*
X6791423Y-7027688I-20000J0D01*
G01*
D10*
X4448100Y-11408500D02*
X4448100Y-11458500D01*
X4423100Y-11433500D02*
X4473100Y-11433500D01*
X4451100Y-12080500D02*
X4451100Y-12130500D01*
X4426100Y-12105500D02*
X4476100Y-12105500D01*
X4579400Y-11948100D02*
X4579400Y-11998100D01*
X4554400Y-11973100D02*
X4604400Y-11973100D01*
X4615100Y-11311400D02*
X4615100Y-11361400D01*
X4590100Y-11336400D02*
X4640100Y-11336400D01*
X4687500Y-12090100D02*
X4687500Y-12140100D01*
X4662500Y-12115100D02*
X4712500Y-12115100D01*
X4786700Y-11211200D02*
X4786700Y-11261200D01*
X4761700Y-11236200D02*
X4811700Y-11236200D01*
X4810900Y-11372200D02*
X4810900Y-11422200D01*
X4785900Y-11397200D02*
X4835900Y-11397200D01*
X4819900Y-11954400D02*
X4819900Y-12004400D01*
X4794900Y-11979400D02*
X4844900Y-11979400D01*
X4886000Y-10445300D02*
X4886000Y-10495300D01*
X4861000Y-10470300D02*
X4911000Y-10470300D01*
X4917400Y-12079500D02*
X4917400Y-12129500D01*
X4892400Y-12104500D02*
X4942400Y-12104500D01*
X5007500Y-11321300D02*
X5007500Y-11371300D01*
X4982500Y-11346300D02*
X5032500Y-11346300D01*
X5040400Y-11945900D02*
X5040400Y-11995900D01*
X5015400Y-11970900D02*
X5065400Y-11970900D01*
X5164400Y-12069900D02*
X5164400Y-12119900D01*
X5139400Y-12094900D02*
X5189400Y-12094900D01*
X5175900Y-11388100D02*
X5175900Y-11438100D01*
X5150900Y-11413100D02*
X5200900Y-11413100D01*
X5249100Y-11254400D02*
X5249100Y-11304400D01*
X5224100Y-11279400D02*
X5274100Y-11279400D01*
X5275600Y-11945900D02*
X5275600Y-11995900D01*
X5250600Y-11970900D02*
X5300600Y-11970900D01*
X5409800Y-10447200D02*
X5409800Y-10497200D01*
X5384800Y-10472200D02*
X5434800Y-10472200D01*
X5418000Y-10947100D02*
X5418000Y-10997100D01*
X5393000Y-10972100D02*
X5443000Y-10972100D01*
X5420600Y-11406500D02*
X5420600Y-11456500D01*
X5395600Y-11431500D02*
X5445600Y-11431500D01*
X5422000Y-11252200D02*
X5422000Y-11302200D01*
X5397000Y-11277200D02*
X5447000Y-11277200D01*
X5431400Y-12107000D02*
X5431400Y-12157000D01*
X5406400Y-12132000D02*
X5456400Y-12132000D01*
X5719400Y-11336800D02*
X5719400Y-11386800D01*
X5694400Y-11361800D02*
X5744400Y-11361800D01*
X6852664Y-12095000D02*
X6852664Y-12145000D01*
X6827664Y-12120000D02*
X6877664Y-12120000D01*
X6852665Y-12295000D02*
X6852665Y-12345000D01*
X6827665Y-12320000D02*
X6877665Y-12320000D01*
X6852665Y-12490000D02*
X6852665Y-12540000D01*
X6827665Y-12515000D02*
X6877665Y-12515000D01*
X6852665Y-12850000D02*
X6852665Y-12900000D01*
X6827665Y-12875000D02*
X6877665Y-12875000D01*
X6853359Y-11775634D02*
X6853359Y-11825634D01*
X6828359Y-11800634D02*
X6878359Y-11800634D01*
X6967665Y-12685000D02*
X6967665Y-12735000D01*
X6942665Y-12710000D02*
X6992665Y-12710000D01*
X6982664Y-11945000D02*
X6982664Y-11995000D01*
X6957664Y-11970000D02*
X7007664Y-11970000D01*
X7073700Y-10070400D02*
X7073700Y-10120400D01*
X7048700Y-10095400D02*
X7098700Y-10095400D01*
X7076300Y-11012800D02*
X7076300Y-11062800D01*
X7051300Y-11037800D02*
X7101300Y-11037800D01*
X7076500Y-11403200D02*
X7076500Y-11453200D01*
X7051500Y-11428200D02*
X7101500Y-11428200D01*
X7077200Y-10459000D02*
X7077200Y-10509000D01*
X7052200Y-10484000D02*
X7102200Y-10484000D01*
X7077800Y-8567200D02*
X7077800Y-8617200D01*
X7052800Y-8592200D02*
X7102800Y-8592200D01*
X7078700Y-8179000D02*
X7078700Y-8229000D01*
X7053700Y-8204000D02*
X7103700Y-8204000D01*
X7079700Y-9125400D02*
X7079700Y-9175400D01*
X7054700Y-9150400D02*
X7104700Y-9150400D01*
X7080200Y-9513500D02*
X7080200Y-9563500D01*
X7055200Y-9538500D02*
X7105200Y-9538500D01*
X7107665Y-12840000D02*
X7107665Y-12890000D01*
X7082665Y-12865000D02*
X7132665Y-12865000D01*
X7122664Y-11775000D02*
X7122664Y-11825000D01*
X7097664Y-11800000D02*
X7147664Y-11800000D01*
X7222665Y-12720000D02*
X7222665Y-12770000D01*
X7197665Y-12745000D02*
X7247665Y-12745000D01*
X7237664Y-11915000D02*
X7237664Y-11965000D01*
X7212664Y-11940000D02*
X7262664Y-11940000D01*
X7367665Y-12845000D02*
X7367665Y-12895000D01*
X7342665Y-12870000D02*
X7392665Y-12870000D01*
X7367665Y-12645000D02*
X7367665Y-12695000D01*
X7342665Y-12670000D02*
X7392665Y-12670000D01*
X7382665Y-11950000D02*
X7382665Y-12000000D01*
X7357665Y-11975000D02*
X7407665Y-11975000D01*
X7387664Y-11775000D02*
X7387664Y-11825000D01*
X7362664Y-11800000D02*
X7412664Y-11800000D01*
X7947100Y-12662000D02*
X7947100Y-12712000D01*
X7922100Y-12687000D02*
X7972100Y-12687000D01*
X8356900Y-12206300D02*
X8356900Y-12256300D01*
X8331900Y-12231300D02*
X8381900Y-12231300D01*
D14*
X5302813Y-7003213D02*
X5302813Y-6960787D01*
X5260387Y-6960787D01*
X5260387Y-7003213D01*
X5302813Y-7003213D01*
D11*
X5251600Y-6942000D02*
X5251600Y-7022000D01*
X5251600Y-7022000D02*
G75*
G03*
X5311600Y-7022000I30000J0D01*
G01*
X5311600Y-7022000D02*
X5311600Y-6942000D01*
X5311600Y-6942000D02*
G75*
G03*
X5251600Y-6942000I-30000J0D01*
G01*
D14*
X5302813Y-7420213D02*
X5302813Y-7377787D01*
X5260387Y-7377787D01*
X5260387Y-7420213D01*
X5302813Y-7420213D01*
D11*
X5251600Y-7344000D02*
X5251600Y-7454000D01*
X5251600Y-7454000D02*
G75*
G03*
X5311600Y-7454000I30000J0D01*
G01*
X5311600Y-7454000D02*
X5311600Y-7344000D01*
X5311600Y-7344000D02*
G75*
G03*
X5251600Y-7344000I-30000J0D01*
G01*
D14*
X6166813Y-7003213D02*
X6166813Y-6960787D01*
X6124387Y-6960787D01*
X6124387Y-7003213D01*
X6166813Y-7003213D01*
D11*
X6115600Y-6942000D02*
X6115600Y-7022000D01*
X6115600Y-7022000D02*
G75*
G03*
X6175600Y-7022000I30000J0D01*
G01*
X6175600Y-7022000D02*
X6175600Y-6942000D01*
X6175600Y-6942000D02*
G75*
G03*
X6115600Y-6942000I-30000J0D01*
G01*
D14*
X6166813Y-7420213D02*
X6166813Y-7377787D01*
X6124387Y-7377787D01*
X6124387Y-7420213D01*
X6166813Y-7420213D01*
D11*
X6115600Y-7344000D02*
X6115600Y-7454000D01*
X6115600Y-7454000D02*
G75*
G03*
X6175600Y-7454000I30000J0D01*
G01*
X6175600Y-7454000D02*
X6175600Y-7344000D01*
X6175600Y-7344000D02*
G75*
G03*
X6115600Y-7344000I-30000J0D01*
G01*
D15*
X4392800Y-9028400D02*
X4442800Y-8978400D01*
X4392800Y-8928400D01*
X4342800Y-8978400D01*
X4392800Y-9028400D01*
X4392900Y-9389200D02*
X4442900Y-9339200D01*
X4392900Y-9289200D01*
X4342900Y-9339200D01*
X4392900Y-9389200D01*
X4646800Y-9028400D02*
X4696800Y-8978400D01*
X4646800Y-8928400D01*
X4596800Y-8978400D01*
X4646800Y-9028400D01*
X4646900Y-9389200D02*
X4696900Y-9339200D01*
X4646900Y-9289200D01*
X4596900Y-9339200D01*
X4646900Y-9389200D01*
D16*
X8119888Y-10960323D02*
X8239888Y-11080323D01*
X8239888Y-10960323D02*
X8119888Y-11080323D01*
X8239888Y-11020323D02*
G75*
G03*
X8239888Y-11020323I-60000J0D01*
G01*
X8119888Y-11310323D02*
X8239888Y-11430323D01*
X8239888Y-11310323D02*
X8119888Y-11430323D01*
X8239888Y-11370323D02*
G75*
G03*
X8239888Y-11370323I-60000J0D01*
G01*
X8121330Y-10016736D02*
X8241330Y-10136736D01*
X8241330Y-10016736D02*
X8121330Y-10136736D01*
X8241330Y-10076736D02*
G75*
G03*
X8241330Y-10076736I-60000J0D01*
G01*
X8121330Y-10366736D02*
X8241330Y-10486736D01*
X8241330Y-10366736D02*
X8121330Y-10486736D01*
X8241330Y-10426736D02*
G75*
G03*
X8241330Y-10426736I-60000J0D01*
G01*
X8121339Y-8125914D02*
X8241339Y-8245914D01*
X8241339Y-8125914D02*
X8121339Y-8245914D01*
X8241339Y-8185914D02*
G75*
G03*
X8241339Y-8185914I-60000J0D01*
G01*
X8121339Y-8475914D02*
X8241339Y-8595914D01*
X8241339Y-8475914D02*
X8121339Y-8595914D01*
X8241339Y-8535914D02*
G75*
G03*
X8241339Y-8535914I-60000J0D01*
G01*
X8123970Y-9071314D02*
X8243970Y-9191314D01*
X8243970Y-9071314D02*
X8123970Y-9191314D01*
X8243970Y-9131314D02*
G75*
G03*
X8243970Y-9131314I-60000J0D01*
G01*
X8123970Y-9421314D02*
X8243970Y-9541314D01*
X8243970Y-9421314D02*
X8123970Y-9541314D01*
X8243970Y-9481314D02*
G75*
G03*
X8243970Y-9481314I-60000J0D01*
G01*
D17*
X4385410Y-9760000D02*
X4565410Y-9940000D01*
X4565410Y-9760000D02*
X4385410Y-9940000D01*
X4475410Y-9760000D02*
X4475410Y-9940000D01*
X4385410Y-9850000D02*
X4565410Y-9850000D01*
X4385410Y-10180000D02*
X4565410Y-10360000D01*
X4565410Y-10180000D02*
X4385410Y-10360000D01*
X4475410Y-10180000D02*
X4475410Y-10360000D01*
X4385410Y-10270000D02*
X4565410Y-10270000D01*
X4385410Y-10600000D02*
X4565410Y-10780000D01*
X4565410Y-10600000D02*
X4385410Y-10780000D01*
X4475410Y-10600000D02*
X4475410Y-10780000D01*
X4385410Y-10690000D02*
X4565410Y-10690000D01*
X4385410Y-11020000D02*
X4565410Y-11200000D01*
X4565410Y-11020000D02*
X4385410Y-11200000D01*
X4475410Y-11020000D02*
X4475410Y-11200000D01*
X4385410Y-11110000D02*
X4565410Y-11110000D01*
X4935410Y-9760000D02*
X5115410Y-9940000D01*
X5115410Y-9760000D02*
X4935410Y-9940000D01*
X5025410Y-9760000D02*
X5025410Y-9940000D01*
X4935410Y-9850000D02*
X5115410Y-9850000D01*
X4935410Y-10180000D02*
X5115410Y-10360000D01*
X5115410Y-10180000D02*
X4935410Y-10360000D01*
X5025410Y-10180000D02*
X5025410Y-10360000D01*
X4935410Y-10270000D02*
X5115410Y-10270000D01*
X4935410Y-10600000D02*
X5115410Y-10780000D01*
X5115410Y-10600000D02*
X4935410Y-10780000D01*
X5025410Y-10600000D02*
X5025410Y-10780000D01*
X4935410Y-10690000D02*
X5115410Y-10690000D01*
X4935410Y-11020000D02*
X5115410Y-11200000D01*
X5115410Y-11020000D02*
X4935410Y-11200000D01*
X5025410Y-11020000D02*
X5025410Y-11200000D01*
X4935410Y-11110000D02*
X5115410Y-11110000D01*
D18*
X4340000Y-6860000D02*
X4660000Y-7180000D01*
X4660000Y-6860000D02*
X4340000Y-7180000D01*
X4613138Y-7133138D02*
X4613138Y-6906862D01*
X4386862Y-6906862D01*
X4386862Y-7133138D01*
X4613138Y-7133138D01*
X4340000Y-12560000D02*
X4660000Y-12880000D01*
X4660000Y-12560000D02*
X4340000Y-12880000D01*
X4613138Y-12833138D02*
X4613138Y-12606862D01*
X4386862Y-12606862D01*
X4386862Y-12833138D01*
X4613138Y-12833138D01*
X8140000Y-6860000D02*
X8460000Y-7180000D01*
X8460000Y-6860000D02*
X8140000Y-7180000D01*
X8413138Y-7133138D02*
X8413138Y-6906862D01*
X8186862Y-6906862D01*
X8186862Y-7133138D01*
X8413138Y-7133138D01*
X8146700Y-12560000D02*
X8466700Y-12880000D01*
X8466700Y-12560000D02*
X8146700Y-12880000D01*
X8419838Y-12833138D02*
X8419838Y-12606862D01*
X8193562Y-12606862D01*
X8193562Y-12833138D01*
X8419838Y-12833138D01*
D11*
X4438119Y-13315976D02*
X4438119Y-13115976D01*
X4438119Y-13115976D02*
X4485738Y-13115976D01*
X4485738Y-13115976D02*
X4514310Y-13125500D01*
X4514310Y-13125500D02*
X4533357Y-13144548D01*
X4533357Y-13144548D02*
X4542881Y-13163595D01*
X4542881Y-13163595D02*
X4552405Y-13201690D01*
X4552405Y-13201690D02*
X4552405Y-13230262D01*
X4552405Y-13230262D02*
X4542881Y-13268357D01*
X4542881Y-13268357D02*
X4533357Y-13287405D01*
X4533357Y-13287405D02*
X4514310Y-13306452D01*
X4514310Y-13306452D02*
X4485738Y-13315976D01*
X4485738Y-13315976D02*
X4438119Y-13315976D01*
X4638119Y-13315976D02*
X4638119Y-13182643D01*
X4638119Y-13220738D02*
X4647643Y-13201690D01*
X4647643Y-13201690D02*
X4657167Y-13192167D01*
X4657167Y-13192167D02*
X4676214Y-13182643D01*
X4676214Y-13182643D02*
X4695262Y-13182643D01*
X4761929Y-13315976D02*
X4761929Y-13182643D01*
X4761929Y-13115976D02*
X4752405Y-13125500D01*
X4752405Y-13125500D02*
X4761929Y-13135024D01*
X4761929Y-13135024D02*
X4771452Y-13125500D01*
X4771452Y-13125500D02*
X4761929Y-13115976D01*
X4761929Y-13115976D02*
X4761929Y-13135024D01*
X4885738Y-13315976D02*
X4866690Y-13306452D01*
X4866690Y-13306452D02*
X4857167Y-13287405D01*
X4857167Y-13287405D02*
X4857167Y-13115976D01*
X4990500Y-13315976D02*
X4971452Y-13306452D01*
X4971452Y-13306452D02*
X4961929Y-13287405D01*
X4961929Y-13287405D02*
X4961929Y-13115976D01*
X5186690Y-13315976D02*
X5186690Y-13115976D01*
X5186690Y-13115976D02*
X5253357Y-13258833D01*
X5253357Y-13258833D02*
X5320024Y-13115976D01*
X5320024Y-13115976D02*
X5320024Y-13315976D01*
X5500976Y-13315976D02*
X5500976Y-13211214D01*
X5500976Y-13211214D02*
X5491452Y-13192167D01*
X5491452Y-13192167D02*
X5472405Y-13182643D01*
X5472405Y-13182643D02*
X5434309Y-13182643D01*
X5434309Y-13182643D02*
X5415262Y-13192167D01*
X5500976Y-13306452D02*
X5481929Y-13315976D01*
X5481929Y-13315976D02*
X5434309Y-13315976D01*
X5434309Y-13315976D02*
X5415262Y-13306452D01*
X5415262Y-13306452D02*
X5405738Y-13287405D01*
X5405738Y-13287405D02*
X5405738Y-13268357D01*
X5405738Y-13268357D02*
X5415262Y-13249309D01*
X5415262Y-13249309D02*
X5434309Y-13239786D01*
X5434309Y-13239786D02*
X5481929Y-13239786D01*
X5481929Y-13239786D02*
X5500976Y-13230262D01*
X5596214Y-13182643D02*
X5596214Y-13382643D01*
X5596214Y-13192167D02*
X5615262Y-13182643D01*
X5615262Y-13182643D02*
X5653357Y-13182643D01*
X5653357Y-13182643D02*
X5672405Y-13192167D01*
X5672405Y-13192167D02*
X5681928Y-13201690D01*
X5681928Y-13201690D02*
X5691452Y-13220738D01*
X5691452Y-13220738D02*
X5691452Y-13277881D01*
X5691452Y-13277881D02*
X5681928Y-13296928D01*
X5681928Y-13296928D02*
X5672405Y-13306452D01*
X5672405Y-13306452D02*
X5653357Y-13315976D01*
X5653357Y-13315976D02*
X5615262Y-13315976D01*
X5615262Y-13315976D02*
X5596214Y-13306452D01*
X5777167Y-13296928D02*
X5786690Y-13306452D01*
X5786690Y-13306452D02*
X5777167Y-13315976D01*
X5777167Y-13315976D02*
X5767643Y-13306452D01*
X5767643Y-13306452D02*
X5777167Y-13296928D01*
X5777167Y-13296928D02*
X5777167Y-13315976D01*
X5777167Y-13192167D02*
X5786690Y-13201690D01*
X5786690Y-13201690D02*
X5777167Y-13211214D01*
X5777167Y-13211214D02*
X5767643Y-13201690D01*
X5767643Y-13201690D02*
X5777167Y-13192167D01*
X5777167Y-13192167D02*
X5777167Y-13211214D01*
D12*
X4160500Y-13647500D02*
X4190500Y-13677500D01*
X4190500Y-13647500D02*
X4160500Y-13677500D01*
D11*
X4476214Y-13535976D02*
X4495262Y-13535976D01*
X4495262Y-13535976D02*
X4514310Y-13545500D01*
X4514310Y-13545500D02*
X4523833Y-13555024D01*
X4523833Y-13555024D02*
X4533357Y-13574071D01*
X4533357Y-13574071D02*
X4542881Y-13612167D01*
X4542881Y-13612167D02*
X4542881Y-13659786D01*
X4542881Y-13659786D02*
X4533357Y-13697881D01*
X4533357Y-13697881D02*
X4523833Y-13716928D01*
X4523833Y-13716928D02*
X4514310Y-13726452D01*
X4514310Y-13726452D02*
X4495262Y-13735976D01*
X4495262Y-13735976D02*
X4476214Y-13735976D01*
X4476214Y-13735976D02*
X4457167Y-13726452D01*
X4457167Y-13726452D02*
X4447643Y-13716928D01*
X4447643Y-13716928D02*
X4438119Y-13697881D01*
X4438119Y-13697881D02*
X4428595Y-13659786D01*
X4428595Y-13659786D02*
X4428595Y-13612167D01*
X4428595Y-13612167D02*
X4438119Y-13574071D01*
X4438119Y-13574071D02*
X4447643Y-13555024D01*
X4447643Y-13555024D02*
X4457167Y-13545500D01*
X4457167Y-13545500D02*
X4476214Y-13535976D01*
X4628595Y-13716928D02*
X4638119Y-13726452D01*
X4638119Y-13726452D02*
X4628595Y-13735976D01*
X4628595Y-13735976D02*
X4619071Y-13726452D01*
X4619071Y-13726452D02*
X4628595Y-13716928D01*
X4628595Y-13716928D02*
X4628595Y-13735976D01*
X4704786Y-13535976D02*
X4828595Y-13535976D01*
X4828595Y-13535976D02*
X4761929Y-13612167D01*
X4761929Y-13612167D02*
X4790500Y-13612167D01*
X4790500Y-13612167D02*
X4809548Y-13621690D01*
X4809548Y-13621690D02*
X4819071Y-13631214D01*
X4819071Y-13631214D02*
X4828595Y-13650262D01*
X4828595Y-13650262D02*
X4828595Y-13697881D01*
X4828595Y-13697881D02*
X4819071Y-13716928D01*
X4819071Y-13716928D02*
X4809548Y-13726452D01*
X4809548Y-13726452D02*
X4790500Y-13735976D01*
X4790500Y-13735976D02*
X4733357Y-13735976D01*
X4733357Y-13735976D02*
X4714310Y-13726452D01*
X4714310Y-13726452D02*
X4704786Y-13716928D01*
X4952405Y-13535976D02*
X4971452Y-13535976D01*
X4971452Y-13535976D02*
X4990500Y-13545500D01*
X4990500Y-13545500D02*
X5000024Y-13555024D01*
X5000024Y-13555024D02*
X5009548Y-13574071D01*
X5009548Y-13574071D02*
X5019071Y-13612167D01*
X5019071Y-13612167D02*
X5019071Y-13659786D01*
X5019071Y-13659786D02*
X5009548Y-13697881D01*
X5009548Y-13697881D02*
X5000024Y-13716928D01*
X5000024Y-13716928D02*
X4990500Y-13726452D01*
X4990500Y-13726452D02*
X4971452Y-13735976D01*
X4971452Y-13735976D02*
X4952405Y-13735976D01*
X4952405Y-13735976D02*
X4933357Y-13726452D01*
X4933357Y-13726452D02*
X4923833Y-13716928D01*
X4923833Y-13716928D02*
X4914310Y-13697881D01*
X4914310Y-13697881D02*
X4904786Y-13659786D01*
X4904786Y-13659786D02*
X4904786Y-13612167D01*
X4904786Y-13612167D02*
X4914310Y-13574071D01*
X4914310Y-13574071D02*
X4923833Y-13555024D01*
X4923833Y-13555024D02*
X4933357Y-13545500D01*
X4933357Y-13545500D02*
X4952405Y-13535976D01*
X5142881Y-13535976D02*
X5161929Y-13535976D01*
X5161929Y-13535976D02*
X5180976Y-13545500D01*
X5180976Y-13545500D02*
X5190500Y-13555024D01*
X5190500Y-13555024D02*
X5200024Y-13574071D01*
X5200024Y-13574071D02*
X5209548Y-13612167D01*
X5209548Y-13612167D02*
X5209548Y-13659786D01*
X5209548Y-13659786D02*
X5200024Y-13697881D01*
X5200024Y-13697881D02*
X5190500Y-13716928D01*
X5190500Y-13716928D02*
X5180976Y-13726452D01*
X5180976Y-13726452D02*
X5161929Y-13735976D01*
X5161929Y-13735976D02*
X5142881Y-13735976D01*
X5142881Y-13735976D02*
X5123833Y-13726452D01*
X5123833Y-13726452D02*
X5114310Y-13716928D01*
X5114310Y-13716928D02*
X5104786Y-13697881D01*
X5104786Y-13697881D02*
X5095262Y-13659786D01*
X5095262Y-13659786D02*
X5095262Y-13612167D01*
X5095262Y-13612167D02*
X5104786Y-13574071D01*
X5104786Y-13574071D02*
X5114310Y-13555024D01*
X5114310Y-13555024D02*
X5123833Y-13545500D01*
X5123833Y-13545500D02*
X5142881Y-13535976D01*
X5295262Y-13735976D02*
X5295262Y-13602643D01*
X5295262Y-13621690D02*
X5304786Y-13612167D01*
X5304786Y-13612167D02*
X5323833Y-13602643D01*
X5323833Y-13602643D02*
X5352405Y-13602643D01*
X5352405Y-13602643D02*
X5371452Y-13612167D01*
X5371452Y-13612167D02*
X5380976Y-13631214D01*
X5380976Y-13631214D02*
X5380976Y-13735976D01*
X5380976Y-13631214D02*
X5390500Y-13612167D01*
X5390500Y-13612167D02*
X5409548Y-13602643D01*
X5409548Y-13602643D02*
X5438119Y-13602643D01*
X5438119Y-13602643D02*
X5457167Y-13612167D01*
X5457167Y-13612167D02*
X5466691Y-13631214D01*
X5466691Y-13631214D02*
X5466691Y-13735976D01*
X5561929Y-13735976D02*
X5561929Y-13602643D01*
X5561929Y-13621690D02*
X5571452Y-13612167D01*
X5571452Y-13612167D02*
X5590500Y-13602643D01*
X5590500Y-13602643D02*
X5619071Y-13602643D01*
X5619071Y-13602643D02*
X5638119Y-13612167D01*
X5638119Y-13612167D02*
X5647643Y-13631214D01*
X5647643Y-13631214D02*
X5647643Y-13735976D01*
X5647643Y-13631214D02*
X5657167Y-13612167D01*
X5657167Y-13612167D02*
X5676214Y-13602643D01*
X5676214Y-13602643D02*
X5704786Y-13602643D01*
X5704786Y-13602643D02*
X5723833Y-13612167D01*
X5723833Y-13612167D02*
X5733357Y-13631214D01*
X5733357Y-13631214D02*
X5733357Y-13735976D01*
X6091452Y-13526452D02*
X5920024Y-13783595D01*
X6316214Y-13535976D02*
X6335262Y-13535976D01*
X6335262Y-13535976D02*
X6354310Y-13545500D01*
X6354310Y-13545500D02*
X6363833Y-13555024D01*
X6363833Y-13555024D02*
X6373357Y-13574071D01*
X6373357Y-13574071D02*
X6382881Y-13612167D01*
X6382881Y-13612167D02*
X6382881Y-13659786D01*
X6382881Y-13659786D02*
X6373357Y-13697881D01*
X6373357Y-13697881D02*
X6363833Y-13716928D01*
X6363833Y-13716928D02*
X6354310Y-13726452D01*
X6354310Y-13726452D02*
X6335262Y-13735976D01*
X6335262Y-13735976D02*
X6316214Y-13735976D01*
X6316214Y-13735976D02*
X6297167Y-13726452D01*
X6297167Y-13726452D02*
X6287643Y-13716928D01*
X6287643Y-13716928D02*
X6278119Y-13697881D01*
X6278119Y-13697881D02*
X6268595Y-13659786D01*
X6268595Y-13659786D02*
X6268595Y-13612167D01*
X6268595Y-13612167D02*
X6278119Y-13574071D01*
X6278119Y-13574071D02*
X6287643Y-13555024D01*
X6287643Y-13555024D02*
X6297167Y-13545500D01*
X6297167Y-13545500D02*
X6316214Y-13535976D01*
X6468595Y-13716928D02*
X6478119Y-13726452D01*
X6478119Y-13726452D02*
X6468595Y-13735976D01*
X6468595Y-13735976D02*
X6459071Y-13726452D01*
X6459071Y-13726452D02*
X6468595Y-13716928D01*
X6468595Y-13716928D02*
X6468595Y-13735976D01*
X6601929Y-13535976D02*
X6620976Y-13535976D01*
X6620976Y-13535976D02*
X6640024Y-13545500D01*
X6640024Y-13545500D02*
X6649548Y-13555024D01*
X6649548Y-13555024D02*
X6659071Y-13574071D01*
X6659071Y-13574071D02*
X6668595Y-13612167D01*
X6668595Y-13612167D02*
X6668595Y-13659786D01*
X6668595Y-13659786D02*
X6659071Y-13697881D01*
X6659071Y-13697881D02*
X6649548Y-13716928D01*
X6649548Y-13716928D02*
X6640024Y-13726452D01*
X6640024Y-13726452D02*
X6620976Y-13735976D01*
X6620976Y-13735976D02*
X6601929Y-13735976D01*
X6601929Y-13735976D02*
X6582881Y-13726452D01*
X6582881Y-13726452D02*
X6573357Y-13716928D01*
X6573357Y-13716928D02*
X6563833Y-13697881D01*
X6563833Y-13697881D02*
X6554310Y-13659786D01*
X6554310Y-13659786D02*
X6554310Y-13612167D01*
X6554310Y-13612167D02*
X6563833Y-13574071D01*
X6563833Y-13574071D02*
X6573357Y-13555024D01*
X6573357Y-13555024D02*
X6582881Y-13545500D01*
X6582881Y-13545500D02*
X6601929Y-13535976D01*
X6859071Y-13735976D02*
X6744786Y-13735976D01*
X6801929Y-13735976D02*
X6801929Y-13535976D01*
X6801929Y-13535976D02*
X6782881Y-13564548D01*
X6782881Y-13564548D02*
X6763833Y-13583595D01*
X6763833Y-13583595D02*
X6744786Y-13593119D01*
X7049548Y-13735976D02*
X6935262Y-13735976D01*
X6992405Y-13735976D02*
X6992405Y-13535976D01*
X6992405Y-13535976D02*
X6973357Y-13564548D01*
X6973357Y-13564548D02*
X6954310Y-13583595D01*
X6954310Y-13583595D02*
X6935262Y-13593119D01*
X7163833Y-13621690D02*
X7144786Y-13612167D01*
X7144786Y-13612167D02*
X7135262Y-13602643D01*
X7135262Y-13602643D02*
X7125738Y-13583595D01*
X7125738Y-13583595D02*
X7125738Y-13574071D01*
X7125738Y-13574071D02*
X7135262Y-13555024D01*
X7135262Y-13555024D02*
X7144786Y-13545500D01*
X7144786Y-13545500D02*
X7163833Y-13535976D01*
X7163833Y-13535976D02*
X7201929Y-13535976D01*
X7201929Y-13535976D02*
X7220976Y-13545500D01*
X7220976Y-13545500D02*
X7230500Y-13555024D01*
X7230500Y-13555024D02*
X7240024Y-13574071D01*
X7240024Y-13574071D02*
X7240024Y-13583595D01*
X7240024Y-13583595D02*
X7230500Y-13602643D01*
X7230500Y-13602643D02*
X7220976Y-13612167D01*
X7220976Y-13612167D02*
X7201929Y-13621690D01*
X7201929Y-13621690D02*
X7163833Y-13621690D01*
X7163833Y-13621690D02*
X7144786Y-13631214D01*
X7144786Y-13631214D02*
X7135262Y-13640738D01*
X7135262Y-13640738D02*
X7125738Y-13659786D01*
X7125738Y-13659786D02*
X7125738Y-13697881D01*
X7125738Y-13697881D02*
X7135262Y-13716928D01*
X7135262Y-13716928D02*
X7144786Y-13726452D01*
X7144786Y-13726452D02*
X7163833Y-13735976D01*
X7163833Y-13735976D02*
X7201929Y-13735976D01*
X7201929Y-13735976D02*
X7220976Y-13726452D01*
X7220976Y-13726452D02*
X7230500Y-13716928D01*
X7230500Y-13716928D02*
X7240024Y-13697881D01*
X7240024Y-13697881D02*
X7240024Y-13659786D01*
X7240024Y-13659786D02*
X7230500Y-13640738D01*
X7230500Y-13640738D02*
X7220976Y-13631214D01*
X7220976Y-13631214D02*
X7201929Y-13621690D01*
X7316214Y-13535976D02*
X7316214Y-13574071D01*
X7392405Y-13535976D02*
X7392405Y-13574071D01*
X7655262Y-13812167D02*
X7645738Y-13802643D01*
X7645738Y-13802643D02*
X7626691Y-13774071D01*
X7626691Y-13774071D02*
X7617167Y-13755024D01*
X7617167Y-13755024D02*
X7607643Y-13726452D01*
X7607643Y-13726452D02*
X7598119Y-13678833D01*
X7598119Y-13678833D02*
X7598119Y-13640738D01*
X7598119Y-13640738D02*
X7607643Y-13593119D01*
X7607643Y-13593119D02*
X7617167Y-13564548D01*
X7617167Y-13564548D02*
X7626691Y-13545500D01*
X7626691Y-13545500D02*
X7645738Y-13516928D01*
X7645738Y-13516928D02*
X7655262Y-13507405D01*
X7836214Y-13735976D02*
X7721929Y-13735976D01*
X7779071Y-13735976D02*
X7779071Y-13535976D01*
X7779071Y-13535976D02*
X7760024Y-13564548D01*
X7760024Y-13564548D02*
X7740976Y-13583595D01*
X7740976Y-13583595D02*
X7721929Y-13593119D01*
X7931452Y-13735976D02*
X7969548Y-13735976D01*
X7969548Y-13735976D02*
X7988595Y-13726452D01*
X7988595Y-13726452D02*
X7998119Y-13716928D01*
X7998119Y-13716928D02*
X8017167Y-13688357D01*
X8017167Y-13688357D02*
X8026691Y-13650262D01*
X8026691Y-13650262D02*
X8026691Y-13574071D01*
X8026691Y-13574071D02*
X8017167Y-13555024D01*
X8017167Y-13555024D02*
X8007643Y-13545500D01*
X8007643Y-13545500D02*
X7988595Y-13535976D01*
X7988595Y-13535976D02*
X7950500Y-13535976D01*
X7950500Y-13535976D02*
X7931452Y-13545500D01*
X7931452Y-13545500D02*
X7921929Y-13555024D01*
X7921929Y-13555024D02*
X7912405Y-13574071D01*
X7912405Y-13574071D02*
X7912405Y-13621690D01*
X7912405Y-13621690D02*
X7921929Y-13640738D01*
X7921929Y-13640738D02*
X7931452Y-13650262D01*
X7931452Y-13650262D02*
X7950500Y-13659786D01*
X7950500Y-13659786D02*
X7988595Y-13659786D01*
X7988595Y-13659786D02*
X8007643Y-13650262D01*
X8007643Y-13650262D02*
X8017167Y-13640738D01*
X8017167Y-13640738D02*
X8026691Y-13621690D01*
X8093357Y-13535976D02*
X8226691Y-13535976D01*
X8226691Y-13535976D02*
X8140976Y-13735976D01*
X8422881Y-13735976D02*
X8422881Y-13535976D01*
X8508595Y-13735976D02*
X8508595Y-13631214D01*
X8508595Y-13631214D02*
X8499072Y-13612167D01*
X8499072Y-13612167D02*
X8480024Y-13602643D01*
X8480024Y-13602643D02*
X8451453Y-13602643D01*
X8451453Y-13602643D02*
X8432405Y-13612167D01*
X8432405Y-13612167D02*
X8422881Y-13621690D01*
X8632405Y-13735976D02*
X8613357Y-13726452D01*
X8613357Y-13726452D02*
X8603834Y-13716928D01*
X8603834Y-13716928D02*
X8594310Y-13697881D01*
X8594310Y-13697881D02*
X8594310Y-13640738D01*
X8594310Y-13640738D02*
X8603834Y-13621690D01*
X8603834Y-13621690D02*
X8613357Y-13612167D01*
X8613357Y-13612167D02*
X8632405Y-13602643D01*
X8632405Y-13602643D02*
X8660976Y-13602643D01*
X8660976Y-13602643D02*
X8680024Y-13612167D01*
X8680024Y-13612167D02*
X8689548Y-13621690D01*
X8689548Y-13621690D02*
X8699072Y-13640738D01*
X8699072Y-13640738D02*
X8699072Y-13697881D01*
X8699072Y-13697881D02*
X8689548Y-13716928D01*
X8689548Y-13716928D02*
X8680024Y-13726452D01*
X8680024Y-13726452D02*
X8660976Y-13735976D01*
X8660976Y-13735976D02*
X8632405Y-13735976D01*
X8813357Y-13735976D02*
X8794310Y-13726452D01*
X8794310Y-13726452D02*
X8784786Y-13707405D01*
X8784786Y-13707405D02*
X8784786Y-13535976D01*
X8965738Y-13726452D02*
X8946691Y-13735976D01*
X8946691Y-13735976D02*
X8908595Y-13735976D01*
X8908595Y-13735976D02*
X8889548Y-13726452D01*
X8889548Y-13726452D02*
X8880024Y-13707405D01*
X8880024Y-13707405D02*
X8880024Y-13631214D01*
X8880024Y-13631214D02*
X8889548Y-13612167D01*
X8889548Y-13612167D02*
X8908595Y-13602643D01*
X8908595Y-13602643D02*
X8946691Y-13602643D01*
X8946691Y-13602643D02*
X8965738Y-13612167D01*
X8965738Y-13612167D02*
X8975262Y-13631214D01*
X8975262Y-13631214D02*
X8975262Y-13650262D01*
X8975262Y-13650262D02*
X8880024Y-13669309D01*
X9051453Y-13726452D02*
X9070500Y-13735976D01*
X9070500Y-13735976D02*
X9108595Y-13735976D01*
X9108595Y-13735976D02*
X9127643Y-13726452D01*
X9127643Y-13726452D02*
X9137167Y-13707405D01*
X9137167Y-13707405D02*
X9137167Y-13697881D01*
X9137167Y-13697881D02*
X9127643Y-13678833D01*
X9127643Y-13678833D02*
X9108595Y-13669309D01*
X9108595Y-13669309D02*
X9080024Y-13669309D01*
X9080024Y-13669309D02*
X9060976Y-13659786D01*
X9060976Y-13659786D02*
X9051453Y-13640738D01*
X9051453Y-13640738D02*
X9051453Y-13631214D01*
X9051453Y-13631214D02*
X9060976Y-13612167D01*
X9060976Y-13612167D02*
X9080024Y-13602643D01*
X9080024Y-13602643D02*
X9108595Y-13602643D01*
X9108595Y-13602643D02*
X9127643Y-13612167D01*
X9203834Y-13812167D02*
X9213357Y-13802643D01*
X9213357Y-13802643D02*
X9232405Y-13774071D01*
X9232405Y-13774071D02*
X9241929Y-13755024D01*
X9241929Y-13755024D02*
X9251453Y-13726452D01*
X9251453Y-13726452D02*
X9260976Y-13678833D01*
X9260976Y-13678833D02*
X9260976Y-13640738D01*
X9260976Y-13640738D02*
X9251453Y-13593119D01*
X9251453Y-13593119D02*
X9241929Y-13564548D01*
X9241929Y-13564548D02*
X9232405Y-13545500D01*
X9232405Y-13545500D02*
X9213357Y-13516928D01*
X9213357Y-13516928D02*
X9203834Y-13507405D01*
D13*
X4190500Y-13926500D02*
G75*
G03*
X4190500Y-13926500I-20000J0D01*
G01*
D11*
X4476214Y-13799976D02*
X4495262Y-13799976D01*
X4495262Y-13799976D02*
X4514310Y-13809500D01*
X4514310Y-13809500D02*
X4523833Y-13819024D01*
X4523833Y-13819024D02*
X4533357Y-13838071D01*
X4533357Y-13838071D02*
X4542881Y-13876167D01*
X4542881Y-13876167D02*
X4542881Y-13923786D01*
X4542881Y-13923786D02*
X4533357Y-13961881D01*
X4533357Y-13961881D02*
X4523833Y-13980928D01*
X4523833Y-13980928D02*
X4514310Y-13990452D01*
X4514310Y-13990452D02*
X4495262Y-13999976D01*
X4495262Y-13999976D02*
X4476214Y-13999976D01*
X4476214Y-13999976D02*
X4457167Y-13990452D01*
X4457167Y-13990452D02*
X4447643Y-13980928D01*
X4447643Y-13980928D02*
X4438119Y-13961881D01*
X4438119Y-13961881D02*
X4428595Y-13923786D01*
X4428595Y-13923786D02*
X4428595Y-13876167D01*
X4428595Y-13876167D02*
X4438119Y-13838071D01*
X4438119Y-13838071D02*
X4447643Y-13819024D01*
X4447643Y-13819024D02*
X4457167Y-13809500D01*
X4457167Y-13809500D02*
X4476214Y-13799976D01*
X4628595Y-13980928D02*
X4638119Y-13990452D01*
X4638119Y-13990452D02*
X4628595Y-13999976D01*
X4628595Y-13999976D02*
X4619071Y-13990452D01*
X4619071Y-13990452D02*
X4628595Y-13980928D01*
X4628595Y-13980928D02*
X4628595Y-13999976D01*
X4809548Y-13866643D02*
X4809548Y-13999976D01*
X4761929Y-13790452D02*
X4714310Y-13933309D01*
X4714310Y-13933309D02*
X4838119Y-13933309D01*
X4952405Y-13799976D02*
X4971452Y-13799976D01*
X4971452Y-13799976D02*
X4990500Y-13809500D01*
X4990500Y-13809500D02*
X5000024Y-13819024D01*
X5000024Y-13819024D02*
X5009548Y-13838071D01*
X5009548Y-13838071D02*
X5019071Y-13876167D01*
X5019071Y-13876167D02*
X5019071Y-13923786D01*
X5019071Y-13923786D02*
X5009548Y-13961881D01*
X5009548Y-13961881D02*
X5000024Y-13980928D01*
X5000024Y-13980928D02*
X4990500Y-13990452D01*
X4990500Y-13990452D02*
X4971452Y-13999976D01*
X4971452Y-13999976D02*
X4952405Y-13999976D01*
X4952405Y-13999976D02*
X4933357Y-13990452D01*
X4933357Y-13990452D02*
X4923833Y-13980928D01*
X4923833Y-13980928D02*
X4914310Y-13961881D01*
X4914310Y-13961881D02*
X4904786Y-13923786D01*
X4904786Y-13923786D02*
X4904786Y-13876167D01*
X4904786Y-13876167D02*
X4914310Y-13838071D01*
X4914310Y-13838071D02*
X4923833Y-13819024D01*
X4923833Y-13819024D02*
X4933357Y-13809500D01*
X4933357Y-13809500D02*
X4952405Y-13799976D01*
X5142881Y-13799976D02*
X5161929Y-13799976D01*
X5161929Y-13799976D02*
X5180976Y-13809500D01*
X5180976Y-13809500D02*
X5190500Y-13819024D01*
X5190500Y-13819024D02*
X5200024Y-13838071D01*
X5200024Y-13838071D02*
X5209548Y-13876167D01*
X5209548Y-13876167D02*
X5209548Y-13923786D01*
X5209548Y-13923786D02*
X5200024Y-13961881D01*
X5200024Y-13961881D02*
X5190500Y-13980928D01*
X5190500Y-13980928D02*
X5180976Y-13990452D01*
X5180976Y-13990452D02*
X5161929Y-13999976D01*
X5161929Y-13999976D02*
X5142881Y-13999976D01*
X5142881Y-13999976D02*
X5123833Y-13990452D01*
X5123833Y-13990452D02*
X5114310Y-13980928D01*
X5114310Y-13980928D02*
X5104786Y-13961881D01*
X5104786Y-13961881D02*
X5095262Y-13923786D01*
X5095262Y-13923786D02*
X5095262Y-13876167D01*
X5095262Y-13876167D02*
X5104786Y-13838071D01*
X5104786Y-13838071D02*
X5114310Y-13819024D01*
X5114310Y-13819024D02*
X5123833Y-13809500D01*
X5123833Y-13809500D02*
X5142881Y-13799976D01*
X5295262Y-13999976D02*
X5295262Y-13866643D01*
X5295262Y-13885690D02*
X5304786Y-13876167D01*
X5304786Y-13876167D02*
X5323833Y-13866643D01*
X5323833Y-13866643D02*
X5352405Y-13866643D01*
X5352405Y-13866643D02*
X5371452Y-13876167D01*
X5371452Y-13876167D02*
X5380976Y-13895214D01*
X5380976Y-13895214D02*
X5380976Y-13999976D01*
X5380976Y-13895214D02*
X5390500Y-13876167D01*
X5390500Y-13876167D02*
X5409548Y-13866643D01*
X5409548Y-13866643D02*
X5438119Y-13866643D01*
X5438119Y-13866643D02*
X5457167Y-13876167D01*
X5457167Y-13876167D02*
X5466691Y-13895214D01*
X5466691Y-13895214D02*
X5466691Y-13999976D01*
X5561929Y-13999976D02*
X5561929Y-13866643D01*
X5561929Y-13885690D02*
X5571452Y-13876167D01*
X5571452Y-13876167D02*
X5590500Y-13866643D01*
X5590500Y-13866643D02*
X5619071Y-13866643D01*
X5619071Y-13866643D02*
X5638119Y-13876167D01*
X5638119Y-13876167D02*
X5647643Y-13895214D01*
X5647643Y-13895214D02*
X5647643Y-13999976D01*
X5647643Y-13895214D02*
X5657167Y-13876167D01*
X5657167Y-13876167D02*
X5676214Y-13866643D01*
X5676214Y-13866643D02*
X5704786Y-13866643D01*
X5704786Y-13866643D02*
X5723833Y-13876167D01*
X5723833Y-13876167D02*
X5733357Y-13895214D01*
X5733357Y-13895214D02*
X5733357Y-13999976D01*
X6091452Y-13790452D02*
X5920024Y-14047595D01*
X6316214Y-13799976D02*
X6335262Y-13799976D01*
X6335262Y-13799976D02*
X6354310Y-13809500D01*
X6354310Y-13809500D02*
X6363833Y-13819024D01*
X6363833Y-13819024D02*
X6373357Y-13838071D01*
X6373357Y-13838071D02*
X6382881Y-13876167D01*
X6382881Y-13876167D02*
X6382881Y-13923786D01*
X6382881Y-13923786D02*
X6373357Y-13961881D01*
X6373357Y-13961881D02*
X6363833Y-13980928D01*
X6363833Y-13980928D02*
X6354310Y-13990452D01*
X6354310Y-13990452D02*
X6335262Y-13999976D01*
X6335262Y-13999976D02*
X6316214Y-13999976D01*
X6316214Y-13999976D02*
X6297167Y-13990452D01*
X6297167Y-13990452D02*
X6287643Y-13980928D01*
X6287643Y-13980928D02*
X6278119Y-13961881D01*
X6278119Y-13961881D02*
X6268595Y-13923786D01*
X6268595Y-13923786D02*
X6268595Y-13876167D01*
X6268595Y-13876167D02*
X6278119Y-13838071D01*
X6278119Y-13838071D02*
X6287643Y-13819024D01*
X6287643Y-13819024D02*
X6297167Y-13809500D01*
X6297167Y-13809500D02*
X6316214Y-13799976D01*
X6468595Y-13980928D02*
X6478119Y-13990452D01*
X6478119Y-13990452D02*
X6468595Y-13999976D01*
X6468595Y-13999976D02*
X6459071Y-13990452D01*
X6459071Y-13990452D02*
X6468595Y-13980928D01*
X6468595Y-13980928D02*
X6468595Y-13999976D01*
X6601929Y-13799976D02*
X6620976Y-13799976D01*
X6620976Y-13799976D02*
X6640024Y-13809500D01*
X6640024Y-13809500D02*
X6649548Y-13819024D01*
X6649548Y-13819024D02*
X6659071Y-13838071D01*
X6659071Y-13838071D02*
X6668595Y-13876167D01*
X6668595Y-13876167D02*
X6668595Y-13923786D01*
X6668595Y-13923786D02*
X6659071Y-13961881D01*
X6659071Y-13961881D02*
X6649548Y-13980928D01*
X6649548Y-13980928D02*
X6640024Y-13990452D01*
X6640024Y-13990452D02*
X6620976Y-13999976D01*
X6620976Y-13999976D02*
X6601929Y-13999976D01*
X6601929Y-13999976D02*
X6582881Y-13990452D01*
X6582881Y-13990452D02*
X6573357Y-13980928D01*
X6573357Y-13980928D02*
X6563833Y-13961881D01*
X6563833Y-13961881D02*
X6554310Y-13923786D01*
X6554310Y-13923786D02*
X6554310Y-13876167D01*
X6554310Y-13876167D02*
X6563833Y-13838071D01*
X6563833Y-13838071D02*
X6573357Y-13819024D01*
X6573357Y-13819024D02*
X6582881Y-13809500D01*
X6582881Y-13809500D02*
X6601929Y-13799976D01*
X6859071Y-13999976D02*
X6744786Y-13999976D01*
X6801929Y-13999976D02*
X6801929Y-13799976D01*
X6801929Y-13799976D02*
X6782881Y-13828548D01*
X6782881Y-13828548D02*
X6763833Y-13847595D01*
X6763833Y-13847595D02*
X6744786Y-13857119D01*
X7040024Y-13799976D02*
X6944786Y-13799976D01*
X6944786Y-13799976D02*
X6935262Y-13895214D01*
X6935262Y-13895214D02*
X6944786Y-13885690D01*
X6944786Y-13885690D02*
X6963833Y-13876167D01*
X6963833Y-13876167D02*
X7011452Y-13876167D01*
X7011452Y-13876167D02*
X7030500Y-13885690D01*
X7030500Y-13885690D02*
X7040024Y-13895214D01*
X7040024Y-13895214D02*
X7049548Y-13914262D01*
X7049548Y-13914262D02*
X7049548Y-13961881D01*
X7049548Y-13961881D02*
X7040024Y-13980928D01*
X7040024Y-13980928D02*
X7030500Y-13990452D01*
X7030500Y-13990452D02*
X7011452Y-13999976D01*
X7011452Y-13999976D02*
X6963833Y-13999976D01*
X6963833Y-13999976D02*
X6944786Y-13990452D01*
X6944786Y-13990452D02*
X6935262Y-13980928D01*
X7116214Y-13799976D02*
X7249548Y-13799976D01*
X7249548Y-13799976D02*
X7163833Y-13999976D01*
X7316214Y-13799976D02*
X7316214Y-13838071D01*
X7392405Y-13799976D02*
X7392405Y-13838071D01*
X7655262Y-14076167D02*
X7645738Y-14066643D01*
X7645738Y-14066643D02*
X7626691Y-14038071D01*
X7626691Y-14038071D02*
X7617167Y-14019024D01*
X7617167Y-14019024D02*
X7607643Y-13990452D01*
X7607643Y-13990452D02*
X7598119Y-13942833D01*
X7598119Y-13942833D02*
X7598119Y-13904738D01*
X7598119Y-13904738D02*
X7607643Y-13857119D01*
X7607643Y-13857119D02*
X7617167Y-13828548D01*
X7617167Y-13828548D02*
X7626691Y-13809500D01*
X7626691Y-13809500D02*
X7645738Y-13780928D01*
X7645738Y-13780928D02*
X7655262Y-13771405D01*
X7712405Y-13799976D02*
X7836214Y-13799976D01*
X7836214Y-13799976D02*
X7769548Y-13876167D01*
X7769548Y-13876167D02*
X7798119Y-13876167D01*
X7798119Y-13876167D02*
X7817167Y-13885690D01*
X7817167Y-13885690D02*
X7826691Y-13895214D01*
X7826691Y-13895214D02*
X7836214Y-13914262D01*
X7836214Y-13914262D02*
X7836214Y-13961881D01*
X7836214Y-13961881D02*
X7826691Y-13980928D01*
X7826691Y-13980928D02*
X7817167Y-13990452D01*
X7817167Y-13990452D02*
X7798119Y-13999976D01*
X7798119Y-13999976D02*
X7740976Y-13999976D01*
X7740976Y-13999976D02*
X7721929Y-13990452D01*
X7721929Y-13990452D02*
X7712405Y-13980928D01*
X8026691Y-13999976D02*
X7912405Y-13999976D01*
X7969548Y-13999976D02*
X7969548Y-13799976D01*
X7969548Y-13799976D02*
X7950500Y-13828548D01*
X7950500Y-13828548D02*
X7931452Y-13847595D01*
X7931452Y-13847595D02*
X7912405Y-13857119D01*
X8232405Y-13999976D02*
X8232405Y-13799976D01*
X8318119Y-13999976D02*
X8318119Y-13895214D01*
X8318119Y-13895214D02*
X8308595Y-13876167D01*
X8308595Y-13876167D02*
X8289548Y-13866643D01*
X8289548Y-13866643D02*
X8260976Y-13866643D01*
X8260976Y-13866643D02*
X8241929Y-13876167D01*
X8241929Y-13876167D02*
X8232405Y-13885690D01*
X8441929Y-13999976D02*
X8422881Y-13990452D01*
X8422881Y-13990452D02*
X8413357Y-13980928D01*
X8413357Y-13980928D02*
X8403834Y-13961881D01*
X8403834Y-13961881D02*
X8403834Y-13904738D01*
X8403834Y-13904738D02*
X8413357Y-13885690D01*
X8413357Y-13885690D02*
X8422881Y-13876167D01*
X8422881Y-13876167D02*
X8441929Y-13866643D01*
X8441929Y-13866643D02*
X8470500Y-13866643D01*
X8470500Y-13866643D02*
X8489548Y-13876167D01*
X8489548Y-13876167D02*
X8499072Y-13885690D01*
X8499072Y-13885690D02*
X8508595Y-13904738D01*
X8508595Y-13904738D02*
X8508595Y-13961881D01*
X8508595Y-13961881D02*
X8499072Y-13980928D01*
X8499072Y-13980928D02*
X8489548Y-13990452D01*
X8489548Y-13990452D02*
X8470500Y-13999976D01*
X8470500Y-13999976D02*
X8441929Y-13999976D01*
X8622881Y-13999976D02*
X8603834Y-13990452D01*
X8603834Y-13990452D02*
X8594310Y-13971405D01*
X8594310Y-13971405D02*
X8594310Y-13799976D01*
X8775262Y-13990452D02*
X8756215Y-13999976D01*
X8756215Y-13999976D02*
X8718119Y-13999976D01*
X8718119Y-13999976D02*
X8699072Y-13990452D01*
X8699072Y-13990452D02*
X8689548Y-13971405D01*
X8689548Y-13971405D02*
X8689548Y-13895214D01*
X8689548Y-13895214D02*
X8699072Y-13876167D01*
X8699072Y-13876167D02*
X8718119Y-13866643D01*
X8718119Y-13866643D02*
X8756215Y-13866643D01*
X8756215Y-13866643D02*
X8775262Y-13876167D01*
X8775262Y-13876167D02*
X8784786Y-13895214D01*
X8784786Y-13895214D02*
X8784786Y-13914262D01*
X8784786Y-13914262D02*
X8689548Y-13933309D01*
X8860976Y-13990452D02*
X8880024Y-13999976D01*
X8880024Y-13999976D02*
X8918119Y-13999976D01*
X8918119Y-13999976D02*
X8937167Y-13990452D01*
X8937167Y-13990452D02*
X8946691Y-13971405D01*
X8946691Y-13971405D02*
X8946691Y-13961881D01*
X8946691Y-13961881D02*
X8937167Y-13942833D01*
X8937167Y-13942833D02*
X8918119Y-13933309D01*
X8918119Y-13933309D02*
X8889548Y-13933309D01*
X8889548Y-13933309D02*
X8870500Y-13923786D01*
X8870500Y-13923786D02*
X8860976Y-13904738D01*
X8860976Y-13904738D02*
X8860976Y-13895214D01*
X8860976Y-13895214D02*
X8870500Y-13876167D01*
X8870500Y-13876167D02*
X8889548Y-13866643D01*
X8889548Y-13866643D02*
X8918119Y-13866643D01*
X8918119Y-13866643D02*
X8937167Y-13876167D01*
X9013357Y-14076167D02*
X9022881Y-14066643D01*
X9022881Y-14066643D02*
X9041929Y-14038071D01*
X9041929Y-14038071D02*
X9051453Y-14019024D01*
X9051453Y-14019024D02*
X9060976Y-13990452D01*
X9060976Y-13990452D02*
X9070500Y-13942833D01*
X9070500Y-13942833D02*
X9070500Y-13904738D01*
X9070500Y-13904738D02*
X9060976Y-13857119D01*
X9060976Y-13857119D02*
X9051453Y-13828548D01*
X9051453Y-13828548D02*
X9041929Y-13809500D01*
X9041929Y-13809500D02*
X9022881Y-13780928D01*
X9022881Y-13780928D02*
X9013357Y-13771405D01*
D10*
X4165500Y-14165500D02*
X4165500Y-14215500D01*
X4140500Y-14190500D02*
X4190500Y-14190500D01*
D11*
X4476214Y-14063976D02*
X4495262Y-14063976D01*
X4495262Y-14063976D02*
X4514310Y-14073500D01*
X4514310Y-14073500D02*
X4523833Y-14083024D01*
X4523833Y-14083024D02*
X4533357Y-14102071D01*
X4533357Y-14102071D02*
X4542881Y-14140167D01*
X4542881Y-14140167D02*
X4542881Y-14187786D01*
X4542881Y-14187786D02*
X4533357Y-14225881D01*
X4533357Y-14225881D02*
X4523833Y-14244928D01*
X4523833Y-14244928D02*
X4514310Y-14254452D01*
X4514310Y-14254452D02*
X4495262Y-14263976D01*
X4495262Y-14263976D02*
X4476214Y-14263976D01*
X4476214Y-14263976D02*
X4457167Y-14254452D01*
X4457167Y-14254452D02*
X4447643Y-14244928D01*
X4447643Y-14244928D02*
X4438119Y-14225881D01*
X4438119Y-14225881D02*
X4428595Y-14187786D01*
X4428595Y-14187786D02*
X4428595Y-14140167D01*
X4428595Y-14140167D02*
X4438119Y-14102071D01*
X4438119Y-14102071D02*
X4447643Y-14083024D01*
X4447643Y-14083024D02*
X4457167Y-14073500D01*
X4457167Y-14073500D02*
X4476214Y-14063976D01*
X4628595Y-14244928D02*
X4638119Y-14254452D01*
X4638119Y-14254452D02*
X4628595Y-14263976D01*
X4628595Y-14263976D02*
X4619071Y-14254452D01*
X4619071Y-14254452D02*
X4628595Y-14244928D01*
X4628595Y-14244928D02*
X4628595Y-14263976D01*
X4819071Y-14063976D02*
X4723833Y-14063976D01*
X4723833Y-14063976D02*
X4714310Y-14159214D01*
X4714310Y-14159214D02*
X4723833Y-14149690D01*
X4723833Y-14149690D02*
X4742881Y-14140167D01*
X4742881Y-14140167D02*
X4790500Y-14140167D01*
X4790500Y-14140167D02*
X4809548Y-14149690D01*
X4809548Y-14149690D02*
X4819071Y-14159214D01*
X4819071Y-14159214D02*
X4828595Y-14178262D01*
X4828595Y-14178262D02*
X4828595Y-14225881D01*
X4828595Y-14225881D02*
X4819071Y-14244928D01*
X4819071Y-14244928D02*
X4809548Y-14254452D01*
X4809548Y-14254452D02*
X4790500Y-14263976D01*
X4790500Y-14263976D02*
X4742881Y-14263976D01*
X4742881Y-14263976D02*
X4723833Y-14254452D01*
X4723833Y-14254452D02*
X4714310Y-14244928D01*
X4952405Y-14063976D02*
X4971452Y-14063976D01*
X4971452Y-14063976D02*
X4990500Y-14073500D01*
X4990500Y-14073500D02*
X5000024Y-14083024D01*
X5000024Y-14083024D02*
X5009548Y-14102071D01*
X5009548Y-14102071D02*
X5019071Y-14140167D01*
X5019071Y-14140167D02*
X5019071Y-14187786D01*
X5019071Y-14187786D02*
X5009548Y-14225881D01*
X5009548Y-14225881D02*
X5000024Y-14244928D01*
X5000024Y-14244928D02*
X4990500Y-14254452D01*
X4990500Y-14254452D02*
X4971452Y-14263976D01*
X4971452Y-14263976D02*
X4952405Y-14263976D01*
X4952405Y-14263976D02*
X4933357Y-14254452D01*
X4933357Y-14254452D02*
X4923833Y-14244928D01*
X4923833Y-14244928D02*
X4914310Y-14225881D01*
X4914310Y-14225881D02*
X4904786Y-14187786D01*
X4904786Y-14187786D02*
X4904786Y-14140167D01*
X4904786Y-14140167D02*
X4914310Y-14102071D01*
X4914310Y-14102071D02*
X4923833Y-14083024D01*
X4923833Y-14083024D02*
X4933357Y-14073500D01*
X4933357Y-14073500D02*
X4952405Y-14063976D01*
X5142881Y-14063976D02*
X5161929Y-14063976D01*
X5161929Y-14063976D02*
X5180976Y-14073500D01*
X5180976Y-14073500D02*
X5190500Y-14083024D01*
X5190500Y-14083024D02*
X5200024Y-14102071D01*
X5200024Y-14102071D02*
X5209548Y-14140167D01*
X5209548Y-14140167D02*
X5209548Y-14187786D01*
X5209548Y-14187786D02*
X5200024Y-14225881D01*
X5200024Y-14225881D02*
X5190500Y-14244928D01*
X5190500Y-14244928D02*
X5180976Y-14254452D01*
X5180976Y-14254452D02*
X5161929Y-14263976D01*
X5161929Y-14263976D02*
X5142881Y-14263976D01*
X5142881Y-14263976D02*
X5123833Y-14254452D01*
X5123833Y-14254452D02*
X5114310Y-14244928D01*
X5114310Y-14244928D02*
X5104786Y-14225881D01*
X5104786Y-14225881D02*
X5095262Y-14187786D01*
X5095262Y-14187786D02*
X5095262Y-14140167D01*
X5095262Y-14140167D02*
X5104786Y-14102071D01*
X5104786Y-14102071D02*
X5114310Y-14083024D01*
X5114310Y-14083024D02*
X5123833Y-14073500D01*
X5123833Y-14073500D02*
X5142881Y-14063976D01*
X5295262Y-14263976D02*
X5295262Y-14130643D01*
X5295262Y-14149690D02*
X5304786Y-14140167D01*
X5304786Y-14140167D02*
X5323833Y-14130643D01*
X5323833Y-14130643D02*
X5352405Y-14130643D01*
X5352405Y-14130643D02*
X5371452Y-14140167D01*
X5371452Y-14140167D02*
X5380976Y-14159214D01*
X5380976Y-14159214D02*
X5380976Y-14263976D01*
X5380976Y-14159214D02*
X5390500Y-14140167D01*
X5390500Y-14140167D02*
X5409548Y-14130643D01*
X5409548Y-14130643D02*
X5438119Y-14130643D01*
X5438119Y-14130643D02*
X5457167Y-14140167D01*
X5457167Y-14140167D02*
X5466691Y-14159214D01*
X5466691Y-14159214D02*
X5466691Y-14263976D01*
X5561929Y-14263976D02*
X5561929Y-14130643D01*
X5561929Y-14149690D02*
X5571452Y-14140167D01*
X5571452Y-14140167D02*
X5590500Y-14130643D01*
X5590500Y-14130643D02*
X5619071Y-14130643D01*
X5619071Y-14130643D02*
X5638119Y-14140167D01*
X5638119Y-14140167D02*
X5647643Y-14159214D01*
X5647643Y-14159214D02*
X5647643Y-14263976D01*
X5647643Y-14159214D02*
X5657167Y-14140167D01*
X5657167Y-14140167D02*
X5676214Y-14130643D01*
X5676214Y-14130643D02*
X5704786Y-14130643D01*
X5704786Y-14130643D02*
X5723833Y-14140167D01*
X5723833Y-14140167D02*
X5733357Y-14159214D01*
X5733357Y-14159214D02*
X5733357Y-14263976D01*
X6091452Y-14054452D02*
X5920024Y-14311595D01*
X6316214Y-14063976D02*
X6335262Y-14063976D01*
X6335262Y-14063976D02*
X6354310Y-14073500D01*
X6354310Y-14073500D02*
X6363833Y-14083024D01*
X6363833Y-14083024D02*
X6373357Y-14102071D01*
X6373357Y-14102071D02*
X6382881Y-14140167D01*
X6382881Y-14140167D02*
X6382881Y-14187786D01*
X6382881Y-14187786D02*
X6373357Y-14225881D01*
X6373357Y-14225881D02*
X6363833Y-14244928D01*
X6363833Y-14244928D02*
X6354310Y-14254452D01*
X6354310Y-14254452D02*
X6335262Y-14263976D01*
X6335262Y-14263976D02*
X6316214Y-14263976D01*
X6316214Y-14263976D02*
X6297167Y-14254452D01*
X6297167Y-14254452D02*
X6287643Y-14244928D01*
X6287643Y-14244928D02*
X6278119Y-14225881D01*
X6278119Y-14225881D02*
X6268595Y-14187786D01*
X6268595Y-14187786D02*
X6268595Y-14140167D01*
X6268595Y-14140167D02*
X6278119Y-14102071D01*
X6278119Y-14102071D02*
X6287643Y-14083024D01*
X6287643Y-14083024D02*
X6297167Y-14073500D01*
X6297167Y-14073500D02*
X6316214Y-14063976D01*
X6468595Y-14244928D02*
X6478119Y-14254452D01*
X6478119Y-14254452D02*
X6468595Y-14263976D01*
X6468595Y-14263976D02*
X6459071Y-14254452D01*
X6459071Y-14254452D02*
X6468595Y-14244928D01*
X6468595Y-14244928D02*
X6468595Y-14263976D01*
X6601929Y-14063976D02*
X6620976Y-14063976D01*
X6620976Y-14063976D02*
X6640024Y-14073500D01*
X6640024Y-14073500D02*
X6649548Y-14083024D01*
X6649548Y-14083024D02*
X6659071Y-14102071D01*
X6659071Y-14102071D02*
X6668595Y-14140167D01*
X6668595Y-14140167D02*
X6668595Y-14187786D01*
X6668595Y-14187786D02*
X6659071Y-14225881D01*
X6659071Y-14225881D02*
X6649548Y-14244928D01*
X6649548Y-14244928D02*
X6640024Y-14254452D01*
X6640024Y-14254452D02*
X6620976Y-14263976D01*
X6620976Y-14263976D02*
X6601929Y-14263976D01*
X6601929Y-14263976D02*
X6582881Y-14254452D01*
X6582881Y-14254452D02*
X6573357Y-14244928D01*
X6573357Y-14244928D02*
X6563833Y-14225881D01*
X6563833Y-14225881D02*
X6554310Y-14187786D01*
X6554310Y-14187786D02*
X6554310Y-14140167D01*
X6554310Y-14140167D02*
X6563833Y-14102071D01*
X6563833Y-14102071D02*
X6573357Y-14083024D01*
X6573357Y-14083024D02*
X6582881Y-14073500D01*
X6582881Y-14073500D02*
X6601929Y-14063976D01*
X6859071Y-14263976D02*
X6744786Y-14263976D01*
X6801929Y-14263976D02*
X6801929Y-14063976D01*
X6801929Y-14063976D02*
X6782881Y-14092548D01*
X6782881Y-14092548D02*
X6763833Y-14111595D01*
X6763833Y-14111595D02*
X6744786Y-14121119D01*
X6954310Y-14263976D02*
X6992405Y-14263976D01*
X6992405Y-14263976D02*
X7011452Y-14254452D01*
X7011452Y-14254452D02*
X7020976Y-14244928D01*
X7020976Y-14244928D02*
X7040024Y-14216357D01*
X7040024Y-14216357D02*
X7049548Y-14178262D01*
X7049548Y-14178262D02*
X7049548Y-14102071D01*
X7049548Y-14102071D02*
X7040024Y-14083024D01*
X7040024Y-14083024D02*
X7030500Y-14073500D01*
X7030500Y-14073500D02*
X7011452Y-14063976D01*
X7011452Y-14063976D02*
X6973357Y-14063976D01*
X6973357Y-14063976D02*
X6954310Y-14073500D01*
X6954310Y-14073500D02*
X6944786Y-14083024D01*
X6944786Y-14083024D02*
X6935262Y-14102071D01*
X6935262Y-14102071D02*
X6935262Y-14149690D01*
X6935262Y-14149690D02*
X6944786Y-14168738D01*
X6944786Y-14168738D02*
X6954310Y-14178262D01*
X6954310Y-14178262D02*
X6973357Y-14187786D01*
X6973357Y-14187786D02*
X7011452Y-14187786D01*
X7011452Y-14187786D02*
X7030500Y-14178262D01*
X7030500Y-14178262D02*
X7040024Y-14168738D01*
X7040024Y-14168738D02*
X7049548Y-14149690D01*
X7116214Y-14063976D02*
X7249548Y-14063976D01*
X7249548Y-14063976D02*
X7163833Y-14263976D01*
X7316214Y-14063976D02*
X7316214Y-14102071D01*
X7392405Y-14063976D02*
X7392405Y-14102071D01*
X7655262Y-14340167D02*
X7645738Y-14330643D01*
X7645738Y-14330643D02*
X7626691Y-14302071D01*
X7626691Y-14302071D02*
X7617167Y-14283024D01*
X7617167Y-14283024D02*
X7607643Y-14254452D01*
X7607643Y-14254452D02*
X7598119Y-14206833D01*
X7598119Y-14206833D02*
X7598119Y-14168738D01*
X7598119Y-14168738D02*
X7607643Y-14121119D01*
X7607643Y-14121119D02*
X7617167Y-14092548D01*
X7617167Y-14092548D02*
X7626691Y-14073500D01*
X7626691Y-14073500D02*
X7645738Y-14044928D01*
X7645738Y-14044928D02*
X7655262Y-14035405D01*
X7817167Y-14130643D02*
X7817167Y-14263976D01*
X7769548Y-14054452D02*
X7721929Y-14197309D01*
X7721929Y-14197309D02*
X7845738Y-14197309D01*
X7902881Y-14063976D02*
X8036214Y-14063976D01*
X8036214Y-14063976D02*
X7950500Y-14263976D01*
X8232405Y-14263976D02*
X8232405Y-14063976D01*
X8318119Y-14263976D02*
X8318119Y-14159214D01*
X8318119Y-14159214D02*
X8308595Y-14140167D01*
X8308595Y-14140167D02*
X8289548Y-14130643D01*
X8289548Y-14130643D02*
X8260976Y-14130643D01*
X8260976Y-14130643D02*
X8241929Y-14140167D01*
X8241929Y-14140167D02*
X8232405Y-14149690D01*
X8441929Y-14263976D02*
X8422881Y-14254452D01*
X8422881Y-14254452D02*
X8413357Y-14244928D01*
X8413357Y-14244928D02*
X8403834Y-14225881D01*
X8403834Y-14225881D02*
X8403834Y-14168738D01*
X8403834Y-14168738D02*
X8413357Y-14149690D01*
X8413357Y-14149690D02*
X8422881Y-14140167D01*
X8422881Y-14140167D02*
X8441929Y-14130643D01*
X8441929Y-14130643D02*
X8470500Y-14130643D01*
X8470500Y-14130643D02*
X8489548Y-14140167D01*
X8489548Y-14140167D02*
X8499072Y-14149690D01*
X8499072Y-14149690D02*
X8508595Y-14168738D01*
X8508595Y-14168738D02*
X8508595Y-14225881D01*
X8508595Y-14225881D02*
X8499072Y-14244928D01*
X8499072Y-14244928D02*
X8489548Y-14254452D01*
X8489548Y-14254452D02*
X8470500Y-14263976D01*
X8470500Y-14263976D02*
X8441929Y-14263976D01*
X8622881Y-14263976D02*
X8603834Y-14254452D01*
X8603834Y-14254452D02*
X8594310Y-14235405D01*
X8594310Y-14235405D02*
X8594310Y-14063976D01*
X8775262Y-14254452D02*
X8756215Y-14263976D01*
X8756215Y-14263976D02*
X8718119Y-14263976D01*
X8718119Y-14263976D02*
X8699072Y-14254452D01*
X8699072Y-14254452D02*
X8689548Y-14235405D01*
X8689548Y-14235405D02*
X8689548Y-14159214D01*
X8689548Y-14159214D02*
X8699072Y-14140167D01*
X8699072Y-14140167D02*
X8718119Y-14130643D01*
X8718119Y-14130643D02*
X8756215Y-14130643D01*
X8756215Y-14130643D02*
X8775262Y-14140167D01*
X8775262Y-14140167D02*
X8784786Y-14159214D01*
X8784786Y-14159214D02*
X8784786Y-14178262D01*
X8784786Y-14178262D02*
X8689548Y-14197309D01*
X8860976Y-14254452D02*
X8880024Y-14263976D01*
X8880024Y-14263976D02*
X8918119Y-14263976D01*
X8918119Y-14263976D02*
X8937167Y-14254452D01*
X8937167Y-14254452D02*
X8946691Y-14235405D01*
X8946691Y-14235405D02*
X8946691Y-14225881D01*
X8946691Y-14225881D02*
X8937167Y-14206833D01*
X8937167Y-14206833D02*
X8918119Y-14197309D01*
X8918119Y-14197309D02*
X8889548Y-14197309D01*
X8889548Y-14197309D02*
X8870500Y-14187786D01*
X8870500Y-14187786D02*
X8860976Y-14168738D01*
X8860976Y-14168738D02*
X8860976Y-14159214D01*
X8860976Y-14159214D02*
X8870500Y-14140167D01*
X8870500Y-14140167D02*
X8889548Y-14130643D01*
X8889548Y-14130643D02*
X8918119Y-14130643D01*
X8918119Y-14130643D02*
X8937167Y-14140167D01*
X9013357Y-14340167D02*
X9022881Y-14330643D01*
X9022881Y-14330643D02*
X9041929Y-14302071D01*
X9041929Y-14302071D02*
X9051453Y-14283024D01*
X9051453Y-14283024D02*
X9060976Y-14254452D01*
X9060976Y-14254452D02*
X9070500Y-14206833D01*
X9070500Y-14206833D02*
X9070500Y-14168738D01*
X9070500Y-14168738D02*
X9060976Y-14121119D01*
X9060976Y-14121119D02*
X9051453Y-14092548D01*
X9051453Y-14092548D02*
X9041929Y-14073500D01*
X9041929Y-14073500D02*
X9022881Y-14044928D01*
X9022881Y-14044928D02*
X9013357Y-14035405D01*
D14*
X4181713Y-14475713D02*
X4181713Y-14433287D01*
X4139287Y-14433287D01*
X4139287Y-14475713D01*
X4181713Y-14475713D01*
D11*
X4476214Y-14327976D02*
X4495262Y-14327976D01*
X4495262Y-14327976D02*
X4514310Y-14337500D01*
X4514310Y-14337500D02*
X4523833Y-14347024D01*
X4523833Y-14347024D02*
X4533357Y-14366071D01*
X4533357Y-14366071D02*
X4542881Y-14404167D01*
X4542881Y-14404167D02*
X4542881Y-14451786D01*
X4542881Y-14451786D02*
X4533357Y-14489881D01*
X4533357Y-14489881D02*
X4523833Y-14508928D01*
X4523833Y-14508928D02*
X4514310Y-14518452D01*
X4514310Y-14518452D02*
X4495262Y-14527976D01*
X4495262Y-14527976D02*
X4476214Y-14527976D01*
X4476214Y-14527976D02*
X4457167Y-14518452D01*
X4457167Y-14518452D02*
X4447643Y-14508928D01*
X4447643Y-14508928D02*
X4438119Y-14489881D01*
X4438119Y-14489881D02*
X4428595Y-14451786D01*
X4428595Y-14451786D02*
X4428595Y-14404167D01*
X4428595Y-14404167D02*
X4438119Y-14366071D01*
X4438119Y-14366071D02*
X4447643Y-14347024D01*
X4447643Y-14347024D02*
X4457167Y-14337500D01*
X4457167Y-14337500D02*
X4476214Y-14327976D01*
X4628595Y-14508928D02*
X4638119Y-14518452D01*
X4638119Y-14518452D02*
X4628595Y-14527976D01*
X4628595Y-14527976D02*
X4619071Y-14518452D01*
X4619071Y-14518452D02*
X4628595Y-14508928D01*
X4628595Y-14508928D02*
X4628595Y-14527976D01*
X4809548Y-14327976D02*
X4771452Y-14327976D01*
X4771452Y-14327976D02*
X4752405Y-14337500D01*
X4752405Y-14337500D02*
X4742881Y-14347024D01*
X4742881Y-14347024D02*
X4723833Y-14375595D01*
X4723833Y-14375595D02*
X4714310Y-14413690D01*
X4714310Y-14413690D02*
X4714310Y-14489881D01*
X4714310Y-14489881D02*
X4723833Y-14508928D01*
X4723833Y-14508928D02*
X4733357Y-14518452D01*
X4733357Y-14518452D02*
X4752405Y-14527976D01*
X4752405Y-14527976D02*
X4790500Y-14527976D01*
X4790500Y-14527976D02*
X4809548Y-14518452D01*
X4809548Y-14518452D02*
X4819071Y-14508928D01*
X4819071Y-14508928D02*
X4828595Y-14489881D01*
X4828595Y-14489881D02*
X4828595Y-14442262D01*
X4828595Y-14442262D02*
X4819071Y-14423214D01*
X4819071Y-14423214D02*
X4809548Y-14413690D01*
X4809548Y-14413690D02*
X4790500Y-14404167D01*
X4790500Y-14404167D02*
X4752405Y-14404167D01*
X4752405Y-14404167D02*
X4733357Y-14413690D01*
X4733357Y-14413690D02*
X4723833Y-14423214D01*
X4723833Y-14423214D02*
X4714310Y-14442262D01*
X4952405Y-14327976D02*
X4971452Y-14327976D01*
X4971452Y-14327976D02*
X4990500Y-14337500D01*
X4990500Y-14337500D02*
X5000024Y-14347024D01*
X5000024Y-14347024D02*
X5009548Y-14366071D01*
X5009548Y-14366071D02*
X5019071Y-14404167D01*
X5019071Y-14404167D02*
X5019071Y-14451786D01*
X5019071Y-14451786D02*
X5009548Y-14489881D01*
X5009548Y-14489881D02*
X5000024Y-14508928D01*
X5000024Y-14508928D02*
X4990500Y-14518452D01*
X4990500Y-14518452D02*
X4971452Y-14527976D01*
X4971452Y-14527976D02*
X4952405Y-14527976D01*
X4952405Y-14527976D02*
X4933357Y-14518452D01*
X4933357Y-14518452D02*
X4923833Y-14508928D01*
X4923833Y-14508928D02*
X4914310Y-14489881D01*
X4914310Y-14489881D02*
X4904786Y-14451786D01*
X4904786Y-14451786D02*
X4904786Y-14404167D01*
X4904786Y-14404167D02*
X4914310Y-14366071D01*
X4914310Y-14366071D02*
X4923833Y-14347024D01*
X4923833Y-14347024D02*
X4933357Y-14337500D01*
X4933357Y-14337500D02*
X4952405Y-14327976D01*
X5142881Y-14327976D02*
X5161929Y-14327976D01*
X5161929Y-14327976D02*
X5180976Y-14337500D01*
X5180976Y-14337500D02*
X5190500Y-14347024D01*
X5190500Y-14347024D02*
X5200024Y-14366071D01*
X5200024Y-14366071D02*
X5209548Y-14404167D01*
X5209548Y-14404167D02*
X5209548Y-14451786D01*
X5209548Y-14451786D02*
X5200024Y-14489881D01*
X5200024Y-14489881D02*
X5190500Y-14508928D01*
X5190500Y-14508928D02*
X5180976Y-14518452D01*
X5180976Y-14518452D02*
X5161929Y-14527976D01*
X5161929Y-14527976D02*
X5142881Y-14527976D01*
X5142881Y-14527976D02*
X5123833Y-14518452D01*
X5123833Y-14518452D02*
X5114310Y-14508928D01*
X5114310Y-14508928D02*
X5104786Y-14489881D01*
X5104786Y-14489881D02*
X5095262Y-14451786D01*
X5095262Y-14451786D02*
X5095262Y-14404167D01*
X5095262Y-14404167D02*
X5104786Y-14366071D01*
X5104786Y-14366071D02*
X5114310Y-14347024D01*
X5114310Y-14347024D02*
X5123833Y-14337500D01*
X5123833Y-14337500D02*
X5142881Y-14327976D01*
X5295262Y-14527976D02*
X5295262Y-14394643D01*
X5295262Y-14413690D02*
X5304786Y-14404167D01*
X5304786Y-14404167D02*
X5323833Y-14394643D01*
X5323833Y-14394643D02*
X5352405Y-14394643D01*
X5352405Y-14394643D02*
X5371452Y-14404167D01*
X5371452Y-14404167D02*
X5380976Y-14423214D01*
X5380976Y-14423214D02*
X5380976Y-14527976D01*
X5380976Y-14423214D02*
X5390500Y-14404167D01*
X5390500Y-14404167D02*
X5409548Y-14394643D01*
X5409548Y-14394643D02*
X5438119Y-14394643D01*
X5438119Y-14394643D02*
X5457167Y-14404167D01*
X5457167Y-14404167D02*
X5466691Y-14423214D01*
X5466691Y-14423214D02*
X5466691Y-14527976D01*
X5561929Y-14527976D02*
X5561929Y-14394643D01*
X5561929Y-14413690D02*
X5571452Y-14404167D01*
X5571452Y-14404167D02*
X5590500Y-14394643D01*
X5590500Y-14394643D02*
X5619071Y-14394643D01*
X5619071Y-14394643D02*
X5638119Y-14404167D01*
X5638119Y-14404167D02*
X5647643Y-14423214D01*
X5647643Y-14423214D02*
X5647643Y-14527976D01*
X5647643Y-14423214D02*
X5657167Y-14404167D01*
X5657167Y-14404167D02*
X5676214Y-14394643D01*
X5676214Y-14394643D02*
X5704786Y-14394643D01*
X5704786Y-14394643D02*
X5723833Y-14404167D01*
X5723833Y-14404167D02*
X5733357Y-14423214D01*
X5733357Y-14423214D02*
X5733357Y-14527976D01*
X6091452Y-14318452D02*
X5920024Y-14575595D01*
X6316214Y-14327976D02*
X6335262Y-14327976D01*
X6335262Y-14327976D02*
X6354310Y-14337500D01*
X6354310Y-14337500D02*
X6363833Y-14347024D01*
X6363833Y-14347024D02*
X6373357Y-14366071D01*
X6373357Y-14366071D02*
X6382881Y-14404167D01*
X6382881Y-14404167D02*
X6382881Y-14451786D01*
X6382881Y-14451786D02*
X6373357Y-14489881D01*
X6373357Y-14489881D02*
X6363833Y-14508928D01*
X6363833Y-14508928D02*
X6354310Y-14518452D01*
X6354310Y-14518452D02*
X6335262Y-14527976D01*
X6335262Y-14527976D02*
X6316214Y-14527976D01*
X6316214Y-14527976D02*
X6297167Y-14518452D01*
X6297167Y-14518452D02*
X6287643Y-14508928D01*
X6287643Y-14508928D02*
X6278119Y-14489881D01*
X6278119Y-14489881D02*
X6268595Y-14451786D01*
X6268595Y-14451786D02*
X6268595Y-14404167D01*
X6268595Y-14404167D02*
X6278119Y-14366071D01*
X6278119Y-14366071D02*
X6287643Y-14347024D01*
X6287643Y-14347024D02*
X6297167Y-14337500D01*
X6297167Y-14337500D02*
X6316214Y-14327976D01*
X6468595Y-14508928D02*
X6478119Y-14518452D01*
X6478119Y-14518452D02*
X6468595Y-14527976D01*
X6468595Y-14527976D02*
X6459071Y-14518452D01*
X6459071Y-14518452D02*
X6468595Y-14508928D01*
X6468595Y-14508928D02*
X6468595Y-14527976D01*
X6601929Y-14327976D02*
X6620976Y-14327976D01*
X6620976Y-14327976D02*
X6640024Y-14337500D01*
X6640024Y-14337500D02*
X6649548Y-14347024D01*
X6649548Y-14347024D02*
X6659071Y-14366071D01*
X6659071Y-14366071D02*
X6668595Y-14404167D01*
X6668595Y-14404167D02*
X6668595Y-14451786D01*
X6668595Y-14451786D02*
X6659071Y-14489881D01*
X6659071Y-14489881D02*
X6649548Y-14508928D01*
X6649548Y-14508928D02*
X6640024Y-14518452D01*
X6640024Y-14518452D02*
X6620976Y-14527976D01*
X6620976Y-14527976D02*
X6601929Y-14527976D01*
X6601929Y-14527976D02*
X6582881Y-14518452D01*
X6582881Y-14518452D02*
X6573357Y-14508928D01*
X6573357Y-14508928D02*
X6563833Y-14489881D01*
X6563833Y-14489881D02*
X6554310Y-14451786D01*
X6554310Y-14451786D02*
X6554310Y-14404167D01*
X6554310Y-14404167D02*
X6563833Y-14366071D01*
X6563833Y-14366071D02*
X6573357Y-14347024D01*
X6573357Y-14347024D02*
X6582881Y-14337500D01*
X6582881Y-14337500D02*
X6601929Y-14327976D01*
X6744786Y-14347024D02*
X6754310Y-14337500D01*
X6754310Y-14337500D02*
X6773357Y-14327976D01*
X6773357Y-14327976D02*
X6820976Y-14327976D01*
X6820976Y-14327976D02*
X6840024Y-14337500D01*
X6840024Y-14337500D02*
X6849548Y-14347024D01*
X6849548Y-14347024D02*
X6859071Y-14366071D01*
X6859071Y-14366071D02*
X6859071Y-14385119D01*
X6859071Y-14385119D02*
X6849548Y-14413690D01*
X6849548Y-14413690D02*
X6735262Y-14527976D01*
X6735262Y-14527976D02*
X6859071Y-14527976D01*
X6925738Y-14327976D02*
X7049548Y-14327976D01*
X7049548Y-14327976D02*
X6982881Y-14404167D01*
X6982881Y-14404167D02*
X7011452Y-14404167D01*
X7011452Y-14404167D02*
X7030500Y-14413690D01*
X7030500Y-14413690D02*
X7040024Y-14423214D01*
X7040024Y-14423214D02*
X7049548Y-14442262D01*
X7049548Y-14442262D02*
X7049548Y-14489881D01*
X7049548Y-14489881D02*
X7040024Y-14508928D01*
X7040024Y-14508928D02*
X7030500Y-14518452D01*
X7030500Y-14518452D02*
X7011452Y-14527976D01*
X7011452Y-14527976D02*
X6954310Y-14527976D01*
X6954310Y-14527976D02*
X6935262Y-14518452D01*
X6935262Y-14518452D02*
X6925738Y-14508928D01*
X7220976Y-14327976D02*
X7182881Y-14327976D01*
X7182881Y-14327976D02*
X7163833Y-14337500D01*
X7163833Y-14337500D02*
X7154310Y-14347024D01*
X7154310Y-14347024D02*
X7135262Y-14375595D01*
X7135262Y-14375595D02*
X7125738Y-14413690D01*
X7125738Y-14413690D02*
X7125738Y-14489881D01*
X7125738Y-14489881D02*
X7135262Y-14508928D01*
X7135262Y-14508928D02*
X7144786Y-14518452D01*
X7144786Y-14518452D02*
X7163833Y-14527976D01*
X7163833Y-14527976D02*
X7201929Y-14527976D01*
X7201929Y-14527976D02*
X7220976Y-14518452D01*
X7220976Y-14518452D02*
X7230500Y-14508928D01*
X7230500Y-14508928D02*
X7240024Y-14489881D01*
X7240024Y-14489881D02*
X7240024Y-14442262D01*
X7240024Y-14442262D02*
X7230500Y-14423214D01*
X7230500Y-14423214D02*
X7220976Y-14413690D01*
X7220976Y-14413690D02*
X7201929Y-14404167D01*
X7201929Y-14404167D02*
X7163833Y-14404167D01*
X7163833Y-14404167D02*
X7144786Y-14413690D01*
X7144786Y-14413690D02*
X7135262Y-14423214D01*
X7135262Y-14423214D02*
X7125738Y-14442262D01*
X7316214Y-14327976D02*
X7316214Y-14366071D01*
X7392405Y-14327976D02*
X7392405Y-14366071D01*
X7655262Y-14604167D02*
X7645738Y-14594643D01*
X7645738Y-14594643D02*
X7626691Y-14566071D01*
X7626691Y-14566071D02*
X7617167Y-14547024D01*
X7617167Y-14547024D02*
X7607643Y-14518452D01*
X7607643Y-14518452D02*
X7598119Y-14470833D01*
X7598119Y-14470833D02*
X7598119Y-14432738D01*
X7598119Y-14432738D02*
X7607643Y-14385119D01*
X7607643Y-14385119D02*
X7617167Y-14356548D01*
X7617167Y-14356548D02*
X7626691Y-14337500D01*
X7626691Y-14337500D02*
X7645738Y-14308928D01*
X7645738Y-14308928D02*
X7655262Y-14299405D01*
X7769548Y-14327976D02*
X7788595Y-14327976D01*
X7788595Y-14327976D02*
X7807643Y-14337500D01*
X7807643Y-14337500D02*
X7817167Y-14347024D01*
X7817167Y-14347024D02*
X7826691Y-14366071D01*
X7826691Y-14366071D02*
X7836214Y-14404167D01*
X7836214Y-14404167D02*
X7836214Y-14451786D01*
X7836214Y-14451786D02*
X7826691Y-14489881D01*
X7826691Y-14489881D02*
X7817167Y-14508928D01*
X7817167Y-14508928D02*
X7807643Y-14518452D01*
X7807643Y-14518452D02*
X7788595Y-14527976D01*
X7788595Y-14527976D02*
X7769548Y-14527976D01*
X7769548Y-14527976D02*
X7750500Y-14518452D01*
X7750500Y-14518452D02*
X7740976Y-14508928D01*
X7740976Y-14508928D02*
X7731452Y-14489881D01*
X7731452Y-14489881D02*
X7721929Y-14451786D01*
X7721929Y-14451786D02*
X7721929Y-14404167D01*
X7721929Y-14404167D02*
X7731452Y-14366071D01*
X7731452Y-14366071D02*
X7740976Y-14347024D01*
X7740976Y-14347024D02*
X7750500Y-14337500D01*
X7750500Y-14337500D02*
X7769548Y-14327976D01*
X8041929Y-14527976D02*
X8041929Y-14327976D01*
X8127643Y-14527976D02*
X8127643Y-14423214D01*
X8127643Y-14423214D02*
X8118119Y-14404167D01*
X8118119Y-14404167D02*
X8099072Y-14394643D01*
X8099072Y-14394643D02*
X8070500Y-14394643D01*
X8070500Y-14394643D02*
X8051452Y-14404167D01*
X8051452Y-14404167D02*
X8041929Y-14413690D01*
X8251452Y-14527976D02*
X8232405Y-14518452D01*
X8232405Y-14518452D02*
X8222881Y-14508928D01*
X8222881Y-14508928D02*
X8213357Y-14489881D01*
X8213357Y-14489881D02*
X8213357Y-14432738D01*
X8213357Y-14432738D02*
X8222881Y-14413690D01*
X8222881Y-14413690D02*
X8232405Y-14404167D01*
X8232405Y-14404167D02*
X8251452Y-14394643D01*
X8251452Y-14394643D02*
X8280024Y-14394643D01*
X8280024Y-14394643D02*
X8299072Y-14404167D01*
X8299072Y-14404167D02*
X8308595Y-14413690D01*
X8308595Y-14413690D02*
X8318119Y-14432738D01*
X8318119Y-14432738D02*
X8318119Y-14489881D01*
X8318119Y-14489881D02*
X8308595Y-14508928D01*
X8308595Y-14508928D02*
X8299072Y-14518452D01*
X8299072Y-14518452D02*
X8280024Y-14527976D01*
X8280024Y-14527976D02*
X8251452Y-14527976D01*
X8432405Y-14527976D02*
X8413357Y-14518452D01*
X8413357Y-14518452D02*
X8403834Y-14499405D01*
X8403834Y-14499405D02*
X8403834Y-14327976D01*
X8584786Y-14518452D02*
X8565738Y-14527976D01*
X8565738Y-14527976D02*
X8527643Y-14527976D01*
X8527643Y-14527976D02*
X8508595Y-14518452D01*
X8508595Y-14518452D02*
X8499072Y-14499405D01*
X8499072Y-14499405D02*
X8499072Y-14423214D01*
X8499072Y-14423214D02*
X8508595Y-14404167D01*
X8508595Y-14404167D02*
X8527643Y-14394643D01*
X8527643Y-14394643D02*
X8565738Y-14394643D01*
X8565738Y-14394643D02*
X8584786Y-14404167D01*
X8584786Y-14404167D02*
X8594310Y-14423214D01*
X8594310Y-14423214D02*
X8594310Y-14442262D01*
X8594310Y-14442262D02*
X8499072Y-14461309D01*
X8670500Y-14518452D02*
X8689548Y-14527976D01*
X8689548Y-14527976D02*
X8727643Y-14527976D01*
X8727643Y-14527976D02*
X8746691Y-14518452D01*
X8746691Y-14518452D02*
X8756215Y-14499405D01*
X8756215Y-14499405D02*
X8756215Y-14489881D01*
X8756215Y-14489881D02*
X8746691Y-14470833D01*
X8746691Y-14470833D02*
X8727643Y-14461309D01*
X8727643Y-14461309D02*
X8699072Y-14461309D01*
X8699072Y-14461309D02*
X8680024Y-14451786D01*
X8680024Y-14451786D02*
X8670500Y-14432738D01*
X8670500Y-14432738D02*
X8670500Y-14423214D01*
X8670500Y-14423214D02*
X8680024Y-14404167D01*
X8680024Y-14404167D02*
X8699072Y-14394643D01*
X8699072Y-14394643D02*
X8727643Y-14394643D01*
X8727643Y-14394643D02*
X8746691Y-14404167D01*
X8961929Y-14451786D02*
X9114310Y-14451786D01*
X9038119Y-14527976D02*
X9038119Y-14375595D01*
X9415262Y-14394643D02*
X9415262Y-14527976D01*
X9367643Y-14318452D02*
X9320024Y-14461309D01*
X9320024Y-14461309D02*
X9443834Y-14461309D01*
X9630500Y-14518452D02*
X9649548Y-14527976D01*
X9649548Y-14527976D02*
X9687643Y-14527976D01*
X9687643Y-14527976D02*
X9706691Y-14518452D01*
X9706691Y-14518452D02*
X9716215Y-14499405D01*
X9716215Y-14499405D02*
X9716215Y-14489881D01*
X9716215Y-14489881D02*
X9706691Y-14470833D01*
X9706691Y-14470833D02*
X9687643Y-14461309D01*
X9687643Y-14461309D02*
X9659072Y-14461309D01*
X9659072Y-14461309D02*
X9640024Y-14451786D01*
X9640024Y-14451786D02*
X9630500Y-14432738D01*
X9630500Y-14432738D02*
X9630500Y-14423214D01*
X9630500Y-14423214D02*
X9640024Y-14404167D01*
X9640024Y-14404167D02*
X9659072Y-14394643D01*
X9659072Y-14394643D02*
X9687643Y-14394643D01*
X9687643Y-14394643D02*
X9706691Y-14404167D01*
X9830500Y-14527976D02*
X9811453Y-14518452D01*
X9811453Y-14518452D02*
X9801929Y-14499405D01*
X9801929Y-14499405D02*
X9801929Y-14327976D01*
X9935262Y-14527976D02*
X9916215Y-14518452D01*
X9916215Y-14518452D02*
X9906691Y-14508928D01*
X9906691Y-14508928D02*
X9897167Y-14489881D01*
X9897167Y-14489881D02*
X9897167Y-14432738D01*
X9897167Y-14432738D02*
X9906691Y-14413690D01*
X9906691Y-14413690D02*
X9916215Y-14404167D01*
X9916215Y-14404167D02*
X9935262Y-14394643D01*
X9935262Y-14394643D02*
X9963834Y-14394643D01*
X9963834Y-14394643D02*
X9982881Y-14404167D01*
X9982881Y-14404167D02*
X9992405Y-14413690D01*
X9992405Y-14413690D02*
X10001929Y-14432738D01*
X10001929Y-14432738D02*
X10001929Y-14489881D01*
X10001929Y-14489881D02*
X9992405Y-14508928D01*
X9992405Y-14508928D02*
X9982881Y-14518452D01*
X9982881Y-14518452D02*
X9963834Y-14527976D01*
X9963834Y-14527976D02*
X9935262Y-14527976D01*
X10059072Y-14394643D02*
X10135262Y-14394643D01*
X10087643Y-14327976D02*
X10087643Y-14499405D01*
X10087643Y-14499405D02*
X10097167Y-14518452D01*
X10097167Y-14518452D02*
X10116215Y-14527976D01*
X10116215Y-14527976D02*
X10135262Y-14527976D01*
X10192405Y-14518452D02*
X10211453Y-14527976D01*
X10211453Y-14527976D02*
X10249548Y-14527976D01*
X10249548Y-14527976D02*
X10268596Y-14518452D01*
X10268596Y-14518452D02*
X10278119Y-14499405D01*
X10278119Y-14499405D02*
X10278119Y-14489881D01*
X10278119Y-14489881D02*
X10268596Y-14470833D01*
X10268596Y-14470833D02*
X10249548Y-14461309D01*
X10249548Y-14461309D02*
X10220976Y-14461309D01*
X10220976Y-14461309D02*
X10201929Y-14451786D01*
X10201929Y-14451786D02*
X10192405Y-14432738D01*
X10192405Y-14432738D02*
X10192405Y-14423214D01*
X10192405Y-14423214D02*
X10201929Y-14404167D01*
X10201929Y-14404167D02*
X10220976Y-14394643D01*
X10220976Y-14394643D02*
X10249548Y-14394643D01*
X10249548Y-14394643D02*
X10268596Y-14404167D01*
X10344786Y-14604167D02*
X10354310Y-14594643D01*
X10354310Y-14594643D02*
X10373357Y-14566071D01*
X10373357Y-14566071D02*
X10382881Y-14547024D01*
X10382881Y-14547024D02*
X10392405Y-14518452D01*
X10392405Y-14518452D02*
X10401929Y-14470833D01*
X10401929Y-14470833D02*
X10401929Y-14432738D01*
X10401929Y-14432738D02*
X10392405Y-14385119D01*
X10392405Y-14385119D02*
X10382881Y-14356548D01*
X10382881Y-14356548D02*
X10373357Y-14337500D01*
X10373357Y-14337500D02*
X10354310Y-14308928D01*
X10354310Y-14308928D02*
X10344786Y-14299405D01*
D15*
X4140500Y-14768500D02*
X4190500Y-14718500D01*
X4140500Y-14668500D01*
X4090500Y-14718500D01*
X4140500Y-14768500D01*
D11*
X4542881Y-14791976D02*
X4428595Y-14791976D01*
X4485738Y-14791976D02*
X4485738Y-14591976D01*
X4485738Y-14591976D02*
X4466690Y-14620548D01*
X4466690Y-14620548D02*
X4447643Y-14639595D01*
X4447643Y-14639595D02*
X4428595Y-14649119D01*
X4628595Y-14772928D02*
X4638119Y-14782452D01*
X4638119Y-14782452D02*
X4628595Y-14791976D01*
X4628595Y-14791976D02*
X4619071Y-14782452D01*
X4619071Y-14782452D02*
X4628595Y-14772928D01*
X4628595Y-14772928D02*
X4628595Y-14791976D01*
X4761929Y-14591976D02*
X4780976Y-14591976D01*
X4780976Y-14591976D02*
X4800024Y-14601500D01*
X4800024Y-14601500D02*
X4809548Y-14611024D01*
X4809548Y-14611024D02*
X4819071Y-14630071D01*
X4819071Y-14630071D02*
X4828595Y-14668167D01*
X4828595Y-14668167D02*
X4828595Y-14715786D01*
X4828595Y-14715786D02*
X4819071Y-14753881D01*
X4819071Y-14753881D02*
X4809548Y-14772928D01*
X4809548Y-14772928D02*
X4800024Y-14782452D01*
X4800024Y-14782452D02*
X4780976Y-14791976D01*
X4780976Y-14791976D02*
X4761929Y-14791976D01*
X4761929Y-14791976D02*
X4742881Y-14782452D01*
X4742881Y-14782452D02*
X4733357Y-14772928D01*
X4733357Y-14772928D02*
X4723833Y-14753881D01*
X4723833Y-14753881D02*
X4714310Y-14715786D01*
X4714310Y-14715786D02*
X4714310Y-14668167D01*
X4714310Y-14668167D02*
X4723833Y-14630071D01*
X4723833Y-14630071D02*
X4733357Y-14611024D01*
X4733357Y-14611024D02*
X4742881Y-14601500D01*
X4742881Y-14601500D02*
X4761929Y-14591976D01*
X4952405Y-14591976D02*
X4971452Y-14591976D01*
X4971452Y-14591976D02*
X4990500Y-14601500D01*
X4990500Y-14601500D02*
X5000024Y-14611024D01*
X5000024Y-14611024D02*
X5009548Y-14630071D01*
X5009548Y-14630071D02*
X5019071Y-14668167D01*
X5019071Y-14668167D02*
X5019071Y-14715786D01*
X5019071Y-14715786D02*
X5009548Y-14753881D01*
X5009548Y-14753881D02*
X5000024Y-14772928D01*
X5000024Y-14772928D02*
X4990500Y-14782452D01*
X4990500Y-14782452D02*
X4971452Y-14791976D01*
X4971452Y-14791976D02*
X4952405Y-14791976D01*
X4952405Y-14791976D02*
X4933357Y-14782452D01*
X4933357Y-14782452D02*
X4923833Y-14772928D01*
X4923833Y-14772928D02*
X4914310Y-14753881D01*
X4914310Y-14753881D02*
X4904786Y-14715786D01*
X4904786Y-14715786D02*
X4904786Y-14668167D01*
X4904786Y-14668167D02*
X4914310Y-14630071D01*
X4914310Y-14630071D02*
X4923833Y-14611024D01*
X4923833Y-14611024D02*
X4933357Y-14601500D01*
X4933357Y-14601500D02*
X4952405Y-14591976D01*
X5142881Y-14591976D02*
X5161929Y-14591976D01*
X5161929Y-14591976D02*
X5180976Y-14601500D01*
X5180976Y-14601500D02*
X5190500Y-14611024D01*
X5190500Y-14611024D02*
X5200024Y-14630071D01*
X5200024Y-14630071D02*
X5209548Y-14668167D01*
X5209548Y-14668167D02*
X5209548Y-14715786D01*
X5209548Y-14715786D02*
X5200024Y-14753881D01*
X5200024Y-14753881D02*
X5190500Y-14772928D01*
X5190500Y-14772928D02*
X5180976Y-14782452D01*
X5180976Y-14782452D02*
X5161929Y-14791976D01*
X5161929Y-14791976D02*
X5142881Y-14791976D01*
X5142881Y-14791976D02*
X5123833Y-14782452D01*
X5123833Y-14782452D02*
X5114310Y-14772928D01*
X5114310Y-14772928D02*
X5104786Y-14753881D01*
X5104786Y-14753881D02*
X5095262Y-14715786D01*
X5095262Y-14715786D02*
X5095262Y-14668167D01*
X5095262Y-14668167D02*
X5104786Y-14630071D01*
X5104786Y-14630071D02*
X5114310Y-14611024D01*
X5114310Y-14611024D02*
X5123833Y-14601500D01*
X5123833Y-14601500D02*
X5142881Y-14591976D01*
X5295262Y-14791976D02*
X5295262Y-14658643D01*
X5295262Y-14677690D02*
X5304786Y-14668167D01*
X5304786Y-14668167D02*
X5323833Y-14658643D01*
X5323833Y-14658643D02*
X5352405Y-14658643D01*
X5352405Y-14658643D02*
X5371452Y-14668167D01*
X5371452Y-14668167D02*
X5380976Y-14687214D01*
X5380976Y-14687214D02*
X5380976Y-14791976D01*
X5380976Y-14687214D02*
X5390500Y-14668167D01*
X5390500Y-14668167D02*
X5409548Y-14658643D01*
X5409548Y-14658643D02*
X5438119Y-14658643D01*
X5438119Y-14658643D02*
X5457167Y-14668167D01*
X5457167Y-14668167D02*
X5466691Y-14687214D01*
X5466691Y-14687214D02*
X5466691Y-14791976D01*
X5561929Y-14791976D02*
X5561929Y-14658643D01*
X5561929Y-14677690D02*
X5571452Y-14668167D01*
X5571452Y-14668167D02*
X5590500Y-14658643D01*
X5590500Y-14658643D02*
X5619071Y-14658643D01*
X5619071Y-14658643D02*
X5638119Y-14668167D01*
X5638119Y-14668167D02*
X5647643Y-14687214D01*
X5647643Y-14687214D02*
X5647643Y-14791976D01*
X5647643Y-14687214D02*
X5657167Y-14668167D01*
X5657167Y-14668167D02*
X5676214Y-14658643D01*
X5676214Y-14658643D02*
X5704786Y-14658643D01*
X5704786Y-14658643D02*
X5723833Y-14668167D01*
X5723833Y-14668167D02*
X5733357Y-14687214D01*
X5733357Y-14687214D02*
X5733357Y-14791976D01*
X6091452Y-14582452D02*
X5920024Y-14839595D01*
X6316214Y-14591976D02*
X6335262Y-14591976D01*
X6335262Y-14591976D02*
X6354310Y-14601500D01*
X6354310Y-14601500D02*
X6363833Y-14611024D01*
X6363833Y-14611024D02*
X6373357Y-14630071D01*
X6373357Y-14630071D02*
X6382881Y-14668167D01*
X6382881Y-14668167D02*
X6382881Y-14715786D01*
X6382881Y-14715786D02*
X6373357Y-14753881D01*
X6373357Y-14753881D02*
X6363833Y-14772928D01*
X6363833Y-14772928D02*
X6354310Y-14782452D01*
X6354310Y-14782452D02*
X6335262Y-14791976D01*
X6335262Y-14791976D02*
X6316214Y-14791976D01*
X6316214Y-14791976D02*
X6297167Y-14782452D01*
X6297167Y-14782452D02*
X6287643Y-14772928D01*
X6287643Y-14772928D02*
X6278119Y-14753881D01*
X6278119Y-14753881D02*
X6268595Y-14715786D01*
X6268595Y-14715786D02*
X6268595Y-14668167D01*
X6268595Y-14668167D02*
X6278119Y-14630071D01*
X6278119Y-14630071D02*
X6287643Y-14611024D01*
X6287643Y-14611024D02*
X6297167Y-14601500D01*
X6297167Y-14601500D02*
X6316214Y-14591976D01*
X6468595Y-14772928D02*
X6478119Y-14782452D01*
X6478119Y-14782452D02*
X6468595Y-14791976D01*
X6468595Y-14791976D02*
X6459071Y-14782452D01*
X6459071Y-14782452D02*
X6468595Y-14772928D01*
X6468595Y-14772928D02*
X6468595Y-14791976D01*
X6601929Y-14591976D02*
X6620976Y-14591976D01*
X6620976Y-14591976D02*
X6640024Y-14601500D01*
X6640024Y-14601500D02*
X6649548Y-14611024D01*
X6649548Y-14611024D02*
X6659071Y-14630071D01*
X6659071Y-14630071D02*
X6668595Y-14668167D01*
X6668595Y-14668167D02*
X6668595Y-14715786D01*
X6668595Y-14715786D02*
X6659071Y-14753881D01*
X6659071Y-14753881D02*
X6649548Y-14772928D01*
X6649548Y-14772928D02*
X6640024Y-14782452D01*
X6640024Y-14782452D02*
X6620976Y-14791976D01*
X6620976Y-14791976D02*
X6601929Y-14791976D01*
X6601929Y-14791976D02*
X6582881Y-14782452D01*
X6582881Y-14782452D02*
X6573357Y-14772928D01*
X6573357Y-14772928D02*
X6563833Y-14753881D01*
X6563833Y-14753881D02*
X6554310Y-14715786D01*
X6554310Y-14715786D02*
X6554310Y-14668167D01*
X6554310Y-14668167D02*
X6563833Y-14630071D01*
X6563833Y-14630071D02*
X6573357Y-14611024D01*
X6573357Y-14611024D02*
X6582881Y-14601500D01*
X6582881Y-14601500D02*
X6601929Y-14591976D01*
X6735262Y-14591976D02*
X6859071Y-14591976D01*
X6859071Y-14591976D02*
X6792405Y-14668167D01*
X6792405Y-14668167D02*
X6820976Y-14668167D01*
X6820976Y-14668167D02*
X6840024Y-14677690D01*
X6840024Y-14677690D02*
X6849548Y-14687214D01*
X6849548Y-14687214D02*
X6859071Y-14706262D01*
X6859071Y-14706262D02*
X6859071Y-14753881D01*
X6859071Y-14753881D02*
X6849548Y-14772928D01*
X6849548Y-14772928D02*
X6840024Y-14782452D01*
X6840024Y-14782452D02*
X6820976Y-14791976D01*
X6820976Y-14791976D02*
X6763833Y-14791976D01*
X6763833Y-14791976D02*
X6744786Y-14782452D01*
X6744786Y-14782452D02*
X6735262Y-14772928D01*
X6954310Y-14791976D02*
X6992405Y-14791976D01*
X6992405Y-14791976D02*
X7011452Y-14782452D01*
X7011452Y-14782452D02*
X7020976Y-14772928D01*
X7020976Y-14772928D02*
X7040024Y-14744357D01*
X7040024Y-14744357D02*
X7049548Y-14706262D01*
X7049548Y-14706262D02*
X7049548Y-14630071D01*
X7049548Y-14630071D02*
X7040024Y-14611024D01*
X7040024Y-14611024D02*
X7030500Y-14601500D01*
X7030500Y-14601500D02*
X7011452Y-14591976D01*
X7011452Y-14591976D02*
X6973357Y-14591976D01*
X6973357Y-14591976D02*
X6954310Y-14601500D01*
X6954310Y-14601500D02*
X6944786Y-14611024D01*
X6944786Y-14611024D02*
X6935262Y-14630071D01*
X6935262Y-14630071D02*
X6935262Y-14677690D01*
X6935262Y-14677690D02*
X6944786Y-14696738D01*
X6944786Y-14696738D02*
X6954310Y-14706262D01*
X6954310Y-14706262D02*
X6973357Y-14715786D01*
X6973357Y-14715786D02*
X7011452Y-14715786D01*
X7011452Y-14715786D02*
X7030500Y-14706262D01*
X7030500Y-14706262D02*
X7040024Y-14696738D01*
X7040024Y-14696738D02*
X7049548Y-14677690D01*
X7220976Y-14658643D02*
X7220976Y-14791976D01*
X7173357Y-14582452D02*
X7125738Y-14725309D01*
X7125738Y-14725309D02*
X7249548Y-14725309D01*
X7316214Y-14591976D02*
X7316214Y-14630071D01*
X7392405Y-14591976D02*
X7392405Y-14630071D01*
X7655262Y-14868167D02*
X7645738Y-14858643D01*
X7645738Y-14858643D02*
X7626691Y-14830071D01*
X7626691Y-14830071D02*
X7617167Y-14811024D01*
X7617167Y-14811024D02*
X7607643Y-14782452D01*
X7607643Y-14782452D02*
X7598119Y-14734833D01*
X7598119Y-14734833D02*
X7598119Y-14696738D01*
X7598119Y-14696738D02*
X7607643Y-14649119D01*
X7607643Y-14649119D02*
X7617167Y-14620548D01*
X7617167Y-14620548D02*
X7626691Y-14601500D01*
X7626691Y-14601500D02*
X7645738Y-14572928D01*
X7645738Y-14572928D02*
X7655262Y-14563405D01*
X7817167Y-14658643D02*
X7817167Y-14791976D01*
X7769548Y-14582452D02*
X7721929Y-14725309D01*
X7721929Y-14725309D02*
X7845738Y-14725309D01*
X8041929Y-14791976D02*
X8041929Y-14591976D01*
X8127643Y-14791976D02*
X8127643Y-14687214D01*
X8127643Y-14687214D02*
X8118119Y-14668167D01*
X8118119Y-14668167D02*
X8099072Y-14658643D01*
X8099072Y-14658643D02*
X8070500Y-14658643D01*
X8070500Y-14658643D02*
X8051452Y-14668167D01*
X8051452Y-14668167D02*
X8041929Y-14677690D01*
X8251452Y-14791976D02*
X8232405Y-14782452D01*
X8232405Y-14782452D02*
X8222881Y-14772928D01*
X8222881Y-14772928D02*
X8213357Y-14753881D01*
X8213357Y-14753881D02*
X8213357Y-14696738D01*
X8213357Y-14696738D02*
X8222881Y-14677690D01*
X8222881Y-14677690D02*
X8232405Y-14668167D01*
X8232405Y-14668167D02*
X8251452Y-14658643D01*
X8251452Y-14658643D02*
X8280024Y-14658643D01*
X8280024Y-14658643D02*
X8299072Y-14668167D01*
X8299072Y-14668167D02*
X8308595Y-14677690D01*
X8308595Y-14677690D02*
X8318119Y-14696738D01*
X8318119Y-14696738D02*
X8318119Y-14753881D01*
X8318119Y-14753881D02*
X8308595Y-14772928D01*
X8308595Y-14772928D02*
X8299072Y-14782452D01*
X8299072Y-14782452D02*
X8280024Y-14791976D01*
X8280024Y-14791976D02*
X8251452Y-14791976D01*
X8432405Y-14791976D02*
X8413357Y-14782452D01*
X8413357Y-14782452D02*
X8403834Y-14763405D01*
X8403834Y-14763405D02*
X8403834Y-14591976D01*
X8584786Y-14782452D02*
X8565738Y-14791976D01*
X8565738Y-14791976D02*
X8527643Y-14791976D01*
X8527643Y-14791976D02*
X8508595Y-14782452D01*
X8508595Y-14782452D02*
X8499072Y-14763405D01*
X8499072Y-14763405D02*
X8499072Y-14687214D01*
X8499072Y-14687214D02*
X8508595Y-14668167D01*
X8508595Y-14668167D02*
X8527643Y-14658643D01*
X8527643Y-14658643D02*
X8565738Y-14658643D01*
X8565738Y-14658643D02*
X8584786Y-14668167D01*
X8584786Y-14668167D02*
X8594310Y-14687214D01*
X8594310Y-14687214D02*
X8594310Y-14706262D01*
X8594310Y-14706262D02*
X8499072Y-14725309D01*
X8670500Y-14782452D02*
X8689548Y-14791976D01*
X8689548Y-14791976D02*
X8727643Y-14791976D01*
X8727643Y-14791976D02*
X8746691Y-14782452D01*
X8746691Y-14782452D02*
X8756215Y-14763405D01*
X8756215Y-14763405D02*
X8756215Y-14753881D01*
X8756215Y-14753881D02*
X8746691Y-14734833D01*
X8746691Y-14734833D02*
X8727643Y-14725309D01*
X8727643Y-14725309D02*
X8699072Y-14725309D01*
X8699072Y-14725309D02*
X8680024Y-14715786D01*
X8680024Y-14715786D02*
X8670500Y-14696738D01*
X8670500Y-14696738D02*
X8670500Y-14687214D01*
X8670500Y-14687214D02*
X8680024Y-14668167D01*
X8680024Y-14668167D02*
X8699072Y-14658643D01*
X8699072Y-14658643D02*
X8727643Y-14658643D01*
X8727643Y-14658643D02*
X8746691Y-14668167D01*
X8822881Y-14868167D02*
X8832405Y-14858643D01*
X8832405Y-14858643D02*
X8851453Y-14830071D01*
X8851453Y-14830071D02*
X8860976Y-14811024D01*
X8860976Y-14811024D02*
X8870500Y-14782452D01*
X8870500Y-14782452D02*
X8880024Y-14734833D01*
X8880024Y-14734833D02*
X8880024Y-14696738D01*
X8880024Y-14696738D02*
X8870500Y-14649119D01*
X8870500Y-14649119D02*
X8860976Y-14620548D01*
X8860976Y-14620548D02*
X8851453Y-14601500D01*
X8851453Y-14601500D02*
X8832405Y-14572928D01*
X8832405Y-14572928D02*
X8822881Y-14563405D01*
D16*
X4070500Y-14922500D02*
X4190500Y-15042500D01*
X4190500Y-14922500D02*
X4070500Y-15042500D01*
X4190500Y-14982500D02*
G75*
G03*
X4190500Y-14982500I-60000J0D01*
G01*
D11*
X4542881Y-15055976D02*
X4428595Y-15055976D01*
X4485738Y-15055976D02*
X4485738Y-14855976D01*
X4485738Y-14855976D02*
X4466690Y-14884548D01*
X4466690Y-14884548D02*
X4447643Y-14903595D01*
X4447643Y-14903595D02*
X4428595Y-14913119D01*
X4628595Y-15036928D02*
X4638119Y-15046452D01*
X4638119Y-15046452D02*
X4628595Y-15055976D01*
X4628595Y-15055976D02*
X4619071Y-15046452D01*
X4619071Y-15046452D02*
X4628595Y-15036928D01*
X4628595Y-15036928D02*
X4628595Y-15055976D01*
X4714310Y-14875024D02*
X4723833Y-14865500D01*
X4723833Y-14865500D02*
X4742881Y-14855976D01*
X4742881Y-14855976D02*
X4790500Y-14855976D01*
X4790500Y-14855976D02*
X4809548Y-14865500D01*
X4809548Y-14865500D02*
X4819071Y-14875024D01*
X4819071Y-14875024D02*
X4828595Y-14894071D01*
X4828595Y-14894071D02*
X4828595Y-14913119D01*
X4828595Y-14913119D02*
X4819071Y-14941690D01*
X4819071Y-14941690D02*
X4704786Y-15055976D01*
X4704786Y-15055976D02*
X4828595Y-15055976D01*
X4952405Y-14855976D02*
X4971452Y-14855976D01*
X4971452Y-14855976D02*
X4990500Y-14865500D01*
X4990500Y-14865500D02*
X5000024Y-14875024D01*
X5000024Y-14875024D02*
X5009548Y-14894071D01*
X5009548Y-14894071D02*
X5019071Y-14932167D01*
X5019071Y-14932167D02*
X5019071Y-14979786D01*
X5019071Y-14979786D02*
X5009548Y-15017881D01*
X5009548Y-15017881D02*
X5000024Y-15036928D01*
X5000024Y-15036928D02*
X4990500Y-15046452D01*
X4990500Y-15046452D02*
X4971452Y-15055976D01*
X4971452Y-15055976D02*
X4952405Y-15055976D01*
X4952405Y-15055976D02*
X4933357Y-15046452D01*
X4933357Y-15046452D02*
X4923833Y-15036928D01*
X4923833Y-15036928D02*
X4914310Y-15017881D01*
X4914310Y-15017881D02*
X4904786Y-14979786D01*
X4904786Y-14979786D02*
X4904786Y-14932167D01*
X4904786Y-14932167D02*
X4914310Y-14894071D01*
X4914310Y-14894071D02*
X4923833Y-14875024D01*
X4923833Y-14875024D02*
X4933357Y-14865500D01*
X4933357Y-14865500D02*
X4952405Y-14855976D01*
X5142881Y-14855976D02*
X5161929Y-14855976D01*
X5161929Y-14855976D02*
X5180976Y-14865500D01*
X5180976Y-14865500D02*
X5190500Y-14875024D01*
X5190500Y-14875024D02*
X5200024Y-14894071D01*
X5200024Y-14894071D02*
X5209548Y-14932167D01*
X5209548Y-14932167D02*
X5209548Y-14979786D01*
X5209548Y-14979786D02*
X5200024Y-15017881D01*
X5200024Y-15017881D02*
X5190500Y-15036928D01*
X5190500Y-15036928D02*
X5180976Y-15046452D01*
X5180976Y-15046452D02*
X5161929Y-15055976D01*
X5161929Y-15055976D02*
X5142881Y-15055976D01*
X5142881Y-15055976D02*
X5123833Y-15046452D01*
X5123833Y-15046452D02*
X5114310Y-15036928D01*
X5114310Y-15036928D02*
X5104786Y-15017881D01*
X5104786Y-15017881D02*
X5095262Y-14979786D01*
X5095262Y-14979786D02*
X5095262Y-14932167D01*
X5095262Y-14932167D02*
X5104786Y-14894071D01*
X5104786Y-14894071D02*
X5114310Y-14875024D01*
X5114310Y-14875024D02*
X5123833Y-14865500D01*
X5123833Y-14865500D02*
X5142881Y-14855976D01*
X5295262Y-15055976D02*
X5295262Y-14922643D01*
X5295262Y-14941690D02*
X5304786Y-14932167D01*
X5304786Y-14932167D02*
X5323833Y-14922643D01*
X5323833Y-14922643D02*
X5352405Y-14922643D01*
X5352405Y-14922643D02*
X5371452Y-14932167D01*
X5371452Y-14932167D02*
X5380976Y-14951214D01*
X5380976Y-14951214D02*
X5380976Y-15055976D01*
X5380976Y-14951214D02*
X5390500Y-14932167D01*
X5390500Y-14932167D02*
X5409548Y-14922643D01*
X5409548Y-14922643D02*
X5438119Y-14922643D01*
X5438119Y-14922643D02*
X5457167Y-14932167D01*
X5457167Y-14932167D02*
X5466691Y-14951214D01*
X5466691Y-14951214D02*
X5466691Y-15055976D01*
X5561929Y-15055976D02*
X5561929Y-14922643D01*
X5561929Y-14941690D02*
X5571452Y-14932167D01*
X5571452Y-14932167D02*
X5590500Y-14922643D01*
X5590500Y-14922643D02*
X5619071Y-14922643D01*
X5619071Y-14922643D02*
X5638119Y-14932167D01*
X5638119Y-14932167D02*
X5647643Y-14951214D01*
X5647643Y-14951214D02*
X5647643Y-15055976D01*
X5647643Y-14951214D02*
X5657167Y-14932167D01*
X5657167Y-14932167D02*
X5676214Y-14922643D01*
X5676214Y-14922643D02*
X5704786Y-14922643D01*
X5704786Y-14922643D02*
X5723833Y-14932167D01*
X5723833Y-14932167D02*
X5733357Y-14951214D01*
X5733357Y-14951214D02*
X5733357Y-15055976D01*
X6091452Y-14846452D02*
X5920024Y-15103595D01*
X6316214Y-14855976D02*
X6335262Y-14855976D01*
X6335262Y-14855976D02*
X6354310Y-14865500D01*
X6354310Y-14865500D02*
X6363833Y-14875024D01*
X6363833Y-14875024D02*
X6373357Y-14894071D01*
X6373357Y-14894071D02*
X6382881Y-14932167D01*
X6382881Y-14932167D02*
X6382881Y-14979786D01*
X6382881Y-14979786D02*
X6373357Y-15017881D01*
X6373357Y-15017881D02*
X6363833Y-15036928D01*
X6363833Y-15036928D02*
X6354310Y-15046452D01*
X6354310Y-15046452D02*
X6335262Y-15055976D01*
X6335262Y-15055976D02*
X6316214Y-15055976D01*
X6316214Y-15055976D02*
X6297167Y-15046452D01*
X6297167Y-15046452D02*
X6287643Y-15036928D01*
X6287643Y-15036928D02*
X6278119Y-15017881D01*
X6278119Y-15017881D02*
X6268595Y-14979786D01*
X6268595Y-14979786D02*
X6268595Y-14932167D01*
X6268595Y-14932167D02*
X6278119Y-14894071D01*
X6278119Y-14894071D02*
X6287643Y-14875024D01*
X6287643Y-14875024D02*
X6297167Y-14865500D01*
X6297167Y-14865500D02*
X6316214Y-14855976D01*
X6468595Y-15036928D02*
X6478119Y-15046452D01*
X6478119Y-15046452D02*
X6468595Y-15055976D01*
X6468595Y-15055976D02*
X6459071Y-15046452D01*
X6459071Y-15046452D02*
X6468595Y-15036928D01*
X6468595Y-15036928D02*
X6468595Y-15055976D01*
X6601929Y-14855976D02*
X6620976Y-14855976D01*
X6620976Y-14855976D02*
X6640024Y-14865500D01*
X6640024Y-14865500D02*
X6649548Y-14875024D01*
X6649548Y-14875024D02*
X6659071Y-14894071D01*
X6659071Y-14894071D02*
X6668595Y-14932167D01*
X6668595Y-14932167D02*
X6668595Y-14979786D01*
X6668595Y-14979786D02*
X6659071Y-15017881D01*
X6659071Y-15017881D02*
X6649548Y-15036928D01*
X6649548Y-15036928D02*
X6640024Y-15046452D01*
X6640024Y-15046452D02*
X6620976Y-15055976D01*
X6620976Y-15055976D02*
X6601929Y-15055976D01*
X6601929Y-15055976D02*
X6582881Y-15046452D01*
X6582881Y-15046452D02*
X6573357Y-15036928D01*
X6573357Y-15036928D02*
X6563833Y-15017881D01*
X6563833Y-15017881D02*
X6554310Y-14979786D01*
X6554310Y-14979786D02*
X6554310Y-14932167D01*
X6554310Y-14932167D02*
X6563833Y-14894071D01*
X6563833Y-14894071D02*
X6573357Y-14875024D01*
X6573357Y-14875024D02*
X6582881Y-14865500D01*
X6582881Y-14865500D02*
X6601929Y-14855976D01*
X6840024Y-14922643D02*
X6840024Y-15055976D01*
X6792405Y-14846452D02*
X6744786Y-14989309D01*
X6744786Y-14989309D02*
X6868595Y-14989309D01*
X6925738Y-14855976D02*
X7059071Y-14855976D01*
X7059071Y-14855976D02*
X6973357Y-15055976D01*
X7125738Y-14875024D02*
X7135262Y-14865500D01*
X7135262Y-14865500D02*
X7154310Y-14855976D01*
X7154310Y-14855976D02*
X7201929Y-14855976D01*
X7201929Y-14855976D02*
X7220976Y-14865500D01*
X7220976Y-14865500D02*
X7230500Y-14875024D01*
X7230500Y-14875024D02*
X7240024Y-14894071D01*
X7240024Y-14894071D02*
X7240024Y-14913119D01*
X7240024Y-14913119D02*
X7230500Y-14941690D01*
X7230500Y-14941690D02*
X7116214Y-15055976D01*
X7116214Y-15055976D02*
X7240024Y-15055976D01*
X7316214Y-14855976D02*
X7316214Y-14894071D01*
X7392405Y-14855976D02*
X7392405Y-14894071D01*
X7655262Y-15132167D02*
X7645738Y-15122643D01*
X7645738Y-15122643D02*
X7626691Y-15094071D01*
X7626691Y-15094071D02*
X7617167Y-15075024D01*
X7617167Y-15075024D02*
X7607643Y-15046452D01*
X7607643Y-15046452D02*
X7598119Y-14998833D01*
X7598119Y-14998833D02*
X7598119Y-14960738D01*
X7598119Y-14960738D02*
X7607643Y-14913119D01*
X7607643Y-14913119D02*
X7617167Y-14884548D01*
X7617167Y-14884548D02*
X7626691Y-14865500D01*
X7626691Y-14865500D02*
X7645738Y-14836928D01*
X7645738Y-14836928D02*
X7655262Y-14827405D01*
X7760024Y-14941690D02*
X7740976Y-14932167D01*
X7740976Y-14932167D02*
X7731452Y-14922643D01*
X7731452Y-14922643D02*
X7721929Y-14903595D01*
X7721929Y-14903595D02*
X7721929Y-14894071D01*
X7721929Y-14894071D02*
X7731452Y-14875024D01*
X7731452Y-14875024D02*
X7740976Y-14865500D01*
X7740976Y-14865500D02*
X7760024Y-14855976D01*
X7760024Y-14855976D02*
X7798119Y-14855976D01*
X7798119Y-14855976D02*
X7817167Y-14865500D01*
X7817167Y-14865500D02*
X7826691Y-14875024D01*
X7826691Y-14875024D02*
X7836214Y-14894071D01*
X7836214Y-14894071D02*
X7836214Y-14903595D01*
X7836214Y-14903595D02*
X7826691Y-14922643D01*
X7826691Y-14922643D02*
X7817167Y-14932167D01*
X7817167Y-14932167D02*
X7798119Y-14941690D01*
X7798119Y-14941690D02*
X7760024Y-14941690D01*
X7760024Y-14941690D02*
X7740976Y-14951214D01*
X7740976Y-14951214D02*
X7731452Y-14960738D01*
X7731452Y-14960738D02*
X7721929Y-14979786D01*
X7721929Y-14979786D02*
X7721929Y-15017881D01*
X7721929Y-15017881D02*
X7731452Y-15036928D01*
X7731452Y-15036928D02*
X7740976Y-15046452D01*
X7740976Y-15046452D02*
X7760024Y-15055976D01*
X7760024Y-15055976D02*
X7798119Y-15055976D01*
X7798119Y-15055976D02*
X7817167Y-15046452D01*
X7817167Y-15046452D02*
X7826691Y-15036928D01*
X7826691Y-15036928D02*
X7836214Y-15017881D01*
X7836214Y-15017881D02*
X7836214Y-14979786D01*
X7836214Y-14979786D02*
X7826691Y-14960738D01*
X7826691Y-14960738D02*
X7817167Y-14951214D01*
X7817167Y-14951214D02*
X7798119Y-14941690D01*
X8041929Y-15055976D02*
X8041929Y-14855976D01*
X8127643Y-15055976D02*
X8127643Y-14951214D01*
X8127643Y-14951214D02*
X8118119Y-14932167D01*
X8118119Y-14932167D02*
X8099072Y-14922643D01*
X8099072Y-14922643D02*
X8070500Y-14922643D01*
X8070500Y-14922643D02*
X8051452Y-14932167D01*
X8051452Y-14932167D02*
X8041929Y-14941690D01*
X8251452Y-15055976D02*
X8232405Y-15046452D01*
X8232405Y-15046452D02*
X8222881Y-15036928D01*
X8222881Y-15036928D02*
X8213357Y-15017881D01*
X8213357Y-15017881D02*
X8213357Y-14960738D01*
X8213357Y-14960738D02*
X8222881Y-14941690D01*
X8222881Y-14941690D02*
X8232405Y-14932167D01*
X8232405Y-14932167D02*
X8251452Y-14922643D01*
X8251452Y-14922643D02*
X8280024Y-14922643D01*
X8280024Y-14922643D02*
X8299072Y-14932167D01*
X8299072Y-14932167D02*
X8308595Y-14941690D01*
X8308595Y-14941690D02*
X8318119Y-14960738D01*
X8318119Y-14960738D02*
X8318119Y-15017881D01*
X8318119Y-15017881D02*
X8308595Y-15036928D01*
X8308595Y-15036928D02*
X8299072Y-15046452D01*
X8299072Y-15046452D02*
X8280024Y-15055976D01*
X8280024Y-15055976D02*
X8251452Y-15055976D01*
X8432405Y-15055976D02*
X8413357Y-15046452D01*
X8413357Y-15046452D02*
X8403834Y-15027405D01*
X8403834Y-15027405D02*
X8403834Y-14855976D01*
X8584786Y-15046452D02*
X8565738Y-15055976D01*
X8565738Y-15055976D02*
X8527643Y-15055976D01*
X8527643Y-15055976D02*
X8508595Y-15046452D01*
X8508595Y-15046452D02*
X8499072Y-15027405D01*
X8499072Y-15027405D02*
X8499072Y-14951214D01*
X8499072Y-14951214D02*
X8508595Y-14932167D01*
X8508595Y-14932167D02*
X8527643Y-14922643D01*
X8527643Y-14922643D02*
X8565738Y-14922643D01*
X8565738Y-14922643D02*
X8584786Y-14932167D01*
X8584786Y-14932167D02*
X8594310Y-14951214D01*
X8594310Y-14951214D02*
X8594310Y-14970262D01*
X8594310Y-14970262D02*
X8499072Y-14989309D01*
X8670500Y-15046452D02*
X8689548Y-15055976D01*
X8689548Y-15055976D02*
X8727643Y-15055976D01*
X8727643Y-15055976D02*
X8746691Y-15046452D01*
X8746691Y-15046452D02*
X8756215Y-15027405D01*
X8756215Y-15027405D02*
X8756215Y-15017881D01*
X8756215Y-15017881D02*
X8746691Y-14998833D01*
X8746691Y-14998833D02*
X8727643Y-14989309D01*
X8727643Y-14989309D02*
X8699072Y-14989309D01*
X8699072Y-14989309D02*
X8680024Y-14979786D01*
X8680024Y-14979786D02*
X8670500Y-14960738D01*
X8670500Y-14960738D02*
X8670500Y-14951214D01*
X8670500Y-14951214D02*
X8680024Y-14932167D01*
X8680024Y-14932167D02*
X8699072Y-14922643D01*
X8699072Y-14922643D02*
X8727643Y-14922643D01*
X8727643Y-14922643D02*
X8746691Y-14932167D01*
X8822881Y-15132167D02*
X8832405Y-15122643D01*
X8832405Y-15122643D02*
X8851453Y-15094071D01*
X8851453Y-15094071D02*
X8860976Y-15075024D01*
X8860976Y-15075024D02*
X8870500Y-15046452D01*
X8870500Y-15046452D02*
X8880024Y-14998833D01*
X8880024Y-14998833D02*
X8880024Y-14960738D01*
X8880024Y-14960738D02*
X8870500Y-14913119D01*
X8870500Y-14913119D02*
X8860976Y-14884548D01*
X8860976Y-14884548D02*
X8851453Y-14865500D01*
X8851453Y-14865500D02*
X8832405Y-14836928D01*
X8832405Y-14836928D02*
X8822881Y-14827405D01*
D17*
X4010500Y-15156500D02*
X4190500Y-15336500D01*
X4190500Y-15156500D02*
X4010500Y-15336500D01*
X4100500Y-15156500D02*
X4100500Y-15336500D01*
X4010500Y-15246500D02*
X4190500Y-15246500D01*
D11*
X4542881Y-15319976D02*
X4428595Y-15319976D01*
X4485738Y-15319976D02*
X4485738Y-15119976D01*
X4485738Y-15119976D02*
X4466690Y-15148548D01*
X4466690Y-15148548D02*
X4447643Y-15167595D01*
X4447643Y-15167595D02*
X4428595Y-15177119D01*
X4628595Y-15300928D02*
X4638119Y-15310452D01*
X4638119Y-15310452D02*
X4628595Y-15319976D01*
X4628595Y-15319976D02*
X4619071Y-15310452D01*
X4619071Y-15310452D02*
X4628595Y-15300928D01*
X4628595Y-15300928D02*
X4628595Y-15319976D01*
X4752405Y-15205690D02*
X4733357Y-15196167D01*
X4733357Y-15196167D02*
X4723833Y-15186643D01*
X4723833Y-15186643D02*
X4714310Y-15167595D01*
X4714310Y-15167595D02*
X4714310Y-15158071D01*
X4714310Y-15158071D02*
X4723833Y-15139024D01*
X4723833Y-15139024D02*
X4733357Y-15129500D01*
X4733357Y-15129500D02*
X4752405Y-15119976D01*
X4752405Y-15119976D02*
X4790500Y-15119976D01*
X4790500Y-15119976D02*
X4809548Y-15129500D01*
X4809548Y-15129500D02*
X4819071Y-15139024D01*
X4819071Y-15139024D02*
X4828595Y-15158071D01*
X4828595Y-15158071D02*
X4828595Y-15167595D01*
X4828595Y-15167595D02*
X4819071Y-15186643D01*
X4819071Y-15186643D02*
X4809548Y-15196167D01*
X4809548Y-15196167D02*
X4790500Y-15205690D01*
X4790500Y-15205690D02*
X4752405Y-15205690D01*
X4752405Y-15205690D02*
X4733357Y-15215214D01*
X4733357Y-15215214D02*
X4723833Y-15224738D01*
X4723833Y-15224738D02*
X4714310Y-15243786D01*
X4714310Y-15243786D02*
X4714310Y-15281881D01*
X4714310Y-15281881D02*
X4723833Y-15300928D01*
X4723833Y-15300928D02*
X4733357Y-15310452D01*
X4733357Y-15310452D02*
X4752405Y-15319976D01*
X4752405Y-15319976D02*
X4790500Y-15319976D01*
X4790500Y-15319976D02*
X4809548Y-15310452D01*
X4809548Y-15310452D02*
X4819071Y-15300928D01*
X4819071Y-15300928D02*
X4828595Y-15281881D01*
X4828595Y-15281881D02*
X4828595Y-15243786D01*
X4828595Y-15243786D02*
X4819071Y-15224738D01*
X4819071Y-15224738D02*
X4809548Y-15215214D01*
X4809548Y-15215214D02*
X4790500Y-15205690D01*
X4952405Y-15119976D02*
X4971452Y-15119976D01*
X4971452Y-15119976D02*
X4990500Y-15129500D01*
X4990500Y-15129500D02*
X5000024Y-15139024D01*
X5000024Y-15139024D02*
X5009548Y-15158071D01*
X5009548Y-15158071D02*
X5019071Y-15196167D01*
X5019071Y-15196167D02*
X5019071Y-15243786D01*
X5019071Y-15243786D02*
X5009548Y-15281881D01*
X5009548Y-15281881D02*
X5000024Y-15300928D01*
X5000024Y-15300928D02*
X4990500Y-15310452D01*
X4990500Y-15310452D02*
X4971452Y-15319976D01*
X4971452Y-15319976D02*
X4952405Y-15319976D01*
X4952405Y-15319976D02*
X4933357Y-15310452D01*
X4933357Y-15310452D02*
X4923833Y-15300928D01*
X4923833Y-15300928D02*
X4914310Y-15281881D01*
X4914310Y-15281881D02*
X4904786Y-15243786D01*
X4904786Y-15243786D02*
X4904786Y-15196167D01*
X4904786Y-15196167D02*
X4914310Y-15158071D01*
X4914310Y-15158071D02*
X4923833Y-15139024D01*
X4923833Y-15139024D02*
X4933357Y-15129500D01*
X4933357Y-15129500D02*
X4952405Y-15119976D01*
X5142881Y-15119976D02*
X5161929Y-15119976D01*
X5161929Y-15119976D02*
X5180976Y-15129500D01*
X5180976Y-15129500D02*
X5190500Y-15139024D01*
X5190500Y-15139024D02*
X5200024Y-15158071D01*
X5200024Y-15158071D02*
X5209548Y-15196167D01*
X5209548Y-15196167D02*
X5209548Y-15243786D01*
X5209548Y-15243786D02*
X5200024Y-15281881D01*
X5200024Y-15281881D02*
X5190500Y-15300928D01*
X5190500Y-15300928D02*
X5180976Y-15310452D01*
X5180976Y-15310452D02*
X5161929Y-15319976D01*
X5161929Y-15319976D02*
X5142881Y-15319976D01*
X5142881Y-15319976D02*
X5123833Y-15310452D01*
X5123833Y-15310452D02*
X5114310Y-15300928D01*
X5114310Y-15300928D02*
X5104786Y-15281881D01*
X5104786Y-15281881D02*
X5095262Y-15243786D01*
X5095262Y-15243786D02*
X5095262Y-15196167D01*
X5095262Y-15196167D02*
X5104786Y-15158071D01*
X5104786Y-15158071D02*
X5114310Y-15139024D01*
X5114310Y-15139024D02*
X5123833Y-15129500D01*
X5123833Y-15129500D02*
X5142881Y-15119976D01*
X5295262Y-15319976D02*
X5295262Y-15186643D01*
X5295262Y-15205690D02*
X5304786Y-15196167D01*
X5304786Y-15196167D02*
X5323833Y-15186643D01*
X5323833Y-15186643D02*
X5352405Y-15186643D01*
X5352405Y-15186643D02*
X5371452Y-15196167D01*
X5371452Y-15196167D02*
X5380976Y-15215214D01*
X5380976Y-15215214D02*
X5380976Y-15319976D01*
X5380976Y-15215214D02*
X5390500Y-15196167D01*
X5390500Y-15196167D02*
X5409548Y-15186643D01*
X5409548Y-15186643D02*
X5438119Y-15186643D01*
X5438119Y-15186643D02*
X5457167Y-15196167D01*
X5457167Y-15196167D02*
X5466691Y-15215214D01*
X5466691Y-15215214D02*
X5466691Y-15319976D01*
X5561929Y-15319976D02*
X5561929Y-15186643D01*
X5561929Y-15205690D02*
X5571452Y-15196167D01*
X5571452Y-15196167D02*
X5590500Y-15186643D01*
X5590500Y-15186643D02*
X5619071Y-15186643D01*
X5619071Y-15186643D02*
X5638119Y-15196167D01*
X5638119Y-15196167D02*
X5647643Y-15215214D01*
X5647643Y-15215214D02*
X5647643Y-15319976D01*
X5647643Y-15215214D02*
X5657167Y-15196167D01*
X5657167Y-15196167D02*
X5676214Y-15186643D01*
X5676214Y-15186643D02*
X5704786Y-15186643D01*
X5704786Y-15186643D02*
X5723833Y-15196167D01*
X5723833Y-15196167D02*
X5733357Y-15215214D01*
X5733357Y-15215214D02*
X5733357Y-15319976D01*
X6091452Y-15110452D02*
X5920024Y-15367595D01*
X6316214Y-15119976D02*
X6335262Y-15119976D01*
X6335262Y-15119976D02*
X6354310Y-15129500D01*
X6354310Y-15129500D02*
X6363833Y-15139024D01*
X6363833Y-15139024D02*
X6373357Y-15158071D01*
X6373357Y-15158071D02*
X6382881Y-15196167D01*
X6382881Y-15196167D02*
X6382881Y-15243786D01*
X6382881Y-15243786D02*
X6373357Y-15281881D01*
X6373357Y-15281881D02*
X6363833Y-15300928D01*
X6363833Y-15300928D02*
X6354310Y-15310452D01*
X6354310Y-15310452D02*
X6335262Y-15319976D01*
X6335262Y-15319976D02*
X6316214Y-15319976D01*
X6316214Y-15319976D02*
X6297167Y-15310452D01*
X6297167Y-15310452D02*
X6287643Y-15300928D01*
X6287643Y-15300928D02*
X6278119Y-15281881D01*
X6278119Y-15281881D02*
X6268595Y-15243786D01*
X6268595Y-15243786D02*
X6268595Y-15196167D01*
X6268595Y-15196167D02*
X6278119Y-15158071D01*
X6278119Y-15158071D02*
X6287643Y-15139024D01*
X6287643Y-15139024D02*
X6297167Y-15129500D01*
X6297167Y-15129500D02*
X6316214Y-15119976D01*
X6468595Y-15300928D02*
X6478119Y-15310452D01*
X6478119Y-15310452D02*
X6468595Y-15319976D01*
X6468595Y-15319976D02*
X6459071Y-15310452D01*
X6459071Y-15310452D02*
X6468595Y-15300928D01*
X6468595Y-15300928D02*
X6468595Y-15319976D01*
X6601929Y-15119976D02*
X6620976Y-15119976D01*
X6620976Y-15119976D02*
X6640024Y-15129500D01*
X6640024Y-15129500D02*
X6649548Y-15139024D01*
X6649548Y-15139024D02*
X6659071Y-15158071D01*
X6659071Y-15158071D02*
X6668595Y-15196167D01*
X6668595Y-15196167D02*
X6668595Y-15243786D01*
X6668595Y-15243786D02*
X6659071Y-15281881D01*
X6659071Y-15281881D02*
X6649548Y-15300928D01*
X6649548Y-15300928D02*
X6640024Y-15310452D01*
X6640024Y-15310452D02*
X6620976Y-15319976D01*
X6620976Y-15319976D02*
X6601929Y-15319976D01*
X6601929Y-15319976D02*
X6582881Y-15310452D01*
X6582881Y-15310452D02*
X6573357Y-15300928D01*
X6573357Y-15300928D02*
X6563833Y-15281881D01*
X6563833Y-15281881D02*
X6554310Y-15243786D01*
X6554310Y-15243786D02*
X6554310Y-15196167D01*
X6554310Y-15196167D02*
X6563833Y-15158071D01*
X6563833Y-15158071D02*
X6573357Y-15139024D01*
X6573357Y-15139024D02*
X6582881Y-15129500D01*
X6582881Y-15129500D02*
X6601929Y-15119976D01*
X6735262Y-15119976D02*
X6868595Y-15119976D01*
X6868595Y-15119976D02*
X6782881Y-15319976D01*
X6982881Y-15119976D02*
X7001929Y-15119976D01*
X7001929Y-15119976D02*
X7020976Y-15129500D01*
X7020976Y-15129500D02*
X7030500Y-15139024D01*
X7030500Y-15139024D02*
X7040024Y-15158071D01*
X7040024Y-15158071D02*
X7049548Y-15196167D01*
X7049548Y-15196167D02*
X7049548Y-15243786D01*
X7049548Y-15243786D02*
X7040024Y-15281881D01*
X7040024Y-15281881D02*
X7030500Y-15300928D01*
X7030500Y-15300928D02*
X7020976Y-15310452D01*
X7020976Y-15310452D02*
X7001929Y-15319976D01*
X7001929Y-15319976D02*
X6982881Y-15319976D01*
X6982881Y-15319976D02*
X6963833Y-15310452D01*
X6963833Y-15310452D02*
X6954310Y-15300928D01*
X6954310Y-15300928D02*
X6944786Y-15281881D01*
X6944786Y-15281881D02*
X6935262Y-15243786D01*
X6935262Y-15243786D02*
X6935262Y-15196167D01*
X6935262Y-15196167D02*
X6944786Y-15158071D01*
X6944786Y-15158071D02*
X6954310Y-15139024D01*
X6954310Y-15139024D02*
X6963833Y-15129500D01*
X6963833Y-15129500D02*
X6982881Y-15119976D01*
X7144786Y-15319976D02*
X7182881Y-15319976D01*
X7182881Y-15319976D02*
X7201929Y-15310452D01*
X7201929Y-15310452D02*
X7211452Y-15300928D01*
X7211452Y-15300928D02*
X7230500Y-15272357D01*
X7230500Y-15272357D02*
X7240024Y-15234262D01*
X7240024Y-15234262D02*
X7240024Y-15158071D01*
X7240024Y-15158071D02*
X7230500Y-15139024D01*
X7230500Y-15139024D02*
X7220976Y-15129500D01*
X7220976Y-15129500D02*
X7201929Y-15119976D01*
X7201929Y-15119976D02*
X7163833Y-15119976D01*
X7163833Y-15119976D02*
X7144786Y-15129500D01*
X7144786Y-15129500D02*
X7135262Y-15139024D01*
X7135262Y-15139024D02*
X7125738Y-15158071D01*
X7125738Y-15158071D02*
X7125738Y-15205690D01*
X7125738Y-15205690D02*
X7135262Y-15224738D01*
X7135262Y-15224738D02*
X7144786Y-15234262D01*
X7144786Y-15234262D02*
X7163833Y-15243786D01*
X7163833Y-15243786D02*
X7201929Y-15243786D01*
X7201929Y-15243786D02*
X7220976Y-15234262D01*
X7220976Y-15234262D02*
X7230500Y-15224738D01*
X7230500Y-15224738D02*
X7240024Y-15205690D01*
X7316214Y-15119976D02*
X7316214Y-15158071D01*
X7392405Y-15119976D02*
X7392405Y-15158071D01*
X7655262Y-15396167D02*
X7645738Y-15386643D01*
X7645738Y-15386643D02*
X7626691Y-15358071D01*
X7626691Y-15358071D02*
X7617167Y-15339024D01*
X7617167Y-15339024D02*
X7607643Y-15310452D01*
X7607643Y-15310452D02*
X7598119Y-15262833D01*
X7598119Y-15262833D02*
X7598119Y-15224738D01*
X7598119Y-15224738D02*
X7607643Y-15177119D01*
X7607643Y-15177119D02*
X7617167Y-15148548D01*
X7617167Y-15148548D02*
X7626691Y-15129500D01*
X7626691Y-15129500D02*
X7645738Y-15100928D01*
X7645738Y-15100928D02*
X7655262Y-15091405D01*
X7760024Y-15205690D02*
X7740976Y-15196167D01*
X7740976Y-15196167D02*
X7731452Y-15186643D01*
X7731452Y-15186643D02*
X7721929Y-15167595D01*
X7721929Y-15167595D02*
X7721929Y-15158071D01*
X7721929Y-15158071D02*
X7731452Y-15139024D01*
X7731452Y-15139024D02*
X7740976Y-15129500D01*
X7740976Y-15129500D02*
X7760024Y-15119976D01*
X7760024Y-15119976D02*
X7798119Y-15119976D01*
X7798119Y-15119976D02*
X7817167Y-15129500D01*
X7817167Y-15129500D02*
X7826691Y-15139024D01*
X7826691Y-15139024D02*
X7836214Y-15158071D01*
X7836214Y-15158071D02*
X7836214Y-15167595D01*
X7836214Y-15167595D02*
X7826691Y-15186643D01*
X7826691Y-15186643D02*
X7817167Y-15196167D01*
X7817167Y-15196167D02*
X7798119Y-15205690D01*
X7798119Y-15205690D02*
X7760024Y-15205690D01*
X7760024Y-15205690D02*
X7740976Y-15215214D01*
X7740976Y-15215214D02*
X7731452Y-15224738D01*
X7731452Y-15224738D02*
X7721929Y-15243786D01*
X7721929Y-15243786D02*
X7721929Y-15281881D01*
X7721929Y-15281881D02*
X7731452Y-15300928D01*
X7731452Y-15300928D02*
X7740976Y-15310452D01*
X7740976Y-15310452D02*
X7760024Y-15319976D01*
X7760024Y-15319976D02*
X7798119Y-15319976D01*
X7798119Y-15319976D02*
X7817167Y-15310452D01*
X7817167Y-15310452D02*
X7826691Y-15300928D01*
X7826691Y-15300928D02*
X7836214Y-15281881D01*
X7836214Y-15281881D02*
X7836214Y-15243786D01*
X7836214Y-15243786D02*
X7826691Y-15224738D01*
X7826691Y-15224738D02*
X7817167Y-15215214D01*
X7817167Y-15215214D02*
X7798119Y-15205690D01*
X8041929Y-15319976D02*
X8041929Y-15119976D01*
X8127643Y-15319976D02*
X8127643Y-15215214D01*
X8127643Y-15215214D02*
X8118119Y-15196167D01*
X8118119Y-15196167D02*
X8099072Y-15186643D01*
X8099072Y-15186643D02*
X8070500Y-15186643D01*
X8070500Y-15186643D02*
X8051452Y-15196167D01*
X8051452Y-15196167D02*
X8041929Y-15205690D01*
X8251452Y-15319976D02*
X8232405Y-15310452D01*
X8232405Y-15310452D02*
X8222881Y-15300928D01*
X8222881Y-15300928D02*
X8213357Y-15281881D01*
X8213357Y-15281881D02*
X8213357Y-15224738D01*
X8213357Y-15224738D02*
X8222881Y-15205690D01*
X8222881Y-15205690D02*
X8232405Y-15196167D01*
X8232405Y-15196167D02*
X8251452Y-15186643D01*
X8251452Y-15186643D02*
X8280024Y-15186643D01*
X8280024Y-15186643D02*
X8299072Y-15196167D01*
X8299072Y-15196167D02*
X8308595Y-15205690D01*
X8308595Y-15205690D02*
X8318119Y-15224738D01*
X8318119Y-15224738D02*
X8318119Y-15281881D01*
X8318119Y-15281881D02*
X8308595Y-15300928D01*
X8308595Y-15300928D02*
X8299072Y-15310452D01*
X8299072Y-15310452D02*
X8280024Y-15319976D01*
X8280024Y-15319976D02*
X8251452Y-15319976D01*
X8432405Y-15319976D02*
X8413357Y-15310452D01*
X8413357Y-15310452D02*
X8403834Y-15291405D01*
X8403834Y-15291405D02*
X8403834Y-15119976D01*
X8584786Y-15310452D02*
X8565738Y-15319976D01*
X8565738Y-15319976D02*
X8527643Y-15319976D01*
X8527643Y-15319976D02*
X8508595Y-15310452D01*
X8508595Y-15310452D02*
X8499072Y-15291405D01*
X8499072Y-15291405D02*
X8499072Y-15215214D01*
X8499072Y-15215214D02*
X8508595Y-15196167D01*
X8508595Y-15196167D02*
X8527643Y-15186643D01*
X8527643Y-15186643D02*
X8565738Y-15186643D01*
X8565738Y-15186643D02*
X8584786Y-15196167D01*
X8584786Y-15196167D02*
X8594310Y-15215214D01*
X8594310Y-15215214D02*
X8594310Y-15234262D01*
X8594310Y-15234262D02*
X8499072Y-15253309D01*
X8670500Y-15310452D02*
X8689548Y-15319976D01*
X8689548Y-15319976D02*
X8727643Y-15319976D01*
X8727643Y-15319976D02*
X8746691Y-15310452D01*
X8746691Y-15310452D02*
X8756215Y-15291405D01*
X8756215Y-15291405D02*
X8756215Y-15281881D01*
X8756215Y-15281881D02*
X8746691Y-15262833D01*
X8746691Y-15262833D02*
X8727643Y-15253309D01*
X8727643Y-15253309D02*
X8699072Y-15253309D01*
X8699072Y-15253309D02*
X8680024Y-15243786D01*
X8680024Y-15243786D02*
X8670500Y-15224738D01*
X8670500Y-15224738D02*
X8670500Y-15215214D01*
X8670500Y-15215214D02*
X8680024Y-15196167D01*
X8680024Y-15196167D02*
X8699072Y-15186643D01*
X8699072Y-15186643D02*
X8727643Y-15186643D01*
X8727643Y-15186643D02*
X8746691Y-15196167D01*
X8822881Y-15396167D02*
X8832405Y-15386643D01*
X8832405Y-15386643D02*
X8851453Y-15358071D01*
X8851453Y-15358071D02*
X8860976Y-15339024D01*
X8860976Y-15339024D02*
X8870500Y-15310452D01*
X8870500Y-15310452D02*
X8880024Y-15262833D01*
X8880024Y-15262833D02*
X8880024Y-15224738D01*
X8880024Y-15224738D02*
X8870500Y-15177119D01*
X8870500Y-15177119D02*
X8860976Y-15148548D01*
X8860976Y-15148548D02*
X8851453Y-15129500D01*
X8851453Y-15129500D02*
X8832405Y-15100928D01*
X8832405Y-15100928D02*
X8822881Y-15091405D01*
X3990500Y-15446500D02*
X4190500Y-15646500D01*
X4190500Y-15446500D02*
X3990500Y-15646500D01*
X4161211Y-15617211D02*
X4161211Y-15475789D01*
X4019789Y-15475789D01*
X4019789Y-15617211D01*
X4161211Y-15617211D01*
X4419071Y-15419976D02*
X4542881Y-15419976D01*
X4542881Y-15419976D02*
X4476214Y-15496167D01*
X4476214Y-15496167D02*
X4504786Y-15496167D01*
X4504786Y-15496167D02*
X4523833Y-15505690D01*
X4523833Y-15505690D02*
X4533357Y-15515214D01*
X4533357Y-15515214D02*
X4542881Y-15534262D01*
X4542881Y-15534262D02*
X4542881Y-15581881D01*
X4542881Y-15581881D02*
X4533357Y-15600928D01*
X4533357Y-15600928D02*
X4523833Y-15610452D01*
X4523833Y-15610452D02*
X4504786Y-15619976D01*
X4504786Y-15619976D02*
X4447643Y-15619976D01*
X4447643Y-15619976D02*
X4428595Y-15610452D01*
X4428595Y-15610452D02*
X4419071Y-15600928D01*
X4628595Y-15600928D02*
X4638119Y-15610452D01*
X4638119Y-15610452D02*
X4628595Y-15619976D01*
X4628595Y-15619976D02*
X4619071Y-15610452D01*
X4619071Y-15610452D02*
X4628595Y-15600928D01*
X4628595Y-15600928D02*
X4628595Y-15619976D01*
X4714310Y-15439024D02*
X4723833Y-15429500D01*
X4723833Y-15429500D02*
X4742881Y-15419976D01*
X4742881Y-15419976D02*
X4790500Y-15419976D01*
X4790500Y-15419976D02*
X4809548Y-15429500D01*
X4809548Y-15429500D02*
X4819071Y-15439024D01*
X4819071Y-15439024D02*
X4828595Y-15458071D01*
X4828595Y-15458071D02*
X4828595Y-15477119D01*
X4828595Y-15477119D02*
X4819071Y-15505690D01*
X4819071Y-15505690D02*
X4704786Y-15619976D01*
X4704786Y-15619976D02*
X4828595Y-15619976D01*
X4952405Y-15419976D02*
X4971452Y-15419976D01*
X4971452Y-15419976D02*
X4990500Y-15429500D01*
X4990500Y-15429500D02*
X5000024Y-15439024D01*
X5000024Y-15439024D02*
X5009548Y-15458071D01*
X5009548Y-15458071D02*
X5019071Y-15496167D01*
X5019071Y-15496167D02*
X5019071Y-15543786D01*
X5019071Y-15543786D02*
X5009548Y-15581881D01*
X5009548Y-15581881D02*
X5000024Y-15600928D01*
X5000024Y-15600928D02*
X4990500Y-15610452D01*
X4990500Y-15610452D02*
X4971452Y-15619976D01*
X4971452Y-15619976D02*
X4952405Y-15619976D01*
X4952405Y-15619976D02*
X4933357Y-15610452D01*
X4933357Y-15610452D02*
X4923833Y-15600928D01*
X4923833Y-15600928D02*
X4914310Y-15581881D01*
X4914310Y-15581881D02*
X4904786Y-15543786D01*
X4904786Y-15543786D02*
X4904786Y-15496167D01*
X4904786Y-15496167D02*
X4914310Y-15458071D01*
X4914310Y-15458071D02*
X4923833Y-15439024D01*
X4923833Y-15439024D02*
X4933357Y-15429500D01*
X4933357Y-15429500D02*
X4952405Y-15419976D01*
X5142881Y-15419976D02*
X5161929Y-15419976D01*
X5161929Y-15419976D02*
X5180976Y-15429500D01*
X5180976Y-15429500D02*
X5190500Y-15439024D01*
X5190500Y-15439024D02*
X5200024Y-15458071D01*
X5200024Y-15458071D02*
X5209548Y-15496167D01*
X5209548Y-15496167D02*
X5209548Y-15543786D01*
X5209548Y-15543786D02*
X5200024Y-15581881D01*
X5200024Y-15581881D02*
X5190500Y-15600928D01*
X5190500Y-15600928D02*
X5180976Y-15610452D01*
X5180976Y-15610452D02*
X5161929Y-15619976D01*
X5161929Y-15619976D02*
X5142881Y-15619976D01*
X5142881Y-15619976D02*
X5123833Y-15610452D01*
X5123833Y-15610452D02*
X5114310Y-15600928D01*
X5114310Y-15600928D02*
X5104786Y-15581881D01*
X5104786Y-15581881D02*
X5095262Y-15543786D01*
X5095262Y-15543786D02*
X5095262Y-15496167D01*
X5095262Y-15496167D02*
X5104786Y-15458071D01*
X5104786Y-15458071D02*
X5114310Y-15439024D01*
X5114310Y-15439024D02*
X5123833Y-15429500D01*
X5123833Y-15429500D02*
X5142881Y-15419976D01*
X5295262Y-15619976D02*
X5295262Y-15486643D01*
X5295262Y-15505690D02*
X5304786Y-15496167D01*
X5304786Y-15496167D02*
X5323833Y-15486643D01*
X5323833Y-15486643D02*
X5352405Y-15486643D01*
X5352405Y-15486643D02*
X5371452Y-15496167D01*
X5371452Y-15496167D02*
X5380976Y-15515214D01*
X5380976Y-15515214D02*
X5380976Y-15619976D01*
X5380976Y-15515214D02*
X5390500Y-15496167D01*
X5390500Y-15496167D02*
X5409548Y-15486643D01*
X5409548Y-15486643D02*
X5438119Y-15486643D01*
X5438119Y-15486643D02*
X5457167Y-15496167D01*
X5457167Y-15496167D02*
X5466691Y-15515214D01*
X5466691Y-15515214D02*
X5466691Y-15619976D01*
X5561929Y-15619976D02*
X5561929Y-15486643D01*
X5561929Y-15505690D02*
X5571452Y-15496167D01*
X5571452Y-15496167D02*
X5590500Y-15486643D01*
X5590500Y-15486643D02*
X5619071Y-15486643D01*
X5619071Y-15486643D02*
X5638119Y-15496167D01*
X5638119Y-15496167D02*
X5647643Y-15515214D01*
X5647643Y-15515214D02*
X5647643Y-15619976D01*
X5647643Y-15515214D02*
X5657167Y-15496167D01*
X5657167Y-15496167D02*
X5676214Y-15486643D01*
X5676214Y-15486643D02*
X5704786Y-15486643D01*
X5704786Y-15486643D02*
X5723833Y-15496167D01*
X5723833Y-15496167D02*
X5733357Y-15515214D01*
X5733357Y-15515214D02*
X5733357Y-15619976D01*
X6091452Y-15410452D02*
X5920024Y-15667595D01*
X6316214Y-15419976D02*
X6335262Y-15419976D01*
X6335262Y-15419976D02*
X6354310Y-15429500D01*
X6354310Y-15429500D02*
X6363833Y-15439024D01*
X6363833Y-15439024D02*
X6373357Y-15458071D01*
X6373357Y-15458071D02*
X6382881Y-15496167D01*
X6382881Y-15496167D02*
X6382881Y-15543786D01*
X6382881Y-15543786D02*
X6373357Y-15581881D01*
X6373357Y-15581881D02*
X6363833Y-15600928D01*
X6363833Y-15600928D02*
X6354310Y-15610452D01*
X6354310Y-15610452D02*
X6335262Y-15619976D01*
X6335262Y-15619976D02*
X6316214Y-15619976D01*
X6316214Y-15619976D02*
X6297167Y-15610452D01*
X6297167Y-15610452D02*
X6287643Y-15600928D01*
X6287643Y-15600928D02*
X6278119Y-15581881D01*
X6278119Y-15581881D02*
X6268595Y-15543786D01*
X6268595Y-15543786D02*
X6268595Y-15496167D01*
X6268595Y-15496167D02*
X6278119Y-15458071D01*
X6278119Y-15458071D02*
X6287643Y-15439024D01*
X6287643Y-15439024D02*
X6297167Y-15429500D01*
X6297167Y-15429500D02*
X6316214Y-15419976D01*
X6468595Y-15600928D02*
X6478119Y-15610452D01*
X6478119Y-15610452D02*
X6468595Y-15619976D01*
X6468595Y-15619976D02*
X6459071Y-15610452D01*
X6459071Y-15610452D02*
X6468595Y-15600928D01*
X6468595Y-15600928D02*
X6468595Y-15619976D01*
X6668595Y-15619976D02*
X6554310Y-15619976D01*
X6611452Y-15619976D02*
X6611452Y-15419976D01*
X6611452Y-15419976D02*
X6592405Y-15448548D01*
X6592405Y-15448548D02*
X6573357Y-15467595D01*
X6573357Y-15467595D02*
X6554310Y-15477119D01*
X6744786Y-15439024D02*
X6754310Y-15429500D01*
X6754310Y-15429500D02*
X6773357Y-15419976D01*
X6773357Y-15419976D02*
X6820976Y-15419976D01*
X6820976Y-15419976D02*
X6840024Y-15429500D01*
X6840024Y-15429500D02*
X6849548Y-15439024D01*
X6849548Y-15439024D02*
X6859071Y-15458071D01*
X6859071Y-15458071D02*
X6859071Y-15477119D01*
X6859071Y-15477119D02*
X6849548Y-15505690D01*
X6849548Y-15505690D02*
X6735262Y-15619976D01*
X6735262Y-15619976D02*
X6859071Y-15619976D01*
X7030500Y-15419976D02*
X6992405Y-15419976D01*
X6992405Y-15419976D02*
X6973357Y-15429500D01*
X6973357Y-15429500D02*
X6963833Y-15439024D01*
X6963833Y-15439024D02*
X6944786Y-15467595D01*
X6944786Y-15467595D02*
X6935262Y-15505690D01*
X6935262Y-15505690D02*
X6935262Y-15581881D01*
X6935262Y-15581881D02*
X6944786Y-15600928D01*
X6944786Y-15600928D02*
X6954310Y-15610452D01*
X6954310Y-15610452D02*
X6973357Y-15619976D01*
X6973357Y-15619976D02*
X7011452Y-15619976D01*
X7011452Y-15619976D02*
X7030500Y-15610452D01*
X7030500Y-15610452D02*
X7040024Y-15600928D01*
X7040024Y-15600928D02*
X7049548Y-15581881D01*
X7049548Y-15581881D02*
X7049548Y-15534262D01*
X7049548Y-15534262D02*
X7040024Y-15515214D01*
X7040024Y-15515214D02*
X7030500Y-15505690D01*
X7030500Y-15505690D02*
X7011452Y-15496167D01*
X7011452Y-15496167D02*
X6973357Y-15496167D01*
X6973357Y-15496167D02*
X6954310Y-15505690D01*
X6954310Y-15505690D02*
X6944786Y-15515214D01*
X6944786Y-15515214D02*
X6935262Y-15534262D01*
X7173357Y-15419976D02*
X7192405Y-15419976D01*
X7192405Y-15419976D02*
X7211452Y-15429500D01*
X7211452Y-15429500D02*
X7220976Y-15439024D01*
X7220976Y-15439024D02*
X7230500Y-15458071D01*
X7230500Y-15458071D02*
X7240024Y-15496167D01*
X7240024Y-15496167D02*
X7240024Y-15543786D01*
X7240024Y-15543786D02*
X7230500Y-15581881D01*
X7230500Y-15581881D02*
X7220976Y-15600928D01*
X7220976Y-15600928D02*
X7211452Y-15610452D01*
X7211452Y-15610452D02*
X7192405Y-15619976D01*
X7192405Y-15619976D02*
X7173357Y-15619976D01*
X7173357Y-15619976D02*
X7154310Y-15610452D01*
X7154310Y-15610452D02*
X7144786Y-15600928D01*
X7144786Y-15600928D02*
X7135262Y-15581881D01*
X7135262Y-15581881D02*
X7125738Y-15543786D01*
X7125738Y-15543786D02*
X7125738Y-15496167D01*
X7125738Y-15496167D02*
X7135262Y-15458071D01*
X7135262Y-15458071D02*
X7144786Y-15439024D01*
X7144786Y-15439024D02*
X7154310Y-15429500D01*
X7154310Y-15429500D02*
X7173357Y-15419976D01*
X7316214Y-15419976D02*
X7316214Y-15458071D01*
X7392405Y-15419976D02*
X7392405Y-15458071D01*
X7655262Y-15696167D02*
X7645738Y-15686643D01*
X7645738Y-15686643D02*
X7626691Y-15658071D01*
X7626691Y-15658071D02*
X7617167Y-15639024D01*
X7617167Y-15639024D02*
X7607643Y-15610452D01*
X7607643Y-15610452D02*
X7598119Y-15562833D01*
X7598119Y-15562833D02*
X7598119Y-15524738D01*
X7598119Y-15524738D02*
X7607643Y-15477119D01*
X7607643Y-15477119D02*
X7617167Y-15448548D01*
X7617167Y-15448548D02*
X7626691Y-15429500D01*
X7626691Y-15429500D02*
X7645738Y-15400928D01*
X7645738Y-15400928D02*
X7655262Y-15391405D01*
X7817167Y-15486643D02*
X7817167Y-15619976D01*
X7769548Y-15410452D02*
X7721929Y-15553309D01*
X7721929Y-15553309D02*
X7845738Y-15553309D01*
X8041929Y-15619976D02*
X8041929Y-15419976D01*
X8127643Y-15619976D02*
X8127643Y-15515214D01*
X8127643Y-15515214D02*
X8118119Y-15496167D01*
X8118119Y-15496167D02*
X8099072Y-15486643D01*
X8099072Y-15486643D02*
X8070500Y-15486643D01*
X8070500Y-15486643D02*
X8051452Y-15496167D01*
X8051452Y-15496167D02*
X8041929Y-15505690D01*
X8251452Y-15619976D02*
X8232405Y-15610452D01*
X8232405Y-15610452D02*
X8222881Y-15600928D01*
X8222881Y-15600928D02*
X8213357Y-15581881D01*
X8213357Y-15581881D02*
X8213357Y-15524738D01*
X8213357Y-15524738D02*
X8222881Y-15505690D01*
X8222881Y-15505690D02*
X8232405Y-15496167D01*
X8232405Y-15496167D02*
X8251452Y-15486643D01*
X8251452Y-15486643D02*
X8280024Y-15486643D01*
X8280024Y-15486643D02*
X8299072Y-15496167D01*
X8299072Y-15496167D02*
X8308595Y-15505690D01*
X8308595Y-15505690D02*
X8318119Y-15524738D01*
X8318119Y-15524738D02*
X8318119Y-15581881D01*
X8318119Y-15581881D02*
X8308595Y-15600928D01*
X8308595Y-15600928D02*
X8299072Y-15610452D01*
X8299072Y-15610452D02*
X8280024Y-15619976D01*
X8280024Y-15619976D02*
X8251452Y-15619976D01*
X8432405Y-15619976D02*
X8413357Y-15610452D01*
X8413357Y-15610452D02*
X8403834Y-15591405D01*
X8403834Y-15591405D02*
X8403834Y-15419976D01*
X8584786Y-15610452D02*
X8565738Y-15619976D01*
X8565738Y-15619976D02*
X8527643Y-15619976D01*
X8527643Y-15619976D02*
X8508595Y-15610452D01*
X8508595Y-15610452D02*
X8499072Y-15591405D01*
X8499072Y-15591405D02*
X8499072Y-15515214D01*
X8499072Y-15515214D02*
X8508595Y-15496167D01*
X8508595Y-15496167D02*
X8527643Y-15486643D01*
X8527643Y-15486643D02*
X8565738Y-15486643D01*
X8565738Y-15486643D02*
X8584786Y-15496167D01*
X8584786Y-15496167D02*
X8594310Y-15515214D01*
X8594310Y-15515214D02*
X8594310Y-15534262D01*
X8594310Y-15534262D02*
X8499072Y-15553309D01*
X8670500Y-15610452D02*
X8689548Y-15619976D01*
X8689548Y-15619976D02*
X8727643Y-15619976D01*
X8727643Y-15619976D02*
X8746691Y-15610452D01*
X8746691Y-15610452D02*
X8756215Y-15591405D01*
X8756215Y-15591405D02*
X8756215Y-15581881D01*
X8756215Y-15581881D02*
X8746691Y-15562833D01*
X8746691Y-15562833D02*
X8727643Y-15553309D01*
X8727643Y-15553309D02*
X8699072Y-15553309D01*
X8699072Y-15553309D02*
X8680024Y-15543786D01*
X8680024Y-15543786D02*
X8670500Y-15524738D01*
X8670500Y-15524738D02*
X8670500Y-15515214D01*
X8670500Y-15515214D02*
X8680024Y-15496167D01*
X8680024Y-15496167D02*
X8699072Y-15486643D01*
X8699072Y-15486643D02*
X8727643Y-15486643D01*
X8727643Y-15486643D02*
X8746691Y-15496167D01*
X8822881Y-15696167D02*
X8832405Y-15686643D01*
X8832405Y-15686643D02*
X8851453Y-15658071D01*
X8851453Y-15658071D02*
X8860976Y-15639024D01*
X8860976Y-15639024D02*
X8870500Y-15610452D01*
X8870500Y-15610452D02*
X8880024Y-15562833D01*
X8880024Y-15562833D02*
X8880024Y-15524738D01*
X8880024Y-15524738D02*
X8870500Y-15477119D01*
X8870500Y-15477119D02*
X8860976Y-15448548D01*
X8860976Y-15448548D02*
X8851453Y-15429500D01*
X8851453Y-15429500D02*
X8832405Y-15400928D01*
X8832405Y-15400928D02*
X8822881Y-15391405D01*
M02*
