%TF.GenerationSoftware,KiCad,Pcbnew,(7.0.0)*%
%TF.CreationDate,2023-03-30T21:36:21+01:00*%
%TF.ProjectId,flintandsteel,666c696e-7461-46e6-9473-7465656c2e6b,rev?*%
%TF.SameCoordinates,Original*%
%TF.FileFunction,Copper,L2,Inr*%
%TF.FilePolarity,Positive*%
%FSLAX46Y46*%
G04 Gerber Fmt 4.6, Leading zero omitted, Abs format (unit mm)*
G04 Created by KiCad (PCBNEW (7.0.0)) date 2023-03-30 21:36:21*
%MOMM*%
%LPD*%
G01*
G04 APERTURE LIST*
G04 Aperture macros list*
%AMRoundRect*
0 Rectangle with rounded corners*
0 $1 Rounding radius*
0 $2 $3 $4 $5 $6 $7 $8 $9 X,Y pos of 4 corners*
0 Add a 4 corners polygon primitive as box body*
4,1,4,$2,$3,$4,$5,$6,$7,$8,$9,$2,$3,0*
0 Add four circle primitives for the rounded corners*
1,1,$1+$1,$2,$3*
1,1,$1+$1,$4,$5*
1,1,$1+$1,$6,$7*
1,1,$1+$1,$8,$9*
0 Add four rect primitives between the rounded corners*
20,1,$1+$1,$2,$3,$4,$5,0*
20,1,$1+$1,$4,$5,$6,$7,0*
20,1,$1+$1,$6,$7,$8,$9,0*
20,1,$1+$1,$8,$9,$2,$3,0*%
G04 Aperture macros list end*
%TA.AperFunction,ComponentPad*%
%ADD10R,1.700000X1.700000*%
%TD*%
%TA.AperFunction,ComponentPad*%
%ADD11O,1.700000X1.700000*%
%TD*%
%TA.AperFunction,ComponentPad*%
%ADD12R,2.400000X2.400000*%
%TD*%
%TA.AperFunction,ComponentPad*%
%ADD13C,2.400000*%
%TD*%
%TA.AperFunction,ComponentPad*%
%ADD14C,5.600000*%
%TD*%
%TA.AperFunction,ComponentPad*%
%ADD15O,0.900000X2.000000*%
%TD*%
%TA.AperFunction,ComponentPad*%
%ADD16O,0.900000X1.700000*%
%TD*%
%TA.AperFunction,ComponentPad*%
%ADD17RoundRect,0.250001X1.599999X-1.099999X1.599999X1.099999X-1.599999X1.099999X-1.599999X-1.099999X0*%
%TD*%
%TA.AperFunction,ComponentPad*%
%ADD18O,3.700000X2.700000*%
%TD*%
%TA.AperFunction,ViaPad*%
%ADD19C,0.450000*%
%TD*%
%TA.AperFunction,ViaPad*%
%ADD20C,0.600000*%
%TD*%
%TA.AperFunction,ViaPad*%
%ADD21C,0.800000*%
%TD*%
%TA.AperFunction,ViaPad*%
%ADD22C,1.000000*%
%TD*%
G04 APERTURE END LIST*
D10*
%TO.N,GND*%
%TO.C,BOOTJUMPER1*%
X43928999Y-93391999D03*
D11*
%TO.N,/BOOT*%
X46468999Y-93391999D03*
%TD*%
D12*
%TO.N,+12V*%
%TO.C,J5*%
X81813298Y-104267358D03*
D13*
%TO.N,Net-(J5-Pin_2)*%
X81813299Y-100767359D03*
%TD*%
D12*
%TO.N,+12V*%
%TO.C,J4*%
X81839698Y-94813137D03*
D13*
%TO.N,Net-(J4-Pin_2)*%
X81839699Y-91313138D03*
%TD*%
D14*
%TO.N,GND*%
%TO.C,H2*%
X45000000Y-127200000D03*
%TD*%
%TO.N,GND*%
%TO.C,H1*%
X83067002Y-127200001D03*
%TD*%
%TO.N,GND*%
%TO.C,H3*%
X45000000Y-70200000D03*
%TD*%
D15*
%TO.N,GND*%
%TO.C,J2*%
X61455999Y-73989999D03*
D16*
X61455999Y-69819999D03*
D15*
X52815999Y-73989999D03*
D16*
X52815999Y-69819999D03*
%TD*%
D17*
%TO.N,GND*%
%TO.C,J1*%
X44754100Y-111099999D03*
D18*
X44754099Y-106899998D03*
X44754099Y-102699998D03*
%TO.N,RBUS_uC_V*%
X44754099Y-98499998D03*
%TO.N,/DeployV*%
X50254099Y-111099998D03*
X50254099Y-106899998D03*
%TO.N,/CAN+*%
X50254099Y-102699998D03*
%TO.N,/CAN-*%
X50254099Y-98499998D03*
%TD*%
D12*
%TO.N,+12V*%
%TO.C,J6*%
X81798881Y-113703228D03*
D13*
%TO.N,Net-(J6-Pin_2)*%
X81798882Y-110203229D03*
%TD*%
D14*
%TO.N,GND*%
%TO.C,H4*%
X83000000Y-70200000D03*
%TD*%
D10*
%TO.N,GND*%
%TO.C,ENJUMPER1*%
X43927999Y-89783999D03*
D11*
%TO.N,/CHIP_PU*%
X46467999Y-89783999D03*
%TD*%
D12*
%TO.N,+12V*%
%TO.C,J3*%
X81813392Y-85359135D03*
D13*
%TO.N,Net-(J3-Pin_2)*%
X81813393Y-81859136D03*
%TD*%
D19*
%TO.N,VBUS*%
X44258084Y-81955834D03*
X44476000Y-85571000D03*
D20*
X56140000Y-73140000D03*
X54750000Y-75600000D03*
%TO.N,/Data+*%
X56620000Y-76940000D03*
X60556432Y-91039911D03*
%TO.N,/Data-*%
X59820000Y-91050000D03*
X57450000Y-76930000D03*
D19*
%TO.N,GND*%
X85450000Y-124856001D03*
X59731000Y-82167000D03*
D20*
X50918000Y-90531000D03*
X53421000Y-95749000D03*
D19*
X42413000Y-87364999D03*
X54772000Y-80251000D03*
X72522000Y-129748000D03*
D21*
X65306996Y-87633000D03*
X66049997Y-106480000D03*
D19*
X55022000Y-129748000D03*
X55022000Y-67748000D03*
X85450000Y-77355999D03*
D21*
X67560000Y-115027585D03*
X48645001Y-79351000D03*
X65249993Y-106480000D03*
D19*
X61654000Y-83925000D03*
X85450000Y-87356000D03*
D21*
X67559997Y-115827586D03*
X66884004Y-97057999D03*
D20*
X47677999Y-81220000D03*
D22*
X70778000Y-85922000D03*
D19*
X50022000Y-129748000D03*
X85450000Y-94856000D03*
X65022000Y-67748000D03*
X57611000Y-82782000D03*
D20*
X55726000Y-126400000D03*
D19*
X42413000Y-114864999D03*
X67522000Y-129748000D03*
D21*
X67681007Y-95423000D03*
D19*
X85450000Y-99856000D03*
D20*
X55726000Y-124026000D03*
X52032816Y-75852492D03*
X76863000Y-74124000D03*
D19*
X85450000Y-102356000D03*
D22*
X70772000Y-104840000D03*
X49174000Y-121045000D03*
D19*
X50022000Y-67748000D03*
D20*
X51974000Y-92635000D03*
D22*
X45794000Y-119731000D03*
D19*
X55721000Y-82603000D03*
D20*
X76885000Y-71569000D03*
D19*
X43923000Y-80791000D03*
X56254000Y-79674000D03*
X42413000Y-112364999D03*
X52522000Y-129748000D03*
D22*
X70797000Y-91504000D03*
D20*
X59912713Y-114468245D03*
D22*
X50404000Y-119709000D03*
D20*
X55711000Y-119328000D03*
D21*
X65159995Y-115827586D03*
D19*
X85450000Y-122356001D03*
D20*
X58820000Y-78110000D03*
D19*
X42413000Y-84864999D03*
X59726000Y-93922000D03*
D21*
X67704003Y-85998000D03*
D19*
X43904000Y-74730000D03*
D20*
X56411000Y-117865000D03*
X54414000Y-99966000D03*
D21*
X66849997Y-106479999D03*
D19*
X72522000Y-67748000D03*
X59262713Y-116268245D03*
X59736000Y-80262000D03*
D20*
X56810000Y-88480000D03*
D19*
X80022000Y-129748000D03*
X60289132Y-115544896D03*
X42413000Y-77364998D03*
D21*
X55852000Y-109848000D03*
D19*
X85450000Y-89856000D03*
D22*
X52756000Y-119709000D03*
D21*
X67684002Y-97058000D03*
D19*
X85450000Y-74855999D03*
D21*
X67707001Y-86832999D03*
D20*
X76794000Y-76593000D03*
D21*
X67649998Y-105679999D03*
D19*
X54582000Y-81962000D03*
X42413000Y-97364999D03*
D21*
X47455002Y-76391000D03*
D19*
X85450000Y-82356000D03*
X42413000Y-79864998D03*
X85450000Y-84856000D03*
X77522000Y-67748000D03*
D20*
X56790000Y-86700000D03*
D19*
X85450000Y-112356000D03*
D20*
X58560000Y-86700000D03*
X62347000Y-96168000D03*
D19*
X80022000Y-67748000D03*
D22*
X70765000Y-114282000D03*
D19*
X46110000Y-81023000D03*
D22*
X54314000Y-121320000D03*
D20*
X63930000Y-75182000D03*
D19*
X42413000Y-99864999D03*
X42413000Y-89864999D03*
X42413000Y-109864999D03*
X58262713Y-115618245D03*
X85450000Y-107356000D03*
D20*
X61580000Y-94430000D03*
D19*
X42413000Y-74865000D03*
X70022000Y-67748000D03*
D21*
X67684005Y-96257999D03*
D20*
X54893000Y-97883000D03*
D19*
X55394000Y-79740000D03*
D21*
X65284000Y-97058000D03*
D19*
X42413000Y-124865000D03*
X85450000Y-104856000D03*
X85450000Y-119856001D03*
X45016000Y-82141001D03*
D22*
X70787000Y-82040000D03*
D19*
X54583000Y-81042000D03*
X42413000Y-122365000D03*
X75022000Y-67748000D03*
X70022000Y-129748000D03*
X57610000Y-83366000D03*
D20*
X58505000Y-81687000D03*
D19*
X57522000Y-67748000D03*
X58309000Y-82781000D03*
D22*
X48199000Y-119794000D03*
X70737000Y-100954000D03*
D19*
X60022000Y-129748000D03*
D22*
X79471000Y-126870000D03*
D21*
X48595001Y-76391000D03*
D19*
X58262713Y-116268245D03*
X85450000Y-92356000D03*
X85450000Y-97356000D03*
X52522000Y-67748000D03*
X42413000Y-102364999D03*
D20*
X60300000Y-90230000D03*
D19*
X65022000Y-129748000D03*
X78730000Y-83561000D03*
D20*
X55726000Y-128520000D03*
D21*
X67649995Y-106480000D03*
D22*
X70763000Y-110378000D03*
D19*
X42413000Y-119864999D03*
X42413000Y-82364998D03*
X52231000Y-80142000D03*
D21*
X65959999Y-115827586D03*
D19*
X47522000Y-129748000D03*
X55787000Y-83191000D03*
X62522000Y-129748000D03*
X59732000Y-81234000D03*
X67522000Y-67748000D03*
X85450000Y-79855999D03*
D21*
X47455002Y-76391000D03*
D20*
X55807000Y-80786002D03*
D19*
X85450000Y-109856000D03*
X55163000Y-82422000D03*
X56888000Y-93633000D03*
D22*
X70802000Y-95385000D03*
D19*
X54785000Y-103065000D03*
D21*
X67647000Y-104845000D03*
D20*
X52183000Y-101399000D03*
D21*
X66084004Y-97058000D03*
X47425000Y-79351000D03*
D20*
X56810000Y-90230000D03*
X58570000Y-88500000D03*
D19*
X60022000Y-67748000D03*
X85450000Y-72356001D03*
D20*
X60330000Y-88490000D03*
D19*
X42413000Y-92364999D03*
X47522000Y-67748000D03*
D20*
X55359000Y-100003000D03*
D19*
X42413000Y-94864999D03*
X77522000Y-129748000D03*
D20*
X64336000Y-78228000D03*
D21*
X67557002Y-114192586D03*
X66107000Y-87633000D03*
D19*
X56139000Y-116494000D03*
X58894000Y-82788000D03*
D21*
X66907000Y-87632999D03*
D19*
X57902000Y-79679000D03*
D20*
X58550000Y-90230000D03*
D19*
X57610000Y-83951000D03*
X85450000Y-114856000D03*
D21*
X67706998Y-87633000D03*
D19*
X57522000Y-129748000D03*
D22*
X46875000Y-121151000D03*
D19*
X58922000Y-79681000D03*
D20*
X63963000Y-72254000D03*
X46021000Y-91853000D03*
D22*
X44511000Y-121055000D03*
D19*
X42413000Y-72365000D03*
X75022000Y-129748000D03*
D22*
X83569000Y-122313000D03*
D19*
X60288000Y-92844000D03*
D20*
X55719000Y-121871000D03*
D19*
X42413000Y-117364999D03*
X42413000Y-107364999D03*
X59506000Y-110422000D03*
D20*
X60310000Y-86730000D03*
D19*
X42413000Y-104864999D03*
X57106000Y-79678000D03*
X62522000Y-67748000D03*
D22*
X51644000Y-120949000D03*
D19*
X59262713Y-115618245D03*
X55826108Y-83754462D03*
X85450000Y-117356000D03*
D21*
X66759999Y-115827585D03*
D20*
%TO.N,Net-(JP1-B)*%
X54910000Y-102177000D03*
X57753000Y-101507000D03*
D21*
%TO.N,+3V3*%
X67714230Y-70276879D03*
D20*
X60615841Y-94431212D03*
D19*
X57854000Y-93641000D03*
D20*
X43175000Y-77280000D03*
X62230000Y-80600000D03*
X59889000Y-95218000D03*
X54225000Y-76990000D03*
D19*
X59994001Y-83346002D03*
X53330000Y-83936000D03*
D20*
X49293000Y-88825000D03*
D19*
X58380000Y-93080000D03*
X59450000Y-83916000D03*
D20*
X49739000Y-92710000D03*
D22*
%TO.N,+12V*%
X72376644Y-119399999D03*
X68526648Y-128749999D03*
X71076647Y-128649998D03*
X69676647Y-127099998D03*
X68526646Y-125149999D03*
X69826643Y-119699999D03*
X71226643Y-117999999D03*
X73676646Y-128699997D03*
X73676648Y-126699999D03*
X68533594Y-118006342D03*
X68526646Y-123199996D03*
X72226648Y-127449997D03*
X73876645Y-117999999D03*
X68526644Y-121199998D03*
X73826647Y-119749998D03*
D19*
%TO.N,/buckC/VDD*%
X62162000Y-114827000D03*
X60593021Y-110413008D03*
%TO.N,/Power/LX1*%
X48644000Y-87519000D03*
X48657000Y-84087000D03*
X47493000Y-86782000D03*
X48646000Y-86766000D03*
X48167000Y-84887000D03*
X47717000Y-84887000D03*
X47489000Y-87525000D03*
%TO.N,/Power/LX2*%
X50596999Y-84887001D03*
X49701000Y-86774000D03*
X49702000Y-87515000D03*
X50146999Y-84887001D03*
X50859000Y-86770000D03*
X49677000Y-84087000D03*
X50852000Y-87521000D03*
%TO.N,/TXD*%
X62010000Y-81980000D03*
%TO.N,/RXD*%
X58270000Y-84030000D03*
%TO.N,/buckC/PGOOD*%
X60501000Y-108280000D03*
X62268000Y-115415000D03*
X57068000Y-97863000D03*
%TO.N,/Cont 3*%
X61193000Y-85708000D03*
X64800000Y-72218000D03*
%TO.N,/Cont 1*%
X65219000Y-78024000D03*
X64359000Y-80770000D03*
%TO.N,/Cont 2*%
X61261000Y-87885000D03*
X64808000Y-75180000D03*
D22*
%TO.N,/DeployV*%
X54098000Y-104722000D03*
X46151000Y-113364000D03*
X54180000Y-109721000D03*
D20*
X58312713Y-114468245D03*
D22*
X48109000Y-113972000D03*
X50075000Y-113463000D03*
X54220000Y-112772000D03*
X44481000Y-114335000D03*
X57194000Y-113618000D03*
X54206000Y-114315000D03*
X52491000Y-112794000D03*
X51759000Y-114131000D03*
X48860000Y-104703000D03*
X47867000Y-112362000D03*
%TD*%
%TA.AperFunction,Conductor*%
%TO.N,GND*%
G36*
X82935775Y-67454655D02*
G01*
X83234850Y-67471451D01*
X83245873Y-67472693D01*
X83538459Y-67522405D01*
X83549253Y-67524868D01*
X83834444Y-67607030D01*
X83844919Y-67610696D01*
X84119093Y-67724262D01*
X84129087Y-67729075D01*
X84388834Y-67872632D01*
X84398220Y-67878530D01*
X84640257Y-68050265D01*
X84648929Y-68057180D01*
X84870220Y-68254937D01*
X84878066Y-68262784D01*
X85023067Y-68425039D01*
X85075813Y-68484062D01*
X85082727Y-68492731D01*
X85254468Y-68734777D01*
X85260368Y-68744167D01*
X85403919Y-69003904D01*
X85408736Y-69013906D01*
X85522303Y-69288079D01*
X85525970Y-69298558D01*
X85608127Y-69583730D01*
X85610597Y-69594554D01*
X85660305Y-69887119D01*
X85661548Y-69898151D01*
X85678342Y-70197186D01*
X85678498Y-70202737D01*
X85678498Y-127197226D01*
X85678342Y-127202777D01*
X85661546Y-127501847D01*
X85660303Y-127512879D01*
X85610595Y-127805444D01*
X85608125Y-127816268D01*
X85525968Y-128101439D01*
X85522301Y-128111918D01*
X85408734Y-128386092D01*
X85403917Y-128396094D01*
X85260367Y-128655830D01*
X85254460Y-128665231D01*
X85082738Y-128907250D01*
X85075817Y-128915929D01*
X84878065Y-129137214D01*
X84870214Y-129145065D01*
X84648928Y-129342817D01*
X84640249Y-129349738D01*
X84398230Y-129521460D01*
X84388829Y-129527367D01*
X84129090Y-129670920D01*
X84119087Y-129675737D01*
X83844919Y-129789300D01*
X83834441Y-129792967D01*
X83549267Y-129875125D01*
X83538443Y-129877595D01*
X83245878Y-129927303D01*
X83234846Y-129928546D01*
X82935758Y-129945343D01*
X82930207Y-129945499D01*
X82888123Y-129945499D01*
X82888122Y-129945499D01*
X45002772Y-129945499D01*
X44997221Y-129945343D01*
X44690650Y-129928127D01*
X44679618Y-129926884D01*
X44379644Y-129875917D01*
X44368822Y-129873447D01*
X44295448Y-129852308D01*
X44076430Y-129789210D01*
X44065951Y-129785543D01*
X43784835Y-129669101D01*
X43774833Y-129664284D01*
X43508527Y-129517101D01*
X43499127Y-129511195D01*
X43250968Y-129335117D01*
X43242288Y-129328195D01*
X43200699Y-129291029D01*
X43015398Y-129125434D01*
X43007563Y-129117599D01*
X42804800Y-128890707D01*
X42797880Y-128882029D01*
X42771836Y-128845324D01*
X42704199Y-128749999D01*
X67894539Y-128749999D01*
X67895261Y-128755945D01*
X67912184Y-128895326D01*
X67912185Y-128895333D01*
X67912907Y-128901273D01*
X67966943Y-129043755D01*
X67970340Y-129048676D01*
X67970342Y-129048680D01*
X68034316Y-129141361D01*
X68053508Y-129169165D01*
X68057989Y-129173135D01*
X68057992Y-129173138D01*
X68145804Y-129250933D01*
X68167569Y-129270215D01*
X68224736Y-129300218D01*
X68297190Y-129338245D01*
X68297192Y-129338245D01*
X68302499Y-129341031D01*
X68450456Y-129377499D01*
X68596852Y-129377499D01*
X68602840Y-129377499D01*
X68750797Y-129341031D01*
X68885727Y-129270215D01*
X68999788Y-129169165D01*
X69086353Y-129043755D01*
X69140389Y-128901273D01*
X69158757Y-128749999D01*
X69146615Y-128649998D01*
X70444538Y-128649998D01*
X70445260Y-128655944D01*
X70462183Y-128795325D01*
X70462184Y-128795332D01*
X70462906Y-128801272D01*
X70516942Y-128943754D01*
X70520339Y-128948675D01*
X70520341Y-128948679D01*
X70582106Y-129038160D01*
X70603507Y-129069164D01*
X70607988Y-129073134D01*
X70607991Y-129073137D01*
X70710819Y-129164235D01*
X70717568Y-129170214D01*
X70774735Y-129200217D01*
X70847189Y-129238244D01*
X70847191Y-129238244D01*
X70852498Y-129241030D01*
X71000455Y-129277498D01*
X71146851Y-129277498D01*
X71152839Y-129277498D01*
X71300796Y-129241030D01*
X71435726Y-129170214D01*
X71549787Y-129069164D01*
X71636352Y-128943754D01*
X71690388Y-128801272D01*
X71702685Y-128699997D01*
X73044537Y-128699997D01*
X73045259Y-128705943D01*
X73062182Y-128845324D01*
X73062183Y-128845331D01*
X73062905Y-128851271D01*
X73065027Y-128856868D01*
X73065028Y-128856869D01*
X73098261Y-128944499D01*
X73116941Y-128993753D01*
X73120338Y-128998674D01*
X73120340Y-128998678D01*
X73165591Y-129064234D01*
X73203506Y-129119163D01*
X73207987Y-129123133D01*
X73207990Y-129123136D01*
X73313081Y-129216239D01*
X73317567Y-129220213D01*
X73322872Y-129222997D01*
X73447188Y-129288243D01*
X73447190Y-129288243D01*
X73452497Y-129291029D01*
X73600454Y-129327497D01*
X73746850Y-129327497D01*
X73752838Y-129327497D01*
X73900795Y-129291029D01*
X74035725Y-129220213D01*
X74149786Y-129119163D01*
X74236351Y-128993753D01*
X74290387Y-128851271D01*
X74308755Y-128699997D01*
X74290387Y-128548723D01*
X74236351Y-128406241D01*
X74225987Y-128391227D01*
X74153188Y-128285760D01*
X74149786Y-128280831D01*
X74145303Y-128276859D01*
X74145301Y-128276857D01*
X74040210Y-128183754D01*
X74040207Y-128183752D01*
X74035725Y-128179781D01*
X74030419Y-128176996D01*
X73906103Y-128111750D01*
X73906097Y-128111747D01*
X73900795Y-128108965D01*
X73894975Y-128107530D01*
X73894974Y-128107530D01*
X73758653Y-128073930D01*
X73758650Y-128073929D01*
X73752838Y-128072497D01*
X73600454Y-128072497D01*
X73594642Y-128073929D01*
X73594638Y-128073930D01*
X73458317Y-128107530D01*
X73458313Y-128107531D01*
X73452497Y-128108965D01*
X73447197Y-128111746D01*
X73447188Y-128111750D01*
X73322872Y-128176996D01*
X73322867Y-128176999D01*
X73317567Y-128179781D01*
X73313087Y-128183749D01*
X73313081Y-128183754D01*
X73207990Y-128276857D01*
X73207983Y-128276863D01*
X73203506Y-128280831D01*
X73200106Y-128285756D01*
X73200103Y-128285760D01*
X73120340Y-128401315D01*
X73120336Y-128401322D01*
X73116941Y-128406241D01*
X73114820Y-128411831D01*
X73114819Y-128411835D01*
X73095856Y-128461837D01*
X73062905Y-128548723D01*
X73062184Y-128554660D01*
X73062182Y-128554669D01*
X73053116Y-128629339D01*
X73044537Y-128699997D01*
X71702685Y-128699997D01*
X71708756Y-128649998D01*
X71690388Y-128498724D01*
X71636352Y-128356242D01*
X71549787Y-128230832D01*
X71545304Y-128226860D01*
X71545302Y-128226858D01*
X71440211Y-128133755D01*
X71440208Y-128133753D01*
X71435726Y-128129782D01*
X71424580Y-128123932D01*
X71306104Y-128061751D01*
X71306098Y-128061748D01*
X71300796Y-128058966D01*
X71294976Y-128057531D01*
X71294975Y-128057531D01*
X71158654Y-128023931D01*
X71158651Y-128023930D01*
X71152839Y-128022498D01*
X71000455Y-128022498D01*
X70994643Y-128023930D01*
X70994639Y-128023931D01*
X70858318Y-128057531D01*
X70858314Y-128057532D01*
X70852498Y-128058966D01*
X70847198Y-128061747D01*
X70847189Y-128061751D01*
X70722873Y-128126997D01*
X70722868Y-128127000D01*
X70717568Y-128129782D01*
X70713088Y-128133750D01*
X70713082Y-128133755D01*
X70607991Y-128226858D01*
X70607984Y-128226864D01*
X70603507Y-128230832D01*
X70600107Y-128235757D01*
X70600104Y-128235761D01*
X70520341Y-128351316D01*
X70520337Y-128351323D01*
X70516942Y-128356242D01*
X70514821Y-128361832D01*
X70514820Y-128361836D01*
X70476895Y-128461837D01*
X70462906Y-128498724D01*
X70462185Y-128504661D01*
X70462183Y-128504670D01*
X70447638Y-128624470D01*
X70444538Y-128649998D01*
X69146615Y-128649998D01*
X69140389Y-128598725D01*
X69086353Y-128456243D01*
X68999788Y-128330833D01*
X68995305Y-128326861D01*
X68995303Y-128326859D01*
X68890212Y-128233756D01*
X68890209Y-128233754D01*
X68885727Y-128229783D01*
X68880154Y-128226858D01*
X68756105Y-128161752D01*
X68756099Y-128161749D01*
X68750797Y-128158967D01*
X68744977Y-128157532D01*
X68744976Y-128157532D01*
X68608655Y-128123932D01*
X68608652Y-128123931D01*
X68602840Y-128122499D01*
X68450456Y-128122499D01*
X68444644Y-128123931D01*
X68444640Y-128123932D01*
X68308319Y-128157532D01*
X68308315Y-128157533D01*
X68302499Y-128158967D01*
X68297199Y-128161748D01*
X68297190Y-128161752D01*
X68172874Y-128226998D01*
X68172869Y-128227001D01*
X68167569Y-128229783D01*
X68163089Y-128233751D01*
X68163083Y-128233756D01*
X68057992Y-128326859D01*
X68057985Y-128326865D01*
X68053508Y-128330833D01*
X68050108Y-128335758D01*
X68050105Y-128335762D01*
X67970342Y-128451317D01*
X67970338Y-128451324D01*
X67966943Y-128456243D01*
X67964822Y-128461833D01*
X67964821Y-128461837D01*
X67931870Y-128548723D01*
X67912907Y-128598725D01*
X67912186Y-128604662D01*
X67912184Y-128604671D01*
X67903094Y-128679539D01*
X67894539Y-128749999D01*
X42704199Y-128749999D01*
X42633245Y-128649998D01*
X42621802Y-128633870D01*
X42615896Y-128624470D01*
X42468714Y-128358163D01*
X42463897Y-128348161D01*
X42458761Y-128335762D01*
X42347451Y-128067037D01*
X42343787Y-128056564D01*
X42325718Y-127993845D01*
X42259552Y-127764174D01*
X42257083Y-127753354D01*
X42249685Y-127709814D01*
X42206114Y-127453374D01*
X42204872Y-127442347D01*
X42197140Y-127304669D01*
X42187654Y-127135739D01*
X42187498Y-127130188D01*
X42187498Y-127099998D01*
X69044538Y-127099998D01*
X69045260Y-127105944D01*
X69062183Y-127245325D01*
X69062184Y-127245332D01*
X69062906Y-127251272D01*
X69065028Y-127256869D01*
X69065029Y-127256870D01*
X69077984Y-127291031D01*
X69116942Y-127393754D01*
X69120339Y-127398675D01*
X69120341Y-127398679D01*
X69159868Y-127455943D01*
X69203507Y-127519164D01*
X69207988Y-127523134D01*
X69207991Y-127523137D01*
X69313082Y-127616240D01*
X69317568Y-127620214D01*
X69322873Y-127622998D01*
X69447189Y-127688244D01*
X69447191Y-127688244D01*
X69452498Y-127691030D01*
X69600455Y-127727498D01*
X69746851Y-127727498D01*
X69752839Y-127727498D01*
X69900796Y-127691030D01*
X70035726Y-127620214D01*
X70149787Y-127519164D01*
X70197530Y-127449997D01*
X71594539Y-127449997D01*
X71595261Y-127455943D01*
X71612184Y-127595324D01*
X71612185Y-127595331D01*
X71612907Y-127601271D01*
X71615029Y-127606868D01*
X71615030Y-127606869D01*
X71632641Y-127653307D01*
X71666943Y-127743753D01*
X71670340Y-127748674D01*
X71670342Y-127748678D01*
X71713312Y-127810930D01*
X71753508Y-127869163D01*
X71757989Y-127873133D01*
X71757992Y-127873136D01*
X71863083Y-127966239D01*
X71867569Y-127970213D01*
X71924736Y-128000216D01*
X71997190Y-128038243D01*
X71997192Y-128038243D01*
X72002499Y-128041029D01*
X72150456Y-128077497D01*
X72296852Y-128077497D01*
X72302840Y-128077497D01*
X72450797Y-128041029D01*
X72585727Y-127970213D01*
X72699788Y-127869163D01*
X72786353Y-127743753D01*
X72840389Y-127601271D01*
X72858757Y-127449997D01*
X72840389Y-127298723D01*
X72786353Y-127156241D01*
X72772201Y-127135739D01*
X72703190Y-127035760D01*
X72699788Y-127030831D01*
X72695305Y-127026859D01*
X72695303Y-127026857D01*
X72590212Y-126933754D01*
X72590209Y-126933752D01*
X72585727Y-126929781D01*
X72580421Y-126926996D01*
X72456105Y-126861750D01*
X72456099Y-126861747D01*
X72450797Y-126858965D01*
X72444977Y-126857530D01*
X72444976Y-126857530D01*
X72308655Y-126823930D01*
X72308652Y-126823929D01*
X72302840Y-126822497D01*
X72150456Y-126822497D01*
X72144644Y-126823929D01*
X72144640Y-126823930D01*
X72008319Y-126857530D01*
X72008315Y-126857531D01*
X72002499Y-126858965D01*
X71997199Y-126861746D01*
X71997190Y-126861750D01*
X71872874Y-126926996D01*
X71872869Y-126926999D01*
X71867569Y-126929781D01*
X71863089Y-126933749D01*
X71863083Y-126933754D01*
X71757992Y-127026857D01*
X71757985Y-127026863D01*
X71753508Y-127030831D01*
X71750108Y-127035756D01*
X71750105Y-127035760D01*
X71670342Y-127151315D01*
X71670338Y-127151322D01*
X71666943Y-127156241D01*
X71664822Y-127161831D01*
X71664821Y-127161835D01*
X71615824Y-127291031D01*
X71612907Y-127298723D01*
X71612186Y-127304660D01*
X71612184Y-127304669D01*
X71604184Y-127370560D01*
X71594539Y-127449997D01*
X70197530Y-127449997D01*
X70236352Y-127393754D01*
X70290388Y-127251272D01*
X70308756Y-127099998D01*
X70290388Y-126948724D01*
X70236352Y-126806242D01*
X70163017Y-126699999D01*
X73044539Y-126699999D01*
X73045261Y-126705945D01*
X73062184Y-126845326D01*
X73062185Y-126845333D01*
X73062907Y-126851273D01*
X73116943Y-126993755D01*
X73120340Y-126998676D01*
X73120342Y-126998680D01*
X73190278Y-127099998D01*
X73203508Y-127119165D01*
X73207989Y-127123135D01*
X73207992Y-127123138D01*
X73313083Y-127216241D01*
X73317569Y-127220215D01*
X73322874Y-127222999D01*
X73447190Y-127288245D01*
X73447192Y-127288245D01*
X73452499Y-127291031D01*
X73600456Y-127327499D01*
X73746852Y-127327499D01*
X73752840Y-127327499D01*
X73900797Y-127291031D01*
X74035727Y-127220215D01*
X74149788Y-127119165D01*
X74236353Y-126993755D01*
X74290389Y-126851273D01*
X74308757Y-126699999D01*
X74290389Y-126548725D01*
X74236353Y-126406243D01*
X74149788Y-126280833D01*
X74145305Y-126276861D01*
X74145303Y-126276859D01*
X74040212Y-126183756D01*
X74040209Y-126183754D01*
X74035727Y-126179783D01*
X74030421Y-126176998D01*
X73906105Y-126111752D01*
X73906099Y-126111749D01*
X73900797Y-126108967D01*
X73894977Y-126107532D01*
X73894976Y-126107532D01*
X73758655Y-126073932D01*
X73758652Y-126073931D01*
X73752840Y-126072499D01*
X73600456Y-126072499D01*
X73594644Y-126073931D01*
X73594640Y-126073932D01*
X73458319Y-126107532D01*
X73458315Y-126107533D01*
X73452499Y-126108967D01*
X73447199Y-126111748D01*
X73447190Y-126111752D01*
X73322874Y-126176998D01*
X73322869Y-126177001D01*
X73317569Y-126179783D01*
X73313089Y-126183751D01*
X73313083Y-126183756D01*
X73207992Y-126276859D01*
X73207985Y-126276865D01*
X73203508Y-126280833D01*
X73200108Y-126285758D01*
X73200105Y-126285762D01*
X73120342Y-126401317D01*
X73120338Y-126401324D01*
X73116943Y-126406243D01*
X73114822Y-126411833D01*
X73114821Y-126411837D01*
X73076929Y-126511751D01*
X73062907Y-126548725D01*
X73062186Y-126554662D01*
X73062184Y-126554671D01*
X73047349Y-126676858D01*
X73044539Y-126699999D01*
X70163017Y-126699999D01*
X70149787Y-126680832D01*
X70145304Y-126676860D01*
X70145302Y-126676858D01*
X70040211Y-126583755D01*
X70040208Y-126583753D01*
X70035726Y-126579782D01*
X70030420Y-126576997D01*
X69906104Y-126511751D01*
X69906098Y-126511748D01*
X69900796Y-126508966D01*
X69894976Y-126507531D01*
X69894975Y-126507531D01*
X69758654Y-126473931D01*
X69758651Y-126473930D01*
X69752839Y-126472498D01*
X69600455Y-126472498D01*
X69594643Y-126473930D01*
X69594639Y-126473931D01*
X69458318Y-126507531D01*
X69458314Y-126507532D01*
X69452498Y-126508966D01*
X69447198Y-126511747D01*
X69447189Y-126511751D01*
X69322873Y-126576997D01*
X69322868Y-126577000D01*
X69317568Y-126579782D01*
X69313088Y-126583750D01*
X69313082Y-126583755D01*
X69207991Y-126676858D01*
X69207984Y-126676864D01*
X69203507Y-126680832D01*
X69200107Y-126685757D01*
X69200104Y-126685761D01*
X69120341Y-126801316D01*
X69120337Y-126801323D01*
X69116942Y-126806242D01*
X69114821Y-126811832D01*
X69114820Y-126811836D01*
X69071146Y-126926996D01*
X69062906Y-126948724D01*
X69062185Y-126954661D01*
X69062183Y-126954670D01*
X69045981Y-127088110D01*
X69044538Y-127099998D01*
X42187498Y-127099998D01*
X42187498Y-127088144D01*
X42187498Y-127088122D01*
X42187495Y-127088114D01*
X42187393Y-125149999D01*
X67894537Y-125149999D01*
X67895259Y-125155945D01*
X67912182Y-125295326D01*
X67912183Y-125295333D01*
X67912905Y-125301273D01*
X67966941Y-125443755D01*
X67970338Y-125448676D01*
X67970340Y-125448680D01*
X68050103Y-125564235D01*
X68053506Y-125569165D01*
X68057987Y-125573135D01*
X68057990Y-125573138D01*
X68163081Y-125666241D01*
X68167567Y-125670215D01*
X68172872Y-125672999D01*
X68297188Y-125738245D01*
X68297190Y-125738245D01*
X68302497Y-125741031D01*
X68450454Y-125777499D01*
X68596850Y-125777499D01*
X68602838Y-125777499D01*
X68750795Y-125741031D01*
X68885725Y-125670215D01*
X68999786Y-125569165D01*
X69086351Y-125443755D01*
X69140387Y-125301273D01*
X69158755Y-125149999D01*
X69140387Y-124998725D01*
X69086351Y-124856243D01*
X68999786Y-124730833D01*
X68995303Y-124726861D01*
X68995301Y-124726859D01*
X68890210Y-124633756D01*
X68890207Y-124633754D01*
X68885725Y-124629783D01*
X68880419Y-124626998D01*
X68756103Y-124561752D01*
X68756097Y-124561749D01*
X68750795Y-124558967D01*
X68744975Y-124557532D01*
X68744974Y-124557532D01*
X68608653Y-124523932D01*
X68608650Y-124523931D01*
X68602838Y-124522499D01*
X68450454Y-124522499D01*
X68444642Y-124523931D01*
X68444638Y-124523932D01*
X68308317Y-124557532D01*
X68308313Y-124557533D01*
X68302497Y-124558967D01*
X68297197Y-124561748D01*
X68297188Y-124561752D01*
X68172872Y-124626998D01*
X68172867Y-124627001D01*
X68167567Y-124629783D01*
X68163087Y-124633751D01*
X68163081Y-124633756D01*
X68057990Y-124726859D01*
X68057983Y-124726865D01*
X68053506Y-124730833D01*
X68050106Y-124735758D01*
X68050103Y-124735762D01*
X67970340Y-124851317D01*
X67970336Y-124851324D01*
X67966941Y-124856243D01*
X67912905Y-124998725D01*
X67912184Y-125004662D01*
X67912182Y-125004671D01*
X67895653Y-125140802D01*
X67894537Y-125149999D01*
X42187393Y-125149999D01*
X42187290Y-123199996D01*
X67894537Y-123199996D01*
X67895259Y-123205942D01*
X67912182Y-123345323D01*
X67912183Y-123345330D01*
X67912905Y-123351270D01*
X67966941Y-123493752D01*
X67970338Y-123498673D01*
X67970340Y-123498677D01*
X68050103Y-123614232D01*
X68053506Y-123619162D01*
X68057987Y-123623132D01*
X68057990Y-123623135D01*
X68163081Y-123716238D01*
X68167567Y-123720212D01*
X68172872Y-123722996D01*
X68297188Y-123788242D01*
X68297190Y-123788242D01*
X68302497Y-123791028D01*
X68450454Y-123827496D01*
X68596850Y-123827496D01*
X68602838Y-123827496D01*
X68750795Y-123791028D01*
X68885725Y-123720212D01*
X68999786Y-123619162D01*
X69086351Y-123493752D01*
X69140387Y-123351270D01*
X69158755Y-123199996D01*
X69140387Y-123048722D01*
X69086351Y-122906240D01*
X68999786Y-122780830D01*
X68995303Y-122776858D01*
X68995301Y-122776856D01*
X68890210Y-122683753D01*
X68890207Y-122683751D01*
X68885725Y-122679780D01*
X68880419Y-122676995D01*
X68756103Y-122611749D01*
X68756097Y-122611746D01*
X68750795Y-122608964D01*
X68744975Y-122607529D01*
X68744974Y-122607529D01*
X68608653Y-122573929D01*
X68608650Y-122573928D01*
X68602838Y-122572496D01*
X68450454Y-122572496D01*
X68444642Y-122573928D01*
X68444638Y-122573929D01*
X68308317Y-122607529D01*
X68308313Y-122607530D01*
X68302497Y-122608964D01*
X68297197Y-122611745D01*
X68297188Y-122611749D01*
X68172872Y-122676995D01*
X68172867Y-122676998D01*
X68167567Y-122679780D01*
X68163087Y-122683748D01*
X68163081Y-122683753D01*
X68057990Y-122776856D01*
X68057983Y-122776862D01*
X68053506Y-122780830D01*
X68050106Y-122785755D01*
X68050103Y-122785759D01*
X67970340Y-122901314D01*
X67970336Y-122901321D01*
X67966941Y-122906240D01*
X67912905Y-123048722D01*
X67912184Y-123054659D01*
X67912182Y-123054668D01*
X67895653Y-123190799D01*
X67894537Y-123199996D01*
X42187290Y-123199996D01*
X42187185Y-121199998D01*
X67894535Y-121199998D01*
X67895257Y-121205944D01*
X67912180Y-121345325D01*
X67912181Y-121345332D01*
X67912903Y-121351272D01*
X67966939Y-121493754D01*
X67970336Y-121498675D01*
X67970338Y-121498679D01*
X68050101Y-121614234D01*
X68053504Y-121619164D01*
X68057985Y-121623134D01*
X68057988Y-121623137D01*
X68163079Y-121716240D01*
X68167565Y-121720214D01*
X68172870Y-121722998D01*
X68297186Y-121788244D01*
X68297188Y-121788244D01*
X68302495Y-121791030D01*
X68450452Y-121827498D01*
X68596848Y-121827498D01*
X68602836Y-121827498D01*
X68750793Y-121791030D01*
X68885723Y-121720214D01*
X68999784Y-121619164D01*
X69086349Y-121493754D01*
X69140385Y-121351272D01*
X69158753Y-121199998D01*
X69140385Y-121048724D01*
X69086349Y-120906242D01*
X68999784Y-120780832D01*
X68995301Y-120776860D01*
X68995299Y-120776858D01*
X68890208Y-120683755D01*
X68890205Y-120683753D01*
X68885723Y-120679782D01*
X68880417Y-120676997D01*
X68756101Y-120611751D01*
X68756095Y-120611748D01*
X68750793Y-120608966D01*
X68744973Y-120607531D01*
X68744972Y-120607531D01*
X68608651Y-120573931D01*
X68608648Y-120573930D01*
X68602836Y-120572498D01*
X68450452Y-120572498D01*
X68444640Y-120573930D01*
X68444636Y-120573931D01*
X68308315Y-120607531D01*
X68308311Y-120607532D01*
X68302495Y-120608966D01*
X68297195Y-120611747D01*
X68297186Y-120611751D01*
X68172870Y-120676997D01*
X68172865Y-120677000D01*
X68167565Y-120679782D01*
X68163085Y-120683750D01*
X68163079Y-120683755D01*
X68057988Y-120776858D01*
X68057981Y-120776864D01*
X68053504Y-120780832D01*
X68050104Y-120785757D01*
X68050101Y-120785761D01*
X67970338Y-120901316D01*
X67970334Y-120901323D01*
X67966939Y-120906242D01*
X67912903Y-121048724D01*
X67912182Y-121054661D01*
X67912180Y-121054670D01*
X67895651Y-121190801D01*
X67894535Y-121199998D01*
X42187185Y-121199998D01*
X42187106Y-119699999D01*
X69194534Y-119699999D01*
X69195256Y-119705945D01*
X69212179Y-119845326D01*
X69212180Y-119845333D01*
X69212902Y-119851273D01*
X69266938Y-119993755D01*
X69270335Y-119998676D01*
X69270337Y-119998680D01*
X69350100Y-120114235D01*
X69353503Y-120119165D01*
X69357984Y-120123135D01*
X69357987Y-120123138D01*
X69414424Y-120173137D01*
X69467564Y-120220215D01*
X69472869Y-120222999D01*
X69597185Y-120288245D01*
X69597187Y-120288245D01*
X69602494Y-120291031D01*
X69750451Y-120327499D01*
X69896847Y-120327499D01*
X69902835Y-120327499D01*
X70050792Y-120291031D01*
X70185722Y-120220215D01*
X70299783Y-120119165D01*
X70386348Y-119993755D01*
X70440384Y-119851273D01*
X70458752Y-119699999D01*
X70440384Y-119548725D01*
X70386348Y-119406243D01*
X70382038Y-119399999D01*
X71744535Y-119399999D01*
X71745257Y-119405945D01*
X71762180Y-119545326D01*
X71762181Y-119545333D01*
X71762903Y-119551273D01*
X71816939Y-119693755D01*
X71820336Y-119698676D01*
X71820338Y-119698680D01*
X71855761Y-119749998D01*
X71903504Y-119819165D01*
X71907985Y-119823135D01*
X71907988Y-119823138D01*
X72013079Y-119916241D01*
X72017565Y-119920215D01*
X72022870Y-119922999D01*
X72147186Y-119988245D01*
X72147188Y-119988245D01*
X72152495Y-119991031D01*
X72300452Y-120027499D01*
X72446848Y-120027499D01*
X72452836Y-120027499D01*
X72600793Y-119991031D01*
X72735723Y-119920215D01*
X72849784Y-119819165D01*
X72897527Y-119749998D01*
X73194538Y-119749998D01*
X73195260Y-119755944D01*
X73212183Y-119895325D01*
X73212184Y-119895332D01*
X73212906Y-119901272D01*
X73266942Y-120043754D01*
X73270339Y-120048675D01*
X73270341Y-120048679D01*
X73315592Y-120114235D01*
X73353507Y-120169164D01*
X73357988Y-120173134D01*
X73357991Y-120173137D01*
X73463082Y-120266240D01*
X73467568Y-120270214D01*
X73472873Y-120272998D01*
X73597189Y-120338244D01*
X73597191Y-120338244D01*
X73602498Y-120341030D01*
X73750455Y-120377498D01*
X73896851Y-120377498D01*
X73902839Y-120377498D01*
X74050796Y-120341030D01*
X74185726Y-120270214D01*
X74299787Y-120169164D01*
X74386352Y-120043754D01*
X74440388Y-119901272D01*
X74458756Y-119749998D01*
X74440388Y-119598724D01*
X74386352Y-119456242D01*
X74299787Y-119330832D01*
X74295304Y-119326860D01*
X74295302Y-119326858D01*
X74190211Y-119233755D01*
X74190208Y-119233753D01*
X74185726Y-119229782D01*
X74180420Y-119226997D01*
X74056104Y-119161751D01*
X74056098Y-119161748D01*
X74050796Y-119158966D01*
X74044976Y-119157531D01*
X74044975Y-119157531D01*
X73908654Y-119123931D01*
X73908651Y-119123930D01*
X73902839Y-119122498D01*
X73750455Y-119122498D01*
X73744643Y-119123930D01*
X73744639Y-119123931D01*
X73608318Y-119157531D01*
X73608314Y-119157532D01*
X73602498Y-119158966D01*
X73597198Y-119161747D01*
X73597189Y-119161751D01*
X73472873Y-119226997D01*
X73472868Y-119227000D01*
X73467568Y-119229782D01*
X73463088Y-119233750D01*
X73463082Y-119233755D01*
X73357991Y-119326858D01*
X73357984Y-119326864D01*
X73353507Y-119330832D01*
X73350107Y-119335757D01*
X73350104Y-119335761D01*
X73270341Y-119451316D01*
X73270337Y-119451323D01*
X73266942Y-119456242D01*
X73264821Y-119461832D01*
X73264820Y-119461836D01*
X73215029Y-119593125D01*
X73212906Y-119598724D01*
X73212185Y-119604661D01*
X73212183Y-119604670D01*
X73202046Y-119688160D01*
X73194538Y-119749998D01*
X72897527Y-119749998D01*
X72936349Y-119693755D01*
X72990385Y-119551273D01*
X73008753Y-119399999D01*
X72990385Y-119248725D01*
X72936349Y-119106243D01*
X72849784Y-118980833D01*
X72845301Y-118976861D01*
X72845299Y-118976859D01*
X72740208Y-118883756D01*
X72740205Y-118883754D01*
X72735723Y-118879783D01*
X72730417Y-118876998D01*
X72606101Y-118811752D01*
X72606095Y-118811749D01*
X72600793Y-118808967D01*
X72594973Y-118807532D01*
X72594972Y-118807532D01*
X72458651Y-118773932D01*
X72458648Y-118773931D01*
X72452836Y-118772499D01*
X72300452Y-118772499D01*
X72294640Y-118773931D01*
X72294636Y-118773932D01*
X72158315Y-118807532D01*
X72158311Y-118807533D01*
X72152495Y-118808967D01*
X72147195Y-118811748D01*
X72147186Y-118811752D01*
X72022870Y-118876998D01*
X72022865Y-118877001D01*
X72017565Y-118879783D01*
X72013085Y-118883751D01*
X72013079Y-118883756D01*
X71907988Y-118976859D01*
X71907981Y-118976865D01*
X71903504Y-118980833D01*
X71900104Y-118985758D01*
X71900101Y-118985762D01*
X71820338Y-119101317D01*
X71820334Y-119101324D01*
X71816939Y-119106243D01*
X71814818Y-119111833D01*
X71814817Y-119111837D01*
X71790105Y-119176998D01*
X71762903Y-119248725D01*
X71762182Y-119254662D01*
X71762180Y-119254671D01*
X71745651Y-119390802D01*
X71744535Y-119399999D01*
X70382038Y-119399999D01*
X70299783Y-119280833D01*
X70295300Y-119276861D01*
X70295298Y-119276859D01*
X70190207Y-119183756D01*
X70190204Y-119183754D01*
X70185722Y-119179783D01*
X70151365Y-119161751D01*
X70056100Y-119111752D01*
X70056094Y-119111749D01*
X70050792Y-119108967D01*
X70044972Y-119107532D01*
X70044971Y-119107532D01*
X69908650Y-119073932D01*
X69908647Y-119073931D01*
X69902835Y-119072499D01*
X69750451Y-119072499D01*
X69744639Y-119073931D01*
X69744635Y-119073932D01*
X69608314Y-119107532D01*
X69608310Y-119107533D01*
X69602494Y-119108967D01*
X69597194Y-119111748D01*
X69597185Y-119111752D01*
X69472869Y-119176998D01*
X69472864Y-119177001D01*
X69467564Y-119179783D01*
X69463084Y-119183751D01*
X69463078Y-119183756D01*
X69357987Y-119276859D01*
X69357980Y-119276865D01*
X69353503Y-119280833D01*
X69350103Y-119285758D01*
X69350100Y-119285762D01*
X69270337Y-119401317D01*
X69270333Y-119401324D01*
X69266938Y-119406243D01*
X69212902Y-119548725D01*
X69212181Y-119554662D01*
X69212179Y-119554671D01*
X69195650Y-119690802D01*
X69194534Y-119699999D01*
X42187106Y-119699999D01*
X42187017Y-118006342D01*
X67901485Y-118006342D01*
X67902207Y-118012288D01*
X67919130Y-118151669D01*
X67919131Y-118151676D01*
X67919853Y-118157616D01*
X67921975Y-118163213D01*
X67921976Y-118163214D01*
X67969361Y-118288160D01*
X67973889Y-118300098D01*
X67977286Y-118305019D01*
X67977288Y-118305023D01*
X68052673Y-118414235D01*
X68060454Y-118425508D01*
X68064935Y-118429478D01*
X68064938Y-118429481D01*
X68167355Y-118520215D01*
X68174515Y-118526558D01*
X68179820Y-118529342D01*
X68304136Y-118594588D01*
X68304138Y-118594588D01*
X68309445Y-118597374D01*
X68457402Y-118633842D01*
X68603798Y-118633842D01*
X68609786Y-118633842D01*
X68757743Y-118597374D01*
X68892673Y-118526558D01*
X69006734Y-118425508D01*
X69093299Y-118300098D01*
X69147335Y-118157616D01*
X69165703Y-118006342D01*
X69164933Y-117999999D01*
X70594534Y-117999999D01*
X70595256Y-118005945D01*
X70612179Y-118145326D01*
X70612180Y-118145333D01*
X70612902Y-118151273D01*
X70666938Y-118293755D01*
X70670335Y-118298676D01*
X70670337Y-118298680D01*
X70750100Y-118414235D01*
X70753503Y-118419165D01*
X70757984Y-118423135D01*
X70757987Y-118423138D01*
X70765147Y-118429481D01*
X70867564Y-118520215D01*
X70924731Y-118550218D01*
X70997185Y-118588245D01*
X70997187Y-118588245D01*
X71002494Y-118591031D01*
X71150451Y-118627499D01*
X71296847Y-118627499D01*
X71302835Y-118627499D01*
X71450792Y-118591031D01*
X71585722Y-118520215D01*
X71699783Y-118419165D01*
X71786348Y-118293755D01*
X71840384Y-118151273D01*
X71858752Y-117999999D01*
X73244536Y-117999999D01*
X73245258Y-118005945D01*
X73262181Y-118145326D01*
X73262182Y-118145333D01*
X73262904Y-118151273D01*
X73316940Y-118293755D01*
X73320337Y-118298676D01*
X73320339Y-118298680D01*
X73400102Y-118414235D01*
X73403505Y-118419165D01*
X73407986Y-118423135D01*
X73407989Y-118423138D01*
X73415149Y-118429481D01*
X73517566Y-118520215D01*
X73574733Y-118550218D01*
X73647187Y-118588245D01*
X73647189Y-118588245D01*
X73652496Y-118591031D01*
X73800453Y-118627499D01*
X73946849Y-118627499D01*
X73952837Y-118627499D01*
X74100794Y-118591031D01*
X74235724Y-118520215D01*
X74349785Y-118419165D01*
X74436350Y-118293755D01*
X74490386Y-118151273D01*
X74508754Y-117999999D01*
X74490386Y-117848725D01*
X74436350Y-117706243D01*
X74349785Y-117580833D01*
X74345302Y-117576861D01*
X74345300Y-117576859D01*
X74240209Y-117483756D01*
X74240206Y-117483754D01*
X74235724Y-117479783D01*
X74230418Y-117476998D01*
X74106102Y-117411752D01*
X74106096Y-117411749D01*
X74100794Y-117408967D01*
X74094974Y-117407532D01*
X74094973Y-117407532D01*
X73958652Y-117373932D01*
X73958649Y-117373931D01*
X73952837Y-117372499D01*
X73800453Y-117372499D01*
X73794641Y-117373931D01*
X73794637Y-117373932D01*
X73658316Y-117407532D01*
X73658312Y-117407533D01*
X73652496Y-117408967D01*
X73647196Y-117411748D01*
X73647187Y-117411752D01*
X73522871Y-117476998D01*
X73522866Y-117477001D01*
X73517566Y-117479783D01*
X73513086Y-117483751D01*
X73513080Y-117483756D01*
X73407989Y-117576859D01*
X73407982Y-117576865D01*
X73403505Y-117580833D01*
X73400105Y-117585758D01*
X73400102Y-117585762D01*
X73320339Y-117701317D01*
X73320335Y-117701324D01*
X73316940Y-117706243D01*
X73314819Y-117711833D01*
X73314818Y-117711837D01*
X73265027Y-117843126D01*
X73262904Y-117848725D01*
X73262183Y-117854662D01*
X73262181Y-117854671D01*
X73245652Y-117990802D01*
X73244536Y-117999999D01*
X71858752Y-117999999D01*
X71840384Y-117848725D01*
X71786348Y-117706243D01*
X71699783Y-117580833D01*
X71695300Y-117576861D01*
X71695298Y-117576859D01*
X71590207Y-117483756D01*
X71590204Y-117483754D01*
X71585722Y-117479783D01*
X71580416Y-117476998D01*
X71456100Y-117411752D01*
X71456094Y-117411749D01*
X71450792Y-117408967D01*
X71444972Y-117407532D01*
X71444971Y-117407532D01*
X71308650Y-117373932D01*
X71308647Y-117373931D01*
X71302835Y-117372499D01*
X71150451Y-117372499D01*
X71144639Y-117373931D01*
X71144635Y-117373932D01*
X71008314Y-117407532D01*
X71008310Y-117407533D01*
X71002494Y-117408967D01*
X70997194Y-117411748D01*
X70997185Y-117411752D01*
X70872869Y-117476998D01*
X70872864Y-117477001D01*
X70867564Y-117479783D01*
X70863084Y-117483751D01*
X70863078Y-117483756D01*
X70757987Y-117576859D01*
X70757980Y-117576865D01*
X70753503Y-117580833D01*
X70750103Y-117585758D01*
X70750100Y-117585762D01*
X70670337Y-117701317D01*
X70670333Y-117701324D01*
X70666938Y-117706243D01*
X70664817Y-117711833D01*
X70664816Y-117711837D01*
X70615025Y-117843126D01*
X70612902Y-117848725D01*
X70612181Y-117854662D01*
X70612179Y-117854671D01*
X70595650Y-117990802D01*
X70594534Y-117999999D01*
X69164933Y-117999999D01*
X69147335Y-117855068D01*
X69093299Y-117712586D01*
X69006734Y-117587176D01*
X69002251Y-117583204D01*
X69002249Y-117583202D01*
X68897158Y-117490099D01*
X68897155Y-117490097D01*
X68892673Y-117486126D01*
X68887367Y-117483341D01*
X68763051Y-117418095D01*
X68763045Y-117418092D01*
X68757743Y-117415310D01*
X68751923Y-117413875D01*
X68751922Y-117413875D01*
X68615601Y-117380275D01*
X68615598Y-117380274D01*
X68609786Y-117378842D01*
X68457402Y-117378842D01*
X68451590Y-117380274D01*
X68451586Y-117380275D01*
X68315265Y-117413875D01*
X68315261Y-117413876D01*
X68309445Y-117415310D01*
X68304145Y-117418091D01*
X68304136Y-117418095D01*
X68179820Y-117483341D01*
X68179815Y-117483344D01*
X68174515Y-117486126D01*
X68170035Y-117490094D01*
X68170029Y-117490099D01*
X68064938Y-117583202D01*
X68064931Y-117583208D01*
X68060454Y-117587176D01*
X68057054Y-117592101D01*
X68057051Y-117592105D01*
X67977288Y-117707660D01*
X67977284Y-117707667D01*
X67973889Y-117712586D01*
X67971768Y-117718176D01*
X67971767Y-117718180D01*
X67921976Y-117849469D01*
X67919853Y-117855068D01*
X67919132Y-117861005D01*
X67919130Y-117861014D01*
X67902977Y-117994053D01*
X67901485Y-118006342D01*
X42187017Y-118006342D01*
X42186823Y-114335000D01*
X43848891Y-114335000D01*
X43849613Y-114340946D01*
X43866536Y-114480327D01*
X43866537Y-114480334D01*
X43867259Y-114486274D01*
X43921295Y-114628756D01*
X43924692Y-114633677D01*
X43924694Y-114633681D01*
X43970779Y-114700445D01*
X44007860Y-114754166D01*
X44012341Y-114758136D01*
X44012344Y-114758139D01*
X44102488Y-114838000D01*
X44121921Y-114855216D01*
X44179088Y-114885219D01*
X44251542Y-114923246D01*
X44251544Y-114923246D01*
X44256851Y-114926032D01*
X44404808Y-114962500D01*
X44551204Y-114962500D01*
X44557192Y-114962500D01*
X44705149Y-114926032D01*
X44840079Y-114855216D01*
X44954140Y-114754166D01*
X45040705Y-114628756D01*
X45094741Y-114486274D01*
X45113109Y-114335000D01*
X45094741Y-114183726D01*
X45040705Y-114041244D01*
X44954140Y-113915834D01*
X44949657Y-113911862D01*
X44949655Y-113911860D01*
X44844564Y-113818757D01*
X44844561Y-113818755D01*
X44840079Y-113814784D01*
X44809542Y-113798757D01*
X44710457Y-113746753D01*
X44710451Y-113746750D01*
X44705149Y-113743968D01*
X44699329Y-113742533D01*
X44699328Y-113742533D01*
X44563007Y-113708933D01*
X44563004Y-113708932D01*
X44557192Y-113707500D01*
X44404808Y-113707500D01*
X44398996Y-113708932D01*
X44398992Y-113708933D01*
X44262671Y-113742533D01*
X44262667Y-113742534D01*
X44256851Y-113743968D01*
X44251551Y-113746749D01*
X44251542Y-113746753D01*
X44127226Y-113811999D01*
X44127221Y-113812002D01*
X44121921Y-113814784D01*
X44117441Y-113818752D01*
X44117435Y-113818757D01*
X44012344Y-113911860D01*
X44012337Y-113911866D01*
X44007860Y-113915834D01*
X44004460Y-113920759D01*
X44004457Y-113920763D01*
X43924694Y-114036318D01*
X43924690Y-114036325D01*
X43921295Y-114041244D01*
X43919174Y-114046834D01*
X43919173Y-114046838D01*
X43876967Y-114158127D01*
X43867259Y-114183726D01*
X43866538Y-114189663D01*
X43866536Y-114189672D01*
X43856015Y-114276327D01*
X43848891Y-114335000D01*
X42186823Y-114335000D01*
X42186772Y-113364000D01*
X45518891Y-113364000D01*
X45519613Y-113369946D01*
X45536536Y-113509327D01*
X45536537Y-113509334D01*
X45537259Y-113515274D01*
X45539381Y-113520871D01*
X45539382Y-113520872D01*
X45576927Y-113619872D01*
X45591295Y-113657756D01*
X45594692Y-113662677D01*
X45594694Y-113662681D01*
X45649813Y-113742533D01*
X45677860Y-113783166D01*
X45682341Y-113787136D01*
X45682344Y-113787139D01*
X45738901Y-113837244D01*
X45791921Y-113884216D01*
X45823449Y-113900763D01*
X45921542Y-113952246D01*
X45921544Y-113952246D01*
X45926851Y-113955032D01*
X46074808Y-113991500D01*
X46221204Y-113991500D01*
X46227192Y-113991500D01*
X46306307Y-113972000D01*
X47476891Y-113972000D01*
X47477613Y-113977946D01*
X47494536Y-114117327D01*
X47494537Y-114117334D01*
X47495259Y-114123274D01*
X47497381Y-114128871D01*
X47497382Y-114128872D01*
X47527782Y-114209032D01*
X47549295Y-114265756D01*
X47552692Y-114270677D01*
X47552694Y-114270681D01*
X47632457Y-114386236D01*
X47635860Y-114391166D01*
X47640341Y-114395136D01*
X47640344Y-114395139D01*
X47730777Y-114475256D01*
X47749921Y-114492216D01*
X47807088Y-114522219D01*
X47879542Y-114560246D01*
X47879544Y-114560246D01*
X47884851Y-114563032D01*
X48032808Y-114599500D01*
X48179204Y-114599500D01*
X48185192Y-114599500D01*
X48333149Y-114563032D01*
X48468079Y-114492216D01*
X48582140Y-114391166D01*
X48668705Y-114265756D01*
X48719811Y-114131000D01*
X51126891Y-114131000D01*
X51127613Y-114136946D01*
X51144536Y-114276327D01*
X51144537Y-114276334D01*
X51145259Y-114282274D01*
X51147381Y-114287871D01*
X51147382Y-114287872D01*
X51196989Y-114418677D01*
X51199295Y-114424756D01*
X51202692Y-114429677D01*
X51202694Y-114429681D01*
X51252049Y-114501183D01*
X51285860Y-114550166D01*
X51290341Y-114554136D01*
X51290344Y-114554139D01*
X51374569Y-114628756D01*
X51399921Y-114651216D01*
X51405226Y-114654000D01*
X51529542Y-114719246D01*
X51529544Y-114719246D01*
X51534851Y-114722032D01*
X51682808Y-114758500D01*
X51829204Y-114758500D01*
X51835192Y-114758500D01*
X51983149Y-114722032D01*
X52118079Y-114651216D01*
X52232140Y-114550166D01*
X52318705Y-114424756D01*
X52360330Y-114315000D01*
X53573891Y-114315000D01*
X53574613Y-114320946D01*
X53591536Y-114460327D01*
X53591537Y-114460334D01*
X53592259Y-114466274D01*
X53646295Y-114608756D01*
X53649692Y-114613677D01*
X53649694Y-114613681D01*
X53709584Y-114700445D01*
X53732860Y-114734166D01*
X53737341Y-114738136D01*
X53737344Y-114738139D01*
X53828959Y-114819303D01*
X53846921Y-114835216D01*
X53885028Y-114855216D01*
X53976542Y-114903246D01*
X53976544Y-114903246D01*
X53981851Y-114906032D01*
X54129808Y-114942500D01*
X54276204Y-114942500D01*
X54282192Y-114942500D01*
X54430149Y-114906032D01*
X54565079Y-114835216D01*
X54679140Y-114734166D01*
X54765705Y-114608756D01*
X54818994Y-114468245D01*
X57880817Y-114468245D01*
X57881825Y-114475256D01*
X57897303Y-114582911D01*
X57897304Y-114582915D01*
X57898312Y-114589924D01*
X57949379Y-114701746D01*
X58029881Y-114794650D01*
X58035835Y-114798476D01*
X58035837Y-114798478D01*
X58093003Y-114835216D01*
X58133297Y-114861111D01*
X58251248Y-114895745D01*
X58367101Y-114895745D01*
X58374178Y-114895745D01*
X58492129Y-114861111D01*
X58545207Y-114827000D01*
X61752458Y-114827000D01*
X61753677Y-114834697D01*
X61762480Y-114890277D01*
X61772502Y-114953555D01*
X61830674Y-115067723D01*
X61836183Y-115073232D01*
X61886000Y-115123049D01*
X61913777Y-115177565D01*
X61904206Y-115237997D01*
X61882039Y-115281502D01*
X61882037Y-115281505D01*
X61878502Y-115288445D01*
X61858458Y-115415000D01*
X61878502Y-115541555D01*
X61936674Y-115655723D01*
X62027277Y-115746326D01*
X62141445Y-115804498D01*
X62268000Y-115824542D01*
X62394555Y-115804498D01*
X62508723Y-115746326D01*
X62599326Y-115655723D01*
X62657498Y-115541555D01*
X62677542Y-115415000D01*
X62657498Y-115288445D01*
X62599326Y-115174277D01*
X62543998Y-115118949D01*
X62521578Y-115084424D01*
X62515139Y-115043764D01*
X62525793Y-115004003D01*
X62551498Y-114953555D01*
X62557480Y-114915787D01*
X80471382Y-114915787D01*
X80478780Y-114952977D01*
X80506960Y-114995151D01*
X80549134Y-115023331D01*
X80586324Y-115030729D01*
X83006582Y-115030729D01*
X83011440Y-115030729D01*
X83048630Y-115023331D01*
X83090804Y-114995151D01*
X83118984Y-114952977D01*
X83126382Y-114915787D01*
X83126382Y-112490671D01*
X83118984Y-112453481D01*
X83090804Y-112411307D01*
X83079681Y-112403875D01*
X83056736Y-112388543D01*
X83056734Y-112388542D01*
X83048630Y-112383127D01*
X83031719Y-112379763D01*
X83016202Y-112376676D01*
X83016199Y-112376675D01*
X83011440Y-112375729D01*
X80586324Y-112375729D01*
X80581565Y-112376675D01*
X80581561Y-112376676D01*
X80558695Y-112381225D01*
X80549134Y-112383127D01*
X80541030Y-112388541D01*
X80541027Y-112388543D01*
X80515069Y-112405888D01*
X80515066Y-112405890D01*
X80506960Y-112411307D01*
X80501543Y-112419413D01*
X80501541Y-112419416D01*
X80484196Y-112445374D01*
X80484194Y-112445377D01*
X80478780Y-112453481D01*
X80471382Y-112490671D01*
X80471382Y-114915787D01*
X62557480Y-114915787D01*
X62571542Y-114827000D01*
X62551498Y-114700445D01*
X62493326Y-114586277D01*
X62402723Y-114495674D01*
X62288555Y-114437502D01*
X62162000Y-114417458D01*
X62154303Y-114418677D01*
X62043141Y-114436283D01*
X62043140Y-114436283D01*
X62035445Y-114437502D01*
X62028503Y-114441038D01*
X62028500Y-114441040D01*
X61928222Y-114492135D01*
X61928220Y-114492136D01*
X61921277Y-114495674D01*
X61915770Y-114501180D01*
X61915767Y-114501183D01*
X61836183Y-114580767D01*
X61836180Y-114580770D01*
X61830674Y-114586277D01*
X61827136Y-114593220D01*
X61827135Y-114593222D01*
X61776040Y-114693500D01*
X61776038Y-114693503D01*
X61772502Y-114700445D01*
X61771283Y-114708140D01*
X61771283Y-114708141D01*
X61763534Y-114757066D01*
X61752458Y-114827000D01*
X58545207Y-114827000D01*
X58595545Y-114794650D01*
X58676047Y-114701746D01*
X58727114Y-114589924D01*
X58744609Y-114468245D01*
X58727114Y-114346566D01*
X58676047Y-114234744D01*
X58595545Y-114141840D01*
X58589591Y-114138013D01*
X58589588Y-114138011D01*
X58498088Y-114079208D01*
X58498084Y-114079206D01*
X58492129Y-114075379D01*
X58485338Y-114073385D01*
X58485334Y-114073383D01*
X58380967Y-114042738D01*
X58380963Y-114042737D01*
X58374178Y-114040745D01*
X58251248Y-114040745D01*
X58244463Y-114042737D01*
X58244458Y-114042738D01*
X58140091Y-114073383D01*
X58140084Y-114073386D01*
X58133297Y-114075379D01*
X58127343Y-114079204D01*
X58127337Y-114079208D01*
X58035837Y-114138011D01*
X58035831Y-114138016D01*
X58029881Y-114141840D01*
X58025245Y-114147189D01*
X58025244Y-114147191D01*
X57954016Y-114229392D01*
X57954014Y-114229394D01*
X57949379Y-114234744D01*
X57946439Y-114241180D01*
X57946438Y-114241183D01*
X57910012Y-114320946D01*
X57898312Y-114346566D01*
X57897304Y-114353572D01*
X57897303Y-114353578D01*
X57881955Y-114460327D01*
X57880817Y-114468245D01*
X54818994Y-114468245D01*
X54819741Y-114466274D01*
X54838109Y-114315000D01*
X54819741Y-114163726D01*
X54765705Y-114021244D01*
X54679140Y-113895834D01*
X54674657Y-113891862D01*
X54674655Y-113891860D01*
X54569564Y-113798757D01*
X54569561Y-113798755D01*
X54565079Y-113794784D01*
X54542943Y-113783166D01*
X54435457Y-113726753D01*
X54435451Y-113726750D01*
X54430149Y-113723968D01*
X54424329Y-113722533D01*
X54424328Y-113722533D01*
X54288007Y-113688933D01*
X54288004Y-113688932D01*
X54282192Y-113687500D01*
X54129808Y-113687500D01*
X54123996Y-113688932D01*
X54123992Y-113688933D01*
X53987671Y-113722533D01*
X53987667Y-113722534D01*
X53981851Y-113723968D01*
X53976551Y-113726749D01*
X53976542Y-113726753D01*
X53852226Y-113791999D01*
X53852221Y-113792002D01*
X53846921Y-113794784D01*
X53842441Y-113798752D01*
X53842435Y-113798757D01*
X53737344Y-113891860D01*
X53737337Y-113891866D01*
X53732860Y-113895834D01*
X53729460Y-113900759D01*
X53729457Y-113900763D01*
X53649694Y-114016318D01*
X53649690Y-114016325D01*
X53646295Y-114021244D01*
X53644174Y-114026834D01*
X53644173Y-114026838D01*
X53594382Y-114158127D01*
X53592259Y-114163726D01*
X53591538Y-114169663D01*
X53591536Y-114169672D01*
X53577185Y-114287872D01*
X53573891Y-114315000D01*
X52360330Y-114315000D01*
X52372741Y-114282274D01*
X52391109Y-114131000D01*
X52372741Y-113979726D01*
X52318705Y-113837244D01*
X52307303Y-113820726D01*
X52242438Y-113726753D01*
X52232140Y-113711834D01*
X52227657Y-113707862D01*
X52227655Y-113707860D01*
X52126225Y-113618000D01*
X56561891Y-113618000D01*
X56562613Y-113623946D01*
X56579536Y-113763327D01*
X56579537Y-113763334D01*
X56580259Y-113769274D01*
X56582381Y-113774871D01*
X56582382Y-113774872D01*
X56623850Y-113884216D01*
X56634295Y-113911756D01*
X56637692Y-113916677D01*
X56637694Y-113916681D01*
X56709870Y-114021244D01*
X56720860Y-114037166D01*
X56725341Y-114041136D01*
X56725344Y-114041139D01*
X56781061Y-114090500D01*
X56834921Y-114138216D01*
X56840226Y-114141000D01*
X56964542Y-114206246D01*
X56964544Y-114206246D01*
X56969851Y-114209032D01*
X57117808Y-114245500D01*
X57264204Y-114245500D01*
X57270192Y-114245500D01*
X57418149Y-114209032D01*
X57553079Y-114138216D01*
X57667140Y-114037166D01*
X57753705Y-113911756D01*
X57807741Y-113769274D01*
X57826109Y-113618000D01*
X57807741Y-113466726D01*
X57753705Y-113324244D01*
X57745064Y-113311726D01*
X57670542Y-113203763D01*
X57667140Y-113198834D01*
X57662657Y-113194862D01*
X57662655Y-113194860D01*
X57557564Y-113101757D01*
X57557561Y-113101755D01*
X57553079Y-113097784D01*
X57543356Y-113092681D01*
X57423457Y-113029753D01*
X57423451Y-113029750D01*
X57418149Y-113026968D01*
X57412329Y-113025533D01*
X57412328Y-113025533D01*
X57276007Y-112991933D01*
X57276004Y-112991932D01*
X57270192Y-112990500D01*
X57117808Y-112990500D01*
X57111996Y-112991932D01*
X57111992Y-112991933D01*
X56975671Y-113025533D01*
X56975667Y-113025534D01*
X56969851Y-113026968D01*
X56964551Y-113029749D01*
X56964542Y-113029753D01*
X56840226Y-113094999D01*
X56840221Y-113095002D01*
X56834921Y-113097784D01*
X56830441Y-113101752D01*
X56830435Y-113101757D01*
X56725344Y-113194860D01*
X56725337Y-113194866D01*
X56720860Y-113198834D01*
X56717460Y-113203759D01*
X56717457Y-113203763D01*
X56637694Y-113319318D01*
X56637690Y-113319325D01*
X56634295Y-113324244D01*
X56632174Y-113329834D01*
X56632173Y-113329838D01*
X56584419Y-113455757D01*
X56580259Y-113466726D01*
X56579538Y-113472663D01*
X56579536Y-113472672D01*
X56569205Y-113557763D01*
X56561891Y-113618000D01*
X52126225Y-113618000D01*
X52122564Y-113614757D01*
X52122561Y-113614755D01*
X52118079Y-113610784D01*
X52112773Y-113607999D01*
X51988457Y-113542753D01*
X51988451Y-113542750D01*
X51983149Y-113539968D01*
X51977329Y-113538533D01*
X51977328Y-113538533D01*
X51841007Y-113504933D01*
X51841004Y-113504932D01*
X51835192Y-113503500D01*
X51682808Y-113503500D01*
X51676996Y-113504932D01*
X51676992Y-113504933D01*
X51540671Y-113538533D01*
X51540667Y-113538534D01*
X51534851Y-113539968D01*
X51529551Y-113542749D01*
X51529542Y-113542753D01*
X51405226Y-113607999D01*
X51405221Y-113608002D01*
X51399921Y-113610784D01*
X51395441Y-113614752D01*
X51395435Y-113614757D01*
X51290344Y-113707860D01*
X51290337Y-113707866D01*
X51285860Y-113711834D01*
X51282460Y-113716759D01*
X51282457Y-113716763D01*
X51202694Y-113832318D01*
X51202690Y-113832325D01*
X51199295Y-113837244D01*
X51197174Y-113842834D01*
X51197173Y-113842838D01*
X51154624Y-113955032D01*
X51145259Y-113979726D01*
X51144538Y-113985663D01*
X51144536Y-113985672D01*
X51128551Y-114117327D01*
X51126891Y-114131000D01*
X48719811Y-114131000D01*
X48722741Y-114123274D01*
X48741109Y-113972000D01*
X48722741Y-113820726D01*
X48668705Y-113678244D01*
X48582140Y-113552834D01*
X48577657Y-113548862D01*
X48577655Y-113548860D01*
X48480740Y-113463000D01*
X49442891Y-113463000D01*
X49443613Y-113468946D01*
X49460536Y-113608327D01*
X49460537Y-113608334D01*
X49461259Y-113614274D01*
X49515295Y-113756756D01*
X49518692Y-113761677D01*
X49518694Y-113761681D01*
X49598457Y-113877236D01*
X49601860Y-113882166D01*
X49606341Y-113886136D01*
X49606344Y-113886139D01*
X49709972Y-113977946D01*
X49715921Y-113983216D01*
X49721226Y-113986000D01*
X49845542Y-114051246D01*
X49845544Y-114051246D01*
X49850851Y-114054032D01*
X49998808Y-114090500D01*
X50145204Y-114090500D01*
X50151192Y-114090500D01*
X50299149Y-114054032D01*
X50434079Y-113983216D01*
X50548140Y-113882166D01*
X50634705Y-113756756D01*
X50688741Y-113614274D01*
X50707109Y-113463000D01*
X50692894Y-113345933D01*
X50689463Y-113317672D01*
X50689462Y-113317671D01*
X50688741Y-113311726D01*
X50634705Y-113169244D01*
X50548140Y-113043834D01*
X50543657Y-113039862D01*
X50543655Y-113039860D01*
X50438564Y-112946757D01*
X50438561Y-112946755D01*
X50434079Y-112942784D01*
X50428773Y-112939999D01*
X50304457Y-112874753D01*
X50304451Y-112874750D01*
X50299149Y-112871968D01*
X50293329Y-112870533D01*
X50293328Y-112870533D01*
X50157007Y-112836933D01*
X50157004Y-112836932D01*
X50151192Y-112835500D01*
X49998808Y-112835500D01*
X49992996Y-112836932D01*
X49992992Y-112836933D01*
X49856671Y-112870533D01*
X49856667Y-112870534D01*
X49850851Y-112871968D01*
X49845551Y-112874749D01*
X49845542Y-112874753D01*
X49721226Y-112939999D01*
X49721221Y-112940002D01*
X49715921Y-112942784D01*
X49711441Y-112946752D01*
X49711435Y-112946757D01*
X49606344Y-113039860D01*
X49606337Y-113039866D01*
X49601860Y-113043834D01*
X49598460Y-113048759D01*
X49598457Y-113048763D01*
X49518694Y-113164318D01*
X49518690Y-113164325D01*
X49515295Y-113169244D01*
X49513174Y-113174834D01*
X49513173Y-113174838D01*
X49470165Y-113288242D01*
X49461259Y-113311726D01*
X49460538Y-113317663D01*
X49460536Y-113317672D01*
X49450775Y-113398066D01*
X49442891Y-113463000D01*
X48480740Y-113463000D01*
X48472564Y-113455757D01*
X48472561Y-113455755D01*
X48468079Y-113451784D01*
X48462773Y-113448999D01*
X48338457Y-113383753D01*
X48338451Y-113383750D01*
X48333149Y-113380968D01*
X48327329Y-113379533D01*
X48327328Y-113379533D01*
X48191007Y-113345933D01*
X48191004Y-113345932D01*
X48185192Y-113344500D01*
X48032808Y-113344500D01*
X48026996Y-113345932D01*
X48026992Y-113345933D01*
X47890671Y-113379533D01*
X47890667Y-113379534D01*
X47884851Y-113380968D01*
X47879551Y-113383749D01*
X47879542Y-113383753D01*
X47755226Y-113448999D01*
X47755221Y-113449002D01*
X47749921Y-113451784D01*
X47745441Y-113455752D01*
X47745435Y-113455757D01*
X47640344Y-113548860D01*
X47640337Y-113548866D01*
X47635860Y-113552834D01*
X47632460Y-113557759D01*
X47632457Y-113557763D01*
X47552694Y-113673318D01*
X47552690Y-113673325D01*
X47549295Y-113678244D01*
X47547174Y-113683834D01*
X47547173Y-113683838D01*
X47497512Y-113814784D01*
X47495259Y-113820726D01*
X47494538Y-113826663D01*
X47494536Y-113826672D01*
X47478951Y-113955032D01*
X47476891Y-113972000D01*
X46306307Y-113972000D01*
X46375149Y-113955032D01*
X46510079Y-113884216D01*
X46624140Y-113783166D01*
X46710705Y-113657756D01*
X46764741Y-113515274D01*
X46783109Y-113364000D01*
X46764741Y-113212726D01*
X46710705Y-113070244D01*
X46680833Y-113026968D01*
X46653981Y-112988066D01*
X46624140Y-112944834D01*
X46619657Y-112940862D01*
X46619655Y-112940860D01*
X46514564Y-112847757D01*
X46514561Y-112847755D01*
X46510079Y-112843784D01*
X46504773Y-112840999D01*
X46380457Y-112775753D01*
X46380451Y-112775750D01*
X46375149Y-112772968D01*
X46369329Y-112771533D01*
X46369328Y-112771533D01*
X46233007Y-112737933D01*
X46233004Y-112737932D01*
X46227192Y-112736500D01*
X46074808Y-112736500D01*
X46068996Y-112737932D01*
X46068992Y-112737933D01*
X45932671Y-112771533D01*
X45932667Y-112771534D01*
X45926851Y-112772968D01*
X45921551Y-112775749D01*
X45921542Y-112775753D01*
X45797226Y-112840999D01*
X45797221Y-112841002D01*
X45791921Y-112843784D01*
X45787441Y-112847752D01*
X45787435Y-112847757D01*
X45682344Y-112940860D01*
X45682337Y-112940866D01*
X45677860Y-112944834D01*
X45674460Y-112949759D01*
X45674457Y-112949763D01*
X45594694Y-113065318D01*
X45594690Y-113065325D01*
X45591295Y-113070244D01*
X45589174Y-113075834D01*
X45589173Y-113075838D01*
X45540658Y-113203763D01*
X45537259Y-113212726D01*
X45536538Y-113218663D01*
X45536536Y-113218672D01*
X45527607Y-113292216D01*
X45518891Y-113364000D01*
X42186772Y-113364000D01*
X42186719Y-112362000D01*
X47234891Y-112362000D01*
X47235613Y-112367946D01*
X47252536Y-112507327D01*
X47252537Y-112507334D01*
X47253259Y-112513274D01*
X47255381Y-112518871D01*
X47255382Y-112518872D01*
X47291886Y-112615127D01*
X47307295Y-112655756D01*
X47310692Y-112660677D01*
X47310694Y-112660681D01*
X47363029Y-112736500D01*
X47393860Y-112781166D01*
X47398341Y-112785136D01*
X47398344Y-112785139D01*
X47496353Y-112871968D01*
X47507921Y-112882216D01*
X47513226Y-112885000D01*
X47637542Y-112950246D01*
X47637544Y-112950246D01*
X47642851Y-112953032D01*
X47790808Y-112989500D01*
X47937204Y-112989500D01*
X47943192Y-112989500D01*
X48091149Y-112953032D01*
X48226079Y-112882216D01*
X48325654Y-112794000D01*
X51858891Y-112794000D01*
X51859613Y-112799946D01*
X51876536Y-112939327D01*
X51876537Y-112939334D01*
X51877259Y-112945274D01*
X51879381Y-112950871D01*
X51879382Y-112950872D01*
X51922951Y-113065756D01*
X51931295Y-113087756D01*
X51934692Y-113092677D01*
X51934694Y-113092681D01*
X52013692Y-113207127D01*
X52017860Y-113213166D01*
X52022341Y-113217136D01*
X52022344Y-113217139D01*
X52122790Y-113306127D01*
X52131921Y-113314216D01*
X52151028Y-113324244D01*
X52261542Y-113382246D01*
X52261544Y-113382246D01*
X52266851Y-113385032D01*
X52414808Y-113421500D01*
X52561204Y-113421500D01*
X52567192Y-113421500D01*
X52715149Y-113385032D01*
X52850079Y-113314216D01*
X52964140Y-113213166D01*
X53050705Y-113087756D01*
X53104741Y-112945274D01*
X53123109Y-112794000D01*
X53120438Y-112772000D01*
X53587891Y-112772000D01*
X53588613Y-112777946D01*
X53605536Y-112917327D01*
X53605537Y-112917334D01*
X53606259Y-112923274D01*
X53608381Y-112928871D01*
X53608382Y-112928872D01*
X53645040Y-113025533D01*
X53660295Y-113065756D01*
X53663692Y-113070677D01*
X53663694Y-113070681D01*
X53743457Y-113186236D01*
X53746860Y-113191166D01*
X53751341Y-113195136D01*
X53751344Y-113195139D01*
X53856435Y-113288242D01*
X53860921Y-113292216D01*
X53909424Y-113317672D01*
X53990542Y-113360246D01*
X53990544Y-113360246D01*
X53995851Y-113363032D01*
X54143808Y-113399500D01*
X54290204Y-113399500D01*
X54296192Y-113399500D01*
X54444149Y-113363032D01*
X54579079Y-113292216D01*
X54693140Y-113191166D01*
X54779705Y-113065756D01*
X54833741Y-112923274D01*
X54852109Y-112772000D01*
X54833741Y-112620726D01*
X54779705Y-112478244D01*
X54693140Y-112352834D01*
X54688657Y-112348862D01*
X54688655Y-112348860D01*
X54583564Y-112255757D01*
X54583561Y-112255755D01*
X54579079Y-112251784D01*
X54573773Y-112248999D01*
X54449457Y-112183753D01*
X54449451Y-112183750D01*
X54444149Y-112180968D01*
X54438329Y-112179533D01*
X54438328Y-112179533D01*
X54302007Y-112145933D01*
X54302004Y-112145932D01*
X54296192Y-112144500D01*
X54143808Y-112144500D01*
X54137996Y-112145932D01*
X54137992Y-112145933D01*
X54001671Y-112179533D01*
X54001667Y-112179534D01*
X53995851Y-112180968D01*
X53990551Y-112183749D01*
X53990542Y-112183753D01*
X53866226Y-112248999D01*
X53866221Y-112249002D01*
X53860921Y-112251784D01*
X53856441Y-112255752D01*
X53856435Y-112255757D01*
X53751344Y-112348860D01*
X53751337Y-112348866D01*
X53746860Y-112352834D01*
X53743460Y-112357759D01*
X53743457Y-112357763D01*
X53663694Y-112473318D01*
X53663690Y-112473325D01*
X53660295Y-112478244D01*
X53658174Y-112483834D01*
X53658173Y-112483838D01*
X53608382Y-112615127D01*
X53606259Y-112620726D01*
X53605538Y-112626663D01*
X53605536Y-112626672D01*
X53592201Y-112736500D01*
X53587891Y-112772000D01*
X53120438Y-112772000D01*
X53104741Y-112642726D01*
X53050705Y-112500244D01*
X53040809Y-112485908D01*
X52985575Y-112405888D01*
X52964140Y-112374834D01*
X52959657Y-112370862D01*
X52959655Y-112370860D01*
X52854564Y-112277757D01*
X52854561Y-112277755D01*
X52850079Y-112273784D01*
X52837498Y-112267181D01*
X52720457Y-112205753D01*
X52720451Y-112205750D01*
X52715149Y-112202968D01*
X52709329Y-112201533D01*
X52709328Y-112201533D01*
X52573007Y-112167933D01*
X52573004Y-112167932D01*
X52567192Y-112166500D01*
X52414808Y-112166500D01*
X52408996Y-112167932D01*
X52408992Y-112167933D01*
X52272671Y-112201533D01*
X52272667Y-112201534D01*
X52266851Y-112202968D01*
X52261551Y-112205749D01*
X52261542Y-112205753D01*
X52137226Y-112270999D01*
X52137221Y-112271002D01*
X52131921Y-112273784D01*
X52127441Y-112277752D01*
X52127435Y-112277757D01*
X52022344Y-112370860D01*
X52022337Y-112370866D01*
X52017860Y-112374834D01*
X52014460Y-112379759D01*
X52014457Y-112379763D01*
X51934694Y-112495318D01*
X51934690Y-112495325D01*
X51931295Y-112500244D01*
X51929174Y-112505834D01*
X51929173Y-112505838D01*
X51885602Y-112620726D01*
X51877259Y-112642726D01*
X51876538Y-112648663D01*
X51876536Y-112648672D01*
X51862284Y-112766054D01*
X51858891Y-112794000D01*
X48325654Y-112794000D01*
X48340140Y-112781166D01*
X48426705Y-112655756D01*
X48480741Y-112513274D01*
X48499109Y-112362000D01*
X48480741Y-112210726D01*
X48461509Y-112160015D01*
X48457170Y-112104654D01*
X48483320Y-112055666D01*
X48531731Y-112028464D01*
X48587172Y-112031605D01*
X48632200Y-112064101D01*
X48663342Y-112104112D01*
X48666352Y-112106883D01*
X48666355Y-112106886D01*
X48785615Y-112216672D01*
X48843490Y-112269950D01*
X49048478Y-112403875D01*
X49272712Y-112502234D01*
X49276673Y-112503237D01*
X49276676Y-112503238D01*
X49316308Y-112513274D01*
X49510078Y-112562343D01*
X49692986Y-112577499D01*
X50813180Y-112577499D01*
X50815214Y-112577499D01*
X50998122Y-112562343D01*
X51235488Y-112502234D01*
X51459722Y-112403875D01*
X51664710Y-112269950D01*
X51844858Y-112104112D01*
X51995253Y-111910885D01*
X52111793Y-111695538D01*
X52191298Y-111463947D01*
X52231600Y-111222428D01*
X52231600Y-110977570D01*
X52191298Y-110736051D01*
X52111793Y-110504460D01*
X52093685Y-110471000D01*
X59156000Y-110471000D01*
X59158095Y-110478267D01*
X59177767Y-110546507D01*
X59188000Y-110582000D01*
X59193403Y-110589204D01*
X59236588Y-110646785D01*
X59248000Y-110662000D01*
X59335000Y-110731000D01*
X59342387Y-110733721D01*
X59342388Y-110733722D01*
X59359651Y-110740082D01*
X59411000Y-110759000D01*
X59414330Y-110759728D01*
X59414332Y-110759729D01*
X59421980Y-110761401D01*
X59475000Y-110773000D01*
X59543229Y-110773000D01*
X59548000Y-110773000D01*
X59547980Y-110772361D01*
X59552603Y-110771741D01*
X59559489Y-110771741D01*
X59568273Y-110771741D01*
X59660273Y-110737740D01*
X59736274Y-110700741D01*
X59813273Y-110610741D01*
X59856273Y-110508741D01*
X59863273Y-110451741D01*
X59864218Y-110413008D01*
X60183479Y-110413008D01*
X60184698Y-110420705D01*
X60192664Y-110471000D01*
X60203523Y-110539563D01*
X60261695Y-110653731D01*
X60352298Y-110744334D01*
X60466466Y-110802506D01*
X60593021Y-110822550D01*
X60719576Y-110802506D01*
X60833744Y-110744334D01*
X60924347Y-110653731D01*
X60982519Y-110539563D01*
X61002563Y-110413008D01*
X60982519Y-110286453D01*
X60940114Y-110203229D01*
X80466311Y-110203229D01*
X80466688Y-110207538D01*
X80486179Y-110430327D01*
X80486180Y-110430334D01*
X80486556Y-110434628D01*
X80487670Y-110438789D01*
X80487672Y-110438795D01*
X80545556Y-110654822D01*
X80545559Y-110654830D01*
X80546675Y-110658995D01*
X80548500Y-110662909D01*
X80548502Y-110662914D01*
X80643011Y-110865590D01*
X80643014Y-110865596D01*
X80644842Y-110869515D01*
X80647322Y-110873058D01*
X80647324Y-110873060D01*
X80775593Y-111056248D01*
X80775596Y-111056252D01*
X80778073Y-111059789D01*
X80942322Y-111224038D01*
X81132596Y-111357269D01*
X81343116Y-111455436D01*
X81347286Y-111456553D01*
X81347288Y-111456554D01*
X81374879Y-111463947D01*
X81567483Y-111515555D01*
X81798882Y-111535800D01*
X82030281Y-111515555D01*
X82254648Y-111455436D01*
X82465168Y-111357269D01*
X82655442Y-111224038D01*
X82819691Y-111059789D01*
X82952922Y-110869515D01*
X83051089Y-110658995D01*
X83111208Y-110434628D01*
X83131453Y-110203229D01*
X83111208Y-109971830D01*
X83051089Y-109747463D01*
X83000353Y-109638659D01*
X82954752Y-109540868D01*
X82954750Y-109540866D01*
X82952922Y-109536944D01*
X82819691Y-109346669D01*
X82655442Y-109182420D01*
X82651905Y-109179943D01*
X82651901Y-109179940D01*
X82468713Y-109051671D01*
X82468711Y-109051669D01*
X82465168Y-109049189D01*
X82461249Y-109047361D01*
X82461243Y-109047358D01*
X82258567Y-108952849D01*
X82258562Y-108952847D01*
X82254648Y-108951022D01*
X82250483Y-108949906D01*
X82250475Y-108949903D01*
X82034448Y-108892019D01*
X82034442Y-108892017D01*
X82030281Y-108890903D01*
X82025987Y-108890527D01*
X82025980Y-108890526D01*
X81803191Y-108871035D01*
X81798882Y-108870658D01*
X81794573Y-108871035D01*
X81571783Y-108890526D01*
X81571774Y-108890527D01*
X81567483Y-108890903D01*
X81563323Y-108892017D01*
X81563315Y-108892019D01*
X81347288Y-108949903D01*
X81347276Y-108949907D01*
X81343116Y-108951022D01*
X81339205Y-108952845D01*
X81339196Y-108952849D01*
X81136521Y-109047358D01*
X81136510Y-109047364D01*
X81132597Y-109049189D01*
X81129058Y-109051666D01*
X81129051Y-109051671D01*
X80945862Y-109179940D01*
X80945852Y-109179947D01*
X80942322Y-109182420D01*
X80939274Y-109185467D01*
X80939268Y-109185473D01*
X80781126Y-109343615D01*
X80781120Y-109343621D01*
X80778073Y-109346669D01*
X80775600Y-109350199D01*
X80775593Y-109350209D01*
X80647324Y-109533398D01*
X80647319Y-109533405D01*
X80644842Y-109536944D01*
X80643017Y-109540857D01*
X80643011Y-109540868D01*
X80548502Y-109743543D01*
X80548498Y-109743552D01*
X80546675Y-109747463D01*
X80545560Y-109751623D01*
X80545556Y-109751635D01*
X80487672Y-109967662D01*
X80487670Y-109967670D01*
X80486556Y-109971830D01*
X80486180Y-109976121D01*
X80486179Y-109976130D01*
X80472233Y-110135543D01*
X80466311Y-110203229D01*
X60940114Y-110203229D01*
X60924347Y-110172285D01*
X60833744Y-110081682D01*
X60719576Y-110023510D01*
X60656298Y-110013487D01*
X60600718Y-110004685D01*
X60593021Y-110003466D01*
X60585324Y-110004685D01*
X60474162Y-110022291D01*
X60474161Y-110022291D01*
X60466466Y-110023510D01*
X60459524Y-110027046D01*
X60459521Y-110027048D01*
X60359243Y-110078143D01*
X60359241Y-110078144D01*
X60352298Y-110081682D01*
X60346791Y-110087188D01*
X60346788Y-110087191D01*
X60267204Y-110166775D01*
X60267201Y-110166778D01*
X60261695Y-110172285D01*
X60258157Y-110179228D01*
X60258156Y-110179230D01*
X60207061Y-110279508D01*
X60207059Y-110279511D01*
X60203523Y-110286453D01*
X60183479Y-110413008D01*
X59864218Y-110413008D01*
X59865273Y-110369741D01*
X59833273Y-110258741D01*
X59773273Y-110178741D01*
X59768289Y-110174788D01*
X59768287Y-110174786D01*
X59692443Y-110114634D01*
X59692441Y-110114632D01*
X59686273Y-110109741D01*
X59678887Y-110107020D01*
X59678884Y-110107018D01*
X59613472Y-110082919D01*
X59613464Y-110082916D01*
X59610273Y-110081741D01*
X59606952Y-110081014D01*
X59606940Y-110081011D01*
X59551489Y-110068882D01*
X59551488Y-110068881D01*
X59546273Y-110067741D01*
X59473273Y-110067741D01*
X59473292Y-110068379D01*
X59468670Y-110069000D01*
X59453000Y-110069000D01*
X59444763Y-110072044D01*
X59444758Y-110072045D01*
X59363310Y-110102146D01*
X59363304Y-110102148D01*
X59361000Y-110103000D01*
X59358800Y-110104070D01*
X59358793Y-110104074D01*
X59294154Y-110135543D01*
X59294152Y-110135544D01*
X59285000Y-110140000D01*
X59278381Y-110147736D01*
X59278379Y-110147738D01*
X59230904Y-110203229D01*
X59208000Y-110230000D01*
X59205026Y-110237053D01*
X59205025Y-110237056D01*
X59167665Y-110325676D01*
X59167663Y-110325682D01*
X59165000Y-110332000D01*
X59164164Y-110338807D01*
X59164163Y-110338811D01*
X59158296Y-110386586D01*
X59158000Y-110389000D01*
X59157941Y-110391408D01*
X59157941Y-110391412D01*
X59156470Y-110451741D01*
X59156000Y-110471000D01*
X52093685Y-110471000D01*
X52038887Y-110369741D01*
X51997202Y-110292714D01*
X51997200Y-110292711D01*
X51995253Y-110289113D01*
X51971613Y-110258741D01*
X51847375Y-110099120D01*
X51844858Y-110095886D01*
X51830772Y-110082919D01*
X51667717Y-109932816D01*
X51667716Y-109932815D01*
X51664710Y-109930048D01*
X51584848Y-109877872D01*
X51463151Y-109798363D01*
X51463148Y-109798361D01*
X51459722Y-109796123D01*
X51455965Y-109794475D01*
X51288461Y-109721000D01*
X53547891Y-109721000D01*
X53548613Y-109726946D01*
X53565536Y-109866327D01*
X53565537Y-109866334D01*
X53566259Y-109872274D01*
X53568381Y-109877871D01*
X53568382Y-109877872D01*
X53616475Y-110004685D01*
X53620295Y-110014756D01*
X53623692Y-110019677D01*
X53623694Y-110019681D01*
X53674380Y-110093111D01*
X53706860Y-110140166D01*
X53711341Y-110144136D01*
X53711344Y-110144139D01*
X53801690Y-110224179D01*
X53820921Y-110241216D01*
X53870798Y-110267393D01*
X53950542Y-110309246D01*
X53950544Y-110309246D01*
X53955851Y-110312032D01*
X54103808Y-110348500D01*
X54250204Y-110348500D01*
X54256192Y-110348500D01*
X54404149Y-110312032D01*
X54539079Y-110241216D01*
X54653140Y-110140166D01*
X54739705Y-110014756D01*
X54793741Y-109872274D01*
X54812109Y-109721000D01*
X54793741Y-109569726D01*
X54739705Y-109427244D01*
X54653140Y-109301834D01*
X54648657Y-109297862D01*
X54648655Y-109297860D01*
X54543564Y-109204757D01*
X54543561Y-109204755D01*
X54539079Y-109200784D01*
X54533773Y-109197999D01*
X54409457Y-109132753D01*
X54409451Y-109132750D01*
X54404149Y-109129968D01*
X54398329Y-109128533D01*
X54398328Y-109128533D01*
X54262007Y-109094933D01*
X54262004Y-109094932D01*
X54256192Y-109093500D01*
X54103808Y-109093500D01*
X54097996Y-109094932D01*
X54097992Y-109094933D01*
X53961671Y-109128533D01*
X53961667Y-109128534D01*
X53955851Y-109129968D01*
X53950551Y-109132749D01*
X53950542Y-109132753D01*
X53826226Y-109197999D01*
X53826221Y-109198002D01*
X53820921Y-109200784D01*
X53816441Y-109204752D01*
X53816435Y-109204757D01*
X53711344Y-109297860D01*
X53711337Y-109297866D01*
X53706860Y-109301834D01*
X53703460Y-109306759D01*
X53703457Y-109306763D01*
X53623694Y-109422318D01*
X53623690Y-109422325D01*
X53620295Y-109427244D01*
X53618174Y-109432834D01*
X53618173Y-109432838D01*
X53577203Y-109540868D01*
X53566259Y-109569726D01*
X53565538Y-109575663D01*
X53565536Y-109575672D01*
X53550834Y-109696759D01*
X53547891Y-109721000D01*
X51288461Y-109721000D01*
X51239237Y-109699408D01*
X51239231Y-109699406D01*
X51235488Y-109697764D01*
X51231533Y-109696762D01*
X51231523Y-109696759D01*
X51002087Y-109638659D01*
X51002086Y-109638658D01*
X50998122Y-109637655D01*
X50994045Y-109637317D01*
X50994044Y-109637317D01*
X50817239Y-109622666D01*
X50817219Y-109622665D01*
X50815214Y-109622499D01*
X49692986Y-109622499D01*
X49690981Y-109622665D01*
X49690960Y-109622666D01*
X49514155Y-109637317D01*
X49514152Y-109637317D01*
X49510078Y-109637655D01*
X49506115Y-109638658D01*
X49506112Y-109638659D01*
X49276676Y-109696759D01*
X49276662Y-109696763D01*
X49272712Y-109697764D01*
X49268971Y-109699404D01*
X49268962Y-109699408D01*
X49052234Y-109794475D01*
X49052229Y-109794477D01*
X49048478Y-109796123D01*
X49045056Y-109798358D01*
X49045048Y-109798363D01*
X48846911Y-109927812D01*
X48846903Y-109927817D01*
X48843490Y-109930048D01*
X48840489Y-109932810D01*
X48840482Y-109932816D01*
X48666355Y-110093111D01*
X48666346Y-110093119D01*
X48663342Y-110095886D01*
X48660829Y-110099113D01*
X48660824Y-110099120D01*
X48515462Y-110285880D01*
X48515454Y-110285890D01*
X48512947Y-110289113D01*
X48511004Y-110292702D01*
X48510997Y-110292714D01*
X48398355Y-110500859D01*
X48398351Y-110500866D01*
X48396407Y-110504460D01*
X48395078Y-110508328D01*
X48395077Y-110508333D01*
X48318229Y-110732183D01*
X48318226Y-110732192D01*
X48316902Y-110736051D01*
X48316230Y-110740077D01*
X48316229Y-110740082D01*
X48277273Y-110973532D01*
X48277272Y-110973541D01*
X48276600Y-110977570D01*
X48276600Y-111222428D01*
X48277272Y-111226457D01*
X48277273Y-111226465D01*
X48299406Y-111359099D01*
X48316902Y-111463947D01*
X48318227Y-111467808D01*
X48318229Y-111467814D01*
X48341569Y-111535800D01*
X48396407Y-111695538D01*
X48398350Y-111699129D01*
X48398357Y-111699144D01*
X48438642Y-111773584D01*
X48450382Y-111826869D01*
X48432108Y-111878281D01*
X48389372Y-111912203D01*
X48335154Y-111918331D01*
X48285927Y-111894805D01*
X48226079Y-111841784D01*
X48197661Y-111826869D01*
X48096457Y-111773753D01*
X48096451Y-111773750D01*
X48091149Y-111770968D01*
X48085329Y-111769533D01*
X48085328Y-111769533D01*
X47949007Y-111735933D01*
X47949004Y-111735932D01*
X47943192Y-111734500D01*
X47790808Y-111734500D01*
X47784996Y-111735932D01*
X47784992Y-111735933D01*
X47648671Y-111769533D01*
X47648667Y-111769534D01*
X47642851Y-111770968D01*
X47637551Y-111773749D01*
X47637542Y-111773753D01*
X47513226Y-111838999D01*
X47513221Y-111839002D01*
X47507921Y-111841784D01*
X47503441Y-111845752D01*
X47503435Y-111845757D01*
X47398344Y-111938860D01*
X47398337Y-111938866D01*
X47393860Y-111942834D01*
X47390460Y-111947759D01*
X47390457Y-111947763D01*
X47310694Y-112063318D01*
X47310690Y-112063325D01*
X47307295Y-112068244D01*
X47305174Y-112073834D01*
X47305173Y-112073838D01*
X47263488Y-112183753D01*
X47253259Y-112210726D01*
X47252538Y-112216663D01*
X47252536Y-112216672D01*
X47236486Y-112348860D01*
X47234891Y-112362000D01*
X42186719Y-112362000D01*
X42186437Y-107022428D01*
X48276600Y-107022428D01*
X48277272Y-107026457D01*
X48277273Y-107026465D01*
X48316229Y-107259915D01*
X48316902Y-107263947D01*
X48318227Y-107267808D01*
X48318229Y-107267814D01*
X48395077Y-107491664D01*
X48396407Y-107495538D01*
X48398354Y-107499135D01*
X48398355Y-107499138D01*
X48510997Y-107707283D01*
X48511001Y-107707289D01*
X48512947Y-107710885D01*
X48515459Y-107714112D01*
X48515462Y-107714117D01*
X48637148Y-107870458D01*
X48663342Y-107904112D01*
X48666352Y-107906883D01*
X48666355Y-107906886D01*
X48840482Y-108067181D01*
X48843490Y-108069950D01*
X49048478Y-108203875D01*
X49272712Y-108302234D01*
X49276673Y-108303237D01*
X49276676Y-108303238D01*
X49325492Y-108315599D01*
X49510078Y-108362343D01*
X49692986Y-108377499D01*
X50813180Y-108377499D01*
X50815214Y-108377499D01*
X50998122Y-108362343D01*
X51235488Y-108302234D01*
X51286176Y-108280000D01*
X60091458Y-108280000D01*
X60111502Y-108406555D01*
X60169674Y-108520723D01*
X60260277Y-108611326D01*
X60374445Y-108669498D01*
X60501000Y-108689542D01*
X60627555Y-108669498D01*
X60741723Y-108611326D01*
X60832326Y-108520723D01*
X60890498Y-108406555D01*
X60910542Y-108280000D01*
X60890498Y-108153445D01*
X60832326Y-108039277D01*
X60741723Y-107948674D01*
X60627555Y-107890502D01*
X60501000Y-107870458D01*
X60493303Y-107871677D01*
X60382141Y-107889283D01*
X60382140Y-107889283D01*
X60374445Y-107890502D01*
X60367503Y-107894038D01*
X60367500Y-107894040D01*
X60267222Y-107945135D01*
X60267220Y-107945136D01*
X60260277Y-107948674D01*
X60254770Y-107954180D01*
X60254767Y-107954183D01*
X60175183Y-108033767D01*
X60175180Y-108033770D01*
X60169674Y-108039277D01*
X60166136Y-108046220D01*
X60166135Y-108046222D01*
X60115040Y-108146500D01*
X60115038Y-108146503D01*
X60111502Y-108153445D01*
X60091458Y-108280000D01*
X51286176Y-108280000D01*
X51459722Y-108203875D01*
X51664710Y-108069950D01*
X51844858Y-107904112D01*
X51995253Y-107710885D01*
X52111793Y-107495538D01*
X52191298Y-107263947D01*
X52231600Y-107022428D01*
X52231600Y-106777570D01*
X52191298Y-106536051D01*
X52111793Y-106304460D01*
X51995253Y-106089113D01*
X51844858Y-105895886D01*
X51664710Y-105730048D01*
X51459722Y-105596123D01*
X51439975Y-105587461D01*
X51239237Y-105499408D01*
X51239231Y-105499406D01*
X51235488Y-105497764D01*
X51231533Y-105496762D01*
X51231523Y-105496759D01*
X51165014Y-105479917D01*
X80485799Y-105479917D01*
X80493197Y-105517107D01*
X80521377Y-105559281D01*
X80563551Y-105587461D01*
X80600741Y-105594859D01*
X83020999Y-105594859D01*
X83025857Y-105594859D01*
X83063047Y-105587461D01*
X83105221Y-105559281D01*
X83133401Y-105517107D01*
X83140799Y-105479917D01*
X83140799Y-103054801D01*
X83133401Y-103017611D01*
X83105221Y-102975437D01*
X83063047Y-102947257D01*
X83046776Y-102944020D01*
X83030619Y-102940806D01*
X83030616Y-102940805D01*
X83025857Y-102939859D01*
X80600741Y-102939859D01*
X80595982Y-102940805D01*
X80595978Y-102940806D01*
X80573112Y-102945355D01*
X80563551Y-102947257D01*
X80555447Y-102952671D01*
X80555444Y-102952673D01*
X80529486Y-102970018D01*
X80529483Y-102970020D01*
X80521377Y-102975437D01*
X80515960Y-102983543D01*
X80515958Y-102983546D01*
X80498613Y-103009504D01*
X80498611Y-103009507D01*
X80493197Y-103017611D01*
X80485799Y-103054801D01*
X80485799Y-105479917D01*
X51165014Y-105479917D01*
X51002087Y-105438659D01*
X51002086Y-105438658D01*
X50998122Y-105437655D01*
X50994045Y-105437317D01*
X50994044Y-105437317D01*
X50817239Y-105422666D01*
X50817219Y-105422665D01*
X50815214Y-105422499D01*
X49692986Y-105422499D01*
X49690981Y-105422665D01*
X49690960Y-105422666D01*
X49514155Y-105437317D01*
X49514152Y-105437317D01*
X49510078Y-105437655D01*
X49506115Y-105438658D01*
X49506112Y-105438659D01*
X49276676Y-105496759D01*
X49276662Y-105496763D01*
X49272712Y-105497764D01*
X49268971Y-105499404D01*
X49268962Y-105499408D01*
X49052234Y-105594475D01*
X49052229Y-105594477D01*
X49048478Y-105596123D01*
X49045056Y-105598358D01*
X49045048Y-105598363D01*
X48846911Y-105727812D01*
X48846903Y-105727817D01*
X48843490Y-105730048D01*
X48840489Y-105732810D01*
X48840482Y-105732816D01*
X48666355Y-105893111D01*
X48666346Y-105893119D01*
X48663342Y-105895886D01*
X48660829Y-105899113D01*
X48660824Y-105899120D01*
X48515462Y-106085880D01*
X48515454Y-106085890D01*
X48512947Y-106089113D01*
X48511004Y-106092702D01*
X48510997Y-106092714D01*
X48398355Y-106300859D01*
X48398351Y-106300866D01*
X48396407Y-106304460D01*
X48395078Y-106308328D01*
X48395077Y-106308333D01*
X48318229Y-106532183D01*
X48318226Y-106532192D01*
X48316902Y-106536051D01*
X48316230Y-106540077D01*
X48316229Y-106540082D01*
X48277273Y-106773532D01*
X48277272Y-106773541D01*
X48276600Y-106777570D01*
X48276600Y-107022428D01*
X42186437Y-107022428D01*
X42186315Y-104703000D01*
X48227891Y-104703000D01*
X48228613Y-104708946D01*
X48245536Y-104848327D01*
X48245537Y-104848334D01*
X48246259Y-104854274D01*
X48300295Y-104996756D01*
X48303692Y-105001677D01*
X48303694Y-105001681D01*
X48316809Y-105020681D01*
X48386860Y-105122166D01*
X48391341Y-105126136D01*
X48391344Y-105126139D01*
X48496435Y-105219242D01*
X48500921Y-105223216D01*
X48558088Y-105253219D01*
X48630542Y-105291246D01*
X48630544Y-105291246D01*
X48635851Y-105294032D01*
X48783808Y-105330500D01*
X48930204Y-105330500D01*
X48936192Y-105330500D01*
X49084149Y-105294032D01*
X49219079Y-105223216D01*
X49333140Y-105122166D01*
X49419705Y-104996756D01*
X49473741Y-104854274D01*
X49489802Y-104722000D01*
X53465891Y-104722000D01*
X53466613Y-104727946D01*
X53483536Y-104867327D01*
X53483537Y-104867334D01*
X53484259Y-104873274D01*
X53538295Y-105015756D01*
X53541692Y-105020677D01*
X53541694Y-105020681D01*
X53621457Y-105136236D01*
X53624860Y-105141166D01*
X53629341Y-105145136D01*
X53629344Y-105145139D01*
X53720617Y-105226000D01*
X53738921Y-105242216D01*
X53744226Y-105245000D01*
X53868542Y-105310246D01*
X53868544Y-105310246D01*
X53873851Y-105313032D01*
X54021808Y-105349500D01*
X54168204Y-105349500D01*
X54174192Y-105349500D01*
X54322149Y-105313032D01*
X54457079Y-105242216D01*
X54571140Y-105141166D01*
X54657705Y-105015756D01*
X54711741Y-104873274D01*
X54730109Y-104722000D01*
X54711741Y-104570726D01*
X54657705Y-104428244D01*
X54648451Y-104414838D01*
X54574542Y-104307763D01*
X54571140Y-104302834D01*
X54566657Y-104298862D01*
X54566655Y-104298860D01*
X54461564Y-104205757D01*
X54461561Y-104205755D01*
X54457079Y-104201784D01*
X54451773Y-104198999D01*
X54327457Y-104133753D01*
X54327451Y-104133750D01*
X54322149Y-104130968D01*
X54316329Y-104129533D01*
X54316328Y-104129533D01*
X54180007Y-104095933D01*
X54180004Y-104095932D01*
X54174192Y-104094500D01*
X54021808Y-104094500D01*
X54015996Y-104095932D01*
X54015992Y-104095933D01*
X53879671Y-104129533D01*
X53879667Y-104129534D01*
X53873851Y-104130968D01*
X53868551Y-104133749D01*
X53868542Y-104133753D01*
X53744226Y-104198999D01*
X53744221Y-104199002D01*
X53738921Y-104201784D01*
X53734441Y-104205752D01*
X53734435Y-104205757D01*
X53629344Y-104298860D01*
X53629337Y-104298866D01*
X53624860Y-104302834D01*
X53621460Y-104307759D01*
X53621457Y-104307763D01*
X53541694Y-104423318D01*
X53541690Y-104423325D01*
X53538295Y-104428244D01*
X53536174Y-104433834D01*
X53536173Y-104433838D01*
X53486382Y-104565127D01*
X53484259Y-104570726D01*
X53483538Y-104576663D01*
X53483536Y-104576672D01*
X53468920Y-104697054D01*
X53465891Y-104722000D01*
X49489802Y-104722000D01*
X49492109Y-104703000D01*
X49473741Y-104551726D01*
X49419705Y-104409244D01*
X49343762Y-104299222D01*
X49326237Y-104242825D01*
X49343941Y-104186485D01*
X49390574Y-104150250D01*
X49449541Y-104147013D01*
X49506104Y-104161337D01*
X49506108Y-104161337D01*
X49510078Y-104162343D01*
X49692986Y-104177499D01*
X50813180Y-104177499D01*
X50815214Y-104177499D01*
X50998122Y-104162343D01*
X51235488Y-104102234D01*
X51459722Y-104003875D01*
X51664710Y-103869950D01*
X51844858Y-103704112D01*
X51995253Y-103510885D01*
X52111793Y-103295538D01*
X52191298Y-103063947D01*
X52231600Y-102822428D01*
X52231600Y-102577570D01*
X52191298Y-102336051D01*
X52136696Y-102177000D01*
X54478104Y-102177000D01*
X54479112Y-102184011D01*
X54494590Y-102291666D01*
X54494591Y-102291670D01*
X54495599Y-102298679D01*
X54546666Y-102410501D01*
X54627168Y-102503405D01*
X54633122Y-102507231D01*
X54633124Y-102507233D01*
X54724624Y-102566036D01*
X54730584Y-102569866D01*
X54848535Y-102604500D01*
X54964388Y-102604500D01*
X54971465Y-102604500D01*
X55089416Y-102569866D01*
X55192832Y-102503405D01*
X55273334Y-102410501D01*
X55324401Y-102298679D01*
X55341896Y-102177000D01*
X55324401Y-102055321D01*
X55273334Y-101943499D01*
X55192832Y-101850595D01*
X55186878Y-101846768D01*
X55186875Y-101846766D01*
X55095375Y-101787963D01*
X55095371Y-101787961D01*
X55089416Y-101784134D01*
X55082625Y-101782140D01*
X55082621Y-101782138D01*
X54978254Y-101751493D01*
X54978250Y-101751492D01*
X54971465Y-101749500D01*
X54848535Y-101749500D01*
X54841750Y-101751492D01*
X54841745Y-101751493D01*
X54737378Y-101782138D01*
X54737371Y-101782141D01*
X54730584Y-101784134D01*
X54724630Y-101787959D01*
X54724624Y-101787963D01*
X54633124Y-101846766D01*
X54633118Y-101846771D01*
X54627168Y-101850595D01*
X54622532Y-101855944D01*
X54622531Y-101855946D01*
X54551303Y-101938147D01*
X54551301Y-101938149D01*
X54546666Y-101943499D01*
X54543726Y-101949935D01*
X54543725Y-101949938D01*
X54511417Y-102020684D01*
X54495599Y-102055321D01*
X54494591Y-102062327D01*
X54494590Y-102062333D01*
X54479112Y-102169989D01*
X54478104Y-102177000D01*
X52136696Y-102177000D01*
X52111793Y-102104460D01*
X51995253Y-101889113D01*
X51844858Y-101695886D01*
X51769997Y-101626972D01*
X51667717Y-101532816D01*
X51667716Y-101532815D01*
X51664710Y-101530048D01*
X51640163Y-101514011D01*
X51629432Y-101507000D01*
X57321104Y-101507000D01*
X57322112Y-101514011D01*
X57337590Y-101621666D01*
X57337591Y-101621670D01*
X57338599Y-101628679D01*
X57389666Y-101740501D01*
X57470168Y-101833405D01*
X57476122Y-101837231D01*
X57476124Y-101837233D01*
X57551821Y-101885880D01*
X57573584Y-101899866D01*
X57691535Y-101934500D01*
X57807388Y-101934500D01*
X57814465Y-101934500D01*
X57932416Y-101899866D01*
X58035832Y-101833405D01*
X58116334Y-101740501D01*
X58167401Y-101628679D01*
X58184896Y-101507000D01*
X58167401Y-101385321D01*
X58116334Y-101273499D01*
X58035832Y-101180595D01*
X58029878Y-101176768D01*
X58029875Y-101176766D01*
X57938375Y-101117963D01*
X57938371Y-101117961D01*
X57932416Y-101114134D01*
X57925625Y-101112140D01*
X57925621Y-101112138D01*
X57821254Y-101081493D01*
X57821250Y-101081492D01*
X57814465Y-101079500D01*
X57691535Y-101079500D01*
X57684750Y-101081492D01*
X57684745Y-101081493D01*
X57580378Y-101112138D01*
X57580371Y-101112141D01*
X57573584Y-101114134D01*
X57567630Y-101117959D01*
X57567624Y-101117963D01*
X57476124Y-101176766D01*
X57476118Y-101176771D01*
X57470168Y-101180595D01*
X57465532Y-101185944D01*
X57465531Y-101185946D01*
X57394303Y-101268147D01*
X57394301Y-101268149D01*
X57389666Y-101273499D01*
X57386726Y-101279935D01*
X57386725Y-101279938D01*
X57341541Y-101378878D01*
X57338599Y-101385321D01*
X57337591Y-101392327D01*
X57337590Y-101392333D01*
X57331141Y-101437190D01*
X57321104Y-101507000D01*
X51629432Y-101507000D01*
X51463151Y-101398363D01*
X51463148Y-101398361D01*
X51459722Y-101396123D01*
X51420408Y-101378878D01*
X51239237Y-101299408D01*
X51239231Y-101299406D01*
X51235488Y-101297764D01*
X51231533Y-101296762D01*
X51231523Y-101296759D01*
X51002087Y-101238659D01*
X51002086Y-101238658D01*
X50998122Y-101237655D01*
X50994045Y-101237317D01*
X50994044Y-101237317D01*
X50817239Y-101222666D01*
X50817219Y-101222665D01*
X50815214Y-101222499D01*
X49692986Y-101222499D01*
X49690981Y-101222665D01*
X49690960Y-101222666D01*
X49514155Y-101237317D01*
X49514152Y-101237317D01*
X49510078Y-101237655D01*
X49506115Y-101238658D01*
X49506112Y-101238659D01*
X49276676Y-101296759D01*
X49276662Y-101296763D01*
X49272712Y-101297764D01*
X49268971Y-101299404D01*
X49268962Y-101299408D01*
X49052234Y-101394475D01*
X49052229Y-101394477D01*
X49048478Y-101396123D01*
X49045056Y-101398358D01*
X49045048Y-101398363D01*
X48846911Y-101527812D01*
X48846903Y-101527817D01*
X48843490Y-101530048D01*
X48840489Y-101532810D01*
X48840482Y-101532816D01*
X48666355Y-101693111D01*
X48666346Y-101693119D01*
X48663342Y-101695886D01*
X48660829Y-101699113D01*
X48660824Y-101699120D01*
X48515462Y-101885880D01*
X48515454Y-101885890D01*
X48512947Y-101889113D01*
X48511004Y-101892702D01*
X48510997Y-101892714D01*
X48398355Y-102100859D01*
X48398351Y-102100866D01*
X48396407Y-102104460D01*
X48395078Y-102108328D01*
X48395077Y-102108333D01*
X48318229Y-102332183D01*
X48318226Y-102332192D01*
X48316902Y-102336051D01*
X48316230Y-102340077D01*
X48316229Y-102340082D01*
X48277273Y-102573532D01*
X48277272Y-102573541D01*
X48276600Y-102577570D01*
X48276600Y-102822428D01*
X48277272Y-102826457D01*
X48277273Y-102826465D01*
X48307817Y-103009504D01*
X48316902Y-103063947D01*
X48318227Y-103067808D01*
X48318229Y-103067814D01*
X48395077Y-103291664D01*
X48396407Y-103295538D01*
X48398354Y-103299135D01*
X48398355Y-103299138D01*
X48510997Y-103507283D01*
X48511001Y-103507289D01*
X48512947Y-103510885D01*
X48515459Y-103514112D01*
X48515462Y-103514117D01*
X48660824Y-103700877D01*
X48663342Y-103704112D01*
X48843490Y-103869950D01*
X48846910Y-103872184D01*
X48846916Y-103872189D01*
X48879719Y-103893620D01*
X48913407Y-103930827D01*
X48924518Y-103979773D01*
X48910197Y-104027878D01*
X48874124Y-104062777D01*
X48825572Y-104075500D01*
X48783808Y-104075500D01*
X48777996Y-104076932D01*
X48777992Y-104076933D01*
X48641671Y-104110533D01*
X48641667Y-104110534D01*
X48635851Y-104111968D01*
X48630551Y-104114749D01*
X48630542Y-104114753D01*
X48506226Y-104179999D01*
X48506221Y-104180002D01*
X48500921Y-104182784D01*
X48496441Y-104186752D01*
X48496435Y-104186757D01*
X48391344Y-104279860D01*
X48391337Y-104279866D01*
X48386860Y-104283834D01*
X48383460Y-104288759D01*
X48383457Y-104288763D01*
X48303694Y-104404318D01*
X48303690Y-104404325D01*
X48300295Y-104409244D01*
X48298174Y-104414834D01*
X48298173Y-104414838D01*
X48248382Y-104546127D01*
X48246259Y-104551726D01*
X48245538Y-104557663D01*
X48245536Y-104557672D01*
X48229007Y-104693803D01*
X48227891Y-104703000D01*
X42186315Y-104703000D01*
X42186107Y-100767359D01*
X80480728Y-100767359D01*
X80481105Y-100771668D01*
X80500596Y-100994457D01*
X80500597Y-100994464D01*
X80500973Y-100998758D01*
X80502087Y-101002919D01*
X80502089Y-101002925D01*
X80559973Y-101218952D01*
X80559976Y-101218960D01*
X80561092Y-101223125D01*
X80562917Y-101227039D01*
X80562919Y-101227044D01*
X80657428Y-101429720D01*
X80657431Y-101429726D01*
X80659259Y-101433645D01*
X80661739Y-101437188D01*
X80661741Y-101437190D01*
X80790010Y-101620378D01*
X80790013Y-101620382D01*
X80792490Y-101623919D01*
X80956739Y-101788168D01*
X80960277Y-101790645D01*
X80960279Y-101790647D01*
X81100904Y-101889113D01*
X81147013Y-101921399D01*
X81150935Y-101923227D01*
X81150937Y-101923229D01*
X81208215Y-101949938D01*
X81357533Y-102019566D01*
X81581900Y-102079685D01*
X81813299Y-102099930D01*
X82044698Y-102079685D01*
X82269065Y-102019566D01*
X82479585Y-101921399D01*
X82669859Y-101788168D01*
X82834108Y-101623919D01*
X82967339Y-101433645D01*
X83065506Y-101223125D01*
X83125625Y-100998758D01*
X83145870Y-100767359D01*
X83125625Y-100535960D01*
X83065506Y-100311593D01*
X82967339Y-100101074D01*
X82935958Y-100056257D01*
X82836587Y-99914339D01*
X82836585Y-99914336D01*
X82834108Y-99910799D01*
X82669859Y-99746550D01*
X82666322Y-99744073D01*
X82666318Y-99744070D01*
X82483130Y-99615801D01*
X82483128Y-99615799D01*
X82479585Y-99613319D01*
X82475666Y-99611491D01*
X82475660Y-99611488D01*
X82272984Y-99516979D01*
X82272979Y-99516977D01*
X82269065Y-99515152D01*
X82264900Y-99514036D01*
X82264892Y-99514033D01*
X82048865Y-99456149D01*
X82048859Y-99456147D01*
X82044698Y-99455033D01*
X82040404Y-99454657D01*
X82040397Y-99454656D01*
X81817608Y-99435165D01*
X81813299Y-99434788D01*
X81808990Y-99435165D01*
X81586200Y-99454656D01*
X81586191Y-99454657D01*
X81581900Y-99455033D01*
X81577740Y-99456147D01*
X81577732Y-99456149D01*
X81361705Y-99514033D01*
X81361693Y-99514037D01*
X81357533Y-99515152D01*
X81353622Y-99516975D01*
X81353613Y-99516979D01*
X81150938Y-99611488D01*
X81150927Y-99611494D01*
X81147014Y-99613319D01*
X81143475Y-99615796D01*
X81143468Y-99615801D01*
X80960279Y-99744070D01*
X80960269Y-99744077D01*
X80956739Y-99746550D01*
X80953691Y-99749597D01*
X80953685Y-99749603D01*
X80795543Y-99907745D01*
X80795537Y-99907751D01*
X80792490Y-99910799D01*
X80790017Y-99914329D01*
X80790010Y-99914339D01*
X80661741Y-100097528D01*
X80661736Y-100097535D01*
X80659259Y-100101074D01*
X80657434Y-100104987D01*
X80657428Y-100104998D01*
X80562919Y-100307673D01*
X80562915Y-100307682D01*
X80561092Y-100311593D01*
X80559977Y-100315753D01*
X80559973Y-100315765D01*
X80502089Y-100531792D01*
X80502087Y-100531800D01*
X80500973Y-100535960D01*
X80500597Y-100540251D01*
X80500596Y-100540260D01*
X80481285Y-100760988D01*
X80480728Y-100767359D01*
X42186107Y-100767359D01*
X42185994Y-98622428D01*
X42776600Y-98622428D01*
X42777272Y-98626457D01*
X42777273Y-98626465D01*
X42816229Y-98859915D01*
X42816902Y-98863947D01*
X42818227Y-98867808D01*
X42818229Y-98867814D01*
X42895077Y-99091664D01*
X42896407Y-99095538D01*
X42898354Y-99099135D01*
X42898355Y-99099138D01*
X43010997Y-99307283D01*
X43011001Y-99307289D01*
X43012947Y-99310885D01*
X43015459Y-99314112D01*
X43015462Y-99314117D01*
X43109385Y-99434788D01*
X43163342Y-99504112D01*
X43166352Y-99506883D01*
X43166355Y-99506886D01*
X43340482Y-99667181D01*
X43343490Y-99669950D01*
X43548478Y-99803875D01*
X43772712Y-99902234D01*
X43776673Y-99903237D01*
X43776676Y-99903238D01*
X43820514Y-99914339D01*
X44010078Y-99962343D01*
X44192986Y-99977499D01*
X45313180Y-99977499D01*
X45315214Y-99977499D01*
X45498122Y-99962343D01*
X45735488Y-99902234D01*
X45959722Y-99803875D01*
X46164710Y-99669950D01*
X46344858Y-99504112D01*
X46495253Y-99310885D01*
X46611793Y-99095538D01*
X46691298Y-98863947D01*
X46731600Y-98622428D01*
X48276600Y-98622428D01*
X48277272Y-98626457D01*
X48277273Y-98626465D01*
X48316229Y-98859915D01*
X48316902Y-98863947D01*
X48318227Y-98867808D01*
X48318229Y-98867814D01*
X48395077Y-99091664D01*
X48396407Y-99095538D01*
X48398354Y-99099135D01*
X48398355Y-99099138D01*
X48510997Y-99307283D01*
X48511001Y-99307289D01*
X48512947Y-99310885D01*
X48515459Y-99314112D01*
X48515462Y-99314117D01*
X48609385Y-99434788D01*
X48663342Y-99504112D01*
X48666352Y-99506883D01*
X48666355Y-99506886D01*
X48840482Y-99667181D01*
X48843490Y-99669950D01*
X49048478Y-99803875D01*
X49272712Y-99902234D01*
X49276673Y-99903237D01*
X49276676Y-99903238D01*
X49320514Y-99914339D01*
X49510078Y-99962343D01*
X49692986Y-99977499D01*
X50813180Y-99977499D01*
X50815214Y-99977499D01*
X50998122Y-99962343D01*
X51235488Y-99902234D01*
X51459722Y-99803875D01*
X51664710Y-99669950D01*
X51844858Y-99504112D01*
X51995253Y-99310885D01*
X52111793Y-99095538D01*
X52191298Y-98863947D01*
X52231600Y-98622428D01*
X52231600Y-98377570D01*
X52191298Y-98136051D01*
X52111793Y-97904460D01*
X52089356Y-97863000D01*
X56658458Y-97863000D01*
X56659677Y-97870697D01*
X56665638Y-97908333D01*
X56678502Y-97989555D01*
X56736674Y-98103723D01*
X56827277Y-98194326D01*
X56941445Y-98252498D01*
X57068000Y-98272542D01*
X57194555Y-98252498D01*
X57308723Y-98194326D01*
X57399326Y-98103723D01*
X57457498Y-97989555D01*
X57477542Y-97863000D01*
X57457498Y-97736445D01*
X57399326Y-97622277D01*
X57308723Y-97531674D01*
X57238486Y-97495886D01*
X57201499Y-97477040D01*
X57201498Y-97477039D01*
X57194555Y-97473502D01*
X57068000Y-97453458D01*
X57060303Y-97454677D01*
X56949141Y-97472283D01*
X56949140Y-97472283D01*
X56941445Y-97473502D01*
X56934503Y-97477038D01*
X56934500Y-97477040D01*
X56834222Y-97528135D01*
X56834220Y-97528136D01*
X56827277Y-97531674D01*
X56821770Y-97537180D01*
X56821767Y-97537183D01*
X56742183Y-97616767D01*
X56742180Y-97616770D01*
X56736674Y-97622277D01*
X56733136Y-97629220D01*
X56733135Y-97629222D01*
X56682040Y-97729500D01*
X56682038Y-97729503D01*
X56678502Y-97736445D01*
X56658458Y-97863000D01*
X52089356Y-97863000D01*
X52020868Y-97736445D01*
X51997202Y-97692714D01*
X51997200Y-97692711D01*
X51995253Y-97689113D01*
X51943232Y-97622277D01*
X51847375Y-97499120D01*
X51844858Y-97495886D01*
X51819218Y-97472283D01*
X51667717Y-97332816D01*
X51667716Y-97332815D01*
X51664710Y-97330048D01*
X51459722Y-97196123D01*
X51455965Y-97194475D01*
X51239237Y-97099408D01*
X51239231Y-97099406D01*
X51235488Y-97097764D01*
X51231533Y-97096762D01*
X51231523Y-97096759D01*
X51002087Y-97038659D01*
X51002086Y-97038658D01*
X50998122Y-97037655D01*
X50994045Y-97037317D01*
X50994044Y-97037317D01*
X50817239Y-97022666D01*
X50817219Y-97022665D01*
X50815214Y-97022499D01*
X49692986Y-97022499D01*
X49690981Y-97022665D01*
X49690960Y-97022666D01*
X49514155Y-97037317D01*
X49514152Y-97037317D01*
X49510078Y-97037655D01*
X49506115Y-97038658D01*
X49506112Y-97038659D01*
X49276676Y-97096759D01*
X49276662Y-97096763D01*
X49272712Y-97097764D01*
X49268971Y-97099404D01*
X49268962Y-97099408D01*
X49052234Y-97194475D01*
X49052229Y-97194477D01*
X49048478Y-97196123D01*
X49045056Y-97198358D01*
X49045048Y-97198363D01*
X48846911Y-97327812D01*
X48846903Y-97327817D01*
X48843490Y-97330048D01*
X48840489Y-97332810D01*
X48840482Y-97332816D01*
X48666355Y-97493111D01*
X48666346Y-97493119D01*
X48663342Y-97495886D01*
X48660829Y-97499113D01*
X48660824Y-97499120D01*
X48515462Y-97685880D01*
X48515454Y-97685890D01*
X48512947Y-97689113D01*
X48511004Y-97692702D01*
X48510997Y-97692714D01*
X48398355Y-97900859D01*
X48398351Y-97900866D01*
X48396407Y-97904460D01*
X48395078Y-97908328D01*
X48395077Y-97908333D01*
X48318229Y-98132183D01*
X48318226Y-98132192D01*
X48316902Y-98136051D01*
X48316230Y-98140077D01*
X48316229Y-98140082D01*
X48277273Y-98373532D01*
X48277272Y-98373541D01*
X48276600Y-98377570D01*
X48276600Y-98622428D01*
X46731600Y-98622428D01*
X46731600Y-98377570D01*
X46691298Y-98136051D01*
X46611793Y-97904460D01*
X46520868Y-97736445D01*
X46497202Y-97692714D01*
X46497200Y-97692711D01*
X46495253Y-97689113D01*
X46443232Y-97622277D01*
X46347375Y-97499120D01*
X46344858Y-97495886D01*
X46319218Y-97472283D01*
X46167717Y-97332816D01*
X46167716Y-97332815D01*
X46164710Y-97330048D01*
X45959722Y-97196123D01*
X45955965Y-97194475D01*
X45739237Y-97099408D01*
X45739231Y-97099406D01*
X45735488Y-97097764D01*
X45731533Y-97096762D01*
X45731523Y-97096759D01*
X45502087Y-97038659D01*
X45502086Y-97038658D01*
X45498122Y-97037655D01*
X45494045Y-97037317D01*
X45494044Y-97037317D01*
X45317239Y-97022666D01*
X45317219Y-97022665D01*
X45315214Y-97022499D01*
X44192986Y-97022499D01*
X44190981Y-97022665D01*
X44190960Y-97022666D01*
X44014155Y-97037317D01*
X44014152Y-97037317D01*
X44010078Y-97037655D01*
X44006115Y-97038658D01*
X44006112Y-97038659D01*
X43776676Y-97096759D01*
X43776662Y-97096763D01*
X43772712Y-97097764D01*
X43768971Y-97099404D01*
X43768962Y-97099408D01*
X43552234Y-97194475D01*
X43552229Y-97194477D01*
X43548478Y-97196123D01*
X43545056Y-97198358D01*
X43545048Y-97198363D01*
X43346911Y-97327812D01*
X43346903Y-97327817D01*
X43343490Y-97330048D01*
X43340489Y-97332810D01*
X43340482Y-97332816D01*
X43166355Y-97493111D01*
X43166346Y-97493119D01*
X43163342Y-97495886D01*
X43160829Y-97499113D01*
X43160824Y-97499120D01*
X43015462Y-97685880D01*
X43015454Y-97685890D01*
X43012947Y-97689113D01*
X43011004Y-97692702D01*
X43010997Y-97692714D01*
X42898355Y-97900859D01*
X42898351Y-97900866D01*
X42896407Y-97904460D01*
X42895078Y-97908328D01*
X42895077Y-97908333D01*
X42818229Y-98132183D01*
X42818226Y-98132192D01*
X42816902Y-98136051D01*
X42816230Y-98140077D01*
X42816229Y-98140082D01*
X42777273Y-98373532D01*
X42777272Y-98373541D01*
X42776600Y-98377570D01*
X42776600Y-98622428D01*
X42185994Y-98622428D01*
X42185857Y-96025696D01*
X80512199Y-96025696D01*
X80519597Y-96062886D01*
X80547777Y-96105060D01*
X80589951Y-96133240D01*
X80627141Y-96140638D01*
X83047399Y-96140638D01*
X83052257Y-96140638D01*
X83089447Y-96133240D01*
X83131621Y-96105060D01*
X83159801Y-96062886D01*
X83167199Y-96025696D01*
X83167199Y-93600580D01*
X83159801Y-93563390D01*
X83131621Y-93521216D01*
X83089447Y-93493036D01*
X83065755Y-93488323D01*
X83057019Y-93486585D01*
X83057016Y-93486584D01*
X83052257Y-93485638D01*
X80627141Y-93485638D01*
X80622382Y-93486584D01*
X80622378Y-93486585D01*
X80599512Y-93491134D01*
X80589951Y-93493036D01*
X80581847Y-93498450D01*
X80581844Y-93498452D01*
X80555886Y-93515797D01*
X80555883Y-93515799D01*
X80547777Y-93521216D01*
X80542360Y-93529322D01*
X80542358Y-93529325D01*
X80525013Y-93555283D01*
X80525011Y-93555286D01*
X80519597Y-93563390D01*
X80517695Y-93572950D01*
X80517695Y-93572951D01*
X80514646Y-93588280D01*
X80512199Y-93600580D01*
X80512199Y-96025696D01*
X42185857Y-96025696D01*
X42185814Y-95218000D01*
X59457104Y-95218000D01*
X59458112Y-95225011D01*
X59473590Y-95332666D01*
X59473591Y-95332670D01*
X59474599Y-95339679D01*
X59525666Y-95451501D01*
X59606168Y-95544405D01*
X59612122Y-95548231D01*
X59612124Y-95548233D01*
X59703624Y-95607036D01*
X59709584Y-95610866D01*
X59827535Y-95645500D01*
X59943388Y-95645500D01*
X59950465Y-95645500D01*
X60068416Y-95610866D01*
X60171832Y-95544405D01*
X60252334Y-95451501D01*
X60303401Y-95339679D01*
X60320896Y-95218000D01*
X60303401Y-95096321D01*
X60252334Y-94984499D01*
X60171832Y-94891595D01*
X60165878Y-94887768D01*
X60165875Y-94887766D01*
X60074375Y-94828963D01*
X60074371Y-94828961D01*
X60068416Y-94825134D01*
X60061625Y-94823140D01*
X60061621Y-94823138D01*
X59957254Y-94792493D01*
X59957250Y-94792492D01*
X59950465Y-94790500D01*
X59827535Y-94790500D01*
X59820750Y-94792492D01*
X59820745Y-94792493D01*
X59716378Y-94823138D01*
X59716371Y-94823141D01*
X59709584Y-94825134D01*
X59703630Y-94828959D01*
X59703624Y-94828963D01*
X59612124Y-94887766D01*
X59612118Y-94887771D01*
X59606168Y-94891595D01*
X59601532Y-94896944D01*
X59601531Y-94896946D01*
X59530303Y-94979147D01*
X59530301Y-94979149D01*
X59525666Y-94984499D01*
X59474599Y-95096321D01*
X59473591Y-95103327D01*
X59473590Y-95103333D01*
X59458112Y-95210989D01*
X59457104Y-95218000D01*
X42185814Y-95218000D01*
X42185773Y-94431212D01*
X60183945Y-94431212D01*
X60184953Y-94438223D01*
X60200431Y-94545878D01*
X60200432Y-94545882D01*
X60201440Y-94552891D01*
X60252507Y-94664713D01*
X60333009Y-94757617D01*
X60338963Y-94761443D01*
X60338965Y-94761445D01*
X60384176Y-94790500D01*
X60436425Y-94824078D01*
X60443218Y-94826072D01*
X60443219Y-94826073D01*
X60467343Y-94833156D01*
X60554376Y-94858712D01*
X60670229Y-94858712D01*
X60677306Y-94858712D01*
X60795257Y-94824078D01*
X60898673Y-94757617D01*
X60979175Y-94664713D01*
X61030242Y-94552891D01*
X61047737Y-94431212D01*
X61030242Y-94309533D01*
X60979175Y-94197711D01*
X60898673Y-94104807D01*
X60892719Y-94100980D01*
X60892716Y-94100978D01*
X60801216Y-94042175D01*
X60801212Y-94042173D01*
X60795257Y-94038346D01*
X60788466Y-94036352D01*
X60788462Y-94036350D01*
X60684095Y-94005705D01*
X60684091Y-94005704D01*
X60677306Y-94003712D01*
X60554376Y-94003712D01*
X60547591Y-94005704D01*
X60547586Y-94005705D01*
X60443219Y-94036350D01*
X60443212Y-94036353D01*
X60436425Y-94038346D01*
X60430471Y-94042171D01*
X60430465Y-94042175D01*
X60338965Y-94100978D01*
X60338959Y-94100983D01*
X60333009Y-94104807D01*
X60328373Y-94110156D01*
X60328372Y-94110158D01*
X60257144Y-94192359D01*
X60257142Y-94192361D01*
X60252507Y-94197711D01*
X60249567Y-94204147D01*
X60249566Y-94204150D01*
X60247491Y-94208694D01*
X60201440Y-94309533D01*
X60200432Y-94316539D01*
X60200431Y-94316545D01*
X60184953Y-94424201D01*
X60183945Y-94431212D01*
X42185773Y-94431212D01*
X42185718Y-93392000D01*
X45486770Y-93392000D01*
X45505643Y-93583624D01*
X45507054Y-93588276D01*
X45507055Y-93588280D01*
X45560125Y-93763226D01*
X45561538Y-93767883D01*
X45652306Y-93937698D01*
X45655387Y-93941452D01*
X45655389Y-93941455D01*
X45743915Y-94049323D01*
X45774459Y-94086541D01*
X45923302Y-94208694D01*
X46093117Y-94299462D01*
X46277376Y-94355357D01*
X46469000Y-94374230D01*
X46660624Y-94355357D01*
X46844883Y-94299462D01*
X47014698Y-94208694D01*
X47163541Y-94086541D01*
X47285694Y-93937698D01*
X47376462Y-93767883D01*
X47414952Y-93641000D01*
X57444458Y-93641000D01*
X57464502Y-93767555D01*
X57522674Y-93881723D01*
X57613277Y-93972326D01*
X57727445Y-94030498D01*
X57854000Y-94050542D01*
X57980555Y-94030498D01*
X58094723Y-93972326D01*
X58185326Y-93881723D01*
X58243498Y-93767555D01*
X58263542Y-93641000D01*
X58257255Y-93601306D01*
X58260881Y-93555230D01*
X58285032Y-93515819D01*
X58324443Y-93491668D01*
X58364513Y-93488514D01*
X58364513Y-93488323D01*
X58366940Y-93488323D01*
X58370523Y-93488041D01*
X58380000Y-93489542D01*
X58506555Y-93469498D01*
X58620723Y-93411326D01*
X58711326Y-93320723D01*
X58769498Y-93206555D01*
X58789542Y-93080000D01*
X58769498Y-92953445D01*
X58711326Y-92839277D01*
X58620723Y-92748674D01*
X58520209Y-92697459D01*
X58513499Y-92694040D01*
X58513498Y-92694039D01*
X58506555Y-92690502D01*
X58380000Y-92670458D01*
X58372303Y-92671677D01*
X58261141Y-92689283D01*
X58261140Y-92689283D01*
X58253445Y-92690502D01*
X58246503Y-92694038D01*
X58246500Y-92694040D01*
X58146222Y-92745135D01*
X58146220Y-92745136D01*
X58139277Y-92748674D01*
X58133770Y-92754180D01*
X58133767Y-92754183D01*
X58054183Y-92833767D01*
X58054180Y-92833770D01*
X58048674Y-92839277D01*
X58045136Y-92846220D01*
X58045135Y-92846222D01*
X57994040Y-92946500D01*
X57994038Y-92946503D01*
X57990502Y-92953445D01*
X57970458Y-93080000D01*
X57971677Y-93087697D01*
X57971677Y-93087698D01*
X57976744Y-93119691D01*
X57967174Y-93180120D01*
X57923913Y-93223384D01*
X57869487Y-93232009D01*
X57869487Y-93232677D01*
X57865271Y-93232677D01*
X57863485Y-93232960D01*
X57861697Y-93232677D01*
X57854000Y-93231458D01*
X57846303Y-93232677D01*
X57735141Y-93250283D01*
X57735140Y-93250283D01*
X57727445Y-93251502D01*
X57720503Y-93255038D01*
X57720500Y-93255040D01*
X57620222Y-93306135D01*
X57620220Y-93306136D01*
X57613277Y-93309674D01*
X57607770Y-93315180D01*
X57607767Y-93315183D01*
X57528183Y-93394767D01*
X57528180Y-93394770D01*
X57522674Y-93400277D01*
X57519136Y-93407220D01*
X57519135Y-93407222D01*
X57468040Y-93507500D01*
X57468038Y-93507503D01*
X57464502Y-93514445D01*
X57444458Y-93641000D01*
X47414952Y-93641000D01*
X47432357Y-93583624D01*
X47451230Y-93392000D01*
X47432357Y-93200376D01*
X47376462Y-93016117D01*
X47285694Y-92846302D01*
X47173833Y-92710000D01*
X49307104Y-92710000D01*
X49308112Y-92717011D01*
X49323590Y-92824666D01*
X49323591Y-92824670D01*
X49324599Y-92831679D01*
X49375666Y-92943501D01*
X49456168Y-93036405D01*
X49462122Y-93040231D01*
X49462124Y-93040233D01*
X49535980Y-93087697D01*
X49559584Y-93102866D01*
X49677535Y-93137500D01*
X49793388Y-93137500D01*
X49800465Y-93137500D01*
X49918416Y-93102866D01*
X50021832Y-93036405D01*
X50102334Y-92943501D01*
X50153401Y-92831679D01*
X50170896Y-92710000D01*
X50153401Y-92588321D01*
X50102334Y-92476499D01*
X50021832Y-92383595D01*
X50015878Y-92379768D01*
X50015875Y-92379766D01*
X49924375Y-92320963D01*
X49924371Y-92320961D01*
X49918416Y-92317134D01*
X49911625Y-92315140D01*
X49911621Y-92315138D01*
X49807254Y-92284493D01*
X49807250Y-92284492D01*
X49800465Y-92282500D01*
X49677535Y-92282500D01*
X49670750Y-92284492D01*
X49670745Y-92284493D01*
X49566378Y-92315138D01*
X49566371Y-92315141D01*
X49559584Y-92317134D01*
X49553630Y-92320959D01*
X49553624Y-92320963D01*
X49462124Y-92379766D01*
X49462118Y-92379771D01*
X49456168Y-92383595D01*
X49451532Y-92388944D01*
X49451531Y-92388946D01*
X49380303Y-92471147D01*
X49380301Y-92471149D01*
X49375666Y-92476499D01*
X49372726Y-92482935D01*
X49372725Y-92482938D01*
X49327541Y-92581878D01*
X49324599Y-92588321D01*
X49323591Y-92595327D01*
X49323590Y-92595333D01*
X49312789Y-92670458D01*
X49307104Y-92710000D01*
X47173833Y-92710000D01*
X47163541Y-92697459D01*
X47132126Y-92671677D01*
X47018455Y-92578389D01*
X47018452Y-92578387D01*
X47014698Y-92575306D01*
X46844883Y-92484538D01*
X46840228Y-92483126D01*
X46840226Y-92483125D01*
X46665280Y-92430055D01*
X46665276Y-92430054D01*
X46660624Y-92428643D01*
X46469000Y-92409770D01*
X46464157Y-92410247D01*
X46282218Y-92428166D01*
X46282216Y-92428166D01*
X46277376Y-92428643D01*
X46272725Y-92430053D01*
X46272719Y-92430055D01*
X46097773Y-92483125D01*
X46097767Y-92483127D01*
X46093117Y-92484538D01*
X46088829Y-92486829D01*
X46088824Y-92486832D01*
X45927589Y-92573014D01*
X45927584Y-92573016D01*
X45923302Y-92575306D01*
X45919551Y-92578384D01*
X45919544Y-92578389D01*
X45778223Y-92694369D01*
X45778217Y-92694374D01*
X45774459Y-92697459D01*
X45771374Y-92701217D01*
X45771369Y-92701223D01*
X45655389Y-92842544D01*
X45655384Y-92842551D01*
X45652306Y-92846302D01*
X45650016Y-92850584D01*
X45650014Y-92850589D01*
X45563832Y-93011824D01*
X45563829Y-93011829D01*
X45561538Y-93016117D01*
X45560127Y-93020767D01*
X45560125Y-93020773D01*
X45507055Y-93195719D01*
X45507053Y-93195725D01*
X45505643Y-93200376D01*
X45505166Y-93205216D01*
X45505166Y-93205218D01*
X45503377Y-93223384D01*
X45486770Y-93392000D01*
X42185718Y-93392000D01*
X42185595Y-91050000D01*
X59388104Y-91050000D01*
X59389112Y-91057011D01*
X59404590Y-91164666D01*
X59404591Y-91164670D01*
X59405599Y-91171679D01*
X59456666Y-91283501D01*
X59537168Y-91376405D01*
X59543122Y-91380231D01*
X59543124Y-91380233D01*
X59618925Y-91428947D01*
X59640584Y-91442866D01*
X59758535Y-91477500D01*
X59874388Y-91477500D01*
X59881465Y-91477500D01*
X59999416Y-91442866D01*
X60102832Y-91376405D01*
X60117768Y-91359167D01*
X60164695Y-91329008D01*
X60220481Y-91329009D01*
X60263388Y-91356586D01*
X60263612Y-91356328D01*
X60265408Y-91357884D01*
X60267407Y-91359169D01*
X60273600Y-91366316D01*
X60279554Y-91370142D01*
X60279556Y-91370144D01*
X60295255Y-91380233D01*
X60377016Y-91432777D01*
X60494967Y-91467411D01*
X60610820Y-91467411D01*
X60617897Y-91467411D01*
X60735848Y-91432777D01*
X60839264Y-91366316D01*
X60885343Y-91313138D01*
X80507128Y-91313138D01*
X80507505Y-91317447D01*
X80526996Y-91540236D01*
X80526997Y-91540243D01*
X80527373Y-91544537D01*
X80528487Y-91548698D01*
X80528489Y-91548704D01*
X80586373Y-91764731D01*
X80586376Y-91764739D01*
X80587492Y-91768904D01*
X80589317Y-91772818D01*
X80589319Y-91772823D01*
X80683828Y-91975499D01*
X80683831Y-91975505D01*
X80685659Y-91979424D01*
X80688139Y-91982967D01*
X80688141Y-91982969D01*
X80816410Y-92166157D01*
X80816413Y-92166161D01*
X80818890Y-92169698D01*
X80983139Y-92333947D01*
X81173413Y-92467178D01*
X81177335Y-92469006D01*
X81177337Y-92469008D01*
X81215561Y-92486832D01*
X81383933Y-92565345D01*
X81608300Y-92625464D01*
X81839699Y-92645709D01*
X82071098Y-92625464D01*
X82295465Y-92565345D01*
X82505985Y-92467178D01*
X82696259Y-92333947D01*
X82860508Y-92169698D01*
X82993739Y-91979424D01*
X83091906Y-91768904D01*
X83152025Y-91544537D01*
X83172270Y-91313138D01*
X83152025Y-91081739D01*
X83091906Y-90857372D01*
X83024820Y-90713506D01*
X82995569Y-90650777D01*
X82995567Y-90650775D01*
X82993739Y-90646853D01*
X82959259Y-90597610D01*
X82862987Y-90460118D01*
X82862985Y-90460115D01*
X82860508Y-90456578D01*
X82696259Y-90292329D01*
X82692722Y-90289852D01*
X82692718Y-90289849D01*
X82509530Y-90161580D01*
X82509528Y-90161578D01*
X82505985Y-90159098D01*
X82502066Y-90157270D01*
X82502060Y-90157267D01*
X82299384Y-90062758D01*
X82299379Y-90062756D01*
X82295465Y-90060931D01*
X82291300Y-90059815D01*
X82291292Y-90059812D01*
X82075265Y-90001928D01*
X82075259Y-90001926D01*
X82071098Y-90000812D01*
X82066804Y-90000436D01*
X82066797Y-90000435D01*
X81844008Y-89980944D01*
X81839699Y-89980567D01*
X81835390Y-89980944D01*
X81612600Y-90000435D01*
X81612591Y-90000436D01*
X81608300Y-90000812D01*
X81604140Y-90001926D01*
X81604132Y-90001928D01*
X81388105Y-90059812D01*
X81388093Y-90059816D01*
X81383933Y-90060931D01*
X81380022Y-90062754D01*
X81380013Y-90062758D01*
X81177338Y-90157267D01*
X81177327Y-90157273D01*
X81173414Y-90159098D01*
X81169875Y-90161575D01*
X81169868Y-90161580D01*
X80986679Y-90289849D01*
X80986669Y-90289856D01*
X80983139Y-90292329D01*
X80980091Y-90295376D01*
X80980085Y-90295382D01*
X80821943Y-90453524D01*
X80821937Y-90453530D01*
X80818890Y-90456578D01*
X80816417Y-90460108D01*
X80816410Y-90460118D01*
X80688141Y-90643307D01*
X80688136Y-90643314D01*
X80685659Y-90646853D01*
X80683834Y-90650766D01*
X80683828Y-90650777D01*
X80589319Y-90853452D01*
X80589315Y-90853461D01*
X80587492Y-90857372D01*
X80586377Y-90861532D01*
X80586373Y-90861544D01*
X80528489Y-91077571D01*
X80528487Y-91077579D01*
X80527373Y-91081739D01*
X80526997Y-91086030D01*
X80526996Y-91086039D01*
X80510284Y-91277061D01*
X80507128Y-91313138D01*
X60885343Y-91313138D01*
X60919766Y-91273412D01*
X60970833Y-91161590D01*
X60988328Y-91039911D01*
X60970833Y-90918232D01*
X60919766Y-90806410D01*
X60839264Y-90713506D01*
X60833310Y-90709679D01*
X60833307Y-90709677D01*
X60741807Y-90650874D01*
X60741803Y-90650872D01*
X60735848Y-90647045D01*
X60729057Y-90645051D01*
X60729053Y-90645049D01*
X60624686Y-90614404D01*
X60624682Y-90614403D01*
X60617897Y-90612411D01*
X60494967Y-90612411D01*
X60488182Y-90614403D01*
X60488177Y-90614404D01*
X60383810Y-90645049D01*
X60383803Y-90645052D01*
X60377016Y-90647045D01*
X60371062Y-90650870D01*
X60371056Y-90650874D01*
X60279556Y-90709677D01*
X60279550Y-90709682D01*
X60273600Y-90713506D01*
X60268964Y-90718855D01*
X60268964Y-90718856D01*
X60258661Y-90730746D01*
X60211731Y-90760903D01*
X60155947Y-90760900D01*
X60113043Y-90733324D01*
X60112820Y-90733583D01*
X60111022Y-90732025D01*
X60109023Y-90730740D01*
X60102832Y-90723595D01*
X60096878Y-90719768D01*
X60096875Y-90719766D01*
X60005375Y-90660963D01*
X60005371Y-90660961D01*
X59999416Y-90657134D01*
X59992625Y-90655140D01*
X59992621Y-90655138D01*
X59888254Y-90624493D01*
X59888250Y-90624492D01*
X59881465Y-90622500D01*
X59758535Y-90622500D01*
X59751750Y-90624492D01*
X59751745Y-90624493D01*
X59647378Y-90655138D01*
X59647371Y-90655141D01*
X59640584Y-90657134D01*
X59634630Y-90660959D01*
X59634624Y-90660963D01*
X59543124Y-90719766D01*
X59543118Y-90719771D01*
X59537168Y-90723595D01*
X59532532Y-90728944D01*
X59532531Y-90728946D01*
X59461303Y-90811147D01*
X59461301Y-90811149D01*
X59456666Y-90816499D01*
X59453726Y-90822935D01*
X59453725Y-90822938D01*
X59410206Y-90918232D01*
X59405599Y-90928321D01*
X59404591Y-90935327D01*
X59404590Y-90935333D01*
X59390563Y-91032900D01*
X59388104Y-91050000D01*
X42185595Y-91050000D01*
X42185528Y-89784000D01*
X45485770Y-89784000D01*
X45504643Y-89975624D01*
X45506054Y-89980276D01*
X45506055Y-89980280D01*
X45512622Y-90001928D01*
X45560538Y-90159883D01*
X45651306Y-90329698D01*
X45654387Y-90333452D01*
X45654389Y-90333455D01*
X45770369Y-90474776D01*
X45773459Y-90478541D01*
X45922302Y-90600694D01*
X46092117Y-90691462D01*
X46276376Y-90747357D01*
X46468000Y-90766230D01*
X46659624Y-90747357D01*
X46843883Y-90691462D01*
X47013698Y-90600694D01*
X47162541Y-90478541D01*
X47284694Y-90329698D01*
X47375462Y-90159883D01*
X47431357Y-89975624D01*
X47450230Y-89784000D01*
X47431357Y-89592376D01*
X47375462Y-89408117D01*
X47284694Y-89238302D01*
X47162541Y-89089459D01*
X47013698Y-88967306D01*
X46843883Y-88876538D01*
X46839228Y-88875126D01*
X46839226Y-88875125D01*
X46673988Y-88825000D01*
X48861104Y-88825000D01*
X48862112Y-88832011D01*
X48877590Y-88939666D01*
X48877591Y-88939670D01*
X48878599Y-88946679D01*
X48929666Y-89058501D01*
X49010168Y-89151405D01*
X49016122Y-89155231D01*
X49016124Y-89155233D01*
X49107624Y-89214036D01*
X49113584Y-89217866D01*
X49231535Y-89252500D01*
X49347388Y-89252500D01*
X49354465Y-89252500D01*
X49472416Y-89217866D01*
X49575832Y-89151405D01*
X49656334Y-89058501D01*
X49707401Y-88946679D01*
X49724896Y-88825000D01*
X49707401Y-88703321D01*
X49656334Y-88591499D01*
X49575832Y-88498595D01*
X49569878Y-88494768D01*
X49569875Y-88494766D01*
X49478375Y-88435963D01*
X49478371Y-88435961D01*
X49472416Y-88432134D01*
X49465625Y-88430140D01*
X49465621Y-88430138D01*
X49361254Y-88399493D01*
X49361250Y-88399492D01*
X49354465Y-88397500D01*
X49231535Y-88397500D01*
X49224750Y-88399492D01*
X49224745Y-88399493D01*
X49120378Y-88430138D01*
X49120371Y-88430141D01*
X49113584Y-88432134D01*
X49107630Y-88435959D01*
X49107624Y-88435963D01*
X49016124Y-88494766D01*
X49016118Y-88494771D01*
X49010168Y-88498595D01*
X49005532Y-88503944D01*
X49005531Y-88503946D01*
X48934303Y-88586147D01*
X48934301Y-88586149D01*
X48929666Y-88591499D01*
X48878599Y-88703321D01*
X48877591Y-88710327D01*
X48877590Y-88710333D01*
X48864444Y-88801770D01*
X48861104Y-88825000D01*
X46673988Y-88825000D01*
X46664280Y-88822055D01*
X46664276Y-88822054D01*
X46659624Y-88820643D01*
X46468000Y-88801770D01*
X46463157Y-88802247D01*
X46281218Y-88820166D01*
X46281216Y-88820166D01*
X46276376Y-88820643D01*
X46271725Y-88822053D01*
X46271719Y-88822055D01*
X46096773Y-88875125D01*
X46096767Y-88875127D01*
X46092117Y-88876538D01*
X46087829Y-88878829D01*
X46087824Y-88878832D01*
X45926589Y-88965014D01*
X45926584Y-88965016D01*
X45922302Y-88967306D01*
X45918551Y-88970384D01*
X45918544Y-88970389D01*
X45777223Y-89086369D01*
X45777217Y-89086374D01*
X45773459Y-89089459D01*
X45770374Y-89093217D01*
X45770369Y-89093223D01*
X45654389Y-89234544D01*
X45654384Y-89234551D01*
X45651306Y-89238302D01*
X45649016Y-89242584D01*
X45649014Y-89242589D01*
X45562832Y-89403824D01*
X45562829Y-89403829D01*
X45560538Y-89408117D01*
X45559127Y-89412767D01*
X45559125Y-89412773D01*
X45506055Y-89587719D01*
X45506053Y-89587725D01*
X45504643Y-89592376D01*
X45485770Y-89784000D01*
X42185528Y-89784000D01*
X42185409Y-87525000D01*
X47079458Y-87525000D01*
X47099502Y-87651555D01*
X47157674Y-87765723D01*
X47248277Y-87856326D01*
X47362445Y-87914498D01*
X47489000Y-87934542D01*
X47615555Y-87914498D01*
X47729723Y-87856326D01*
X47820326Y-87765723D01*
X47878498Y-87651555D01*
X47898542Y-87525000D01*
X47897592Y-87519000D01*
X48234458Y-87519000D01*
X48254502Y-87645555D01*
X48312674Y-87759723D01*
X48403277Y-87850326D01*
X48517445Y-87908498D01*
X48644000Y-87928542D01*
X48770555Y-87908498D01*
X48884723Y-87850326D01*
X48975326Y-87759723D01*
X49033498Y-87645555D01*
X49053542Y-87519000D01*
X49033498Y-87392445D01*
X48975326Y-87278277D01*
X48910553Y-87213504D01*
X48884930Y-87169123D01*
X48884930Y-87117877D01*
X48910553Y-87073496D01*
X48912553Y-87071496D01*
X48977326Y-87006723D01*
X49035498Y-86892555D01*
X49054275Y-86774000D01*
X49291458Y-86774000D01*
X49311502Y-86900555D01*
X49369674Y-87014723D01*
X49375183Y-87020232D01*
X49429947Y-87074996D01*
X49455570Y-87119377D01*
X49455570Y-87170623D01*
X49429947Y-87215004D01*
X49376183Y-87268767D01*
X49376180Y-87268770D01*
X49370674Y-87274277D01*
X49367136Y-87281220D01*
X49367135Y-87281222D01*
X49316040Y-87381500D01*
X49316038Y-87381503D01*
X49312502Y-87388445D01*
X49311283Y-87396140D01*
X49311283Y-87396141D01*
X49310333Y-87402141D01*
X49292458Y-87515000D01*
X49312502Y-87641555D01*
X49316039Y-87648498D01*
X49316040Y-87648499D01*
X49317597Y-87651555D01*
X49370674Y-87755723D01*
X49461277Y-87846326D01*
X49575445Y-87904498D01*
X49702000Y-87924542D01*
X49828555Y-87904498D01*
X49942723Y-87846326D01*
X50033326Y-87755723D01*
X50091498Y-87641555D01*
X50110592Y-87521000D01*
X50442458Y-87521000D01*
X50462502Y-87647555D01*
X50520674Y-87761723D01*
X50611277Y-87852326D01*
X50725445Y-87910498D01*
X50852000Y-87930542D01*
X50978555Y-87910498D01*
X51028597Y-87885000D01*
X60851458Y-87885000D01*
X60871502Y-88011555D01*
X60929674Y-88125723D01*
X61020277Y-88216326D01*
X61134445Y-88274498D01*
X61261000Y-88294542D01*
X61387555Y-88274498D01*
X61501723Y-88216326D01*
X61592326Y-88125723D01*
X61650498Y-88011555D01*
X61670542Y-87885000D01*
X61650498Y-87758445D01*
X61592326Y-87644277D01*
X61501723Y-87553674D01*
X61387555Y-87495502D01*
X61261000Y-87475458D01*
X61253303Y-87476677D01*
X61142141Y-87494283D01*
X61142140Y-87494283D01*
X61134445Y-87495502D01*
X61127503Y-87499038D01*
X61127500Y-87499040D01*
X61027222Y-87550135D01*
X61027220Y-87550136D01*
X61020277Y-87553674D01*
X61014770Y-87559180D01*
X61014767Y-87559183D01*
X60935183Y-87638767D01*
X60935180Y-87638770D01*
X60929674Y-87644277D01*
X60926136Y-87651220D01*
X60926135Y-87651222D01*
X60875040Y-87751500D01*
X60875038Y-87751503D01*
X60871502Y-87758445D01*
X60851458Y-87885000D01*
X51028597Y-87885000D01*
X51092723Y-87852326D01*
X51183326Y-87761723D01*
X51241498Y-87647555D01*
X51261542Y-87521000D01*
X51241498Y-87394445D01*
X51183326Y-87280277D01*
X51122053Y-87219004D01*
X51096430Y-87174623D01*
X51096430Y-87123377D01*
X51122053Y-87078996D01*
X51129553Y-87071496D01*
X51190326Y-87010723D01*
X51248498Y-86896555D01*
X51268542Y-86770000D01*
X51248498Y-86643445D01*
X51211939Y-86571694D01*
X80485893Y-86571694D01*
X80493291Y-86608884D01*
X80498706Y-86616988D01*
X80498707Y-86616990D01*
X80513711Y-86639445D01*
X80521471Y-86651058D01*
X80563645Y-86679238D01*
X80600835Y-86686636D01*
X83021093Y-86686636D01*
X83025951Y-86686636D01*
X83063141Y-86679238D01*
X83105315Y-86651058D01*
X83133495Y-86608884D01*
X83140893Y-86571694D01*
X83140893Y-84146578D01*
X83133495Y-84109388D01*
X83105315Y-84067214D01*
X83063141Y-84039034D01*
X83046870Y-84035797D01*
X83030713Y-84032583D01*
X83030710Y-84032582D01*
X83025951Y-84031636D01*
X80600835Y-84031636D01*
X80596076Y-84032582D01*
X80596072Y-84032583D01*
X80573206Y-84037132D01*
X80563645Y-84039034D01*
X80555541Y-84044448D01*
X80555538Y-84044450D01*
X80529580Y-84061795D01*
X80529577Y-84061797D01*
X80521471Y-84067214D01*
X80516054Y-84075320D01*
X80516052Y-84075323D01*
X80498707Y-84101281D01*
X80498705Y-84101284D01*
X80493291Y-84109388D01*
X80485893Y-84146578D01*
X80485893Y-86571694D01*
X51211939Y-86571694D01*
X51190326Y-86529277D01*
X51099723Y-86438674D01*
X51000349Y-86388040D01*
X50992499Y-86384040D01*
X50992498Y-86384039D01*
X50985555Y-86380502D01*
X50891952Y-86365677D01*
X50866697Y-86361677D01*
X50859000Y-86360458D01*
X50851303Y-86361677D01*
X50740141Y-86379283D01*
X50740140Y-86379283D01*
X50732445Y-86380502D01*
X50725503Y-86384038D01*
X50725500Y-86384040D01*
X50625222Y-86435135D01*
X50625220Y-86435136D01*
X50618277Y-86438674D01*
X50612770Y-86444180D01*
X50612767Y-86444183D01*
X50533183Y-86523767D01*
X50533180Y-86523770D01*
X50527674Y-86529277D01*
X50524136Y-86536220D01*
X50524135Y-86536222D01*
X50473040Y-86636500D01*
X50473038Y-86636503D01*
X50469502Y-86643445D01*
X50468283Y-86651140D01*
X50468283Y-86651141D01*
X50464691Y-86673821D01*
X50449458Y-86770000D01*
X50469502Y-86896555D01*
X50473039Y-86903498D01*
X50473040Y-86903499D01*
X50497268Y-86951049D01*
X50527674Y-87010723D01*
X50533183Y-87016232D01*
X50588947Y-87071996D01*
X50614570Y-87116377D01*
X50614570Y-87167623D01*
X50588947Y-87212004D01*
X50526183Y-87274767D01*
X50526180Y-87274770D01*
X50520674Y-87280277D01*
X50517136Y-87287220D01*
X50517135Y-87287222D01*
X50466040Y-87387500D01*
X50466038Y-87387503D01*
X50462502Y-87394445D01*
X50461283Y-87402140D01*
X50461283Y-87402141D01*
X50449671Y-87475458D01*
X50442458Y-87521000D01*
X50110592Y-87521000D01*
X50111542Y-87515000D01*
X50091498Y-87388445D01*
X50033326Y-87274277D01*
X49973053Y-87214004D01*
X49947430Y-87169623D01*
X49947430Y-87118377D01*
X49973053Y-87073996D01*
X49975553Y-87071496D01*
X50032326Y-87014723D01*
X50090498Y-86900555D01*
X50110542Y-86774000D01*
X50090498Y-86647445D01*
X50032326Y-86533277D01*
X49941723Y-86442674D01*
X49882049Y-86412268D01*
X49834499Y-86388040D01*
X49834498Y-86388039D01*
X49827555Y-86384502D01*
X49764277Y-86374480D01*
X49708697Y-86365677D01*
X49701000Y-86364458D01*
X49693303Y-86365677D01*
X49582141Y-86383283D01*
X49582140Y-86383283D01*
X49574445Y-86384502D01*
X49567503Y-86388038D01*
X49567500Y-86388040D01*
X49467222Y-86439135D01*
X49467220Y-86439136D01*
X49460277Y-86442674D01*
X49454770Y-86448180D01*
X49454767Y-86448183D01*
X49375183Y-86527767D01*
X49375180Y-86527770D01*
X49369674Y-86533277D01*
X49366136Y-86540220D01*
X49366135Y-86540222D01*
X49315040Y-86640500D01*
X49315038Y-86640503D01*
X49311502Y-86647445D01*
X49310283Y-86655140D01*
X49310283Y-86655141D01*
X49306165Y-86681139D01*
X49291458Y-86774000D01*
X49054275Y-86774000D01*
X49055542Y-86766000D01*
X49035498Y-86639445D01*
X48977326Y-86525277D01*
X48886723Y-86434674D01*
X48810900Y-86396040D01*
X48779499Y-86380040D01*
X48779498Y-86380039D01*
X48772555Y-86376502D01*
X48709277Y-86366480D01*
X48653697Y-86357677D01*
X48646000Y-86356458D01*
X48638303Y-86357677D01*
X48527141Y-86375283D01*
X48527140Y-86375283D01*
X48519445Y-86376502D01*
X48512503Y-86380038D01*
X48512500Y-86380040D01*
X48412222Y-86431135D01*
X48412220Y-86431136D01*
X48405277Y-86434674D01*
X48399770Y-86440180D01*
X48399767Y-86440183D01*
X48320183Y-86519767D01*
X48320180Y-86519770D01*
X48314674Y-86525277D01*
X48311136Y-86532220D01*
X48311135Y-86532222D01*
X48260040Y-86632500D01*
X48260038Y-86632503D01*
X48256502Y-86639445D01*
X48255283Y-86647140D01*
X48255283Y-86647141D01*
X48249898Y-86681139D01*
X48236458Y-86766000D01*
X48256502Y-86892555D01*
X48260039Y-86899498D01*
X48260040Y-86899499D01*
X48262078Y-86903499D01*
X48314674Y-87006723D01*
X48320182Y-87012231D01*
X48320183Y-87012232D01*
X48379447Y-87071496D01*
X48405070Y-87115877D01*
X48405070Y-87167123D01*
X48379447Y-87211504D01*
X48318183Y-87272767D01*
X48318180Y-87272770D01*
X48312674Y-87278277D01*
X48309136Y-87285220D01*
X48309135Y-87285222D01*
X48258040Y-87385500D01*
X48258038Y-87385503D01*
X48254502Y-87392445D01*
X48234458Y-87519000D01*
X47897592Y-87519000D01*
X47878498Y-87398445D01*
X47820326Y-87284277D01*
X47761552Y-87225503D01*
X47735930Y-87181123D01*
X47735930Y-87129877D01*
X47761553Y-87085496D01*
X47775553Y-87071496D01*
X47824326Y-87022723D01*
X47882498Y-86908555D01*
X47902542Y-86782000D01*
X47882498Y-86655445D01*
X47824326Y-86541277D01*
X47733723Y-86450674D01*
X47619555Y-86392502D01*
X47536092Y-86379283D01*
X47500697Y-86373677D01*
X47493000Y-86372458D01*
X47485303Y-86373677D01*
X47374141Y-86391283D01*
X47374140Y-86391283D01*
X47366445Y-86392502D01*
X47359503Y-86396038D01*
X47359500Y-86396040D01*
X47259222Y-86447135D01*
X47259220Y-86447136D01*
X47252277Y-86450674D01*
X47246770Y-86456180D01*
X47246767Y-86456183D01*
X47167183Y-86535767D01*
X47167180Y-86535770D01*
X47161674Y-86541277D01*
X47158136Y-86548220D01*
X47158135Y-86548222D01*
X47107040Y-86648500D01*
X47107038Y-86648503D01*
X47103502Y-86655445D01*
X47102283Y-86663140D01*
X47102283Y-86663141D01*
X47098712Y-86685688D01*
X47083458Y-86782000D01*
X47103502Y-86908555D01*
X47161674Y-87022723D01*
X47167183Y-87028232D01*
X47220447Y-87081496D01*
X47246070Y-87125877D01*
X47246070Y-87177123D01*
X47220447Y-87221504D01*
X47163183Y-87278767D01*
X47163180Y-87278770D01*
X47157674Y-87284277D01*
X47154136Y-87291220D01*
X47154135Y-87291222D01*
X47103040Y-87391500D01*
X47103038Y-87391503D01*
X47099502Y-87398445D01*
X47098283Y-87406140D01*
X47098283Y-87406141D01*
X47087111Y-87476677D01*
X47079458Y-87525000D01*
X42185409Y-87525000D01*
X42185306Y-85571000D01*
X44066458Y-85571000D01*
X44086502Y-85697555D01*
X44144674Y-85811723D01*
X44235277Y-85902326D01*
X44349445Y-85960498D01*
X44476000Y-85980542D01*
X44602555Y-85960498D01*
X44716723Y-85902326D01*
X44807326Y-85811723D01*
X44860176Y-85708000D01*
X60783458Y-85708000D01*
X60803502Y-85834555D01*
X60861674Y-85948723D01*
X60952277Y-86039326D01*
X61066445Y-86097498D01*
X61193000Y-86117542D01*
X61319555Y-86097498D01*
X61433723Y-86039326D01*
X61524326Y-85948723D01*
X61582498Y-85834555D01*
X61602542Y-85708000D01*
X61582498Y-85581445D01*
X61524326Y-85467277D01*
X61433723Y-85376674D01*
X61319555Y-85318502D01*
X61193000Y-85298458D01*
X61185303Y-85299677D01*
X61074141Y-85317283D01*
X61074140Y-85317283D01*
X61066445Y-85318502D01*
X61059503Y-85322038D01*
X61059500Y-85322040D01*
X60959222Y-85373135D01*
X60959220Y-85373136D01*
X60952277Y-85376674D01*
X60946770Y-85382180D01*
X60946767Y-85382183D01*
X60867183Y-85461767D01*
X60867180Y-85461770D01*
X60861674Y-85467277D01*
X60858136Y-85474220D01*
X60858135Y-85474222D01*
X60807040Y-85574500D01*
X60807038Y-85574503D01*
X60803502Y-85581445D01*
X60783458Y-85708000D01*
X44860176Y-85708000D01*
X44865498Y-85697555D01*
X44885542Y-85571000D01*
X44865498Y-85444445D01*
X44807326Y-85330277D01*
X44716723Y-85239674D01*
X44602555Y-85181502D01*
X44476000Y-85161458D01*
X44468303Y-85162677D01*
X44357141Y-85180283D01*
X44357140Y-85180283D01*
X44349445Y-85181502D01*
X44342503Y-85185038D01*
X44342500Y-85185040D01*
X44242222Y-85236135D01*
X44242220Y-85236136D01*
X44235277Y-85239674D01*
X44229770Y-85245180D01*
X44229767Y-85245183D01*
X44150183Y-85324767D01*
X44150180Y-85324770D01*
X44144674Y-85330277D01*
X44141136Y-85337220D01*
X44141135Y-85337222D01*
X44090040Y-85437500D01*
X44090038Y-85437503D01*
X44086502Y-85444445D01*
X44085283Y-85452140D01*
X44085283Y-85452141D01*
X44082886Y-85467277D01*
X44066458Y-85571000D01*
X42185306Y-85571000D01*
X42185270Y-84887000D01*
X47307458Y-84887000D01*
X47327502Y-85013555D01*
X47385674Y-85127723D01*
X47476277Y-85218326D01*
X47590445Y-85276498D01*
X47717000Y-85296542D01*
X47843555Y-85276498D01*
X47897055Y-85249237D01*
X47942000Y-85238447D01*
X47986944Y-85249237D01*
X48040445Y-85276498D01*
X48167000Y-85296542D01*
X48293555Y-85276498D01*
X48407723Y-85218326D01*
X48498326Y-85127723D01*
X48556498Y-85013555D01*
X48576542Y-84887000D01*
X48556498Y-84760445D01*
X48528866Y-84706216D01*
X48501863Y-84653218D01*
X48501861Y-84653216D01*
X48498326Y-84646277D01*
X48493393Y-84641344D01*
X48474708Y-84587454D01*
X48489222Y-84531841D01*
X48532186Y-84493664D01*
X48589116Y-84485790D01*
X48657000Y-84496542D01*
X48783555Y-84476498D01*
X48897723Y-84418326D01*
X48988326Y-84327723D01*
X49046498Y-84213555D01*
X49066542Y-84087000D01*
X49267458Y-84087000D01*
X49287502Y-84213555D01*
X49345674Y-84327723D01*
X49436277Y-84418326D01*
X49550445Y-84476498D01*
X49677000Y-84496542D01*
X49722280Y-84489370D01*
X49779211Y-84497244D01*
X49822175Y-84535420D01*
X49836690Y-84591031D01*
X49818526Y-84643424D01*
X49815673Y-84646278D01*
X49812138Y-84653214D01*
X49812134Y-84653221D01*
X49761039Y-84753501D01*
X49761037Y-84753504D01*
X49757501Y-84760446D01*
X49737457Y-84887001D01*
X49757501Y-85013556D01*
X49815673Y-85127724D01*
X49906276Y-85218327D01*
X50020444Y-85276499D01*
X50146999Y-85296543D01*
X50273554Y-85276499D01*
X50327054Y-85249238D01*
X50371999Y-85238448D01*
X50416943Y-85249238D01*
X50470444Y-85276499D01*
X50596999Y-85296543D01*
X50723554Y-85276499D01*
X50837722Y-85218327D01*
X50928325Y-85127724D01*
X50986497Y-85013556D01*
X51006541Y-84887001D01*
X50986497Y-84760446D01*
X50928325Y-84646278D01*
X50837722Y-84555675D01*
X50723554Y-84497503D01*
X50596999Y-84477459D01*
X50589302Y-84478678D01*
X50478138Y-84496284D01*
X50478135Y-84496284D01*
X50470444Y-84497503D01*
X50463506Y-84501038D01*
X50463500Y-84501040D01*
X50416943Y-84524762D01*
X50371999Y-84535552D01*
X50327055Y-84524762D01*
X50280497Y-84501040D01*
X50280493Y-84501038D01*
X50273554Y-84497503D01*
X50265860Y-84496284D01*
X50265859Y-84496284D01*
X50154696Y-84478678D01*
X50146999Y-84477459D01*
X50139302Y-84478678D01*
X50139301Y-84478678D01*
X50101718Y-84484630D01*
X50044784Y-84476755D01*
X50001820Y-84438576D01*
X49987308Y-84382962D01*
X50005474Y-84330574D01*
X50008326Y-84327723D01*
X50066498Y-84213555D01*
X50086542Y-84087000D01*
X50066498Y-83960445D01*
X50054043Y-83936000D01*
X52920458Y-83936000D01*
X52940502Y-84062555D01*
X52944039Y-84069498D01*
X52944040Y-84069499D01*
X52952957Y-84087000D01*
X52998674Y-84176723D01*
X53089277Y-84267326D01*
X53203445Y-84325498D01*
X53330000Y-84345542D01*
X53456555Y-84325498D01*
X53570723Y-84267326D01*
X53661326Y-84176723D01*
X53719498Y-84062555D01*
X53724654Y-84030000D01*
X57860458Y-84030000D01*
X57880502Y-84156555D01*
X57938674Y-84270723D01*
X58029277Y-84361326D01*
X58143445Y-84419498D01*
X58270000Y-84439542D01*
X58396555Y-84419498D01*
X58510723Y-84361326D01*
X58601326Y-84270723D01*
X58659498Y-84156555D01*
X58679542Y-84030000D01*
X58661486Y-83916000D01*
X59040458Y-83916000D01*
X59060502Y-84042555D01*
X59064039Y-84049498D01*
X59064040Y-84049499D01*
X59073066Y-84067214D01*
X59118674Y-84156723D01*
X59209277Y-84247326D01*
X59323445Y-84305498D01*
X59450000Y-84325542D01*
X59576555Y-84305498D01*
X59690723Y-84247326D01*
X59781326Y-84156723D01*
X59839498Y-84042555D01*
X59859542Y-83916000D01*
X59851330Y-83864152D01*
X59854956Y-83818076D01*
X59879107Y-83778665D01*
X59918518Y-83754513D01*
X59964597Y-83750887D01*
X59994001Y-83755544D01*
X60120556Y-83735500D01*
X60234724Y-83677328D01*
X60325327Y-83586725D01*
X60383499Y-83472557D01*
X60403543Y-83346002D01*
X60383499Y-83219447D01*
X60325327Y-83105279D01*
X60234724Y-83014676D01*
X60120556Y-82956504D01*
X59994001Y-82936460D01*
X59986304Y-82937679D01*
X59875142Y-82955285D01*
X59875141Y-82955285D01*
X59867446Y-82956504D01*
X59860504Y-82960040D01*
X59860501Y-82960042D01*
X59760223Y-83011137D01*
X59760221Y-83011138D01*
X59753278Y-83014676D01*
X59747771Y-83020182D01*
X59747768Y-83020185D01*
X59668184Y-83099769D01*
X59668181Y-83099772D01*
X59662675Y-83105279D01*
X59659137Y-83112222D01*
X59659136Y-83112224D01*
X59608041Y-83212502D01*
X59608039Y-83212505D01*
X59604503Y-83219447D01*
X59584459Y-83346002D01*
X59585678Y-83353699D01*
X59585678Y-83353700D01*
X59592670Y-83397847D01*
X59583099Y-83458278D01*
X59539836Y-83501542D01*
X59479405Y-83511115D01*
X59469427Y-83509534D01*
X59450000Y-83506458D01*
X59442303Y-83507677D01*
X59331141Y-83525283D01*
X59331140Y-83525283D01*
X59323445Y-83526502D01*
X59316503Y-83530038D01*
X59316500Y-83530040D01*
X59216222Y-83581135D01*
X59216220Y-83581136D01*
X59209277Y-83584674D01*
X59203770Y-83590180D01*
X59203767Y-83590183D01*
X59124183Y-83669767D01*
X59124180Y-83669770D01*
X59118674Y-83675277D01*
X59115136Y-83682220D01*
X59115135Y-83682222D01*
X59064040Y-83782500D01*
X59064038Y-83782503D01*
X59060502Y-83789445D01*
X59059283Y-83797140D01*
X59059283Y-83797141D01*
X59051501Y-83846277D01*
X59040458Y-83916000D01*
X58661486Y-83916000D01*
X58659498Y-83903445D01*
X58601326Y-83789277D01*
X58510723Y-83698674D01*
X58396555Y-83640502D01*
X58270000Y-83620458D01*
X58262303Y-83621677D01*
X58151141Y-83639283D01*
X58151140Y-83639283D01*
X58143445Y-83640502D01*
X58136503Y-83644038D01*
X58136500Y-83644040D01*
X58036222Y-83695135D01*
X58036220Y-83695136D01*
X58029277Y-83698674D01*
X58023770Y-83704180D01*
X58023767Y-83704183D01*
X57944183Y-83783767D01*
X57944180Y-83783770D01*
X57938674Y-83789277D01*
X57935136Y-83796220D01*
X57935135Y-83796222D01*
X57884040Y-83896500D01*
X57884038Y-83896503D01*
X57880502Y-83903445D01*
X57879283Y-83911140D01*
X57879283Y-83911141D01*
X57877294Y-83923697D01*
X57860458Y-84030000D01*
X53724654Y-84030000D01*
X53739542Y-83936000D01*
X53719498Y-83809445D01*
X53661326Y-83695277D01*
X53570723Y-83604674D01*
X53456555Y-83546502D01*
X53393277Y-83536479D01*
X53337697Y-83527677D01*
X53330000Y-83526458D01*
X53322303Y-83527677D01*
X53211141Y-83545283D01*
X53211140Y-83545283D01*
X53203445Y-83546502D01*
X53196503Y-83550038D01*
X53196500Y-83550040D01*
X53096222Y-83601135D01*
X53096220Y-83601136D01*
X53089277Y-83604674D01*
X53083770Y-83610180D01*
X53083767Y-83610183D01*
X53004183Y-83689767D01*
X53004180Y-83689770D01*
X52998674Y-83695277D01*
X52995136Y-83702220D01*
X52995135Y-83702222D01*
X52944040Y-83802500D01*
X52944038Y-83802503D01*
X52940502Y-83809445D01*
X52939283Y-83817140D01*
X52939283Y-83817141D01*
X52931837Y-83864156D01*
X52920458Y-83936000D01*
X50054043Y-83936000D01*
X50008326Y-83846277D01*
X49917723Y-83755674D01*
X49816667Y-83704183D01*
X49810499Y-83701040D01*
X49810498Y-83701039D01*
X49803555Y-83697502D01*
X49677000Y-83677458D01*
X49669303Y-83678677D01*
X49558141Y-83696283D01*
X49558140Y-83696283D01*
X49550445Y-83697502D01*
X49543503Y-83701038D01*
X49543500Y-83701040D01*
X49443222Y-83752135D01*
X49443220Y-83752136D01*
X49436277Y-83755674D01*
X49430770Y-83761180D01*
X49430767Y-83761183D01*
X49351183Y-83840767D01*
X49351180Y-83840770D01*
X49345674Y-83846277D01*
X49342136Y-83853220D01*
X49342135Y-83853222D01*
X49291040Y-83953500D01*
X49291038Y-83953503D01*
X49287502Y-83960445D01*
X49267458Y-84087000D01*
X49066542Y-84087000D01*
X49046498Y-83960445D01*
X48988326Y-83846277D01*
X48897723Y-83755674D01*
X48796667Y-83704183D01*
X48790499Y-83701040D01*
X48790498Y-83701039D01*
X48783555Y-83697502D01*
X48657000Y-83677458D01*
X48649303Y-83678677D01*
X48538141Y-83696283D01*
X48538140Y-83696283D01*
X48530445Y-83697502D01*
X48523503Y-83701038D01*
X48523500Y-83701040D01*
X48423222Y-83752135D01*
X48423220Y-83752136D01*
X48416277Y-83755674D01*
X48410770Y-83761180D01*
X48410767Y-83761183D01*
X48331183Y-83840767D01*
X48331180Y-83840770D01*
X48325674Y-83846277D01*
X48322136Y-83853220D01*
X48322135Y-83853222D01*
X48271040Y-83953500D01*
X48271038Y-83953503D01*
X48267502Y-83960445D01*
X48247458Y-84087000D01*
X48267502Y-84213555D01*
X48271039Y-84220498D01*
X48271040Y-84220499D01*
X48314349Y-84305498D01*
X48325674Y-84327723D01*
X48330606Y-84332655D01*
X48349291Y-84386545D01*
X48334777Y-84442157D01*
X48291813Y-84480335D01*
X48234880Y-84488209D01*
X48174697Y-84478677D01*
X48167000Y-84477458D01*
X48159303Y-84478677D01*
X48048139Y-84496283D01*
X48048136Y-84496283D01*
X48040445Y-84497502D01*
X48033507Y-84501037D01*
X48033501Y-84501039D01*
X47986944Y-84524761D01*
X47942000Y-84535551D01*
X47897056Y-84524761D01*
X47850498Y-84501039D01*
X47850494Y-84501037D01*
X47843555Y-84497502D01*
X47835861Y-84496283D01*
X47835860Y-84496283D01*
X47724697Y-84478677D01*
X47717000Y-84477458D01*
X47709303Y-84478677D01*
X47598141Y-84496283D01*
X47598140Y-84496283D01*
X47590445Y-84497502D01*
X47583503Y-84501038D01*
X47583500Y-84501040D01*
X47483222Y-84552135D01*
X47483220Y-84552136D01*
X47476277Y-84555674D01*
X47470770Y-84561180D01*
X47470767Y-84561183D01*
X47391183Y-84640767D01*
X47391180Y-84640770D01*
X47385674Y-84646277D01*
X47382136Y-84653220D01*
X47382135Y-84653222D01*
X47331040Y-84753500D01*
X47331040Y-84753501D01*
X47327502Y-84760445D01*
X47307458Y-84887000D01*
X42185270Y-84887000D01*
X42185115Y-81955834D01*
X43848542Y-81955834D01*
X43849761Y-81963531D01*
X43858563Y-82019111D01*
X43868586Y-82082389D01*
X43872123Y-82089332D01*
X43872124Y-82089333D01*
X43874860Y-82094702D01*
X43926758Y-82196557D01*
X44017361Y-82287160D01*
X44131529Y-82345332D01*
X44258084Y-82365376D01*
X44384639Y-82345332D01*
X44498807Y-82287160D01*
X44589410Y-82196557D01*
X44647582Y-82082389D01*
X44663799Y-81980000D01*
X61600458Y-81980000D01*
X61620502Y-82106555D01*
X61678674Y-82220723D01*
X61769277Y-82311326D01*
X61883445Y-82369498D01*
X62010000Y-82389542D01*
X62136555Y-82369498D01*
X62250723Y-82311326D01*
X62341326Y-82220723D01*
X62399498Y-82106555D01*
X62419542Y-81980000D01*
X62400399Y-81859136D01*
X80480822Y-81859136D01*
X80481199Y-81863445D01*
X80500690Y-82086234D01*
X80500691Y-82086241D01*
X80501067Y-82090535D01*
X80502181Y-82094696D01*
X80502183Y-82094702D01*
X80560067Y-82310729D01*
X80560070Y-82310737D01*
X80561186Y-82314902D01*
X80563011Y-82318816D01*
X80563013Y-82318821D01*
X80657522Y-82521497D01*
X80657525Y-82521503D01*
X80659353Y-82525422D01*
X80661833Y-82528965D01*
X80661835Y-82528967D01*
X80790104Y-82712155D01*
X80790107Y-82712159D01*
X80792584Y-82715696D01*
X80956833Y-82879945D01*
X81147107Y-83013176D01*
X81151029Y-83015004D01*
X81151031Y-83015006D01*
X81300119Y-83084526D01*
X81357627Y-83111343D01*
X81581994Y-83171462D01*
X81813393Y-83191707D01*
X82044792Y-83171462D01*
X82269159Y-83111343D01*
X82479679Y-83013176D01*
X82669953Y-82879945D01*
X82834202Y-82715696D01*
X82967433Y-82525422D01*
X83065600Y-82314902D01*
X83125719Y-82090535D01*
X83145964Y-81859136D01*
X83125719Y-81627737D01*
X83065600Y-81403370D01*
X82967433Y-81192851D01*
X82834202Y-81002576D01*
X82669953Y-80838327D01*
X82666416Y-80835850D01*
X82666412Y-80835847D01*
X82483224Y-80707578D01*
X82483222Y-80707576D01*
X82479679Y-80705096D01*
X82475760Y-80703268D01*
X82475754Y-80703265D01*
X82273078Y-80608756D01*
X82273073Y-80608754D01*
X82269159Y-80606929D01*
X82264994Y-80605813D01*
X82264986Y-80605810D01*
X82048959Y-80547926D01*
X82048953Y-80547924D01*
X82044792Y-80546810D01*
X82040498Y-80546434D01*
X82040491Y-80546433D01*
X81817702Y-80526942D01*
X81813393Y-80526565D01*
X81809084Y-80526942D01*
X81586294Y-80546433D01*
X81586285Y-80546434D01*
X81581994Y-80546810D01*
X81577834Y-80547924D01*
X81577826Y-80547926D01*
X81361799Y-80605810D01*
X81361787Y-80605814D01*
X81357627Y-80606929D01*
X81353716Y-80608752D01*
X81353707Y-80608756D01*
X81151032Y-80703265D01*
X81151021Y-80703271D01*
X81147108Y-80705096D01*
X81143569Y-80707573D01*
X81143562Y-80707578D01*
X80960373Y-80835847D01*
X80960363Y-80835854D01*
X80956833Y-80838327D01*
X80953785Y-80841374D01*
X80953779Y-80841380D01*
X80795637Y-80999522D01*
X80795631Y-80999528D01*
X80792584Y-81002576D01*
X80790111Y-81006106D01*
X80790104Y-81006116D01*
X80661835Y-81189305D01*
X80661830Y-81189312D01*
X80659353Y-81192851D01*
X80657528Y-81196764D01*
X80657522Y-81196775D01*
X80563013Y-81399450D01*
X80563009Y-81399459D01*
X80561186Y-81403370D01*
X80560071Y-81407530D01*
X80560067Y-81407542D01*
X80502183Y-81623569D01*
X80502181Y-81623577D01*
X80501067Y-81627737D01*
X80500691Y-81632028D01*
X80500690Y-81632037D01*
X80481379Y-81852765D01*
X80480822Y-81859136D01*
X62400399Y-81859136D01*
X62399498Y-81853445D01*
X62341326Y-81739277D01*
X62250723Y-81648674D01*
X62136555Y-81590502D01*
X62010000Y-81570458D01*
X62002303Y-81571677D01*
X61891141Y-81589283D01*
X61891140Y-81589283D01*
X61883445Y-81590502D01*
X61876503Y-81594038D01*
X61876500Y-81594040D01*
X61776222Y-81645135D01*
X61776220Y-81645136D01*
X61769277Y-81648674D01*
X61763770Y-81654180D01*
X61763767Y-81654183D01*
X61684183Y-81733767D01*
X61684180Y-81733770D01*
X61678674Y-81739277D01*
X61675136Y-81746220D01*
X61675135Y-81746222D01*
X61624040Y-81846500D01*
X61624038Y-81846503D01*
X61620502Y-81853445D01*
X61619283Y-81861140D01*
X61619283Y-81861141D01*
X61604285Y-81955834D01*
X61600458Y-81980000D01*
X44663799Y-81980000D01*
X44667626Y-81955834D01*
X44647582Y-81829279D01*
X44589410Y-81715111D01*
X44498807Y-81624508D01*
X44429675Y-81589283D01*
X44391583Y-81569874D01*
X44391582Y-81569873D01*
X44384639Y-81566336D01*
X44258084Y-81546292D01*
X44250387Y-81547511D01*
X44139225Y-81565117D01*
X44139224Y-81565117D01*
X44131529Y-81566336D01*
X44124587Y-81569872D01*
X44124584Y-81569874D01*
X44024306Y-81620969D01*
X44024304Y-81620970D01*
X44017361Y-81624508D01*
X44011854Y-81630014D01*
X44011851Y-81630017D01*
X43932267Y-81709601D01*
X43932264Y-81709604D01*
X43926758Y-81715111D01*
X43923220Y-81722054D01*
X43923219Y-81722056D01*
X43872124Y-81822334D01*
X43872122Y-81822337D01*
X43868586Y-81829279D01*
X43867367Y-81836974D01*
X43867367Y-81836975D01*
X43864540Y-81854827D01*
X43848542Y-81955834D01*
X42185115Y-81955834D01*
X42185044Y-80600000D01*
X61798104Y-80600000D01*
X61799112Y-80607011D01*
X61814590Y-80714666D01*
X61814591Y-80714670D01*
X61815599Y-80721679D01*
X61866666Y-80833501D01*
X61947168Y-80926405D01*
X61953122Y-80930231D01*
X61953124Y-80930233D01*
X62044624Y-80989036D01*
X62050584Y-80992866D01*
X62168535Y-81027500D01*
X62284388Y-81027500D01*
X62291465Y-81027500D01*
X62409416Y-80992866D01*
X62512832Y-80926405D01*
X62593334Y-80833501D01*
X62622334Y-80770000D01*
X63949458Y-80770000D01*
X63969502Y-80896555D01*
X64027674Y-81010723D01*
X64118277Y-81101326D01*
X64232445Y-81159498D01*
X64359000Y-81179542D01*
X64485555Y-81159498D01*
X64599723Y-81101326D01*
X64690326Y-81010723D01*
X64748498Y-80896555D01*
X64768542Y-80770000D01*
X64748498Y-80643445D01*
X64690326Y-80529277D01*
X64599723Y-80438674D01*
X64485555Y-80380502D01*
X64359000Y-80360458D01*
X64351303Y-80361677D01*
X64240141Y-80379283D01*
X64240140Y-80379283D01*
X64232445Y-80380502D01*
X64225503Y-80384038D01*
X64225500Y-80384040D01*
X64125222Y-80435135D01*
X64125220Y-80435136D01*
X64118277Y-80438674D01*
X64112770Y-80444180D01*
X64112767Y-80444183D01*
X64033183Y-80523767D01*
X64033180Y-80523770D01*
X64027674Y-80529277D01*
X64024136Y-80536220D01*
X64024135Y-80536222D01*
X63973040Y-80636500D01*
X63973038Y-80636503D01*
X63969502Y-80643445D01*
X63968283Y-80651140D01*
X63968283Y-80651141D01*
X63958222Y-80714666D01*
X63949458Y-80770000D01*
X62622334Y-80770000D01*
X62644401Y-80721679D01*
X62661896Y-80600000D01*
X62644401Y-80478321D01*
X62593334Y-80366499D01*
X62512832Y-80273595D01*
X62506878Y-80269768D01*
X62506875Y-80269766D01*
X62415375Y-80210963D01*
X62415371Y-80210961D01*
X62409416Y-80207134D01*
X62402625Y-80205140D01*
X62402621Y-80205138D01*
X62298254Y-80174493D01*
X62298250Y-80174492D01*
X62291465Y-80172500D01*
X62168535Y-80172500D01*
X62161750Y-80174492D01*
X62161745Y-80174493D01*
X62057378Y-80205138D01*
X62057371Y-80205141D01*
X62050584Y-80207134D01*
X62044630Y-80210959D01*
X62044624Y-80210963D01*
X61953124Y-80269766D01*
X61953118Y-80269771D01*
X61947168Y-80273595D01*
X61942532Y-80278944D01*
X61942531Y-80278946D01*
X61871303Y-80361147D01*
X61871301Y-80361149D01*
X61866666Y-80366499D01*
X61863726Y-80372935D01*
X61863725Y-80372938D01*
X61860271Y-80380502D01*
X61815599Y-80478321D01*
X61814591Y-80485327D01*
X61814590Y-80485333D01*
X61805591Y-80547926D01*
X61798104Y-80600000D01*
X42185044Y-80600000D01*
X42184908Y-78024000D01*
X64809458Y-78024000D01*
X64829502Y-78150555D01*
X64887674Y-78264723D01*
X64978277Y-78355326D01*
X65092445Y-78413498D01*
X65219000Y-78433542D01*
X65345555Y-78413498D01*
X65459723Y-78355326D01*
X65550326Y-78264723D01*
X65608498Y-78150555D01*
X65628542Y-78024000D01*
X65608498Y-77897445D01*
X65550326Y-77783277D01*
X65459723Y-77692674D01*
X65345555Y-77634502D01*
X65219000Y-77614458D01*
X65211303Y-77615677D01*
X65100141Y-77633283D01*
X65100140Y-77633283D01*
X65092445Y-77634502D01*
X65085503Y-77638038D01*
X65085500Y-77638040D01*
X64985222Y-77689135D01*
X64985220Y-77689136D01*
X64978277Y-77692674D01*
X64972770Y-77698180D01*
X64972767Y-77698183D01*
X64893183Y-77777767D01*
X64893180Y-77777770D01*
X64887674Y-77783277D01*
X64884136Y-77790220D01*
X64884135Y-77790222D01*
X64833040Y-77890500D01*
X64833038Y-77890503D01*
X64829502Y-77897445D01*
X64809458Y-78024000D01*
X42184908Y-78024000D01*
X42184869Y-77280000D01*
X42743104Y-77280000D01*
X42744112Y-77287011D01*
X42759590Y-77394666D01*
X42759591Y-77394670D01*
X42760599Y-77401679D01*
X42811666Y-77513501D01*
X42892168Y-77606405D01*
X42898122Y-77610231D01*
X42898124Y-77610233D01*
X42933991Y-77633283D01*
X42995584Y-77672866D01*
X43113535Y-77707500D01*
X43229388Y-77707500D01*
X43236465Y-77707500D01*
X43354416Y-77672866D01*
X43457832Y-77606405D01*
X43538334Y-77513501D01*
X43589401Y-77401679D01*
X43606896Y-77280000D01*
X43589401Y-77158321D01*
X43538334Y-77046499D01*
X43489377Y-76990000D01*
X53793104Y-76990000D01*
X53794112Y-76997011D01*
X53809590Y-77104666D01*
X53809591Y-77104670D01*
X53810599Y-77111679D01*
X53861666Y-77223501D01*
X53942168Y-77316405D01*
X53948122Y-77320231D01*
X53948124Y-77320233D01*
X54039624Y-77379036D01*
X54045584Y-77382866D01*
X54163535Y-77417500D01*
X54279388Y-77417500D01*
X54286465Y-77417500D01*
X54404416Y-77382866D01*
X54507832Y-77316405D01*
X54588334Y-77223501D01*
X54639401Y-77111679D01*
X54656896Y-76990000D01*
X54649707Y-76940000D01*
X56188104Y-76940000D01*
X56189112Y-76947011D01*
X56204590Y-77054666D01*
X56204591Y-77054670D01*
X56205599Y-77061679D01*
X56256666Y-77173501D01*
X56337168Y-77266405D01*
X56343122Y-77270231D01*
X56343124Y-77270233D01*
X56428128Y-77324861D01*
X56440584Y-77332866D01*
X56558535Y-77367500D01*
X56674388Y-77367500D01*
X56681465Y-77367500D01*
X56799416Y-77332866D01*
X56902832Y-77266405D01*
X56964517Y-77195216D01*
X57011440Y-77165061D01*
X57067223Y-77165061D01*
X57114150Y-77195219D01*
X57167168Y-77256405D01*
X57173122Y-77260231D01*
X57173124Y-77260233D01*
X57214792Y-77287011D01*
X57270584Y-77322866D01*
X57388535Y-77357500D01*
X57504388Y-77357500D01*
X57511465Y-77357500D01*
X57629416Y-77322866D01*
X57732832Y-77256405D01*
X57813334Y-77163501D01*
X57864401Y-77051679D01*
X57881896Y-76930000D01*
X57864401Y-76808321D01*
X57813334Y-76696499D01*
X57732832Y-76603595D01*
X57726878Y-76599768D01*
X57726875Y-76599766D01*
X57635375Y-76540963D01*
X57635371Y-76540961D01*
X57629416Y-76537134D01*
X57622625Y-76535140D01*
X57622621Y-76535138D01*
X57518254Y-76504493D01*
X57518250Y-76504492D01*
X57511465Y-76502500D01*
X57388535Y-76502500D01*
X57381750Y-76504492D01*
X57381745Y-76504493D01*
X57277378Y-76535138D01*
X57277371Y-76535141D01*
X57270584Y-76537134D01*
X57264630Y-76540959D01*
X57264624Y-76540963D01*
X57173124Y-76599766D01*
X57173118Y-76599771D01*
X57167168Y-76603595D01*
X57118496Y-76659766D01*
X57105486Y-76674780D01*
X57058558Y-76704938D01*
X57002775Y-76704938D01*
X56955848Y-76674779D01*
X56946157Y-76663595D01*
X56902832Y-76613595D01*
X56896878Y-76609768D01*
X56896875Y-76609766D01*
X56805375Y-76550963D01*
X56805371Y-76550961D01*
X56799416Y-76547134D01*
X56792625Y-76545140D01*
X56792621Y-76545138D01*
X56688254Y-76514493D01*
X56688250Y-76514492D01*
X56681465Y-76512500D01*
X56558535Y-76512500D01*
X56551750Y-76514492D01*
X56551745Y-76514493D01*
X56447378Y-76545138D01*
X56447371Y-76545141D01*
X56440584Y-76547134D01*
X56434630Y-76550959D01*
X56434624Y-76550963D01*
X56343124Y-76609766D01*
X56343118Y-76609771D01*
X56337168Y-76613595D01*
X56332532Y-76618944D01*
X56332531Y-76618946D01*
X56261303Y-76701147D01*
X56261301Y-76701149D01*
X56256666Y-76706499D01*
X56253726Y-76712935D01*
X56253725Y-76712938D01*
X56208541Y-76811878D01*
X56205599Y-76818321D01*
X56204591Y-76825327D01*
X56204590Y-76825333D01*
X56190550Y-76922989D01*
X56188104Y-76940000D01*
X54649707Y-76940000D01*
X54639401Y-76868321D01*
X54588334Y-76756499D01*
X54507832Y-76663595D01*
X54501878Y-76659768D01*
X54501875Y-76659766D01*
X54410375Y-76600963D01*
X54410371Y-76600961D01*
X54404416Y-76597134D01*
X54397625Y-76595140D01*
X54397621Y-76595138D01*
X54293254Y-76564493D01*
X54293250Y-76564492D01*
X54286465Y-76562500D01*
X54163535Y-76562500D01*
X54156750Y-76564492D01*
X54156745Y-76564493D01*
X54052378Y-76595138D01*
X54052371Y-76595141D01*
X54045584Y-76597134D01*
X54039630Y-76600959D01*
X54039624Y-76600963D01*
X53948124Y-76659766D01*
X53948118Y-76659771D01*
X53942168Y-76663595D01*
X53937532Y-76668944D01*
X53937531Y-76668946D01*
X53866303Y-76751147D01*
X53866301Y-76751149D01*
X53861666Y-76756499D01*
X53858726Y-76762935D01*
X53858725Y-76762938D01*
X53817824Y-76852500D01*
X53810599Y-76868321D01*
X53809591Y-76875327D01*
X53809590Y-76875333D01*
X53800293Y-76940000D01*
X53793104Y-76990000D01*
X43489377Y-76990000D01*
X43457832Y-76953595D01*
X43451878Y-76949768D01*
X43451875Y-76949766D01*
X43360375Y-76890963D01*
X43360371Y-76890961D01*
X43354416Y-76887134D01*
X43347625Y-76885140D01*
X43347621Y-76885138D01*
X43243254Y-76854493D01*
X43243250Y-76854492D01*
X43236465Y-76852500D01*
X43113535Y-76852500D01*
X43106750Y-76854492D01*
X43106745Y-76854493D01*
X43002378Y-76885138D01*
X43002371Y-76885141D01*
X42995584Y-76887134D01*
X42989630Y-76890959D01*
X42989624Y-76890963D01*
X42898124Y-76949766D01*
X42898118Y-76949771D01*
X42892168Y-76953595D01*
X42887532Y-76958944D01*
X42887531Y-76958946D01*
X42816303Y-77041147D01*
X42816301Y-77041149D01*
X42811666Y-77046499D01*
X42808726Y-77052935D01*
X42808725Y-77052938D01*
X42763541Y-77151878D01*
X42760599Y-77158321D01*
X42759591Y-77165327D01*
X42759590Y-77165333D01*
X42745059Y-77266405D01*
X42743104Y-77280000D01*
X42184869Y-77280000D01*
X42184780Y-75600000D01*
X54318104Y-75600000D01*
X54319112Y-75607011D01*
X54334590Y-75714666D01*
X54334591Y-75714670D01*
X54335599Y-75721679D01*
X54386666Y-75833501D01*
X54467168Y-75926405D01*
X54473122Y-75930231D01*
X54473124Y-75930233D01*
X54564624Y-75989036D01*
X54570584Y-75992866D01*
X54688535Y-76027500D01*
X54804388Y-76027500D01*
X54811465Y-76027500D01*
X54929416Y-75992866D01*
X55032832Y-75926405D01*
X55113334Y-75833501D01*
X55164401Y-75721679D01*
X55181896Y-75600000D01*
X55164401Y-75478321D01*
X55113334Y-75366499D01*
X55032832Y-75273595D01*
X55026878Y-75269768D01*
X55026875Y-75269766D01*
X54935375Y-75210963D01*
X54935371Y-75210961D01*
X54929416Y-75207134D01*
X54922625Y-75205140D01*
X54922621Y-75205138D01*
X54837009Y-75180000D01*
X64398458Y-75180000D01*
X64399677Y-75187697D01*
X64403362Y-75210963D01*
X64418502Y-75306555D01*
X64476674Y-75420723D01*
X64567277Y-75511326D01*
X64681445Y-75569498D01*
X64808000Y-75589542D01*
X64934555Y-75569498D01*
X65048723Y-75511326D01*
X65139326Y-75420723D01*
X65197498Y-75306555D01*
X65217542Y-75180000D01*
X65197498Y-75053445D01*
X65139326Y-74939277D01*
X65048723Y-74848674D01*
X64934555Y-74790502D01*
X64808000Y-74770458D01*
X64800303Y-74771677D01*
X64689141Y-74789283D01*
X64689140Y-74789283D01*
X64681445Y-74790502D01*
X64674503Y-74794038D01*
X64674500Y-74794040D01*
X64574222Y-74845135D01*
X64574220Y-74845136D01*
X64567277Y-74848674D01*
X64561770Y-74854180D01*
X64561767Y-74854183D01*
X64482183Y-74933767D01*
X64482180Y-74933770D01*
X64476674Y-74939277D01*
X64473136Y-74946220D01*
X64473135Y-74946222D01*
X64422040Y-75046500D01*
X64422038Y-75046503D01*
X64418502Y-75053445D01*
X64398458Y-75180000D01*
X54837009Y-75180000D01*
X54818254Y-75174493D01*
X54818250Y-75174492D01*
X54811465Y-75172500D01*
X54688535Y-75172500D01*
X54681750Y-75174492D01*
X54681745Y-75174493D01*
X54577378Y-75205138D01*
X54577371Y-75205141D01*
X54570584Y-75207134D01*
X54564630Y-75210959D01*
X54564624Y-75210963D01*
X54473124Y-75269766D01*
X54473118Y-75269771D01*
X54467168Y-75273595D01*
X54462532Y-75278944D01*
X54462531Y-75278946D01*
X54391303Y-75361147D01*
X54391301Y-75361149D01*
X54386666Y-75366499D01*
X54335599Y-75478321D01*
X54334591Y-75485327D01*
X54334590Y-75485333D01*
X54322314Y-75570716D01*
X54318104Y-75600000D01*
X42184780Y-75600000D01*
X42184672Y-73548196D01*
X53687592Y-73548196D01*
X53688968Y-73554820D01*
X53688969Y-73554826D01*
X53717225Y-73690801D01*
X53718604Y-73697436D01*
X53721719Y-73703448D01*
X53721720Y-73703450D01*
X53785615Y-73826763D01*
X53785618Y-73826767D01*
X53788731Y-73832775D01*
X53892772Y-73944176D01*
X54023010Y-74023375D01*
X54169786Y-74064500D01*
X54280550Y-74064500D01*
X54283927Y-74064500D01*
X54397009Y-74048957D01*
X54536818Y-73988230D01*
X54655058Y-73892034D01*
X54742961Y-73767504D01*
X54794006Y-73623877D01*
X54804408Y-73471804D01*
X54773396Y-73322564D01*
X54703269Y-73187225D01*
X54659164Y-73140000D01*
X55708104Y-73140000D01*
X55709112Y-73147011D01*
X55724590Y-73254666D01*
X55724591Y-73254670D01*
X55725599Y-73261679D01*
X55776666Y-73373501D01*
X55857168Y-73466405D01*
X55863122Y-73470231D01*
X55863124Y-73470233D01*
X55954624Y-73529036D01*
X55960584Y-73532866D01*
X56078535Y-73567500D01*
X56194388Y-73567500D01*
X56201465Y-73567500D01*
X56267208Y-73548196D01*
X59467592Y-73548196D01*
X59468968Y-73554820D01*
X59468969Y-73554826D01*
X59497225Y-73690801D01*
X59498604Y-73697436D01*
X59501719Y-73703448D01*
X59501720Y-73703450D01*
X59565615Y-73826763D01*
X59565618Y-73826767D01*
X59568731Y-73832775D01*
X59672772Y-73944176D01*
X59803010Y-74023375D01*
X59949786Y-74064500D01*
X60060550Y-74064500D01*
X60063927Y-74064500D01*
X60177009Y-74048957D01*
X60316818Y-73988230D01*
X60435058Y-73892034D01*
X60522961Y-73767504D01*
X60574006Y-73623877D01*
X60584408Y-73471804D01*
X60553396Y-73322564D01*
X60483269Y-73187225D01*
X60379228Y-73075824D01*
X60313815Y-73036046D01*
X60254772Y-73000141D01*
X60254771Y-73000140D01*
X60248990Y-72996625D01*
X60242476Y-72994800D01*
X60242472Y-72994798D01*
X60108733Y-72957326D01*
X60108729Y-72957325D01*
X60102214Y-72955500D01*
X59988073Y-72955500D01*
X59984739Y-72955958D01*
X59984728Y-72955959D01*
X59881695Y-72970121D01*
X59881691Y-72970122D01*
X59874991Y-72971043D01*
X59868787Y-72973737D01*
X59868782Y-72973739D01*
X59741398Y-73029069D01*
X59741392Y-73029072D01*
X59735182Y-73031770D01*
X59729932Y-73036040D01*
X59729924Y-73036046D01*
X59622193Y-73123693D01*
X59622189Y-73123697D01*
X59616942Y-73127966D01*
X59613040Y-73133493D01*
X59613037Y-73133497D01*
X59532943Y-73246964D01*
X59532940Y-73246968D01*
X59529039Y-73252496D01*
X59526772Y-73258872D01*
X59526772Y-73258874D01*
X59480262Y-73389739D01*
X59480260Y-73389744D01*
X59477994Y-73396123D01*
X59477532Y-73402877D01*
X59477531Y-73402882D01*
X59468504Y-73534861D01*
X59467592Y-73548196D01*
X56267208Y-73548196D01*
X56319416Y-73532866D01*
X56422832Y-73466405D01*
X56503334Y-73373501D01*
X56554401Y-73261679D01*
X56571896Y-73140000D01*
X56554401Y-73018321D01*
X56503334Y-72906499D01*
X56422832Y-72813595D01*
X56416878Y-72809768D01*
X56416875Y-72809766D01*
X56325375Y-72750963D01*
X56325371Y-72750961D01*
X56319416Y-72747134D01*
X56312625Y-72745140D01*
X56312621Y-72745138D01*
X56208254Y-72714493D01*
X56208250Y-72714492D01*
X56201465Y-72712500D01*
X56078535Y-72712500D01*
X56071750Y-72714492D01*
X56071745Y-72714493D01*
X55967378Y-72745138D01*
X55967371Y-72745141D01*
X55960584Y-72747134D01*
X55954630Y-72750959D01*
X55954624Y-72750963D01*
X55863124Y-72809766D01*
X55863118Y-72809771D01*
X55857168Y-72813595D01*
X55852532Y-72818944D01*
X55852531Y-72818946D01*
X55781303Y-72901147D01*
X55781301Y-72901149D01*
X55776666Y-72906499D01*
X55773726Y-72912935D01*
X55773725Y-72912938D01*
X55735507Y-72996625D01*
X55725599Y-73018321D01*
X55724591Y-73025327D01*
X55724590Y-73025333D01*
X55717331Y-73075824D01*
X55708104Y-73140000D01*
X54659164Y-73140000D01*
X54599228Y-73075824D01*
X54533815Y-73036046D01*
X54474772Y-73000141D01*
X54474771Y-73000140D01*
X54468990Y-72996625D01*
X54462476Y-72994800D01*
X54462472Y-72994798D01*
X54328733Y-72957326D01*
X54328729Y-72957325D01*
X54322214Y-72955500D01*
X54208073Y-72955500D01*
X54204739Y-72955958D01*
X54204728Y-72955959D01*
X54101695Y-72970121D01*
X54101691Y-72970122D01*
X54094991Y-72971043D01*
X54088787Y-72973737D01*
X54088782Y-72973739D01*
X53961398Y-73029069D01*
X53961392Y-73029072D01*
X53955182Y-73031770D01*
X53949932Y-73036040D01*
X53949924Y-73036046D01*
X53842193Y-73123693D01*
X53842189Y-73123697D01*
X53836942Y-73127966D01*
X53833040Y-73133493D01*
X53833037Y-73133497D01*
X53752943Y-73246964D01*
X53752940Y-73246968D01*
X53749039Y-73252496D01*
X53746772Y-73258872D01*
X53746772Y-73258874D01*
X53700262Y-73389739D01*
X53700260Y-73389744D01*
X53697994Y-73396123D01*
X53697532Y-73402877D01*
X53697531Y-73402882D01*
X53688504Y-73534861D01*
X53687592Y-73548196D01*
X42184672Y-73548196D01*
X42184602Y-72218000D01*
X64390458Y-72218000D01*
X64410502Y-72344555D01*
X64468674Y-72458723D01*
X64559277Y-72549326D01*
X64673445Y-72607498D01*
X64800000Y-72627542D01*
X64926555Y-72607498D01*
X65040723Y-72549326D01*
X65131326Y-72458723D01*
X65189498Y-72344555D01*
X65209542Y-72218000D01*
X65189498Y-72091445D01*
X65131326Y-71977277D01*
X65040723Y-71886674D01*
X64926555Y-71828502D01*
X64800000Y-71808458D01*
X64792303Y-71809677D01*
X64681141Y-71827283D01*
X64681140Y-71827283D01*
X64673445Y-71828502D01*
X64666503Y-71832038D01*
X64666500Y-71832040D01*
X64566222Y-71883135D01*
X64566220Y-71883136D01*
X64559277Y-71886674D01*
X64553770Y-71892180D01*
X64553767Y-71892183D01*
X64474183Y-71971767D01*
X64474180Y-71971770D01*
X64468674Y-71977277D01*
X64465136Y-71984220D01*
X64465135Y-71984222D01*
X64414040Y-72084500D01*
X64414038Y-72084503D01*
X64410502Y-72091445D01*
X64390458Y-72218000D01*
X42184602Y-72218000D01*
X42184502Y-70312827D01*
X42184515Y-70312794D01*
X42184502Y-70276879D01*
X67182178Y-70276879D01*
X67200307Y-70414584D01*
X67253459Y-70542905D01*
X67338012Y-70653097D01*
X67448204Y-70737650D01*
X67576525Y-70790802D01*
X67714230Y-70808931D01*
X67851935Y-70790802D01*
X67980256Y-70737650D01*
X68090448Y-70653097D01*
X68175001Y-70542905D01*
X68228153Y-70414584D01*
X68246282Y-70276879D01*
X68228153Y-70139174D01*
X68175001Y-70010853D01*
X68090448Y-69900661D01*
X67980256Y-69816108D01*
X67966918Y-69810583D01*
X67857928Y-69765438D01*
X67857925Y-69765437D01*
X67851935Y-69762956D01*
X67845504Y-69762109D01*
X67845503Y-69762109D01*
X67720664Y-69745674D01*
X67714230Y-69744827D01*
X67707796Y-69745674D01*
X67582956Y-69762109D01*
X67582953Y-69762109D01*
X67576525Y-69762956D01*
X67570536Y-69765436D01*
X67570531Y-69765438D01*
X67454200Y-69813624D01*
X67454197Y-69813625D01*
X67448204Y-69816108D01*
X67443060Y-69820055D01*
X67443055Y-69820058D01*
X67343165Y-69896706D01*
X67343160Y-69896710D01*
X67338012Y-69900661D01*
X67334061Y-69905809D01*
X67334057Y-69905814D01*
X67257409Y-70005704D01*
X67257406Y-70005709D01*
X67253459Y-70010853D01*
X67250976Y-70016846D01*
X67250975Y-70016849D01*
X67202789Y-70133180D01*
X67202787Y-70133185D01*
X67200307Y-70139174D01*
X67199460Y-70145602D01*
X67199460Y-70145605D01*
X67192304Y-70199964D01*
X67182178Y-70276879D01*
X42184502Y-70276879D01*
X42184500Y-70270665D01*
X42184653Y-70265178D01*
X42201780Y-69958481D01*
X42203015Y-69947483D01*
X42253912Y-69647397D01*
X42256375Y-69636591D01*
X42340555Y-69344104D01*
X42344213Y-69333640D01*
X42460619Y-69052418D01*
X42465417Y-69042447D01*
X42612592Y-68776014D01*
X42618481Y-68766636D01*
X42794560Y-68518373D01*
X42801481Y-68509693D01*
X42816624Y-68492742D01*
X43004236Y-68282729D01*
X43012076Y-68274886D01*
X43238994Y-68072038D01*
X43247649Y-68065134D01*
X43495860Y-67888971D01*
X43505239Y-67883077D01*
X43771607Y-67735824D01*
X43781594Y-67731013D01*
X44062783Y-67614515D01*
X44073238Y-67610856D01*
X44365686Y-67526584D01*
X44376505Y-67524113D01*
X44676576Y-67473119D01*
X44687575Y-67471880D01*
X44994224Y-67454656D01*
X44999777Y-67454500D01*
X45041877Y-67454500D01*
X82888123Y-67454500D01*
X82930225Y-67454500D01*
X82935775Y-67454655D01*
G37*
%TD.AperFunction*%
%TD*%
M02*
