%TF.GenerationSoftware,KiCad,Pcbnew,(6.0.1-0)*%
%TF.CreationDate,2022-08-02T20:22:24+01:00*%
%TF.ProjectId,Mainboard,4d61696e-626f-4617-9264-2e6b69636164,rev?*%
%TF.SameCoordinates,Original*%
%TF.FileFunction,Copper,L2,Inr*%
%TF.FilePolarity,Positive*%
%FSLAX46Y46*%
G04 Gerber Fmt 4.6, Leading zero omitted, Abs format (unit mm)*
G04 Created by KiCad (PCBNEW (6.0.1-0)) date 2022-08-02 20:22:24*
%MOMM*%
%LPD*%
G01*
G04 APERTURE LIST*
G04 Aperture macros list*
%AMRoundRect*
0 Rectangle with rounded corners*
0 $1 Rounding radius*
0 $2 $3 $4 $5 $6 $7 $8 $9 X,Y pos of 4 corners*
0 Add a 4 corners polygon primitive as box body*
4,1,4,$2,$3,$4,$5,$6,$7,$8,$9,$2,$3,0*
0 Add four circle primitives for the rounded corners*
1,1,$1+$1,$2,$3*
1,1,$1+$1,$4,$5*
1,1,$1+$1,$6,$7*
1,1,$1+$1,$8,$9*
0 Add four rect primitives between the rounded corners*
20,1,$1+$1,$2,$3,$4,$5,0*
20,1,$1+$1,$4,$5,$6,$7,0*
20,1,$1+$1,$6,$7,$8,$9,0*
20,1,$1+$1,$8,$9,$2,$3,0*%
G04 Aperture macros list end*
%TA.AperFunction,ComponentPad*%
%ADD10C,0.700000*%
%TD*%
%TA.AperFunction,ComponentPad*%
%ADD11O,2.400000X0.900000*%
%TD*%
%TA.AperFunction,ComponentPad*%
%ADD12O,1.700000X0.900000*%
%TD*%
%TA.AperFunction,ComponentPad*%
%ADD13R,1.700000X1.700000*%
%TD*%
%TA.AperFunction,ComponentPad*%
%ADD14O,1.700000X1.700000*%
%TD*%
%TA.AperFunction,ComponentPad*%
%ADD15R,2.100000X2.100000*%
%TD*%
%TA.AperFunction,ComponentPad*%
%ADD16C,2.100000*%
%TD*%
%TA.AperFunction,ComponentPad*%
%ADD17C,5.600000*%
%TD*%
%TA.AperFunction,ComponentPad*%
%ADD18RoundRect,0.250001X1.399999X-1.099999X1.399999X1.099999X-1.399999X1.099999X-1.399999X-1.099999X0*%
%TD*%
%TA.AperFunction,ComponentPad*%
%ADD19O,3.300000X2.700000*%
%TD*%
%TA.AperFunction,ViaPad*%
%ADD20C,0.600000*%
%TD*%
%TA.AperFunction,ViaPad*%
%ADD21C,0.800000*%
%TD*%
G04 APERTURE END LIST*
D10*
%TO.N,GND*%
%TO.C,J8*%
X169125000Y-113650000D03*
%TO.N,VBUS*%
X169125000Y-112800000D03*
%TO.N,Net-(J8-PadA5)*%
X169125000Y-111950000D03*
%TO.N,/Data+*%
X169125000Y-111100000D03*
%TO.N,/Data-*%
X169125000Y-110250000D03*
%TO.N,unconnected-(J8-PadA8)*%
X169125000Y-109400000D03*
%TO.N,VBUS*%
X169125000Y-108550000D03*
%TO.N,GND*%
X169125000Y-107700000D03*
X170475000Y-107700000D03*
%TO.N,VBUS*%
X170475000Y-108550000D03*
%TO.N,Net-(J8-PadB5)*%
X170475000Y-109400000D03*
%TO.N,/Data+*%
X170475000Y-110250000D03*
%TO.N,/Data-*%
X170475000Y-111100000D03*
%TO.N,unconnected-(J8-PadB8)*%
X170475000Y-111950000D03*
%TO.N,VBUS*%
X170475000Y-112800000D03*
%TO.N,GND*%
X170475000Y-113650000D03*
D11*
X170105000Y-115000000D03*
X170105000Y-106350000D03*
D12*
X173485000Y-106350000D03*
X173485000Y-115000000D03*
%TD*%
D13*
%TO.N,Net-(C3-Pad1)*%
%TO.C,J10*%
X144025000Y-118200000D03*
D14*
%TO.N,GND*%
X144025000Y-120740000D03*
%TD*%
D15*
%TO.N,Net-(D522-Pad1)*%
%TO.C,J2*%
X121350000Y-87719898D03*
D16*
%TO.N,+24V*%
X121350000Y-85179898D03*
%TD*%
D15*
%TO.N,Net-(D512-Pad1)*%
%TO.C,J1*%
X121350000Y-97170000D03*
D16*
%TO.N,+24V*%
X121350000Y-94630000D03*
%TD*%
D13*
%TO.N,Net-(C1-Pad1)*%
%TO.C,J9*%
X147637500Y-118200000D03*
D14*
%TO.N,GND*%
X147637500Y-120740000D03*
%TD*%
D15*
%TO.N,Net-(D532-Pad1)*%
%TO.C,J3*%
X127555102Y-72866006D03*
D16*
%TO.N,+24V*%
X130095102Y-72866006D03*
%TD*%
D17*
%TO.N,GND*%
%TO.C,H3*%
X121310400Y-118986300D03*
%TD*%
%TO.N,GND*%
%TO.C,H2*%
X171310400Y-119030000D03*
%TD*%
D15*
%TO.N,Net-(D562-Pad1)*%
%TO.C,J6*%
X171812999Y-91705101D03*
D16*
%TO.N,+24V*%
X171812999Y-94245101D03*
%TD*%
D18*
%TO.N,GND*%
%TO.C,J7*%
X121100000Y-112150000D03*
D19*
X121100000Y-107950000D03*
%TO.N,Net-(J7-Pad3)*%
X121100000Y-103750000D03*
%TO.N,+24V*%
X126600000Y-112150000D03*
%TO.N,/CAN_HIGH*%
X126600000Y-107950000D03*
%TO.N,/CAN_LOW*%
X126600000Y-103750000D03*
%TD*%
D17*
%TO.N,GND*%
%TO.C,H1*%
X121310400Y-72986900D03*
%TD*%
D15*
%TO.N,Net-(D552-Pad1)*%
%TO.C,J5*%
X171797263Y-82242919D03*
D16*
%TO.N,+24V*%
X171797263Y-84782919D03*
%TD*%
D15*
%TO.N,Net-(D542-Pad1)*%
%TO.C,J4*%
X171780605Y-72705073D03*
D16*
%TO.N,+24V*%
X171780605Y-75245073D03*
%TD*%
D20*
%TO.N,GND*%
X142750500Y-82100000D03*
X152100000Y-83000000D03*
X148950000Y-82950000D03*
X145850000Y-82624540D03*
D21*
X162674500Y-71300000D03*
X162715412Y-89823351D03*
X162755517Y-80413475D03*
X152600000Y-96550000D03*
%TO.N,/DTR*%
X158119600Y-112609300D03*
X154550000Y-107430000D03*
%TO.N,/Data+*%
X160860000Y-115510000D03*
%TO.N,/Data-*%
X162075500Y-115500000D03*
%TO.N,GND*%
X155600000Y-98425000D03*
X169285000Y-99475000D03*
X151400000Y-115650000D03*
X135500000Y-91400000D03*
X155475000Y-79425000D03*
X129430000Y-105790000D03*
X147810000Y-107810000D03*
X156575000Y-88950000D03*
X157525000Y-79225000D03*
X138800000Y-82100000D03*
X145800000Y-84560000D03*
X145140000Y-106740000D03*
X131310000Y-102510000D03*
X139160000Y-104240000D03*
X144050000Y-104130000D03*
X133750000Y-100950000D03*
X138040000Y-101090000D03*
X154900000Y-70950000D03*
X128940000Y-100940000D03*
X157575000Y-77125000D03*
X146480000Y-106750000D03*
X158990000Y-99600000D03*
X150900000Y-117800000D03*
X154930000Y-121500000D03*
X135750000Y-100660000D03*
X155575000Y-88950000D03*
X157625000Y-97125000D03*
X157525000Y-88700000D03*
X174500000Y-104480000D03*
X139690000Y-113710000D03*
X165830000Y-117600000D03*
X138090000Y-107880000D03*
X147790000Y-104060000D03*
X154850000Y-118550000D03*
X152500000Y-107080000D03*
X143190000Y-91050000D03*
X134200000Y-74250000D03*
X149910000Y-117900000D03*
X159330000Y-102040000D03*
X135500000Y-92350000D03*
X139380000Y-117340000D03*
X134225000Y-104900000D03*
X132550000Y-100940000D03*
X149640000Y-119860000D03*
D20*
X149080000Y-98290000D03*
D21*
X131075000Y-113300000D03*
X126480000Y-120910000D03*
X138800000Y-83100000D03*
X153240000Y-109130000D03*
X151400000Y-114640000D03*
X149840000Y-121050000D03*
X136500000Y-90450000D03*
X174510000Y-110010000D03*
X165768336Y-103997683D03*
X141660000Y-102120000D03*
X161990000Y-103560000D03*
X153080000Y-111400000D03*
X153770000Y-121200000D03*
X141550000Y-105650000D03*
X138780000Y-81150000D03*
X133850000Y-114550000D03*
X153770000Y-117800000D03*
X153090000Y-116740000D03*
X136291979Y-106207410D03*
X134200000Y-73400000D03*
X144040000Y-106710000D03*
X148930000Y-106720000D03*
X146490000Y-102930000D03*
X136480000Y-104710000D03*
X163750000Y-103525000D03*
X147840000Y-102950000D03*
X118820000Y-115430000D03*
X124840000Y-114150000D03*
X151325000Y-70925000D03*
X147880000Y-87550000D03*
X156500000Y-79425000D03*
X153080000Y-114730000D03*
X157600000Y-96125000D03*
X151400000Y-113630000D03*
X147790000Y-106760000D03*
X137521497Y-90454243D03*
X135483380Y-90450000D03*
X137530000Y-109810000D03*
X174510000Y-108730000D03*
X133750000Y-117725000D03*
X129950000Y-118125000D03*
X151150000Y-121610000D03*
X130100000Y-102500000D03*
X130760000Y-104300000D03*
X145160000Y-107820000D03*
X158650000Y-119920000D03*
X135450000Y-82150000D03*
X134480000Y-121820000D03*
X148940000Y-105410000D03*
X157600000Y-86700000D03*
X135450000Y-81150000D03*
X174510000Y-97250000D03*
X127350000Y-114140000D03*
X118820000Y-114420000D03*
X145160000Y-104070000D03*
X134950000Y-74800000D03*
X151400000Y-116660000D03*
X174510000Y-111320000D03*
X153080000Y-113730000D03*
X130140000Y-100950000D03*
X157625000Y-87700000D03*
X130384704Y-121490837D03*
X133375000Y-102675000D03*
X168435000Y-102875000D03*
X151410000Y-111400000D03*
X154850000Y-119550000D03*
X134150000Y-72550000D03*
D20*
X144560000Y-97800000D03*
D21*
X132050000Y-106225000D03*
X174510000Y-116260000D03*
X146530000Y-107830000D03*
X135870000Y-121820000D03*
X145150000Y-102960000D03*
X127360625Y-118375990D03*
X144020000Y-105380000D03*
X149640000Y-118860000D03*
X144920000Y-95250000D03*
X173850000Y-98320000D03*
X129360000Y-104300000D03*
X128910000Y-102500000D03*
X133140000Y-104090000D03*
X148930000Y-104060000D03*
X146460000Y-104080000D03*
X165170000Y-114050000D03*
X144800000Y-71175000D03*
X166220000Y-105670000D03*
X145350000Y-114775000D03*
X156600000Y-98425000D03*
X145150000Y-105420000D03*
X167570000Y-109810000D03*
X157550000Y-98125000D03*
X174510000Y-112790000D03*
X174500000Y-95950000D03*
X143350000Y-115525000D03*
X157625000Y-78175000D03*
X134150000Y-71700000D03*
X134200000Y-106080000D03*
D20*
X146856300Y-100500000D03*
D21*
X137810000Y-105890000D03*
X159060000Y-114650000D03*
X153080000Y-115740000D03*
X135850000Y-74750000D03*
X135450000Y-83100000D03*
X148450000Y-84560000D03*
X146500000Y-105420000D03*
X134470000Y-120670000D03*
X131330000Y-100950000D03*
X147790000Y-105430000D03*
%TO.N,Net-(D512-Pad1)*%
X128100000Y-98860000D03*
X145200000Y-87550000D03*
%TO.N,+3V3*%
X149956300Y-108875000D03*
X152300000Y-91250000D03*
X166544600Y-109109300D03*
X148350000Y-99000000D03*
X143600000Y-109825000D03*
X137875000Y-117400000D03*
X164660715Y-117508268D03*
X130362904Y-119940837D03*
X151000000Y-106875000D03*
X152350000Y-77350000D03*
X160433705Y-105817863D03*
%TO.N,Net-(D552-Pad1)*%
X153900500Y-79400000D03*
X164750000Y-80300000D03*
%TO.N,/Vref*%
X137400000Y-113030000D03*
X134500000Y-109725000D03*
%TO.N,/EN*%
X154500000Y-106175000D03*
X154050000Y-104100000D03*
X150790000Y-109880000D03*
%TO.N,/BOOT*%
X156675000Y-104375000D03*
D20*
X144313912Y-101161734D03*
D21*
X137769159Y-120832708D03*
D20*
%TO.N,/TXD*%
X156550000Y-111850000D03*
D21*
X145375000Y-110650000D03*
%TO.N,/RXD*%
X146575000Y-110425000D03*
D20*
X155220000Y-111360000D03*
D21*
%TO.N,Net-(D522-Pad1)*%
X140850000Y-80250000D03*
X128350000Y-89260000D03*
%TO.N,Net-(D562-Pad1)*%
X152325000Y-87275000D03*
X164800000Y-89650000D03*
%TD*%
%TA.AperFunction,Conductor*%
%TO.N,GND*%
G36*
X124650000Y-122220086D02*
G01*
X121687651Y-122220086D01*
X121662925Y-122217636D01*
X121662472Y-122217545D01*
X121662470Y-122217545D01*
X121650303Y-122215110D01*
X121638130Y-122217517D01*
X121625717Y-122217502D01*
X121625717Y-122217407D01*
X121614769Y-122218184D01*
X121587972Y-122216749D01*
X121318445Y-122202319D01*
X121305358Y-122200929D01*
X120983699Y-122149640D01*
X120970821Y-122146890D01*
X120656258Y-122062282D01*
X120643751Y-122058206D01*
X120339753Y-121941210D01*
X120327723Y-121935841D01*
X120188717Y-121864878D01*
X120037618Y-121787741D01*
X120026227Y-121781154D01*
X119753164Y-121603556D01*
X119742513Y-121595807D01*
X119489506Y-121390672D01*
X119479719Y-121381849D01*
X119249520Y-121151412D01*
X119240707Y-121141615D01*
X119035834Y-120888396D01*
X119028092Y-120877732D01*
X118850782Y-120604493D01*
X118844197Y-120593079D01*
X118696403Y-120302836D01*
X118691045Y-120290796D01*
X118574367Y-119986684D01*
X118570297Y-119974151D01*
X118486023Y-119659534D01*
X118483283Y-119646645D01*
X118432326Y-119324930D01*
X118430948Y-119311824D01*
X118415390Y-119015487D01*
X118416179Y-119004544D01*
X118416083Y-119004544D01*
X118416081Y-118992135D01*
X118418500Y-118979965D01*
X118415948Y-118967144D01*
X118413524Y-118942546D01*
X118413524Y-115690000D01*
X124650000Y-115690000D01*
X124650000Y-122220086D01*
G37*
%TD.AperFunction*%
%TD*%
%TA.AperFunction,Conductor*%
%TO.N,GND*%
G36*
X172765000Y-116015000D02*
G01*
X171275000Y-116015000D01*
X171275000Y-113505000D01*
X172765000Y-113505000D01*
X172765000Y-116015000D01*
G37*
%TD.AperFunction*%
%TD*%
%TA.AperFunction,Conductor*%
%TO.N,GND*%
G36*
X136880000Y-75540000D02*
G01*
X133740000Y-75540000D01*
X133740000Y-70890000D01*
X136880000Y-70890000D01*
X136880000Y-75540000D01*
G37*
%TD.AperFunction*%
%TD*%
%TA.AperFunction,Conductor*%
%TO.N,GND*%
G36*
X174905524Y-119001874D02*
G01*
X174903016Y-119026871D01*
X174903016Y-119026887D01*
X174900550Y-119039052D01*
X174902927Y-119051233D01*
X174902881Y-119063642D01*
X174902788Y-119063642D01*
X174903539Y-119074595D01*
X174887274Y-119365305D01*
X174885855Y-119378382D01*
X174834738Y-119694449D01*
X174831962Y-119707309D01*
X174748174Y-120016302D01*
X174744074Y-120028801D01*
X174628521Y-120327392D01*
X174623139Y-120339396D01*
X174477086Y-120624306D01*
X174470482Y-120635683D01*
X174295518Y-120903813D01*
X174287763Y-120914440D01*
X174142992Y-121092515D01*
X174085800Y-121162863D01*
X174076993Y-121172609D01*
X173850216Y-121398635D01*
X173840432Y-121407417D01*
X173740418Y-121488176D01*
X173591322Y-121608568D01*
X173580685Y-121616275D01*
X173311964Y-121790354D01*
X173300577Y-121796913D01*
X173107998Y-121894829D01*
X173015179Y-121942022D01*
X173003157Y-121947364D01*
X172704189Y-122061923D01*
X172691676Y-122065982D01*
X172382401Y-122148743D01*
X172369533Y-122151476D01*
X172053304Y-122201542D01*
X172040221Y-122202918D01*
X171853371Y-122212749D01*
X171749452Y-122218217D01*
X171738502Y-122217430D01*
X171738502Y-122217523D01*
X171726094Y-122217527D01*
X171713921Y-122215110D01*
X171701751Y-122217535D01*
X171701139Y-122217657D01*
X171676516Y-122220086D01*
X167780000Y-122220086D01*
X167780000Y-115930000D01*
X174905524Y-115930000D01*
X174905524Y-119001874D01*
G37*
%TD.AperFunction*%
%TD*%
%TA.AperFunction,Conductor*%
%TO.N,GND*%
G36*
X124870000Y-76770000D02*
G01*
X118413524Y-76770000D01*
X118413524Y-73034506D01*
X118415777Y-73010787D01*
X118416157Y-73008802D01*
X118418494Y-72996611D01*
X118415987Y-72984454D01*
X118415901Y-72972046D01*
X118416006Y-72972045D01*
X118415142Y-72961111D01*
X118428815Y-72661991D01*
X118430117Y-72648794D01*
X118479504Y-72324168D01*
X118482186Y-72311180D01*
X118565421Y-71993543D01*
X118569453Y-71980909D01*
X118685613Y-71673776D01*
X118690951Y-71661636D01*
X118838747Y-71368420D01*
X118845331Y-71356908D01*
X119023130Y-71080844D01*
X119030888Y-71070088D01*
X119236716Y-70814246D01*
X119245561Y-70804365D01*
X119360798Y-70688523D01*
X119477144Y-70571567D01*
X119486969Y-70562680D01*
X119741737Y-70355515D01*
X119752452Y-70347701D01*
X120027588Y-70168458D01*
X120039066Y-70161814D01*
X120331504Y-70012489D01*
X120343616Y-70007088D01*
X120650135Y-69889326D01*
X120662747Y-69885228D01*
X120884100Y-69825986D01*
X120979948Y-69800333D01*
X120992915Y-69797585D01*
X121317288Y-69746500D01*
X121330470Y-69745130D01*
X121629516Y-69729895D01*
X121640458Y-69730702D01*
X121640458Y-69730598D01*
X121652867Y-69730620D01*
X121665035Y-69733062D01*
X121677212Y-69730662D01*
X121678218Y-69730464D01*
X121702582Y-69728086D01*
X124870000Y-69728086D01*
X124870000Y-76770000D01*
G37*
%TD.AperFunction*%
%TD*%
%TA.AperFunction,Conductor*%
%TO.N,GND*%
G36*
X157630000Y-99080000D02*
G01*
X154980000Y-99080000D01*
X154980000Y-76830000D01*
X157630000Y-76830000D01*
X157630000Y-99080000D01*
G37*
%TD.AperFunction*%
%TD*%
%TA.AperFunction,Conductor*%
%TO.N,GND*%
G36*
X123350000Y-114315000D02*
G01*
X118685000Y-114315000D01*
X118685000Y-106055000D01*
X123350000Y-106055000D01*
X123350000Y-114315000D01*
G37*
%TD.AperFunction*%
%TD*%
%TA.AperFunction,Conductor*%
%TO.N,GND*%
G36*
X139510000Y-97490000D02*
G01*
X135630000Y-97490000D01*
X135630000Y-80680000D01*
X139510000Y-80680000D01*
X139510000Y-97490000D01*
G37*
%TD.AperFunction*%
%TD*%
%TA.AperFunction,Conductor*%
%TO.N,GND*%
G36*
X171913285Y-69730476D02*
G01*
X171926373Y-69733062D01*
X171938542Y-69730626D01*
X171950950Y-69730610D01*
X171950950Y-69730706D01*
X171961892Y-69729903D01*
X172230852Y-69743658D01*
X172243968Y-69745021D01*
X172538618Y-69791312D01*
X172551514Y-69794036D01*
X172823704Y-69866609D01*
X172839729Y-69870882D01*
X172852278Y-69874943D01*
X173130858Y-69981489D01*
X173142915Y-69986839D01*
X173408839Y-70121930D01*
X173420270Y-70128511D01*
X173670623Y-70290666D01*
X173681303Y-70298407D01*
X173913315Y-70485831D01*
X173923128Y-70494645D01*
X174134284Y-70705307D01*
X174143122Y-70715099D01*
X174331103Y-70946688D01*
X174338866Y-70957347D01*
X174501605Y-71207317D01*
X174508207Y-71218722D01*
X174643918Y-71484327D01*
X174649296Y-71496371D01*
X174756499Y-71774712D01*
X174760590Y-71787252D01*
X174838108Y-72075279D01*
X174840864Y-72088178D01*
X174877460Y-72317604D01*
X174887846Y-72382719D01*
X174889239Y-72395832D01*
X174903623Y-72664753D01*
X174902846Y-72675694D01*
X174902943Y-72675694D01*
X174902957Y-72688101D01*
X174900548Y-72700278D01*
X174902983Y-72712449D01*
X174903076Y-72712916D01*
X174905524Y-72737630D01*
X174905524Y-105735599D01*
X174885522Y-105803720D01*
X174831866Y-105850213D01*
X174761592Y-105860317D01*
X174697012Y-105830823D01*
X174672438Y-105801996D01*
X174651293Y-105767892D01*
X174643540Y-105757826D01*
X174518592Y-105625697D01*
X174508974Y-105617395D01*
X174360013Y-105513092D01*
X174348919Y-105506892D01*
X174182020Y-105434668D01*
X174169917Y-105430829D01*
X173990400Y-105393325D01*
X173980848Y-105392085D01*
X173977616Y-105392000D01*
X173757115Y-105392000D01*
X173741876Y-105396475D01*
X173740671Y-105397865D01*
X173739000Y-105405548D01*
X173739000Y-107289885D01*
X173743475Y-107305124D01*
X173744865Y-107306329D01*
X173752548Y-107308000D01*
X173930447Y-107308000D01*
X173936822Y-107307677D01*
X174072277Y-107293918D01*
X174084717Y-107291364D01*
X174258244Y-107236984D01*
X174269932Y-107231975D01*
X174428979Y-107143813D01*
X174439412Y-107136562D01*
X174577491Y-107018215D01*
X174586244Y-107009024D01*
X174679964Y-106888200D01*
X174737521Y-106846633D01*
X174808413Y-106842782D01*
X174870133Y-106877870D01*
X174903085Y-106940756D01*
X174905524Y-106965426D01*
X174905524Y-114385599D01*
X174885522Y-114453720D01*
X174831866Y-114500213D01*
X174761592Y-114510317D01*
X174697012Y-114480823D01*
X174672438Y-114451996D01*
X174651293Y-114417892D01*
X174643540Y-114407826D01*
X174518592Y-114275697D01*
X174508974Y-114267395D01*
X174360013Y-114163092D01*
X174348919Y-114156892D01*
X174182020Y-114084668D01*
X174169917Y-114080829D01*
X173990400Y-114043325D01*
X173980848Y-114042085D01*
X173977616Y-114042000D01*
X173757115Y-114042000D01*
X173741876Y-114046475D01*
X173740671Y-114047865D01*
X173739000Y-114055548D01*
X173739000Y-115930000D01*
X173231000Y-115930000D01*
X173231000Y-115272115D01*
X173226525Y-115256876D01*
X173225135Y-115255671D01*
X173217452Y-115254000D01*
X172765000Y-115254000D01*
X172765000Y-114746000D01*
X173212885Y-114746000D01*
X173228124Y-114741525D01*
X173229329Y-114740135D01*
X173231000Y-114732452D01*
X173231000Y-114060115D01*
X173226525Y-114044876D01*
X173225135Y-114043671D01*
X173217452Y-114042000D01*
X173039553Y-114042000D01*
X173033178Y-114042323D01*
X172897723Y-114056082D01*
X172885283Y-114058636D01*
X172765000Y-114096330D01*
X172765000Y-113505000D01*
X171322486Y-113505000D01*
X171319563Y-113477193D01*
X171316833Y-113464350D01*
X171265181Y-113305383D01*
X171259835Y-113293375D01*
X171243637Y-113265320D01*
X171233431Y-113255589D01*
X171225410Y-113258800D01*
X171121292Y-113362918D01*
X171063988Y-113394209D01*
X171050583Y-113431500D01*
X171037918Y-113446292D01*
X170564095Y-113920115D01*
X170501783Y-113954141D01*
X170430968Y-113949076D01*
X170385905Y-113920115D01*
X170204885Y-113739095D01*
X170170859Y-113676783D01*
X170175924Y-113605968D01*
X170204885Y-113560905D01*
X170325972Y-113439818D01*
X170388284Y-113405792D01*
X170431513Y-113403991D01*
X170466811Y-113408638D01*
X170466812Y-113408638D01*
X170475000Y-113409716D01*
X170632806Y-113388940D01*
X170640430Y-113385782D01*
X170640434Y-113385781D01*
X170772227Y-113331191D01*
X170772228Y-113331190D01*
X170779858Y-113328030D01*
X170787476Y-113322185D01*
X170872119Y-113257235D01*
X170915751Y-113240367D01*
X170921609Y-113213438D01*
X170932235Y-113197119D01*
X170998002Y-113111411D01*
X170998003Y-113111409D01*
X171003030Y-113104858D01*
X171023446Y-113055569D01*
X171060781Y-112965434D01*
X171060782Y-112965430D01*
X171063940Y-112957806D01*
X171084716Y-112800000D01*
X171063940Y-112642194D01*
X171060782Y-112634570D01*
X171060781Y-112634566D01*
X171006191Y-112502773D01*
X171006190Y-112502772D01*
X171003030Y-112495142D01*
X170969697Y-112451703D01*
X170944098Y-112385483D01*
X170958363Y-112315935D01*
X170969695Y-112298300D01*
X171003030Y-112254858D01*
X171006917Y-112245474D01*
X171060781Y-112115434D01*
X171060782Y-112115430D01*
X171063940Y-112107806D01*
X171084716Y-111950000D01*
X171063940Y-111792194D01*
X171060782Y-111784570D01*
X171060781Y-111784566D01*
X171006191Y-111652773D01*
X171006190Y-111652772D01*
X171003030Y-111645142D01*
X170969697Y-111601703D01*
X170944098Y-111535483D01*
X170958363Y-111465935D01*
X170969695Y-111448300D01*
X171003030Y-111404858D01*
X171018219Y-111368188D01*
X171060781Y-111265434D01*
X171060782Y-111265430D01*
X171063940Y-111257806D01*
X171084716Y-111100000D01*
X171063940Y-110942194D01*
X171060782Y-110934570D01*
X171060781Y-110934566D01*
X171006191Y-110802773D01*
X171006190Y-110802772D01*
X171003030Y-110795142D01*
X170969697Y-110751703D01*
X170944098Y-110685483D01*
X170958363Y-110615935D01*
X170969695Y-110598300D01*
X171003030Y-110554858D01*
X171006906Y-110545500D01*
X171060781Y-110415434D01*
X171060782Y-110415430D01*
X171063940Y-110407806D01*
X171084716Y-110250000D01*
X171063940Y-110092194D01*
X171060782Y-110084570D01*
X171060781Y-110084566D01*
X171006191Y-109952773D01*
X171006190Y-109952772D01*
X171003030Y-109945142D01*
X170969697Y-109901703D01*
X170944098Y-109835483D01*
X170958363Y-109765935D01*
X170969695Y-109748300D01*
X171003030Y-109704858D01*
X171006191Y-109697227D01*
X171060781Y-109565434D01*
X171060782Y-109565430D01*
X171063940Y-109557806D01*
X171084716Y-109400000D01*
X171063940Y-109242194D01*
X171060782Y-109234570D01*
X171060781Y-109234566D01*
X171006191Y-109102773D01*
X171006190Y-109102772D01*
X171003030Y-109095142D01*
X170969697Y-109051703D01*
X170944098Y-108985483D01*
X170958363Y-108915935D01*
X170969695Y-108898300D01*
X171003030Y-108854858D01*
X171006191Y-108847227D01*
X171060781Y-108715434D01*
X171060782Y-108715430D01*
X171063940Y-108707806D01*
X171084716Y-108550000D01*
X171063940Y-108392194D01*
X171060782Y-108384570D01*
X171060781Y-108384566D01*
X171006191Y-108252773D01*
X171006190Y-108252772D01*
X171003030Y-108245142D01*
X170985843Y-108222743D01*
X170932235Y-108152881D01*
X170915367Y-108109249D01*
X170888438Y-108103391D01*
X170872119Y-108092765D01*
X170786411Y-108026998D01*
X170786409Y-108026997D01*
X170779858Y-108021970D01*
X170772227Y-108018809D01*
X170640434Y-107964219D01*
X170640430Y-107964218D01*
X170632806Y-107961060D01*
X170475000Y-107940284D01*
X170466812Y-107941362D01*
X170466811Y-107941362D01*
X170431513Y-107946009D01*
X170361364Y-107935070D01*
X170325972Y-107910182D01*
X170204885Y-107789095D01*
X170170859Y-107726783D01*
X170175924Y-107655968D01*
X170204885Y-107610905D01*
X170385905Y-107429885D01*
X170448217Y-107395859D01*
X170519032Y-107400924D01*
X170564095Y-107429885D01*
X171037918Y-107903708D01*
X171069209Y-107961012D01*
X171106500Y-107974417D01*
X171121292Y-107987082D01*
X171221767Y-108087557D01*
X171234147Y-108094317D01*
X171241062Y-108089141D01*
X171259835Y-108056625D01*
X171265181Y-108044617D01*
X171316833Y-107885650D01*
X171319563Y-107872807D01*
X171337036Y-107706565D01*
X171337036Y-107693435D01*
X171319563Y-107527193D01*
X171316833Y-107514350D01*
X171265181Y-107355383D01*
X171263076Y-107350655D01*
X171253641Y-107280288D01*
X171283746Y-107215990D01*
X171317096Y-107189202D01*
X171398979Y-107143813D01*
X171409412Y-107136562D01*
X171547491Y-107018215D01*
X171556244Y-107009024D01*
X171667711Y-106865320D01*
X171674435Y-106854560D01*
X171754732Y-106691375D01*
X171759155Y-106679481D01*
X171774251Y-106621530D01*
X171774021Y-106614075D01*
X172161363Y-106614075D01*
X172217310Y-106766136D01*
X172222877Y-106777549D01*
X172318708Y-106932108D01*
X172326460Y-106942174D01*
X172451408Y-107074303D01*
X172461026Y-107082605D01*
X172609987Y-107186908D01*
X172621081Y-107193108D01*
X172787980Y-107265332D01*
X172800083Y-107269171D01*
X172979600Y-107306675D01*
X172989152Y-107307915D01*
X172992384Y-107308000D01*
X173212885Y-107308000D01*
X173228124Y-107303525D01*
X173229329Y-107302135D01*
X173231000Y-107294452D01*
X173231000Y-106622115D01*
X173226525Y-106606876D01*
X173225135Y-106605671D01*
X173217452Y-106604000D01*
X172175771Y-106604000D01*
X172162240Y-106607973D01*
X172161363Y-106614075D01*
X171774021Y-106614075D01*
X171773817Y-106607436D01*
X171765636Y-106604000D01*
X170377115Y-106604000D01*
X170361876Y-106608475D01*
X170360671Y-106609865D01*
X170359000Y-106617548D01*
X170359000Y-107222000D01*
X170338998Y-107290121D01*
X170285342Y-107336614D01*
X170233000Y-107348000D01*
X169977000Y-107348000D01*
X169908879Y-107327998D01*
X169862386Y-107274342D01*
X169851000Y-107222000D01*
X169851000Y-106622115D01*
X169846525Y-106606876D01*
X169845135Y-106605671D01*
X169837452Y-106604000D01*
X168445771Y-106604000D01*
X168432240Y-106607973D01*
X168431363Y-106614075D01*
X168487310Y-106766136D01*
X168492877Y-106777549D01*
X168588708Y-106932109D01*
X168593491Y-106938319D01*
X168605708Y-106945440D01*
X168620053Y-106944816D01*
X168665828Y-106932065D01*
X168733664Y-106953014D01*
X168753168Y-106968958D01*
X169395115Y-107610905D01*
X169429141Y-107673217D01*
X169424076Y-107744032D01*
X169395115Y-107789095D01*
X169274028Y-107910182D01*
X169211716Y-107944208D01*
X169168487Y-107946009D01*
X169133189Y-107941362D01*
X169133188Y-107941362D01*
X169125000Y-107940284D01*
X168967194Y-107961060D01*
X168959570Y-107964218D01*
X168959566Y-107964219D01*
X168827773Y-108018809D01*
X168820142Y-108021970D01*
X168813591Y-108026997D01*
X168813589Y-108026998D01*
X168727881Y-108092765D01*
X168684249Y-108109633D01*
X168678391Y-108136562D01*
X168667765Y-108152881D01*
X168614158Y-108222743D01*
X168596970Y-108245142D01*
X168593810Y-108252772D01*
X168593809Y-108252773D01*
X168539219Y-108384566D01*
X168539218Y-108384570D01*
X168536060Y-108392194D01*
X168515284Y-108550000D01*
X168536060Y-108707806D01*
X168539218Y-108715430D01*
X168539219Y-108715434D01*
X168593809Y-108847227D01*
X168596970Y-108854858D01*
X168630303Y-108898297D01*
X168655902Y-108964517D01*
X168641637Y-109034065D01*
X168630305Y-109051700D01*
X168596970Y-109095142D01*
X168593810Y-109102772D01*
X168593809Y-109102773D01*
X168539219Y-109234566D01*
X168539218Y-109234570D01*
X168536060Y-109242194D01*
X168515284Y-109400000D01*
X168536060Y-109557806D01*
X168539218Y-109565430D01*
X168539219Y-109565434D01*
X168593809Y-109697227D01*
X168596970Y-109704858D01*
X168630303Y-109748297D01*
X168655902Y-109814517D01*
X168641637Y-109884065D01*
X168630305Y-109901700D01*
X168596970Y-109945142D01*
X168593810Y-109952772D01*
X168593809Y-109952773D01*
X168539219Y-110084566D01*
X168539218Y-110084570D01*
X168536060Y-110092194D01*
X168515284Y-110250000D01*
X168536060Y-110407806D01*
X168539218Y-110415430D01*
X168539219Y-110415434D01*
X168593094Y-110545500D01*
X168596970Y-110554858D01*
X168630303Y-110598297D01*
X168655902Y-110664517D01*
X168641637Y-110734065D01*
X168630305Y-110751700D01*
X168596970Y-110795142D01*
X168593810Y-110802772D01*
X168593809Y-110802773D01*
X168539219Y-110934566D01*
X168539218Y-110934570D01*
X168536060Y-110942194D01*
X168515284Y-111100000D01*
X168536060Y-111257806D01*
X168539218Y-111265430D01*
X168539219Y-111265434D01*
X168581781Y-111368188D01*
X168596970Y-111404858D01*
X168630303Y-111448297D01*
X168655902Y-111514517D01*
X168641637Y-111584065D01*
X168630305Y-111601700D01*
X168596970Y-111645142D01*
X168593810Y-111652772D01*
X168593809Y-111652773D01*
X168539219Y-111784566D01*
X168539218Y-111784570D01*
X168536060Y-111792194D01*
X168515284Y-111950000D01*
X168536060Y-112107806D01*
X168539218Y-112115430D01*
X168539219Y-112115434D01*
X168593083Y-112245474D01*
X168596970Y-112254858D01*
X168630303Y-112298297D01*
X168655902Y-112364517D01*
X168641637Y-112434065D01*
X168630305Y-112451700D01*
X168596970Y-112495142D01*
X168593810Y-112502772D01*
X168593809Y-112502773D01*
X168539219Y-112634566D01*
X168539218Y-112634570D01*
X168536060Y-112642194D01*
X168515284Y-112800000D01*
X168536060Y-112957806D01*
X168539218Y-112965430D01*
X168539219Y-112965434D01*
X168576554Y-113055569D01*
X168596970Y-113104858D01*
X168601997Y-113111409D01*
X168601998Y-113111411D01*
X168667765Y-113197119D01*
X168684633Y-113240751D01*
X168711562Y-113246609D01*
X168727881Y-113257235D01*
X168812525Y-113322185D01*
X168820142Y-113328030D01*
X168827772Y-113331190D01*
X168827773Y-113331191D01*
X168959566Y-113385781D01*
X168959570Y-113385782D01*
X168967194Y-113388940D01*
X169125000Y-113409716D01*
X169133188Y-113408638D01*
X169133189Y-113408638D01*
X169168487Y-113403991D01*
X169238636Y-113414930D01*
X169274028Y-113439818D01*
X169395115Y-113560905D01*
X169429141Y-113623217D01*
X169424076Y-113694032D01*
X169395115Y-113739095D01*
X168751037Y-114383173D01*
X168688725Y-114417199D01*
X168617910Y-114412134D01*
X168607200Y-114407243D01*
X168595923Y-114415535D01*
X168542289Y-114484680D01*
X168535565Y-114495440D01*
X168455268Y-114658625D01*
X168450845Y-114670519D01*
X168435749Y-114728470D01*
X168436183Y-114742564D01*
X168444364Y-114746000D01*
X169832885Y-114746000D01*
X169848124Y-114741525D01*
X169849329Y-114740135D01*
X169851000Y-114732452D01*
X169851000Y-114128000D01*
X169871002Y-114059879D01*
X169924658Y-114013386D01*
X169977000Y-114002000D01*
X170233000Y-114002000D01*
X170301121Y-114022002D01*
X170347614Y-114075658D01*
X170359000Y-114128000D01*
X170359000Y-114727885D01*
X170363475Y-114743124D01*
X170364865Y-114744329D01*
X170372548Y-114746000D01*
X171275000Y-114746000D01*
X171275000Y-115254000D01*
X168445771Y-115254000D01*
X168432240Y-115257973D01*
X168431363Y-115264075D01*
X168487310Y-115416136D01*
X168492877Y-115427549D01*
X168588708Y-115582108D01*
X168596460Y-115592174D01*
X168721408Y-115724303D01*
X168731026Y-115732605D01*
X168879987Y-115836908D01*
X168891081Y-115843108D01*
X169057980Y-115915332D01*
X169070083Y-115919171D01*
X169121917Y-115930000D01*
X167780000Y-115930000D01*
X167780000Y-122220086D01*
X148246823Y-122220086D01*
X148178702Y-122200084D01*
X148132209Y-122146428D01*
X148122105Y-122076154D01*
X148151599Y-122011574D01*
X148191391Y-121980935D01*
X148330590Y-121912742D01*
X148339445Y-121907464D01*
X148512828Y-121783792D01*
X148520700Y-121777139D01*
X148671552Y-121626812D01*
X148678230Y-121618965D01*
X148802503Y-121446020D01*
X148807813Y-121437183D01*
X148902170Y-121246267D01*
X148905969Y-121236672D01*
X148967877Y-121032910D01*
X148970055Y-121022837D01*
X148971486Y-121011962D01*
X148969275Y-120997778D01*
X148956117Y-120994000D01*
X146320725Y-120994000D01*
X146307194Y-120997973D01*
X146305757Y-121007966D01*
X146336065Y-121142446D01*
X146339145Y-121152275D01*
X146419270Y-121349603D01*
X146423913Y-121358794D01*
X146535194Y-121540388D01*
X146541277Y-121548699D01*
X146680713Y-121709667D01*
X146688080Y-121716883D01*
X146851934Y-121852916D01*
X146860381Y-121858831D01*
X147044256Y-121966279D01*
X147053549Y-121970732D01*
X147068332Y-121976377D01*
X147124835Y-122019364D01*
X147149127Y-122086075D01*
X147133496Y-122155330D01*
X147082905Y-122205140D01*
X147023382Y-122220086D01*
X144634323Y-122220086D01*
X144566202Y-122200084D01*
X144519709Y-122146428D01*
X144509605Y-122076154D01*
X144539099Y-122011574D01*
X144578891Y-121980935D01*
X144718090Y-121912742D01*
X144726945Y-121907464D01*
X144900328Y-121783792D01*
X144908200Y-121777139D01*
X145059052Y-121626812D01*
X145065730Y-121618965D01*
X145190003Y-121446020D01*
X145195313Y-121437183D01*
X145289670Y-121246267D01*
X145293469Y-121236672D01*
X145355377Y-121032910D01*
X145357555Y-121022837D01*
X145358986Y-121011962D01*
X145356775Y-120997778D01*
X145343617Y-120994000D01*
X142708225Y-120994000D01*
X142694694Y-120997973D01*
X142693257Y-121007966D01*
X142723565Y-121142446D01*
X142726645Y-121152275D01*
X142806770Y-121349603D01*
X142811413Y-121358794D01*
X142922694Y-121540388D01*
X142928777Y-121548699D01*
X143068213Y-121709667D01*
X143075580Y-121716883D01*
X143239434Y-121852916D01*
X143247881Y-121858831D01*
X143431756Y-121966279D01*
X143441049Y-121970732D01*
X143455832Y-121976377D01*
X143512335Y-122019364D01*
X143536627Y-122086075D01*
X143520996Y-122155330D01*
X143470405Y-122205140D01*
X143410882Y-122220086D01*
X124650000Y-122220086D01*
X124650000Y-120825804D01*
X137109888Y-120825804D01*
X137127272Y-120983261D01*
X137129882Y-120990392D01*
X137129882Y-120990394D01*
X137167253Y-121092515D01*
X137181712Y-121132027D01*
X137185948Y-121138330D01*
X137185948Y-121138331D01*
X137252031Y-121236672D01*
X137270067Y-121263513D01*
X137275686Y-121268626D01*
X137275687Y-121268627D01*
X137381619Y-121365017D01*
X137387235Y-121370127D01*
X137526452Y-121445716D01*
X137679681Y-121485915D01*
X137763636Y-121487234D01*
X137830478Y-121488284D01*
X137830481Y-121488284D01*
X137838075Y-121488403D01*
X137992491Y-121453037D01*
X138091415Y-121403284D01*
X138127231Y-121385271D01*
X138127234Y-121385269D01*
X138134014Y-121381859D01*
X138139785Y-121376930D01*
X138139788Y-121376928D01*
X138248695Y-121283912D01*
X138248695Y-121283911D01*
X138254473Y-121278977D01*
X138346914Y-121150332D01*
X138406001Y-121003349D01*
X138428321Y-120846515D01*
X138428466Y-120832708D01*
X138409435Y-120675441D01*
X138373370Y-120580000D01*
X151300000Y-120580000D01*
X153200000Y-120580000D01*
X153200000Y-118510000D01*
X151300000Y-118510000D01*
X151300000Y-120580000D01*
X138373370Y-120580000D01*
X138353439Y-120527254D01*
X138322754Y-120482607D01*
X138316964Y-120474183D01*
X142689389Y-120474183D01*
X142690912Y-120482607D01*
X142703292Y-120486000D01*
X145343344Y-120486000D01*
X145356875Y-120482027D01*
X145358002Y-120474183D01*
X146301889Y-120474183D01*
X146303412Y-120482607D01*
X146315792Y-120486000D01*
X148955844Y-120486000D01*
X148969375Y-120482027D01*
X148970680Y-120472947D01*
X148928714Y-120305875D01*
X148925394Y-120296124D01*
X148840472Y-120100814D01*
X148835605Y-120091739D01*
X148719926Y-119912926D01*
X148713636Y-119904757D01*
X148570306Y-119747240D01*
X148562773Y-119740215D01*
X148395639Y-119608222D01*
X148387052Y-119602517D01*
X148275265Y-119540807D01*
X148225295Y-119490375D01*
X148210523Y-119420932D01*
X148235639Y-119354527D01*
X148292670Y-119312242D01*
X148336158Y-119304499D01*
X148512566Y-119304499D01*
X148548318Y-119297388D01*
X148574626Y-119292156D01*
X148574628Y-119292155D01*
X148586801Y-119289734D01*
X148597121Y-119282839D01*
X148597122Y-119282838D01*
X148660668Y-119240377D01*
X148670984Y-119233484D01*
X148727234Y-119149301D01*
X148742000Y-119075067D01*
X148741999Y-117501364D01*
X164001444Y-117501364D01*
X164006041Y-117543003D01*
X164016463Y-117637398D01*
X164018828Y-117658821D01*
X164021438Y-117665952D01*
X164021438Y-117665954D01*
X164040347Y-117717624D01*
X164073268Y-117807587D01*
X164161623Y-117939073D01*
X164167242Y-117944186D01*
X164167243Y-117944187D01*
X164273175Y-118040577D01*
X164278791Y-118045687D01*
X164418008Y-118121276D01*
X164571237Y-118161475D01*
X164655192Y-118162794D01*
X164722034Y-118163844D01*
X164722037Y-118163844D01*
X164729631Y-118163963D01*
X164884047Y-118128597D01*
X164954457Y-118093185D01*
X165018787Y-118060831D01*
X165018790Y-118060829D01*
X165025570Y-118057419D01*
X165031341Y-118052490D01*
X165031344Y-118052488D01*
X165140251Y-117959472D01*
X165140251Y-117959471D01*
X165146029Y-117954537D01*
X165238470Y-117825892D01*
X165297557Y-117678909D01*
X165319877Y-117522075D01*
X165320022Y-117508268D01*
X165300991Y-117351001D01*
X165244995Y-117202814D01*
X165179724Y-117107844D01*
X165159570Y-117078519D01*
X165159569Y-117078517D01*
X165155268Y-117072260D01*
X165036990Y-116966879D01*
X165029604Y-116962968D01*
X164903703Y-116896307D01*
X164903704Y-116896307D01*
X164896989Y-116892752D01*
X164743348Y-116854160D01*
X164735749Y-116854120D01*
X164735748Y-116854120D01*
X164669896Y-116853775D01*
X164584936Y-116853330D01*
X164577556Y-116855102D01*
X164577554Y-116855102D01*
X164438278Y-116888539D01*
X164438275Y-116888540D01*
X164430899Y-116890311D01*
X164290129Y-116962968D01*
X164170754Y-117067106D01*
X164079665Y-117196712D01*
X164058616Y-117250699D01*
X164027262Y-117331120D01*
X164022121Y-117344305D01*
X164021129Y-117351838D01*
X164021129Y-117351839D01*
X164014704Y-117400646D01*
X164001444Y-117501364D01*
X148741999Y-117501364D01*
X148741999Y-117324934D01*
X148727234Y-117250699D01*
X148712707Y-117228957D01*
X148677877Y-117176832D01*
X148670984Y-117166516D01*
X148586801Y-117110266D01*
X148512567Y-117095500D01*
X147637642Y-117095500D01*
X146762434Y-117095501D01*
X146726682Y-117102612D01*
X146700374Y-117107844D01*
X146700372Y-117107845D01*
X146688199Y-117110266D01*
X146677879Y-117117161D01*
X146677878Y-117117162D01*
X146617485Y-117157516D01*
X146604016Y-117166516D01*
X146547766Y-117250699D01*
X146533000Y-117324933D01*
X146533001Y-119075066D01*
X146547766Y-119149301D01*
X146604016Y-119233484D01*
X146688199Y-119289734D01*
X146762433Y-119304500D01*
X146939000Y-119304500D01*
X147007121Y-119324502D01*
X147053614Y-119378158D01*
X147063718Y-119448432D01*
X147034224Y-119513012D01*
X146997181Y-119542263D01*
X146915958Y-119584545D01*
X146907238Y-119590036D01*
X146736933Y-119717905D01*
X146729226Y-119724748D01*
X146582090Y-119878717D01*
X146575604Y-119886727D01*
X146455598Y-120062649D01*
X146450500Y-120071623D01*
X146360838Y-120264783D01*
X146357275Y-120274470D01*
X146301889Y-120474183D01*
X145358002Y-120474183D01*
X145358180Y-120472947D01*
X145316214Y-120305875D01*
X145312894Y-120296124D01*
X145227972Y-120100814D01*
X145223105Y-120091739D01*
X145107426Y-119912926D01*
X145101136Y-119904757D01*
X144957806Y-119747240D01*
X144950273Y-119740215D01*
X144783139Y-119608222D01*
X144774552Y-119602517D01*
X144662765Y-119540807D01*
X144612795Y-119490375D01*
X144598023Y-119420932D01*
X144623139Y-119354527D01*
X144680170Y-119312242D01*
X144723658Y-119304499D01*
X144900066Y-119304499D01*
X144935818Y-119297388D01*
X144962126Y-119292156D01*
X144962128Y-119292155D01*
X144974301Y-119289734D01*
X144984621Y-119282839D01*
X144984622Y-119282838D01*
X145048168Y-119240377D01*
X145058484Y-119233484D01*
X145114734Y-119149301D01*
X145129500Y-119075067D01*
X145129499Y-117324934D01*
X145114734Y-117250699D01*
X145100207Y-117228957D01*
X145065377Y-117176832D01*
X145058484Y-117166516D01*
X144974301Y-117110266D01*
X144900067Y-117095500D01*
X144025142Y-117095500D01*
X143149934Y-117095501D01*
X143114182Y-117102612D01*
X143087874Y-117107844D01*
X143087872Y-117107845D01*
X143075699Y-117110266D01*
X143065379Y-117117161D01*
X143065378Y-117117162D01*
X143004985Y-117157516D01*
X142991516Y-117166516D01*
X142935266Y-117250699D01*
X142920500Y-117324933D01*
X142920501Y-119075066D01*
X142935266Y-119149301D01*
X142991516Y-119233484D01*
X143075699Y-119289734D01*
X143149933Y-119304500D01*
X143326500Y-119304500D01*
X143394621Y-119324502D01*
X143441114Y-119378158D01*
X143451218Y-119448432D01*
X143421724Y-119513012D01*
X143384681Y-119542263D01*
X143303458Y-119584545D01*
X143294738Y-119590036D01*
X143124433Y-119717905D01*
X143116726Y-119724748D01*
X142969590Y-119878717D01*
X142963104Y-119886727D01*
X142843098Y-120062649D01*
X142838000Y-120071623D01*
X142748338Y-120264783D01*
X142744775Y-120274470D01*
X142689389Y-120474183D01*
X138316964Y-120474183D01*
X138268014Y-120402959D01*
X138268013Y-120402957D01*
X138263712Y-120396700D01*
X138145434Y-120291319D01*
X138138048Y-120287408D01*
X138083376Y-120258461D01*
X138005433Y-120217192D01*
X137851792Y-120178600D01*
X137844193Y-120178560D01*
X137844192Y-120178560D01*
X137778340Y-120178215D01*
X137693380Y-120177770D01*
X137686000Y-120179542D01*
X137685998Y-120179542D01*
X137546722Y-120212979D01*
X137546719Y-120212980D01*
X137539343Y-120214751D01*
X137398573Y-120287408D01*
X137279198Y-120391546D01*
X137188109Y-120521152D01*
X137130565Y-120668745D01*
X137109888Y-120825804D01*
X124650000Y-120825804D01*
X124650000Y-119933933D01*
X129703633Y-119933933D01*
X129712325Y-120012661D01*
X129719635Y-120078871D01*
X129721017Y-120091390D01*
X129723627Y-120098521D01*
X129723627Y-120098523D01*
X129765512Y-120212979D01*
X129775457Y-120240156D01*
X129779693Y-120246459D01*
X129779693Y-120246460D01*
X129858815Y-120364205D01*
X129863812Y-120371642D01*
X129869431Y-120376755D01*
X129869432Y-120376756D01*
X129975145Y-120472947D01*
X129980980Y-120478256D01*
X130120197Y-120553845D01*
X130273426Y-120594044D01*
X130357381Y-120595363D01*
X130424223Y-120596413D01*
X130424226Y-120596413D01*
X130431820Y-120596532D01*
X130586236Y-120561166D01*
X130678155Y-120514936D01*
X130720976Y-120493400D01*
X130720979Y-120493398D01*
X130727759Y-120489988D01*
X130733530Y-120485059D01*
X130733533Y-120485057D01*
X130842440Y-120392041D01*
X130842440Y-120392040D01*
X130848218Y-120387106D01*
X130940659Y-120258461D01*
X130999746Y-120111478D01*
X131022066Y-119954644D01*
X131022211Y-119940837D01*
X131003180Y-119783570D01*
X130947184Y-119635383D01*
X130857457Y-119504829D01*
X130739179Y-119399448D01*
X130731793Y-119395537D01*
X130605892Y-119328876D01*
X130605893Y-119328876D01*
X130599178Y-119325321D01*
X130445537Y-119286729D01*
X130437938Y-119286689D01*
X130437937Y-119286689D01*
X130372085Y-119286344D01*
X130287125Y-119285899D01*
X130279745Y-119287671D01*
X130279743Y-119287671D01*
X130140467Y-119321108D01*
X130140464Y-119321109D01*
X130133088Y-119322880D01*
X129992318Y-119395537D01*
X129872943Y-119499675D01*
X129781854Y-119629281D01*
X129724310Y-119776874D01*
X129723318Y-119784407D01*
X129723318Y-119784408D01*
X129706399Y-119912926D01*
X129703633Y-119933933D01*
X124650000Y-119933933D01*
X124650000Y-117393096D01*
X137215729Y-117393096D01*
X137224421Y-117471825D01*
X137230420Y-117526159D01*
X137233113Y-117550553D01*
X137235723Y-117557684D01*
X137235723Y-117557686D01*
X137263316Y-117633087D01*
X137287553Y-117699319D01*
X137375908Y-117830805D01*
X137381527Y-117835918D01*
X137381528Y-117835919D01*
X137392903Y-117846269D01*
X137493076Y-117937419D01*
X137632293Y-118013008D01*
X137785522Y-118053207D01*
X137869477Y-118054526D01*
X137936319Y-118055576D01*
X137936322Y-118055576D01*
X137943916Y-118055695D01*
X138098332Y-118020329D01*
X138198077Y-117970163D01*
X138233072Y-117952563D01*
X138233075Y-117952561D01*
X138239855Y-117949151D01*
X138245626Y-117944222D01*
X138245629Y-117944220D01*
X138354536Y-117851204D01*
X138354536Y-117851203D01*
X138360314Y-117846269D01*
X138452755Y-117717624D01*
X138511842Y-117570641D01*
X138534162Y-117413807D01*
X138534307Y-117400000D01*
X138515276Y-117242733D01*
X138459280Y-117094546D01*
X138411107Y-117024453D01*
X138373855Y-116970251D01*
X138373854Y-116970249D01*
X138369553Y-116963992D01*
X138251275Y-116858611D01*
X138243889Y-116854700D01*
X138117988Y-116788039D01*
X138117989Y-116788039D01*
X138111274Y-116784484D01*
X137957633Y-116745892D01*
X137950034Y-116745852D01*
X137950033Y-116745852D01*
X137884181Y-116745507D01*
X137799221Y-116745062D01*
X137791841Y-116746834D01*
X137791839Y-116746834D01*
X137652563Y-116780271D01*
X137652560Y-116780272D01*
X137645184Y-116782043D01*
X137504414Y-116854700D01*
X137385039Y-116958838D01*
X137293950Y-117088444D01*
X137266199Y-117159623D01*
X137246590Y-117209917D01*
X137236406Y-117236037D01*
X137235414Y-117243570D01*
X137235414Y-117243571D01*
X137221161Y-117351839D01*
X137215729Y-117393096D01*
X124650000Y-117393096D01*
X124650000Y-115690000D01*
X121598527Y-115690000D01*
X121498710Y-115678980D01*
X121491929Y-115678601D01*
X121140415Y-115677987D01*
X121133642Y-115678342D01*
X121024555Y-115690000D01*
X118413524Y-115690000D01*
X118413524Y-115503096D01*
X160200729Y-115503096D01*
X160218113Y-115660553D01*
X160220723Y-115667684D01*
X160220723Y-115667686D01*
X160268894Y-115799319D01*
X160272553Y-115809319D01*
X160276789Y-115815622D01*
X160276789Y-115815623D01*
X160346371Y-115919171D01*
X160360908Y-115940805D01*
X160366527Y-115945918D01*
X160366528Y-115945919D01*
X160374887Y-115953525D01*
X160478076Y-116047419D01*
X160617293Y-116123008D01*
X160770522Y-116163207D01*
X160854477Y-116164526D01*
X160921319Y-116165576D01*
X160921322Y-116165576D01*
X160928916Y-116165695D01*
X161083332Y-116130329D01*
X161153742Y-116094917D01*
X161218072Y-116062563D01*
X161218075Y-116062561D01*
X161224855Y-116059151D01*
X161230626Y-116054222D01*
X161230629Y-116054220D01*
X161339536Y-115961204D01*
X161339536Y-115961203D01*
X161345314Y-115956269D01*
X161367787Y-115924995D01*
X161423779Y-115881349D01*
X161494482Y-115874903D01*
X161557446Y-115907705D01*
X161566922Y-115918993D01*
X161567206Y-115918748D01*
X161572172Y-115924500D01*
X161576408Y-115930805D01*
X161582027Y-115935918D01*
X161582028Y-115935919D01*
X161606295Y-115958000D01*
X161693576Y-116037419D01*
X161832793Y-116113008D01*
X161986022Y-116153207D01*
X162069977Y-116154526D01*
X162136819Y-116155576D01*
X162136822Y-116155576D01*
X162144416Y-116155695D01*
X162298832Y-116120329D01*
X162399663Y-116069617D01*
X162433572Y-116052563D01*
X162433575Y-116052561D01*
X162440355Y-116049151D01*
X162446126Y-116044222D01*
X162446129Y-116044220D01*
X162555036Y-115951204D01*
X162555036Y-115951203D01*
X162560814Y-115946269D01*
X162653255Y-115817624D01*
X162712342Y-115670641D01*
X162730118Y-115545734D01*
X162734081Y-115517891D01*
X162734081Y-115517888D01*
X162734662Y-115513807D01*
X162734807Y-115500000D01*
X162715776Y-115342733D01*
X162659780Y-115194546D01*
X162653248Y-115185042D01*
X162574355Y-115070251D01*
X162574354Y-115070249D01*
X162570053Y-115063992D01*
X162451775Y-114958611D01*
X162444389Y-114954700D01*
X162332625Y-114895524D01*
X162311774Y-114884484D01*
X162158133Y-114845892D01*
X162150534Y-114845852D01*
X162150533Y-114845852D01*
X162084681Y-114845507D01*
X161999721Y-114845062D01*
X161992341Y-114846834D01*
X161992339Y-114846834D01*
X161853063Y-114880271D01*
X161853060Y-114880272D01*
X161845684Y-114882043D01*
X161704914Y-114954700D01*
X161585539Y-115058838D01*
X161581175Y-115065048D01*
X161581170Y-115065053D01*
X161567734Y-115084172D01*
X161512200Y-115128405D01*
X161441568Y-115135591D01*
X161378263Y-115103451D01*
X161360807Y-115083091D01*
X161358857Y-115080253D01*
X161358853Y-115080248D01*
X161354553Y-115073992D01*
X161331942Y-115053846D01*
X161241946Y-114973664D01*
X161236275Y-114968611D01*
X161228889Y-114964700D01*
X161102988Y-114898039D01*
X161102989Y-114898039D01*
X161096274Y-114894484D01*
X160942633Y-114855892D01*
X160935034Y-114855852D01*
X160935033Y-114855852D01*
X160869181Y-114855507D01*
X160784221Y-114855062D01*
X160776841Y-114856834D01*
X160776839Y-114856834D01*
X160637563Y-114890271D01*
X160637560Y-114890272D01*
X160630184Y-114892043D01*
X160489414Y-114964700D01*
X160370039Y-115068838D01*
X160278950Y-115198444D01*
X160221406Y-115346037D01*
X160220414Y-115353570D01*
X160220414Y-115353571D01*
X160202087Y-115492782D01*
X160200729Y-115503096D01*
X118413524Y-115503096D01*
X118413524Y-114315000D01*
X118685000Y-114315000D01*
X123350000Y-114315000D01*
X123350000Y-112150000D01*
X124690539Y-112150000D01*
X124710354Y-112401775D01*
X124711508Y-112406582D01*
X124711509Y-112406588D01*
X124748613Y-112561135D01*
X124769312Y-112647351D01*
X124771205Y-112651922D01*
X124771206Y-112651924D01*
X124859895Y-112866037D01*
X124865960Y-112880680D01*
X124997919Y-113096017D01*
X125161939Y-113288061D01*
X125353983Y-113452081D01*
X125569320Y-113584040D01*
X125573890Y-113585933D01*
X125573894Y-113585935D01*
X125793221Y-113676783D01*
X125802649Y-113680688D01*
X125888865Y-113701387D01*
X126043412Y-113738491D01*
X126043418Y-113738492D01*
X126048225Y-113739646D01*
X126136253Y-113746574D01*
X126234507Y-113754307D01*
X126234516Y-113754307D01*
X126236964Y-113754500D01*
X126963036Y-113754500D01*
X126965484Y-113754307D01*
X126965493Y-113754307D01*
X127063747Y-113746574D01*
X127151775Y-113739646D01*
X127156582Y-113738492D01*
X127156588Y-113738491D01*
X127311135Y-113701387D01*
X127397351Y-113680688D01*
X127406779Y-113676783D01*
X127626106Y-113585935D01*
X127626110Y-113585933D01*
X127630680Y-113584040D01*
X127846017Y-113452081D01*
X128038061Y-113288061D01*
X128202081Y-113096017D01*
X128246767Y-113023096D01*
X136740729Y-113023096D01*
X136749421Y-113101824D01*
X136756050Y-113161863D01*
X136758113Y-113180553D01*
X136760723Y-113187684D01*
X136760723Y-113187686D01*
X136803794Y-113305383D01*
X136812553Y-113329319D01*
X136816789Y-113335622D01*
X136816789Y-113335623D01*
X136892885Y-113448865D01*
X136900908Y-113460805D01*
X136906527Y-113465918D01*
X136906528Y-113465919D01*
X136917903Y-113476269D01*
X137018076Y-113567419D01*
X137157293Y-113643008D01*
X137310522Y-113683207D01*
X137394477Y-113684526D01*
X137461319Y-113685576D01*
X137461322Y-113685576D01*
X137468916Y-113685695D01*
X137596104Y-113656565D01*
X168262964Y-113656565D01*
X168280437Y-113822807D01*
X168283167Y-113835650D01*
X168334819Y-113994617D01*
X168340165Y-114006625D01*
X168356363Y-114034680D01*
X168366569Y-114044411D01*
X168374590Y-114041200D01*
X168752978Y-113662812D01*
X168760592Y-113648868D01*
X168760461Y-113647035D01*
X168756210Y-113640420D01*
X168562082Y-113446292D01*
X168530791Y-113388988D01*
X168493500Y-113375583D01*
X168478708Y-113362918D01*
X168378233Y-113262443D01*
X168365853Y-113255683D01*
X168358938Y-113260859D01*
X168340165Y-113293375D01*
X168334819Y-113305383D01*
X168283167Y-113464350D01*
X168280437Y-113477193D01*
X168262964Y-113643435D01*
X168262964Y-113656565D01*
X137596104Y-113656565D01*
X137623332Y-113650329D01*
X137711535Y-113605968D01*
X137758072Y-113582563D01*
X137758075Y-113582561D01*
X137764855Y-113579151D01*
X137770626Y-113574222D01*
X137770629Y-113574220D01*
X137879536Y-113481204D01*
X137879536Y-113481203D01*
X137885314Y-113476269D01*
X137977755Y-113347624D01*
X138036842Y-113200641D01*
X138049541Y-113111411D01*
X138058581Y-113047891D01*
X138058581Y-113047888D01*
X138059162Y-113043807D01*
X138059307Y-113030000D01*
X138040276Y-112872733D01*
X137984280Y-112724546D01*
X137975814Y-112712228D01*
X137900329Y-112602396D01*
X157460329Y-112602396D01*
X157477713Y-112759853D01*
X157480323Y-112766984D01*
X157480323Y-112766986D01*
X157519021Y-112872733D01*
X157532153Y-112908619D01*
X157620508Y-113040105D01*
X157626127Y-113045218D01*
X157626128Y-113045219D01*
X157691671Y-113104858D01*
X157737676Y-113146719D01*
X157876893Y-113222308D01*
X158030122Y-113262507D01*
X158114077Y-113263826D01*
X158180919Y-113264876D01*
X158180922Y-113264876D01*
X158188516Y-113264995D01*
X158342932Y-113229629D01*
X158440510Y-113180553D01*
X158477672Y-113161863D01*
X158477675Y-113161861D01*
X158484455Y-113158451D01*
X158490226Y-113153522D01*
X158490229Y-113153520D01*
X158599136Y-113060504D01*
X158599136Y-113060503D01*
X158604914Y-113055569D01*
X158697355Y-112926924D01*
X158756442Y-112779941D01*
X158778762Y-112623107D01*
X158778907Y-112609300D01*
X158759876Y-112452033D01*
X158703880Y-112303846D01*
X158670212Y-112254858D01*
X158618455Y-112179551D01*
X158618454Y-112179549D01*
X158614153Y-112173292D01*
X158495875Y-112067911D01*
X158488489Y-112064000D01*
X158362588Y-111997339D01*
X158362589Y-111997339D01*
X158355874Y-111993784D01*
X158202233Y-111955192D01*
X158194634Y-111955152D01*
X158194633Y-111955152D01*
X158128781Y-111954807D01*
X158043821Y-111954362D01*
X158036441Y-111956134D01*
X158036439Y-111956134D01*
X157897163Y-111989571D01*
X157897160Y-111989572D01*
X157889784Y-111991343D01*
X157749014Y-112064000D01*
X157629639Y-112168138D01*
X157538550Y-112297744D01*
X157524276Y-112334355D01*
X157485401Y-112434065D01*
X157481006Y-112445337D01*
X157480014Y-112452870D01*
X157480014Y-112452871D01*
X157462114Y-112588838D01*
X157460329Y-112602396D01*
X137900329Y-112602396D01*
X137898855Y-112600251D01*
X137898854Y-112600249D01*
X137894553Y-112593992D01*
X137776275Y-112488611D01*
X137768889Y-112484700D01*
X137642988Y-112418039D01*
X137642989Y-112418039D01*
X137636274Y-112414484D01*
X137482633Y-112375892D01*
X137475034Y-112375852D01*
X137475033Y-112375852D01*
X137409181Y-112375507D01*
X137324221Y-112375062D01*
X137316841Y-112376834D01*
X137316839Y-112376834D01*
X137177563Y-112410271D01*
X137177560Y-112410272D01*
X137170184Y-112412043D01*
X137029414Y-112484700D01*
X136910039Y-112588838D01*
X136818950Y-112718444D01*
X136761406Y-112866037D01*
X136760414Y-112873570D01*
X136760414Y-112873571D01*
X136749325Y-112957806D01*
X136740729Y-113023096D01*
X128246767Y-113023096D01*
X128334040Y-112880680D01*
X128340106Y-112866037D01*
X128428794Y-112651924D01*
X128428795Y-112651922D01*
X128430688Y-112647351D01*
X128451387Y-112561135D01*
X128488491Y-112406588D01*
X128488492Y-112406582D01*
X128489646Y-112401775D01*
X128509461Y-112150000D01*
X128489646Y-111898225D01*
X128488492Y-111893418D01*
X128488491Y-111893412D01*
X128445281Y-111713432D01*
X128430688Y-111652649D01*
X128428014Y-111646193D01*
X128335935Y-111423894D01*
X128335933Y-111423890D01*
X128334040Y-111419320D01*
X128297689Y-111360000D01*
X154660715Y-111360000D01*
X154661793Y-111368188D01*
X154668525Y-111419320D01*
X154679772Y-111504754D01*
X154735645Y-111639642D01*
X154824526Y-111755474D01*
X154831076Y-111760500D01*
X154831079Y-111760503D01*
X154933804Y-111839327D01*
X154940357Y-111844355D01*
X155075246Y-111900228D01*
X155220000Y-111919285D01*
X155228188Y-111918207D01*
X155356566Y-111901306D01*
X155364754Y-111900228D01*
X155486015Y-111850000D01*
X155990715Y-111850000D01*
X155991793Y-111858188D01*
X156004688Y-111956134D01*
X156009772Y-111994754D01*
X156012931Y-112002380D01*
X156062037Y-112120931D01*
X156065645Y-112129642D01*
X156154526Y-112245474D01*
X156161076Y-112250500D01*
X156161079Y-112250503D01*
X156263804Y-112329327D01*
X156270357Y-112334355D01*
X156405246Y-112390228D01*
X156550000Y-112409285D01*
X156558188Y-112408207D01*
X156686566Y-112391306D01*
X156694754Y-112390228D01*
X156829643Y-112334355D01*
X156836196Y-112329327D01*
X156938921Y-112250503D01*
X156938924Y-112250500D01*
X156945474Y-112245474D01*
X157034355Y-112129642D01*
X157037964Y-112120931D01*
X157087069Y-112002380D01*
X157090228Y-111994754D01*
X157095313Y-111956134D01*
X157108207Y-111858188D01*
X157109285Y-111850000D01*
X157090228Y-111705246D01*
X157034355Y-111570358D01*
X156977734Y-111496568D01*
X156950501Y-111461077D01*
X156950500Y-111461076D01*
X156945474Y-111454526D01*
X156938924Y-111449500D01*
X156938921Y-111449497D01*
X156836196Y-111370673D01*
X156836194Y-111370672D01*
X156829643Y-111365645D01*
X156694754Y-111309772D01*
X156630243Y-111301279D01*
X156558188Y-111291793D01*
X156550000Y-111290715D01*
X156541812Y-111291793D01*
X156413432Y-111308694D01*
X156413430Y-111308695D01*
X156405246Y-111309772D01*
X156357430Y-111329578D01*
X156277986Y-111362485D01*
X156277984Y-111362486D01*
X156270358Y-111365645D01*
X156154526Y-111454526D01*
X156065645Y-111570358D01*
X156009772Y-111705246D01*
X155990715Y-111850000D01*
X155486015Y-111850000D01*
X155499643Y-111844355D01*
X155506196Y-111839327D01*
X155608921Y-111760503D01*
X155608924Y-111760500D01*
X155615474Y-111755474D01*
X155704355Y-111639642D01*
X155760228Y-111504754D01*
X155771476Y-111419320D01*
X155778207Y-111368188D01*
X155779285Y-111360000D01*
X155774400Y-111322893D01*
X155761306Y-111223432D01*
X155761305Y-111223430D01*
X155760228Y-111215246D01*
X155710946Y-111096269D01*
X155707515Y-111087986D01*
X155707514Y-111087984D01*
X155704355Y-111080358D01*
X155649390Y-111008726D01*
X155620501Y-110971077D01*
X155620500Y-110971076D01*
X155615474Y-110964526D01*
X155608924Y-110959500D01*
X155608921Y-110959497D01*
X155506196Y-110880673D01*
X155506194Y-110880672D01*
X155499643Y-110875645D01*
X155364754Y-110819772D01*
X155220000Y-110800715D01*
X155211812Y-110801793D01*
X155083432Y-110818694D01*
X155083430Y-110818695D01*
X155075246Y-110819772D01*
X155027430Y-110839578D01*
X154947986Y-110872485D01*
X154947984Y-110872486D01*
X154940358Y-110875645D01*
X154824526Y-110964526D01*
X154735645Y-111080358D01*
X154732486Y-111087984D01*
X154732485Y-111087986D01*
X154729054Y-111096269D01*
X154679772Y-111215246D01*
X154678695Y-111223430D01*
X154678694Y-111223432D01*
X154665600Y-111322893D01*
X154660715Y-111360000D01*
X128297689Y-111360000D01*
X128202081Y-111203983D01*
X128038061Y-111011939D01*
X127846017Y-110847919D01*
X127630680Y-110715960D01*
X127626110Y-110714067D01*
X127626106Y-110714065D01*
X127454771Y-110643096D01*
X144715729Y-110643096D01*
X144720409Y-110685483D01*
X144731793Y-110788594D01*
X144733113Y-110800553D01*
X144735723Y-110807684D01*
X144735723Y-110807686D01*
X144780143Y-110929069D01*
X144787553Y-110949319D01*
X144791789Y-110955622D01*
X144791789Y-110955623D01*
X144871206Y-111073807D01*
X144875908Y-111080805D01*
X144881527Y-111085918D01*
X144881528Y-111085919D01*
X144987460Y-111182309D01*
X144993076Y-111187419D01*
X145132293Y-111263008D01*
X145285522Y-111303207D01*
X145369477Y-111304526D01*
X145436319Y-111305576D01*
X145436322Y-111305576D01*
X145443916Y-111305695D01*
X145598332Y-111270329D01*
X145668742Y-111234917D01*
X145733072Y-111202563D01*
X145733075Y-111202561D01*
X145739855Y-111199151D01*
X145745626Y-111194222D01*
X145745629Y-111194220D01*
X145854536Y-111101204D01*
X145854536Y-111101203D01*
X145860314Y-111096269D01*
X145952755Y-110967624D01*
X145955589Y-110960574D01*
X145957102Y-110957822D01*
X146007448Y-110907764D01*
X146076865Y-110892871D01*
X146143314Y-110917873D01*
X146152315Y-110925330D01*
X146178679Y-110949319D01*
X146193076Y-110962419D01*
X146332293Y-111038008D01*
X146485522Y-111078207D01*
X146569477Y-111079526D01*
X146636319Y-111080576D01*
X146636322Y-111080576D01*
X146643916Y-111080695D01*
X146798332Y-111045329D01*
X146871110Y-111008726D01*
X146933072Y-110977563D01*
X146933075Y-110977561D01*
X146939855Y-110974151D01*
X146945626Y-110969222D01*
X146945629Y-110969220D01*
X147054536Y-110876204D01*
X147054536Y-110876203D01*
X147060314Y-110871269D01*
X147152755Y-110742624D01*
X147211842Y-110595641D01*
X147225165Y-110502024D01*
X147233581Y-110442891D01*
X147233581Y-110442888D01*
X147234162Y-110438807D01*
X147234231Y-110432265D01*
X147234264Y-110429134D01*
X147234264Y-110429128D01*
X147234307Y-110425000D01*
X147233150Y-110415434D01*
X147228659Y-110378326D01*
X147215276Y-110267733D01*
X147159280Y-110119546D01*
X147111923Y-110050641D01*
X147073855Y-109995251D01*
X147073854Y-109995249D01*
X147069553Y-109988992D01*
X146951275Y-109883611D01*
X146943889Y-109879700D01*
X146860377Y-109835483D01*
X146811274Y-109809484D01*
X146657633Y-109770892D01*
X146650034Y-109770852D01*
X146650033Y-109770852D01*
X146584181Y-109770507D01*
X146499221Y-109770062D01*
X146491841Y-109771834D01*
X146491839Y-109771834D01*
X146352563Y-109805271D01*
X146352560Y-109805272D01*
X146345184Y-109807043D01*
X146204414Y-109879700D01*
X146085039Y-109983838D01*
X145993950Y-110113444D01*
X145992445Y-110117304D01*
X145943657Y-110166838D01*
X145874399Y-110182456D01*
X145807693Y-110158150D01*
X145798615Y-110150789D01*
X145775981Y-110130623D01*
X145751275Y-110108611D01*
X145743889Y-110104700D01*
X145695480Y-110079069D01*
X145611274Y-110034484D01*
X145457633Y-109995892D01*
X145450034Y-109995852D01*
X145450033Y-109995852D01*
X145384181Y-109995507D01*
X145299221Y-109995062D01*
X145291841Y-109996834D01*
X145291839Y-109996834D01*
X145152563Y-110030271D01*
X145152560Y-110030272D01*
X145145184Y-110032043D01*
X145004414Y-110104700D01*
X144885039Y-110208838D01*
X144793950Y-110338444D01*
X144777477Y-110380695D01*
X144739459Y-110478207D01*
X144736406Y-110486037D01*
X144735414Y-110493570D01*
X144735414Y-110493571D01*
X144718611Y-110621206D01*
X144715729Y-110643096D01*
X127454771Y-110643096D01*
X127401924Y-110621206D01*
X127401922Y-110621205D01*
X127397351Y-110619312D01*
X127298755Y-110595641D01*
X127156588Y-110561509D01*
X127156582Y-110561508D01*
X127151775Y-110560354D01*
X127063747Y-110553426D01*
X126965493Y-110545693D01*
X126965484Y-110545693D01*
X126963036Y-110545500D01*
X126236964Y-110545500D01*
X126234516Y-110545693D01*
X126234507Y-110545693D01*
X126136253Y-110553426D01*
X126048225Y-110560354D01*
X126043418Y-110561508D01*
X126043412Y-110561509D01*
X125901245Y-110595641D01*
X125802649Y-110619312D01*
X125798078Y-110621205D01*
X125798076Y-110621206D01*
X125573894Y-110714065D01*
X125573890Y-110714067D01*
X125569320Y-110715960D01*
X125353983Y-110847919D01*
X125161939Y-111011939D01*
X124997919Y-111203983D01*
X124865960Y-111419320D01*
X124864067Y-111423890D01*
X124864065Y-111423894D01*
X124771986Y-111646193D01*
X124769312Y-111652649D01*
X124754719Y-111713432D01*
X124711509Y-111893412D01*
X124711508Y-111893418D01*
X124710354Y-111898225D01*
X124690539Y-112150000D01*
X123350000Y-112150000D01*
X123350000Y-109718096D01*
X133840729Y-109718096D01*
X133845720Y-109763299D01*
X133853601Y-109834682D01*
X133858113Y-109875553D01*
X133860723Y-109882684D01*
X133860723Y-109882686D01*
X133904640Y-110002695D01*
X133912553Y-110024319D01*
X133916789Y-110030622D01*
X133916789Y-110030623D01*
X133972443Y-110113444D01*
X134000908Y-110155805D01*
X134006527Y-110160918D01*
X134006528Y-110160919D01*
X134110807Y-110255805D01*
X134118076Y-110262419D01*
X134257293Y-110338008D01*
X134410522Y-110378207D01*
X134494477Y-110379526D01*
X134561319Y-110380576D01*
X134561322Y-110380576D01*
X134568916Y-110380695D01*
X134723332Y-110345329D01*
X134793742Y-110309917D01*
X134858072Y-110277563D01*
X134858075Y-110277561D01*
X134864855Y-110274151D01*
X134870626Y-110269222D01*
X134870629Y-110269220D01*
X134979536Y-110176204D01*
X134979536Y-110176203D01*
X134985314Y-110171269D01*
X135077755Y-110042624D01*
X135136842Y-109895641D01*
X135147878Y-109818096D01*
X142940729Y-109818096D01*
X142947570Y-109880055D01*
X142954033Y-109938594D01*
X142958113Y-109975553D01*
X142960723Y-109982684D01*
X142960723Y-109982686D01*
X143006805Y-110108611D01*
X143012553Y-110124319D01*
X143016789Y-110130622D01*
X143016789Y-110130623D01*
X143057073Y-110190571D01*
X143100908Y-110255805D01*
X143106527Y-110260918D01*
X143106528Y-110260919D01*
X143201157Y-110347024D01*
X143218076Y-110362419D01*
X143357293Y-110438008D01*
X143510522Y-110478207D01*
X143594477Y-110479526D01*
X143661319Y-110480576D01*
X143661322Y-110480576D01*
X143668916Y-110480695D01*
X143823332Y-110445329D01*
X143914211Y-110399622D01*
X143958072Y-110377563D01*
X143958075Y-110377561D01*
X143964855Y-110374151D01*
X143970626Y-110369222D01*
X143970629Y-110369220D01*
X144079536Y-110276204D01*
X144079536Y-110276203D01*
X144085314Y-110271269D01*
X144177755Y-110142624D01*
X144236842Y-109995641D01*
X144250211Y-109901704D01*
X144258581Y-109842891D01*
X144258581Y-109842888D01*
X144259162Y-109838807D01*
X144259307Y-109825000D01*
X144258039Y-109814517D01*
X144252759Y-109770892D01*
X144240276Y-109667733D01*
X144184280Y-109519546D01*
X144136655Y-109450251D01*
X144098855Y-109395251D01*
X144098854Y-109395249D01*
X144094553Y-109388992D01*
X144086093Y-109381454D01*
X144048605Y-109348054D01*
X143976275Y-109283611D01*
X143968889Y-109279700D01*
X143865767Y-109225100D01*
X143836274Y-109209484D01*
X143682633Y-109170892D01*
X143675034Y-109170852D01*
X143675033Y-109170852D01*
X143609181Y-109170507D01*
X143524221Y-109170062D01*
X143516841Y-109171834D01*
X143516839Y-109171834D01*
X143377563Y-109205271D01*
X143377560Y-109205272D01*
X143370184Y-109207043D01*
X143229414Y-109279700D01*
X143110039Y-109383838D01*
X143018950Y-109513444D01*
X142997457Y-109568571D01*
X142964337Y-109653520D01*
X142961406Y-109661037D01*
X142960414Y-109668570D01*
X142960414Y-109668571D01*
X142941726Y-109810524D01*
X142940729Y-109818096D01*
X135147878Y-109818096D01*
X135150012Y-109803103D01*
X135158581Y-109742891D01*
X135158581Y-109742888D01*
X135159162Y-109738807D01*
X135159252Y-109730273D01*
X135159264Y-109729134D01*
X135159264Y-109729128D01*
X135159307Y-109725000D01*
X135140276Y-109567733D01*
X135084280Y-109419546D01*
X135061180Y-109385935D01*
X134998855Y-109295251D01*
X134998854Y-109295249D01*
X134994553Y-109288992D01*
X134988514Y-109283611D01*
X134925808Y-109227743D01*
X134876275Y-109183611D01*
X134868889Y-109179700D01*
X134810480Y-109148774D01*
X134736274Y-109109484D01*
X134582633Y-109070892D01*
X134575034Y-109070852D01*
X134575033Y-109070852D01*
X134509181Y-109070507D01*
X134424221Y-109070062D01*
X134416841Y-109071834D01*
X134416839Y-109071834D01*
X134277563Y-109105271D01*
X134277560Y-109105272D01*
X134270184Y-109107043D01*
X134129414Y-109179700D01*
X134010039Y-109283838D01*
X133918950Y-109413444D01*
X133909009Y-109438941D01*
X133865857Y-109549622D01*
X133861406Y-109561037D01*
X133860414Y-109568570D01*
X133860414Y-109568571D01*
X133842472Y-109704858D01*
X133840729Y-109718096D01*
X123350000Y-109718096D01*
X123350000Y-107950000D01*
X124690539Y-107950000D01*
X124710354Y-108201775D01*
X124711508Y-108206582D01*
X124711509Y-108206588D01*
X124742005Y-108333611D01*
X124769312Y-108447351D01*
X124771205Y-108451922D01*
X124771206Y-108451924D01*
X124863339Y-108674352D01*
X124865960Y-108680680D01*
X124997919Y-108896017D01*
X125161939Y-109088061D01*
X125353983Y-109252081D01*
X125569320Y-109384040D01*
X125573890Y-109385933D01*
X125573894Y-109385935D01*
X125798076Y-109478794D01*
X125802649Y-109480688D01*
X125863633Y-109495329D01*
X126043412Y-109538491D01*
X126043418Y-109538492D01*
X126048225Y-109539646D01*
X126136253Y-109546574D01*
X126234507Y-109554307D01*
X126234516Y-109554307D01*
X126236964Y-109554500D01*
X126963036Y-109554500D01*
X126965484Y-109554307D01*
X126965493Y-109554307D01*
X127063747Y-109546574D01*
X127151775Y-109539646D01*
X127156582Y-109538492D01*
X127156588Y-109538491D01*
X127336367Y-109495329D01*
X127397351Y-109480688D01*
X127401924Y-109478794D01*
X127626106Y-109385935D01*
X127626110Y-109385933D01*
X127630680Y-109384040D01*
X127846017Y-109252081D01*
X128038061Y-109088061D01*
X128202081Y-108896017D01*
X128219191Y-108868096D01*
X149297029Y-108868096D01*
X149302311Y-108915935D01*
X149312560Y-109008765D01*
X149314413Y-109025553D01*
X149317023Y-109032684D01*
X149317023Y-109032686D01*
X149362053Y-109155736D01*
X149368853Y-109174319D01*
X149373089Y-109180622D01*
X149373089Y-109180623D01*
X149443019Y-109284689D01*
X149457208Y-109305805D01*
X149462827Y-109310918D01*
X149462828Y-109310919D01*
X149563412Y-109402443D01*
X149574376Y-109412419D01*
X149713593Y-109488008D01*
X149866822Y-109528207D01*
X149952506Y-109529553D01*
X150017620Y-109530576D01*
X150017623Y-109530576D01*
X150025216Y-109530695D01*
X150028571Y-109529927D01*
X150096668Y-109542382D01*
X150148514Y-109590886D01*
X150165906Y-109659719D01*
X150157391Y-109700685D01*
X150154167Y-109708955D01*
X150151406Y-109716037D01*
X150150414Y-109723570D01*
X150150414Y-109723571D01*
X150134706Y-109842891D01*
X150130729Y-109873096D01*
X150133997Y-109902695D01*
X150144491Y-109997743D01*
X150148113Y-110030553D01*
X150150723Y-110037684D01*
X150150723Y-110037686D01*
X150197986Y-110166838D01*
X150202553Y-110179319D01*
X150206789Y-110185622D01*
X150206789Y-110185623D01*
X150282213Y-110297865D01*
X150290908Y-110310805D01*
X150296527Y-110315918D01*
X150296528Y-110315919D01*
X150397511Y-110407806D01*
X150408076Y-110417419D01*
X150547293Y-110493008D01*
X150700522Y-110533207D01*
X150784477Y-110534526D01*
X150851319Y-110535576D01*
X150851322Y-110535576D01*
X150858916Y-110535695D01*
X151013332Y-110500329D01*
X151099286Y-110457099D01*
X151148072Y-110432563D01*
X151148075Y-110432561D01*
X151154855Y-110429151D01*
X151160626Y-110424222D01*
X151160629Y-110424220D01*
X151269536Y-110331204D01*
X151269536Y-110331203D01*
X151275314Y-110326269D01*
X151367755Y-110197624D01*
X151426842Y-110050641D01*
X151435740Y-109988115D01*
X151448581Y-109897891D01*
X151448581Y-109897888D01*
X151449162Y-109893807D01*
X151449307Y-109880000D01*
X151430276Y-109722733D01*
X151374280Y-109574546D01*
X151342432Y-109528207D01*
X151288855Y-109450251D01*
X151288854Y-109450249D01*
X151284553Y-109443992D01*
X151265088Y-109426649D01*
X151225987Y-109391812D01*
X151166275Y-109338611D01*
X151026274Y-109264484D01*
X150872633Y-109225892D01*
X150865034Y-109225852D01*
X150865033Y-109225852D01*
X150790155Y-109225460D01*
X150714221Y-109225062D01*
X150714227Y-109223862D01*
X150651620Y-109213090D01*
X150599267Y-109165135D01*
X150582711Y-109102396D01*
X165885329Y-109102396D01*
X165891218Y-109155736D01*
X165901855Y-109252081D01*
X165902713Y-109259853D01*
X165905323Y-109266984D01*
X165905323Y-109266986D01*
X165951003Y-109391812D01*
X165957153Y-109408619D01*
X165961389Y-109414922D01*
X165961389Y-109414923D01*
X166027593Y-109513444D01*
X166045508Y-109540105D01*
X166051127Y-109545218D01*
X166051128Y-109545219D01*
X166101316Y-109590886D01*
X166162676Y-109646719D01*
X166301893Y-109722308D01*
X166455122Y-109762507D01*
X166539077Y-109763826D01*
X166605919Y-109764876D01*
X166605922Y-109764876D01*
X166613516Y-109764995D01*
X166767932Y-109729629D01*
X166876008Y-109675273D01*
X166902672Y-109661863D01*
X166902675Y-109661861D01*
X166909455Y-109658451D01*
X166915226Y-109653522D01*
X166915229Y-109653520D01*
X167024136Y-109560504D01*
X167024136Y-109560503D01*
X167029914Y-109555569D01*
X167122355Y-109426924D01*
X167181442Y-109279941D01*
X167191469Y-109209484D01*
X167203181Y-109127191D01*
X167203181Y-109127188D01*
X167203762Y-109123107D01*
X167203907Y-109109300D01*
X167184876Y-108952033D01*
X167128880Y-108803846D01*
X167075237Y-108725794D01*
X167043455Y-108679551D01*
X167043454Y-108679549D01*
X167039153Y-108673292D01*
X166920875Y-108567911D01*
X166913489Y-108564000D01*
X166787588Y-108497339D01*
X166787589Y-108497339D01*
X166780874Y-108493784D01*
X166627233Y-108455192D01*
X166619634Y-108455152D01*
X166619633Y-108455152D01*
X166553781Y-108454807D01*
X166468821Y-108454362D01*
X166461441Y-108456134D01*
X166461439Y-108456134D01*
X166322163Y-108489571D01*
X166322160Y-108489572D01*
X166314784Y-108491343D01*
X166174014Y-108564000D01*
X166054639Y-108668138D01*
X165963550Y-108797744D01*
X165906006Y-108945337D01*
X165905014Y-108952870D01*
X165905014Y-108952871D01*
X165889233Y-109072743D01*
X165885329Y-109102396D01*
X150582711Y-109102396D01*
X150581152Y-109096489D01*
X150588709Y-109060124D01*
X150588342Y-109060026D01*
X150590067Y-109053587D01*
X150590195Y-109052971D01*
X150593142Y-109045641D01*
X150607475Y-108944931D01*
X150614881Y-108892891D01*
X150614881Y-108892888D01*
X150615462Y-108888807D01*
X150615607Y-108875000D01*
X150596576Y-108717733D01*
X150540580Y-108569546D01*
X150489225Y-108494824D01*
X150455155Y-108445251D01*
X150455154Y-108445249D01*
X150450853Y-108438992D01*
X150332575Y-108333611D01*
X150325189Y-108329700D01*
X150199288Y-108263039D01*
X150199289Y-108263039D01*
X150192574Y-108259484D01*
X150038933Y-108220892D01*
X150031334Y-108220852D01*
X150031333Y-108220852D01*
X149965481Y-108220507D01*
X149880521Y-108220062D01*
X149873141Y-108221834D01*
X149873139Y-108221834D01*
X149733863Y-108255271D01*
X149733860Y-108255272D01*
X149726484Y-108257043D01*
X149585714Y-108329700D01*
X149466339Y-108433838D01*
X149375250Y-108563444D01*
X149370102Y-108576649D01*
X149322057Y-108699878D01*
X149317706Y-108711037D01*
X149316714Y-108718570D01*
X149316714Y-108718571D01*
X149298772Y-108854858D01*
X149297029Y-108868096D01*
X128219191Y-108868096D01*
X128334040Y-108680680D01*
X128336662Y-108674352D01*
X128428794Y-108451924D01*
X128428795Y-108451922D01*
X128430688Y-108447351D01*
X128457995Y-108333611D01*
X128488491Y-108206588D01*
X128488492Y-108206582D01*
X128489646Y-108201775D01*
X128509461Y-107950000D01*
X128489646Y-107698225D01*
X128488492Y-107693418D01*
X128488491Y-107693412D01*
X128445501Y-107514350D01*
X128430688Y-107452649D01*
X128421574Y-107430646D01*
X128335935Y-107223894D01*
X128335933Y-107223890D01*
X128334040Y-107219320D01*
X128202081Y-107003983D01*
X128086023Y-106868096D01*
X150340729Y-106868096D01*
X150347796Y-106932108D01*
X150355732Y-107003983D01*
X150358113Y-107025553D01*
X150360723Y-107032684D01*
X150360723Y-107032686D01*
X150401390Y-107143813D01*
X150412553Y-107174319D01*
X150416789Y-107180622D01*
X150416789Y-107180623D01*
X150479248Y-107273571D01*
X150500908Y-107305805D01*
X150506527Y-107310918D01*
X150506528Y-107310919D01*
X150517903Y-107321269D01*
X150618076Y-107412419D01*
X150757293Y-107488008D01*
X150910522Y-107528207D01*
X150994477Y-107529526D01*
X151061319Y-107530576D01*
X151061322Y-107530576D01*
X151068916Y-107530695D01*
X151223332Y-107495329D01*
X151298625Y-107457461D01*
X151358072Y-107427563D01*
X151358075Y-107427561D01*
X151364855Y-107424151D01*
X151370626Y-107419222D01*
X151370629Y-107419220D01*
X151479536Y-107326204D01*
X151479536Y-107326203D01*
X151485314Y-107321269D01*
X151577755Y-107192624D01*
X151636842Y-107045641D01*
X151644042Y-106995052D01*
X151658581Y-106892891D01*
X151658581Y-106892888D01*
X151659162Y-106888807D01*
X151659307Y-106875000D01*
X151640276Y-106717733D01*
X151584280Y-106569546D01*
X151549229Y-106518546D01*
X151498855Y-106445251D01*
X151498854Y-106445249D01*
X151494553Y-106438992D01*
X151472465Y-106419312D01*
X151438347Y-106388915D01*
X151376275Y-106333611D01*
X151368889Y-106329700D01*
X151254373Y-106269067D01*
X151236274Y-106259484D01*
X151082633Y-106220892D01*
X151075034Y-106220852D01*
X151075033Y-106220852D01*
X151009181Y-106220507D01*
X150924221Y-106220062D01*
X150916841Y-106221834D01*
X150916839Y-106221834D01*
X150777563Y-106255271D01*
X150777560Y-106255272D01*
X150770184Y-106257043D01*
X150629414Y-106329700D01*
X150510039Y-106433838D01*
X150418950Y-106563444D01*
X150402434Y-106605805D01*
X150370471Y-106687787D01*
X150361406Y-106711037D01*
X150360414Y-106718570D01*
X150360414Y-106718571D01*
X150343555Y-106846633D01*
X150340729Y-106868096D01*
X128086023Y-106868096D01*
X128038061Y-106811939D01*
X127846017Y-106647919D01*
X127630680Y-106515960D01*
X127626110Y-106514067D01*
X127626106Y-106514065D01*
X127401924Y-106421206D01*
X127401922Y-106421205D01*
X127397351Y-106419312D01*
X127291524Y-106393905D01*
X127156588Y-106361509D01*
X127156582Y-106361508D01*
X127151775Y-106360354D01*
X127054458Y-106352695D01*
X126965493Y-106345693D01*
X126965484Y-106345693D01*
X126963036Y-106345500D01*
X126236964Y-106345500D01*
X126234516Y-106345693D01*
X126234507Y-106345693D01*
X126145542Y-106352695D01*
X126048225Y-106360354D01*
X126043418Y-106361508D01*
X126043412Y-106361509D01*
X125908476Y-106393905D01*
X125802649Y-106419312D01*
X125798078Y-106421205D01*
X125798076Y-106421206D01*
X125573894Y-106514065D01*
X125573890Y-106514067D01*
X125569320Y-106515960D01*
X125353983Y-106647919D01*
X125161939Y-106811939D01*
X124997919Y-107003983D01*
X124865960Y-107219320D01*
X124864067Y-107223890D01*
X124864065Y-107223894D01*
X124778426Y-107430646D01*
X124769312Y-107452649D01*
X124754499Y-107514350D01*
X124711509Y-107693412D01*
X124711508Y-107693418D01*
X124710354Y-107698225D01*
X124690539Y-107950000D01*
X123350000Y-107950000D01*
X123350000Y-106168096D01*
X153840729Y-106168096D01*
X153848928Y-106242363D01*
X153850720Y-106258586D01*
X153858113Y-106325553D01*
X153860723Y-106332684D01*
X153860723Y-106332686D01*
X153901916Y-106445251D01*
X153912553Y-106474319D01*
X153916789Y-106480622D01*
X153916789Y-106480623D01*
X153972443Y-106563444D01*
X154000908Y-106605805D01*
X154006527Y-106610918D01*
X154006528Y-106610919D01*
X154108776Y-106703957D01*
X154118076Y-106712419D01*
X154124749Y-106716042D01*
X154130943Y-106720444D01*
X154128988Y-106723195D01*
X154168586Y-106762574D01*
X154183869Y-106831906D01*
X154159243Y-106898494D01*
X154140996Y-106918214D01*
X154060039Y-106988838D01*
X153968950Y-107118444D01*
X153911406Y-107266037D01*
X153910414Y-107273570D01*
X153910414Y-107273571D01*
X153892135Y-107412419D01*
X153890729Y-107423096D01*
X153908113Y-107580553D01*
X153910723Y-107587684D01*
X153910723Y-107587686D01*
X153951410Y-107698868D01*
X153962553Y-107729319D01*
X154050908Y-107860805D01*
X154056527Y-107865918D01*
X154056528Y-107865919D01*
X154162460Y-107962309D01*
X154168076Y-107967419D01*
X154307293Y-108043008D01*
X154460522Y-108083207D01*
X154544477Y-108084526D01*
X154611319Y-108085576D01*
X154611322Y-108085576D01*
X154618916Y-108085695D01*
X154773332Y-108050329D01*
X154843742Y-108014917D01*
X154908072Y-107982563D01*
X154908075Y-107982561D01*
X154914855Y-107979151D01*
X154920626Y-107974222D01*
X154920629Y-107974220D01*
X155029536Y-107881204D01*
X155029536Y-107881203D01*
X155035314Y-107876269D01*
X155127755Y-107747624D01*
X155144261Y-107706565D01*
X168262964Y-107706565D01*
X168280437Y-107872807D01*
X168283167Y-107885650D01*
X168334819Y-108044617D01*
X168340165Y-108056625D01*
X168356363Y-108084680D01*
X168366569Y-108094411D01*
X168374590Y-108091200D01*
X168478708Y-107987082D01*
X168536012Y-107955791D01*
X168549417Y-107918500D01*
X168562082Y-107903708D01*
X168752978Y-107712812D01*
X168760592Y-107698868D01*
X168760461Y-107697035D01*
X168756210Y-107690420D01*
X168378233Y-107312443D01*
X168365853Y-107305683D01*
X168358938Y-107310859D01*
X168340165Y-107343375D01*
X168334819Y-107355383D01*
X168283167Y-107514350D01*
X168280437Y-107527193D01*
X168262964Y-107693435D01*
X168262964Y-107706565D01*
X155144261Y-107706565D01*
X155186842Y-107600641D01*
X155202315Y-107491916D01*
X155208581Y-107447891D01*
X155208581Y-107447888D01*
X155209162Y-107443807D01*
X155209307Y-107430000D01*
X155205789Y-107400924D01*
X155202430Y-107373173D01*
X155190276Y-107272733D01*
X155134280Y-107124546D01*
X155099749Y-107074303D01*
X155048855Y-107000251D01*
X155048854Y-107000249D01*
X155044553Y-106993992D01*
X154926275Y-106888611D01*
X154919623Y-106885089D01*
X154875119Y-106829813D01*
X154867561Y-106759220D01*
X154899368Y-106695747D01*
X154909718Y-106685835D01*
X154944275Y-106656319D01*
X154985314Y-106621269D01*
X155077755Y-106492624D01*
X155136842Y-106345641D01*
X155154020Y-106224940D01*
X155158581Y-106192891D01*
X155158581Y-106192888D01*
X155159162Y-106188807D01*
X155159307Y-106175000D01*
X155140276Y-106017733D01*
X155084280Y-105869546D01*
X155067712Y-105845440D01*
X155044014Y-105810959D01*
X159774434Y-105810959D01*
X159791818Y-105968416D01*
X159794428Y-105975547D01*
X159794428Y-105975549D01*
X159842725Y-106107527D01*
X159846258Y-106117182D01*
X159850494Y-106123485D01*
X159850494Y-106123486D01*
X159915391Y-106220062D01*
X159934613Y-106248668D01*
X159940232Y-106253781D01*
X159940233Y-106253782D01*
X160041243Y-106345693D01*
X160051781Y-106355282D01*
X160190998Y-106430871D01*
X160344227Y-106471070D01*
X160428182Y-106472389D01*
X160495024Y-106473439D01*
X160495027Y-106473439D01*
X160502621Y-106473558D01*
X160657037Y-106438192D01*
X160745093Y-106393905D01*
X160791777Y-106370426D01*
X160791780Y-106370424D01*
X160798560Y-106367014D01*
X160804331Y-106362085D01*
X160804334Y-106362083D01*
X160913241Y-106269067D01*
X160913241Y-106269066D01*
X160919019Y-106264132D01*
X161011460Y-106135487D01*
X161034381Y-106078470D01*
X168435749Y-106078470D01*
X168436183Y-106092564D01*
X168444364Y-106096000D01*
X169832885Y-106096000D01*
X169848124Y-106091525D01*
X169849329Y-106090135D01*
X169851000Y-106082452D01*
X169851000Y-106077885D01*
X170359000Y-106077885D01*
X170363475Y-106093124D01*
X170364865Y-106094329D01*
X170372548Y-106096000D01*
X171764229Y-106096000D01*
X171777760Y-106092027D01*
X171778637Y-106085925D01*
X171775894Y-106078470D01*
X172165749Y-106078470D01*
X172166183Y-106092564D01*
X172174364Y-106096000D01*
X173212885Y-106096000D01*
X173228124Y-106091525D01*
X173229329Y-106090135D01*
X173231000Y-106082452D01*
X173231000Y-105410115D01*
X173226525Y-105394876D01*
X173225135Y-105393671D01*
X173217452Y-105392000D01*
X173039553Y-105392000D01*
X173033178Y-105392323D01*
X172897723Y-105406082D01*
X172885283Y-105408636D01*
X172711756Y-105463016D01*
X172700068Y-105468025D01*
X172541021Y-105556187D01*
X172530588Y-105563438D01*
X172392509Y-105681785D01*
X172383756Y-105690976D01*
X172272289Y-105834680D01*
X172265565Y-105845440D01*
X172185268Y-106008625D01*
X172180845Y-106020519D01*
X172165749Y-106078470D01*
X171775894Y-106078470D01*
X171722690Y-105933864D01*
X171717123Y-105922451D01*
X171621292Y-105767892D01*
X171613540Y-105757826D01*
X171488592Y-105625697D01*
X171478974Y-105617395D01*
X171330013Y-105513092D01*
X171318919Y-105506892D01*
X171152020Y-105434668D01*
X171139917Y-105430829D01*
X170960400Y-105393325D01*
X170950848Y-105392085D01*
X170947616Y-105392000D01*
X170377115Y-105392000D01*
X170361876Y-105396475D01*
X170360671Y-105397865D01*
X170359000Y-105405548D01*
X170359000Y-106077885D01*
X169851000Y-106077885D01*
X169851000Y-105410115D01*
X169846525Y-105394876D01*
X169845135Y-105393671D01*
X169837452Y-105392000D01*
X169309553Y-105392000D01*
X169303178Y-105392323D01*
X169167723Y-105406082D01*
X169155283Y-105408636D01*
X168981756Y-105463016D01*
X168970068Y-105468025D01*
X168811021Y-105556187D01*
X168800588Y-105563438D01*
X168662509Y-105681785D01*
X168653756Y-105690976D01*
X168542289Y-105834680D01*
X168535565Y-105845440D01*
X168455268Y-106008625D01*
X168450845Y-106020519D01*
X168435749Y-106078470D01*
X161034381Y-106078470D01*
X161070547Y-105988504D01*
X161086466Y-105876649D01*
X161092286Y-105835754D01*
X161092286Y-105835751D01*
X161092867Y-105831670D01*
X161093012Y-105817863D01*
X161073981Y-105660596D01*
X161017985Y-105512409D01*
X160961917Y-105430829D01*
X160932560Y-105388114D01*
X160932559Y-105388112D01*
X160928258Y-105381855D01*
X160809980Y-105276474D01*
X160802594Y-105272563D01*
X160676693Y-105205902D01*
X160676694Y-105205902D01*
X160669979Y-105202347D01*
X160516338Y-105163755D01*
X160508739Y-105163715D01*
X160508738Y-105163715D01*
X160442886Y-105163370D01*
X160357926Y-105162925D01*
X160350546Y-105164697D01*
X160350544Y-105164697D01*
X160211268Y-105198134D01*
X160211265Y-105198135D01*
X160203889Y-105199906D01*
X160063119Y-105272563D01*
X159943744Y-105376701D01*
X159852655Y-105506307D01*
X159831922Y-105559484D01*
X159804408Y-105630055D01*
X159795111Y-105653900D01*
X159794119Y-105661433D01*
X159794119Y-105661434D01*
X159780104Y-105767892D01*
X159774434Y-105810959D01*
X155044014Y-105810959D01*
X154998855Y-105745251D01*
X154998854Y-105745249D01*
X154994553Y-105738992D01*
X154876275Y-105633611D01*
X154868889Y-105629700D01*
X154742988Y-105563039D01*
X154742989Y-105563039D01*
X154736274Y-105559484D01*
X154582633Y-105520892D01*
X154575034Y-105520852D01*
X154575033Y-105520852D01*
X154509181Y-105520507D01*
X154424221Y-105520062D01*
X154416841Y-105521834D01*
X154416839Y-105521834D01*
X154277563Y-105555271D01*
X154277560Y-105555272D01*
X154270184Y-105557043D01*
X154129414Y-105629700D01*
X154010039Y-105733838D01*
X153918950Y-105863444D01*
X153861406Y-106011037D01*
X153860414Y-106018570D01*
X153860414Y-106018571D01*
X153844219Y-106141588D01*
X153840729Y-106168096D01*
X123350000Y-106168096D01*
X123350000Y-106055000D01*
X118685000Y-106055000D01*
X118685000Y-114315000D01*
X118413524Y-114315000D01*
X118413524Y-103750000D01*
X119190539Y-103750000D01*
X119210354Y-104001775D01*
X119211508Y-104006582D01*
X119211509Y-104006588D01*
X119233936Y-104100000D01*
X119269312Y-104247351D01*
X119271205Y-104251922D01*
X119271206Y-104251924D01*
X119342399Y-104423798D01*
X119365960Y-104480680D01*
X119497919Y-104696017D01*
X119661939Y-104888061D01*
X119853983Y-105052081D01*
X120069320Y-105184040D01*
X120073890Y-105185933D01*
X120073894Y-105185935D01*
X120295078Y-105277552D01*
X120302649Y-105280688D01*
X120388865Y-105301387D01*
X120543412Y-105338491D01*
X120543418Y-105338492D01*
X120548225Y-105339646D01*
X120636253Y-105346574D01*
X120734507Y-105354307D01*
X120734516Y-105354307D01*
X120736964Y-105354500D01*
X121463036Y-105354500D01*
X121465484Y-105354307D01*
X121465493Y-105354307D01*
X121563747Y-105346574D01*
X121651775Y-105339646D01*
X121656582Y-105338492D01*
X121656588Y-105338491D01*
X121811135Y-105301387D01*
X121897351Y-105280688D01*
X121904922Y-105277552D01*
X122126106Y-105185935D01*
X122126110Y-105185933D01*
X122130680Y-105184040D01*
X122346017Y-105052081D01*
X122538061Y-104888061D01*
X122702081Y-104696017D01*
X122834040Y-104480680D01*
X122857602Y-104423798D01*
X122928794Y-104251924D01*
X122928795Y-104251922D01*
X122930688Y-104247351D01*
X122966064Y-104100000D01*
X122988491Y-104006588D01*
X122988492Y-104006582D01*
X122989646Y-104001775D01*
X123009461Y-103750000D01*
X124690539Y-103750000D01*
X124710354Y-104001775D01*
X124711508Y-104006582D01*
X124711509Y-104006588D01*
X124733936Y-104100000D01*
X124769312Y-104247351D01*
X124771205Y-104251922D01*
X124771206Y-104251924D01*
X124842399Y-104423798D01*
X124865960Y-104480680D01*
X124997919Y-104696017D01*
X125161939Y-104888061D01*
X125353983Y-105052081D01*
X125569320Y-105184040D01*
X125573890Y-105185933D01*
X125573894Y-105185935D01*
X125795078Y-105277552D01*
X125802649Y-105280688D01*
X125888865Y-105301387D01*
X126043412Y-105338491D01*
X126043418Y-105338492D01*
X126048225Y-105339646D01*
X126136253Y-105346574D01*
X126234507Y-105354307D01*
X126234516Y-105354307D01*
X126236964Y-105354500D01*
X126963036Y-105354500D01*
X126965484Y-105354307D01*
X126965493Y-105354307D01*
X127063747Y-105346574D01*
X127151775Y-105339646D01*
X127156582Y-105338492D01*
X127156588Y-105338491D01*
X127311135Y-105301387D01*
X127397351Y-105280688D01*
X127404922Y-105277552D01*
X127626106Y-105185935D01*
X127626110Y-105185933D01*
X127630680Y-105184040D01*
X127846017Y-105052081D01*
X128038061Y-104888061D01*
X128202081Y-104696017D01*
X128334040Y-104480680D01*
X128357602Y-104423798D01*
X128428794Y-104251924D01*
X128428795Y-104251922D01*
X128430688Y-104247351D01*
X128466064Y-104100000D01*
X128467722Y-104093096D01*
X153390729Y-104093096D01*
X153399421Y-104171825D01*
X153404490Y-104217733D01*
X153408113Y-104250553D01*
X153410723Y-104257684D01*
X153410723Y-104257686D01*
X153457197Y-104384682D01*
X153462553Y-104399319D01*
X153550908Y-104530805D01*
X153556527Y-104535918D01*
X153556528Y-104535919D01*
X153567903Y-104546269D01*
X153668076Y-104637419D01*
X153807293Y-104713008D01*
X153960522Y-104753207D01*
X154044477Y-104754526D01*
X154111319Y-104755576D01*
X154111322Y-104755576D01*
X154118916Y-104755695D01*
X154273332Y-104720329D01*
X154364814Y-104674319D01*
X154408072Y-104652563D01*
X154408075Y-104652561D01*
X154414855Y-104649151D01*
X154420626Y-104644222D01*
X154420629Y-104644220D01*
X154529536Y-104551204D01*
X154529536Y-104551203D01*
X154535314Y-104546269D01*
X154627755Y-104417624D01*
X154647665Y-104368096D01*
X156015729Y-104368096D01*
X156021197Y-104417624D01*
X156028625Y-104484900D01*
X156033113Y-104525553D01*
X156035723Y-104532684D01*
X156035723Y-104532686D01*
X156079592Y-104652563D01*
X156087553Y-104674319D01*
X156091789Y-104680622D01*
X156091789Y-104680623D01*
X156140644Y-104753326D01*
X156175908Y-104805805D01*
X156181527Y-104810918D01*
X156181528Y-104810919D01*
X156192903Y-104821269D01*
X156293076Y-104912419D01*
X156432293Y-104988008D01*
X156585522Y-105028207D01*
X156669477Y-105029526D01*
X156736319Y-105030576D01*
X156736322Y-105030576D01*
X156743916Y-105030695D01*
X156898332Y-104995329D01*
X156968742Y-104959917D01*
X157033072Y-104927563D01*
X157033075Y-104927561D01*
X157039855Y-104924151D01*
X157045626Y-104919222D01*
X157045629Y-104919220D01*
X157154536Y-104826204D01*
X157154536Y-104826203D01*
X157160314Y-104821269D01*
X157252755Y-104692624D01*
X157311842Y-104545641D01*
X157334162Y-104388807D01*
X157334307Y-104375000D01*
X157315276Y-104217733D01*
X157259280Y-104069546D01*
X157216010Y-104006588D01*
X157173855Y-103945251D01*
X157173854Y-103945249D01*
X157169553Y-103938992D01*
X157051275Y-103833611D01*
X157043889Y-103829700D01*
X157005565Y-103809409D01*
X156911274Y-103759484D01*
X156757633Y-103720892D01*
X156750034Y-103720852D01*
X156750033Y-103720852D01*
X156684181Y-103720507D01*
X156599221Y-103720062D01*
X156591841Y-103721834D01*
X156591839Y-103721834D01*
X156452563Y-103755271D01*
X156452560Y-103755272D01*
X156445184Y-103757043D01*
X156304414Y-103829700D01*
X156185039Y-103933838D01*
X156093950Y-104063444D01*
X156036406Y-104211037D01*
X156035414Y-104218570D01*
X156035414Y-104218571D01*
X156030265Y-104257686D01*
X156015729Y-104368096D01*
X154647665Y-104368096D01*
X154686842Y-104270641D01*
X154709162Y-104113807D01*
X154709307Y-104100000D01*
X154690276Y-103942733D01*
X154634280Y-103794546D01*
X154607053Y-103754930D01*
X154548855Y-103670251D01*
X154548854Y-103670249D01*
X154544553Y-103663992D01*
X154426275Y-103558611D01*
X154418889Y-103554700D01*
X154292988Y-103488039D01*
X154292989Y-103488039D01*
X154286274Y-103484484D01*
X154132633Y-103445892D01*
X154125034Y-103445852D01*
X154125033Y-103445852D01*
X154059181Y-103445507D01*
X153974221Y-103445062D01*
X153966841Y-103446834D01*
X153966839Y-103446834D01*
X153827563Y-103480271D01*
X153827560Y-103480272D01*
X153820184Y-103482043D01*
X153679414Y-103554700D01*
X153560039Y-103658838D01*
X153468950Y-103788444D01*
X153466190Y-103795524D01*
X153414210Y-103928846D01*
X153411406Y-103936037D01*
X153410414Y-103943570D01*
X153410414Y-103943571D01*
X153393701Y-104070524D01*
X153390729Y-104093096D01*
X128467722Y-104093096D01*
X128488491Y-104006588D01*
X128488492Y-104006582D01*
X128489646Y-104001775D01*
X128509461Y-103750000D01*
X128489646Y-103498225D01*
X128488492Y-103493418D01*
X128488491Y-103493412D01*
X128431843Y-103257461D01*
X128430688Y-103252649D01*
X128334040Y-103019320D01*
X128202081Y-102803983D01*
X128038061Y-102611939D01*
X127846017Y-102447919D01*
X127630680Y-102315960D01*
X127626110Y-102314067D01*
X127626106Y-102314065D01*
X127401924Y-102221206D01*
X127401922Y-102221205D01*
X127397351Y-102219312D01*
X127311135Y-102198613D01*
X127156588Y-102161509D01*
X127156582Y-102161508D01*
X127151775Y-102160354D01*
X127063747Y-102153426D01*
X126965493Y-102145693D01*
X126965484Y-102145693D01*
X126963036Y-102145500D01*
X126236964Y-102145500D01*
X126234516Y-102145693D01*
X126234507Y-102145693D01*
X126136253Y-102153426D01*
X126048225Y-102160354D01*
X126043418Y-102161508D01*
X126043412Y-102161509D01*
X125888865Y-102198613D01*
X125802649Y-102219312D01*
X125798078Y-102221205D01*
X125798076Y-102221206D01*
X125573894Y-102314065D01*
X125573890Y-102314067D01*
X125569320Y-102315960D01*
X125353983Y-102447919D01*
X125161939Y-102611939D01*
X124997919Y-102803983D01*
X124865960Y-103019320D01*
X124769312Y-103252649D01*
X124768157Y-103257461D01*
X124711509Y-103493412D01*
X124711508Y-103493418D01*
X124710354Y-103498225D01*
X124690539Y-103750000D01*
X123009461Y-103750000D01*
X122989646Y-103498225D01*
X122988492Y-103493418D01*
X122988491Y-103493412D01*
X122931843Y-103257461D01*
X122930688Y-103252649D01*
X122834040Y-103019320D01*
X122702081Y-102803983D01*
X122538061Y-102611939D01*
X122346017Y-102447919D01*
X122130680Y-102315960D01*
X122126110Y-102314067D01*
X122126106Y-102314065D01*
X121901924Y-102221206D01*
X121901922Y-102221205D01*
X121897351Y-102219312D01*
X121811135Y-102198613D01*
X121656588Y-102161509D01*
X121656582Y-102161508D01*
X121651775Y-102160354D01*
X121563747Y-102153426D01*
X121465493Y-102145693D01*
X121465484Y-102145693D01*
X121463036Y-102145500D01*
X120736964Y-102145500D01*
X120734516Y-102145693D01*
X120734507Y-102145693D01*
X120636253Y-102153426D01*
X120548225Y-102160354D01*
X120543418Y-102161508D01*
X120543412Y-102161509D01*
X120388865Y-102198613D01*
X120302649Y-102219312D01*
X120298078Y-102221205D01*
X120298076Y-102221206D01*
X120073894Y-102314065D01*
X120073890Y-102314067D01*
X120069320Y-102315960D01*
X119853983Y-102447919D01*
X119661939Y-102611939D01*
X119497919Y-102803983D01*
X119365960Y-103019320D01*
X119269312Y-103252649D01*
X119268157Y-103257461D01*
X119211509Y-103493412D01*
X119211508Y-103493418D01*
X119210354Y-103498225D01*
X119190539Y-103750000D01*
X118413524Y-103750000D01*
X118413524Y-101161734D01*
X143754627Y-101161734D01*
X143773684Y-101306488D01*
X143829557Y-101441376D01*
X143918438Y-101557208D01*
X143924988Y-101562234D01*
X143924991Y-101562237D01*
X144027716Y-101641061D01*
X144034269Y-101646089D01*
X144169158Y-101701962D01*
X144313912Y-101721019D01*
X144322100Y-101719941D01*
X144450478Y-101703040D01*
X144458666Y-101701962D01*
X144593555Y-101646089D01*
X144600108Y-101641061D01*
X144702833Y-101562237D01*
X144702836Y-101562234D01*
X144709386Y-101557208D01*
X144798267Y-101441376D01*
X144854140Y-101306488D01*
X144873197Y-101161734D01*
X144854140Y-101016980D01*
X144798267Y-100882092D01*
X144709386Y-100766260D01*
X144702836Y-100761234D01*
X144702833Y-100761231D01*
X144600108Y-100682407D01*
X144600106Y-100682406D01*
X144593555Y-100677379D01*
X144458666Y-100621506D01*
X144313912Y-100602449D01*
X144305724Y-100603527D01*
X144177344Y-100620428D01*
X144177342Y-100620429D01*
X144169158Y-100621506D01*
X144121342Y-100641312D01*
X144041898Y-100674219D01*
X144041896Y-100674220D01*
X144034270Y-100677379D01*
X143918438Y-100766260D01*
X143829557Y-100882092D01*
X143773684Y-101016980D01*
X143754627Y-101161734D01*
X118413524Y-101161734D01*
X118413524Y-98853096D01*
X127440729Y-98853096D01*
X127449421Y-98931824D01*
X127456948Y-99000000D01*
X127458113Y-99010553D01*
X127512553Y-99159319D01*
X127600908Y-99290805D01*
X127606527Y-99295918D01*
X127606528Y-99295919D01*
X127623326Y-99311204D01*
X127718076Y-99397419D01*
X127857293Y-99473008D01*
X128010522Y-99513207D01*
X128094477Y-99514526D01*
X128161319Y-99515576D01*
X128161322Y-99515576D01*
X128168916Y-99515695D01*
X128323332Y-99480329D01*
X128403329Y-99440095D01*
X128458072Y-99412563D01*
X128458075Y-99412561D01*
X128464855Y-99409151D01*
X128470626Y-99404222D01*
X128470629Y-99404220D01*
X128579536Y-99311204D01*
X128579536Y-99311203D01*
X128585314Y-99306269D01*
X128677755Y-99177624D01*
X128736842Y-99030641D01*
X128742185Y-98993096D01*
X147690729Y-98993096D01*
X147708113Y-99150553D01*
X147710723Y-99157684D01*
X147710723Y-99157686D01*
X147713628Y-99165623D01*
X147762553Y-99299319D01*
X147766789Y-99305622D01*
X147766789Y-99305623D01*
X147833044Y-99404220D01*
X147850908Y-99430805D01*
X147856527Y-99435918D01*
X147856528Y-99435919D01*
X147944071Y-99515576D01*
X147968076Y-99537419D01*
X148107293Y-99613008D01*
X148260522Y-99653207D01*
X148344477Y-99654526D01*
X148411319Y-99655576D01*
X148411322Y-99655576D01*
X148418916Y-99655695D01*
X148573332Y-99620329D01*
X148643742Y-99584917D01*
X148708072Y-99552563D01*
X148708075Y-99552561D01*
X148714855Y-99549151D01*
X148720626Y-99544222D01*
X148720629Y-99544220D01*
X148829536Y-99451204D01*
X148829536Y-99451203D01*
X148835314Y-99446269D01*
X148927755Y-99317624D01*
X148986842Y-99170641D01*
X148992965Y-99127615D01*
X148999742Y-99080000D01*
X154980000Y-99080000D01*
X157630000Y-99080000D01*
X157630000Y-94245101D01*
X170503516Y-94245101D01*
X170523410Y-94472490D01*
X170582487Y-94692971D01*
X170584809Y-94697951D01*
X170584810Y-94697953D01*
X170676627Y-94894855D01*
X170676630Y-94894860D01*
X170678953Y-94899842D01*
X170809877Y-95086820D01*
X170971280Y-95248223D01*
X170975789Y-95251380D01*
X170975791Y-95251382D01*
X171053075Y-95305497D01*
X171158257Y-95379147D01*
X171163239Y-95381470D01*
X171163244Y-95381473D01*
X171347104Y-95467208D01*
X171365129Y-95475613D01*
X171370437Y-95477035D01*
X171370439Y-95477036D01*
X171580295Y-95533266D01*
X171585610Y-95534690D01*
X171812999Y-95554584D01*
X172040388Y-95534690D01*
X172045703Y-95533266D01*
X172255559Y-95477036D01*
X172255561Y-95477035D01*
X172260869Y-95475613D01*
X172278894Y-95467208D01*
X172462754Y-95381473D01*
X172462759Y-95381470D01*
X172467741Y-95379147D01*
X172572923Y-95305497D01*
X172650207Y-95251382D01*
X172650209Y-95251380D01*
X172654718Y-95248223D01*
X172816121Y-95086820D01*
X172947045Y-94899842D01*
X172949368Y-94894860D01*
X172949371Y-94894855D01*
X173041188Y-94697953D01*
X173041189Y-94697951D01*
X173043511Y-94692971D01*
X173102588Y-94472490D01*
X173122482Y-94245101D01*
X173102588Y-94017712D01*
X173043511Y-93797231D01*
X172962601Y-93623719D01*
X172949371Y-93595347D01*
X172949368Y-93595342D01*
X172947045Y-93590360D01*
X172816121Y-93403382D01*
X172654718Y-93241979D01*
X172650204Y-93238818D01*
X172650198Y-93238813D01*
X172650192Y-93238809D01*
X172650189Y-93238805D01*
X172645994Y-93235285D01*
X172646702Y-93234442D01*
X172605866Y-93183350D01*
X172598561Y-93112730D01*
X172630595Y-93049371D01*
X172691798Y-93013390D01*
X172722468Y-93009600D01*
X172888065Y-93009600D01*
X172923817Y-93002489D01*
X172950125Y-92997257D01*
X172950127Y-92997256D01*
X172962300Y-92994835D01*
X172972620Y-92987940D01*
X172972621Y-92987939D01*
X173036167Y-92945478D01*
X173046483Y-92938585D01*
X173102733Y-92854402D01*
X173117499Y-92780168D01*
X173117498Y-90630035D01*
X173102733Y-90555800D01*
X173046483Y-90471617D01*
X172962300Y-90415367D01*
X172888066Y-90400601D01*
X171813173Y-90400601D01*
X170737933Y-90400602D01*
X170702181Y-90407713D01*
X170675873Y-90412945D01*
X170675871Y-90412946D01*
X170663698Y-90415367D01*
X170653378Y-90422262D01*
X170653377Y-90422263D01*
X170592984Y-90462617D01*
X170579515Y-90471617D01*
X170523265Y-90555800D01*
X170508499Y-90630034D01*
X170508500Y-92780167D01*
X170523265Y-92854402D01*
X170579515Y-92938585D01*
X170663698Y-92994835D01*
X170737932Y-93009601D01*
X170903529Y-93009601D01*
X170971650Y-93029603D01*
X171018143Y-93083259D01*
X171028247Y-93153533D01*
X170998753Y-93218113D01*
X170979879Y-93235136D01*
X170980004Y-93235285D01*
X170975817Y-93238798D01*
X170975801Y-93238813D01*
X170971280Y-93241979D01*
X170809877Y-93403382D01*
X170678953Y-93590360D01*
X170676630Y-93595342D01*
X170676627Y-93595347D01*
X170663397Y-93623719D01*
X170582487Y-93797231D01*
X170523410Y-94017712D01*
X170503516Y-94245101D01*
X157630000Y-94245101D01*
X157630000Y-89643096D01*
X164140729Y-89643096D01*
X164149421Y-89721825D01*
X164157203Y-89792309D01*
X164158113Y-89800553D01*
X164160723Y-89807684D01*
X164160723Y-89807686D01*
X164200249Y-89915695D01*
X164212553Y-89949319D01*
X164300908Y-90080805D01*
X164306527Y-90085918D01*
X164306528Y-90085919D01*
X164317903Y-90096269D01*
X164418076Y-90187419D01*
X164557293Y-90263008D01*
X164710522Y-90303207D01*
X164794477Y-90304526D01*
X164861319Y-90305576D01*
X164861322Y-90305576D01*
X164868916Y-90305695D01*
X165023332Y-90270329D01*
X165093742Y-90234917D01*
X165158072Y-90202563D01*
X165158075Y-90202561D01*
X165164855Y-90199151D01*
X165170626Y-90194222D01*
X165170629Y-90194220D01*
X165279536Y-90101204D01*
X165279536Y-90101203D01*
X165285314Y-90096269D01*
X165377755Y-89967624D01*
X165436842Y-89820641D01*
X165459162Y-89663807D01*
X165459307Y-89650000D01*
X165440276Y-89492733D01*
X165384280Y-89344546D01*
X165375814Y-89332228D01*
X165298855Y-89220251D01*
X165298854Y-89220249D01*
X165294553Y-89213992D01*
X165176275Y-89108611D01*
X165168889Y-89104700D01*
X165042988Y-89038039D01*
X165042989Y-89038039D01*
X165036274Y-89034484D01*
X164882633Y-88995892D01*
X164875034Y-88995852D01*
X164875033Y-88995852D01*
X164809181Y-88995507D01*
X164724221Y-88995062D01*
X164716841Y-88996834D01*
X164716839Y-88996834D01*
X164577563Y-89030271D01*
X164577560Y-89030272D01*
X164570184Y-89032043D01*
X164429414Y-89104700D01*
X164310039Y-89208838D01*
X164218950Y-89338444D01*
X164161406Y-89486037D01*
X164160414Y-89493570D01*
X164160414Y-89493571D01*
X164148536Y-89583798D01*
X164140729Y-89643096D01*
X157630000Y-89643096D01*
X157630000Y-84782919D01*
X170487780Y-84782919D01*
X170507674Y-85010308D01*
X170566751Y-85230789D01*
X170569073Y-85235769D01*
X170569074Y-85235771D01*
X170660891Y-85432673D01*
X170660894Y-85432678D01*
X170663217Y-85437660D01*
X170794141Y-85624638D01*
X170955544Y-85786041D01*
X171142521Y-85916965D01*
X171147503Y-85919288D01*
X171147508Y-85919291D01*
X171344411Y-86011108D01*
X171349393Y-86013431D01*
X171354701Y-86014853D01*
X171354703Y-86014854D01*
X171564559Y-86071084D01*
X171569874Y-86072508D01*
X171797263Y-86092402D01*
X172024652Y-86072508D01*
X172029967Y-86071084D01*
X172239823Y-86014854D01*
X172239825Y-86014853D01*
X172245133Y-86013431D01*
X172250115Y-86011108D01*
X172447018Y-85919291D01*
X172447023Y-85919288D01*
X172452005Y-85916965D01*
X172638982Y-85786041D01*
X172800385Y-85624638D01*
X172931309Y-85437660D01*
X172933632Y-85432678D01*
X172933635Y-85432673D01*
X173025452Y-85235771D01*
X173025453Y-85235769D01*
X173027775Y-85230789D01*
X173086852Y-85010308D01*
X173106746Y-84782919D01*
X173086852Y-84555530D01*
X173077506Y-84520649D01*
X173029198Y-84340359D01*
X173029197Y-84340357D01*
X173027775Y-84335049D01*
X172952498Y-84173617D01*
X172933635Y-84133165D01*
X172933632Y-84133160D01*
X172931309Y-84128178D01*
X172800385Y-83941200D01*
X172638982Y-83779797D01*
X172634468Y-83776636D01*
X172634462Y-83776631D01*
X172634456Y-83776627D01*
X172634453Y-83776623D01*
X172630258Y-83773103D01*
X172630966Y-83772260D01*
X172590130Y-83721168D01*
X172582825Y-83650548D01*
X172614859Y-83587189D01*
X172676062Y-83551208D01*
X172706732Y-83547418D01*
X172872329Y-83547418D01*
X172908081Y-83540307D01*
X172934389Y-83535075D01*
X172934391Y-83535074D01*
X172946564Y-83532653D01*
X172956884Y-83525758D01*
X172956885Y-83525757D01*
X173020431Y-83483296D01*
X173030747Y-83476403D01*
X173086997Y-83392220D01*
X173101763Y-83317986D01*
X173101762Y-81167853D01*
X173086997Y-81093618D01*
X173030747Y-81009435D01*
X172946564Y-80953185D01*
X172872330Y-80938419D01*
X171797437Y-80938419D01*
X170722197Y-80938420D01*
X170686445Y-80945531D01*
X170660137Y-80950763D01*
X170660135Y-80950764D01*
X170647962Y-80953185D01*
X170637642Y-80960080D01*
X170637641Y-80960081D01*
X170577248Y-81000435D01*
X170563779Y-81009435D01*
X170507529Y-81093618D01*
X170492763Y-81167852D01*
X170492764Y-83317985D01*
X170507529Y-83392220D01*
X170563779Y-83476403D01*
X170647962Y-83532653D01*
X170722196Y-83547419D01*
X170887793Y-83547419D01*
X170955914Y-83567421D01*
X171002407Y-83621077D01*
X171012511Y-83691351D01*
X170983017Y-83755931D01*
X170964143Y-83772954D01*
X170964268Y-83773103D01*
X170960081Y-83776616D01*
X170960065Y-83776631D01*
X170955544Y-83779797D01*
X170794141Y-83941200D01*
X170663217Y-84128178D01*
X170660894Y-84133160D01*
X170660891Y-84133165D01*
X170642028Y-84173617D01*
X170566751Y-84335049D01*
X170565329Y-84340357D01*
X170565328Y-84340359D01*
X170517020Y-84520649D01*
X170507674Y-84555530D01*
X170487780Y-84782919D01*
X157630000Y-84782919D01*
X157630000Y-80293096D01*
X164090729Y-80293096D01*
X164099421Y-80371824D01*
X164104811Y-80420641D01*
X164108113Y-80450553D01*
X164110723Y-80457684D01*
X164110723Y-80457686D01*
X164153214Y-80573798D01*
X164162553Y-80599319D01*
X164166789Y-80605622D01*
X164166789Y-80605623D01*
X164213073Y-80674500D01*
X164250908Y-80730805D01*
X164256527Y-80735918D01*
X164256528Y-80735919D01*
X164362460Y-80832309D01*
X164368076Y-80837419D01*
X164507293Y-80913008D01*
X164660522Y-80953207D01*
X164744477Y-80954526D01*
X164811319Y-80955576D01*
X164811322Y-80955576D01*
X164818916Y-80955695D01*
X164973332Y-80920329D01*
X165083474Y-80864934D01*
X165108072Y-80852563D01*
X165108075Y-80852561D01*
X165114855Y-80849151D01*
X165120626Y-80844222D01*
X165120629Y-80844220D01*
X165229536Y-80751204D01*
X165229536Y-80751203D01*
X165235314Y-80746269D01*
X165327755Y-80617624D01*
X165386842Y-80470641D01*
X165409162Y-80313807D01*
X165409307Y-80300000D01*
X165390276Y-80142733D01*
X165334280Y-79994546D01*
X165244553Y-79863992D01*
X165126275Y-79758611D01*
X165118889Y-79754700D01*
X165041385Y-79713664D01*
X164986274Y-79684484D01*
X164832633Y-79645892D01*
X164825034Y-79645852D01*
X164825033Y-79645852D01*
X164759181Y-79645507D01*
X164674221Y-79645062D01*
X164666841Y-79646834D01*
X164666839Y-79646834D01*
X164527563Y-79680271D01*
X164527560Y-79680272D01*
X164520184Y-79682043D01*
X164379414Y-79754700D01*
X164260039Y-79858838D01*
X164168950Y-79988444D01*
X164156519Y-80020329D01*
X164133661Y-80078957D01*
X164111406Y-80136037D01*
X164110414Y-80143570D01*
X164110414Y-80143571D01*
X164096318Y-80250646D01*
X164090729Y-80293096D01*
X157630000Y-80293096D01*
X157630000Y-76830000D01*
X154980000Y-76830000D01*
X154980000Y-99080000D01*
X148999742Y-99080000D01*
X149008581Y-99017891D01*
X149008581Y-99017888D01*
X149009162Y-99013807D01*
X149009307Y-99000000D01*
X148990276Y-98842733D01*
X148934280Y-98694546D01*
X148844553Y-98563992D01*
X148726275Y-98458611D01*
X148718889Y-98454700D01*
X148635177Y-98410377D01*
X148586274Y-98384484D01*
X148432633Y-98345892D01*
X148425034Y-98345852D01*
X148425033Y-98345852D01*
X148359181Y-98345507D01*
X148274221Y-98345062D01*
X148266841Y-98346834D01*
X148266839Y-98346834D01*
X148127563Y-98380271D01*
X148127560Y-98380272D01*
X148120184Y-98382043D01*
X147979414Y-98454700D01*
X147860039Y-98558838D01*
X147768950Y-98688444D01*
X147711406Y-98836037D01*
X147710414Y-98843570D01*
X147710414Y-98843571D01*
X147706434Y-98873807D01*
X147690729Y-98993096D01*
X128742185Y-98993096D01*
X128759162Y-98873807D01*
X128759307Y-98860000D01*
X128740276Y-98702733D01*
X128684280Y-98554546D01*
X128629266Y-98474500D01*
X128598855Y-98430251D01*
X128598854Y-98430249D01*
X128594553Y-98423992D01*
X128476275Y-98318611D01*
X128468889Y-98314700D01*
X128348839Y-98251137D01*
X128336274Y-98244484D01*
X128182633Y-98205892D01*
X128175034Y-98205852D01*
X128175033Y-98205852D01*
X128109181Y-98205507D01*
X128024221Y-98205062D01*
X128016841Y-98206834D01*
X128016839Y-98206834D01*
X127877563Y-98240271D01*
X127877560Y-98240272D01*
X127870184Y-98242043D01*
X127729414Y-98314700D01*
X127610039Y-98418838D01*
X127518950Y-98548444D01*
X127461406Y-98696037D01*
X127460414Y-98703570D01*
X127460414Y-98703571D01*
X127442975Y-98836037D01*
X127440729Y-98853096D01*
X118413524Y-98853096D01*
X118413524Y-94630000D01*
X120040517Y-94630000D01*
X120060411Y-94857389D01*
X120119488Y-95077870D01*
X120121810Y-95082850D01*
X120121811Y-95082852D01*
X120213628Y-95279754D01*
X120213631Y-95279759D01*
X120215954Y-95284741D01*
X120346878Y-95471719D01*
X120508281Y-95633122D01*
X120512790Y-95636279D01*
X120512798Y-95636286D01*
X120512807Y-95636292D01*
X120512810Y-95636296D01*
X120517005Y-95639816D01*
X120516297Y-95640659D01*
X120557133Y-95691751D01*
X120564438Y-95762371D01*
X120532404Y-95825730D01*
X120471201Y-95861711D01*
X120440531Y-95865501D01*
X120274934Y-95865501D01*
X120239182Y-95872612D01*
X120212874Y-95877844D01*
X120212872Y-95877845D01*
X120200699Y-95880266D01*
X120190379Y-95887161D01*
X120190378Y-95887162D01*
X120129985Y-95927516D01*
X120116516Y-95936516D01*
X120060266Y-96020699D01*
X120045500Y-96094933D01*
X120045501Y-98245066D01*
X120060266Y-98319301D01*
X120067161Y-98329620D01*
X120067162Y-98329622D01*
X120101005Y-98380271D01*
X120116516Y-98403484D01*
X120200699Y-98459734D01*
X120274933Y-98474500D01*
X121349826Y-98474500D01*
X122425066Y-98474499D01*
X122460818Y-98467388D01*
X122487126Y-98462156D01*
X122487128Y-98462155D01*
X122499301Y-98459734D01*
X122509621Y-98452839D01*
X122509622Y-98452838D01*
X122573168Y-98410377D01*
X122583484Y-98403484D01*
X122639734Y-98319301D01*
X122654500Y-98245067D01*
X122654500Y-97490000D01*
X135630000Y-97490000D01*
X139510000Y-97490000D01*
X139510000Y-91243096D01*
X151640729Y-91243096D01*
X151658113Y-91400553D01*
X151712553Y-91549319D01*
X151800908Y-91680805D01*
X151806527Y-91685918D01*
X151806528Y-91685919D01*
X151817903Y-91696269D01*
X151918076Y-91787419D01*
X152057293Y-91863008D01*
X152210522Y-91903207D01*
X152294477Y-91904526D01*
X152361319Y-91905576D01*
X152361322Y-91905576D01*
X152368916Y-91905695D01*
X152523332Y-91870329D01*
X152593742Y-91834917D01*
X152658072Y-91802563D01*
X152658075Y-91802561D01*
X152664855Y-91799151D01*
X152670626Y-91794222D01*
X152670629Y-91794220D01*
X152779536Y-91701204D01*
X152779536Y-91701203D01*
X152785314Y-91696269D01*
X152877755Y-91567624D01*
X152936842Y-91420641D01*
X152959162Y-91263807D01*
X152959307Y-91250000D01*
X152940276Y-91092733D01*
X152884280Y-90944546D01*
X152794553Y-90813992D01*
X152676275Y-90708611D01*
X152668889Y-90704700D01*
X152542988Y-90638039D01*
X152542989Y-90638039D01*
X152536274Y-90634484D01*
X152382633Y-90595892D01*
X152375034Y-90595852D01*
X152375033Y-90595852D01*
X152309181Y-90595507D01*
X152224221Y-90595062D01*
X152216841Y-90596834D01*
X152216839Y-90596834D01*
X152077563Y-90630271D01*
X152077560Y-90630272D01*
X152070184Y-90632043D01*
X151929414Y-90704700D01*
X151810039Y-90808838D01*
X151718950Y-90938444D01*
X151661406Y-91086037D01*
X151640729Y-91243096D01*
X139510000Y-91243096D01*
X139510000Y-87543096D01*
X144540729Y-87543096D01*
X144558113Y-87700553D01*
X144560723Y-87707684D01*
X144560723Y-87707686D01*
X144604592Y-87827563D01*
X144612553Y-87849319D01*
X144616789Y-87855622D01*
X144616789Y-87855623D01*
X144665644Y-87928326D01*
X144700908Y-87980805D01*
X144706527Y-87985918D01*
X144706528Y-87985919D01*
X144717903Y-87996269D01*
X144818076Y-88087419D01*
X144957293Y-88163008D01*
X145110522Y-88203207D01*
X145194477Y-88204526D01*
X145261319Y-88205576D01*
X145261322Y-88205576D01*
X145268916Y-88205695D01*
X145423332Y-88170329D01*
X145493742Y-88134917D01*
X145558072Y-88102563D01*
X145558075Y-88102561D01*
X145564855Y-88099151D01*
X145570626Y-88094222D01*
X145570629Y-88094220D01*
X145679536Y-88001204D01*
X145679536Y-88001203D01*
X145685314Y-87996269D01*
X145777755Y-87867624D01*
X145836842Y-87720641D01*
X145859162Y-87563807D01*
X145859307Y-87550000D01*
X145840276Y-87392733D01*
X145793179Y-87268096D01*
X151665729Y-87268096D01*
X151674421Y-87346825D01*
X151679490Y-87392733D01*
X151683113Y-87425553D01*
X151685723Y-87432684D01*
X151685723Y-87432686D01*
X151732197Y-87559682D01*
X151737553Y-87574319D01*
X151825908Y-87705805D01*
X151831527Y-87710918D01*
X151831528Y-87710919D01*
X151842903Y-87721269D01*
X151943076Y-87812419D01*
X152082293Y-87888008D01*
X152235522Y-87928207D01*
X152319477Y-87929526D01*
X152386319Y-87930576D01*
X152386322Y-87930576D01*
X152393916Y-87930695D01*
X152548332Y-87895329D01*
X152639814Y-87849319D01*
X152683072Y-87827563D01*
X152683075Y-87827561D01*
X152689855Y-87824151D01*
X152695626Y-87819222D01*
X152695629Y-87819220D01*
X152804536Y-87726204D01*
X152804536Y-87726203D01*
X152810314Y-87721269D01*
X152902755Y-87592624D01*
X152961842Y-87445641D01*
X152984162Y-87288807D01*
X152984307Y-87275000D01*
X152965276Y-87117733D01*
X152909280Y-86969546D01*
X152819553Y-86838992D01*
X152701275Y-86733611D01*
X152693889Y-86729700D01*
X152567988Y-86663039D01*
X152567989Y-86663039D01*
X152561274Y-86659484D01*
X152407633Y-86620892D01*
X152400034Y-86620852D01*
X152400033Y-86620852D01*
X152334181Y-86620507D01*
X152249221Y-86620062D01*
X152241841Y-86621834D01*
X152241839Y-86621834D01*
X152102563Y-86655271D01*
X152102560Y-86655272D01*
X152095184Y-86657043D01*
X151954414Y-86729700D01*
X151835039Y-86833838D01*
X151743950Y-86963444D01*
X151741190Y-86970524D01*
X151689210Y-87103846D01*
X151686406Y-87111037D01*
X151685414Y-87118570D01*
X151685414Y-87118571D01*
X151668701Y-87245524D01*
X151665729Y-87268096D01*
X145793179Y-87268096D01*
X145784280Y-87244546D01*
X145775814Y-87232228D01*
X145698855Y-87120251D01*
X145698854Y-87120249D01*
X145694553Y-87113992D01*
X145576275Y-87008611D01*
X145568889Y-87004700D01*
X145530565Y-86984409D01*
X145436274Y-86934484D01*
X145282633Y-86895892D01*
X145275034Y-86895852D01*
X145275033Y-86895852D01*
X145209181Y-86895507D01*
X145124221Y-86895062D01*
X145116841Y-86896834D01*
X145116839Y-86896834D01*
X144977563Y-86930271D01*
X144977560Y-86930272D01*
X144970184Y-86932043D01*
X144829414Y-87004700D01*
X144710039Y-87108838D01*
X144618950Y-87238444D01*
X144561406Y-87386037D01*
X144560414Y-87393570D01*
X144560414Y-87393571D01*
X144555265Y-87432686D01*
X144540729Y-87543096D01*
X139510000Y-87543096D01*
X139510000Y-80680000D01*
X135630000Y-80680000D01*
X135630000Y-97490000D01*
X122654500Y-97490000D01*
X122654499Y-96094934D01*
X122639734Y-96020699D01*
X122583484Y-95936516D01*
X122499301Y-95880266D01*
X122425067Y-95865500D01*
X122259470Y-95865500D01*
X122191349Y-95845498D01*
X122144856Y-95791842D01*
X122134752Y-95721568D01*
X122164246Y-95656988D01*
X122183120Y-95639965D01*
X122182995Y-95639816D01*
X122187194Y-95636292D01*
X122187198Y-95636288D01*
X122187205Y-95636283D01*
X122187207Y-95636282D01*
X122191719Y-95633122D01*
X122353122Y-95471719D01*
X122484046Y-95284741D01*
X122486369Y-95279759D01*
X122486372Y-95279754D01*
X122578189Y-95082852D01*
X122578190Y-95082850D01*
X122580512Y-95077870D01*
X122639589Y-94857389D01*
X122659483Y-94630000D01*
X122639589Y-94402611D01*
X122580512Y-94182130D01*
X122506398Y-94023192D01*
X122486372Y-93980246D01*
X122486369Y-93980241D01*
X122484046Y-93975259D01*
X122353122Y-93788281D01*
X122191719Y-93626878D01*
X122139567Y-93590360D01*
X122109924Y-93569604D01*
X122004742Y-93495954D01*
X121999760Y-93493631D01*
X121999755Y-93493628D01*
X121802852Y-93401811D01*
X121802851Y-93401810D01*
X121797870Y-93399488D01*
X121792562Y-93398066D01*
X121792560Y-93398065D01*
X121582704Y-93341835D01*
X121582703Y-93341835D01*
X121577389Y-93340411D01*
X121350000Y-93320517D01*
X121122611Y-93340411D01*
X121117297Y-93341835D01*
X121117296Y-93341835D01*
X120907440Y-93398065D01*
X120907438Y-93398066D01*
X120902130Y-93399488D01*
X120897150Y-93401810D01*
X120897148Y-93401811D01*
X120700246Y-93493628D01*
X120700241Y-93493631D01*
X120695259Y-93495954D01*
X120590572Y-93569257D01*
X120553312Y-93595347D01*
X120508281Y-93626878D01*
X120346878Y-93788281D01*
X120215954Y-93975259D01*
X120213631Y-93980241D01*
X120213628Y-93980246D01*
X120193602Y-94023192D01*
X120119488Y-94182130D01*
X120060411Y-94402611D01*
X120040517Y-94630000D01*
X118413524Y-94630000D01*
X118413524Y-89253096D01*
X127690729Y-89253096D01*
X127699421Y-89331825D01*
X127700826Y-89344546D01*
X127708113Y-89410553D01*
X127762553Y-89559319D01*
X127850908Y-89690805D01*
X127856527Y-89695918D01*
X127856528Y-89695919D01*
X127867903Y-89706269D01*
X127968076Y-89797419D01*
X128107293Y-89873008D01*
X128260522Y-89913207D01*
X128344477Y-89914526D01*
X128411319Y-89915576D01*
X128411322Y-89915576D01*
X128418916Y-89915695D01*
X128573332Y-89880329D01*
X128643742Y-89844917D01*
X128708072Y-89812563D01*
X128708075Y-89812561D01*
X128714855Y-89809151D01*
X128720626Y-89804222D01*
X128720629Y-89804220D01*
X128829536Y-89711204D01*
X128829536Y-89711203D01*
X128835314Y-89706269D01*
X128927755Y-89577624D01*
X128986842Y-89430641D01*
X129009162Y-89273807D01*
X129009307Y-89260000D01*
X128990276Y-89102733D01*
X128934280Y-88954546D01*
X128844553Y-88823992D01*
X128726275Y-88718611D01*
X128718889Y-88714700D01*
X128592988Y-88648039D01*
X128592989Y-88648039D01*
X128586274Y-88644484D01*
X128432633Y-88605892D01*
X128425034Y-88605852D01*
X128425033Y-88605852D01*
X128359181Y-88605507D01*
X128274221Y-88605062D01*
X128266841Y-88606834D01*
X128266839Y-88606834D01*
X128127563Y-88640271D01*
X128127560Y-88640272D01*
X128120184Y-88642043D01*
X127979414Y-88714700D01*
X127860039Y-88818838D01*
X127768950Y-88948444D01*
X127711406Y-89096037D01*
X127710414Y-89103570D01*
X127710414Y-89103571D01*
X127695738Y-89215052D01*
X127690729Y-89253096D01*
X118413524Y-89253096D01*
X118413524Y-85179898D01*
X120040517Y-85179898D01*
X120060411Y-85407287D01*
X120061835Y-85412601D01*
X120061835Y-85412602D01*
X120117441Y-85620127D01*
X120119488Y-85627768D01*
X120121810Y-85632748D01*
X120121811Y-85632750D01*
X120213628Y-85829652D01*
X120213631Y-85829657D01*
X120215954Y-85834639D01*
X120346878Y-86021617D01*
X120508281Y-86183020D01*
X120512790Y-86186177D01*
X120512798Y-86186184D01*
X120512807Y-86186190D01*
X120512810Y-86186194D01*
X120517005Y-86189714D01*
X120516297Y-86190557D01*
X120557133Y-86241649D01*
X120564438Y-86312269D01*
X120532404Y-86375628D01*
X120471201Y-86411609D01*
X120440531Y-86415399D01*
X120274934Y-86415399D01*
X120239182Y-86422510D01*
X120212874Y-86427742D01*
X120212872Y-86427743D01*
X120200699Y-86430164D01*
X120190379Y-86437059D01*
X120190378Y-86437060D01*
X120129985Y-86477414D01*
X120116516Y-86486414D01*
X120060266Y-86570597D01*
X120045500Y-86644831D01*
X120045501Y-88794964D01*
X120060266Y-88869199D01*
X120116516Y-88953382D01*
X120200699Y-89009632D01*
X120274933Y-89024398D01*
X121349826Y-89024398D01*
X122425066Y-89024397D01*
X122460818Y-89017286D01*
X122487126Y-89012054D01*
X122487128Y-89012053D01*
X122499301Y-89009632D01*
X122509621Y-89002737D01*
X122509622Y-89002736D01*
X122573168Y-88960275D01*
X122583484Y-88953382D01*
X122639734Y-88869199D01*
X122654500Y-88794965D01*
X122654499Y-86644832D01*
X122639734Y-86570597D01*
X122583484Y-86486414D01*
X122499301Y-86430164D01*
X122425067Y-86415398D01*
X122259470Y-86415398D01*
X122191349Y-86395396D01*
X122144856Y-86341740D01*
X122134752Y-86271466D01*
X122164246Y-86206886D01*
X122183120Y-86189863D01*
X122182995Y-86189714D01*
X122187194Y-86186190D01*
X122187198Y-86186186D01*
X122187205Y-86186181D01*
X122187207Y-86186180D01*
X122191719Y-86183020D01*
X122353122Y-86021617D01*
X122484046Y-85834639D01*
X122486369Y-85829657D01*
X122486372Y-85829652D01*
X122578189Y-85632750D01*
X122578190Y-85632748D01*
X122580512Y-85627768D01*
X122582560Y-85620127D01*
X122638165Y-85412602D01*
X122638165Y-85412601D01*
X122639589Y-85407287D01*
X122659483Y-85179898D01*
X122639589Y-84952509D01*
X122580512Y-84732028D01*
X122500765Y-84561010D01*
X122486372Y-84530144D01*
X122486369Y-84530139D01*
X122484046Y-84525157D01*
X122353122Y-84338179D01*
X122191719Y-84176776D01*
X122004742Y-84045852D01*
X121999760Y-84043529D01*
X121999755Y-84043526D01*
X121802852Y-83951709D01*
X121802851Y-83951708D01*
X121797870Y-83949386D01*
X121792562Y-83947964D01*
X121792560Y-83947963D01*
X121582704Y-83891733D01*
X121582703Y-83891733D01*
X121577389Y-83890309D01*
X121350000Y-83870415D01*
X121122611Y-83890309D01*
X121117297Y-83891733D01*
X121117296Y-83891733D01*
X120907440Y-83947963D01*
X120907438Y-83947964D01*
X120902130Y-83949386D01*
X120897150Y-83951708D01*
X120897148Y-83951709D01*
X120700246Y-84043526D01*
X120700241Y-84043529D01*
X120695259Y-84045852D01*
X120508281Y-84176776D01*
X120346878Y-84338179D01*
X120215954Y-84525157D01*
X120213631Y-84530139D01*
X120213628Y-84530144D01*
X120199235Y-84561010D01*
X120119488Y-84732028D01*
X120060411Y-84952509D01*
X120040517Y-85179898D01*
X118413524Y-85179898D01*
X118413524Y-80243096D01*
X140190729Y-80243096D01*
X140208113Y-80400553D01*
X140210723Y-80407684D01*
X140210723Y-80407686D01*
X140236343Y-80477695D01*
X140262553Y-80549319D01*
X140266789Y-80555622D01*
X140266789Y-80555623D01*
X140296152Y-80599319D01*
X140350908Y-80680805D01*
X140356527Y-80685918D01*
X140356528Y-80685919D01*
X140411478Y-80735919D01*
X140468076Y-80787419D01*
X140607293Y-80863008D01*
X140760522Y-80903207D01*
X140844477Y-80904526D01*
X140911319Y-80905576D01*
X140911322Y-80905576D01*
X140918916Y-80905695D01*
X141073332Y-80870329D01*
X141148927Y-80832309D01*
X141208072Y-80802563D01*
X141208075Y-80802561D01*
X141214855Y-80799151D01*
X141220626Y-80794222D01*
X141220629Y-80794220D01*
X141329536Y-80701204D01*
X141329536Y-80701203D01*
X141335314Y-80696269D01*
X141427755Y-80567624D01*
X141486842Y-80420641D01*
X141504994Y-80293096D01*
X141508581Y-80267891D01*
X141508581Y-80267888D01*
X141509162Y-80263807D01*
X141509307Y-80250000D01*
X141490276Y-80092733D01*
X141434280Y-79944546D01*
X141383219Y-79870251D01*
X141348855Y-79820251D01*
X141348854Y-79820249D01*
X141344553Y-79813992D01*
X141226275Y-79708611D01*
X141218889Y-79704700D01*
X141092988Y-79638039D01*
X141092989Y-79638039D01*
X141086274Y-79634484D01*
X140932633Y-79595892D01*
X140925034Y-79595852D01*
X140925033Y-79595852D01*
X140859181Y-79595507D01*
X140774221Y-79595062D01*
X140766841Y-79596834D01*
X140766839Y-79596834D01*
X140627563Y-79630271D01*
X140627560Y-79630272D01*
X140620184Y-79632043D01*
X140479414Y-79704700D01*
X140360039Y-79808838D01*
X140268950Y-79938444D01*
X140241291Y-80009385D01*
X140224958Y-80051279D01*
X140211406Y-80086037D01*
X140210414Y-80093570D01*
X140210414Y-80093571D01*
X140203832Y-80143571D01*
X140190729Y-80243096D01*
X118413524Y-80243096D01*
X118413524Y-79393096D01*
X153241229Y-79393096D01*
X153258613Y-79550553D01*
X153261223Y-79557684D01*
X153261223Y-79557686D01*
X153308005Y-79685524D01*
X153313053Y-79699319D01*
X153317289Y-79705622D01*
X153317289Y-79705623D01*
X153352896Y-79758611D01*
X153401408Y-79830805D01*
X153407027Y-79835918D01*
X153407028Y-79835919D01*
X153418403Y-79846269D01*
X153518576Y-79937419D01*
X153657793Y-80013008D01*
X153811022Y-80053207D01*
X153894977Y-80054526D01*
X153961819Y-80055576D01*
X153961822Y-80055576D01*
X153969416Y-80055695D01*
X154123832Y-80020329D01*
X154199588Y-79982228D01*
X154258572Y-79952563D01*
X154258575Y-79952561D01*
X154265355Y-79949151D01*
X154271126Y-79944222D01*
X154271129Y-79944220D01*
X154380036Y-79851204D01*
X154380036Y-79851203D01*
X154385814Y-79846269D01*
X154478255Y-79717624D01*
X154537342Y-79570641D01*
X154559662Y-79413807D01*
X154559807Y-79400000D01*
X154540776Y-79242733D01*
X154484780Y-79094546D01*
X154395053Y-78963992D01*
X154276775Y-78858611D01*
X154269389Y-78854700D01*
X154143488Y-78788039D01*
X154143489Y-78788039D01*
X154136774Y-78784484D01*
X153983133Y-78745892D01*
X153975534Y-78745852D01*
X153975533Y-78745852D01*
X153909681Y-78745507D01*
X153824721Y-78745062D01*
X153817341Y-78746834D01*
X153817339Y-78746834D01*
X153678063Y-78780271D01*
X153678060Y-78780272D01*
X153670684Y-78782043D01*
X153529914Y-78854700D01*
X153410539Y-78958838D01*
X153319450Y-79088444D01*
X153261906Y-79236037D01*
X153241229Y-79393096D01*
X118413524Y-79393096D01*
X118413524Y-77343096D01*
X151690729Y-77343096D01*
X151708113Y-77500553D01*
X151762553Y-77649319D01*
X151850908Y-77780805D01*
X151856527Y-77785918D01*
X151856528Y-77785919D01*
X151867903Y-77796269D01*
X151968076Y-77887419D01*
X152107293Y-77963008D01*
X152260522Y-78003207D01*
X152344477Y-78004526D01*
X152411319Y-78005576D01*
X152411322Y-78005576D01*
X152418916Y-78005695D01*
X152573332Y-77970329D01*
X152643742Y-77934917D01*
X152708072Y-77902563D01*
X152708075Y-77902561D01*
X152714855Y-77899151D01*
X152720626Y-77894222D01*
X152720629Y-77894220D01*
X152829536Y-77801204D01*
X152829536Y-77801203D01*
X152835314Y-77796269D01*
X152927755Y-77667624D01*
X152986842Y-77520641D01*
X153009162Y-77363807D01*
X153009307Y-77350000D01*
X152990276Y-77192733D01*
X152934280Y-77044546D01*
X152844553Y-76913992D01*
X152726275Y-76808611D01*
X152718889Y-76804700D01*
X152592988Y-76738039D01*
X152592989Y-76738039D01*
X152586274Y-76734484D01*
X152432633Y-76695892D01*
X152425034Y-76695852D01*
X152425033Y-76695852D01*
X152359181Y-76695507D01*
X152274221Y-76695062D01*
X152266841Y-76696834D01*
X152266839Y-76696834D01*
X152127563Y-76730271D01*
X152127560Y-76730272D01*
X152120184Y-76732043D01*
X151979414Y-76804700D01*
X151860039Y-76908838D01*
X151768950Y-77038444D01*
X151711406Y-77186037D01*
X151690729Y-77343096D01*
X118413524Y-77343096D01*
X118413524Y-76770000D01*
X124870000Y-76770000D01*
X124870000Y-75540000D01*
X133740000Y-75540000D01*
X136880000Y-75540000D01*
X136880000Y-75245073D01*
X170471122Y-75245073D01*
X170491016Y-75472462D01*
X170492440Y-75477776D01*
X170492440Y-75477777D01*
X170499566Y-75504370D01*
X170550093Y-75692943D01*
X170552415Y-75697923D01*
X170552416Y-75697925D01*
X170644233Y-75894827D01*
X170644236Y-75894832D01*
X170646559Y-75899814D01*
X170663626Y-75924188D01*
X170765684Y-76069941D01*
X170777483Y-76086792D01*
X170938886Y-76248195D01*
X170943395Y-76251352D01*
X170943397Y-76251354D01*
X171006378Y-76295454D01*
X171125863Y-76379119D01*
X171130845Y-76381442D01*
X171130850Y-76381445D01*
X171327753Y-76473262D01*
X171332735Y-76475585D01*
X171338043Y-76477007D01*
X171338045Y-76477008D01*
X171547901Y-76533238D01*
X171553216Y-76534662D01*
X171780605Y-76554556D01*
X172007994Y-76534662D01*
X172013309Y-76533238D01*
X172223165Y-76477008D01*
X172223167Y-76477007D01*
X172228475Y-76475585D01*
X172233457Y-76473262D01*
X172430360Y-76381445D01*
X172430365Y-76381442D01*
X172435347Y-76379119D01*
X172554832Y-76295454D01*
X172617813Y-76251354D01*
X172617815Y-76251352D01*
X172622324Y-76248195D01*
X172783727Y-76086792D01*
X172795527Y-76069941D01*
X172897584Y-75924188D01*
X172914651Y-75899814D01*
X172916974Y-75894832D01*
X172916977Y-75894827D01*
X173008794Y-75697925D01*
X173008795Y-75697923D01*
X173011117Y-75692943D01*
X173061645Y-75504370D01*
X173068770Y-75477777D01*
X173068770Y-75477776D01*
X173070194Y-75472462D01*
X173090088Y-75245073D01*
X173070194Y-75017684D01*
X173059505Y-74977791D01*
X173012540Y-74802513D01*
X173012539Y-74802511D01*
X173011117Y-74797203D01*
X172973130Y-74715740D01*
X172916977Y-74595319D01*
X172916974Y-74595314D01*
X172914651Y-74590332D01*
X172783727Y-74403354D01*
X172622324Y-74241951D01*
X172617810Y-74238790D01*
X172617804Y-74238785D01*
X172617798Y-74238781D01*
X172617795Y-74238777D01*
X172613600Y-74235257D01*
X172614308Y-74234414D01*
X172573472Y-74183322D01*
X172566167Y-74112702D01*
X172598201Y-74049343D01*
X172659404Y-74013362D01*
X172690074Y-74009572D01*
X172855671Y-74009572D01*
X172891841Y-74002378D01*
X172917731Y-73997229D01*
X172917733Y-73997228D01*
X172929906Y-73994807D01*
X172940226Y-73987912D01*
X172940227Y-73987911D01*
X173003773Y-73945450D01*
X173014089Y-73938557D01*
X173060481Y-73869128D01*
X173063444Y-73864693D01*
X173070339Y-73854374D01*
X173085105Y-73780140D01*
X173085104Y-71630007D01*
X173075788Y-71583167D01*
X173072761Y-71567947D01*
X173072760Y-71567945D01*
X173070339Y-71555772D01*
X173014089Y-71471589D01*
X172929906Y-71415339D01*
X172855672Y-71400573D01*
X171780779Y-71400573D01*
X170705539Y-71400574D01*
X170669787Y-71407685D01*
X170643479Y-71412917D01*
X170643477Y-71412918D01*
X170631304Y-71415339D01*
X170620984Y-71422234D01*
X170620983Y-71422235D01*
X170560590Y-71462589D01*
X170547121Y-71471589D01*
X170490871Y-71555772D01*
X170476105Y-71630006D01*
X170476106Y-73780139D01*
X170490871Y-73854374D01*
X170497766Y-73864693D01*
X170497767Y-73864695D01*
X170500729Y-73869128D01*
X170547121Y-73938557D01*
X170631304Y-73994807D01*
X170705538Y-74009573D01*
X170871135Y-74009573D01*
X170939256Y-74029575D01*
X170985749Y-74083231D01*
X170995853Y-74153505D01*
X170966359Y-74218085D01*
X170947485Y-74235108D01*
X170947610Y-74235257D01*
X170943423Y-74238770D01*
X170943407Y-74238785D01*
X170938886Y-74241951D01*
X170777483Y-74403354D01*
X170646559Y-74590332D01*
X170644236Y-74595314D01*
X170644233Y-74595319D01*
X170588080Y-74715740D01*
X170550093Y-74797203D01*
X170548671Y-74802511D01*
X170548670Y-74802513D01*
X170501705Y-74977791D01*
X170491016Y-75017684D01*
X170471122Y-75245073D01*
X136880000Y-75245073D01*
X136880000Y-70890000D01*
X133740000Y-70890000D01*
X133740000Y-75540000D01*
X124870000Y-75540000D01*
X124870000Y-71790939D01*
X126250602Y-71790939D01*
X126250603Y-73941072D01*
X126257714Y-73976824D01*
X126262334Y-74000052D01*
X126265368Y-74015307D01*
X126272263Y-74025626D01*
X126272264Y-74025628D01*
X126288110Y-74049343D01*
X126321618Y-74099490D01*
X126405801Y-74155740D01*
X126480035Y-74170506D01*
X127554928Y-74170506D01*
X128630168Y-74170505D01*
X128665920Y-74163394D01*
X128692228Y-74158162D01*
X128692230Y-74158161D01*
X128704403Y-74155740D01*
X128714723Y-74148845D01*
X128714724Y-74148844D01*
X128778270Y-74106383D01*
X128788586Y-74099490D01*
X128844836Y-74015307D01*
X128859602Y-73941073D01*
X128859602Y-73775476D01*
X128879604Y-73707355D01*
X128933260Y-73660862D01*
X129003534Y-73650758D01*
X129068114Y-73680252D01*
X129085137Y-73699126D01*
X129085286Y-73699001D01*
X129088799Y-73703188D01*
X129088814Y-73703204D01*
X129091980Y-73707725D01*
X129253383Y-73869128D01*
X129440360Y-74000052D01*
X129445342Y-74002375D01*
X129445347Y-74002378D01*
X129642250Y-74094195D01*
X129647232Y-74096518D01*
X129652540Y-74097940D01*
X129652542Y-74097941D01*
X129862398Y-74154171D01*
X129867713Y-74155595D01*
X130095102Y-74175489D01*
X130322491Y-74155595D01*
X130327806Y-74154171D01*
X130537662Y-74097941D01*
X130537664Y-74097940D01*
X130542972Y-74096518D01*
X130547954Y-74094195D01*
X130744857Y-74002378D01*
X130744862Y-74002375D01*
X130749844Y-74000052D01*
X130936821Y-73869128D01*
X131098224Y-73707725D01*
X131229148Y-73520747D01*
X131231471Y-73515765D01*
X131231474Y-73515760D01*
X131323291Y-73318858D01*
X131323292Y-73318856D01*
X131325614Y-73313876D01*
X131330603Y-73295259D01*
X131383267Y-73098710D01*
X131383267Y-73098709D01*
X131384691Y-73093395D01*
X131404585Y-72866006D01*
X131384691Y-72638617D01*
X131383056Y-72632515D01*
X131327037Y-72423446D01*
X131327036Y-72423444D01*
X131325614Y-72418136D01*
X131257569Y-72272213D01*
X131231474Y-72216252D01*
X131231471Y-72216247D01*
X131229148Y-72211265D01*
X131103837Y-72032303D01*
X131101383Y-72028798D01*
X131101381Y-72028795D01*
X131098224Y-72024287D01*
X130936821Y-71862884D01*
X130749844Y-71731960D01*
X130744862Y-71729637D01*
X130744857Y-71729634D01*
X130547954Y-71637817D01*
X130547953Y-71637816D01*
X130542972Y-71635494D01*
X130537664Y-71634072D01*
X130537662Y-71634071D01*
X130327806Y-71577841D01*
X130327805Y-71577841D01*
X130322491Y-71576417D01*
X130095102Y-71556523D01*
X129867713Y-71576417D01*
X129862399Y-71577841D01*
X129862398Y-71577841D01*
X129652542Y-71634071D01*
X129652540Y-71634072D01*
X129647232Y-71635494D01*
X129642252Y-71637816D01*
X129642250Y-71637817D01*
X129445348Y-71729634D01*
X129445343Y-71729637D01*
X129440361Y-71731960D01*
X129253383Y-71862884D01*
X129091980Y-72024287D01*
X129088823Y-72028796D01*
X129088816Y-72028804D01*
X129088810Y-72028813D01*
X129088806Y-72028816D01*
X129085286Y-72033011D01*
X129084443Y-72032303D01*
X129033351Y-72073139D01*
X128962731Y-72080444D01*
X128899372Y-72048410D01*
X128863391Y-71987207D01*
X128859601Y-71956537D01*
X128859601Y-71790940D01*
X128848498Y-71735117D01*
X128847258Y-71728880D01*
X128847257Y-71728878D01*
X128844836Y-71716705D01*
X128825236Y-71687371D01*
X128795479Y-71642838D01*
X128788586Y-71632522D01*
X128704403Y-71576272D01*
X128630169Y-71561506D01*
X127555276Y-71561506D01*
X126480036Y-71561507D01*
X126447657Y-71567947D01*
X126417976Y-71573850D01*
X126417974Y-71573851D01*
X126405801Y-71576272D01*
X126395481Y-71583167D01*
X126395480Y-71583168D01*
X126335087Y-71623522D01*
X126321618Y-71632522D01*
X126265368Y-71716705D01*
X126250602Y-71790939D01*
X124870000Y-71790939D01*
X124870000Y-69728086D01*
X171888861Y-69728086D01*
X171913285Y-69730476D01*
G37*
%TD.AperFunction*%
%TA.AperFunction,Conductor*%
G36*
X174870133Y-115527870D02*
G01*
X174903085Y-115590756D01*
X174905524Y-115615426D01*
X174905524Y-115930000D01*
X174120980Y-115930000D01*
X174258244Y-115886984D01*
X174269932Y-115881975D01*
X174428979Y-115793813D01*
X174439412Y-115786562D01*
X174577491Y-115668215D01*
X174586244Y-115659024D01*
X174679964Y-115538200D01*
X174737521Y-115496633D01*
X174808413Y-115492782D01*
X174870133Y-115527870D01*
G37*
%TD.AperFunction*%
%TA.AperFunction,Conductor*%
G36*
X171275000Y-114112310D02*
G01*
X171268763Y-114105949D01*
X171254353Y-114036431D01*
X171263406Y-114000989D01*
X171263139Y-114000902D01*
X171264489Y-113996748D01*
X171264833Y-113995400D01*
X171265180Y-113994621D01*
X171275000Y-113964398D01*
X171275000Y-114112310D01*
G37*
%TD.AperFunction*%
%TD*%
M02*
