M48
; DRILL file {KiCad (6.0.1-0)} date Tuesday, 02 August 2022 at 20:22:24
; FORMAT={-:-/ absolute / inch / decimal}
; #@! TF.CreationDate,2022-08-02T20:22:24+01:00
; #@! TF.GenerationSoftware,Kicad,Pcbnew,(6.0.1-0)
; #@! TF.FileFunction,Plated,1,4,PTH
FMAT,2
INCH
; #@! TA.AperFunction,Plated,PTH,ViaDrill
T1C0.0118
; #@! TA.AperFunction,Plated,PTH,ViaDrill
T2C0.0157
; #@! TA.AperFunction,Plated,PTH,ComponentDrill
T3C0.0157
; #@! TA.AperFunction,Plated,PTH,ComponentDrill
T4C0.0236
; #@! TA.AperFunction,Plated,PTH,ComponentDrill
T5C0.0394
; #@! TA.AperFunction,Plated,PTH,ComponentDrill
T6C0.0433
; #@! TA.AperFunction,Plated,PTH,ComponentDrill
T7C0.0551
; #@! TA.AperFunction,Plated,PTH,ComponentDrill
T8C0.1260
%
G90
G05
T1
X5.6201Y-3.2323
X5.6817Y-3.9827
X5.6913Y-3.8504
X5.7421Y-3.2529
X5.7817Y-3.9567
X5.8642Y-3.2657
X5.8693Y-3.8697
X5.9882Y-3.2677
X6.111Y-4.3843
X6.1634Y-4.4035
T2
X4.678Y-4.5047
X4.678Y-4.5445
X4.915Y-4.4941
X4.9795Y-4.7602
X5.0138Y-4.4937
X5.0142Y-4.6605
X5.0433Y-3.8921
X5.0531Y-3.5142
X5.0752Y-4.0354
X5.0764Y-3.974
X5.0929Y-4.1063
X5.0957Y-4.165
X5.1161Y-4.6506
X5.122Y-4.0354
X5.1236Y-3.9744
X5.1324Y-4.7221
X5.1333Y-4.7831
X5.148Y-4.1063
X5.1604Y-4.4606
X5.1697Y-4.0358
X5.1705Y-3.9744
X5.1988Y-4.1821
X5.2185Y-3.974
X5.2417Y-4.098
X5.251Y-4.0423
X5.2657Y-3.9744
X5.2657Y-4.6348
X5.2697Y-4.5098
X5.2815Y-2.8228
X5.2815Y-2.8563
X5.2835Y-2.8898
X5.2835Y-2.9232
X5.2835Y-4.1764
X5.2844Y-4.1299
X5.2941Y-4.7508
X5.2945Y-4.7961
X5.2953Y-4.3199
X5.313Y-2.9449
X5.3327Y-3.1949
X5.3327Y-3.2343
X5.3327Y-3.2717
X5.334Y-3.561
X5.3346Y-3.5984
X5.3346Y-3.6358
X5.3445Y-3.963
X5.3484Y-2.9429
X5.3492Y-4.7961
X5.3658Y-4.1814
X5.3732Y-4.1224
X5.374Y-3.561
X5.4094Y-4.45
X5.4142Y-3.5612
X5.4146Y-4.3232
X5.424Y-4.7572
X5.4256Y-4.1689
X5.4281Y-4.622
X5.4346Y-3.9799
X5.4366Y-4.2472
X5.4638Y-3.1949
X5.4646Y-3.2323
X5.4646Y-3.2717
X5.4787Y-4.1039
X5.4874Y-4.6197
X5.4996Y-4.4768
X5.5453Y-3.1594
X5.5728Y-4.1594
X5.5772Y-4.0205
X5.6374Y-3.5846
X5.6437Y-4.5482
X5.6535Y-4.3238
X5.6701Y-4.1488
X5.6709Y-4.2012
X5.6713Y-4.0996
X5.7008Y-2.8022
X5.7055Y-3.75
X5.7142Y-4.2024
X5.7146Y-4.0535
X5.7146Y-4.1504
X5.715Y-4.0972
X5.715Y-4.2449
X5.7165Y-3.4469
X5.7224Y-4.5187
X5.7234Y-4.3563
X5.7402Y-3.3291
X5.7661Y-4.0976
X5.7669Y-4.2028
X5.7673Y-4.0524
X5.7677Y-4.1504
X5.7689Y-4.2453
X5.7707Y-4.3474
X5.8185Y-4.0969
X5.8185Y-4.1508
X5.8185Y-4.2031
X5.8193Y-4.2445
X5.8205Y-4.0531
X5.822Y-3.4469
X5.8406Y-3.8976
X5.8445Y-3.3291
X5.8634Y-4.0969
X5.8634Y-4.2016
X5.8638Y-4.15
X5.8913Y-4.6795
X5.8913Y-4.7189
X5.8992Y-4.7657
X5.902Y-4.6417
X5.9038Y-4.2864
X5.9366Y-4.326
X5.9409Y-4.6378
X5.9449Y-4.2077
X5.9508Y-4.7878
X5.9577Y-2.7923
X5.9606Y-4.4736
X5.9606Y-4.5134
X5.9606Y-4.5531
X5.9606Y-4.5929
X5.961Y-4.3858
X5.9961Y-3.5925
X5.997Y-3.436
X5.998Y-3.0453
X6.0039Y-4.2157
X6.0079Y-3.8012
X6.0268Y-4.3858
X6.0268Y-4.4776
X6.0268Y-4.5169
X6.0268Y-4.5567
X6.0272Y-4.5961
X6.0331Y-4.2965
X6.0539Y-4.6378
X6.0539Y-4.7717
X6.0591Y-3.126
X6.065Y-4.0984
X6.0827Y-4.1801
X6.0846Y-4.2295
X6.0965Y-4.6673
X6.0965Y-4.7067
X6.0984Y-2.7933
X6.0996Y-4.7835
X6.1211Y-3.127
X6.125Y-3.502
X6.126Y-3.875
X6.1614Y-3.127
X6.1644Y-3.502
X6.1654Y-3.875
X6.1683Y-4.1093
X6.2018Y-3.1191
X6.2018Y-3.4921
X6.2028Y-3.8632
X6.2037Y-3.0364
X6.2047Y-3.4134
X6.2047Y-3.7844
X6.2057Y-3.0778
X6.2057Y-3.4528
X6.2057Y-3.8238
X6.2252Y-4.4334
X6.2461Y-4.7213
X6.2594Y-3.9213
X6.2622Y-4.5138
X6.2728Y-4.0173
X6.3163Y-4.1661
X6.3331Y-4.5476
X6.3776Y-4.0772
X6.3809Y-4.5472
X6.4045Y-2.8071
X6.4061Y-3.5364
X6.4077Y-3.1659
X6.4469Y-4.0758
X6.4827Y-4.6263
X6.4862Y-3.1614
X6.4882Y-3.5295
X6.5028Y-4.4902
X6.5263Y-4.0944
X6.5287Y-4.6299
X6.5441Y-4.1602
X6.5569Y-4.2956
X6.5972Y-4.3232
X6.6313Y-4.0502
X6.6648Y-3.9163
X6.8445Y-3.8709
X6.8701Y-3.7776
X6.8701Y-4.1134
X6.8705Y-3.8287
X6.8705Y-4.2807
X6.8705Y-4.3311
X6.8705Y-4.3827
X6.8705Y-4.4406
X6.8705Y-4.5772
T3
X6.6585Y-4.2402
X6.6585Y-4.2736
X6.6585Y-4.3071
X6.6585Y-4.3406
X6.6585Y-4.374
X6.6585Y-4.4075
X6.6585Y-4.4409
X6.6585Y-4.4744
X6.7116Y-4.2402
X6.7116Y-4.2736
X6.7116Y-4.3071
X6.7116Y-4.3406
X6.7116Y-4.374
X6.7116Y-4.4075
X6.7116Y-4.4409
X6.7116Y-4.4744
T5
X5.6703Y-4.6535
X5.6703Y-4.7535
X5.8125Y-4.6535
X5.8125Y-4.7535
T6
X4.7776Y-3.3535
X4.7776Y-3.4535
X4.7776Y-3.7256
X4.7776Y-3.8256
X5.0219Y-2.8687
X5.1219Y-2.8687
X6.763Y-2.8624
X6.763Y-2.9624
X6.7637Y-3.2379
X6.7637Y-3.3379
X6.7643Y-3.6104
X6.7643Y-3.7104
T7
X4.7677Y-4.0846
X4.7677Y-4.25
X4.7677Y-4.4154
X4.9843Y-4.0846
X4.9843Y-4.25
X4.9843Y-4.4154
T8
X4.776Y-2.8735
X4.776Y-4.6845
X6.7445Y-4.6862
T4
G00X6.6675Y-4.187
M15
G01X6.7266Y-4.187
M16
G05
G00X6.6675Y-4.5276
M15
G01X6.7266Y-4.5276
M16
G05
G00X6.8144Y-4.187
M15
G01X6.8459Y-4.187
M16
G05
G00X6.8144Y-4.5276
M15
G01X6.8459Y-4.5276
M16
G05
T0
M30
